<?xml version="1.0" encoding="UTF-8"?>
<svg xmlns="http://www.w3.org/2000/svg" xmlns:xlink="http://www.w3.org/1999/xlink" width="405.333333" height="181.333333" viewBox="0 0 405.333333 181.333333" version="1.1">
<defs>
<clipPath id="clip1">
  <path d="M 16 87 L 22.332031 87 L 22.332031 93 L 16 93 Z M 16 87 "/>
</clipPath>
<clipPath id="clip2">
  <path d="M 382.265625 87 L 388.597656 87 L 388.597656 93 L 382.265625 93 Z M 382.265625 87 "/>
</clipPath>
</defs>
<g id="surface1">
<path style="fill:none;stroke-width:1;stroke-linecap:round;stroke-linejoin:round;stroke:rgb(0%,0%,0%);stroke-opacity:1;stroke-miterlimit:10;" d="M 397.602539 544.457031 L 475.204102 544.457031 L 475.204102 562.457031 L 397.602539 562.457031 Z M 397.602539 544.457031 " transform="matrix(1.333333,0,0,1.333333,-496,-605.333333)"/>
<path style=" stroke:none;fill-rule:nonzero;fill:rgb(0%,0%,0%);fill-opacity:1;" d="M 56.472656 136.410156 L 56.472656 127.828125 L 62.679688 127.828125 L 62.679688 128.828125 L 57.597656 128.828125 L 57.597656 131.472656 L 62.347656 131.472656 L 62.347656 132.472656 L 57.597656 132.472656 L 57.597656 135.390625 L 62.867188 135.390625 L 62.867188 136.410156 Z M 56.472656 136.410156 "/>
<path style=" stroke:none;fill-rule:nonzero;fill:rgb(0%,0%,0%);fill-opacity:1;" d="M 64.308594 136.410156 L 64.308594 130.183594 L 65.246094 130.183594 L 65.246094 131.058594 C 65.4375 130.753906 65.695312 130.511719 66.015625 130.328125 C 66.351562 130.152344 66.726562 130.058594 67.140625 130.058594 C 67.601562 130.058594 67.976562 130.15625 68.265625 130.347656 C 68.558594 130.53125 68.765625 130.796875 68.890625 131.140625 C 69.390625 130.421875 70.027344 130.058594 70.808594 130.058594 C 71.433594 130.058594 71.914062 130.234375 72.246094 130.578125 C 72.578125 130.910156 72.746094 131.433594 72.746094 132.140625 L 72.746094 136.410156 L 71.683594 136.410156 L 71.683594 132.496094 C 71.683594 132.066406 71.648438 131.761719 71.578125 131.578125 C 71.523438 131.402344 71.402344 131.253906 71.226562 131.140625 C 71.042969 131.015625 70.828125 130.953125 70.578125 130.953125 C 70.148438 130.953125 69.789062 131.097656 69.496094 131.390625 C 69.203125 131.683594 69.058594 132.152344 69.058594 132.785156 L 69.058594 136.410156 L 67.996094 136.410156 L 67.996094 132.371094 C 67.996094 131.902344 67.914062 131.546875 67.746094 131.308594 C 67.578125 131.074219 67.296875 130.953125 66.914062 130.953125 C 66.605469 130.953125 66.328125 131.035156 66.078125 131.203125 C 65.828125 131.359375 65.648438 131.589844 65.539062 131.890625 C 65.421875 132.183594 65.371094 132.613281 65.371094 133.183594 L 65.371094 136.410156 Z M 64.308594 136.410156 "/>
<path style=" stroke:none;fill-rule:nonzero;fill:rgb(0%,0%,0%);fill-opacity:1;" d="M 75.285156 136.410156 L 74.304688 136.410156 L 74.304688 127.828125 L 75.347656 127.828125 L 75.347656 130.890625 C 75.789062 130.339844 76.355469 130.058594 77.054688 130.058594 C 77.441406 130.058594 77.804688 130.136719 78.136719 130.285156 C 78.480469 130.441406 78.769531 130.65625 78.992188 130.933594 C 79.210938 131.214844 79.386719 131.550781 79.511719 131.953125 C 79.636719 132.34375 79.699219 132.761719 79.699219 133.203125 C 79.699219 134.277344 79.433594 135.097656 78.910156 135.683594 C 78.378906 136.265625 77.746094 136.558594 77.011719 136.558594 C 76.273438 136.558594 75.699219 136.253906 75.285156 135.640625 Z M 75.261719 133.246094 C 75.261719 133.996094 75.367188 134.535156 75.574219 134.871094 C 75.910156 135.410156 76.351562 135.683594 76.910156 135.683594 C 77.378906 135.683594 77.785156 135.484375 78.117188 135.078125 C 78.449219 134.675781 78.617188 134.078125 78.617188 133.285156 C 78.617188 132.484375 78.457031 131.886719 78.136719 131.496094 C 77.816406 131.109375 77.429688 130.910156 76.972656 130.910156 C 76.496094 130.910156 76.097656 131.113281 75.761719 131.515625 C 75.429688 131.921875 75.261719 132.496094 75.261719 133.246094 Z M 75.261719 133.246094 "/>
<path style=" stroke:none;fill-rule:nonzero;fill:rgb(0%,0%,0%);fill-opacity:1;" d="M 85.230469 134.410156 L 86.332031 134.535156 C 86.152344 135.175781 85.824219 135.675781 85.355469 136.035156 C 84.894531 136.386719 84.300781 136.558594 83.582031 136.558594 C 82.675781 136.558594 81.957031 136.28125 81.417969 135.722656 C 80.886719 135.15625 80.625 134.363281 80.625 133.347656 C 80.625 132.308594 80.894531 131.503906 81.4375 130.933594 C 81.980469 130.347656 82.675781 130.058594 83.542969 130.058594 C 84.375 130.058594 85.046875 130.34375 85.5625 130.910156 C 86.089844 131.46875 86.355469 132.261719 86.355469 133.285156 C 86.355469 133.359375 86.355469 133.453125 86.355469 133.578125 L 81.707031 133.578125 C 81.75 134.261719 81.941406 134.78125 82.292969 135.140625 C 82.636719 135.503906 83.074219 135.683594 83.605469 135.683594 C 83.988281 135.683594 84.316406 135.589844 84.582031 135.390625 C 84.859375 135.183594 85.074219 134.859375 85.230469 134.410156 Z M 81.769531 132.703125 L 85.25 132.703125 C 85.207031 132.175781 85.074219 131.78125 84.855469 131.515625 C 84.519531 131.113281 84.082031 130.910156 83.542969 130.910156 C 83.050781 130.910156 82.644531 131.078125 82.3125 131.410156 C 81.988281 131.734375 81.8125 132.160156 81.769531 132.703125 Z M 81.769531 132.703125 "/>
<path style=" stroke:none;fill-rule:nonzero;fill:rgb(0%,0%,0%);fill-opacity:1;" d="M 91.695312 136.410156 L 91.695312 135.621094 C 91.289062 136.246094 90.707031 136.558594 89.945312 136.558594 C 89.457031 136.558594 89.007812 136.417969 88.589844 136.140625 C 88.175781 135.863281 87.847656 135.484375 87.613281 134.996094 C 87.386719 134.511719 87.277344 133.949219 87.277344 133.308594 C 87.277344 132.683594 87.382812 132.121094 87.589844 131.621094 C 87.800781 131.109375 88.101562 130.71875 88.507812 130.453125 C 88.925781 130.191406 89.386719 130.058594 89.902344 130.058594 C 90.277344 130.058594 90.613281 130.136719 90.902344 130.285156 C 91.195312 130.441406 91.429688 130.652344 91.613281 130.910156 L 91.613281 127.828125 L 92.675781 127.828125 L 92.675781 136.410156 Z M 88.363281 133.308594 C 88.363281 134.097656 88.527344 134.699219 88.863281 135.097656 C 89.195312 135.488281 89.589844 135.683594 90.050781 135.683594 C 90.507812 135.683594 90.894531 135.496094 91.214844 135.121094 C 91.550781 134.746094 91.714844 134.171875 91.714844 133.390625 C 91.714844 132.546875 91.550781 131.921875 91.214844 131.515625 C 90.882812 131.113281 90.476562 130.910156 90.007812 130.910156 C 89.535156 130.910156 89.136719 131.109375 88.820312 131.496094 C 88.511719 131.886719 88.363281 132.488281 88.363281 133.308594 Z M 88.363281 133.308594 "/>
<path style=" stroke:none;fill-rule:nonzero;fill:rgb(0%,0%,0%);fill-opacity:1;" d="M 98.371094 136.410156 L 98.371094 135.621094 C 97.964844 136.246094 97.378906 136.558594 96.621094 136.558594 C 96.128906 136.558594 95.683594 136.417969 95.265625 136.140625 C 94.847656 135.863281 94.519531 135.484375 94.285156 134.996094 C 94.0625 134.511719 93.953125 133.949219 93.953125 133.308594 C 93.953125 132.683594 94.058594 132.121094 94.265625 131.621094 C 94.472656 131.109375 94.777344 130.71875 95.183594 130.453125 C 95.597656 130.191406 96.0625 130.058594 96.578125 130.058594 C 96.953125 130.058594 97.285156 130.136719 97.578125 130.285156 C 97.871094 130.441406 98.105469 130.652344 98.285156 130.910156 L 98.285156 127.828125 L 99.347656 127.828125 L 99.347656 136.410156 Z M 95.035156 133.308594 C 95.035156 134.097656 95.203125 134.699219 95.535156 135.097656 C 95.871094 135.488281 96.265625 135.683594 96.722656 135.683594 C 97.183594 135.683594 97.566406 135.496094 97.890625 135.121094 C 98.222656 134.746094 98.390625 134.171875 98.390625 133.390625 C 98.390625 132.546875 98.222656 131.921875 97.890625 131.515625 C 97.558594 131.113281 97.152344 130.910156 96.683594 130.910156 C 96.207031 130.910156 95.8125 131.109375 95.496094 131.496094 C 95.1875 131.886719 95.035156 132.488281 95.035156 133.308594 Z M 95.035156 133.308594 "/>
<path style=" stroke:none;fill-rule:nonzero;fill:rgb(0%,0%,0%);fill-opacity:1;" d="M 101.003906 129.035156 L 101.003906 127.828125 L 102.066406 127.828125 L 102.066406 129.035156 Z M 101.003906 136.410156 L 101.003906 130.183594 L 102.066406 130.183594 L 102.066406 136.410156 Z M 101.003906 136.410156 "/>
<path style=" stroke:none;fill-rule:nonzero;fill:rgb(0%,0%,0%);fill-opacity:1;" d="M 103.667969 136.410156 L 103.667969 130.183594 L 104.625 130.183594 L 104.625 131.078125 C 105.070312 130.402344 105.730469 130.058594 106.605469 130.058594 C 106.980469 130.058594 107.320312 130.128906 107.625 130.265625 C 107.945312 130.390625 108.179688 130.566406 108.335938 130.785156 C 108.484375 130.996094 108.59375 131.253906 108.667969 131.558594 C 108.710938 131.753906 108.730469 132.09375 108.730469 132.578125 L 108.730469 136.410156 L 107.667969 136.410156 L 107.667969 132.621094 C 107.667969 132.191406 107.625 131.871094 107.542969 131.660156 C 107.460938 131.453125 107.3125 131.285156 107.105469 131.160156 C 106.898438 131.027344 106.652344 130.953125 106.375 130.953125 C 105.929688 130.953125 105.542969 131.097656 105.210938 131.390625 C 104.886719 131.671875 104.730469 132.214844 104.730469 133.015625 L 104.730469 136.410156 Z M 103.667969 136.410156 "/>
<path style=" stroke:none;fill-rule:nonzero;fill:rgb(0%,0%,0%);fill-opacity:1;" d="M 110.15625 136.933594 L 111.175781 137.078125 C 111.21875 137.394531 111.332031 137.625 111.53125 137.765625 C 111.789062 137.957031 112.15625 138.058594 112.613281 138.058594 C 113.097656 138.058594 113.472656 137.957031 113.738281 137.765625 C 114 137.566406 114.179688 137.296875 114.28125 136.953125 C 114.332031 136.730469 114.351562 136.28125 114.34375 135.597656 C 113.882812 136.140625 113.3125 136.410156 112.632812 136.410156 C 111.769531 136.410156 111.101562 136.109375 110.632812 135.496094 C 110.175781 134.871094 109.945312 134.128906 109.945312 133.265625 C 109.945312 132.671875 110.050781 132.121094 110.257812 131.621094 C 110.476562 131.121094 110.789062 130.738281 111.195312 130.472656 C 111.597656 130.199219 112.078125 130.058594 112.632812 130.058594 C 113.367188 130.058594 113.972656 130.347656 114.445312 130.933594 L 114.445312 130.183594 L 115.425781 130.183594 L 115.425781 135.558594 C 115.425781 136.527344 115.320312 137.214844 115.113281 137.621094 C 114.914062 138.019531 114.601562 138.339844 114.175781 138.578125 C 113.757812 138.8125 113.238281 138.933594 112.613281 138.933594 C 111.863281 138.933594 111.257812 138.765625 110.800781 138.433594 C 110.351562 138.097656 110.140625 137.597656 110.15625 136.933594 Z M 111.03125 133.183594 C 111.03125 134.003906 111.1875 134.597656 111.507812 134.972656 C 111.828125 135.347656 112.226562 135.535156 112.71875 135.535156 C 113.203125 135.535156 113.613281 135.347656 113.945312 134.972656 C 114.28125 134.597656 114.445312 134.015625 114.445312 133.222656 C 114.445312 132.464844 114.269531 131.886719 113.925781 131.496094 C 113.59375 131.109375 113.1875 130.910156 112.71875 130.910156 C 112.242188 130.910156 111.84375 131.109375 111.507812 131.496094 C 111.1875 131.871094 111.03125 132.433594 111.03125 133.183594 Z M 111.03125 133.183594 "/>
<path style=" stroke:none;fill-rule:nonzero;fill:rgb(0%,0%,0%);fill-opacity:1;" d="M 64.398438 171.648438 L 65.460938 171.546875 C 65.511719 171.976562 65.632812 172.332031 65.816406 172.609375 C 66.007812 172.890625 66.300781 173.109375 66.691406 173.273438 C 67.074219 173.441406 67.511719 173.523438 68.003906 173.523438 C 68.429688 173.523438 68.816406 173.460938 69.148438 173.335938 C 69.480469 173.210938 69.730469 173.039062 69.898438 172.816406 C 70.066406 172.582031 70.148438 172.332031 70.148438 172.066406 C 70.148438 171.804688 70.066406 171.578125 69.898438 171.378906 C 69.742188 171.171875 69.488281 171 69.128906 170.859375 C 68.902344 170.765625 68.398438 170.625 67.605469 170.441406 C 66.816406 170.25 66.257812 170.066406 65.941406 169.898438 C 65.535156 169.691406 65.230469 169.429688 65.023438 169.109375 C 64.824219 168.789062 64.730469 168.429688 64.730469 168.023438 C 64.730469 167.597656 64.847656 167.191406 65.085938 166.816406 C 65.335938 166.441406 65.695312 166.160156 66.167969 165.960938 C 66.636719 165.769531 67.167969 165.671875 67.753906 165.671875 C 68.386719 165.671875 68.949219 165.773438 69.441406 165.984375 C 69.925781 166.179688 70.292969 166.476562 70.542969 166.878906 C 70.804688 167.285156 70.949219 167.734375 70.980469 168.234375 L 69.878906 168.316406 C 69.820312 167.773438 69.628906 167.367188 69.292969 167.085938 C 68.960938 166.8125 68.460938 166.671875 67.792969 166.671875 C 67.113281 166.671875 66.613281 166.796875 66.292969 167.046875 C 65.972656 167.296875 65.816406 167.601562 65.816406 167.960938 C 65.816406 168.269531 65.925781 168.519531 66.148438 168.710938 C 66.367188 168.921875 66.941406 169.128906 67.855469 169.335938 C 68.785156 169.546875 69.425781 169.726562 69.773438 169.878906 C 70.273438 170.101562 70.636719 170.394531 70.878906 170.753906 C 71.113281 171.101562 71.230469 171.515625 71.230469 171.984375 C 71.230469 172.429688 71.097656 172.859375 70.835938 173.273438 C 70.570312 173.679688 70.195312 173.992188 69.710938 174.210938 C 69.222656 174.429688 68.675781 174.546875 68.066406 174.546875 C 67.285156 174.546875 66.632812 174.429688 66.105469 174.210938 C 65.574219 173.976562 65.160156 173.640625 64.855469 173.191406 C 64.566406 172.734375 64.410156 172.222656 64.398438 171.648438 Z M 64.398438 171.648438 "/>
<path style=" stroke:none;fill-rule:nonzero;fill:rgb(0%,0%,0%);fill-opacity:1;" d="M 72.257812 171.296875 C 72.257812 170.144531 72.574219 169.289062 73.214844 168.734375 C 73.757812 168.273438 74.40625 168.046875 75.171875 168.046875 C 76.03125 168.046875 76.734375 168.328125 77.277344 168.878906 C 77.820312 169.4375 78.089844 170.207031 78.089844 171.191406 C 78.089844 172 77.964844 172.628906 77.714844 173.085938 C 77.476562 173.546875 77.132812 173.910156 76.671875 174.171875 C 76.214844 174.421875 75.714844 174.546875 75.171875 174.546875 C 74.296875 174.546875 73.589844 174.269531 73.046875 173.710938 C 72.515625 173.144531 72.257812 172.335938 72.257812 171.296875 Z M 73.339844 171.296875 C 73.339844 172.085938 73.511719 172.6875 73.859375 173.085938 C 74.203125 173.476562 74.640625 173.671875 75.171875 173.671875 C 75.699219 173.671875 76.136719 173.476562 76.484375 173.085938 C 76.828125 172.6875 77.007812 172.078125 77.007812 171.253906 C 77.007812 170.492188 76.828125 169.910156 76.484375 169.503906 C 76.136719 169.101562 75.699219 168.898438 75.171875 168.898438 C 74.640625 168.898438 74.203125 169.101562 73.859375 169.503906 C 73.511719 169.894531 73.339844 170.492188 73.339844 171.296875 Z M 73.339844 171.296875 "/>
<path style=" stroke:none;fill-rule:nonzero;fill:rgb(0%,0%,0%);fill-opacity:1;" d="M 83.410156 174.398438 L 83.410156 173.484375 C 82.921875 174.191406 82.265625 174.546875 81.429688 174.546875 C 81.066406 174.546875 80.726562 174.472656 80.410156 174.335938 C 80.085938 174.1875 79.847656 174.003906 79.679688 173.796875 C 79.523438 173.585938 79.421875 173.332031 79.367188 173.023438 C 79.328125 172.816406 79.304688 172.484375 79.304688 172.023438 L 79.304688 168.171875 L 80.347656 168.171875 L 80.347656 171.628906 C 80.347656 172.1875 80.375 172.554688 80.429688 172.734375 C 80.484375 173.015625 80.617188 173.234375 80.828125 173.398438 C 81.046875 173.554688 81.316406 173.628906 81.640625 173.628906 C 81.957031 173.628906 82.253906 173.554688 82.535156 173.398438 C 82.8125 173.234375 83.003906 173.015625 83.117188 172.734375 C 83.226562 172.457031 83.285156 172.046875 83.285156 171.503906 L 83.285156 168.171875 L 84.347656 168.171875 L 84.347656 174.398438 Z M 83.410156 174.398438 "/>
<path style=" stroke:none;fill-rule:nonzero;fill:rgb(0%,0%,0%);fill-opacity:1;" d="M 85.980469 174.398438 L 85.980469 168.171875 L 86.9375 168.171875 L 86.9375 169.128906 C 87.171875 168.6875 87.398438 168.394531 87.605469 168.253906 C 87.8125 168.117188 88.042969 168.046875 88.292969 168.046875 C 88.636719 168.046875 89 168.160156 89.375 168.378906 L 89 169.359375 C 88.75 169.207031 88.492188 169.128906 88.230469 169.128906 C 88.007812 169.128906 87.796875 169.203125 87.605469 169.335938 C 87.421875 169.476562 87.292969 169.671875 87.210938 169.921875 C 87.09375 170.296875 87.042969 170.707031 87.042969 171.148438 L 87.042969 174.398438 Z M 85.980469 174.398438 "/>
<path style=" stroke:none;fill-rule:nonzero;fill:rgb(0%,0%,0%);fill-opacity:1;" d="M 94.058594 172.128906 L 95.101562 172.253906 C 94.988281 172.976562 94.695312 173.539062 94.226562 173.941406 C 93.753906 174.347656 93.175781 174.546875 92.496094 174.546875 C 91.648438 174.546875 90.964844 174.269531 90.457031 173.710938 C 89.941406 173.160156 89.683594 172.359375 89.683594 171.316406 C 89.683594 170.640625 89.792969 170.046875 90.019531 169.546875 C 90.238281 169.046875 90.570312 168.671875 91.019531 168.421875 C 91.476562 168.171875 91.976562 168.046875 92.519531 168.046875 C 93.183594 168.046875 93.730469 168.222656 94.164062 168.566406 C 94.589844 168.898438 94.871094 169.378906 94.996094 170.003906 L 93.976562 170.171875 C 93.878906 169.753906 93.707031 169.441406 93.457031 169.234375 C 93.207031 169.015625 92.902344 168.898438 92.558594 168.898438 C 92.019531 168.898438 91.582031 169.097656 91.246094 169.484375 C 90.925781 169.859375 90.769531 170.457031 90.769531 171.273438 C 90.769531 172.125 90.925781 172.734375 91.246094 173.109375 C 91.566406 173.484375 91.980469 173.671875 92.496094 173.671875 C 92.914062 173.671875 93.257812 173.546875 93.539062 173.296875 C 93.816406 173.046875 93.988281 172.660156 94.058594 172.128906 Z M 94.058594 172.128906 "/>
<path style=" stroke:none;fill-rule:nonzero;fill:rgb(0%,0%,0%);fill-opacity:1;" d="M 100.246094 172.398438 L 101.351562 172.523438 C 101.167969 173.164062 100.839844 173.664062 100.371094 174.023438 C 99.914062 174.375 99.320312 174.546875 98.601562 174.546875 C 97.695312 174.546875 96.976562 174.269531 96.433594 173.710938 C 95.902344 173.144531 95.644531 172.351562 95.644531 171.335938 C 95.644531 170.296875 95.914062 169.492188 96.457031 168.921875 C 96.996094 168.335938 97.695312 168.046875 98.558594 168.046875 C 99.394531 168.046875 100.066406 168.332031 100.582031 168.898438 C 101.105469 169.457031 101.371094 170.25 101.371094 171.273438 C 101.371094 171.347656 101.371094 171.441406 101.371094 171.566406 L 96.726562 171.566406 C 96.769531 172.25 96.960938 172.769531 97.308594 173.128906 C 97.652344 173.492188 98.089844 173.671875 98.621094 173.671875 C 99.007812 173.671875 99.335938 173.578125 99.601562 173.378906 C 99.878906 173.171875 100.089844 172.847656 100.246094 172.398438 Z M 96.789062 170.691406 L 100.269531 170.691406 C 100.226562 170.164062 100.089844 169.769531 99.871094 169.503906 C 99.539062 169.101562 99.101562 168.898438 98.558594 168.898438 C 98.070312 168.898438 97.664062 169.066406 97.332031 169.398438 C 97.007812 169.722656 96.832031 170.148438 96.789062 170.691406 Z M 96.789062 170.691406 "/>
<path style=" stroke:none;fill-rule:nonzero;fill:rgb(0%,0%,0%);fill-opacity:1;" d="M 102.253906 172.546875 L 103.296875 172.378906 C 103.347656 172.796875 103.511719 173.117188 103.777344 173.335938 C 104.050781 173.5625 104.425781 173.671875 104.902344 173.671875 C 105.386719 173.671875 105.746094 173.578125 105.984375 173.378906 C 106.21875 173.1875 106.339844 172.957031 106.339844 172.691406 C 106.339844 172.441406 106.234375 172.253906 106.027344 172.128906 C 105.871094 172.035156 105.511719 171.910156 104.941406 171.753906 C 104.160156 171.5625 103.621094 171.394531 103.316406 171.253906 C 103.027344 171.117188 102.800781 170.921875 102.652344 170.671875 C 102.496094 170.421875 102.421875 170.144531 102.421875 169.835938 C 102.421875 169.5625 102.484375 169.304688 102.609375 169.066406 C 102.734375 168.832031 102.90625 168.628906 103.128906 168.460938 C 103.296875 168.351562 103.515625 168.253906 103.796875 168.171875 C 104.089844 168.085938 104.390625 168.046875 104.714844 168.046875 C 105.199219 168.046875 105.621094 168.117188 105.984375 168.253906 C 106.359375 168.394531 106.636719 168.582031 106.816406 168.816406 C 106.996094 169.054688 107.121094 169.375 107.191406 169.773438 L 106.152344 169.921875 C 106.109375 169.601562 105.96875 169.351562 105.734375 169.171875 C 105.511719 168.992188 105.199219 168.898438 104.796875 168.898438 C 104.308594 168.898438 103.964844 168.984375 103.753906 169.148438 C 103.546875 169.304688 103.441406 169.492188 103.441406 169.710938 C 103.441406 169.851562 103.484375 169.972656 103.566406 170.066406 C 103.652344 170.191406 103.785156 170.289062 103.984375 170.359375 C 104.078125 170.398438 104.386719 170.492188 104.902344 170.628906 C 105.652344 170.828125 106.171875 170.984375 106.464844 171.109375 C 106.765625 171.234375 107.003906 171.421875 107.171875 171.671875 C 107.339844 171.910156 107.421875 172.207031 107.421875 172.566406 C 107.421875 172.929688 107.316406 173.265625 107.109375 173.566406 C 106.902344 173.875 106.597656 174.117188 106.214844 174.296875 C 105.839844 174.460938 105.402344 174.546875 104.902344 174.546875 C 104.09375 174.546875 103.472656 174.378906 103.046875 174.046875 C 102.628906 173.703125 102.363281 173.203125 102.253906 172.546875 Z M 102.253906 172.546875 "/>
<path style="fill:none;stroke-width:1;stroke-linecap:round;stroke-linejoin:round;stroke:rgb(0%,0%,0%);stroke-opacity:1;stroke-miterlimit:10;" d="M 475.204102 521.543945 L 566.800781 521.543945 " transform="matrix(1.333333,0,0,1.333333,-496,-605.333333)"/>
<path style="fill:none;stroke-width:1;stroke-linecap:butt;stroke-linejoin:miter;stroke:rgb(0%,0%,0%);stroke-opacity:1;stroke-miterlimit:10;" d="M 570.799805 521.543945 L 566.800781 521.543945 M 566.800781 520.043945 L 570.799805 521.543945 L 566.800781 523.043945 " transform="matrix(1.333333,0,0,1.333333,-496,-605.333333)"/>
<path style="fill:none;stroke-width:1;stroke-linecap:round;stroke-linejoin:round;stroke:rgb(0%,0%,0%);stroke-opacity:1;stroke-miterlimit:10;" d="M 436.40332 574.799805 L 436.40332 568.354492 " transform="matrix(1.333333,0,0,1.333333,-496,-605.333333)"/>
<path style="fill:none;stroke-width:1;stroke-linecap:butt;stroke-linejoin:miter;stroke:rgb(0%,0%,0%);stroke-opacity:1;stroke-miterlimit:10;" d="M 436.40332 564.355469 L 436.40332 568.354492 M 434.90332 568.354492 L 436.40332 564.355469 L 437.90332 568.354492 " transform="matrix(1.333333,0,0,1.333333,-496,-605.333333)"/>
<path style=" stroke:none;fill-rule:nonzero;fill:rgb(0%,0%,0%);fill-opacity:1;" d="M 65.132812 17.601562 L 65.132812 9.015625 L 71.34375 9.015625 L 71.34375 10.015625 L 66.257812 10.015625 L 66.257812 12.664062 L 71.007812 12.664062 L 71.007812 13.664062 L 66.257812 13.664062 L 66.257812 16.578125 L 71.53125 16.578125 L 71.53125 17.601562 Z M 65.132812 17.601562 "/>
<path style=" stroke:none;fill-rule:nonzero;fill:rgb(0%,0%,0%);fill-opacity:1;" d="M 72.972656 17.601562 L 72.972656 11.371094 L 73.929688 11.371094 L 73.929688 12.265625 C 74.371094 11.589844 75.035156 11.246094 75.910156 11.246094 C 76.285156 11.246094 76.621094 11.320312 76.929688 11.453125 C 77.246094 11.578125 77.480469 11.757812 77.636719 11.976562 C 77.789062 12.183594 77.898438 12.445312 77.972656 12.746094 C 78.011719 12.945312 78.035156 13.28125 78.035156 13.765625 L 78.035156 17.601562 L 76.972656 17.601562 L 76.972656 13.808594 C 76.972656 13.382812 76.929688 13.058594 76.847656 12.851562 C 76.761719 12.640625 76.617188 12.476562 76.410156 12.351562 C 76.199219 12.214844 75.957031 12.140625 75.679688 12.140625 C 75.230469 12.140625 74.847656 12.289062 74.511719 12.578125 C 74.191406 12.859375 74.035156 13.402344 74.035156 14.203125 L 74.035156 17.601562 Z M 72.972656 17.601562 "/>
<path style=" stroke:none;fill-rule:nonzero;fill:rgb(0%,0%,0%);fill-opacity:1;" d="M 83.707031 15.328125 L 84.75 15.453125 C 84.636719 16.179688 84.34375 16.742188 83.875 17.140625 C 83.402344 17.546875 82.824219 17.746094 82.144531 17.746094 C 81.296875 17.746094 80.613281 17.46875 80.105469 16.914062 C 79.589844 16.359375 79.332031 15.558594 79.332031 14.515625 C 79.332031 13.839844 79.441406 13.246094 79.667969 12.746094 C 79.886719 12.246094 80.21875 11.871094 80.667969 11.621094 C 81.125 11.371094 81.625 11.246094 82.167969 11.246094 C 82.832031 11.246094 83.378906 11.421875 83.8125 11.765625 C 84.238281 12.101562 84.519531 12.578125 84.644531 13.203125 L 83.625 13.371094 C 83.527344 12.953125 83.355469 12.640625 83.105469 12.433594 C 82.855469 12.214844 82.550781 12.101562 82.207031 12.101562 C 81.667969 12.101562 81.230469 12.296875 80.894531 12.683594 C 80.574219 13.058594 80.417969 13.65625 80.417969 14.476562 C 80.417969 15.324219 80.574219 15.933594 80.894531 16.308594 C 81.214844 16.683594 81.628906 16.871094 82.144531 16.871094 C 82.5625 16.871094 82.90625 16.746094 83.1875 16.496094 C 83.464844 16.246094 83.636719 15.859375 83.707031 15.328125 Z M 83.707031 15.328125 "/>
<path style=" stroke:none;fill-rule:nonzero;fill:rgb(0%,0%,0%);fill-opacity:1;" d="M 85.25 14.496094 C 85.25 13.34375 85.566406 12.492188 86.207031 11.933594 C 86.75 11.476562 87.402344 11.246094 88.167969 11.246094 C 89.027344 11.246094 89.730469 11.527344 90.269531 12.078125 C 90.8125 12.636719 91.082031 13.40625 91.082031 14.390625 C 91.082031 15.199219 90.957031 15.828125 90.707031 16.289062 C 90.46875 16.746094 90.125 17.109375 89.667969 17.371094 C 89.207031 17.621094 88.707031 17.746094 88.167969 17.746094 C 87.292969 17.746094 86.582031 17.46875 86.042969 16.914062 C 85.511719 16.34375 85.25 15.539062 85.25 14.496094 Z M 86.332031 14.496094 C 86.332031 15.289062 86.503906 15.886719 86.855469 16.289062 C 87.199219 16.679688 87.636719 16.871094 88.167969 16.871094 C 88.691406 16.871094 89.128906 16.679688 89.480469 16.289062 C 89.824219 15.886719 90 15.277344 90 14.453125 C 90 13.695312 89.824219 13.109375 89.480469 12.703125 C 89.128906 12.304688 88.691406 12.101562 88.167969 12.101562 C 87.636719 12.101562 87.199219 12.304688 86.855469 12.703125 C 86.503906 13.09375 86.332031 13.695312 86.332031 14.496094 Z M 86.332031 14.496094 "/>
<path style=" stroke:none;fill-rule:nonzero;fill:rgb(0%,0%,0%);fill-opacity:1;" d="M 96.363281 17.601562 L 96.363281 16.808594 C 95.957031 17.433594 95.371094 17.746094 94.613281 17.746094 C 94.121094 17.746094 93.675781 17.605469 93.257812 17.328125 C 92.839844 17.054688 92.511719 16.671875 92.277344 16.183594 C 92.054688 15.699219 91.945312 15.136719 91.945312 14.496094 C 91.945312 13.871094 92.050781 13.308594 92.257812 12.808594 C 92.464844 12.296875 92.769531 11.90625 93.175781 11.640625 C 93.589844 11.382812 94.054688 11.246094 94.570312 11.246094 C 94.945312 11.246094 95.277344 11.324219 95.570312 11.476562 C 95.863281 11.632812 96.097656 11.839844 96.277344 12.101562 L 96.277344 9.015625 L 97.339844 9.015625 L 97.339844 17.601562 Z M 93.027344 14.496094 C 93.027344 15.289062 93.195312 15.886719 93.527344 16.289062 C 93.863281 16.679688 94.257812 16.871094 94.714844 16.871094 C 95.175781 16.871094 95.558594 16.683594 95.882812 16.308594 C 96.214844 15.933594 96.382812 15.359375 96.382812 14.578125 C 96.382812 13.734375 96.214844 13.109375 95.882812 12.703125 C 95.550781 12.304688 95.144531 12.101562 94.675781 12.101562 C 94.199219 12.101562 93.804688 12.296875 93.488281 12.683594 C 93.179688 13.074219 93.027344 13.679688 93.027344 14.496094 Z M 93.027344 14.496094 "/>
<path style=" stroke:none;fill-rule:nonzero;fill:rgb(0%,0%,0%);fill-opacity:1;" d="M 103.246094 15.601562 L 104.347656 15.726562 C 104.167969 16.367188 103.839844 16.867188 103.371094 17.226562 C 102.910156 17.574219 102.316406 17.746094 101.597656 17.746094 C 100.691406 17.746094 99.972656 17.46875 99.433594 16.914062 C 98.902344 16.34375 98.640625 15.554688 98.640625 14.539062 C 98.640625 13.496094 98.910156 12.695312 99.453125 12.121094 C 99.996094 11.539062 100.691406 11.246094 101.558594 11.246094 C 102.390625 11.246094 103.0625 11.53125 103.578125 12.101562 C 104.105469 12.65625 104.371094 13.449219 104.371094 14.476562 C 104.371094 14.546875 104.371094 14.640625 104.371094 14.765625 L 99.722656 14.765625 C 99.765625 15.449219 99.957031 15.96875 100.308594 16.328125 C 100.652344 16.695312 101.089844 16.871094 101.621094 16.871094 C 102.003906 16.871094 102.332031 16.777344 102.597656 16.578125 C 102.875 16.371094 103.089844 16.046875 103.246094 15.601562 Z M 99.785156 13.890625 L 103.265625 13.890625 C 103.222656 13.367188 103.089844 12.96875 102.871094 12.703125 C 102.535156 12.304688 102.097656 12.101562 101.558594 12.101562 C 101.066406 12.101562 100.660156 12.265625 100.328125 12.601562 C 100.003906 12.921875 99.828125 13.351562 99.785156 13.890625 Z M 99.785156 13.890625 "/>
<path style=" stroke:none;fill-rule:nonzero;fill:rgb(0%,0%,0%);fill-opacity:1;" d="M 105.648438 17.601562 L 105.648438 11.371094 L 106.605469 11.371094 L 106.605469 12.328125 C 106.839844 11.886719 107.066406 11.59375 107.273438 11.453125 C 107.480469 11.320312 107.710938 11.246094 107.960938 11.246094 C 108.304688 11.246094 108.667969 11.359375 109.042969 11.578125 L 108.667969 12.558594 C 108.417969 12.40625 108.160156 12.328125 107.898438 12.328125 C 107.675781 12.328125 107.464844 12.402344 107.273438 12.539062 C 107.089844 12.679688 106.960938 12.871094 106.878906 13.121094 C 106.761719 13.496094 106.710938 13.90625 106.710938 14.351562 L 106.710938 17.601562 Z M 105.648438 17.601562 "/>
<path style=" stroke:none;fill-rule:nonzero;fill:rgb(0%,0%,0%);fill-opacity:1;" d="M 296.105469 17.601562 L 296.105469 9.015625 L 299.0625 9.015625 C 299.742188 9.015625 300.257812 9.058594 300.605469 9.140625 C 301.089844 9.257812 301.507812 9.453125 301.855469 9.746094 C 302.3125 10.136719 302.652344 10.632812 302.875 11.226562 C 303.09375 11.808594 303.210938 12.492188 303.210938 13.265625 C 303.210938 13.921875 303.132812 14.496094 302.980469 14.996094 C 302.824219 15.496094 302.632812 15.914062 302.398438 16.246094 C 302.15625 16.578125 301.898438 16.84375 301.605469 17.039062 C 301.324219 17.21875 300.984375 17.359375 300.585938 17.453125 C 300.195312 17.554688 299.734375 17.601562 299.210938 17.601562 Z M 297.25 16.578125 L 299.085938 16.578125 C 299.652344 16.578125 300.09375 16.53125 300.417969 16.433594 C 300.734375 16.324219 300.992188 16.171875 301.1875 15.976562 C 301.449219 15.714844 301.65625 15.351562 301.8125 14.890625 C 301.964844 14.433594 302.042969 13.886719 302.042969 13.246094 C 302.042969 12.34375 301.898438 11.65625 301.605469 11.183594 C 301.3125 10.699219 300.949219 10.371094 300.523438 10.203125 C 300.214844 10.078125 299.730469 10.015625 299.0625 10.015625 L 297.25 10.015625 Z M 297.25 16.578125 "/>
<path style=" stroke:none;fill-rule:nonzero;fill:rgb(0%,0%,0%);fill-opacity:1;" d="M 308.894531 15.601562 L 310 15.726562 C 309.816406 16.367188 309.488281 16.867188 309.019531 17.226562 C 308.5625 17.574219 307.96875 17.746094 307.25 17.746094 C 306.34375 17.746094 305.625 17.46875 305.082031 16.914062 C 304.550781 16.34375 304.292969 15.554688 304.292969 14.539062 C 304.292969 13.496094 304.5625 12.695312 305.105469 12.121094 C 305.644531 11.539062 306.34375 11.246094 307.207031 11.246094 C 308.042969 11.246094 308.714844 11.53125 309.230469 12.101562 C 309.753906 12.65625 310.019531 13.449219 310.019531 14.476562 C 310.019531 14.546875 310.019531 14.640625 310.019531 14.765625 L 305.375 14.765625 C 305.417969 15.449219 305.609375 15.96875 305.957031 16.328125 C 306.300781 16.695312 306.738281 16.871094 307.269531 16.871094 C 307.65625 16.871094 307.984375 16.777344 308.25 16.578125 C 308.527344 16.371094 308.738281 16.046875 308.894531 15.601562 Z M 305.4375 13.890625 L 308.917969 13.890625 C 308.875 13.367188 308.738281 12.96875 308.519531 12.703125 C 308.1875 12.304688 307.75 12.101562 307.207031 12.101562 C 306.71875 12.101562 306.3125 12.265625 305.980469 12.601562 C 305.65625 12.921875 305.480469 13.351562 305.4375 13.890625 Z M 305.4375 13.890625 "/>
<path style=" stroke:none;fill-rule:nonzero;fill:rgb(0%,0%,0%);fill-opacity:1;" d="M 315.382812 15.328125 L 316.425781 15.453125 C 316.308594 16.179688 316.019531 16.742188 315.550781 17.140625 C 315.074219 17.546875 314.496094 17.746094 313.820312 17.746094 C 312.972656 17.746094 312.289062 17.46875 311.777344 16.914062 C 311.261719 16.359375 311.007812 15.558594 311.007812 14.515625 C 311.007812 13.839844 311.117188 13.246094 311.339844 12.746094 C 311.558594 12.246094 311.894531 11.871094 312.339844 11.621094 C 312.800781 11.371094 313.300781 11.246094 313.839844 11.246094 C 314.507812 11.246094 315.054688 11.421875 315.488281 11.765625 C 315.914062 12.101562 316.195312 12.578125 316.320312 13.203125 L 315.300781 13.371094 C 315.199219 12.953125 315.027344 12.640625 314.777344 12.433594 C 314.527344 12.214844 314.226562 12.101562 313.882812 12.101562 C 313.339844 12.101562 312.902344 12.296875 312.570312 12.683594 C 312.246094 13.058594 312.089844 13.65625 312.089844 14.476562 C 312.089844 15.324219 312.246094 15.933594 312.570312 16.308594 C 312.886719 16.683594 313.304688 16.871094 313.820312 16.871094 C 314.238281 16.871094 314.582031 16.746094 314.863281 16.496094 C 315.136719 16.246094 315.308594 15.859375 315.382812 15.328125 Z M 315.382812 15.328125 "/>
<path style=" stroke:none;fill-rule:nonzero;fill:rgb(0%,0%,0%);fill-opacity:1;" d="M 316.925781 14.496094 C 316.925781 13.34375 317.242188 12.492188 317.882812 11.933594 C 318.425781 11.476562 319.074219 11.246094 319.839844 11.246094 C 320.699219 11.246094 321.402344 11.527344 321.945312 12.078125 C 322.488281 12.636719 322.757812 13.40625 322.757812 14.390625 C 322.757812 15.199219 322.632812 15.828125 322.382812 16.289062 C 322.144531 16.746094 321.800781 17.109375 321.339844 17.371094 C 320.882812 17.621094 320.382812 17.746094 319.839844 17.746094 C 318.964844 17.746094 318.257812 17.46875 317.714844 16.914062 C 317.183594 16.34375 316.925781 15.539062 316.925781 14.496094 Z M 318.007812 14.496094 C 318.007812 15.289062 318.179688 15.886719 318.527344 16.289062 C 318.871094 16.679688 319.308594 16.871094 319.839844 16.871094 C 320.367188 16.871094 320.804688 16.679688 321.152344 16.289062 C 321.496094 15.886719 321.675781 15.277344 321.675781 14.453125 C 321.675781 13.695312 321.496094 13.109375 321.152344 12.703125 C 320.804688 12.304688 320.367188 12.101562 319.839844 12.101562 C 319.308594 12.101562 318.871094 12.304688 318.527344 12.703125 C 318.179688 13.09375 318.007812 13.695312 318.007812 14.496094 Z M 318.007812 14.496094 "/>
<path style=" stroke:none;fill-rule:nonzero;fill:rgb(0%,0%,0%);fill-opacity:1;" d="M 328.035156 17.601562 L 328.035156 16.808594 C 327.628906 17.433594 327.046875 17.746094 326.285156 17.746094 C 325.796875 17.746094 325.347656 17.605469 324.933594 17.328125 C 324.515625 17.054688 324.1875 16.671875 323.953125 16.183594 C 323.730469 15.699219 323.621094 15.136719 323.621094 14.496094 C 323.621094 13.871094 323.722656 13.308594 323.933594 12.808594 C 324.140625 12.296875 324.441406 11.90625 324.847656 11.640625 C 325.265625 11.382812 325.730469 11.246094 326.246094 11.246094 C 326.621094 11.246094 326.953125 11.324219 327.246094 11.476562 C 327.535156 11.632812 327.769531 11.839844 327.953125 12.101562 L 327.953125 9.015625 L 329.015625 9.015625 L 329.015625 17.601562 Z M 324.703125 14.496094 C 324.703125 15.289062 324.871094 15.886719 325.203125 16.289062 C 325.535156 16.679688 325.933594 16.871094 326.390625 16.871094 C 326.847656 16.871094 327.234375 16.683594 327.558594 16.308594 C 327.890625 15.933594 328.058594 15.359375 328.058594 14.578125 C 328.058594 13.734375 327.890625 13.109375 327.558594 12.703125 C 327.222656 12.304688 326.816406 12.101562 326.347656 12.101562 C 325.875 12.101562 325.480469 12.296875 325.160156 12.683594 C 324.855469 13.074219 324.703125 13.679688 324.703125 14.496094 Z M 324.703125 14.496094 "/>
<path style=" stroke:none;fill-rule:nonzero;fill:rgb(0%,0%,0%);fill-opacity:1;" d="M 334.917969 15.601562 L 336.023438 15.726562 C 335.839844 16.367188 335.511719 16.867188 335.042969 17.226562 C 334.585938 17.574219 333.992188 17.746094 333.273438 17.746094 C 332.367188 17.746094 331.648438 17.46875 331.105469 16.914062 C 330.574219 16.34375 330.316406 15.554688 330.316406 14.539062 C 330.316406 13.496094 330.585938 12.695312 331.128906 12.121094 C 331.667969 11.539062 332.367188 11.246094 333.230469 11.246094 C 334.066406 11.246094 334.738281 11.53125 335.253906 12.101562 C 335.777344 12.65625 336.042969 13.449219 336.042969 14.476562 C 336.042969 14.546875 336.042969 14.640625 336.042969 14.765625 L 331.398438 14.765625 C 331.441406 15.449219 331.632812 15.96875 331.980469 16.328125 C 332.324219 16.695312 332.761719 16.871094 333.292969 16.871094 C 333.679688 16.871094 334.007812 16.777344 334.273438 16.578125 C 334.550781 16.371094 334.761719 16.046875 334.917969 15.601562 Z M 331.460938 13.890625 L 334.941406 13.890625 C 334.898438 13.367188 334.761719 12.96875 334.542969 12.703125 C 334.210938 12.304688 333.773438 12.101562 333.230469 12.101562 C 332.742188 12.101562 332.335938 12.265625 332.003906 12.601562 C 331.679688 12.921875 331.503906 13.351562 331.460938 13.890625 Z M 331.460938 13.890625 "/>
<path style=" stroke:none;fill-rule:nonzero;fill:rgb(0%,0%,0%);fill-opacity:1;" d="M 337.324219 17.601562 L 337.324219 11.371094 L 338.28125 11.371094 L 338.28125 12.328125 C 338.515625 11.886719 338.738281 11.59375 338.949219 11.453125 C 339.15625 11.320312 339.386719 11.246094 339.636719 11.246094 C 339.980469 11.246094 340.34375 11.359375 340.71875 11.578125 L 340.34375 12.558594 C 340.09375 12.40625 339.832031 12.328125 339.574219 12.328125 C 339.347656 12.328125 339.140625 12.402344 338.949219 12.539062 C 338.765625 12.679688 338.636719 12.871094 338.550781 13.121094 C 338.4375 13.496094 338.386719 13.90625 338.386719 14.351562 L 338.386719 17.601562 Z M 337.324219 17.601562 "/>
<path style=" stroke:none;fill-rule:nonzero;fill:rgb(69.803923%,85.09804%,100%);fill-opacity:1;" d="M 34.136719 102.058594 L 137.605469 102.058594 L 137.605469 78.058594 L 34.136719 78.058594 Z M 34.136719 102.058594 "/>
<path style="fill:none;stroke-width:1;stroke-linecap:round;stroke-linejoin:round;stroke:rgb(0%,0%,0%);stroke-opacity:1;stroke-miterlimit:10;" d="M 397.602539 512.543945 L 475.204102 512.543945 L 475.204102 530.543945 L 397.602539 530.543945 Z M 397.602539 512.543945 " transform="matrix(1.333333,0,0,1.333333,-496,-605.333333)"/>
<path style=" stroke:none;fill-rule:nonzero;fill:rgb(0%,0%,0%);fill-opacity:1;" d="M 60.460938 93.863281 L 60.460938 85.28125 L 64.273438 85.28125 C 65.035156 85.28125 65.617188 85.359375 66.023438 85.507812 C 66.425781 85.664062 66.742188 85.9375 66.980469 86.320312 C 67.214844 86.710938 67.335938 87.144531 67.335938 87.613281 C 67.335938 88.226562 67.132812 88.738281 66.730469 89.15625 C 66.339844 89.570312 65.738281 89.835938 64.917969 89.945312 C 65.210938 90.101562 65.441406 90.25 65.605469 90.382812 C 65.941406 90.691406 66.253906 91.070312 66.542969 91.53125 L 68.042969 93.863281 L 66.605469 93.863281 L 65.460938 92.070312 C 65.136719 91.5625 64.867188 91.171875 64.648438 90.90625 C 64.441406 90.628906 64.242188 90.4375 64.066406 90.320312 C 63.898438 90.210938 63.730469 90.132812 63.566406 90.09375 C 63.425781 90.066406 63.210938 90.050781 62.917969 90.050781 L 61.605469 90.050781 L 61.605469 93.863281 Z M 61.605469 89.070312 L 64.042969 89.070312 C 64.570312 89.070312 64.980469 89.019531 65.273438 88.90625 C 65.566406 88.796875 65.785156 88.625 65.941406 88.382812 C 66.089844 88.148438 66.167969 87.894531 66.167969 87.613281 C 66.167969 87.210938 66.011719 86.878906 65.710938 86.613281 C 65.417969 86.351562 64.949219 86.21875 64.316406 86.21875 L 61.605469 86.21875 Z M 61.605469 89.070312 "/>
<path style=" stroke:none;fill-rule:nonzero;fill:rgb(0%,0%,0%);fill-opacity:1;" d="M 73.230469 91.863281 L 74.335938 91.988281 C 74.152344 92.628906 73.824219 93.128906 73.355469 93.488281 C 72.898438 93.835938 72.304688 94.007812 71.585938 94.007812 C 70.679688 94.007812 69.960938 93.734375 69.417969 93.175781 C 68.886719 92.609375 68.628906 91.816406 68.628906 90.800781 C 68.628906 89.757812 68.898438 88.957031 69.441406 88.382812 C 69.980469 87.800781 70.679688 87.507812 71.542969 87.507812 C 72.378906 87.507812 73.050781 87.796875 73.566406 88.363281 C 74.089844 88.921875 74.355469 89.710938 74.355469 90.738281 C 74.355469 90.8125 74.355469 90.90625 74.355469 91.03125 L 69.710938 91.03125 C 69.753906 91.710938 69.945312 92.234375 70.292969 92.59375 C 70.636719 92.957031 71.074219 93.132812 71.605469 93.132812 C 71.992188 93.132812 72.320312 93.039062 72.585938 92.84375 C 72.863281 92.632812 73.074219 92.3125 73.230469 91.863281 Z M 69.773438 90.15625 L 73.253906 90.15625 C 73.210938 89.628906 73.074219 89.234375 72.855469 88.96875 C 72.523438 88.566406 72.085938 88.363281 71.542969 88.363281 C 71.054688 88.363281 70.648438 88.53125 70.316406 88.863281 C 69.992188 89.1875 69.816406 89.613281 69.773438 90.15625 Z M 69.773438 90.15625 "/>
<path style=" stroke:none;fill-rule:nonzero;fill:rgb(0%,0%,0%);fill-opacity:1;" d="M 79.71875 91.59375 L 80.761719 91.71875 C 80.644531 92.441406 80.355469 93.003906 79.886719 93.40625 C 79.410156 93.8125 78.832031 94.007812 78.15625 94.007812 C 77.308594 94.007812 76.625 93.734375 76.113281 93.175781 C 75.597656 92.625 75.34375 91.820312 75.34375 90.78125 C 75.34375 90.101562 75.453125 89.507812 75.675781 89.007812 C 75.894531 88.507812 76.230469 88.132812 76.675781 87.882812 C 77.136719 87.632812 77.636719 87.507812 78.175781 87.507812 C 78.84375 87.507812 79.390625 87.6875 79.824219 88.03125 C 80.25 88.363281 80.53125 88.84375 80.65625 89.46875 L 79.636719 89.632812 C 79.535156 89.21875 79.363281 88.90625 79.113281 88.695312 C 78.863281 88.476562 78.5625 88.363281 78.21875 88.363281 C 77.675781 88.363281 77.238281 88.5625 76.90625 88.945312 C 76.582031 89.320312 76.425781 89.921875 76.425781 90.738281 C 76.425781 91.585938 76.582031 92.195312 76.90625 92.570312 C 77.222656 92.945312 77.640625 93.132812 78.15625 93.132812 C 78.574219 93.132812 78.917969 93.007812 79.199219 92.757812 C 79.472656 92.507812 79.644531 92.125 79.71875 91.59375 Z M 79.71875 91.59375 "/>
<path style=" stroke:none;fill-rule:nonzero;fill:rgb(0%,0%,0%);fill-opacity:1;" d="M 85.738281 93.863281 L 85.738281 92.945312 C 85.25 93.65625 84.59375 94.007812 83.761719 94.007812 C 83.394531 94.007812 83.058594 93.9375 82.738281 93.800781 C 82.417969 93.648438 82.175781 93.46875 82.011719 93.257812 C 81.855469 93.050781 81.75 92.796875 81.699219 92.488281 C 81.65625 92.28125 81.636719 91.945312 81.636719 91.488281 L 81.636719 87.632812 L 82.675781 87.632812 L 82.675781 91.09375 C 82.675781 91.648438 82.703125 92.019531 82.761719 92.195312 C 82.8125 92.476562 82.949219 92.695312 83.15625 92.863281 C 83.375 93.019531 83.644531 93.09375 83.96875 93.09375 C 84.285156 93.09375 84.582031 93.019531 84.863281 92.863281 C 85.140625 92.695312 85.332031 92.476562 85.449219 92.195312 C 85.558594 91.921875 85.613281 91.507812 85.613281 90.96875 L 85.613281 87.632812 L 86.675781 87.632812 L 86.675781 93.863281 Z M 85.738281 93.863281 "/>
<path style=" stroke:none;fill-rule:nonzero;fill:rgb(0%,0%,0%);fill-opacity:1;" d="M 88.308594 93.863281 L 88.308594 87.632812 L 89.269531 87.632812 L 89.269531 88.59375 C 89.503906 88.148438 89.726562 87.859375 89.933594 87.71875 C 90.144531 87.582031 90.371094 87.507812 90.621094 87.507812 C 90.964844 87.507812 91.332031 87.625 91.707031 87.84375 L 91.332031 88.820312 C 91.082031 88.671875 90.820312 88.59375 90.558594 88.59375 C 90.335938 88.59375 90.128906 88.664062 89.933594 88.800781 C 89.753906 88.941406 89.621094 89.132812 89.539062 89.382812 C 89.425781 89.757812 89.371094 90.171875 89.371094 90.613281 L 89.371094 93.863281 Z M 88.308594 93.863281 "/>
<path style=" stroke:none;fill-rule:nonzero;fill:rgb(0%,0%,0%);fill-opacity:1;" d="M 92.304688 93.863281 L 92.304688 87.632812 L 93.265625 87.632812 L 93.265625 88.59375 C 93.5 88.148438 93.722656 87.859375 93.929688 87.71875 C 94.140625 87.582031 94.367188 87.507812 94.617188 87.507812 C 94.960938 87.507812 95.328125 87.625 95.703125 87.84375 L 95.328125 88.820312 C 95.078125 88.671875 94.816406 88.59375 94.554688 88.59375 C 94.332031 88.59375 94.125 88.664062 93.929688 88.800781 C 93.75 88.941406 93.617188 89.132812 93.535156 89.382812 C 93.421875 89.757812 93.367188 90.171875 93.367188 90.613281 L 93.367188 93.863281 Z M 92.304688 93.863281 "/>
<path style=" stroke:none;fill-rule:nonzero;fill:rgb(0%,0%,0%);fill-opacity:1;" d="M 100.574219 91.863281 L 101.675781 91.988281 C 101.496094 92.628906 101.167969 93.128906 100.699219 93.488281 C 100.238281 93.835938 99.644531 94.007812 98.925781 94.007812 C 98.019531 94.007812 97.300781 93.734375 96.761719 93.175781 C 96.230469 92.609375 95.96875 91.816406 95.96875 90.800781 C 95.96875 89.757812 96.238281 88.957031 96.78125 88.382812 C 97.324219 87.800781 98.019531 87.507812 98.886719 87.507812 C 99.71875 87.507812 100.390625 87.796875 100.90625 88.363281 C 101.433594 88.921875 101.699219 89.710938 101.699219 90.738281 C 101.699219 90.8125 101.699219 90.90625 101.699219 91.03125 L 97.050781 91.03125 C 97.09375 91.710938 97.285156 92.234375 97.636719 92.59375 C 97.980469 92.957031 98.417969 93.132812 98.949219 93.132812 C 99.332031 93.132812 99.660156 93.039062 99.925781 92.84375 C 100.203125 92.632812 100.417969 92.3125 100.574219 91.863281 Z M 97.113281 90.15625 L 100.59375 90.15625 C 100.550781 89.628906 100.417969 89.234375 100.199219 88.96875 C 99.863281 88.566406 99.425781 88.363281 98.886719 88.363281 C 98.394531 88.363281 97.988281 88.53125 97.65625 88.863281 C 97.332031 89.1875 97.15625 89.613281 97.113281 90.15625 Z M 97.113281 90.15625 "/>
<path style=" stroke:none;fill-rule:nonzero;fill:rgb(0%,0%,0%);fill-opacity:1;" d="M 102.996094 93.863281 L 102.996094 87.632812 L 103.957031 87.632812 L 103.957031 88.53125 C 104.398438 87.851562 105.058594 87.507812 105.933594 87.507812 C 106.308594 87.507812 106.648438 87.582031 106.957031 87.71875 C 107.273438 87.84375 107.507812 88.019531 107.664062 88.238281 C 107.816406 88.445312 107.925781 88.707031 107.996094 89.007812 C 108.039062 89.207031 108.058594 89.546875 108.058594 90.03125 L 108.058594 93.863281 L 106.996094 93.863281 L 106.996094 90.070312 C 106.996094 89.644531 106.957031 89.320312 106.871094 89.113281 C 106.789062 88.90625 106.644531 88.738281 106.433594 88.613281 C 106.226562 88.476562 105.980469 88.40625 105.707031 88.40625 C 105.257812 88.40625 104.871094 88.550781 104.539062 88.84375 C 104.214844 89.125 104.058594 89.664062 104.058594 90.46875 L 104.058594 93.863281 Z M 102.996094 93.863281 "/>
<path style=" stroke:none;fill-rule:nonzero;fill:rgb(0%,0%,0%);fill-opacity:1;" d="M 111.984375 92.925781 L 112.128906 93.84375 C 111.824219 93.910156 111.558594 93.945312 111.339844 93.945312 C 110.949219 93.945312 110.652344 93.882812 110.441406 93.757812 C 110.234375 93.632812 110.078125 93.476562 109.984375 93.28125 C 109.902344 93.085938 109.859375 92.675781 109.859375 92.050781 L 109.859375 88.46875 L 109.089844 88.46875 L 109.089844 87.632812 L 109.859375 87.632812 L 109.859375 86.09375 L 110.921875 85.46875 L 110.921875 87.632812 L 111.984375 87.632812 L 111.984375 88.46875 L 110.921875 88.46875 L 110.921875 92.09375 C 110.921875 92.398438 110.933594 92.59375 110.964844 92.675781 C 111.003906 92.757812 111.066406 92.832031 111.152344 92.882812 C 111.234375 92.941406 111.347656 92.96875 111.503906 92.96875 C 111.628906 92.96875 111.785156 92.957031 111.984375 92.925781 Z M 111.984375 92.925781 "/>
<path style=" stroke:none;fill-rule:nonzero;fill:rgb(0%,0%,0%);fill-opacity:1;" d="M 12.1875 91.996094 C 12.105469 92.101562 12.019531 92.203125 11.9375 92.308594 C 11.582031 92.746094 11.375 92.933594 11.207031 92.933594 C 11.0625 92.933594 11.019531 92.828125 11.019531 92.726562 C 11.019531 92.621094 11.0625 92.414062 11.1875 91.996094 L 11.855469 89.558594 C 11.917969 89.308594 11.980469 89.039062 11.980469 88.828125 C 11.980469 88.390625 11.707031 88.101562 11.1875 88.101562 C 10.417969 88.101562 9.625 88.828125 8.417969 90.746094 L 9.230469 88.121094 L 9.167969 88.101562 C 8.542969 88.226562 8.207031 88.289062 7.230469 88.476562 L 7.230469 88.664062 C 7.832031 88.683594 8.019531 88.746094 8.019531 88.996094 C 8.019531 89.058594 8 89.140625 7.980469 89.183594 L 6.832031 93.390625 L 7.730469 93.390625 C 8.292969 91.496094 8.394531 91.226562 8.9375 90.414062 C 9.6875 89.308594 10.230469 88.703125 10.707031 88.703125 C 10.894531 88.703125 11 88.851562 11 89.058594 C 11 89.203125 10.917969 89.640625 10.832031 90.015625 L 10.3125 91.953125 C 10.125 92.578125 10.105469 92.726562 10.105469 92.851562 C 10.105469 93.308594 10.375 93.496094 10.667969 93.496094 C 11.230469 93.496094 11.542969 93.265625 12.355469 92.140625 Z M 12.1875 91.996094 "/>
<g clip-path="url(#clip1)" clip-rule="nonzero">
<path style=" stroke:none;fill-rule:nonzero;fill:rgb(0%,0%,0%);fill-opacity:1;" d="M 19.484375 90.042969 L 21.859375 87.667969 C 21.984375 87.519531 22.023438 87.5 22.023438 87.417969 C 22.023438 87.269531 21.898438 87.167969 21.773438 87.167969 C 21.691406 87.167969 21.628906 87.207031 21.523438 87.332031 L 19.128906 89.707031 L 16.734375 87.332031 C 16.609375 87.1875 16.566406 87.167969 16.484375 87.167969 C 16.359375 87.167969 16.234375 87.269531 16.234375 87.417969 C 16.234375 87.5 16.296875 87.5625 16.398438 87.667969 L 18.773438 90.042969 L 16.398438 92.4375 C 16.273438 92.542969 16.234375 92.625 16.234375 92.6875 C 16.234375 92.832031 16.359375 92.9375 16.484375 92.9375 C 16.566406 92.9375 16.609375 92.917969 16.734375 92.769531 L 19.128906 90.394531 L 21.523438 92.769531 C 21.628906 92.894531 21.710938 92.9375 21.773438 92.9375 C 21.921875 92.9375 22.023438 92.832031 22.023438 92.6875 C 22.023438 92.605469 21.984375 92.582031 21.859375 92.4375 Z M 19.484375 90.042969 "/>
<path style=" stroke:none;fill-rule:nonzero;fill:rgb(0%,0%,0%);fill-opacity:1;" d="M 19.484375 90.042969 L 21.859375 87.667969 C 21.984375 87.519531 22.023438 87.5 22.023438 87.417969 C 22.023438 87.269531 21.898438 87.167969 21.773438 87.167969 C 21.691406 87.167969 21.628906 87.207031 21.523438 87.332031 L 19.128906 89.707031 L 16.734375 87.332031 C 16.609375 87.1875 16.566406 87.167969 16.484375 87.167969 C 16.359375 87.167969 16.234375 87.269531 16.234375 87.417969 C 16.234375 87.5 16.296875 87.5625 16.398438 87.667969 L 18.773438 90.042969 L 16.398438 92.4375 C 16.273438 92.542969 16.234375 92.625 16.234375 92.6875 C 16.234375 92.832031 16.359375 92.9375 16.484375 92.9375 C 16.566406 92.9375 16.609375 92.917969 16.734375 92.769531 L 19.128906 90.394531 L 21.523438 92.769531 C 21.628906 92.894531 21.710938 92.9375 21.773438 92.9375 C 21.921875 92.9375 22.023438 92.832031 22.023438 92.6875 C 22.023438 92.605469 21.984375 92.582031 21.859375 92.4375 Z M 19.484375 90.042969 "/>
</g>
<path style="fill:none;stroke-width:1;stroke-linecap:round;stroke-linejoin:round;stroke:rgb(0%,0%,0%);stroke-opacity:1;stroke-miterlimit:10;" d="M 436.40332 544.457031 L 436.40332 536.444336 " transform="matrix(1.333333,0,0,1.333333,-496,-605.333333)"/>
<path style="fill:none;stroke-width:1;stroke-linecap:butt;stroke-linejoin:miter;stroke:rgb(0%,0%,0%);stroke-opacity:1;stroke-miterlimit:10;" d="M 436.40332 532.445312 L 436.40332 536.444336 M 434.90332 536.444336 L 436.40332 532.445312 L 437.90332 536.444336 " transform="matrix(1.333333,0,0,1.333333,-496,-605.333333)"/>
<path style="fill:none;stroke-width:1;stroke-linecap:round;stroke-linejoin:round;stroke:rgb(0%,0%,0%);stroke-opacity:1;stroke-miterlimit:10;" d="M 572.698242 544.457031 L 650.299805 544.457031 L 650.299805 562.457031 L 572.698242 562.457031 Z M 572.698242 544.457031 " transform="matrix(1.333333,0,0,1.333333,-496,-605.333333)"/>
<path style=" stroke:none;fill-rule:nonzero;fill:rgb(0%,0%,0%);fill-opacity:1;" d="M 289.9375 136.410156 L 289.9375 127.828125 L 296.148438 127.828125 L 296.148438 128.828125 L 291.0625 128.828125 L 291.0625 131.472656 L 295.8125 131.472656 L 295.8125 132.472656 L 291.0625 132.472656 L 291.0625 135.390625 L 296.335938 135.390625 L 296.335938 136.410156 Z M 289.9375 136.410156 "/>
<path style=" stroke:none;fill-rule:nonzero;fill:rgb(0%,0%,0%);fill-opacity:1;" d="M 297.777344 136.410156 L 297.777344 130.183594 L 298.714844 130.183594 L 298.714844 131.058594 C 298.90625 130.753906 299.160156 130.511719 299.484375 130.328125 C 299.816406 130.152344 300.191406 130.058594 300.609375 130.058594 C 301.066406 130.058594 301.441406 130.15625 301.734375 130.347656 C 302.027344 130.53125 302.234375 130.796875 302.359375 131.140625 C 302.859375 130.421875 303.496094 130.058594 304.277344 130.058594 C 304.902344 130.058594 305.378906 130.234375 305.714844 130.578125 C 306.046875 130.910156 306.214844 131.433594 306.214844 132.140625 L 306.214844 136.410156 L 305.152344 136.410156 L 305.152344 132.496094 C 305.152344 132.066406 305.113281 131.761719 305.046875 131.578125 C 304.988281 131.402344 304.871094 131.253906 304.691406 131.140625 C 304.511719 131.015625 304.296875 130.953125 304.046875 130.953125 C 303.613281 130.953125 303.253906 131.097656 302.964844 131.390625 C 302.671875 131.683594 302.527344 132.152344 302.527344 132.785156 L 302.527344 136.410156 L 301.464844 136.410156 L 301.464844 132.371094 C 301.464844 131.902344 301.378906 131.546875 301.214844 131.308594 C 301.046875 131.074219 300.765625 130.953125 300.378906 130.953125 C 300.074219 130.953125 299.796875 131.035156 299.546875 131.203125 C 299.296875 131.359375 299.113281 131.589844 299.003906 131.890625 C 298.890625 132.183594 298.839844 132.613281 298.839844 133.183594 L 298.839844 136.410156 Z M 297.777344 136.410156 "/>
<path style=" stroke:none;fill-rule:nonzero;fill:rgb(0%,0%,0%);fill-opacity:1;" d="M 308.75 136.410156 L 307.773438 136.410156 L 307.773438 127.828125 L 308.8125 127.828125 L 308.8125 130.890625 C 309.257812 130.339844 309.824219 130.058594 310.523438 130.058594 C 310.90625 130.058594 311.273438 130.136719 311.605469 130.285156 C 311.949219 130.441406 312.234375 130.65625 312.460938 130.933594 C 312.679688 131.214844 312.855469 131.550781 312.980469 131.953125 C 313.105469 132.34375 313.167969 132.761719 313.167969 133.203125 C 313.167969 134.277344 312.902344 135.097656 312.375 135.683594 C 311.84375 136.265625 311.214844 136.558594 310.480469 136.558594 C 309.742188 136.558594 309.167969 136.253906 308.75 135.640625 Z M 308.730469 133.246094 C 308.730469 133.996094 308.835938 134.535156 309.042969 134.871094 C 309.375 135.410156 309.820312 135.683594 310.375 135.683594 C 310.84375 135.683594 311.25 135.484375 311.585938 135.078125 C 311.917969 134.675781 312.085938 134.078125 312.085938 133.285156 C 312.085938 132.484375 311.921875 131.886719 311.605469 131.496094 C 311.28125 131.109375 310.898438 130.910156 310.4375 130.910156 C 309.964844 130.910156 309.5625 131.113281 309.230469 131.515625 C 308.898438 131.921875 308.730469 132.496094 308.730469 133.246094 Z M 308.730469 133.246094 "/>
<path style=" stroke:none;fill-rule:nonzero;fill:rgb(0%,0%,0%);fill-opacity:1;" d="M 318.695312 134.410156 L 319.800781 134.535156 C 319.617188 135.175781 319.289062 135.675781 318.820312 136.035156 C 318.363281 136.386719 317.769531 136.558594 317.050781 136.558594 C 316.144531 136.558594 315.425781 136.28125 314.882812 135.722656 C 314.351562 135.15625 314.09375 134.363281 314.09375 133.347656 C 314.09375 132.308594 314.363281 131.503906 314.90625 130.933594 C 315.445312 130.347656 316.144531 130.058594 317.007812 130.058594 C 317.84375 130.058594 318.515625 130.34375 319.03125 130.910156 C 319.554688 131.46875 319.820312 132.261719 319.820312 133.285156 C 319.820312 133.359375 319.820312 133.453125 319.820312 133.578125 L 315.175781 133.578125 C 315.21875 134.261719 315.410156 134.78125 315.757812 135.140625 C 316.101562 135.503906 316.539062 135.683594 317.070312 135.683594 C 317.457031 135.683594 317.785156 135.589844 318.050781 135.390625 C 318.328125 135.183594 318.539062 134.859375 318.695312 134.410156 Z M 315.238281 132.703125 L 318.71875 132.703125 C 318.675781 132.175781 318.539062 131.78125 318.320312 131.515625 C 317.988281 131.113281 317.550781 130.910156 317.007812 130.910156 C 316.519531 130.910156 316.113281 131.078125 315.78125 131.410156 C 315.457031 131.734375 315.28125 132.160156 315.238281 132.703125 Z M 315.238281 132.703125 "/>
<path style=" stroke:none;fill-rule:nonzero;fill:rgb(0%,0%,0%);fill-opacity:1;" d="M 325.164062 136.410156 L 325.164062 135.621094 C 324.757812 136.246094 324.171875 136.558594 323.414062 136.558594 C 322.921875 136.558594 322.476562 136.417969 322.058594 136.140625 C 321.640625 135.863281 321.3125 135.484375 321.078125 134.996094 C 320.855469 134.511719 320.746094 133.949219 320.746094 133.308594 C 320.746094 132.683594 320.851562 132.121094 321.058594 131.621094 C 321.265625 131.109375 321.570312 130.71875 321.976562 130.453125 C 322.390625 130.191406 322.855469 130.058594 323.371094 130.058594 C 323.746094 130.058594 324.078125 130.136719 324.371094 130.285156 C 324.664062 130.441406 324.898438 130.652344 325.078125 130.910156 L 325.078125 127.828125 L 326.140625 127.828125 L 326.140625 136.410156 Z M 321.828125 133.308594 C 321.828125 134.097656 321.996094 134.699219 322.328125 135.097656 C 322.664062 135.488281 323.058594 135.683594 323.515625 135.683594 C 323.976562 135.683594 324.359375 135.496094 324.683594 135.121094 C 325.015625 134.746094 325.183594 134.171875 325.183594 133.390625 C 325.183594 132.546875 325.015625 131.921875 324.683594 131.515625 C 324.351562 131.113281 323.945312 130.910156 323.476562 130.910156 C 323 130.910156 322.605469 131.109375 322.289062 131.496094 C 321.980469 131.886719 321.828125 132.488281 321.828125 133.308594 Z M 321.828125 133.308594 "/>
<path style=" stroke:none;fill-rule:nonzero;fill:rgb(0%,0%,0%);fill-opacity:1;" d="M 331.835938 136.410156 L 331.835938 135.621094 C 331.429688 136.246094 330.847656 136.558594 330.085938 136.558594 C 329.597656 136.558594 329.148438 136.417969 328.734375 136.140625 C 328.316406 135.863281 327.988281 135.484375 327.753906 134.996094 C 327.53125 134.511719 327.421875 133.949219 327.421875 133.308594 C 327.421875 132.683594 327.523438 132.121094 327.734375 131.621094 C 327.941406 131.109375 328.242188 130.71875 328.648438 130.453125 C 329.066406 130.191406 329.53125 130.058594 330.046875 130.058594 C 330.421875 130.058594 330.753906 130.136719 331.046875 130.285156 C 331.335938 130.441406 331.570312 130.652344 331.753906 130.910156 L 331.753906 127.828125 L 332.816406 127.828125 L 332.816406 136.410156 Z M 328.503906 133.308594 C 328.503906 134.097656 328.671875 134.699219 329.003906 135.097656 C 329.335938 135.488281 329.734375 135.683594 330.191406 135.683594 C 330.648438 135.683594 331.035156 135.496094 331.359375 135.121094 C 331.691406 134.746094 331.859375 134.171875 331.859375 133.390625 C 331.859375 132.546875 331.691406 131.921875 331.359375 131.515625 C 331.023438 131.113281 330.617188 130.910156 330.148438 130.910156 C 329.675781 130.910156 329.28125 131.109375 328.960938 131.496094 C 328.65625 131.886719 328.503906 132.488281 328.503906 133.308594 Z M 328.503906 133.308594 "/>
<path style=" stroke:none;fill-rule:nonzero;fill:rgb(0%,0%,0%);fill-opacity:1;" d="M 334.46875 129.035156 L 334.46875 127.828125 L 335.53125 127.828125 L 335.53125 129.035156 Z M 334.46875 136.410156 L 334.46875 130.183594 L 335.53125 130.183594 L 335.53125 136.410156 Z M 334.46875 136.410156 "/>
<path style=" stroke:none;fill-rule:nonzero;fill:rgb(0%,0%,0%);fill-opacity:1;" d="M 337.136719 136.410156 L 337.136719 130.183594 L 338.09375 130.183594 L 338.09375 131.078125 C 338.535156 130.402344 339.199219 130.058594 340.074219 130.058594 C 340.449219 130.058594 340.785156 130.128906 341.09375 130.265625 C 341.410156 130.390625 341.644531 130.566406 341.800781 130.785156 C 341.953125 130.996094 342.0625 131.253906 342.136719 131.558594 C 342.175781 131.753906 342.199219 132.09375 342.199219 132.578125 L 342.199219 136.410156 L 341.136719 136.410156 L 341.136719 132.621094 C 341.136719 132.191406 341.09375 131.871094 341.011719 131.660156 C 340.925781 131.453125 340.78125 131.285156 340.574219 131.160156 C 340.363281 131.027344 340.121094 130.953125 339.84375 130.953125 C 339.394531 130.953125 339.011719 131.097656 338.675781 131.390625 C 338.355469 131.671875 338.199219 132.214844 338.199219 133.015625 L 338.199219 136.410156 Z M 337.136719 136.410156 "/>
<path style=" stroke:none;fill-rule:nonzero;fill:rgb(0%,0%,0%);fill-opacity:1;" d="M 343.621094 136.933594 L 344.644531 137.078125 C 344.683594 137.394531 344.800781 137.625 344.996094 137.765625 C 345.257812 137.957031 345.621094 138.058594 346.082031 138.058594 C 346.566406 138.058594 346.941406 137.957031 347.207031 137.765625 C 347.464844 137.566406 347.648438 137.296875 347.746094 136.953125 C 347.800781 136.730469 347.820312 136.28125 347.808594 135.597656 C 347.351562 136.140625 346.777344 136.410156 346.101562 136.410156 C 345.238281 136.410156 344.570312 136.109375 344.101562 135.496094 C 343.644531 134.871094 343.414062 134.128906 343.414062 133.265625 C 343.414062 132.671875 343.519531 132.121094 343.726562 131.621094 C 343.945312 131.121094 344.257812 130.738281 344.664062 130.472656 C 345.066406 130.199219 345.542969 130.058594 346.101562 130.058594 C 346.835938 130.058594 347.441406 130.347656 347.914062 130.933594 L 347.914062 130.183594 L 348.894531 130.183594 L 348.894531 135.558594 C 348.894531 136.527344 348.789062 137.214844 348.582031 137.621094 C 348.382812 138.019531 348.070312 138.339844 347.644531 138.578125 C 347.226562 138.8125 346.707031 138.933594 346.082031 138.933594 C 345.332031 138.933594 344.726562 138.765625 344.269531 138.433594 C 343.820312 138.097656 343.605469 137.597656 343.621094 136.933594 Z M 344.496094 133.183594 C 344.496094 134.003906 344.652344 134.597656 344.976562 134.972656 C 345.292969 135.347656 345.695312 135.535156 346.183594 135.535156 C 346.667969 135.535156 347.082031 135.347656 347.414062 134.972656 C 347.746094 134.597656 347.914062 134.015625 347.914062 133.222656 C 347.914062 132.464844 347.738281 131.886719 347.394531 131.496094 C 347.058594 131.109375 346.652344 130.910156 346.183594 130.910156 C 345.710938 130.910156 345.308594 131.109375 344.976562 131.496094 C 344.652344 131.871094 344.496094 132.433594 344.496094 133.183594 Z M 344.496094 133.183594 "/>
<path style=" stroke:none;fill-rule:nonzero;fill:rgb(0%,0%,0%);fill-opacity:1;" d="M 302.761719 174.398438 L 302.761719 166.816406 L 299.949219 166.816406 L 299.949219 165.816406 L 306.742188 165.816406 L 306.742188 166.816406 L 303.910156 166.816406 L 303.910156 174.398438 Z M 302.761719 174.398438 "/>
<path style=" stroke:none;fill-rule:nonzero;fill:rgb(0%,0%,0%);fill-opacity:1;" d="M 310.511719 173.628906 C 310.121094 173.960938 309.746094 174.203125 309.386719 174.335938 C 309.023438 174.472656 308.636719 174.546875 308.222656 174.546875 C 307.539062 174.546875 307.011719 174.378906 306.636719 174.046875 C 306.273438 173.710938 306.097656 173.285156 306.097656 172.753906 C 306.097656 172.453125 306.164062 172.171875 306.304688 171.921875 C 306.441406 171.671875 306.621094 171.472656 306.847656 171.316406 C 307.066406 171.164062 307.316406 171.046875 307.597656 170.960938 C 307.804688 170.921875 308.117188 170.875 308.535156 170.816406 C 309.394531 170.722656 310.023438 170.597656 310.429688 170.441406 C 310.429688 170.304688 310.429688 170.210938 310.429688 170.171875 C 310.429688 169.742188 310.332031 169.441406 310.136719 169.273438 C 309.855469 169.023438 309.457031 168.898438 308.929688 168.898438 C 308.429688 168.898438 308.058594 168.992188 307.824219 169.171875 C 307.585938 169.335938 307.414062 169.644531 307.304688 170.085938 L 306.285156 169.960938 C 306.367188 169.519531 306.511719 169.164062 306.722656 168.898438 C 306.941406 168.625 307.253906 168.414062 307.660156 168.273438 C 308.074219 168.125 308.542969 168.046875 309.074219 168.046875 C 309.617188 168.046875 310.042969 168.109375 310.367188 168.234375 C 310.699219 168.359375 310.941406 168.519531 311.097656 168.710938 C 311.261719 168.894531 311.371094 169.128906 311.429688 169.421875 C 311.472656 169.601562 311.492188 169.921875 311.492188 170.378906 L 311.492188 171.796875 C 311.492188 172.769531 311.511719 173.390625 311.554688 173.648438 C 311.597656 173.914062 311.683594 174.164062 311.824219 174.398438 L 310.722656 174.398438 C 310.605469 174.179688 310.539062 173.921875 310.511719 173.628906 Z M 310.429688 171.273438 C 310.039062 171.429688 309.460938 171.5625 308.699219 171.671875 C 308.269531 171.742188 307.960938 171.816406 307.785156 171.898438 C 307.601562 171.972656 307.460938 172.082031 307.367188 172.234375 C 307.269531 172.390625 307.222656 172.554688 307.222656 172.734375 C 307.222656 173.015625 307.324219 173.25 307.535156 173.441406 C 307.742188 173.625 308.054688 173.710938 308.472656 173.710938 C 308.871094 173.710938 309.230469 173.625 309.554688 173.441406 C 309.871094 173.265625 310.105469 173.019531 310.261719 172.710938 C 310.371094 172.476562 310.429688 172.128906 310.429688 171.671875 Z M 310.429688 171.273438 "/>
<path style=" stroke:none;fill-rule:nonzero;fill:rgb(0%,0%,0%);fill-opacity:1;" d="M 313.105469 174.398438 L 313.105469 168.171875 L 314.0625 168.171875 L 314.0625 169.128906 C 314.296875 168.6875 314.519531 168.394531 314.730469 168.253906 C 314.9375 168.117188 315.167969 168.046875 315.417969 168.046875 C 315.761719 168.046875 316.125 168.160156 316.5 168.378906 L 316.125 169.359375 C 315.875 169.207031 315.613281 169.128906 315.355469 169.128906 C 315.128906 169.128906 314.921875 169.203125 314.730469 169.335938 C 314.546875 169.476562 314.417969 169.671875 314.332031 169.921875 C 314.21875 170.296875 314.167969 170.707031 314.167969 171.148438 L 314.167969 174.398438 Z M 313.105469 174.398438 "/>
<path style=" stroke:none;fill-rule:nonzero;fill:rgb(0%,0%,0%);fill-opacity:1;" d="M 316.933594 174.921875 L 317.953125 175.066406 C 317.996094 175.382812 318.109375 175.613281 318.308594 175.753906 C 318.570312 175.945312 318.933594 176.046875 319.390625 176.046875 C 319.875 176.046875 320.25 175.945312 320.515625 175.753906 C 320.777344 175.554688 320.960938 175.285156 321.058594 174.941406 C 321.109375 174.71875 321.132812 174.269531 321.121094 173.585938 C 320.664062 174.128906 320.089844 174.398438 319.414062 174.398438 C 318.546875 174.398438 317.882812 174.097656 317.414062 173.484375 C 316.953125 172.859375 316.726562 172.117188 316.726562 171.253906 C 316.726562 170.660156 316.828125 170.109375 317.039062 169.609375 C 317.257812 169.109375 317.570312 168.726562 317.976562 168.460938 C 318.375 168.1875 318.855469 168.046875 319.414062 168.046875 C 320.148438 168.046875 320.75 168.335938 321.226562 168.921875 L 321.226562 168.171875 L 322.203125 168.171875 L 322.203125 173.546875 C 322.203125 174.515625 322.101562 175.203125 321.890625 175.609375 C 321.695312 176.007812 321.382812 176.328125 320.953125 176.566406 C 320.539062 176.800781 320.015625 176.921875 319.390625 176.921875 C 318.640625 176.921875 318.039062 176.753906 317.578125 176.421875 C 317.132812 176.085938 316.917969 175.585938 316.933594 174.921875 Z M 317.808594 171.171875 C 317.808594 171.992188 317.964844 172.585938 318.289062 172.960938 C 318.605469 173.335938 319.007812 173.523438 319.496094 173.523438 C 319.980469 173.523438 320.390625 173.335938 320.726562 172.960938 C 321.058594 172.585938 321.226562 172.003906 321.226562 171.210938 C 321.226562 170.453125 321.046875 169.875 320.703125 169.484375 C 320.371094 169.097656 319.964844 168.898438 319.496094 168.898438 C 319.023438 168.898438 318.621094 169.097656 318.289062 169.484375 C 317.964844 169.859375 317.808594 170.421875 317.808594 171.171875 Z M 317.808594 171.171875 "/>
<path style=" stroke:none;fill-rule:nonzero;fill:rgb(0%,0%,0%);fill-opacity:1;" d="M 328.046875 172.398438 L 329.148438 172.523438 C 328.96875 173.164062 328.640625 173.664062 328.171875 174.023438 C 327.710938 174.375 327.117188 174.546875 326.398438 174.546875 C 325.492188 174.546875 324.773438 174.269531 324.234375 173.710938 C 323.703125 173.144531 323.441406 172.351562 323.441406 171.335938 C 323.441406 170.296875 323.710938 169.492188 324.253906 168.921875 C 324.796875 168.335938 325.492188 168.046875 326.359375 168.046875 C 327.191406 168.046875 327.863281 168.332031 328.378906 168.898438 C 328.90625 169.457031 329.171875 170.25 329.171875 171.273438 C 329.171875 171.347656 329.171875 171.441406 329.171875 171.566406 L 324.523438 171.566406 C 324.566406 172.25 324.757812 172.769531 325.109375 173.128906 C 325.453125 173.492188 325.890625 173.671875 326.421875 173.671875 C 326.804688 173.671875 327.132812 173.578125 327.398438 173.378906 C 327.675781 173.171875 327.890625 172.847656 328.046875 172.398438 Z M 324.585938 170.691406 L 328.066406 170.691406 C 328.023438 170.164062 327.890625 169.769531 327.671875 169.503906 C 327.335938 169.101562 326.898438 168.898438 326.359375 168.898438 C 325.867188 168.898438 325.460938 169.066406 325.128906 169.398438 C 324.804688 169.722656 324.628906 170.148438 324.585938 170.691406 Z M 324.585938 170.691406 "/>
<path style=" stroke:none;fill-rule:nonzero;fill:rgb(0%,0%,0%);fill-opacity:1;" d="M 332.78125 173.460938 L 332.929688 174.378906 C 332.621094 174.445312 332.355469 174.484375 332.136719 174.484375 C 331.746094 174.484375 331.449219 174.421875 331.242188 174.296875 C 331.03125 174.171875 330.875 174.015625 330.78125 173.816406 C 330.699219 173.625 330.65625 173.210938 330.65625 172.585938 L 330.65625 169.003906 L 329.886719 169.003906 L 329.886719 168.171875 L 330.65625 168.171875 L 330.65625 166.628906 L 331.71875 166.003906 L 331.71875 168.171875 L 332.78125 168.171875 L 332.78125 169.003906 L 331.71875 169.003906 L 331.71875 172.628906 C 331.71875 172.9375 331.730469 173.128906 331.761719 173.210938 C 331.804688 173.296875 331.867188 173.367188 331.949219 173.421875 C 332.03125 173.476562 332.148438 173.503906 332.304688 173.503906 C 332.429688 173.503906 332.585938 173.492188 332.78125 173.460938 Z M 332.78125 173.460938 "/>
<path style=" stroke:none;fill-rule:nonzero;fill:rgb(0%,0%,0%);fill-opacity:1;" d="M 333.386719 172.546875 L 334.429688 172.378906 C 334.480469 172.796875 334.640625 173.117188 334.90625 173.335938 C 335.183594 173.5625 335.558594 173.671875 336.03125 173.671875 C 336.515625 173.671875 336.875 173.578125 337.117188 173.378906 C 337.351562 173.1875 337.46875 172.957031 337.46875 172.691406 C 337.46875 172.441406 337.367188 172.253906 337.15625 172.128906 C 337 172.035156 336.640625 171.910156 336.074219 171.753906 C 335.292969 171.5625 334.75 171.394531 334.449219 171.253906 C 334.15625 171.117188 333.933594 170.921875 333.78125 170.671875 C 333.625 170.421875 333.554688 170.144531 333.554688 169.835938 C 333.554688 169.5625 333.617188 169.304688 333.742188 169.066406 C 333.867188 168.832031 334.039062 168.628906 334.261719 168.460938 C 334.429688 168.351562 334.648438 168.253906 334.929688 168.171875 C 335.21875 168.085938 335.523438 168.046875 335.84375 168.046875 C 336.328125 168.046875 336.75 168.117188 337.117188 168.253906 C 337.492188 168.394531 337.765625 168.582031 337.949219 168.816406 C 338.125 169.054688 338.25 169.375 338.324219 169.773438 L 337.28125 169.921875 C 337.242188 169.601562 337.101562 169.351562 336.867188 169.171875 C 336.640625 168.992188 336.328125 168.898438 335.929688 168.898438 C 335.4375 168.898438 335.09375 168.984375 334.886719 169.148438 C 334.679688 169.304688 334.574219 169.492188 334.574219 169.710938 C 334.574219 169.851562 334.617188 169.972656 334.699219 170.066406 C 334.78125 170.191406 334.917969 170.289062 335.117188 170.359375 C 335.210938 170.398438 335.515625 170.492188 336.03125 170.628906 C 336.78125 170.828125 337.304688 170.984375 337.59375 171.109375 C 337.898438 171.234375 338.136719 171.421875 338.304688 171.671875 C 338.46875 171.910156 338.554688 172.207031 338.554688 172.566406 C 338.554688 172.929688 338.449219 173.265625 338.242188 173.566406 C 338.03125 173.875 337.730469 174.117188 337.34375 174.296875 C 336.96875 174.460938 336.53125 174.546875 336.03125 174.546875 C 335.226562 174.546875 334.605469 174.378906 334.179688 174.046875 C 333.761719 173.703125 333.496094 173.203125 333.386719 172.546875 Z M 333.386719 172.546875 "/>
<path style="fill:none;stroke-width:1;stroke-linecap:round;stroke-linejoin:round;stroke:rgb(0%,0%,0%);stroke-opacity:1;stroke-miterlimit:10;" d="M 611.499023 574.799805 L 611.499023 568.354492 " transform="matrix(1.333333,0,0,1.333333,-496,-605.333333)"/>
<path style="fill:none;stroke-width:1;stroke-linecap:butt;stroke-linejoin:miter;stroke:rgb(0%,0%,0%);stroke-opacity:1;stroke-miterlimit:10;" d="M 611.499023 564.355469 L 611.499023 568.354492 M 609.999023 568.354492 L 611.499023 564.355469 L 612.999023 568.354492 " transform="matrix(1.333333,0,0,1.333333,-496,-605.333333)"/>
<path style="fill:none;stroke-width:1;stroke-linecap:round;stroke-linejoin:round;stroke:rgb(0%,0%,0%);stroke-opacity:1;stroke-miterlimit:10;" d="M 611.499023 544.457031 L 611.499023 536.444336 " transform="matrix(1.333333,0,0,1.333333,-496,-605.333333)"/>
<path style="fill:none;stroke-width:1;stroke-linecap:butt;stroke-linejoin:miter;stroke:rgb(0%,0%,0%);stroke-opacity:1;stroke-miterlimit:10;" d="M 611.499023 532.445312 L 611.499023 536.444336 M 609.999023 536.444336 L 611.499023 532.445312 L 612.999023 536.444336 " transform="matrix(1.333333,0,0,1.333333,-496,-605.333333)"/>
<path style=" stroke:none;fill-rule:nonzero;fill:rgb(69.803923%,85.09804%,100%);fill-opacity:1;" d="M 267.597656 102.058594 L 371.066406 102.058594 L 371.066406 78.058594 L 267.597656 78.058594 Z M 267.597656 102.058594 "/>
<path style="fill:none;stroke-width:1;stroke-linecap:round;stroke-linejoin:round;stroke:rgb(0%,0%,0%);stroke-opacity:1;stroke-miterlimit:10;" d="M 572.698242 512.543945 L 650.299805 512.543945 L 650.299805 530.543945 L 572.698242 530.543945 Z M 572.698242 512.543945 " transform="matrix(1.333333,0,0,1.333333,-496,-605.333333)"/>
<path style=" stroke:none;fill-rule:nonzero;fill:rgb(0%,0%,0%);fill-opacity:1;" d="M 293.929688 93.863281 L 293.929688 85.28125 L 297.742188 85.28125 C 298.5 85.28125 299.085938 85.359375 299.492188 85.507812 C 299.890625 85.664062 300.210938 85.9375 300.449219 86.320312 C 300.683594 86.710938 300.804688 87.144531 300.804688 87.613281 C 300.804688 88.226562 300.601562 88.738281 300.199219 89.15625 C 299.808594 89.570312 299.203125 89.835938 298.386719 89.945312 C 298.679688 90.101562 298.90625 90.25 299.074219 90.382812 C 299.40625 90.691406 299.71875 91.070312 300.011719 91.53125 L 301.511719 93.863281 L 300.074219 93.863281 L 298.929688 92.070312 C 298.605469 91.5625 298.335938 91.171875 298.117188 90.90625 C 297.90625 90.628906 297.710938 90.4375 297.53125 90.320312 C 297.367188 90.210938 297.199219 90.132812 297.03125 90.09375 C 296.890625 90.066406 296.679688 90.050781 296.386719 90.050781 L 295.074219 90.050781 L 295.074219 93.863281 Z M 295.074219 89.070312 L 297.511719 89.070312 C 298.039062 89.070312 298.449219 89.019531 298.742188 88.90625 C 299.03125 88.796875 299.25 88.625 299.40625 88.382812 C 299.558594 88.148438 299.636719 87.894531 299.636719 87.613281 C 299.636719 87.210938 299.480469 86.878906 299.179688 86.613281 C 298.886719 86.351562 298.417969 86.21875 297.78125 86.21875 L 295.074219 86.21875 Z M 295.074219 89.070312 "/>
<path style=" stroke:none;fill-rule:nonzero;fill:rgb(0%,0%,0%);fill-opacity:1;" d="M 306.699219 91.863281 L 307.804688 91.988281 C 307.621094 92.628906 307.292969 93.128906 306.824219 93.488281 C 306.367188 93.835938 305.773438 94.007812 305.054688 94.007812 C 304.148438 94.007812 303.429688 93.734375 302.886719 93.175781 C 302.355469 92.609375 302.09375 91.816406 302.09375 90.800781 C 302.09375 89.757812 302.367188 88.957031 302.90625 88.382812 C 303.449219 87.800781 304.148438 87.507812 305.011719 87.507812 C 305.84375 87.507812 306.515625 87.796875 307.03125 88.363281 C 307.558594 88.921875 307.824219 89.710938 307.824219 90.738281 C 307.824219 90.8125 307.824219 90.90625 307.824219 91.03125 L 303.179688 91.03125 C 303.21875 91.710938 303.414062 92.234375 303.761719 92.59375 C 304.105469 92.957031 304.542969 93.132812 305.074219 93.132812 C 305.460938 93.132812 305.789062 93.039062 306.054688 92.84375 C 306.328125 92.632812 306.542969 92.3125 306.699219 91.863281 Z M 303.242188 90.15625 L 306.71875 90.15625 C 306.679688 89.628906 306.542969 89.234375 306.324219 88.96875 C 305.992188 88.566406 305.554688 88.363281 305.011719 88.363281 C 304.523438 88.363281 304.117188 88.53125 303.78125 88.863281 C 303.460938 89.1875 303.28125 89.613281 303.242188 90.15625 Z M 303.242188 90.15625 "/>
<path style=" stroke:none;fill-rule:nonzero;fill:rgb(0%,0%,0%);fill-opacity:1;" d="M 313.1875 91.59375 L 314.226562 91.71875 C 314.113281 92.441406 313.820312 93.003906 313.351562 93.40625 C 312.878906 93.8125 312.300781 94.007812 311.625 94.007812 C 310.773438 94.007812 310.09375 93.734375 309.582031 93.175781 C 309.066406 92.625 308.8125 91.820312 308.8125 90.78125 C 308.8125 90.101562 308.921875 89.507812 309.144531 89.007812 C 309.363281 88.507812 309.695312 88.132812 310.144531 87.882812 C 310.601562 87.632812 311.101562 87.507812 311.644531 87.507812 C 312.3125 87.507812 312.859375 87.6875 313.289062 88.03125 C 313.71875 88.363281 314 88.84375 314.125 89.46875 L 313.101562 89.632812 C 313.003906 89.21875 312.832031 88.90625 312.582031 88.695312 C 312.332031 88.476562 312.03125 88.363281 311.6875 88.363281 C 311.144531 88.363281 310.707031 88.5625 310.375 88.945312 C 310.050781 89.320312 309.894531 89.921875 309.894531 90.738281 C 309.894531 91.585938 310.050781 92.195312 310.375 92.570312 C 310.691406 92.945312 311.109375 93.132812 311.625 93.132812 C 312.039062 93.132812 312.382812 93.007812 312.664062 92.757812 C 312.941406 92.507812 313.113281 92.125 313.1875 91.59375 Z M 313.1875 91.59375 "/>
<path style=" stroke:none;fill-rule:nonzero;fill:rgb(0%,0%,0%);fill-opacity:1;" d="M 319.207031 93.863281 L 319.207031 92.945312 C 318.71875 93.65625 318.0625 94.007812 317.226562 94.007812 C 316.863281 94.007812 316.523438 93.9375 316.207031 93.800781 C 315.882812 93.648438 315.644531 93.46875 315.476562 93.257812 C 315.320312 93.050781 315.21875 92.796875 315.164062 92.488281 C 315.125 92.28125 315.101562 91.945312 315.101562 91.488281 L 315.101562 87.632812 L 316.144531 87.632812 L 316.144531 91.09375 C 316.144531 91.648438 316.171875 92.019531 316.226562 92.195312 C 316.28125 92.476562 316.414062 92.695312 316.625 92.863281 C 316.84375 93.019531 317.113281 93.09375 317.4375 93.09375 C 317.753906 93.09375 318.050781 93.019531 318.332031 92.863281 C 318.609375 92.695312 318.800781 92.476562 318.914062 92.195312 C 319.023438 91.921875 319.082031 91.507812 319.082031 90.96875 L 319.082031 87.632812 L 320.144531 87.632812 L 320.144531 93.863281 Z M 319.207031 93.863281 "/>
<path style=" stroke:none;fill-rule:nonzero;fill:rgb(0%,0%,0%);fill-opacity:1;" d="M 321.777344 93.863281 L 321.777344 87.632812 L 322.734375 87.632812 L 322.734375 88.59375 C 322.96875 88.148438 323.195312 87.859375 323.402344 87.71875 C 323.609375 87.582031 323.839844 87.507812 324.089844 87.507812 C 324.433594 87.507812 324.796875 87.625 325.171875 87.84375 L 324.796875 88.820312 C 324.546875 88.671875 324.289062 88.59375 324.027344 88.59375 C 323.804688 88.59375 323.59375 88.664062 323.402344 88.800781 C 323.21875 88.941406 323.089844 89.132812 323.007812 89.382812 C 322.890625 89.757812 322.839844 90.171875 322.839844 90.613281 L 322.839844 93.863281 Z M 321.777344 93.863281 "/>
<path style=" stroke:none;fill-rule:nonzero;fill:rgb(0%,0%,0%);fill-opacity:1;" d="M 325.773438 93.863281 L 325.773438 87.632812 L 326.730469 87.632812 L 326.730469 88.59375 C 326.964844 88.148438 327.191406 87.859375 327.398438 87.71875 C 327.605469 87.582031 327.835938 87.507812 328.085938 87.507812 C 328.429688 87.507812 328.792969 87.625 329.167969 87.84375 L 328.792969 88.820312 C 328.542969 88.671875 328.285156 88.59375 328.023438 88.59375 C 327.800781 88.59375 327.589844 88.664062 327.398438 88.800781 C 327.214844 88.941406 327.085938 89.132812 327.003906 89.382812 C 326.886719 89.757812 326.835938 90.171875 326.835938 90.613281 L 326.835938 93.863281 Z M 325.773438 93.863281 "/>
<path style=" stroke:none;fill-rule:nonzero;fill:rgb(0%,0%,0%);fill-opacity:1;" d="M 334.039062 91.863281 L 335.144531 91.988281 C 334.960938 92.628906 334.632812 93.128906 334.164062 93.488281 C 333.707031 93.835938 333.113281 94.007812 332.394531 94.007812 C 331.488281 94.007812 330.769531 93.734375 330.226562 93.175781 C 329.695312 92.609375 329.433594 91.816406 329.433594 90.800781 C 329.433594 89.757812 329.707031 88.957031 330.246094 88.382812 C 330.789062 87.800781 331.488281 87.507812 332.351562 87.507812 C 333.183594 87.507812 333.855469 87.796875 334.371094 88.363281 C 334.898438 88.921875 335.164062 89.710938 335.164062 90.738281 C 335.164062 90.8125 335.164062 90.90625 335.164062 91.03125 L 330.519531 91.03125 C 330.558594 91.710938 330.753906 92.234375 331.101562 92.59375 C 331.445312 92.957031 331.882812 93.132812 332.414062 93.132812 C 332.800781 93.132812 333.128906 93.039062 333.394531 92.84375 C 333.667969 92.632812 333.882812 92.3125 334.039062 91.863281 Z M 330.582031 90.15625 L 334.058594 90.15625 C 334.019531 89.628906 333.882812 89.234375 333.664062 88.96875 C 333.332031 88.566406 332.894531 88.363281 332.351562 88.363281 C 331.863281 88.363281 331.457031 88.53125 331.121094 88.863281 C 330.800781 89.1875 330.621094 89.613281 330.582031 90.15625 Z M 330.582031 90.15625 "/>
<path style=" stroke:none;fill-rule:nonzero;fill:rgb(0%,0%,0%);fill-opacity:1;" d="M 336.464844 93.863281 L 336.464844 87.632812 L 337.421875 87.632812 L 337.421875 88.53125 C 337.863281 87.851562 338.527344 87.507812 339.402344 87.507812 C 339.777344 87.507812 340.113281 87.582031 340.421875 87.71875 C 340.738281 87.84375 340.972656 88.019531 341.128906 88.238281 C 341.28125 88.445312 341.390625 88.707031 341.464844 89.007812 C 341.503906 89.207031 341.527344 89.546875 341.527344 90.03125 L 341.527344 93.863281 L 340.464844 93.863281 L 340.464844 90.070312 C 340.464844 89.644531 340.421875 89.320312 340.339844 89.113281 C 340.253906 88.90625 340.109375 88.738281 339.902344 88.613281 C 339.691406 88.476562 339.449219 88.40625 339.171875 88.40625 C 338.722656 88.40625 338.339844 88.550781 338.003906 88.84375 C 337.683594 89.125 337.527344 89.664062 337.527344 90.46875 L 337.527344 93.863281 Z M 336.464844 93.863281 "/>
<path style=" stroke:none;fill-rule:nonzero;fill:rgb(0%,0%,0%);fill-opacity:1;" d="M 345.449219 92.925781 L 345.597656 93.84375 C 345.289062 93.910156 345.023438 93.945312 344.804688 93.945312 C 344.414062 93.945312 344.117188 93.882812 343.910156 93.757812 C 343.699219 93.632812 343.542969 93.476562 343.449219 93.28125 C 343.367188 93.085938 343.324219 92.675781 343.324219 92.050781 L 343.324219 88.46875 L 342.554688 88.46875 L 342.554688 87.632812 L 343.324219 87.632812 L 343.324219 86.09375 L 344.386719 85.46875 L 344.386719 87.632812 L 345.449219 87.632812 L 345.449219 88.46875 L 344.386719 88.46875 L 344.386719 92.09375 C 344.386719 92.398438 344.398438 92.59375 344.429688 92.675781 C 344.472656 92.757812 344.535156 92.832031 344.617188 92.882812 C 344.699219 92.941406 344.816406 92.96875 344.972656 92.96875 C 345.097656 92.96875 345.253906 92.957031 345.449219 92.925781 Z M 345.449219 92.925781 "/>
<g clip-path="url(#clip2)" clip-rule="nonzero">
<path style=" stroke:none;fill-rule:nonzero;fill:rgb(0%,0%,0%);fill-opacity:1;" d="M 385.75 90.042969 L 388.125 87.667969 C 388.25 87.519531 388.292969 87.5 388.292969 87.417969 C 388.292969 87.269531 388.167969 87.167969 388.042969 87.167969 C 387.957031 87.167969 387.894531 87.207031 387.792969 87.332031 L 385.394531 89.707031 L 383 87.332031 C 382.875 87.1875 382.832031 87.167969 382.75 87.167969 C 382.625 87.167969 382.5 87.269531 382.5 87.417969 C 382.5 87.5 382.5625 87.5625 382.667969 87.667969 L 385.042969 90.042969 L 382.667969 92.4375 C 382.542969 92.542969 382.5 92.625 382.5 92.6875 C 382.5 92.832031 382.625 92.9375 382.75 92.9375 C 382.832031 92.9375 382.875 92.917969 383 92.769531 L 385.394531 90.394531 L 387.792969 92.769531 C 387.894531 92.894531 387.980469 92.9375 388.042969 92.9375 C 388.1875 92.9375 388.292969 92.832031 388.292969 92.6875 C 388.292969 92.605469 388.25 92.582031 388.125 92.4375 Z M 385.75 90.042969 "/>
<path style=" stroke:none;fill-rule:nonzero;fill:rgb(0%,0%,0%);fill-opacity:1;" d="M 385.75 90.042969 L 388.125 87.667969 C 388.25 87.519531 388.292969 87.5 388.292969 87.417969 C 388.292969 87.269531 388.167969 87.167969 388.042969 87.167969 C 387.957031 87.167969 387.894531 87.207031 387.792969 87.332031 L 385.394531 89.707031 L 383 87.332031 C 382.875 87.1875 382.832031 87.167969 382.75 87.167969 C 382.625 87.167969 382.5 87.269531 382.5 87.417969 C 382.5 87.5 382.5625 87.5625 382.667969 87.667969 L 385.042969 90.042969 L 382.667969 92.4375 C 382.542969 92.542969 382.5 92.625 382.5 92.6875 C 382.5 92.832031 382.625 92.9375 382.75 92.9375 C 382.832031 92.9375 382.875 92.917969 383 92.769531 L 385.394531 90.394531 L 387.792969 92.769531 C 387.894531 92.894531 387.980469 92.9375 388.042969 92.9375 C 388.1875 92.9375 388.292969 92.832031 388.292969 92.6875 C 388.292969 92.605469 388.25 92.582031 388.125 92.4375 Z M 385.75 90.042969 "/>
</g>
<path style=" stroke:none;fill-rule:nonzero;fill:rgb(0%,0%,0%);fill-opacity:1;" d="M 397.789062 91.996094 C 397.707031 92.101562 397.621094 92.203125 397.539062 92.308594 C 397.183594 92.746094 396.976562 92.933594 396.808594 92.933594 C 396.664062 92.933594 396.621094 92.828125 396.621094 92.726562 C 396.621094 92.621094 396.664062 92.414062 396.789062 91.996094 L 397.457031 89.558594 C 397.519531 89.308594 397.582031 89.039062 397.582031 88.828125 C 397.582031 88.390625 397.308594 88.101562 396.789062 88.101562 C 396.019531 88.101562 395.226562 88.828125 394.019531 90.746094 L 394.832031 88.121094 L 394.769531 88.101562 C 394.144531 88.226562 393.808594 88.289062 392.832031 88.476562 L 392.832031 88.664062 C 393.433594 88.683594 393.621094 88.746094 393.621094 88.996094 C 393.621094 89.058594 393.601562 89.140625 393.582031 89.183594 L 392.433594 93.390625 L 393.332031 93.390625 C 393.894531 91.496094 393.996094 91.226562 394.539062 90.414062 C 395.289062 89.308594 395.832031 88.703125 396.308594 88.703125 C 396.496094 88.703125 396.601562 88.851562 396.601562 89.058594 C 396.601562 89.203125 396.519531 89.640625 396.433594 90.015625 L 395.914062 91.953125 C 395.726562 92.578125 395.707031 92.726562 395.707031 92.851562 C 395.707031 93.308594 395.976562 93.496094 396.269531 93.496094 C 396.832031 93.496094 397.144531 93.265625 397.957031 92.140625 Z M 397.789062 91.996094 "/>
<path style="fill:none;stroke-width:1;stroke-linecap:round;stroke-linejoin:round;stroke:rgb(0%,0%,0%);stroke-opacity:1;stroke-miterlimit:10;" d="M 572.698242 480.633789 L 650.299805 480.633789 L 650.299805 498.633789 L 572.698242 498.633789 Z M 572.698242 480.633789 " transform="matrix(1.333333,0,0,1.333333,-496,-605.333333)"/>
<path style=" stroke:none;fill-rule:nonzero;fill:rgb(0%,0%,0%);fill-opacity:1;" d="M 312.316406 51.316406 L 312.316406 42.730469 L 318.105469 42.730469 L 318.105469 43.730469 L 313.460938 43.730469 L 313.460938 46.398438 L 317.480469 46.398438 L 317.480469 47.417969 L 313.460938 47.417969 L 313.460938 51.316406 Z M 312.316406 51.316406 "/>
<path style=" stroke:none;fill-rule:nonzero;fill:rgb(0%,0%,0%);fill-opacity:1;" d="M 325.730469 48.292969 L 326.855469 48.585938 C 326.613281 49.519531 326.1875 50.230469 325.5625 50.730469 C 324.949219 51.222656 324.191406 51.460938 323.292969 51.460938 C 322.375 51.460938 321.625 51.273438 321.042969 50.898438 C 320.457031 50.523438 320.011719 49.980469 319.707031 49.273438 C 319.417969 48.554688 319.269531 47.785156 319.269531 46.960938 C 319.269531 46.058594 319.4375 45.273438 319.769531 44.605469 C 320.113281 43.941406 320.605469 43.441406 321.230469 43.105469 C 321.863281 42.761719 322.5625 42.585938 323.3125 42.585938 C 324.171875 42.585938 324.894531 42.808594 325.480469 43.253906 C 326.074219 43.683594 326.484375 44.292969 326.707031 45.085938 L 325.582031 45.335938 C 325.386719 44.710938 325.105469 44.261719 324.730469 43.980469 C 324.355469 43.691406 323.875 43.542969 323.292969 43.542969 C 322.636719 43.542969 322.089844 43.707031 321.644531 44.023438 C 321.199219 44.347656 320.886719 44.773438 320.707031 45.316406 C 320.527344 45.847656 320.4375 46.386719 320.4375 46.941406 C 320.4375 47.679688 320.542969 48.324219 320.75 48.878906 C 320.96875 49.417969 321.300781 49.824219 321.75 50.085938 C 322.191406 50.351562 322.675781 50.480469 323.207031 50.480469 C 323.84375 50.480469 324.378906 50.304688 324.8125 49.941406 C 325.253906 49.566406 325.5625 49.019531 325.730469 48.292969 Z M 325.730469 48.292969 "/>
<path style="fill:none;stroke-width:1;stroke-linecap:round;stroke-linejoin:round;stroke:rgb(0%,0%,0%);stroke-opacity:1;stroke-miterlimit:10;" d="M 611.499023 512.543945 L 611.499023 504.53125 " transform="matrix(1.333333,0,0,1.333333,-496,-605.333333)"/>
<path style="fill:none;stroke-width:1;stroke-linecap:butt;stroke-linejoin:miter;stroke:rgb(0%,0%,0%);stroke-opacity:1;stroke-miterlimit:10;" d="M 611.499023 500.532227 L 611.499023 504.53125 M 609.999023 504.53125 L 611.499023 500.532227 L 612.999023 504.53125 " transform="matrix(1.333333,0,0,1.333333,-496,-605.333333)"/>
<path style=" stroke:none;fill-rule:nonzero;fill:rgb(23.529412%,76.078433%,100%);fill-opacity:1;" d="M 150.863281 102.058594 L 254.332031 102.058594 L 254.332031 78.058594 L 150.863281 78.058594 Z M 150.863281 102.058594 "/>
<path style="fill:none;stroke-width:1;stroke-linecap:round;stroke-linejoin:round;stroke:rgb(0%,0%,0%);stroke-opacity:1;stroke-miterlimit:10;" d="M 485.147461 512.543945 L 562.749023 512.543945 L 562.749023 530.543945 L 485.147461 530.543945 Z M 485.147461 512.543945 " transform="matrix(1.333333,0,0,1.333333,-496,-605.333333)"/>
<path style=" stroke:none;fill-rule:nonzero;fill:rgb(0%,0%,0%);fill-opacity:1;" d="M 189.132812 91.113281 L 190.195312 91.007812 C 190.246094 91.441406 190.367188 91.796875 190.550781 92.070312 C 190.742188 92.351562 191.035156 92.570312 191.425781 92.738281 C 191.808594 92.90625 192.246094 92.988281 192.738281 92.988281 C 193.164062 92.988281 193.550781 92.925781 193.882812 92.800781 C 194.214844 92.675781 194.464844 92.503906 194.632812 92.28125 C 194.800781 92.046875 194.882812 91.796875 194.882812 91.53125 C 194.882812 91.269531 194.800781 91.039062 194.632812 90.84375 C 194.476562 90.632812 194.222656 90.460938 193.863281 90.320312 C 193.636719 90.226562 193.132812 90.085938 192.339844 89.90625 C 191.550781 89.710938 190.992188 89.53125 190.675781 89.363281 C 190.269531 89.15625 189.964844 88.894531 189.757812 88.570312 C 189.558594 88.253906 189.464844 87.894531 189.464844 87.488281 C 189.464844 87.0625 189.582031 86.65625 189.820312 86.28125 C 190.070312 85.90625 190.429688 85.625 190.902344 85.425781 C 191.371094 85.234375 191.902344 85.132812 192.488281 85.132812 C 193.121094 85.132812 193.683594 85.238281 194.175781 85.445312 C 194.660156 85.644531 195.027344 85.941406 195.277344 86.34375 C 195.539062 86.75 195.683594 87.195312 195.714844 87.695312 L 194.613281 87.78125 C 194.554688 87.238281 194.363281 86.832031 194.027344 86.550781 C 193.695312 86.273438 193.195312 86.132812 192.527344 86.132812 C 191.847656 86.132812 191.347656 86.257812 191.027344 86.507812 C 190.707031 86.757812 190.550781 87.066406 190.550781 87.425781 C 190.550781 87.734375 190.660156 87.984375 190.882812 88.175781 C 191.101562 88.382812 191.675781 88.59375 192.589844 88.800781 C 193.519531 89.007812 194.160156 89.191406 194.507812 89.34375 C 195.007812 89.566406 195.371094 89.859375 195.613281 90.21875 C 195.847656 90.566406 195.964844 90.976562 195.964844 91.445312 C 195.964844 91.894531 195.832031 92.320312 195.570312 92.738281 C 195.304688 93.144531 194.929688 93.457031 194.445312 93.675781 C 193.957031 93.894531 193.410156 94.007812 192.800781 94.007812 C 192.019531 94.007812 191.367188 93.894531 190.839844 93.675781 C 190.308594 93.441406 189.894531 93.101562 189.589844 92.65625 C 189.300781 92.195312 189.144531 91.6875 189.132812 91.113281 Z M 189.132812 91.113281 "/>
<path style=" stroke:none;fill-rule:nonzero;fill:rgb(0%,0%,0%);fill-opacity:1;" d="M 199.699219 92.925781 L 199.84375 93.84375 C 199.539062 93.910156 199.273438 93.945312 199.054688 93.945312 C 198.664062 93.945312 198.367188 93.882812 198.15625 93.757812 C 197.949219 93.632812 197.792969 93.476562 197.699219 93.28125 C 197.617188 93.085938 197.574219 92.675781 197.574219 92.050781 L 197.574219 88.46875 L 196.804688 88.46875 L 196.804688 87.632812 L 197.574219 87.632812 L 197.574219 86.09375 L 198.636719 85.46875 L 198.636719 87.632812 L 199.699219 87.632812 L 199.699219 88.46875 L 198.636719 88.46875 L 198.636719 92.09375 C 198.636719 92.398438 198.648438 92.59375 198.679688 92.675781 C 198.71875 92.757812 198.78125 92.832031 198.867188 92.882812 C 198.949219 92.941406 199.0625 92.96875 199.21875 92.96875 C 199.34375 92.96875 199.5 92.957031 199.699219 92.925781 Z M 199.699219 92.925781 "/>
<path style=" stroke:none;fill-rule:nonzero;fill:rgb(0%,0%,0%);fill-opacity:1;" d="M 204.78125 93.09375 C 204.390625 93.425781 204.015625 93.664062 203.65625 93.800781 C 203.292969 93.9375 202.90625 94.007812 202.492188 94.007812 C 201.808594 94.007812 201.28125 93.84375 200.90625 93.507812 C 200.542969 93.175781 200.367188 92.75 200.367188 92.21875 C 200.367188 91.914062 200.433594 91.632812 200.574219 91.382812 C 200.710938 91.132812 200.890625 90.9375 201.117188 90.78125 C 201.335938 90.628906 201.585938 90.507812 201.867188 90.425781 C 202.074219 90.382812 202.386719 90.335938 202.804688 90.28125 C 203.664062 90.1875 204.292969 90.0625 204.699219 89.90625 C 204.699219 89.769531 204.699219 89.675781 204.699219 89.632812 C 204.699219 89.207031 204.601562 88.90625 204.40625 88.738281 C 204.125 88.488281 203.726562 88.363281 203.199219 88.363281 C 202.699219 88.363281 202.328125 88.457031 202.09375 88.632812 C 201.855469 88.800781 201.683594 89.109375 201.574219 89.550781 L 200.554688 89.425781 C 200.636719 88.984375 200.78125 88.628906 200.992188 88.363281 C 201.210938 88.085938 201.523438 87.878906 201.929688 87.738281 C 202.34375 87.585938 202.8125 87.507812 203.34375 87.507812 C 203.886719 87.507812 204.3125 87.570312 204.636719 87.695312 C 204.96875 87.820312 205.210938 87.984375 205.367188 88.175781 C 205.53125 88.359375 205.640625 88.59375 205.699219 88.882812 C 205.742188 89.066406 205.761719 89.382812 205.761719 89.84375 L 205.761719 91.257812 C 205.761719 92.234375 205.78125 92.851562 205.824219 93.113281 C 205.867188 93.378906 205.953125 93.628906 206.09375 93.863281 L 204.992188 93.863281 C 204.875 93.644531 204.808594 93.382812 204.78125 93.09375 Z M 204.699219 90.738281 C 204.308594 90.894531 203.730469 91.023438 202.96875 91.132812 C 202.539062 91.207031 202.230469 91.28125 202.054688 91.363281 C 201.871094 91.4375 201.730469 91.546875 201.636719 91.695312 C 201.539062 91.851562 201.492188 92.019531 201.492188 92.195312 C 201.492188 92.476562 201.59375 92.710938 201.804688 92.90625 C 202.011719 93.085938 202.324219 93.175781 202.742188 93.175781 C 203.140625 93.175781 203.5 93.085938 203.824219 92.90625 C 204.140625 92.726562 204.375 92.484375 204.53125 92.175781 C 204.640625 91.941406 204.699219 91.59375 204.699219 91.132812 Z M 204.699219 90.738281 "/>
<path style=" stroke:none;fill-rule:nonzero;fill:rgb(0%,0%,0%);fill-opacity:1;" d="M 209.707031 92.925781 L 209.851562 93.84375 C 209.546875 93.910156 209.28125 93.945312 209.0625 93.945312 C 208.671875 93.945312 208.375 93.882812 208.164062 93.757812 C 207.957031 93.632812 207.800781 93.476562 207.707031 93.28125 C 207.625 93.085938 207.582031 92.675781 207.582031 92.050781 L 207.582031 88.46875 L 206.8125 88.46875 L 206.8125 87.632812 L 207.582031 87.632812 L 207.582031 86.09375 L 208.644531 85.46875 L 208.644531 87.632812 L 209.707031 87.632812 L 209.707031 88.46875 L 208.644531 88.46875 L 208.644531 92.09375 C 208.644531 92.398438 208.65625 92.59375 208.6875 92.675781 C 208.726562 92.757812 208.789062 92.832031 208.875 92.882812 C 208.957031 92.941406 209.070312 92.96875 209.226562 92.96875 C 209.351562 92.96875 209.507812 92.957031 209.707031 92.925781 Z M 209.707031 92.925781 "/>
<path style=" stroke:none;fill-rule:nonzero;fill:rgb(0%,0%,0%);fill-opacity:1;" d="M 214.976562 91.863281 L 216.082031 91.988281 C 215.898438 92.628906 215.570312 93.128906 215.101562 93.488281 C 214.644531 93.835938 214.050781 94.007812 213.332031 94.007812 C 212.425781 94.007812 211.707031 93.734375 211.164062 93.175781 C 210.632812 92.609375 210.375 91.816406 210.375 90.800781 C 210.375 89.757812 210.644531 88.957031 211.1875 88.382812 C 211.726562 87.800781 212.425781 87.507812 213.289062 87.507812 C 214.125 87.507812 214.796875 87.796875 215.3125 88.363281 C 215.835938 88.921875 216.101562 89.710938 216.101562 90.738281 C 216.101562 90.8125 216.101562 90.90625 216.101562 91.03125 L 211.457031 91.03125 C 211.5 91.710938 211.691406 92.234375 212.039062 92.59375 C 212.382812 92.957031 212.820312 93.132812 213.351562 93.132812 C 213.738281 93.132812 214.066406 93.039062 214.332031 92.84375 C 214.609375 92.632812 214.820312 92.3125 214.976562 91.863281 Z M 211.519531 90.15625 L 215 90.15625 C 214.957031 89.628906 214.820312 89.234375 214.601562 88.96875 C 214.269531 88.566406 213.832031 88.363281 213.289062 88.363281 C 212.800781 88.363281 212.394531 88.53125 212.0625 88.863281 C 211.738281 89.1875 211.5625 89.613281 211.519531 90.15625 Z M 211.519531 90.15625 "/>
</g>
</svg>
