<?xml version="1.0" encoding="utf-8" standalone="no"?>
<!DOCTYPE svg PUBLIC "-//W3C//DTD SVG 1.1//EN"
  "http://www.w3.org/Graphics/SVG/1.1/DTD/svg11.dtd">
<svg xmlns:xlink="http://www.w3.org/1999/xlink" width="712.177778pt" height="328.4pt" viewBox="0 0 712.177778 328.4" xmlns="http://www.w3.org/2000/svg" version="1.1">
 <metadata>
  <rdf:RDF xmlns:dc="http://purl.org/dc/elements/1.1/" xmlns:cc="http://creativecommons.org/ns#" xmlns:rdf="http://www.w3.org/1999/02/22-rdf-syntax-ns#">
   <cc:Work>
    <dc:type rdf:resource="http://purl.org/dc/dcmitype/StillImage"/>
    <dc:date>2026-01-23T05:25:08.664199</dc:date>
    <dc:format>image/svg+xml</dc:format>
    <dc:creator>
     <cc:Agent>
      <dc:title>Matplotlib v3.8.3, https://matplotlib.org/</dc:title>
     </cc:Agent>
    </dc:creator>
   </cc:Work>
  </rdf:RDF>
 </metadata>
 <defs>
  <style type="text/css">*{stroke-linejoin: round; stroke-linecap: butt}</style>
 </defs>
 <g id="figure_1">
  <g id="patch_1">
   <path d="M -0 328.4 
L 712.177778 328.4 
L 712.177778 0 
L -0 0 
z
" style="fill: #ffffff"/>
  </g>
  <g id="axes_1">
   <g id="patch_2">
    <path d="M 136.288889 97.911111 
Q 150.244444 97.911111 162.858359 97.911111 
" style="fill: none; stroke: #7a7a7a; stroke-width: 1.2; stroke-linecap: round"/>
    <path d="M 158.858359 95.911111 
L 162.858359 97.911111 
L 158.858359 99.911111 
" style="fill: none; stroke: #7a7a7a; stroke-width: 1.2; stroke-linecap: round"/>
   </g>
   <g id="patch_3">
    <path d="M 213.044444 97.911111 
Q 227 97.911111 239.613915 97.911111 
" style="fill: none; stroke: #7a7a7a; stroke-width: 1.2; stroke-linecap: round"/>
    <path d="M 235.613915 95.911111 
L 239.613915 97.911111 
L 235.613915 99.911111 
" style="fill: none; stroke: #7a7a7a; stroke-width: 1.2; stroke-linecap: round"/>
   </g>
   <g id="patch_4">
    <path d="M 289.8 97.911111 
Q 303.755556 97.911111 316.36947 97.911111 
" style="fill: none; stroke: #7a7a7a; stroke-width: 1.2; stroke-linecap: round"/>
    <path d="M 312.36947 95.911111 
L 316.36947 97.911111 
L 312.36947 99.911111 
" style="fill: none; stroke: #7a7a7a; stroke-width: 1.2; stroke-linecap: round"/>
   </g>
   <g id="patch_5">
    <path d="M 464.244444 230.488889 
Q 478.2 230.488889 490.813915 230.488889 
" style="fill: none; stroke: #7a7a7a; stroke-width: 1.2; stroke-linecap: round"/>
    <path d="M 486.813915 228.488889 
L 490.813915 230.488889 
L 486.813915 232.488889 
" style="fill: none; stroke: #7a7a7a; stroke-width: 1.2; stroke-linecap: round"/>
   </g>
   <g id="patch_6">
    <path d="M 541 230.488889 
Q 554.955556 230.488889 567.56947 230.488889 
" style="fill: none; stroke: #7a7a7a; stroke-width: 1.2; stroke-linecap: round"/>
    <path d="M 563.56947 228.488889 
L 567.56947 230.488889 
L 563.56947 232.488889 
" style="fill: none; stroke: #7a7a7a; stroke-width: 1.2; stroke-linecap: round"/>
   </g>
   <g id="patch_7">
    <path d="M 345.622222 118.844444 
Q 380.511111 164.2 414.377484 208.226285 
" style="fill: none; stroke: #7fb685; stroke-width: 1.5; stroke-linecap: round"/>
    <path d="M 413.523889 203.836367 
L 414.377484 208.226285 
L 410.353393 206.27521 
" style="fill: none; stroke: #7fb685; stroke-width: 1.5; stroke-linecap: round"/>
   </g>
   <g id="patch_8">
    <path d="M 111.866667 117.448889 
Q 314.222222 164.2 515.706306 210.749771 
" style="fill: none; stroke: #7fb685; stroke-width: 0.8; stroke-linecap: round"/>
    <path d="M 512.259178 207.900683 
L 515.706306 210.749771 
L 511.358759 211.798021 
" style="fill: none; stroke: #7fb685; stroke-width: 0.8; stroke-linecap: round"/>
   </g>
   <g id="patch_9">
    <path d="M 188.622222 117.448889 
Q 352.6 164.2 515.717627 210.705877 
" style="fill: none; stroke: #7fb685; stroke-width: 0.8; stroke-linecap: round"/>
    <path d="M 512.419275 207.685798 
L 515.717627 210.705877 
L 511.322553 211.532511 
" style="fill: none; stroke: #7fb685; stroke-width: 0.8; stroke-linecap: round"/>
   </g>
   <g id="patch_10">
    <path d="M 265.377778 117.448889 
Q 390.977778 164.2 515.739536 210.639099 
" style="fill: none; stroke: #7fb685; stroke-width: 0.8; stroke-linecap: round"/>
    <path d="M 512.688488 207.369374 
L 515.739536 210.639099 
L 511.293127 211.118103 
" style="fill: none; stroke: #7fb685; stroke-width: 0.8; stroke-linecap: round"/>
   </g>
   <g id="patch_11">
    <path d="M 342.133333 117.448889 
Q 429.355556 164.2 515.789452 210.528568 
" style="fill: none; stroke: #7fb685; stroke-width: 0.8; stroke-linecap: round"/>
    <path d="M 513.208786 206.87615 
L 515.789452 210.528568 
L 511.319117 210.40165 
" style="fill: none; stroke: #7fb685; stroke-width: 0.8; stroke-linecap: round"/>
   </g>
   <g id="patch_12">
    <path d="M 96.515556 118.495556 
L 127.217778 118.495556 
Q 137.684444 118.495556 137.684444 108.028889 
L 137.684444 87.793333 
Q 137.684444 77.326667 127.217778 77.326667 
L 96.515556 77.326667 
Q 86.048889 77.326667 86.048889 87.793333 
L 86.048889 108.028889 
Q 86.048889 118.495556 96.515556 118.495556 
z
" clip-path="url(#p77c0dd8478)" style="fill: #6c9bc2"/>
   </g>
   <g id="patch_13">
    <path d="M 173.271111 118.495556 
L 203.973333 118.495556 
Q 214.44 118.495556 214.44 108.028889 
L 214.44 87.793333 
Q 214.44 77.326667 203.973333 77.326667 
L 173.271111 77.326667 
Q 162.804444 77.326667 162.804444 87.793333 
L 162.804444 108.028889 
Q 162.804444 118.495556 173.271111 118.495556 
z
" clip-path="url(#p77c0dd8478)" style="fill: #6c9bc2"/>
   </g>
   <g id="patch_14">
    <path d="M 250.026667 118.495556 
L 280.728889 118.495556 
Q 291.195556 118.495556 291.195556 108.028889 
L 291.195556 87.793333 
Q 291.195556 77.326667 280.728889 77.326667 
L 250.026667 77.326667 
Q 239.56 77.326667 239.56 87.793333 
L 239.56 108.028889 
Q 239.56 118.495556 250.026667 118.495556 
z
" clip-path="url(#p77c0dd8478)" style="fill: #6c9bc2"/>
   </g>
   <g id="patch_15">
    <path d="M 326.782222 118.495556 
L 357.484444 118.495556 
Q 367.951111 118.495556 367.951111 108.028889 
L 367.951111 87.793333 
Q 367.951111 77.326667 357.484444 77.326667 
L 326.782222 77.326667 
Q 316.315556 77.326667 316.315556 87.793333 
L 316.315556 108.028889 
Q 316.315556 118.495556 326.782222 118.495556 
z
" clip-path="url(#p77c0dd8478)" style="fill: #6c9bc2"/>
   </g>
   <g id="patch_16">
    <path d="M 424.471111 251.073333 
L 455.173333 251.073333 
Q 465.64 251.073333 465.64 240.606667 
L 465.64 220.371111 
Q 465.64 209.904444 455.173333 209.904444 
L 424.471111 209.904444 
Q 414.004444 209.904444 414.004444 220.371111 
L 414.004444 240.606667 
Q 414.004444 251.073333 424.471111 251.073333 
z
" clip-path="url(#p77c0dd8478)" style="fill: #e8a87c"/>
   </g>
   <g id="patch_17">
    <path d="M 501.226667 251.073333 
L 531.928889 251.073333 
Q 542.395556 251.073333 542.395556 240.606667 
L 542.395556 220.371111 
Q 542.395556 209.904444 531.928889 209.904444 
L 501.226667 209.904444 
Q 490.76 209.904444 490.76 220.371111 
L 490.76 240.606667 
Q 490.76 251.073333 501.226667 251.073333 
z
" clip-path="url(#p77c0dd8478)" style="fill: #e8a87c"/>
   </g>
   <g id="patch_18">
    <path d="M 577.982222 251.073333 
L 608.684444 251.073333 
Q 619.151111 251.073333 619.151111 240.606667 
L 619.151111 220.371111 
Q 619.151111 209.904444 608.684444 209.904444 
L 577.982222 209.904444 
Q 567.515556 209.904444 567.515556 220.371111 
L 567.515556 240.606667 
Q 567.515556 251.073333 577.982222 251.073333 
z
" clip-path="url(#p77c0dd8478)" style="fill: #e8a87c"/>
   </g>
   <g id="text_1">
    <!-- h1 -->
    <g style="fill: #ffffff" transform="translate(105.749635 100.754783) scale(0.11 -0.11)">
     <defs>
      <path id="ArialMT-68" d="M 422 0 
L 422 4581 
L 984 4581 
L 984 2938 
Q 1378 3394 1978 3394 
Q 2347 3394 2619 3248 
Q 2891 3103 3008 2847 
Q 3125 2591 3125 2103 
L 3125 0 
L 2563 0 
L 2563 2103 
Q 2563 2525 2380 2717 
Q 2197 2909 1863 2909 
Q 1613 2909 1392 2779 
Q 1172 2650 1078 2428 
Q 984 2206 984 1816 
L 984 0 
L 422 0 
z
" transform="scale(0.015625)"/>
      <path id="ArialMT-31" d="M 2384 0 
L 1822 0 
L 1822 3584 
Q 1619 3391 1289 3197 
Q 959 3003 697 2906 
L 697 3450 
Q 1169 3672 1522 3987 
Q 1875 4303 2022 4600 
L 2384 4600 
L 2384 0 
z
" transform="scale(0.015625)"/>
     </defs>
     <use xlink:href="#ArialMT-68"/>
     <use xlink:href="#ArialMT-31" x="55.615234"/>
    </g>
   </g>
   <g id="text_2">
    <!-- h2 -->
    <g style="fill: #ffffff" transform="translate(182.505191 100.754783) scale(0.11 -0.11)">
     <defs>
      <path id="ArialMT-32" d="M 3222 541 
L 3222 0 
L 194 0 
Q 188 203 259 391 
Q 375 700 629 1000 
Q 884 1300 1366 1694 
Q 2113 2306 2375 2664 
Q 2638 3022 2638 3341 
Q 2638 3675 2398 3904 
Q 2159 4134 1775 4134 
Q 1369 4134 1125 3890 
Q 881 3647 878 3216 
L 300 3275 
Q 359 3922 746 4261 
Q 1134 4600 1788 4600 
Q 2447 4600 2831 4234 
Q 3216 3869 3216 3328 
Q 3216 3053 3103 2787 
Q 2991 2522 2730 2228 
Q 2469 1934 1863 1422 
Q 1356 997 1212 845 
Q 1069 694 975 541 
L 3222 541 
z
" transform="scale(0.015625)"/>
     </defs>
     <use xlink:href="#ArialMT-68"/>
     <use xlink:href="#ArialMT-32" x="55.615234"/>
    </g>
   </g>
   <g id="text_3">
    <!-- h3 -->
    <g style="fill: #ffffff" transform="translate(259.260747 100.754783) scale(0.11 -0.11)">
     <defs>
      <path id="ArialMT-33" d="M 269 1209 
L 831 1284 
Q 928 806 1161 595 
Q 1394 384 1728 384 
Q 2125 384 2398 659 
Q 2672 934 2672 1341 
Q 2672 1728 2419 1979 
Q 2166 2231 1775 2231 
Q 1616 2231 1378 2169 
L 1441 2663 
Q 1497 2656 1531 2656 
Q 1891 2656 2178 2843 
Q 2466 3031 2466 3422 
Q 2466 3731 2256 3934 
Q 2047 4138 1716 4138 
Q 1388 4138 1169 3931 
Q 950 3725 888 3313 
L 325 3413 
Q 428 3978 793 4289 
Q 1159 4600 1703 4600 
Q 2078 4600 2393 4439 
Q 2709 4278 2876 4000 
Q 3044 3722 3044 3409 
Q 3044 3113 2884 2869 
Q 2725 2625 2413 2481 
Q 2819 2388 3044 2092 
Q 3269 1797 3269 1353 
Q 3269 753 2831 336 
Q 2394 -81 1725 -81 
Q 1122 -81 723 278 
Q 325 638 269 1209 
z
" transform="scale(0.015625)"/>
     </defs>
     <use xlink:href="#ArialMT-68"/>
     <use xlink:href="#ArialMT-33" x="55.615234"/>
    </g>
   </g>
   <g id="text_4">
    <!-- h4 -->
    <g style="fill: #ffffff" transform="translate(336.016302 100.754783) scale(0.11 -0.11)">
     <defs>
      <path id="ArialMT-34" d="M 2069 0 
L 2069 1097 
L 81 1097 
L 81 1613 
L 2172 4581 
L 2631 4581 
L 2631 1613 
L 3250 1613 
L 3250 1097 
L 2631 1097 
L 2631 0 
L 2069 0 
z
M 2069 1613 
L 2069 3678 
L 634 1613 
L 2069 1613 
z
" transform="scale(0.015625)"/>
     </defs>
     <use xlink:href="#ArialMT-68"/>
     <use xlink:href="#ArialMT-34" x="55.615234"/>
    </g>
   </g>
   <g id="text_5">
    <!-- s1 -->
    <g style="fill: #ffffff" transform="translate(434.013707 233.332561) scale(0.11 -0.11)">
     <defs>
      <path id="ArialMT-73" d="M 197 991 
L 753 1078 
Q 800 744 1014 566 
Q 1228 388 1613 388 
Q 2000 388 2187 545 
Q 2375 703 2375 916 
Q 2375 1106 2209 1216 
Q 2094 1291 1634 1406 
Q 1016 1563 777 1677 
Q 538 1791 414 1992 
Q 291 2194 291 2438 
Q 291 2659 392 2848 
Q 494 3038 669 3163 
Q 800 3259 1026 3326 
Q 1253 3394 1513 3394 
Q 1903 3394 2198 3281 
Q 2494 3169 2634 2976 
Q 2775 2784 2828 2463 
L 2278 2388 
Q 2241 2644 2061 2787 
Q 1881 2931 1553 2931 
Q 1166 2931 1000 2803 
Q 834 2675 834 2503 
Q 834 2394 903 2306 
Q 972 2216 1119 2156 
Q 1203 2125 1616 2013 
Q 2213 1853 2448 1751 
Q 2684 1650 2818 1456 
Q 2953 1263 2953 975 
Q 2953 694 2789 445 
Q 2625 197 2315 61 
Q 2006 -75 1616 -75 
Q 969 -75 630 194 
Q 291 463 197 991 
z
" transform="scale(0.015625)"/>
     </defs>
     <use xlink:href="#ArialMT-73"/>
     <use xlink:href="#ArialMT-31" x="50"/>
    </g>
   </g>
   <g id="text_6">
    <!-- s2 -->
    <g style="fill: #ffffff" transform="translate(510.769262 233.332561) scale(0.11 -0.11)">
     <use xlink:href="#ArialMT-73"/>
     <use xlink:href="#ArialMT-32" x="50"/>
    </g>
   </g>
   <g id="text_7">
    <!-- s3 -->
    <g style="fill: #ffffff" transform="translate(587.524818 233.332561) scale(0.11 -0.11)">
     <use xlink:href="#ArialMT-73"/>
     <use xlink:href="#ArialMT-33" x="50"/>
    </g>
   </g>
   <g id="text_8">
    <!-- context -->
    <g style="fill: #7fb685" transform="translate(383.447977 146.755556) scale(0.09 -0.09)">
     <defs>
      <path id="Arial-ItalicMT-63" d="M 2503 1209 
L 3069 1150 
Q 2856 528 2464 226 
Q 2072 -75 1572 -75 
Q 1031 -75 695 275 
Q 359 625 359 1253 
Q 359 1797 575 2322 
Q 791 2847 1192 3120 
Q 1594 3394 2109 3394 
Q 2644 3394 2956 3092 
Q 3269 2791 3269 2294 
L 2713 2256 
Q 2709 2572 2529 2750 
Q 2350 2928 2056 2928 
Q 1716 2928 1466 2712 
Q 1216 2497 1073 2058 
Q 931 1619 931 1213 
Q 931 788 1118 575 
Q 1306 363 1581 363 
Q 1856 363 2107 572 
Q 2359 781 2503 1209 
z
" transform="scale(0.015625)"/>
      <path id="Arial-ItalicMT-6f" d="M 313 1259 
Q 313 2231 884 2869 
Q 1356 3394 2122 3394 
Q 2722 3394 3089 3019 
Q 3456 2644 3456 2006 
Q 3456 1434 3225 942 
Q 2994 450 2567 187 
Q 2141 -75 1669 -75 
Q 1281 -75 964 90 
Q 647 256 480 559 
Q 313 863 313 1259 
z
M 878 1316 
Q 878 847 1103 605 
Q 1328 363 1675 363 
Q 1856 363 2034 436 
Q 2213 509 2366 659 
Q 2519 809 2626 1001 
Q 2734 1194 2800 1416 
Q 2897 1725 2897 2009 
Q 2897 2459 2670 2707 
Q 2444 2956 2100 2956 
Q 1834 2956 1615 2829 
Q 1397 2703 1220 2459 
Q 1044 2216 961 1892 
Q 878 1569 878 1316 
z
" transform="scale(0.015625)"/>
      <path id="Arial-ItalicMT-6e" d="M 213 0 
L 906 3319 
L 1419 3319 
L 1297 2741 
Q 1631 3081 1922 3237 
Q 2213 3394 2516 3394 
Q 2919 3394 3148 3175 
Q 3378 2956 3378 2591 
Q 3378 2406 3297 2009 
L 2875 0 
L 2309 0 
L 2750 2103 
Q 2816 2409 2816 2556 
Q 2816 2722 2702 2825 
Q 2588 2928 2372 2928 
Q 1938 2928 1598 2615 
Q 1259 2303 1100 1544 
L 778 0 
L 213 0 
z
" transform="scale(0.015625)"/>
      <path id="Arial-ItalicMT-74" d="M 1534 459 
L 1441 -3 
Q 1238 -56 1047 -56 
Q 709 -56 509 109 
Q 359 234 359 450 
Q 359 559 441 953 
L 844 2881 
L 397 2881 
L 488 3319 
L 934 3319 
L 1106 4134 
L 1753 4525 
L 1500 3319 
L 2056 3319 
L 1963 2881 
L 1409 2881 
L 1025 1047 
Q 953 697 953 628 
Q 953 528 1011 475 
Q 1069 422 1200 422 
Q 1388 422 1534 459 
z
" transform="scale(0.015625)"/>
      <path id="Arial-ItalicMT-65" d="M 2650 1128 
L 3200 1072 
Q 3081 663 2654 294 
Q 2228 -75 1638 -75 
Q 1269 -75 961 95 
Q 653 266 492 591 
Q 331 916 331 1331 
Q 331 1875 582 2386 
Q 834 2897 1234 3145 
Q 1634 3394 2100 3394 
Q 2694 3394 3048 3025 
Q 3403 2656 3403 2019 
Q 3403 1775 3359 1519 
L 916 1519 
Q 903 1422 903 1344 
Q 903 878 1117 633 
Q 1331 388 1641 388 
Q 1931 388 2212 578 
Q 2494 769 2650 1128 
z
M 1006 1950 
L 2869 1950 
Q 2872 2038 2872 2075 
Q 2872 2500 2659 2726 
Q 2447 2953 2113 2953 
Q 1750 2953 1451 2703 
Q 1153 2453 1006 1950 
z
" transform="scale(0.015625)"/>
      <path id="Arial-ItalicMT-78" d="M -9 0 
L 1434 1684 
L 606 3319 
L 1231 3319 
L 1513 2728 
Q 1669 2397 1794 2094 
L 2750 3319 
L 3441 3319 
L 2047 1641 
L 2884 0 
L 2259 0 
L 1928 675 
Q 1822 891 1688 1209 
L 700 0 
L -9 0 
z
" transform="scale(0.015625)"/>
     </defs>
     <use xlink:href="#Arial-ItalicMT-63"/>
     <use xlink:href="#Arial-ItalicMT-6f" x="50"/>
     <use xlink:href="#Arial-ItalicMT-6e" x="105.615234"/>
     <use xlink:href="#Arial-ItalicMT-74" x="161.230469"/>
     <use xlink:href="#Arial-ItalicMT-65" x="189.013672"/>
     <use xlink:href="#Arial-ItalicMT-78" x="244.628906"/>
     <use xlink:href="#Arial-ItalicMT-74" x="294.628906"/>
    </g>
   </g>
   <g id="text_9">
    <!-- attention -->
    <g style="fill: #7fb685" transform="translate(283.004245 181.644444) scale(0.09 -0.09)">
     <defs>
      <path id="Arial-ItalicMT-61" d="M 2450 413 
Q 2156 159 1884 42 
Q 1613 -75 1303 -75 
Q 844 -75 562 195 
Q 281 466 281 888 
Q 281 1166 407 1380 
Q 534 1594 743 1723 
Q 953 1853 1256 1909 
Q 1447 1947 1980 1969 
Q 2513 1991 2744 2081 
Q 2809 2313 2809 2466 
Q 2809 2663 2666 2775 
Q 2469 2931 2091 2931 
Q 1734 2931 1507 2773 
Q 1281 2616 1178 2325 
L 606 2375 
Q 781 2869 1161 3131 
Q 1541 3394 2119 3394 
Q 2734 3394 3094 3100 
Q 3369 2881 3369 2531 
Q 3369 2266 3291 1916 
L 3106 1091 
Q 3019 697 3019 450 
Q 3019 294 3088 0 
L 2516 0 
Q 2469 163 2450 413 
z
M 2659 1681 
Q 2541 1634 2405 1609 
Q 2269 1584 1950 1556 
Q 1456 1513 1253 1445 
Q 1050 1378 947 1231 
Q 844 1084 844 906 
Q 844 669 1008 516 
Q 1172 363 1475 363 
Q 1756 363 2015 511 
Q 2275 659 2425 925 
Q 2575 1191 2659 1681 
z
" transform="scale(0.015625)"/>
      <path id="Arial-ItalicMT-69" d="M 1016 3941 
L 1150 4581 
L 1713 4581 
L 1578 3941 
L 1016 3941 
z
M 191 0 
L 884 3319 
L 1450 3319 
L 756 0 
L 191 0 
z
" transform="scale(0.015625)"/>
     </defs>
     <use xlink:href="#Arial-ItalicMT-61"/>
     <use xlink:href="#Arial-ItalicMT-74" x="55.615234"/>
     <use xlink:href="#Arial-ItalicMT-74" x="83.398438"/>
     <use xlink:href="#Arial-ItalicMT-65" x="111.181641"/>
     <use xlink:href="#Arial-ItalicMT-6e" x="166.796875"/>
     <use xlink:href="#Arial-ItalicMT-74" x="222.412109"/>
     <use xlink:href="#Arial-ItalicMT-69" x="250.195312"/>
     <use xlink:href="#Arial-ItalicMT-6f" x="272.412109"/>
     <use xlink:href="#Arial-ItalicMT-6e" x="328.027344"/>
    </g>
   </g>
   <g id="text_10">
    <!-- Encoder -->
    <g style="fill: #6c9bc2" transform="translate(168.618316 51.658854) scale(0.1 -0.1)">
     <defs>
      <path id="Arial-BoldMT-45" d="M 466 0 
L 466 4581 
L 3863 4581 
L 3863 3806 
L 1391 3806 
L 1391 2791 
L 3691 2791 
L 3691 2019 
L 1391 2019 
L 1391 772 
L 3950 772 
L 3950 0 
L 466 0 
z
" transform="scale(0.015625)"/>
      <path id="Arial-BoldMT-6e" d="M 3478 0 
L 2600 0 
L 2600 1694 
Q 2600 2231 2544 2389 
Q 2488 2547 2361 2634 
Q 2234 2722 2056 2722 
Q 1828 2722 1647 2597 
Q 1466 2472 1398 2265 
Q 1331 2059 1331 1503 
L 1331 0 
L 453 0 
L 453 3319 
L 1269 3319 
L 1269 2831 
Q 1703 3394 2363 3394 
Q 2653 3394 2893 3289 
Q 3134 3184 3257 3021 
Q 3381 2859 3429 2653 
Q 3478 2447 3478 2063 
L 3478 0 
z
" transform="scale(0.015625)"/>
      <path id="Arial-BoldMT-63" d="M 3353 2338 
L 2488 2181 
Q 2444 2441 2289 2572 
Q 2134 2703 1888 2703 
Q 1559 2703 1364 2476 
Q 1169 2250 1169 1719 
Q 1169 1128 1367 884 
Q 1566 641 1900 641 
Q 2150 641 2309 783 
Q 2469 925 2534 1272 
L 3397 1125 
Q 3263 531 2881 228 
Q 2500 -75 1859 -75 
Q 1131 -75 698 384 
Q 266 844 266 1656 
Q 266 2478 700 2936 
Q 1134 3394 1875 3394 
Q 2481 3394 2839 3133 
Q 3197 2872 3353 2338 
z
" transform="scale(0.015625)"/>
      <path id="Arial-BoldMT-6f" d="M 256 1706 
Q 256 2144 472 2553 
Q 688 2963 1083 3178 
Q 1478 3394 1966 3394 
Q 2719 3394 3200 2905 
Q 3681 2416 3681 1669 
Q 3681 916 3195 420 
Q 2709 -75 1972 -75 
Q 1516 -75 1102 131 
Q 688 338 472 736 
Q 256 1134 256 1706 
z
M 1156 1659 
Q 1156 1166 1390 903 
Q 1625 641 1969 641 
Q 2313 641 2545 903 
Q 2778 1166 2778 1666 
Q 2778 2153 2545 2415 
Q 2313 2678 1969 2678 
Q 1625 2678 1390 2415 
Q 1156 2153 1156 1659 
z
" transform="scale(0.015625)"/>
      <path id="Arial-BoldMT-64" d="M 3503 0 
L 2688 0 
L 2688 488 
Q 2484 203 2207 64 
Q 1931 -75 1650 -75 
Q 1078 -75 670 386 
Q 263 847 263 1672 
Q 263 2516 659 2955 
Q 1056 3394 1663 3394 
Q 2219 3394 2625 2931 
L 2625 4581 
L 3503 4581 
L 3503 0 
z
M 1159 1731 
Q 1159 1200 1306 963 
Q 1519 619 1900 619 
Q 2203 619 2415 876 
Q 2628 1134 2628 1647 
Q 2628 2219 2422 2470 
Q 2216 2722 1894 2722 
Q 1581 2722 1370 2473 
Q 1159 2225 1159 1731 
z
" transform="scale(0.015625)"/>
      <path id="Arial-BoldMT-65" d="M 2381 1056 
L 3256 909 
Q 3088 428 2723 176 
Q 2359 -75 1813 -75 
Q 947 -75 531 491 
Q 203 944 203 1634 
Q 203 2459 634 2926 
Q 1066 3394 1725 3394 
Q 2466 3394 2894 2905 
Q 3322 2416 3303 1406 
L 1103 1406 
Q 1113 1016 1316 798 
Q 1519 581 1822 581 
Q 2028 581 2168 693 
Q 2309 806 2381 1056 
z
M 2431 1944 
Q 2422 2325 2234 2523 
Q 2047 2722 1778 2722 
Q 1491 2722 1303 2513 
Q 1116 2303 1119 1944 
L 2431 1944 
z
" transform="scale(0.015625)"/>
      <path id="Arial-BoldMT-72" d="M 1300 0 
L 422 0 
L 422 3319 
L 1238 3319 
L 1238 2847 
Q 1447 3181 1614 3287 
Q 1781 3394 1994 3394 
Q 2294 3394 2572 3228 
L 2300 2463 
Q 2078 2606 1888 2606 
Q 1703 2606 1575 2504 
Q 1447 2403 1373 2137 
Q 1300 1872 1300 1025 
L 1300 0 
z
" transform="scale(0.015625)"/>
     </defs>
     <use xlink:href="#Arial-BoldMT-45"/>
     <use xlink:href="#Arial-BoldMT-6e" x="66.699219"/>
     <use xlink:href="#Arial-BoldMT-63" x="127.783203"/>
     <use xlink:href="#Arial-BoldMT-6f" x="183.398438"/>
     <use xlink:href="#Arial-BoldMT-64" x="244.482422"/>
     <use xlink:href="#Arial-BoldMT-65" x="305.566406"/>
     <use xlink:href="#Arial-BoldMT-72" x="361.181641"/>
    </g>
   </g>
   <g id="text_11">
    <!-- Decoder -->
    <g style="fill: #e8a87c" transform="translate(496.571528 288.903299) scale(0.1 -0.1)">
     <defs>
      <path id="Arial-BoldMT-44" d="M 463 4581 
L 2153 4581 
Q 2725 4581 3025 4494 
Q 3428 4375 3715 4072 
Q 4003 3769 4153 3330 
Q 4303 2891 4303 2247 
Q 4303 1681 4163 1272 
Q 3991 772 3672 463 
Q 3431 228 3022 97 
Q 2716 0 2203 0 
L 463 0 
L 463 4581 
z
M 1388 3806 
L 1388 772 
L 2078 772 
Q 2466 772 2638 816 
Q 2863 872 3011 1006 
Q 3159 1141 3253 1448 
Q 3347 1756 3347 2288 
Q 3347 2819 3253 3103 
Q 3159 3388 2990 3547 
Q 2822 3706 2563 3763 
Q 2369 3806 1803 3806 
L 1388 3806 
z
" transform="scale(0.015625)"/>
     </defs>
     <use xlink:href="#Arial-BoldMT-44"/>
     <use xlink:href="#Arial-BoldMT-65" x="72.216797"/>
     <use xlink:href="#Arial-BoldMT-63" x="127.832031"/>
     <use xlink:href="#Arial-BoldMT-6f" x="183.447266"/>
     <use xlink:href="#Arial-BoldMT-64" x="244.53125"/>
     <use xlink:href="#Arial-BoldMT-65" x="305.615234"/>
     <use xlink:href="#Arial-BoldMT-72" x="361.230469"/>
    </g>
   </g>
  </g>
 </g>
 <defs>
  <clipPath id="p77c0dd8478">
   <rect x="7.2" y="7.2" width="697.777778" height="314"/>
  </clipPath>
 </defs>
</svg>
