<?xml version="1.0" encoding="utf-8" standalone="no"?>
<!DOCTYPE svg PUBLIC "-//W3C//DTD SVG 1.1//EN"
  "http://www.w3.org/Graphics/SVG/1.1/DTD/svg11.dtd">
<svg xmlns:xlink="http://www.w3.org/1999/xlink" width="720.114286pt" height="508.4pt" viewBox="0 0 720.114286 508.4" xmlns="http://www.w3.org/2000/svg" version="1.1">
 <metadata>
  <rdf:RDF xmlns:dc="http://purl.org/dc/elements/1.1/" xmlns:cc="http://creativecommons.org/ns#" xmlns:rdf="http://www.w3.org/1999/02/22-rdf-syntax-ns#">
   <cc:Work>
    <dc:type rdf:resource="http://purl.org/dc/dcmitype/StillImage"/>
    <dc:date>2026-01-23T05:25:09.834360</dc:date>
    <dc:format>image/svg+xml</dc:format>
    <dc:creator>
     <cc:Agent>
      <dc:title>Matplotlib v3.8.3, https://matplotlib.org/</dc:title>
     </cc:Agent>
    </dc:creator>
   </cc:Work>
  </rdf:RDF>
 </metadata>
 <defs>
  <style type="text/css">*{stroke-linejoin: round; stroke-linecap: butt}</style>
 </defs>
 <g id="figure_1">
  <g id="patch_1">
   <path d="M 0 508.4 
L 720.114286 508.4 
L 720.114286 0 
L 0 0 
z
" style="fill: #ffffff"/>
  </g>
  <g id="axes_1">
   <g id="patch_2">
    <path d="M 96.825714 256.317143 
L 199.86 256.317143 
Q 213.974286 256.317143 213.974286 242.202857 
L 213.974286 167.397143 
Q 213.974286 153.282857 199.86 153.282857 
L 96.825714 153.282857 
Q 82.711429 153.282857 82.711429 167.397143 
L 82.711429 242.202857 
Q 82.711429 256.317143 96.825714 256.317143 
z
" clip-path="url(#p885430f2e7)" style="fill: #6c9bc2; opacity: 0.3; stroke-dasharray: 4.44,1.92; stroke-dashoffset: 0; stroke: #7a7a7a; stroke-width: 1.2; stroke-linejoin: miter"/>
   </g>
   <g id="patch_3">
    <path d="M 308.54 256.317143 
L 411.574286 256.317143 
Q 425.688571 256.317143 425.688571 242.202857 
L 425.688571 167.397143 
Q 425.688571 153.282857 411.574286 153.282857 
L 308.54 153.282857 
Q 294.425714 153.282857 294.425714 167.397143 
L 294.425714 242.202857 
Q 294.425714 256.317143 308.54 256.317143 
z
" clip-path="url(#p885430f2e7)" style="fill: #7fb685; opacity: 0.3; stroke-dasharray: 4.44,1.92; stroke-dashoffset: 0; stroke: #7a7a7a; stroke-width: 1.2; stroke-linejoin: miter"/>
   </g>
   <g id="patch_4">
    <path d="M 520.254286 256.317143 
L 623.288571 256.317143 
Q 637.402857 256.317143 637.402857 242.202857 
L 637.402857 167.397143 
Q 637.402857 153.282857 623.288571 153.282857 
L 520.254286 153.282857 
Q 506.14 153.282857 506.14 167.397143 
L 506.14 242.202857 
Q 506.14 256.317143 520.254286 256.317143 
z
" clip-path="url(#p885430f2e7)" style="fill: #e8a87c; opacity: 0.3; stroke-dasharray: 4.44,1.92; stroke-dashoffset: 0; stroke: #7a7a7a; stroke-width: 1.2; stroke-linejoin: miter"/>
   </g>
   <g id="patch_5">
    <path d="M 183.628571 74.242857 
Q 148.342857 91.885714 113.857143 109.128571 
" style="fill: none; stroke: #7a7a7a; stroke-width: 0.8; stroke-linecap: round"/>
    <path d="M 118.329279 109.128571 
L 113.857143 109.128571 
L 116.540424 105.550863 
" style="fill: none; stroke: #7a7a7a; stroke-width: 0.8; stroke-linecap: round"/>
   </g>
   <g id="patch_6">
    <path d="M 360.057143 74.242857 
Q 254.2 91.885714 149.225115 109.381529 
" style="fill: none; stroke: #7a7a7a; stroke-width: 0.8; stroke-linecap: round"/>
    <path d="M 153.499488 110.69672 
L 149.225115 109.381529 
L 152.841892 106.751145 
" style="fill: none; stroke: #7a7a7a; stroke-width: 0.8; stroke-linecap: round"/>
   </g>
   <g id="patch_7">
    <path d="M 536.485714 74.242857 
Q 360.057143 91.885714 184.51856 109.439573 
" style="fill: none; stroke: #7a7a7a; stroke-width: 0.8; stroke-linecap: round"/>
    <path d="M 188.697716 111.031632 
L 184.51856 109.439573 
L 188.299701 107.051483 
" style="fill: none; stroke: #7a7a7a; stroke-width: 0.8; stroke-linecap: round"/>
   </g>
   <g id="patch_8">
    <path d="M 113.057143 130.7 
Q 125.407143 150.107143 137.276947 168.759692 
" style="fill: none; stroke: #7a7a7a; stroke-width: 0.8; stroke-linecap: round"/>
    <path d="M 136.816768 164.311295 
L 137.276947 168.759692 
L 133.442122 166.458797 
" style="fill: none; stroke: #7a7a7a; stroke-width: 0.8; stroke-linecap: round"/>
   </g>
   <g id="patch_9">
    <path d="M 148.342857 130.7 
Q 148.342857 150.107143 148.342857 168.619859 
" style="fill: none; stroke: #7a7a7a; stroke-width: 0.8; stroke-linecap: round"/>
    <path d="M 150.342857 164.619859 
L 148.342857 168.619859 
L 146.342857 164.619859 
" style="fill: none; stroke: #7a7a7a; stroke-width: 0.8; stroke-linecap: round"/>
   </g>
   <g id="patch_10">
    <path d="M 183.628571 130.7 
Q 171.278571 150.107143 159.408767 168.759692 
" style="fill: none; stroke: #7a7a7a; stroke-width: 0.8; stroke-linecap: round"/>
    <path d="M 163.243592 166.458797 
L 159.408767 168.759692 
L 159.868946 164.311295 
" style="fill: none; stroke: #7a7a7a; stroke-width: 0.8; stroke-linecap: round"/>
   </g>
   <g id="patch_11">
    <path d="M 183.628571 74.242857 
Q 254.2 91.885714 323.903707 109.311641 
" style="fill: none; stroke: #7a7a7a; stroke-width: 0.8; stroke-linecap: round"/>
    <path d="M 320.508208 106.401213 
L 323.903707 109.311641 
L 319.538065 110.281783 
" style="fill: none; stroke: #7a7a7a; stroke-width: 0.8; stroke-linecap: round"/>
   </g>
   <g id="patch_12">
    <path d="M 360.057143 74.242857 
Q 360.057143 91.885714 360.057143 108.634144 
" style="fill: none; stroke: #7a7a7a; stroke-width: 0.8; stroke-linecap: round"/>
    <path d="M 362.057143 104.634144 
L 360.057143 108.634144 
L 358.057143 104.634144 
" style="fill: none; stroke: #7a7a7a; stroke-width: 0.8; stroke-linecap: round"/>
   </g>
   <g id="patch_13">
    <path d="M 536.485714 74.242857 
Q 465.914286 91.885714 396.210579 109.311641 
" style="fill: none; stroke: #7a7a7a; stroke-width: 0.8; stroke-linecap: round"/>
    <path d="M 400.57622 110.281783 
L 396.210579 109.311641 
L 399.606078 106.401213 
" style="fill: none; stroke: #7a7a7a; stroke-width: 0.8; stroke-linecap: round"/>
   </g>
   <g id="patch_14">
    <path d="M 324.771429 130.7 
Q 337.121429 150.107143 348.991233 168.759692 
" style="fill: none; stroke: #7a7a7a; stroke-width: 0.8; stroke-linecap: round"/>
    <path d="M 348.531054 164.311295 
L 348.991233 168.759692 
L 345.156408 166.458797 
" style="fill: none; stroke: #7a7a7a; stroke-width: 0.8; stroke-linecap: round"/>
   </g>
   <g id="patch_15">
    <path d="M 360.057143 130.7 
Q 360.057143 150.107143 360.057143 168.619859 
" style="fill: none; stroke: #7a7a7a; stroke-width: 0.8; stroke-linecap: round"/>
    <path d="M 362.057143 164.619859 
L 360.057143 168.619859 
L 358.057143 164.619859 
" style="fill: none; stroke: #7a7a7a; stroke-width: 0.8; stroke-linecap: round"/>
   </g>
   <g id="patch_16">
    <path d="M 395.342857 130.7 
Q 382.992857 150.107143 371.123053 168.759692 
" style="fill: none; stroke: #7a7a7a; stroke-width: 0.8; stroke-linecap: round"/>
    <path d="M 374.957878 166.458797 
L 371.123053 168.759692 
L 371.583232 164.311295 
" style="fill: none; stroke: #7a7a7a; stroke-width: 0.8; stroke-linecap: round"/>
   </g>
   <g id="patch_17">
    <path d="M 183.628571 74.242857 
Q 360.057143 91.885714 535.595726 109.439573 
" style="fill: none; stroke: #7a7a7a; stroke-width: 0.8; stroke-linecap: round"/>
    <path d="M 531.814585 107.051483 
L 535.595726 109.439573 
L 531.41657 111.031632 
" style="fill: none; stroke: #7a7a7a; stroke-width: 0.8; stroke-linecap: round"/>
   </g>
   <g id="patch_18">
    <path d="M 360.057143 74.242857 
Q 465.914286 91.885714 570.889171 109.381529 
" style="fill: none; stroke: #7a7a7a; stroke-width: 0.8; stroke-linecap: round"/>
    <path d="M 567.272393 106.751145 
L 570.889171 109.381529 
L 566.614797 110.69672 
" style="fill: none; stroke: #7a7a7a; stroke-width: 0.8; stroke-linecap: round"/>
   </g>
   <g id="patch_19">
    <path d="M 536.485714 74.242857 
Q 571.771429 91.885714 606.257143 109.128571 
" style="fill: none; stroke: #7a7a7a; stroke-width: 0.8; stroke-linecap: round"/>
    <path d="M 603.573861 105.550863 
L 606.257143 109.128571 
L 601.785007 109.128571 
" style="fill: none; stroke: #7a7a7a; stroke-width: 0.8; stroke-linecap: round"/>
   </g>
   <g id="patch_20">
    <path d="M 536.485714 130.7 
Q 548.835714 150.107143 560.705518 168.759692 
" style="fill: none; stroke: #7a7a7a; stroke-width: 0.8; stroke-linecap: round"/>
    <path d="M 560.245339 164.311295 
L 560.705518 168.759692 
L 556.870693 166.458797 
" style="fill: none; stroke: #7a7a7a; stroke-width: 0.8; stroke-linecap: round"/>
   </g>
   <g id="patch_21">
    <path d="M 571.771429 130.7 
Q 571.771429 150.107143 571.771429 168.619859 
" style="fill: none; stroke: #7a7a7a; stroke-width: 0.8; stroke-linecap: round"/>
    <path d="M 573.771429 164.619859 
L 571.771429 168.619859 
L 569.771429 164.619859 
" style="fill: none; stroke: #7a7a7a; stroke-width: 0.8; stroke-linecap: round"/>
   </g>
   <g id="patch_22">
    <path d="M 607.057143 130.7 
Q 594.707143 150.107143 582.837339 168.759692 
" style="fill: none; stroke: #7a7a7a; stroke-width: 0.8; stroke-linecap: round"/>
    <path d="M 586.672164 166.458797 
L 582.837339 168.759692 
L 583.297518 164.311295 
" style="fill: none; stroke: #7a7a7a; stroke-width: 0.8; stroke-linecap: round"/>
   </g>
   <g id="patch_23">
    <path d="M 148.342857 271.842857 
Q 254.2 296.542857 358.750598 320.937997 
" style="fill: none; stroke: #7a7a7a; stroke-width: 1.2; stroke-linecap: round"/>
    <path d="M 355.309692 318.081396 
L 358.750598 320.937997 
L 354.400774 321.976761 
" style="fill: none; stroke: #7a7a7a; stroke-width: 1.2; stroke-linecap: round"/>
   </g>
   <g id="patch_24">
    <path d="M 360.057143 271.842857 
Q 360.057143 296.542857 360.057143 319.901216 
" style="fill: none; stroke: #7a7a7a; stroke-width: 1.2; stroke-linecap: round"/>
    <path d="M 362.057143 315.901216 
L 360.057143 319.901216 
L 358.057143 315.901216 
" style="fill: none; stroke: #7a7a7a; stroke-width: 1.2; stroke-linecap: round"/>
   </g>
   <g id="patch_25">
    <path d="M 571.771429 271.842857 
Q 465.914286 296.542857 361.363688 320.937997 
" style="fill: none; stroke: #7a7a7a; stroke-width: 1.2; stroke-linecap: round"/>
    <path d="M 365.713512 321.976761 
L 361.363688 320.937997 
L 364.804594 318.081396 
" style="fill: none; stroke: #7a7a7a; stroke-width: 1.2; stroke-linecap: round"/>
   </g>
   <g id="patch_26">
    <path d="M 360.057143 356.528571 
Q 360.057143 370.642857 360.057143 383.415502 
" style="fill: none; stroke: #7a7a7a; stroke-width: 1.2; stroke-linecap: round"/>
    <path d="M 362.057143 379.415502 
L 360.057143 383.415502 
L 358.057143 379.415502 
" style="fill: none; stroke: #7a7a7a; stroke-width: 1.2; stroke-linecap: round"/>
   </g>
   <g id="patch_27">
    <path d="M 360.057143 420.042857 
Q 360.057143 434.157143 360.057143 446.929788 
" style="fill: none; stroke: #7a7a7a; stroke-width: 1.2; stroke-linecap: round"/>
    <path d="M 362.057143 442.929788 
L 360.057143 446.929788 
L 358.057143 442.929788 
" style="fill: none; stroke: #7a7a7a; stroke-width: 1.2; stroke-linecap: round"/>
   </g>
   <g id="patch_28">
    <path d="M 171.631429 75.654286 
L 195.625714 75.654286 
Q 206.211429 75.654286 206.211429 65.068571 
L 206.211429 48.131429 
Q 206.211429 37.545714 195.625714 37.545714 
L 171.631429 37.545714 
Q 161.045714 37.545714 161.045714 48.131429 
L 161.045714 65.068571 
Q 161.045714 75.654286 171.631429 75.654286 
z
" clip-path="url(#p885430f2e7)" style="fill: #6c9bc2"/>
   </g>
   <g id="patch_29">
    <path d="M 348.06 75.654286 
L 372.054286 75.654286 
Q 382.64 75.654286 382.64 65.068571 
L 382.64 48.131429 
Q 382.64 37.545714 372.054286 37.545714 
L 348.06 37.545714 
Q 337.474286 37.545714 337.474286 48.131429 
L 337.474286 65.068571 
Q 337.474286 75.654286 348.06 75.654286 
z
" clip-path="url(#p885430f2e7)" style="fill: #6c9bc2"/>
   </g>
   <g id="patch_30">
    <path d="M 524.488571 75.654286 
L 548.482857 75.654286 
Q 559.068571 75.654286 559.068571 65.068571 
L 559.068571 48.131429 
Q 559.068571 37.545714 548.482857 37.545714 
L 524.488571 37.545714 
Q 513.902857 37.545714 513.902857 48.131429 
L 513.902857 65.068571 
Q 513.902857 75.654286 524.488571 75.654286 
z
" clip-path="url(#p885430f2e7)" style="fill: #e8a87c"/>
   </g>
   <g id="patch_31">
    <path d="M 108.117143 132.111429 
L 117.997143 132.111429 
Q 128.582857 132.111429 128.582857 121.525714 
L 128.582857 118.702857 
Q 128.582857 108.117143 117.997143 108.117143 
L 108.117143 108.117143 
Q 97.531429 108.117143 97.531429 118.702857 
L 97.531429 121.525714 
Q 97.531429 132.111429 108.117143 132.111429 
z
" clip-path="url(#p885430f2e7)" style="fill: #6c9bc2; opacity: 0.5"/>
   </g>
   <g id="patch_32">
    <path d="M 143.402857 132.111429 
L 153.282857 132.111429 
Q 163.868571 132.111429 163.868571 121.525714 
L 163.868571 118.702857 
Q 163.868571 108.117143 153.282857 108.117143 
L 143.402857 108.117143 
Q 132.817143 108.117143 132.817143 118.702857 
L 132.817143 121.525714 
Q 132.817143 132.111429 143.402857 132.111429 
z
" clip-path="url(#p885430f2e7)" style="fill: #6c9bc2; opacity: 0.5"/>
   </g>
   <g id="patch_33">
    <path d="M 178.688571 132.111429 
L 188.568571 132.111429 
Q 199.154286 132.111429 199.154286 121.525714 
L 199.154286 118.702857 
Q 199.154286 108.117143 188.568571 108.117143 
L 178.688571 108.117143 
Q 168.102857 108.117143 168.102857 118.702857 
L 168.102857 121.525714 
Q 168.102857 132.111429 178.688571 132.111429 
z
" clip-path="url(#p885430f2e7)" style="fill: #6c9bc2; opacity: 0.5"/>
   </g>
   <g id="patch_34">
    <path d="M 104.588571 223.854286 
L 192.097143 223.854286 
Q 202.682857 223.854286 202.682857 213.268571 
L 202.682857 196.331429 
Q 202.682857 185.745714 192.097143 185.745714 
L 104.588571 185.745714 
Q 94.002857 185.745714 94.002857 196.331429 
L 94.002857 213.268571 
Q 94.002857 223.854286 104.588571 223.854286 
z
" clip-path="url(#p885430f2e7)" style="fill: #6c9bc2"/>
   </g>
   <g id="patch_35">
    <path d="M 319.831429 132.111429 
L 329.711429 132.111429 
Q 340.297143 132.111429 340.297143 121.525714 
L 340.297143 118.702857 
Q 340.297143 108.117143 329.711429 108.117143 
L 319.831429 108.117143 
Q 309.245714 108.117143 309.245714 118.702857 
L 309.245714 121.525714 
Q 309.245714 132.111429 319.831429 132.111429 
z
" clip-path="url(#p885430f2e7)" style="fill: #7fb685; opacity: 0.5"/>
   </g>
   <g id="patch_36">
    <path d="M 355.117143 132.111429 
L 364.997143 132.111429 
Q 375.582857 132.111429 375.582857 121.525714 
L 375.582857 118.702857 
Q 375.582857 108.117143 364.997143 108.117143 
L 355.117143 108.117143 
Q 344.531429 108.117143 344.531429 118.702857 
L 344.531429 121.525714 
Q 344.531429 132.111429 355.117143 132.111429 
z
" clip-path="url(#p885430f2e7)" style="fill: #7fb685; opacity: 0.5"/>
   </g>
   <g id="patch_37">
    <path d="M 390.402857 132.111429 
L 400.282857 132.111429 
Q 410.868571 132.111429 410.868571 121.525714 
L 410.868571 118.702857 
Q 410.868571 108.117143 400.282857 108.117143 
L 390.402857 108.117143 
Q 379.817143 108.117143 379.817143 118.702857 
L 379.817143 121.525714 
Q 379.817143 132.111429 390.402857 132.111429 
z
" clip-path="url(#p885430f2e7)" style="fill: #7fb685; opacity: 0.5"/>
   </g>
   <g id="patch_38">
    <path d="M 316.302857 223.854286 
L 403.811429 223.854286 
Q 414.397143 223.854286 414.397143 213.268571 
L 414.397143 196.331429 
Q 414.397143 185.745714 403.811429 185.745714 
L 316.302857 185.745714 
Q 305.717143 185.745714 305.717143 196.331429 
L 305.717143 213.268571 
Q 305.717143 223.854286 316.302857 223.854286 
z
" clip-path="url(#p885430f2e7)" style="fill: #7fb685"/>
   </g>
   <g id="patch_39">
    <path d="M 531.545714 132.111429 
L 541.425714 132.111429 
Q 552.011429 132.111429 552.011429 121.525714 
L 552.011429 118.702857 
Q 552.011429 108.117143 541.425714 108.117143 
L 531.545714 108.117143 
Q 520.96 108.117143 520.96 118.702857 
L 520.96 121.525714 
Q 520.96 132.111429 531.545714 132.111429 
z
" clip-path="url(#p885430f2e7)" style="fill: #e8a87c; opacity: 0.5"/>
   </g>
   <g id="patch_40">
    <path d="M 566.831429 132.111429 
L 576.711429 132.111429 
Q 587.297143 132.111429 587.297143 121.525714 
L 587.297143 118.702857 
Q 587.297143 108.117143 576.711429 108.117143 
L 566.831429 108.117143 
Q 556.245714 108.117143 556.245714 118.702857 
L 556.245714 121.525714 
Q 556.245714 132.111429 566.831429 132.111429 
z
" clip-path="url(#p885430f2e7)" style="fill: #e8a87c; opacity: 0.5"/>
   </g>
   <g id="patch_41">
    <path d="M 602.117143 132.111429 
L 611.997143 132.111429 
Q 622.582857 132.111429 622.582857 121.525714 
L 622.582857 118.702857 
Q 622.582857 108.117143 611.997143 108.117143 
L 602.117143 108.117143 
Q 591.531429 108.117143 591.531429 118.702857 
L 591.531429 121.525714 
Q 591.531429 132.111429 602.117143 132.111429 
z
" clip-path="url(#p885430f2e7)" style="fill: #e8a87c; opacity: 0.5"/>
   </g>
   <g id="patch_42">
    <path d="M 528.017143 223.854286 
L 615.525714 223.854286 
Q 626.111429 223.854286 626.111429 213.268571 
L 626.111429 196.331429 
Q 626.111429 185.745714 615.525714 185.745714 
L 528.017143 185.745714 
Q 517.431429 185.745714 517.431429 196.331429 
L 517.431429 213.268571 
Q 517.431429 223.854286 528.017143 223.854286 
z
" clip-path="url(#p885430f2e7)" style="fill: #e8a87c"/>
   </g>
   <g id="patch_43">
    <path d="M 305.717143 357.94 
L 414.397143 357.94 
Q 424.982857 357.94 424.982857 347.354286 
L 424.982857 330.417143 
Q 424.982857 319.831429 414.397143 319.831429 
L 305.717143 319.831429 
Q 295.131429 319.831429 295.131429 330.417143 
L 295.131429 347.354286 
Q 295.131429 357.94 305.717143 357.94 
z
" clip-path="url(#p885430f2e7)" style="fill: #a8b5c4"/>
   </g>
   <g id="patch_44">
    <path d="M 305.717143 421.454286 
L 414.397143 421.454286 
Q 424.982857 421.454286 424.982857 410.868571 
L 424.982857 393.931429 
Q 424.982857 383.345714 414.397143 383.345714 
L 305.717143 383.345714 
Q 295.131429 383.345714 295.131429 393.931429 
L 295.131429 410.868571 
Q 295.131429 421.454286 305.717143 421.454286 
z
" clip-path="url(#p885430f2e7)" style="fill: #7fb685"/>
   </g>
   <g id="patch_45">
    <path d="M 326.888571 484.968571 
L 393.225714 484.968571 
Q 403.811429 484.968571 403.811429 474.382857 
L 403.811429 457.445714 
Q 403.811429 446.86 393.225714 446.86 
L 326.888571 446.86 
Q 316.302857 446.86 316.302857 457.445714 
L 316.302857 474.382857 
Q 316.302857 484.968571 326.888571 484.968571 
z
" clip-path="url(#p885430f2e7)" style="fill: #9b8dc2"/>
   </g>
   <g id="text_1">
    <!-- Q -->
    <g style="fill: #ffffff" transform="translate(178.961696 59.702188) scale(0.12 -0.12)">
     <defs>
      <path id="ArialMT-51" d="M 3966 491 
Q 4388 200 4744 66 
L 4566 -356 
Q 4072 -178 3581 206 
Q 3072 -78 2456 -78 
Q 1834 -78 1328 222 
Q 822 522 548 1065 
Q 275 1609 275 2291 
Q 275 2969 550 3525 
Q 825 4081 1333 4372 
Q 1841 4663 2469 4663 
Q 3103 4663 3612 4361 
Q 4122 4059 4389 3517 
Q 4656 2975 4656 2294 
Q 4656 1728 4484 1276 
Q 4313 825 3966 491 
z
M 2631 1266 
Q 3156 1119 3497 828 
Q 4031 1316 4031 2294 
Q 4031 2850 3842 3265 
Q 3653 3681 3289 3911 
Q 2925 4141 2472 4141 
Q 1794 4141 1347 3677 
Q 900 3213 900 2291 
Q 900 1397 1342 919 
Q 1784 441 2472 441 
Q 2797 441 3084 563 
Q 2800 747 2484 825 
L 2631 1266 
z
" transform="scale(0.015625)"/>
     </defs>
     <use xlink:href="#ArialMT-51"/>
    </g>
   </g>
   <g id="text_2">
    <!-- K -->
    <g style="fill: #ffffff" transform="translate(356.054955 59.702188) scale(0.12 -0.12)">
     <defs>
      <path id="ArialMT-4b" d="M 469 0 
L 469 4581 
L 1075 4581 
L 1075 2309 
L 3350 4581 
L 4172 4581 
L 2250 2725 
L 4256 0 
L 3456 0 
L 1825 2319 
L 1075 1588 
L 1075 0 
L 469 0 
z
" transform="scale(0.015625)"/>
     </defs>
     <use xlink:href="#ArialMT-4b"/>
    </g>
   </g>
   <g id="text_3">
    <!-- V -->
    <g style="fill: #ffffff" transform="translate(532.483527 59.702188) scale(0.12 -0.12)">
     <defs>
      <path id="ArialMT-56" d="M 1803 0 
L 28 4581 
L 684 4581 
L 1875 1253 
Q 2019 853 2116 503 
Q 2222 878 2363 1253 
L 3600 4581 
L 4219 4581 
L 2425 0 
L 1803 0 
z
" transform="scale(0.015625)"/>
     </defs>
     <use xlink:href="#ArialMT-56"/>
    </g>
   </g>
   <g id="text_4">
    <!-- Attention -->
    <g style="fill: #ffffff" transform="translate(132.554732 206.868125) scale(0.08 -0.08)">
     <defs>
      <path id="ArialMT-41" d="M -9 0 
L 1750 4581 
L 2403 4581 
L 4278 0 
L 3588 0 
L 3053 1388 
L 1138 1388 
L 634 0 
L -9 0 
z
M 1313 1881 
L 2866 1881 
L 2388 3150 
Q 2169 3728 2063 4100 
Q 1975 3659 1816 3225 
L 1313 1881 
z
" transform="scale(0.015625)"/>
      <path id="ArialMT-74" d="M 1650 503 
L 1731 6 
Q 1494 -44 1306 -44 
Q 1000 -44 831 53 
Q 663 150 594 308 
Q 525 466 525 972 
L 525 2881 
L 113 2881 
L 113 3319 
L 525 3319 
L 525 4141 
L 1084 4478 
L 1084 3319 
L 1650 3319 
L 1650 2881 
L 1084 2881 
L 1084 941 
Q 1084 700 1114 631 
Q 1144 563 1211 522 
Q 1278 481 1403 481 
Q 1497 481 1650 503 
z
" transform="scale(0.015625)"/>
      <path id="ArialMT-65" d="M 2694 1069 
L 3275 997 
Q 3138 488 2766 206 
Q 2394 -75 1816 -75 
Q 1088 -75 661 373 
Q 234 822 234 1631 
Q 234 2469 665 2931 
Q 1097 3394 1784 3394 
Q 2450 3394 2872 2941 
Q 3294 2488 3294 1666 
Q 3294 1616 3291 1516 
L 816 1516 
Q 847 969 1125 678 
Q 1403 388 1819 388 
Q 2128 388 2347 550 
Q 2566 713 2694 1069 
z
M 847 1978 
L 2700 1978 
Q 2663 2397 2488 2606 
Q 2219 2931 1791 2931 
Q 1403 2931 1139 2672 
Q 875 2413 847 1978 
z
" transform="scale(0.015625)"/>
      <path id="ArialMT-6e" d="M 422 0 
L 422 3319 
L 928 3319 
L 928 2847 
Q 1294 3394 1984 3394 
Q 2284 3394 2536 3286 
Q 2788 3178 2913 3003 
Q 3038 2828 3088 2588 
Q 3119 2431 3119 2041 
L 3119 0 
L 2556 0 
L 2556 2019 
Q 2556 2363 2490 2533 
Q 2425 2703 2258 2804 
Q 2091 2906 1866 2906 
Q 1506 2906 1245 2678 
Q 984 2450 984 1813 
L 984 0 
L 422 0 
z
" transform="scale(0.015625)"/>
      <path id="ArialMT-69" d="M 425 3934 
L 425 4581 
L 988 4581 
L 988 3934 
L 425 3934 
z
M 425 0 
L 425 3319 
L 988 3319 
L 988 0 
L 425 0 
z
" transform="scale(0.015625)"/>
      <path id="ArialMT-6f" d="M 213 1659 
Q 213 2581 725 3025 
Q 1153 3394 1769 3394 
Q 2453 3394 2887 2945 
Q 3322 2497 3322 1706 
Q 3322 1066 3130 698 
Q 2938 331 2570 128 
Q 2203 -75 1769 -75 
Q 1072 -75 642 372 
Q 213 819 213 1659 
z
M 791 1659 
Q 791 1022 1069 705 
Q 1347 388 1769 388 
Q 2188 388 2466 706 
Q 2744 1025 2744 1678 
Q 2744 2294 2464 2611 
Q 2184 2928 1769 2928 
Q 1347 2928 1069 2612 
Q 791 2297 791 1659 
z
" transform="scale(0.015625)"/>
     </defs>
     <use xlink:href="#ArialMT-41"/>
     <use xlink:href="#ArialMT-74" x="66.699219"/>
     <use xlink:href="#ArialMT-74" x="94.482422"/>
     <use xlink:href="#ArialMT-65" x="122.265625"/>
     <use xlink:href="#ArialMT-6e" x="177.880859"/>
     <use xlink:href="#ArialMT-74" x="233.496094"/>
     <use xlink:href="#ArialMT-69" x="261.279297"/>
     <use xlink:href="#ArialMT-6f" x="283.496094"/>
     <use xlink:href="#ArialMT-6e" x="339.111328"/>
    </g>
   </g>
   <g id="text_5">
    <!-- Attention -->
    <g style="fill: #ffffff" transform="translate(344.269018 206.868125) scale(0.08 -0.08)">
     <use xlink:href="#ArialMT-41"/>
     <use xlink:href="#ArialMT-74" x="66.699219"/>
     <use xlink:href="#ArialMT-74" x="94.482422"/>
     <use xlink:href="#ArialMT-65" x="122.265625"/>
     <use xlink:href="#ArialMT-6e" x="177.880859"/>
     <use xlink:href="#ArialMT-74" x="233.496094"/>
     <use xlink:href="#ArialMT-69" x="261.279297"/>
     <use xlink:href="#ArialMT-6f" x="283.496094"/>
     <use xlink:href="#ArialMT-6e" x="339.111328"/>
    </g>
   </g>
   <g id="text_6">
    <!-- Attention -->
    <g style="fill: #ffffff" transform="translate(555.983304 206.868125) scale(0.08 -0.08)">
     <use xlink:href="#ArialMT-41"/>
     <use xlink:href="#ArialMT-74" x="66.699219"/>
     <use xlink:href="#ArialMT-74" x="94.482422"/>
     <use xlink:href="#ArialMT-65" x="122.265625"/>
     <use xlink:href="#ArialMT-6e" x="177.880859"/>
     <use xlink:href="#ArialMT-74" x="233.496094"/>
     <use xlink:href="#ArialMT-69" x="261.279297"/>
     <use xlink:href="#ArialMT-6f" x="283.496094"/>
     <use xlink:href="#ArialMT-6e" x="339.111328"/>
    </g>
   </g>
   <g id="text_7">
    <!-- ... -->
    <g style="fill: #7a7a7a; opacity: 0.5" transform="translate(352.556205 209.453281) scale(0.18 -0.18)">
     <defs>
      <path id="ArialMT-2e" d="M 581 0 
L 581 641 
L 1222 641 
L 1222 0 
L 581 0 
z
" transform="scale(0.015625)"/>
     </defs>
     <use xlink:href="#ArialMT-2e"/>
     <use xlink:href="#ArialMT-2e" x="27.783203"/>
     <use xlink:href="#ArialMT-2e" x="55.566406"/>
    </g>
   </g>
   <g id="text_8">
    <!-- Concat -->
    <g style="fill: #4a4a4a" transform="translate(344.215737 341.470871) scale(0.1 -0.1)">
     <defs>
      <path id="ArialMT-43" d="M 3763 1606 
L 4369 1453 
Q 4178 706 3683 314 
Q 3188 -78 2472 -78 
Q 1731 -78 1267 223 
Q 803 525 561 1097 
Q 319 1669 319 2325 
Q 319 3041 592 3573 
Q 866 4106 1370 4382 
Q 1875 4659 2481 4659 
Q 3169 4659 3637 4309 
Q 4106 3959 4291 3325 
L 3694 3184 
Q 3534 3684 3231 3912 
Q 2928 4141 2469 4141 
Q 1941 4141 1586 3887 
Q 1231 3634 1087 3207 
Q 944 2781 944 2328 
Q 944 1744 1114 1308 
Q 1284 872 1643 656 
Q 2003 441 2422 441 
Q 2931 441 3284 734 
Q 3638 1028 3763 1606 
z
" transform="scale(0.015625)"/>
      <path id="ArialMT-63" d="M 2588 1216 
L 3141 1144 
Q 3050 572 2676 248 
Q 2303 -75 1759 -75 
Q 1078 -75 664 370 
Q 250 816 250 1647 
Q 250 2184 428 2587 
Q 606 2991 970 3192 
Q 1334 3394 1763 3394 
Q 2303 3394 2647 3120 
Q 2991 2847 3088 2344 
L 2541 2259 
Q 2463 2594 2264 2762 
Q 2066 2931 1784 2931 
Q 1359 2931 1093 2626 
Q 828 2322 828 1663 
Q 828 994 1084 691 
Q 1341 388 1753 388 
Q 2084 388 2306 591 
Q 2528 794 2588 1216 
z
" transform="scale(0.015625)"/>
      <path id="ArialMT-61" d="M 2588 409 
Q 2275 144 1986 34 
Q 1697 -75 1366 -75 
Q 819 -75 525 192 
Q 231 459 231 875 
Q 231 1119 342 1320 
Q 453 1522 633 1644 
Q 813 1766 1038 1828 
Q 1203 1872 1538 1913 
Q 2219 1994 2541 2106 
Q 2544 2222 2544 2253 
Q 2544 2597 2384 2738 
Q 2169 2928 1744 2928 
Q 1347 2928 1158 2789 
Q 969 2650 878 2297 
L 328 2372 
Q 403 2725 575 2942 
Q 747 3159 1072 3276 
Q 1397 3394 1825 3394 
Q 2250 3394 2515 3294 
Q 2781 3194 2906 3042 
Q 3031 2891 3081 2659 
Q 3109 2516 3109 2141 
L 3109 1391 
Q 3109 606 3145 398 
Q 3181 191 3288 0 
L 2700 0 
Q 2613 175 2588 409 
z
M 2541 1666 
Q 2234 1541 1622 1453 
Q 1275 1403 1131 1340 
Q 988 1278 909 1158 
Q 831 1038 831 891 
Q 831 666 1001 516 
Q 1172 366 1500 366 
Q 1825 366 2078 508 
Q 2331 650 2450 897 
Q 2541 1088 2541 1459 
L 2541 1666 
z
" transform="scale(0.015625)"/>
     </defs>
     <use xlink:href="#ArialMT-43"/>
     <use xlink:href="#ArialMT-6f" x="72.216797"/>
     <use xlink:href="#ArialMT-6e" x="127.832031"/>
     <use xlink:href="#ArialMT-63" x="183.447266"/>
     <use xlink:href="#ArialMT-61" x="233.447266"/>
     <use xlink:href="#ArialMT-74" x="289.0625"/>
    </g>
   </g>
   <g id="text_9">
    <!-- Linear (Wo) -->
    <g style="fill: #ffffff" transform="translate(336.631127 404.72875) scale(0.09 -0.09)">
     <defs>
      <path id="ArialMT-4c" d="M 469 0 
L 469 4581 
L 1075 4581 
L 1075 541 
L 3331 541 
L 3331 0 
L 469 0 
z
" transform="scale(0.015625)"/>
      <path id="ArialMT-72" d="M 416 0 
L 416 3319 
L 922 3319 
L 922 2816 
Q 1116 3169 1280 3281 
Q 1444 3394 1641 3394 
Q 1925 3394 2219 3213 
L 2025 2691 
Q 1819 2813 1613 2813 
Q 1428 2813 1281 2702 
Q 1134 2591 1072 2394 
Q 978 2094 978 1738 
L 978 0 
L 416 0 
z
" transform="scale(0.015625)"/>
      <path id="ArialMT-20" transform="scale(0.015625)"/>
      <path id="ArialMT-28" d="M 1497 -1347 
Q 1031 -759 709 28 
Q 388 816 388 1659 
Q 388 2403 628 3084 
Q 909 3875 1497 4659 
L 1900 4659 
Q 1522 4009 1400 3731 
Q 1209 3300 1100 2831 
Q 966 2247 966 1656 
Q 966 153 1900 -1347 
L 1497 -1347 
z
" transform="scale(0.015625)"/>
      <path id="ArialMT-57" d="M 1294 0 
L 78 4581 
L 700 4581 
L 1397 1578 
Q 1509 1106 1591 641 
Q 1766 1375 1797 1488 
L 2669 4581 
L 3400 4581 
L 4056 2263 
Q 4303 1400 4413 641 
Q 4500 1075 4641 1638 
L 5359 4581 
L 5969 4581 
L 4713 0 
L 4128 0 
L 3163 3491 
Q 3041 3928 3019 4028 
Q 2947 3713 2884 3491 
L 1913 0 
L 1294 0 
z
" transform="scale(0.015625)"/>
      <path id="ArialMT-29" d="M 791 -1347 
L 388 -1347 
Q 1322 153 1322 1656 
Q 1322 2244 1188 2822 
Q 1081 3291 891 3722 
Q 769 4003 388 4659 
L 791 4659 
Q 1378 3875 1659 3084 
Q 1900 2403 1900 1659 
Q 1900 816 1576 28 
Q 1253 -759 791 -1347 
z
" transform="scale(0.015625)"/>
     </defs>
     <use xlink:href="#ArialMT-4c"/>
     <use xlink:href="#ArialMT-69" x="55.615234"/>
     <use xlink:href="#ArialMT-6e" x="77.832031"/>
     <use xlink:href="#ArialMT-65" x="133.447266"/>
     <use xlink:href="#ArialMT-61" x="189.0625"/>
     <use xlink:href="#ArialMT-72" x="244.677734"/>
     <use xlink:href="#ArialMT-20" x="277.978516"/>
     <use xlink:href="#ArialMT-28" x="305.761719"/>
     <use xlink:href="#ArialMT-57" x="339.0625"/>
     <use xlink:href="#ArialMT-6f" x="431.697266"/>
     <use xlink:href="#ArialMT-29" x="487.3125"/>
    </g>
   </g>
   <g id="text_10">
    <!-- Output -->
    <g style="fill: #4a4a4a" transform="translate(345.048549 468.563504) scale(0.1 -0.1)">
     <defs>
      <path id="ArialMT-4f" d="M 309 2231 
Q 309 3372 921 4017 
Q 1534 4663 2503 4663 
Q 3138 4663 3647 4359 
Q 4156 4056 4423 3514 
Q 4691 2972 4691 2284 
Q 4691 1588 4409 1038 
Q 4128 488 3612 205 
Q 3097 -78 2500 -78 
Q 1853 -78 1343 234 
Q 834 547 571 1087 
Q 309 1628 309 2231 
z
M 934 2222 
Q 934 1394 1379 917 
Q 1825 441 2497 441 
Q 3181 441 3623 922 
Q 4066 1403 4066 2288 
Q 4066 2847 3877 3264 
Q 3688 3681 3323 3911 
Q 2959 4141 2506 4141 
Q 1863 4141 1398 3698 
Q 934 3256 934 2222 
z
" transform="scale(0.015625)"/>
      <path id="ArialMT-75" d="M 2597 0 
L 2597 488 
Q 2209 -75 1544 -75 
Q 1250 -75 995 37 
Q 741 150 617 320 
Q 494 491 444 738 
Q 409 903 409 1263 
L 409 3319 
L 972 3319 
L 972 1478 
Q 972 1038 1006 884 
Q 1059 663 1231 536 
Q 1403 409 1656 409 
Q 1909 409 2131 539 
Q 2353 669 2445 892 
Q 2538 1116 2538 1541 
L 2538 3319 
L 3100 3319 
L 3100 0 
L 2597 0 
z
" transform="scale(0.015625)"/>
      <path id="ArialMT-70" d="M 422 -1272 
L 422 3319 
L 934 3319 
L 934 2888 
Q 1116 3141 1344 3267 
Q 1572 3394 1897 3394 
Q 2322 3394 2647 3175 
Q 2972 2956 3137 2557 
Q 3303 2159 3303 1684 
Q 3303 1175 3120 767 
Q 2938 359 2589 142 
Q 2241 -75 1856 -75 
Q 1575 -75 1351 44 
Q 1128 163 984 344 
L 984 -1272 
L 422 -1272 
z
M 931 1641 
Q 931 1000 1190 694 
Q 1450 388 1819 388 
Q 2194 388 2461 705 
Q 2728 1022 2728 1688 
Q 2728 2322 2467 2637 
Q 2206 2953 1844 2953 
Q 1484 2953 1207 2617 
Q 931 2281 931 1641 
z
" transform="scale(0.015625)"/>
     </defs>
     <use xlink:href="#ArialMT-4f"/>
     <use xlink:href="#ArialMT-75" x="77.783203"/>
     <use xlink:href="#ArialMT-74" x="133.398438"/>
     <use xlink:href="#ArialMT-70" x="161.181641"/>
     <use xlink:href="#ArialMT-75" x="216.796875"/>
     <use xlink:href="#ArialMT-74" x="272.412109"/>
    </g>
   </g>
   <g id="text_11">
    <!-- Head 1 -->
    <g style="fill: #6c9bc2" transform="translate(133.587076 270.647254) scale(0.09 -0.09)">
     <defs>
      <path id="Arial-BoldMT-48" d="M 469 0 
L 469 4581 
L 1394 4581 
L 1394 2778 
L 3206 2778 
L 3206 4581 
L 4131 4581 
L 4131 0 
L 3206 0 
L 3206 2003 
L 1394 2003 
L 1394 0 
L 469 0 
z
" transform="scale(0.015625)"/>
      <path id="Arial-BoldMT-65" d="M 2381 1056 
L 3256 909 
Q 3088 428 2723 176 
Q 2359 -75 1813 -75 
Q 947 -75 531 491 
Q 203 944 203 1634 
Q 203 2459 634 2926 
Q 1066 3394 1725 3394 
Q 2466 3394 2894 2905 
Q 3322 2416 3303 1406 
L 1103 1406 
Q 1113 1016 1316 798 
Q 1519 581 1822 581 
Q 2028 581 2168 693 
Q 2309 806 2381 1056 
z
M 2431 1944 
Q 2422 2325 2234 2523 
Q 2047 2722 1778 2722 
Q 1491 2722 1303 2513 
Q 1116 2303 1119 1944 
L 2431 1944 
z
" transform="scale(0.015625)"/>
      <path id="Arial-BoldMT-61" d="M 1116 2306 
L 319 2450 
Q 453 2931 781 3162 
Q 1109 3394 1756 3394 
Q 2344 3394 2631 3255 
Q 2919 3116 3036 2902 
Q 3153 2688 3153 2116 
L 3144 1091 
Q 3144 653 3186 445 
Q 3228 238 3344 0 
L 2475 0 
Q 2441 88 2391 259 
Q 2369 338 2359 363 
Q 2134 144 1878 34 
Q 1622 -75 1331 -75 
Q 819 -75 523 203 
Q 228 481 228 906 
Q 228 1188 362 1408 
Q 497 1628 739 1745 
Q 981 1863 1438 1950 
Q 2053 2066 2291 2166 
L 2291 2253 
Q 2291 2506 2166 2614 
Q 2041 2722 1694 2722 
Q 1459 2722 1328 2630 
Q 1197 2538 1116 2306 
z
M 2291 1594 
Q 2122 1538 1756 1459 
Q 1391 1381 1278 1306 
Q 1106 1184 1106 997 
Q 1106 813 1243 678 
Q 1381 544 1594 544 
Q 1831 544 2047 700 
Q 2206 819 2256 991 
Q 2291 1103 2291 1419 
L 2291 1594 
z
" transform="scale(0.015625)"/>
      <path id="Arial-BoldMT-64" d="M 3503 0 
L 2688 0 
L 2688 488 
Q 2484 203 2207 64 
Q 1931 -75 1650 -75 
Q 1078 -75 670 386 
Q 263 847 263 1672 
Q 263 2516 659 2955 
Q 1056 3394 1663 3394 
Q 2219 3394 2625 2931 
L 2625 4581 
L 3503 4581 
L 3503 0 
z
M 1159 1731 
Q 1159 1200 1306 963 
Q 1519 619 1900 619 
Q 2203 619 2415 876 
Q 2628 1134 2628 1647 
Q 2628 2219 2422 2470 
Q 2216 2722 1894 2722 
Q 1581 2722 1370 2473 
Q 1159 2225 1159 1731 
z
" transform="scale(0.015625)"/>
      <path id="Arial-BoldMT-20" transform="scale(0.015625)"/>
      <path id="Arial-BoldMT-31" d="M 2519 0 
L 1641 0 
L 1641 3309 
Q 1159 2859 506 2644 
L 506 3441 
Q 850 3553 1253 3867 
Q 1656 4181 1806 4600 
L 2519 4600 
L 2519 0 
z
" transform="scale(0.015625)"/>
     </defs>
     <use xlink:href="#Arial-BoldMT-48"/>
     <use xlink:href="#Arial-BoldMT-65" x="72.216797"/>
     <use xlink:href="#Arial-BoldMT-61" x="127.832031"/>
     <use xlink:href="#Arial-BoldMT-64" x="183.447266"/>
     <use xlink:href="#Arial-BoldMT-20" x="244.53125"/>
     <use xlink:href="#Arial-BoldMT-31" x="272.314453"/>
    </g>
   </g>
   <g id="text_12">
    <!-- Head 2 -->
    <g style="fill: #7fb685" transform="translate(345.301362 270.647254) scale(0.09 -0.09)">
     <defs>
      <path id="Arial-BoldMT-32" d="M 3238 816 
L 3238 0 
L 159 0 
Q 209 463 459 877 
Q 709 1291 1447 1975 
Q 2041 2528 2175 2725 
Q 2356 2997 2356 3263 
Q 2356 3556 2198 3714 
Q 2041 3872 1763 3872 
Q 1488 3872 1325 3706 
Q 1163 3541 1138 3156 
L 263 3244 
Q 341 3969 753 4284 
Q 1166 4600 1784 4600 
Q 2463 4600 2850 4234 
Q 3238 3869 3238 3325 
Q 3238 3016 3127 2736 
Q 3016 2456 2775 2150 
Q 2616 1947 2200 1565 
Q 1784 1184 1673 1059 
Q 1563 934 1494 816 
L 3238 816 
z
" transform="scale(0.015625)"/>
     </defs>
     <use xlink:href="#Arial-BoldMT-48"/>
     <use xlink:href="#Arial-BoldMT-65" x="72.216797"/>
     <use xlink:href="#Arial-BoldMT-61" x="127.832031"/>
     <use xlink:href="#Arial-BoldMT-64" x="183.447266"/>
     <use xlink:href="#Arial-BoldMT-20" x="244.53125"/>
     <use xlink:href="#Arial-BoldMT-32" x="272.314453"/>
    </g>
   </g>
   <g id="text_13">
    <!-- Head h -->
    <g style="fill: #e8a87c" transform="translate(556.769554 270.647254) scale(0.09 -0.09)">
     <defs>
      <path id="Arial-BoldMT-68" d="M 1334 4581 
L 1334 2897 
Q 1759 3394 2350 3394 
Q 2653 3394 2897 3281 
Q 3141 3169 3264 2994 
Q 3388 2819 3433 2606 
Q 3478 2394 3478 1947 
L 3478 0 
L 2600 0 
L 2600 1753 
Q 2600 2275 2550 2415 
Q 2500 2556 2373 2639 
Q 2247 2722 2056 2722 
Q 1838 2722 1666 2615 
Q 1494 2509 1414 2295 
Q 1334 2081 1334 1663 
L 1334 0 
L 456 0 
L 456 4581 
L 1334 4581 
z
" transform="scale(0.015625)"/>
     </defs>
     <use xlink:href="#Arial-BoldMT-48"/>
     <use xlink:href="#Arial-BoldMT-65" x="72.216797"/>
     <use xlink:href="#Arial-BoldMT-61" x="127.832031"/>
     <use xlink:href="#Arial-BoldMT-64" x="183.447266"/>
     <use xlink:href="#Arial-BoldMT-20" x="244.53125"/>
     <use xlink:href="#Arial-BoldMT-68" x="272.314453"/>
    </g>
   </g>
  </g>
 </g>
 <defs>
  <clipPath id="p885430f2e7">
   <rect x="7.2" y="7.2" width="705.714286" height="494"/>
  </clipPath>
 </defs>
</svg>
