<?xml version="1.0" encoding="utf-8" standalone="no"?>
<!DOCTYPE svg PUBLIC "-//W3C//DTD SVG 1.1//EN"
  "http://www.w3.org/Graphics/SVG/1.1/DTD/svg11.dtd">
<svg xmlns:xlink="http://www.w3.org/1999/xlink" width="794.177778pt" height="652.4pt" viewBox="0 0 794.177778 652.4" xmlns="http://www.w3.org/2000/svg" version="1.1">
 <metadata>
  <rdf:RDF xmlns:dc="http://purl.org/dc/elements/1.1/" xmlns:cc="http://creativecommons.org/ns#" xmlns:rdf="http://www.w3.org/1999/02/22-rdf-syntax-ns#">
   <cc:Work>
    <dc:type rdf:resource="http://purl.org/dc/dcmitype/StillImage"/>
    <dc:date>2026-01-23T05:25:09.117687</dc:date>
    <dc:format>image/svg+xml</dc:format>
    <dc:creator>
     <cc:Agent>
      <dc:title>Matplotlib v3.8.3, https://matplotlib.org/</dc:title>
     </cc:Agent>
    </dc:creator>
   </cc:Work>
  </rdf:RDF>
 </metadata>
 <defs>
  <style type="text/css">*{stroke-linejoin: round; stroke-linecap: butt}</style>
 </defs>
 <g id="figure_1">
  <g id="patch_1">
   <path d="M 0 652.4 
L 794.177778 652.4 
L 794.177778 0 
L 0 0 
z
" style="fill: #ffffff"/>
  </g>
  <g id="axes_1">
   <g id="patch_2">
    <path d="M 132.673333 491.371111 
L 307.06 491.371111 
Q 321.237778 491.371111 321.237778 477.193333 
L 321.237778 231.917778 
Q 321.237778 217.74 307.06 217.74 
L 132.673333 217.74 
Q 118.495556 217.74 118.495556 231.917778 
L 118.495556 477.193333 
Q 118.495556 491.371111 132.673333 491.371111 
z
" clip-path="url(#pb0d4fe44b7)" style="fill: #6c9bc2; opacity: 0.3; stroke-dasharray: 4.44,1.92; stroke-dashoffset: 0; stroke: #7a7a7a; stroke-width: 1.2; stroke-linejoin: miter"/>
   </g>
   <g id="patch_3">
    <path d="M 487.117778 491.371111 
L 661.504444 491.371111 
Q 675.682222 491.371111 675.682222 477.193333 
L 675.682222 132.673333 
Q 675.682222 118.495556 661.504444 118.495556 
L 487.117778 118.495556 
Q 472.94 118.495556 472.94 132.673333 
L 472.94 477.193333 
Q 472.94 491.371111 487.117778 491.371111 
z
" clip-path="url(#pb0d4fe44b7)" style="fill: #e8a87c; opacity: 0.3; stroke-dasharray: 4.44,1.92; stroke-dashoffset: 0; stroke: #7a7a7a; stroke-width: 1.2; stroke-linejoin: miter"/>
   </g>
   <g id="patch_4">
    <path d="M 219.866667 570.766667 
Q 219.866667 554.816667 219.866667 540.208307 
" style="fill: none; stroke: #7a7a7a; stroke-width: 1.2; stroke-linecap: round"/>
    <path d="M 217.866667 544.208307 
L 219.866667 540.208307 
L 221.866667 544.208307 
" style="fill: none; stroke: #7a7a7a; stroke-width: 1.2; stroke-linecap: round"/>
   </g>
   <g id="patch_5">
    <path d="M 219.866667 526.106667 
Q 219.866667 501.65 219.866667 478.534974 
" style="fill: none; stroke: #7a7a7a; stroke-width: 1.2; stroke-linecap: round"/>
    <path d="M 217.866667 482.534974 
L 219.866667 478.534974 
L 221.866667 482.534974 
" style="fill: none; stroke: #7a7a7a; stroke-width: 1.2; stroke-linecap: round"/>
   </g>
   <g id="patch_6">
    <path d="M 219.866667 464.433333 
Q 219.866667 454.863333 219.866667 446.634974 
" style="fill: none; stroke: #7a7a7a; stroke-width: 1.2; stroke-linecap: round"/>
    <path d="M 217.866667 450.634974 
L 219.866667 446.634974 
L 221.866667 450.634974 
" style="fill: none; stroke: #7a7a7a; stroke-width: 1.2; stroke-linecap: round"/>
   </g>
   <g id="patch_7">
    <path d="M 219.866667 432.533333 
Q 219.866667 422.963333 219.866667 414.734974 
" style="fill: none; stroke: #7a7a7a; stroke-width: 1.2; stroke-linecap: round"/>
    <path d="M 217.866667 418.734974 
L 219.866667 414.734974 
L 221.866667 418.734974 
" style="fill: none; stroke: #7a7a7a; stroke-width: 1.2; stroke-linecap: round"/>
   </g>
   <g id="patch_8">
    <path d="M 219.866667 400.633333 
Q 219.866667 391.063333 219.866667 382.834974 
" style="fill: none; stroke: #7a7a7a; stroke-width: 1.2; stroke-linecap: round"/>
    <path d="M 217.866667 386.834974 
L 219.866667 382.834974 
L 221.866667 386.834974 
" style="fill: none; stroke: #7a7a7a; stroke-width: 1.2; stroke-linecap: round"/>
   </g>
   <g id="patch_9">
    <path d="M 574.311111 570.766667 
Q 574.311111 554.816667 574.311111 540.208307 
" style="fill: none; stroke: #7a7a7a; stroke-width: 1.2; stroke-linecap: round"/>
    <path d="M 572.311111 544.208307 
L 574.311111 540.208307 
L 576.311111 544.208307 
" style="fill: none; stroke: #7a7a7a; stroke-width: 1.2; stroke-linecap: round"/>
   </g>
   <g id="patch_10">
    <path d="M 574.311111 526.106667 
Q 574.311111 501.65 574.311111 478.534974 
" style="fill: none; stroke: #7a7a7a; stroke-width: 1.2; stroke-linecap: round"/>
    <path d="M 572.311111 482.534974 
L 574.311111 478.534974 
L 576.311111 482.534974 
" style="fill: none; stroke: #7a7a7a; stroke-width: 1.2; stroke-linecap: round"/>
   </g>
   <g id="patch_11">
    <path d="M 574.311111 464.433333 
Q 574.311111 454.863333 574.311111 446.634974 
" style="fill: none; stroke: #7a7a7a; stroke-width: 1.2; stroke-linecap: round"/>
    <path d="M 572.311111 450.634974 
L 574.311111 446.634974 
L 576.311111 450.634974 
" style="fill: none; stroke: #7a7a7a; stroke-width: 1.2; stroke-linecap: round"/>
   </g>
   <g id="patch_12">
    <path d="M 574.311111 432.533333 
Q 574.311111 422.963333 574.311111 414.734974 
" style="fill: none; stroke: #7a7a7a; stroke-width: 1.2; stroke-linecap: round"/>
    <path d="M 572.311111 418.734974 
L 574.311111 414.734974 
L 576.311111 418.734974 
" style="fill: none; stroke: #7a7a7a; stroke-width: 1.2; stroke-linecap: round"/>
   </g>
   <g id="patch_13">
    <path d="M 574.311111 400.633333 
Q 574.311111 391.063333 574.311111 382.834974 
" style="fill: none; stroke: #7a7a7a; stroke-width: 1.2; stroke-linecap: round"/>
    <path d="M 572.311111 386.834974 
L 574.311111 382.834974 
L 576.311111 386.834974 
" style="fill: none; stroke: #7a7a7a; stroke-width: 1.2; stroke-linecap: round"/>
   </g>
   <g id="patch_14">
    <path d="M 574.311111 368.733333 
Q 574.311111 359.163333 574.311111 350.934974 
" style="fill: none; stroke: #7a7a7a; stroke-width: 1.2; stroke-linecap: round"/>
    <path d="M 572.311111 354.934974 
L 574.311111 350.934974 
L 576.311111 354.934974 
" style="fill: none; stroke: #7a7a7a; stroke-width: 1.2; stroke-linecap: round"/>
   </g>
   <g id="patch_15">
    <path d="M 574.311111 336.833333 
Q 574.311111 327.263333 574.311111 319.034974 
" style="fill: none; stroke: #7a7a7a; stroke-width: 1.2; stroke-linecap: round"/>
    <path d="M 572.311111 323.034974 
L 574.311111 319.034974 
L 576.311111 323.034974 
" style="fill: none; stroke: #7a7a7a; stroke-width: 1.2; stroke-linecap: round"/>
   </g>
   <g id="patch_16">
    <path d="M 574.311111 304.933333 
Q 574.311111 295.363333 574.311111 287.134974 
" style="fill: none; stroke: #7a7a7a; stroke-width: 1.2; stroke-linecap: round"/>
    <path d="M 572.311111 291.134974 
L 574.311111 287.134974 
L 576.311111 291.134974 
" style="fill: none; stroke: #7a7a7a; stroke-width: 1.2; stroke-linecap: round"/>
   </g>
   <g id="patch_17">
    <path d="M 304.933333 343.922222 
Q 402.618222 334.706667 487.467698 379.839367 
" style="fill: none; stroke: #6c9bc2; stroke-width: 1.8; stroke-linecap: round"/>
    <path d="M 484.875434 376.19517 
L 487.467698 379.839367 
L 482.996983 379.726659 
" style="fill: none; stroke: #6c9bc2; stroke-width: 1.8; stroke-linecap: round"/>
   </g>
   <g id="patch_18">
    <path d="M 574.311111 248.222222 
Q 574.311111 235.816667 574.311111 224.752752 
" style="fill: none; stroke: #7a7a7a; stroke-width: 1.2; stroke-linecap: round"/>
    <path d="M 572.311111 228.752752 
L 574.311111 224.752752 
L 576.311111 228.752752 
" style="fill: none; stroke: #7a7a7a; stroke-width: 1.2; stroke-linecap: round"/>
   </g>
   <g id="patch_19">
    <path d="M 574.311111 187.966667 
Q 574.311111 180.877778 574.311111 175.13053 
" style="fill: none; stroke: #7a7a7a; stroke-width: 1.2; stroke-linecap: round"/>
    <path d="M 572.311111 179.13053 
L 574.311111 175.13053 
L 576.311111 179.13053 
" style="fill: none; stroke: #7a7a7a; stroke-width: 1.2; stroke-linecap: round"/>
   </g>
   <g id="patch_20">
    <path d="M 574.311111 138.344444 
Q 574.311111 129.483333 574.311111 121.963863 
" style="fill: none; stroke: #7a7a7a; stroke-width: 1.2; stroke-linecap: round"/>
    <path d="M 572.311111 125.963863 
L 574.311111 121.963863 
L 576.311111 125.963863 
" style="fill: none; stroke: #7a7a7a; stroke-width: 1.2; stroke-linecap: round"/>
   </g>
   <g id="patch_21">
    <path d="M 151.104444 607.628889 
L 288.628889 607.628889 
Q 299.262222 607.628889 299.262222 596.995556 
L 299.262222 579.982222 
Q 299.262222 569.348889 288.628889 569.348889 
L 151.104444 569.348889 
Q 140.471111 569.348889 140.471111 579.982222 
L 140.471111 596.995556 
Q 140.471111 607.628889 151.104444 607.628889 
z
" clip-path="url(#pb0d4fe44b7)" style="fill: #a8b5c4"/>
   </g>
   <g id="patch_22">
    <path d="M 151.104444 552.69 
L 288.628889 552.69 
Q 299.262222 552.69 299.262222 542.056667 
L 299.262222 535.676667 
Q 299.262222 525.043333 288.628889 525.043333 
L 151.104444 525.043333 
Q 140.471111 525.043333 140.471111 535.676667 
L 140.471111 542.056667 
Q 140.471111 552.69 151.104444 552.69 
z
" clip-path="url(#pb0d4fe44b7)" style="fill: #a8b5c4; opacity: 0.6"/>
   </g>
   <g id="patch_23">
    <path d="M 151.104444 480.028889 
L 288.628889 480.028889 
Q 299.262222 480.028889 299.262222 469.395556 
L 299.262222 452.382222 
Q 299.262222 441.748889 288.628889 441.748889 
L 151.104444 441.748889 
Q 140.471111 441.748889 140.471111 452.382222 
L 140.471111 469.395556 
Q 140.471111 480.028889 151.104444 480.028889 
z
" clip-path="url(#pb0d4fe44b7)" style="fill: #7fb685"/>
   </g>
   <g id="patch_24">
    <path d="M 151.104444 425.09 
L 288.628889 425.09 
Q 299.262222 425.09 299.262222 414.456667 
L 299.262222 408.076667 
Q 299.262222 397.443333 288.628889 397.443333 
L 151.104444 397.443333 
Q 140.471111 397.443333 140.471111 408.076667 
L 140.471111 414.456667 
Q 140.471111 425.09 151.104444 425.09 
z
" clip-path="url(#pb0d4fe44b7)" style="fill: #d4d4e8"/>
   </g>
   <g id="patch_25">
    <path d="M 151.104444 395.671111 
L 288.628889 395.671111 
Q 299.262222 395.671111 299.262222 385.037778 
L 299.262222 368.024444 
Q 299.262222 357.391111 288.628889 357.391111 
L 151.104444 357.391111 
Q 140.471111 357.391111 140.471111 368.024444 
L 140.471111 385.037778 
Q 140.471111 395.671111 151.104444 395.671111 
z
" clip-path="url(#pb0d4fe44b7)" style="fill: #e8d07c"/>
   </g>
   <g id="patch_26">
    <path d="M 151.104444 340.732222 
L 288.628889 340.732222 
Q 299.262222 340.732222 299.262222 330.098889 
L 299.262222 323.718889 
Q 299.262222 313.085556 288.628889 313.085556 
L 151.104444 313.085556 
Q 140.471111 313.085556 140.471111 323.718889 
L 140.471111 330.098889 
Q 140.471111 340.732222 151.104444 340.732222 
z
" clip-path="url(#pb0d4fe44b7)" style="fill: #d4d4e8"/>
   </g>
   <g id="patch_27">
    <path d="M 505.548889 607.628889 
L 643.073333 607.628889 
Q 653.706667 607.628889 653.706667 596.995556 
L 653.706667 579.982222 
Q 653.706667 569.348889 643.073333 569.348889 
L 505.548889 569.348889 
Q 494.915556 569.348889 494.915556 579.982222 
L 494.915556 596.995556 
Q 494.915556 607.628889 505.548889 607.628889 
z
" clip-path="url(#pb0d4fe44b7)" style="fill: #a8b5c4"/>
   </g>
   <g id="patch_28">
    <path d="M 505.548889 552.69 
L 643.073333 552.69 
Q 653.706667 552.69 653.706667 542.056667 
L 653.706667 535.676667 
Q 653.706667 525.043333 643.073333 525.043333 
L 505.548889 525.043333 
Q 494.915556 525.043333 494.915556 535.676667 
L 494.915556 542.056667 
Q 494.915556 552.69 505.548889 552.69 
z
" clip-path="url(#pb0d4fe44b7)" style="fill: #a8b5c4; opacity: 0.6"/>
   </g>
   <g id="patch_29">
    <path d="M 505.548889 480.028889 
L 643.073333 480.028889 
Q 653.706667 480.028889 653.706667 469.395556 
L 653.706667 452.382222 
Q 653.706667 441.748889 643.073333 441.748889 
L 505.548889 441.748889 
Q 494.915556 441.748889 494.915556 452.382222 
L 494.915556 469.395556 
Q 494.915556 480.028889 505.548889 480.028889 
z
" clip-path="url(#pb0d4fe44b7)" style="fill: #7fb685"/>
   </g>
   <g id="patch_30">
    <path d="M 505.548889 425.09 
L 643.073333 425.09 
Q 653.706667 425.09 653.706667 414.456667 
L 653.706667 408.076667 
Q 653.706667 397.443333 643.073333 397.443333 
L 505.548889 397.443333 
Q 494.915556 397.443333 494.915556 408.076667 
L 494.915556 414.456667 
Q 494.915556 425.09 505.548889 425.09 
z
" clip-path="url(#pb0d4fe44b7)" style="fill: #d4d4e8"/>
   </g>
   <g id="patch_31">
    <path d="M 505.548889 395.671111 
L 643.073333 395.671111 
Q 653.706667 395.671111 653.706667 385.037778 
L 653.706667 368.024444 
Q 653.706667 357.391111 643.073333 357.391111 
L 505.548889 357.391111 
Q 494.915556 357.391111 494.915556 368.024444 
L 494.915556 385.037778 
Q 494.915556 395.671111 505.548889 395.671111 
z
" clip-path="url(#pb0d4fe44b7)" style="fill: #7fb685"/>
   </g>
   <g id="patch_32">
    <path d="M 505.548889 340.732222 
L 643.073333 340.732222 
Q 653.706667 340.732222 653.706667 330.098889 
L 653.706667 323.718889 
Q 653.706667 313.085556 643.073333 313.085556 
L 505.548889 313.085556 
Q 494.915556 313.085556 494.915556 323.718889 
L 494.915556 330.098889 
Q 494.915556 340.732222 505.548889 340.732222 
z
" clip-path="url(#pb0d4fe44b7)" style="fill: #d4d4e8"/>
   </g>
   <g id="patch_33">
    <path d="M 505.548889 311.313333 
L 643.073333 311.313333 
Q 653.706667 311.313333 653.706667 300.68 
L 653.706667 283.666667 
Q 653.706667 273.033333 643.073333 273.033333 
L 505.548889 273.033333 
Q 494.915556 273.033333 494.915556 283.666667 
L 494.915556 300.68 
Q 494.915556 311.313333 505.548889 311.313333 
z
" clip-path="url(#pb0d4fe44b7)" style="fill: #e8d07c"/>
   </g>
   <g id="patch_34">
    <path d="M 505.548889 256.374444 
L 643.073333 256.374444 
Q 653.706667 256.374444 653.706667 245.741111 
L 653.706667 239.361111 
Q 653.706667 228.727778 643.073333 228.727778 
L 505.548889 228.727778 
Q 494.915556 228.727778 494.915556 239.361111 
L 494.915556 245.741111 
Q 494.915556 256.374444 505.548889 256.374444 
z
" clip-path="url(#pb0d4fe44b7)" style="fill: #d4d4e8"/>
   </g>
   <g id="patch_35">
    <path d="M 505.548889 224.828889 
L 643.073333 224.828889 
Q 653.706667 224.828889 653.706667 214.195556 
L 653.706667 197.182222 
Q 653.706667 186.548889 643.073333 186.548889 
L 505.548889 186.548889 
Q 494.915556 186.548889 494.915556 197.182222 
L 494.915556 214.195556 
Q 494.915556 224.828889 505.548889 224.828889 
z
" clip-path="url(#pb0d4fe44b7)" style="fill: #9b8dc2"/>
   </g>
   <g id="patch_36">
    <path d="M 505.548889 175.206667 
L 643.073333 175.206667 
Q 653.706667 175.206667 653.706667 164.573333 
L 653.706667 147.56 
Q 653.706667 136.926667 643.073333 136.926667 
L 505.548889 136.926667 
Q 494.915556 136.926667 494.915556 147.56 
L 494.915556 164.573333 
Q 494.915556 175.206667 505.548889 175.206667 
z
" clip-path="url(#pb0d4fe44b7)" style="fill: #d4817a"/>
   </g>
   <g id="text_1">
    <!-- Input -->
    <g style="fill: #4a4a4a" transform="translate(210.971042 586.279389) scale(0.08 -0.08)">
     <defs>
      <path id="ArialMT-49" d="M 597 0 
L 597 4581 
L 1203 4581 
L 1203 0 
L 597 0 
z
" transform="scale(0.015625)"/>
      <path id="ArialMT-6e" d="M 422 0 
L 422 3319 
L 928 3319 
L 928 2847 
Q 1294 3394 1984 3394 
Q 2284 3394 2536 3286 
Q 2788 3178 2913 3003 
Q 3038 2828 3088 2588 
Q 3119 2431 3119 2041 
L 3119 0 
L 2556 0 
L 2556 2019 
Q 2556 2363 2490 2533 
Q 2425 2703 2258 2804 
Q 2091 2906 1866 2906 
Q 1506 2906 1245 2678 
Q 984 2450 984 1813 
L 984 0 
L 422 0 
z
" transform="scale(0.015625)"/>
      <path id="ArialMT-70" d="M 422 -1272 
L 422 3319 
L 934 3319 
L 934 2888 
Q 1116 3141 1344 3267 
Q 1572 3394 1897 3394 
Q 2322 3394 2647 3175 
Q 2972 2956 3137 2557 
Q 3303 2159 3303 1684 
Q 3303 1175 3120 767 
Q 2938 359 2589 142 
Q 2241 -75 1856 -75 
Q 1575 -75 1351 44 
Q 1128 163 984 344 
L 984 -1272 
L 422 -1272 
z
M 931 1641 
Q 931 1000 1190 694 
Q 1450 388 1819 388 
Q 2194 388 2461 705 
Q 2728 1022 2728 1688 
Q 2728 2322 2467 2637 
Q 2206 2953 1844 2953 
Q 1484 2953 1207 2617 
Q 931 2281 931 1641 
z
" transform="scale(0.015625)"/>
      <path id="ArialMT-75" d="M 2597 0 
L 2597 488 
Q 2209 -75 1544 -75 
Q 1250 -75 995 37 
Q 741 150 617 320 
Q 494 491 444 738 
Q 409 903 409 1263 
L 409 3319 
L 972 3319 
L 972 1478 
Q 972 1038 1006 884 
Q 1059 663 1231 536 
Q 1403 409 1656 409 
Q 1909 409 2131 539 
Q 2353 669 2445 892 
Q 2538 1116 2538 1541 
L 2538 3319 
L 3100 3319 
L 3100 0 
L 2597 0 
z
" transform="scale(0.015625)"/>
      <path id="ArialMT-74" d="M 1650 503 
L 1731 6 
Q 1494 -44 1306 -44 
Q 1000 -44 831 53 
Q 663 150 594 308 
Q 525 466 525 972 
L 525 2881 
L 113 2881 
L 113 3319 
L 525 3319 
L 525 4141 
L 1084 4478 
L 1084 3319 
L 1650 3319 
L 1650 2881 
L 1084 2881 
L 1084 941 
Q 1084 700 1114 631 
Q 1144 563 1211 522 
Q 1278 481 1403 481 
Q 1497 481 1650 503 
z
" transform="scale(0.015625)"/>
     </defs>
     <use xlink:href="#ArialMT-49"/>
     <use xlink:href="#ArialMT-6e" x="27.783203"/>
     <use xlink:href="#ArialMT-70" x="83.398438"/>
     <use xlink:href="#ArialMT-75" x="139.013672"/>
     <use xlink:href="#ArialMT-74" x="194.628906"/>
    </g>
    <!-- Embedding -->
    <g style="fill: #4a4a4a" transform="translate(199.631667 594.740889) scale(0.08 -0.08)">
     <defs>
      <path id="ArialMT-45" d="M 506 0 
L 506 4581 
L 3819 4581 
L 3819 4041 
L 1113 4041 
L 1113 2638 
L 3647 2638 
L 3647 2100 
L 1113 2100 
L 1113 541 
L 3925 541 
L 3925 0 
L 506 0 
z
" transform="scale(0.015625)"/>
      <path id="ArialMT-6d" d="M 422 0 
L 422 3319 
L 925 3319 
L 925 2853 
Q 1081 3097 1340 3245 
Q 1600 3394 1931 3394 
Q 2300 3394 2536 3241 
Q 2772 3088 2869 2813 
Q 3263 3394 3894 3394 
Q 4388 3394 4653 3120 
Q 4919 2847 4919 2278 
L 4919 0 
L 4359 0 
L 4359 2091 
Q 4359 2428 4304 2576 
Q 4250 2725 4106 2815 
Q 3963 2906 3769 2906 
Q 3419 2906 3187 2673 
Q 2956 2441 2956 1928 
L 2956 0 
L 2394 0 
L 2394 2156 
Q 2394 2531 2256 2718 
Q 2119 2906 1806 2906 
Q 1569 2906 1367 2781 
Q 1166 2656 1075 2415 
Q 984 2175 984 1722 
L 984 0 
L 422 0 
z
" transform="scale(0.015625)"/>
      <path id="ArialMT-62" d="M 941 0 
L 419 0 
L 419 4581 
L 981 4581 
L 981 2947 
Q 1338 3394 1891 3394 
Q 2197 3394 2470 3270 
Q 2744 3147 2920 2923 
Q 3097 2700 3197 2384 
Q 3297 2069 3297 1709 
Q 3297 856 2875 390 
Q 2453 -75 1863 -75 
Q 1275 -75 941 416 
L 941 0 
z
M 934 1684 
Q 934 1088 1097 822 
Q 1363 388 1816 388 
Q 2184 388 2453 708 
Q 2722 1028 2722 1663 
Q 2722 2313 2464 2622 
Q 2206 2931 1841 2931 
Q 1472 2931 1203 2611 
Q 934 2291 934 1684 
z
" transform="scale(0.015625)"/>
      <path id="ArialMT-65" d="M 2694 1069 
L 3275 997 
Q 3138 488 2766 206 
Q 2394 -75 1816 -75 
Q 1088 -75 661 373 
Q 234 822 234 1631 
Q 234 2469 665 2931 
Q 1097 3394 1784 3394 
Q 2450 3394 2872 2941 
Q 3294 2488 3294 1666 
Q 3294 1616 3291 1516 
L 816 1516 
Q 847 969 1125 678 
Q 1403 388 1819 388 
Q 2128 388 2347 550 
Q 2566 713 2694 1069 
z
M 847 1978 
L 2700 1978 
Q 2663 2397 2488 2606 
Q 2219 2931 1791 2931 
Q 1403 2931 1139 2672 
Q 875 2413 847 1978 
z
" transform="scale(0.015625)"/>
      <path id="ArialMT-64" d="M 2575 0 
L 2575 419 
Q 2259 -75 1647 -75 
Q 1250 -75 917 144 
Q 584 363 401 755 
Q 219 1147 219 1656 
Q 219 2153 384 2558 
Q 550 2963 881 3178 
Q 1213 3394 1622 3394 
Q 1922 3394 2156 3267 
Q 2391 3141 2538 2938 
L 2538 4581 
L 3097 4581 
L 3097 0 
L 2575 0 
z
M 797 1656 
Q 797 1019 1065 703 
Q 1334 388 1700 388 
Q 2069 388 2326 689 
Q 2584 991 2584 1609 
Q 2584 2291 2321 2609 
Q 2059 2928 1675 2928 
Q 1300 2928 1048 2622 
Q 797 2316 797 1656 
z
" transform="scale(0.015625)"/>
      <path id="ArialMT-69" d="M 425 3934 
L 425 4581 
L 988 4581 
L 988 3934 
L 425 3934 
z
M 425 0 
L 425 3319 
L 988 3319 
L 988 0 
L 425 0 
z
" transform="scale(0.015625)"/>
      <path id="ArialMT-67" d="M 319 -275 
L 866 -356 
Q 900 -609 1056 -725 
Q 1266 -881 1628 -881 
Q 2019 -881 2231 -725 
Q 2444 -569 2519 -288 
Q 2563 -116 2559 434 
Q 2191 0 1641 0 
Q 956 0 581 494 
Q 206 988 206 1678 
Q 206 2153 378 2554 
Q 550 2956 876 3175 
Q 1203 3394 1644 3394 
Q 2231 3394 2613 2919 
L 2613 3319 
L 3131 3319 
L 3131 450 
Q 3131 -325 2973 -648 
Q 2816 -972 2473 -1159 
Q 2131 -1347 1631 -1347 
Q 1038 -1347 672 -1080 
Q 306 -813 319 -275 
z
M 784 1719 
Q 784 1066 1043 766 
Q 1303 466 1694 466 
Q 2081 466 2343 764 
Q 2606 1063 2606 1700 
Q 2606 2309 2336 2618 
Q 2066 2928 1684 2928 
Q 1309 2928 1046 2623 
Q 784 2319 784 1719 
z
" transform="scale(0.015625)"/>
     </defs>
     <use xlink:href="#ArialMT-45"/>
     <use xlink:href="#ArialMT-6d" x="66.699219"/>
     <use xlink:href="#ArialMT-62" x="150"/>
     <use xlink:href="#ArialMT-65" x="205.615234"/>
     <use xlink:href="#ArialMT-64" x="261.230469"/>
     <use xlink:href="#ArialMT-64" x="316.845703"/>
     <use xlink:href="#ArialMT-69" x="372.460938"/>
     <use xlink:href="#ArialMT-6e" x="394.677734"/>
     <use xlink:href="#ArialMT-67" x="450.292969"/>
    </g>
   </g>
   <g id="text_2">
    <!-- + Pos Encoding -->
    <g style="fill: #4a4a4a" transform="translate(195.252917 540.63526) scale(0.07 -0.07)">
     <defs>
      <path id="ArialMT-2b" d="M 1603 741 
L 1603 1997 
L 356 1997 
L 356 2522 
L 1603 2522 
L 1603 3769 
L 2134 3769 
L 2134 2522 
L 3381 2522 
L 3381 1997 
L 2134 1997 
L 2134 741 
L 1603 741 
z
" transform="scale(0.015625)"/>
      <path id="ArialMT-20" transform="scale(0.015625)"/>
      <path id="ArialMT-50" d="M 494 0 
L 494 4581 
L 2222 4581 
Q 2678 4581 2919 4538 
Q 3256 4481 3484 4323 
Q 3713 4166 3852 3881 
Q 3991 3597 3991 3256 
Q 3991 2672 3619 2267 
Q 3247 1863 2275 1863 
L 1100 1863 
L 1100 0 
L 494 0 
z
M 1100 2403 
L 2284 2403 
Q 2872 2403 3119 2622 
Q 3366 2841 3366 3238 
Q 3366 3525 3220 3729 
Q 3075 3934 2838 4000 
Q 2684 4041 2272 4041 
L 1100 4041 
L 1100 2403 
z
" transform="scale(0.015625)"/>
      <path id="ArialMT-6f" d="M 213 1659 
Q 213 2581 725 3025 
Q 1153 3394 1769 3394 
Q 2453 3394 2887 2945 
Q 3322 2497 3322 1706 
Q 3322 1066 3130 698 
Q 2938 331 2570 128 
Q 2203 -75 1769 -75 
Q 1072 -75 642 372 
Q 213 819 213 1659 
z
M 791 1659 
Q 791 1022 1069 705 
Q 1347 388 1769 388 
Q 2188 388 2466 706 
Q 2744 1025 2744 1678 
Q 2744 2294 2464 2611 
Q 2184 2928 1769 2928 
Q 1347 2928 1069 2612 
Q 791 2297 791 1659 
z
" transform="scale(0.015625)"/>
      <path id="ArialMT-73" d="M 197 991 
L 753 1078 
Q 800 744 1014 566 
Q 1228 388 1613 388 
Q 2000 388 2187 545 
Q 2375 703 2375 916 
Q 2375 1106 2209 1216 
Q 2094 1291 1634 1406 
Q 1016 1563 777 1677 
Q 538 1791 414 1992 
Q 291 2194 291 2438 
Q 291 2659 392 2848 
Q 494 3038 669 3163 
Q 800 3259 1026 3326 
Q 1253 3394 1513 3394 
Q 1903 3394 2198 3281 
Q 2494 3169 2634 2976 
Q 2775 2784 2828 2463 
L 2278 2388 
Q 2241 2644 2061 2787 
Q 1881 2931 1553 2931 
Q 1166 2931 1000 2803 
Q 834 2675 834 2503 
Q 834 2394 903 2306 
Q 972 2216 1119 2156 
Q 1203 2125 1616 2013 
Q 2213 1853 2448 1751 
Q 2684 1650 2818 1456 
Q 2953 1263 2953 975 
Q 2953 694 2789 445 
Q 2625 197 2315 61 
Q 2006 -75 1616 -75 
Q 969 -75 630 194 
Q 291 463 197 991 
z
" transform="scale(0.015625)"/>
      <path id="ArialMT-63" d="M 2588 1216 
L 3141 1144 
Q 3050 572 2676 248 
Q 2303 -75 1759 -75 
Q 1078 -75 664 370 
Q 250 816 250 1647 
Q 250 2184 428 2587 
Q 606 2991 970 3192 
Q 1334 3394 1763 3394 
Q 2303 3394 2647 3120 
Q 2991 2847 3088 2344 
L 2541 2259 
Q 2463 2594 2264 2762 
Q 2066 2931 1784 2931 
Q 1359 2931 1093 2626 
Q 828 2322 828 1663 
Q 828 994 1084 691 
Q 1341 388 1753 388 
Q 2084 388 2306 591 
Q 2528 794 2588 1216 
z
" transform="scale(0.015625)"/>
     </defs>
     <use xlink:href="#ArialMT-2b"/>
     <use xlink:href="#ArialMT-20" x="58.398438"/>
     <use xlink:href="#ArialMT-50" x="86.181641"/>
     <use xlink:href="#ArialMT-6f" x="152.880859"/>
     <use xlink:href="#ArialMT-73" x="208.496094"/>
     <use xlink:href="#ArialMT-20" x="258.496094"/>
     <use xlink:href="#ArialMT-45" x="286.279297"/>
     <use xlink:href="#ArialMT-6e" x="352.978516"/>
     <use xlink:href="#ArialMT-63" x="408.59375"/>
     <use xlink:href="#ArialMT-6f" x="458.59375"/>
     <use xlink:href="#ArialMT-64" x="514.208984"/>
     <use xlink:href="#ArialMT-69" x="569.824219"/>
     <use xlink:href="#ArialMT-6e" x="592.041016"/>
     <use xlink:href="#ArialMT-67" x="647.65625"/>
    </g>
   </g>
   <g id="text_3">
    <!-- Multi-Head -->
    <g style="fill: #ffffff" transform="translate(200.527917 458.726264) scale(0.08 -0.08)">
     <defs>
      <path id="ArialMT-4d" d="M 475 0 
L 475 4581 
L 1388 4581 
L 2472 1338 
Q 2622 884 2691 659 
Q 2769 909 2934 1394 
L 4031 4581 
L 4847 4581 
L 4847 0 
L 4263 0 
L 4263 3834 
L 2931 0 
L 2384 0 
L 1059 3900 
L 1059 0 
L 475 0 
z
" transform="scale(0.015625)"/>
      <path id="ArialMT-6c" d="M 409 0 
L 409 4581 
L 972 4581 
L 972 0 
L 409 0 
z
" transform="scale(0.015625)"/>
      <path id="ArialMT-2d" d="M 203 1375 
L 203 1941 
L 1931 1941 
L 1931 1375 
L 203 1375 
z
" transform="scale(0.015625)"/>
      <path id="ArialMT-48" d="M 513 0 
L 513 4581 
L 1119 4581 
L 1119 2700 
L 3500 2700 
L 3500 4581 
L 4106 4581 
L 4106 0 
L 3500 0 
L 3500 2159 
L 1119 2159 
L 1119 0 
L 513 0 
z
" transform="scale(0.015625)"/>
      <path id="ArialMT-61" d="M 2588 409 
Q 2275 144 1986 34 
Q 1697 -75 1366 -75 
Q 819 -75 525 192 
Q 231 459 231 875 
Q 231 1119 342 1320 
Q 453 1522 633 1644 
Q 813 1766 1038 1828 
Q 1203 1872 1538 1913 
Q 2219 1994 2541 2106 
Q 2544 2222 2544 2253 
Q 2544 2597 2384 2738 
Q 2169 2928 1744 2928 
Q 1347 2928 1158 2789 
Q 969 2650 878 2297 
L 328 2372 
Q 403 2725 575 2942 
Q 747 3159 1072 3276 
Q 1397 3394 1825 3394 
Q 2250 3394 2515 3294 
Q 2781 3194 2906 3042 
Q 3031 2891 3081 2659 
Q 3109 2516 3109 2141 
L 3109 1391 
Q 3109 606 3145 398 
Q 3181 191 3288 0 
L 2700 0 
Q 2613 175 2588 409 
z
M 2541 1666 
Q 2234 1541 1622 1453 
Q 1275 1403 1131 1340 
Q 988 1278 909 1158 
Q 831 1038 831 891 
Q 831 666 1001 516 
Q 1172 366 1500 366 
Q 1825 366 2078 508 
Q 2331 650 2450 897 
Q 2541 1088 2541 1459 
L 2541 1666 
z
" transform="scale(0.015625)"/>
     </defs>
     <use xlink:href="#ArialMT-4d"/>
     <use xlink:href="#ArialMT-75" x="83.300781"/>
     <use xlink:href="#ArialMT-6c" x="138.916016"/>
     <use xlink:href="#ArialMT-74" x="161.132812"/>
     <use xlink:href="#ArialMT-69" x="188.916016"/>
     <use xlink:href="#ArialMT-2d" x="211.132812"/>
     <use xlink:href="#ArialMT-48" x="244.433594"/>
     <use xlink:href="#ArialMT-65" x="316.650391"/>
     <use xlink:href="#ArialMT-61" x="372.265625"/>
     <use xlink:href="#ArialMT-64" x="427.880859"/>
    </g>
    <!-- Self-Attention -->
    <g style="fill: #ffffff" transform="translate(195.854167 467.187764) scale(0.08 -0.08)">
     <defs>
      <path id="ArialMT-53" d="M 288 1472 
L 859 1522 
Q 900 1178 1048 958 
Q 1197 738 1509 602 
Q 1822 466 2213 466 
Q 2559 466 2825 569 
Q 3091 672 3220 851 
Q 3350 1031 3350 1244 
Q 3350 1459 3225 1620 
Q 3100 1781 2813 1891 
Q 2628 1963 1997 2114 
Q 1366 2266 1113 2400 
Q 784 2572 623 2826 
Q 463 3081 463 3397 
Q 463 3744 659 4045 
Q 856 4347 1234 4503 
Q 1613 4659 2075 4659 
Q 2584 4659 2973 4495 
Q 3363 4331 3572 4012 
Q 3781 3694 3797 3291 
L 3216 3247 
Q 3169 3681 2898 3903 
Q 2628 4125 2100 4125 
Q 1550 4125 1298 3923 
Q 1047 3722 1047 3438 
Q 1047 3191 1225 3031 
Q 1400 2872 2139 2705 
Q 2878 2538 3153 2413 
Q 3553 2228 3743 1945 
Q 3934 1663 3934 1294 
Q 3934 928 3725 604 
Q 3516 281 3123 101 
Q 2731 -78 2241 -78 
Q 1619 -78 1198 103 
Q 778 284 539 648 
Q 300 1013 288 1472 
z
" transform="scale(0.015625)"/>
      <path id="ArialMT-66" d="M 556 0 
L 556 2881 
L 59 2881 
L 59 3319 
L 556 3319 
L 556 3672 
Q 556 4006 616 4169 
Q 697 4388 901 4523 
Q 1106 4659 1475 4659 
Q 1713 4659 2000 4603 
L 1916 4113 
Q 1741 4144 1584 4144 
Q 1328 4144 1222 4034 
Q 1116 3925 1116 3625 
L 1116 3319 
L 1763 3319 
L 1763 2881 
L 1116 2881 
L 1116 0 
L 556 0 
z
" transform="scale(0.015625)"/>
      <path id="ArialMT-41" d="M -9 0 
L 1750 4581 
L 2403 4581 
L 4278 0 
L 3588 0 
L 3053 1388 
L 1138 1388 
L 634 0 
L -9 0 
z
M 1313 1881 
L 2866 1881 
L 2388 3150 
Q 2169 3728 2063 4100 
Q 1975 3659 1816 3225 
L 1313 1881 
z
" transform="scale(0.015625)"/>
     </defs>
     <use xlink:href="#ArialMT-53"/>
     <use xlink:href="#ArialMT-65" x="66.699219"/>
     <use xlink:href="#ArialMT-6c" x="122.314453"/>
     <use xlink:href="#ArialMT-66" x="144.53125"/>
     <use xlink:href="#ArialMT-2d" x="172.314453"/>
     <use xlink:href="#ArialMT-41" x="205.615234"/>
     <use xlink:href="#ArialMT-74" x="272.314453"/>
     <use xlink:href="#ArialMT-74" x="300.097656"/>
     <use xlink:href="#ArialMT-65" x="327.880859"/>
     <use xlink:href="#ArialMT-6e" x="383.496094"/>
     <use xlink:href="#ArialMT-74" x="439.111328"/>
     <use xlink:href="#ArialMT-69" x="466.894531"/>
     <use xlink:href="#ArialMT-6f" x="489.111328"/>
     <use xlink:href="#ArialMT-6e" x="544.726562"/>
    </g>
   </g>
   <g id="text_4">
    <!-- Add &amp; Norm -->
    <g style="fill: #4a4a4a" transform="translate(200.805339 413.076276) scale(0.07 -0.07)">
     <defs>
      <path id="ArialMT-26" d="M 3041 541 
Q 2763 231 2434 76 
Q 2106 -78 1725 -78 
Q 1022 -78 609 397 
Q 275 784 275 1263 
Q 275 1688 548 2030 
Q 822 2372 1366 2631 
Q 1056 2988 953 3209 
Q 850 3431 850 3638 
Q 850 4050 1173 4354 
Q 1497 4659 1988 4659 
Q 2456 4659 2754 4371 
Q 3053 4084 3053 3681 
Q 3053 3028 2188 2566 
L 3009 1519 
Q 3150 1794 3228 2156 
L 3813 2031 
Q 3663 1431 3406 1044 
Q 3722 625 4122 341 
L 3744 -106 
Q 3403 113 3041 541 
z
M 1897 2928 
Q 2263 3144 2370 3306 
Q 2478 3469 2478 3666 
Q 2478 3900 2329 4048 
Q 2181 4197 1959 4197 
Q 1731 4197 1579 4050 
Q 1428 3903 1428 3691 
Q 1428 3584 1483 3467 
Q 1538 3350 1647 3219 
L 1897 2928 
z
M 2688 984 
L 1656 2263 
Q 1200 1991 1040 1758 
Q 881 1525 881 1297 
Q 881 1019 1103 719 
Q 1325 419 1731 419 
Q 1984 419 2254 576 
Q 2525 734 2688 984 
z
" transform="scale(0.015625)"/>
      <path id="ArialMT-4e" d="M 488 0 
L 488 4581 
L 1109 4581 
L 3516 984 
L 3516 4581 
L 4097 4581 
L 4097 0 
L 3475 0 
L 1069 3600 
L 1069 0 
L 488 0 
z
" transform="scale(0.015625)"/>
      <path id="ArialMT-72" d="M 416 0 
L 416 3319 
L 922 3319 
L 922 2816 
Q 1116 3169 1280 3281 
Q 1444 3394 1641 3394 
Q 1925 3394 2219 3213 
L 2025 2691 
Q 1819 2813 1613 2813 
Q 1428 2813 1281 2702 
Q 1134 2591 1072 2394 
Q 978 2094 978 1738 
L 978 0 
L 416 0 
z
" transform="scale(0.015625)"/>
     </defs>
     <use xlink:href="#ArialMT-41"/>
     <use xlink:href="#ArialMT-64" x="66.699219"/>
     <use xlink:href="#ArialMT-64" x="122.314453"/>
     <use xlink:href="#ArialMT-20" x="177.929688"/>
     <use xlink:href="#ArialMT-26" x="205.712891"/>
     <use xlink:href="#ArialMT-20" x="272.412109"/>
     <use xlink:href="#ArialMT-4e" x="300.195312"/>
     <use xlink:href="#ArialMT-6f" x="372.412109"/>
     <use xlink:href="#ArialMT-72" x="428.027344"/>
     <use xlink:href="#ArialMT-6d" x="461.328125"/>
    </g>
   </g>
   <g id="text_5">
    <!-- Feed Forward -->
    <g style="fill: #4a4a4a" transform="translate(194.970417 378.599236) scale(0.08 -0.08)">
     <defs>
      <path id="ArialMT-46" d="M 525 0 
L 525 4581 
L 3616 4581 
L 3616 4041 
L 1131 4041 
L 1131 2622 
L 3281 2622 
L 3281 2081 
L 1131 2081 
L 1131 0 
L 525 0 
z
" transform="scale(0.015625)"/>
      <path id="ArialMT-77" d="M 1034 0 
L 19 3319 
L 600 3319 
L 1128 1403 
L 1325 691 
Q 1338 744 1497 1375 
L 2025 3319 
L 2603 3319 
L 3100 1394 
L 3266 759 
L 3456 1400 
L 4025 3319 
L 4572 3319 
L 3534 0 
L 2950 0 
L 2422 1988 
L 2294 2553 
L 1622 0 
L 1034 0 
z
" transform="scale(0.015625)"/>
     </defs>
     <use xlink:href="#ArialMT-46"/>
     <use xlink:href="#ArialMT-65" x="61.083984"/>
     <use xlink:href="#ArialMT-65" x="116.699219"/>
     <use xlink:href="#ArialMT-64" x="172.314453"/>
     <use xlink:href="#ArialMT-20" x="227.929688"/>
     <use xlink:href="#ArialMT-46" x="255.712891"/>
     <use xlink:href="#ArialMT-6f" x="316.796875"/>
     <use xlink:href="#ArialMT-72" x="372.412109"/>
     <use xlink:href="#ArialMT-77" x="405.712891"/>
     <use xlink:href="#ArialMT-61" x="477.929688"/>
     <use xlink:href="#ArialMT-72" x="533.544922"/>
     <use xlink:href="#ArialMT-64" x="566.845703"/>
    </g>
   </g>
   <g id="text_6">
    <!-- Add &amp; Norm -->
    <g style="fill: #4a4a4a" transform="translate(200.805339 328.718498) scale(0.07 -0.07)">
     <use xlink:href="#ArialMT-41"/>
     <use xlink:href="#ArialMT-64" x="66.699219"/>
     <use xlink:href="#ArialMT-64" x="122.314453"/>
     <use xlink:href="#ArialMT-20" x="177.929688"/>
     <use xlink:href="#ArialMT-26" x="205.712891"/>
     <use xlink:href="#ArialMT-20" x="272.412109"/>
     <use xlink:href="#ArialMT-4e" x="300.195312"/>
     <use xlink:href="#ArialMT-6f" x="372.412109"/>
     <use xlink:href="#ArialMT-72" x="428.027344"/>
     <use xlink:href="#ArialMT-6d" x="461.328125"/>
    </g>
   </g>
   <g id="text_7">
    <!-- Output -->
    <g style="fill: #4a4a4a" transform="translate(562.304236 586.330639) scale(0.08 -0.08)">
     <defs>
      <path id="ArialMT-4f" d="M 309 2231 
Q 309 3372 921 4017 
Q 1534 4663 2503 4663 
Q 3138 4663 3647 4359 
Q 4156 4056 4423 3514 
Q 4691 2972 4691 2284 
Q 4691 1588 4409 1038 
Q 4128 488 3612 205 
Q 3097 -78 2500 -78 
Q 1853 -78 1343 234 
Q 834 547 571 1087 
Q 309 1628 309 2231 
z
M 934 2222 
Q 934 1394 1379 917 
Q 1825 441 2497 441 
Q 3181 441 3623 922 
Q 4066 1403 4066 2288 
Q 4066 2847 3877 3264 
Q 3688 3681 3323 3911 
Q 2959 4141 2506 4141 
Q 1863 4141 1398 3698 
Q 934 3256 934 2222 
z
" transform="scale(0.015625)"/>
     </defs>
     <use xlink:href="#ArialMT-4f"/>
     <use xlink:href="#ArialMT-75" x="77.783203"/>
     <use xlink:href="#ArialMT-74" x="133.398438"/>
     <use xlink:href="#ArialMT-70" x="161.181641"/>
     <use xlink:href="#ArialMT-75" x="216.796875"/>
     <use xlink:href="#ArialMT-74" x="272.412109"/>
    </g>
    <!-- Embedding -->
    <g style="fill: #4a4a4a" transform="translate(554.076111 594.792139) scale(0.08 -0.08)">
     <use xlink:href="#ArialMT-45"/>
     <use xlink:href="#ArialMT-6d" x="66.699219"/>
     <use xlink:href="#ArialMT-62" x="150"/>
     <use xlink:href="#ArialMT-65" x="205.615234"/>
     <use xlink:href="#ArialMT-64" x="261.230469"/>
     <use xlink:href="#ArialMT-64" x="316.845703"/>
     <use xlink:href="#ArialMT-69" x="372.460938"/>
     <use xlink:href="#ArialMT-6e" x="394.677734"/>
     <use xlink:href="#ArialMT-67" x="450.292969"/>
    </g>
   </g>
   <g id="text_8">
    <!-- + Pos Encoding -->
    <g style="fill: #4a4a4a" transform="translate(549.697361 540.63526) scale(0.07 -0.07)">
     <use xlink:href="#ArialMT-2b"/>
     <use xlink:href="#ArialMT-20" x="58.398438"/>
     <use xlink:href="#ArialMT-50" x="86.181641"/>
     <use xlink:href="#ArialMT-6f" x="152.880859"/>
     <use xlink:href="#ArialMT-73" x="208.496094"/>
     <use xlink:href="#ArialMT-20" x="258.496094"/>
     <use xlink:href="#ArialMT-45" x="286.279297"/>
     <use xlink:href="#ArialMT-6e" x="352.978516"/>
     <use xlink:href="#ArialMT-63" x="408.59375"/>
     <use xlink:href="#ArialMT-6f" x="458.59375"/>
     <use xlink:href="#ArialMT-64" x="514.208984"/>
     <use xlink:href="#ArialMT-69" x="569.824219"/>
     <use xlink:href="#ArialMT-6e" x="592.041016"/>
     <use xlink:href="#ArialMT-67" x="647.65625"/>
    </g>
   </g>
   <g id="text_9">
    <!-- Masked -->
    <g style="fill: #ffffff" transform="translate(560.306111 458.726264) scale(0.08 -0.08)">
     <defs>
      <path id="ArialMT-6b" d="M 425 0 
L 425 4581 
L 988 4581 
L 988 1969 
L 2319 3319 
L 3047 3319 
L 1778 2088 
L 3175 0 
L 2481 0 
L 1384 1697 
L 988 1316 
L 988 0 
L 425 0 
z
" transform="scale(0.015625)"/>
     </defs>
     <use xlink:href="#ArialMT-4d"/>
     <use xlink:href="#ArialMT-61" x="83.300781"/>
     <use xlink:href="#ArialMT-73" x="138.916016"/>
     <use xlink:href="#ArialMT-6b" x="188.916016"/>
     <use xlink:href="#ArialMT-65" x="238.916016"/>
     <use xlink:href="#ArialMT-64" x="294.53125"/>
    </g>
    <!-- Self-Attention -->
    <g style="fill: #ffffff" transform="translate(550.298611 467.187764) scale(0.08 -0.08)">
     <use xlink:href="#ArialMT-53"/>
     <use xlink:href="#ArialMT-65" x="66.699219"/>
     <use xlink:href="#ArialMT-6c" x="122.314453"/>
     <use xlink:href="#ArialMT-66" x="144.53125"/>
     <use xlink:href="#ArialMT-2d" x="172.314453"/>
     <use xlink:href="#ArialMT-41" x="205.615234"/>
     <use xlink:href="#ArialMT-74" x="272.314453"/>
     <use xlink:href="#ArialMT-74" x="300.097656"/>
     <use xlink:href="#ArialMT-65" x="327.880859"/>
     <use xlink:href="#ArialMT-6e" x="383.496094"/>
     <use xlink:href="#ArialMT-74" x="439.111328"/>
     <use xlink:href="#ArialMT-69" x="466.894531"/>
     <use xlink:href="#ArialMT-6f" x="489.111328"/>
     <use xlink:href="#ArialMT-6e" x="544.726562"/>
    </g>
   </g>
   <g id="text_10">
    <!-- Add &amp; Norm -->
    <g style="fill: #4a4a4a" transform="translate(555.249783 413.076276) scale(0.07 -0.07)">
     <use xlink:href="#ArialMT-41"/>
     <use xlink:href="#ArialMT-64" x="66.699219"/>
     <use xlink:href="#ArialMT-64" x="122.314453"/>
     <use xlink:href="#ArialMT-20" x="177.929688"/>
     <use xlink:href="#ArialMT-26" x="205.712891"/>
     <use xlink:href="#ArialMT-20" x="272.412109"/>
     <use xlink:href="#ArialMT-4e" x="300.195312"/>
     <use xlink:href="#ArialMT-6f" x="372.412109"/>
     <use xlink:href="#ArialMT-72" x="428.027344"/>
     <use xlink:href="#ArialMT-6d" x="461.328125"/>
    </g>
   </g>
   <g id="text_11">
    <!-- Cross-Attention -->
    <g style="fill: #ffffff" transform="translate(546.746111 378.599236) scale(0.08 -0.08)">
     <defs>
      <path id="ArialMT-43" d="M 3763 1606 
L 4369 1453 
Q 4178 706 3683 314 
Q 3188 -78 2472 -78 
Q 1731 -78 1267 223 
Q 803 525 561 1097 
Q 319 1669 319 2325 
Q 319 3041 592 3573 
Q 866 4106 1370 4382 
Q 1875 4659 2481 4659 
Q 3169 4659 3637 4309 
Q 4106 3959 4291 3325 
L 3694 3184 
Q 3534 3684 3231 3912 
Q 2928 4141 2469 4141 
Q 1941 4141 1586 3887 
Q 1231 3634 1087 3207 
Q 944 2781 944 2328 
Q 944 1744 1114 1308 
Q 1284 872 1643 656 
Q 2003 441 2422 441 
Q 2931 441 3284 734 
Q 3638 1028 3763 1606 
z
" transform="scale(0.015625)"/>
     </defs>
     <use xlink:href="#ArialMT-43"/>
     <use xlink:href="#ArialMT-72" x="72.216797"/>
     <use xlink:href="#ArialMT-6f" x="105.517578"/>
     <use xlink:href="#ArialMT-73" x="161.132812"/>
     <use xlink:href="#ArialMT-73" x="211.132812"/>
     <use xlink:href="#ArialMT-2d" x="261.132812"/>
     <use xlink:href="#ArialMT-41" x="294.433594"/>
     <use xlink:href="#ArialMT-74" x="361.132812"/>
     <use xlink:href="#ArialMT-74" x="388.916016"/>
     <use xlink:href="#ArialMT-65" x="416.699219"/>
     <use xlink:href="#ArialMT-6e" x="472.314453"/>
     <use xlink:href="#ArialMT-74" x="527.929688"/>
     <use xlink:href="#ArialMT-69" x="555.712891"/>
     <use xlink:href="#ArialMT-6f" x="577.929688"/>
     <use xlink:href="#ArialMT-6e" x="633.544922"/>
    </g>
   </g>
   <g id="text_12">
    <!-- Add &amp; Norm -->
    <g style="fill: #4a4a4a" transform="translate(555.249783 328.718498) scale(0.07 -0.07)">
     <use xlink:href="#ArialMT-41"/>
     <use xlink:href="#ArialMT-64" x="66.699219"/>
     <use xlink:href="#ArialMT-64" x="122.314453"/>
     <use xlink:href="#ArialMT-20" x="177.929688"/>
     <use xlink:href="#ArialMT-26" x="205.712891"/>
     <use xlink:href="#ArialMT-20" x="272.412109"/>
     <use xlink:href="#ArialMT-4e" x="300.195312"/>
     <use xlink:href="#ArialMT-6f" x="372.412109"/>
     <use xlink:href="#ArialMT-72" x="428.027344"/>
     <use xlink:href="#ArialMT-6d" x="461.328125"/>
    </g>
   </g>
   <g id="text_13">
    <!-- Feed Forward -->
    <g style="fill: #4a4a4a" transform="translate(549.414861 294.241458) scale(0.08 -0.08)">
     <use xlink:href="#ArialMT-46"/>
     <use xlink:href="#ArialMT-65" x="61.083984"/>
     <use xlink:href="#ArialMT-65" x="116.699219"/>
     <use xlink:href="#ArialMT-64" x="172.314453"/>
     <use xlink:href="#ArialMT-20" x="227.929688"/>
     <use xlink:href="#ArialMT-46" x="255.712891"/>
     <use xlink:href="#ArialMT-6f" x="316.796875"/>
     <use xlink:href="#ArialMT-72" x="372.412109"/>
     <use xlink:href="#ArialMT-77" x="405.712891"/>
     <use xlink:href="#ArialMT-61" x="477.929688"/>
     <use xlink:href="#ArialMT-72" x="533.544922"/>
     <use xlink:href="#ArialMT-64" x="566.845703"/>
    </g>
   </g>
   <g id="text_14">
    <!-- Add &amp; Norm -->
    <g style="fill: #4a4a4a" transform="translate(555.249783 244.36072) scale(0.07 -0.07)">
     <use xlink:href="#ArialMT-41"/>
     <use xlink:href="#ArialMT-64" x="66.699219"/>
     <use xlink:href="#ArialMT-64" x="122.314453"/>
     <use xlink:href="#ArialMT-20" x="177.929688"/>
     <use xlink:href="#ArialMT-26" x="205.712891"/>
     <use xlink:href="#ArialMT-20" x="272.412109"/>
     <use xlink:href="#ArialMT-4e" x="300.195312"/>
     <use xlink:href="#ArialMT-6f" x="372.412109"/>
     <use xlink:href="#ArialMT-72" x="428.027344"/>
     <use xlink:href="#ArialMT-6d" x="461.328125"/>
    </g>
   </g>
   <g id="text_15">
    <!-- Linear -->
    <g style="fill: #4a4a4a" transform="translate(561.80322 208.01553) scale(0.09 -0.09)">
     <defs>
      <path id="ArialMT-4c" d="M 469 0 
L 469 4581 
L 1075 4581 
L 1075 541 
L 3331 541 
L 3331 0 
L 469 0 
z
" transform="scale(0.015625)"/>
     </defs>
     <use xlink:href="#ArialMT-4c"/>
     <use xlink:href="#ArialMT-69" x="55.615234"/>
     <use xlink:href="#ArialMT-6e" x="77.832031"/>
     <use xlink:href="#ArialMT-65" x="133.447266"/>
     <use xlink:href="#ArialMT-61" x="189.0625"/>
     <use xlink:href="#ArialMT-72" x="244.677734"/>
    </g>
   </g>
   <g id="text_16">
    <!-- Softmax -->
    <g style="fill: #4a4a4a" transform="translate(557.805955 158.393307) scale(0.09 -0.09)">
     <defs>
      <path id="ArialMT-78" d="M 47 0 
L 1259 1725 
L 138 3319 
L 841 3319 
L 1350 2541 
Q 1494 2319 1581 2169 
Q 1719 2375 1834 2534 
L 2394 3319 
L 3066 3319 
L 1919 1756 
L 3153 0 
L 2463 0 
L 1781 1031 
L 1600 1309 
L 728 0 
L 47 0 
z
" transform="scale(0.015625)"/>
     </defs>
     <use xlink:href="#ArialMT-53"/>
     <use xlink:href="#ArialMT-6f" x="66.699219"/>
     <use xlink:href="#ArialMT-66" x="122.314453"/>
     <use xlink:href="#ArialMT-74" x="150.097656"/>
     <use xlink:href="#ArialMT-6d" x="177.880859"/>
     <use xlink:href="#ArialMT-61" x="261.181641"/>
     <use xlink:href="#ArialMT-78" x="316.796875"/>
    </g>
   </g>
   <g id="text_17">
    <!-- Encoder x N -->
    <g style="fill: #4a4a4a" transform="translate(190.693229 204.736632) scale(0.1 -0.1)">
     <defs>
      <path id="Arial-BoldMT-45" d="M 466 0 
L 466 4581 
L 3863 4581 
L 3863 3806 
L 1391 3806 
L 1391 2791 
L 3691 2791 
L 3691 2019 
L 1391 2019 
L 1391 772 
L 3950 772 
L 3950 0 
L 466 0 
z
" transform="scale(0.015625)"/>
      <path id="Arial-BoldMT-6e" d="M 3478 0 
L 2600 0 
L 2600 1694 
Q 2600 2231 2544 2389 
Q 2488 2547 2361 2634 
Q 2234 2722 2056 2722 
Q 1828 2722 1647 2597 
Q 1466 2472 1398 2265 
Q 1331 2059 1331 1503 
L 1331 0 
L 453 0 
L 453 3319 
L 1269 3319 
L 1269 2831 
Q 1703 3394 2363 3394 
Q 2653 3394 2893 3289 
Q 3134 3184 3257 3021 
Q 3381 2859 3429 2653 
Q 3478 2447 3478 2063 
L 3478 0 
z
" transform="scale(0.015625)"/>
      <path id="Arial-BoldMT-63" d="M 3353 2338 
L 2488 2181 
Q 2444 2441 2289 2572 
Q 2134 2703 1888 2703 
Q 1559 2703 1364 2476 
Q 1169 2250 1169 1719 
Q 1169 1128 1367 884 
Q 1566 641 1900 641 
Q 2150 641 2309 783 
Q 2469 925 2534 1272 
L 3397 1125 
Q 3263 531 2881 228 
Q 2500 -75 1859 -75 
Q 1131 -75 698 384 
Q 266 844 266 1656 
Q 266 2478 700 2936 
Q 1134 3394 1875 3394 
Q 2481 3394 2839 3133 
Q 3197 2872 3353 2338 
z
" transform="scale(0.015625)"/>
      <path id="Arial-BoldMT-6f" d="M 256 1706 
Q 256 2144 472 2553 
Q 688 2963 1083 3178 
Q 1478 3394 1966 3394 
Q 2719 3394 3200 2905 
Q 3681 2416 3681 1669 
Q 3681 916 3195 420 
Q 2709 -75 1972 -75 
Q 1516 -75 1102 131 
Q 688 338 472 736 
Q 256 1134 256 1706 
z
M 1156 1659 
Q 1156 1166 1390 903 
Q 1625 641 1969 641 
Q 2313 641 2545 903 
Q 2778 1166 2778 1666 
Q 2778 2153 2545 2415 
Q 2313 2678 1969 2678 
Q 1625 2678 1390 2415 
Q 1156 2153 1156 1659 
z
" transform="scale(0.015625)"/>
      <path id="Arial-BoldMT-64" d="M 3503 0 
L 2688 0 
L 2688 488 
Q 2484 203 2207 64 
Q 1931 -75 1650 -75 
Q 1078 -75 670 386 
Q 263 847 263 1672 
Q 263 2516 659 2955 
Q 1056 3394 1663 3394 
Q 2219 3394 2625 2931 
L 2625 4581 
L 3503 4581 
L 3503 0 
z
M 1159 1731 
Q 1159 1200 1306 963 
Q 1519 619 1900 619 
Q 2203 619 2415 876 
Q 2628 1134 2628 1647 
Q 2628 2219 2422 2470 
Q 2216 2722 1894 2722 
Q 1581 2722 1370 2473 
Q 1159 2225 1159 1731 
z
" transform="scale(0.015625)"/>
      <path id="Arial-BoldMT-65" d="M 2381 1056 
L 3256 909 
Q 3088 428 2723 176 
Q 2359 -75 1813 -75 
Q 947 -75 531 491 
Q 203 944 203 1634 
Q 203 2459 634 2926 
Q 1066 3394 1725 3394 
Q 2466 3394 2894 2905 
Q 3322 2416 3303 1406 
L 1103 1406 
Q 1113 1016 1316 798 
Q 1519 581 1822 581 
Q 2028 581 2168 693 
Q 2309 806 2381 1056 
z
M 2431 1944 
Q 2422 2325 2234 2523 
Q 2047 2722 1778 2722 
Q 1491 2722 1303 2513 
Q 1116 2303 1119 1944 
L 2431 1944 
z
" transform="scale(0.015625)"/>
      <path id="Arial-BoldMT-72" d="M 1300 0 
L 422 0 
L 422 3319 
L 1238 3319 
L 1238 2847 
Q 1447 3181 1614 3287 
Q 1781 3394 1994 3394 
Q 2294 3394 2572 3228 
L 2300 2463 
Q 2078 2606 1888 2606 
Q 1703 2606 1575 2504 
Q 1447 2403 1373 2137 
Q 1300 1872 1300 1025 
L 1300 0 
z
" transform="scale(0.015625)"/>
      <path id="Arial-BoldMT-20" transform="scale(0.015625)"/>
      <path id="Arial-BoldMT-78" d="M 38 0 
L 1234 1709 
L 88 3319 
L 1159 3319 
L 1747 2406 
L 2366 3319 
L 3397 3319 
L 2272 1747 
L 3500 0 
L 2422 0 
L 1747 1028 
L 1066 0 
L 38 0 
z
" transform="scale(0.015625)"/>
      <path id="Arial-BoldMT-4e" d="M 475 0 
L 475 4581 
L 1375 4581 
L 3250 1522 
L 3250 4581 
L 4109 4581 
L 4109 0 
L 3181 0 
L 1334 2988 
L 1334 0 
L 475 0 
z
" transform="scale(0.015625)"/>
     </defs>
     <use xlink:href="#Arial-BoldMT-45"/>
     <use xlink:href="#Arial-BoldMT-6e" x="66.699219"/>
     <use xlink:href="#Arial-BoldMT-63" x="127.783203"/>
     <use xlink:href="#Arial-BoldMT-6f" x="183.398438"/>
     <use xlink:href="#Arial-BoldMT-64" x="244.482422"/>
     <use xlink:href="#Arial-BoldMT-65" x="305.566406"/>
     <use xlink:href="#Arial-BoldMT-72" x="361.181641"/>
     <use xlink:href="#Arial-BoldMT-20" x="400.097656"/>
     <use xlink:href="#Arial-BoldMT-78" x="427.880859"/>
     <use xlink:href="#Arial-BoldMT-20" x="483.496094"/>
     <use xlink:href="#Arial-BoldMT-4e" x="511.279297"/>
    </g>
   </g>
   <g id="text_18">
    <!-- Decoder x N -->
    <g style="fill: #4a4a4a" transform="translate(545.13533 105.492188) scale(0.1 -0.1)">
     <defs>
      <path id="Arial-BoldMT-44" d="M 463 4581 
L 2153 4581 
Q 2725 4581 3025 4494 
Q 3428 4375 3715 4072 
Q 4003 3769 4153 3330 
Q 4303 2891 4303 2247 
Q 4303 1681 4163 1272 
Q 3991 772 3672 463 
Q 3431 228 3022 97 
Q 2716 0 2203 0 
L 463 0 
L 463 4581 
z
M 1388 3806 
L 1388 772 
L 2078 772 
Q 2466 772 2638 816 
Q 2863 872 3011 1006 
Q 3159 1141 3253 1448 
Q 3347 1756 3347 2288 
Q 3347 2819 3253 3103 
Q 3159 3388 2990 3547 
Q 2822 3706 2563 3763 
Q 2369 3806 1803 3806 
L 1388 3806 
z
" transform="scale(0.015625)"/>
     </defs>
     <use xlink:href="#Arial-BoldMT-44"/>
     <use xlink:href="#Arial-BoldMT-65" x="72.216797"/>
     <use xlink:href="#Arial-BoldMT-63" x="127.832031"/>
     <use xlink:href="#Arial-BoldMT-6f" x="183.447266"/>
     <use xlink:href="#Arial-BoldMT-64" x="244.53125"/>
     <use xlink:href="#Arial-BoldMT-65" x="305.615234"/>
     <use xlink:href="#Arial-BoldMT-72" x="361.230469"/>
     <use xlink:href="#Arial-BoldMT-20" x="400.146484"/>
     <use xlink:href="#Arial-BoldMT-78" x="427.929688"/>
     <use xlink:href="#Arial-BoldMT-20" x="483.544922"/>
     <use xlink:href="#Arial-BoldMT-4e" x="511.328125"/>
    </g>
   </g>
   <g id="text_19">
    <!-- Output Probabilities -->
    <g style="fill: #4a4a4a" transform="translate(535.04158 108.828741) scale(0.09 -0.09)">
     <use xlink:href="#ArialMT-4f"/>
     <use xlink:href="#ArialMT-75" x="77.783203"/>
     <use xlink:href="#ArialMT-74" x="133.398438"/>
     <use xlink:href="#ArialMT-70" x="161.181641"/>
     <use xlink:href="#ArialMT-75" x="216.796875"/>
     <use xlink:href="#ArialMT-74" x="272.412109"/>
     <use xlink:href="#ArialMT-20" x="300.195312"/>
     <use xlink:href="#ArialMT-50" x="327.978516"/>
     <use xlink:href="#ArialMT-72" x="394.677734"/>
     <use xlink:href="#ArialMT-6f" x="427.978516"/>
     <use xlink:href="#ArialMT-62" x="483.59375"/>
     <use xlink:href="#ArialMT-61" x="539.208984"/>
     <use xlink:href="#ArialMT-62" x="594.824219"/>
     <use xlink:href="#ArialMT-69" x="650.439453"/>
     <use xlink:href="#ArialMT-6c" x="672.65625"/>
     <use xlink:href="#ArialMT-69" x="694.873047"/>
     <use xlink:href="#ArialMT-74" x="717.089844"/>
     <use xlink:href="#ArialMT-69" x="744.873047"/>
     <use xlink:href="#ArialMT-65" x="767.089844"/>
     <use xlink:href="#ArialMT-73" x="822.705078"/>
    </g>
   </g>
  </g>
 </g>
 <defs>
  <clipPath id="pb0d4fe44b7">
   <rect x="7.2" y="7.2" width="779.777778" height="638"/>
  </clipPath>
 </defs>
</svg>
