<?xml version="1.0" encoding="utf-8" standalone="no"?>
<!DOCTYPE svg PUBLIC "-//W3C//DTD SVG 1.1//EN"
  "http://www.w3.org/Graphics/SVG/1.1/DTD/svg11.dtd">
<svg xmlns:xlink="http://www.w3.org/1999/xlink" width="705.828571pt" height="256.4pt" viewBox="0 0 705.828571 256.4" xmlns="http://www.w3.org/2000/svg" version="1.1">
 <metadata>
  <rdf:RDF xmlns:dc="http://purl.org/dc/elements/1.1/" xmlns:cc="http://creativecommons.org/ns#" xmlns:rdf="http://www.w3.org/1999/02/22-rdf-syntax-ns#">
   <cc:Work>
    <dc:type rdf:resource="http://purl.org/dc/dcmitype/StillImage"/>
    <dc:date>2026-01-23T05:25:09.395822</dc:date>
    <dc:format>image/svg+xml</dc:format>
    <dc:creator>
     <cc:Agent>
      <dc:title>Matplotlib v3.8.3, https://matplotlib.org/</dc:title>
     </cc:Agent>
    </dc:creator>
   </cc:Work>
  </rdf:RDF>
 </metadata>
 <defs>
  <style type="text/css">*{stroke-linejoin: round; stroke-linecap: butt}</style>
 </defs>
 <g id="figure_1">
  <g id="patch_1">
   <path d="M 0 256.4 
L 705.828571 256.4 
L 705.828571 0 
L 0 0 
z
" style="fill: #ffffff"/>
  </g>
  <g id="axes_1">
   <g id="patch_2">
    <path d="M 90.171429 72.885714 
Q 100.542857 97.777143 110.39827 121.430134 
" style="fill: none; stroke: #7a7a7a; stroke-width: 1.2; stroke-linecap: round"/>
    <path d="M 110.705962 116.968595 
L 110.39827 121.430134 
L 107.013655 118.507057 
" style="fill: none; stroke: #7a7a7a; stroke-width: 1.2; stroke-linecap: round"/>
   </g>
   <g id="patch_3">
    <path d="M 159.314286 72.885714 
Q 148.942857 97.777143 139.087444 121.430134 
" style="fill: none; stroke: #7a7a7a; stroke-width: 1.2; stroke-linecap: round"/>
    <path d="M 142.47206 118.507057 
L 139.087444 121.430134 
L 138.779752 116.968595 
" style="fill: none; stroke: #7a7a7a; stroke-width: 1.2; stroke-linecap: round"/>
   </g>
   <g id="patch_4">
    <path d="M 159.314286 138.571429 
Q 173.142857 138.571429 185.629788 138.571429 
" style="fill: none; stroke: #7a7a7a; stroke-width: 1.2; stroke-linecap: round"/>
    <path d="M 181.629788 136.571429 
L 185.629788 138.571429 
L 181.629788 140.571429 
" style="fill: none; stroke: #7a7a7a; stroke-width: 1.2; stroke-linecap: round"/>
   </g>
   <g id="patch_5">
    <path d="M 269.942857 138.571429 
Q 287.228571 138.571429 303.172645 138.571429 
" style="fill: none; stroke: #7a7a7a; stroke-width: 1.2; stroke-linecap: round"/>
    <path d="M 299.172645 136.571429 
L 303.172645 138.571429 
L 299.172645 140.571429 
" style="fill: none; stroke: #7a7a7a; stroke-width: 1.2; stroke-linecap: round"/>
   </g>
   <g id="patch_6">
    <path d="M 373.657143 138.571429 
Q 387.485714 138.571429 399.972645 138.571429 
" style="fill: none; stroke: #7a7a7a; stroke-width: 1.2; stroke-linecap: round"/>
    <path d="M 395.972645 136.571429 
L 399.972645 138.571429 
L 395.972645 140.571429 
" style="fill: none; stroke: #7a7a7a; stroke-width: 1.2; stroke-linecap: round"/>
   </g>
   <g id="patch_7">
    <path d="M 470.457143 138.571429 
Q 491.2 138.571429 510.601216 138.571429 
" style="fill: none; stroke: #7a7a7a; stroke-width: 1.2; stroke-linecap: round"/>
    <path d="M 506.601216 136.571429 
L 510.601216 138.571429 
L 506.601216 140.571429 
" style="fill: none; stroke: #7a7a7a; stroke-width: 1.2; stroke-linecap: round"/>
   </g>
   <g id="patch_8">
    <path d="M 594.914286 72.885714 
Q 577.628571 97.777143 561.108123 121.566588 
" style="fill: none; stroke: #7a7a7a; stroke-width: 1.2; stroke-linecap: round"/>
    <path d="M 565.032447 119.4219 
L 561.108123 121.566588 
L 561.746967 117.140317 
" style="fill: none; stroke: #7a7a7a; stroke-width: 1.2; stroke-linecap: round"/>
   </g>
   <g id="patch_9">
    <path d="M 546.514286 154.474286 
Q 546.514286 176.6 546.514286 197.384073 
" style="fill: none; stroke: #7a7a7a; stroke-width: 1.2; stroke-linecap: round"/>
    <path d="M 548.514286 193.384073 
L 546.514286 197.384073 
L 544.514286 193.384073 
" style="fill: none; stroke: #7a7a7a; stroke-width: 1.2; stroke-linecap: round"/>
   </g>
   <g id="patch_10">
    <path d="M 78.417143 74.268571 
L 101.925714 74.268571 
Q 112.297143 74.268571 112.297143 63.897143 
L 112.297143 47.302857 
Q 112.297143 36.931429 101.925714 36.931429 
L 78.417143 36.931429 
Q 68.045714 36.931429 68.045714 47.302857 
L 68.045714 63.897143 
Q 68.045714 74.268571 78.417143 74.268571 
z
" clip-path="url(#pe6474e8534)" style="fill: #6c9bc2"/>
   </g>
   <g id="patch_11">
    <path d="M 147.56 74.268571 
L 171.068571 74.268571 
Q 181.44 74.268571 181.44 63.897143 
L 181.44 47.302857 
Q 181.44 36.931429 171.068571 36.931429 
L 147.56 36.931429 
Q 137.188571 36.931429 137.188571 47.302857 
L 137.188571 63.897143 
Q 137.188571 74.268571 147.56 74.268571 
z
" clip-path="url(#pe6474e8534)" style="fill: #6c9bc2"/>
   </g>
   <g id="patch_12">
    <path d="M 583.16 74.268571 
L 606.668571 74.268571 
Q 617.04 74.268571 617.04 63.897143 
L 617.04 47.302857 
Q 617.04 36.931429 606.668571 36.931429 
L 583.16 36.931429 
Q 572.788571 36.931429 572.788571 47.302857 
L 572.788571 63.897143 
Q 572.788571 74.268571 583.16 74.268571 
z
" clip-path="url(#pe6474e8534)" style="fill: #e8a87c"/>
   </g>
   <g id="patch_13">
    <path d="M 99.16 155.511429 
L 150.325714 155.511429 
Q 160.697143 155.511429 160.697143 145.14 
L 160.697143 132.002857 
Q 160.697143 121.631429 150.325714 121.631429 
L 99.16 121.631429 
Q 88.788571 121.631429 88.788571 132.002857 
L 88.788571 145.14 
Q 88.788571 155.511429 99.16 155.511429 
z
" clip-path="url(#pe6474e8534)" style="fill: #7fb685"/>
   </g>
   <g id="patch_14">
    <path d="M 195.96 155.511429 
L 260.954286 155.511429 
Q 271.325714 155.511429 271.325714 145.14 
L 271.325714 132.002857 
Q 271.325714 121.631429 260.954286 121.631429 
L 195.96 121.631429 
Q 185.588571 121.631429 185.588571 132.002857 
L 185.588571 145.14 
Q 185.588571 155.511429 195.96 155.511429 
z
" clip-path="url(#pe6474e8534)" style="fill: #e8d07c"/>
   </g>
   <g id="patch_15">
    <path d="M 313.502857 155.511429 
L 364.668571 155.511429 
Q 375.04 155.511429 375.04 145.14 
L 375.04 132.002857 
Q 375.04 121.631429 364.668571 121.631429 
L 313.502857 121.631429 
Q 303.131429 121.631429 303.131429 132.002857 
L 303.131429 145.14 
Q 303.131429 155.511429 313.502857 155.511429 
z
" clip-path="url(#pe6474e8534)" style="fill: #d4d4e8"/>
   </g>
   <g id="patch_16">
    <path d="M 410.302857 155.511429 
L 461.468571 155.511429 
Q 471.84 155.511429 471.84 145.14 
L 471.84 132.002857 
Q 471.84 121.631429 461.468571 121.631429 
L 410.302857 121.631429 
Q 399.931429 121.631429 399.931429 132.002857 
L 399.931429 145.14 
Q 399.931429 155.511429 410.302857 155.511429 
z
" clip-path="url(#pe6474e8534)" style="fill: #9b8dc2"/>
   </g>
   <g id="patch_17">
    <path d="M 520.931429 155.511429 
L 572.097143 155.511429 
Q 582.468571 155.511429 582.468571 145.14 
L 582.468571 132.002857 
Q 582.468571 121.631429 572.097143 121.631429 
L 520.931429 121.631429 
Q 510.56 121.631429 510.56 132.002857 
L 510.56 145.14 
Q 510.56 155.511429 520.931429 155.511429 
z
" clip-path="url(#pe6474e8534)" style="fill: #7fb685"/>
   </g>
   <g id="patch_18">
    <path d="M 524.388571 231.568571 
L 568.64 231.568571 
Q 579.011429 231.568571 579.011429 221.197143 
L 579.011429 208.06 
Q 579.011429 197.688571 568.64 197.688571 
L 524.388571 197.688571 
Q 514.017143 197.688571 514.017143 208.06 
L 514.017143 221.197143 
Q 514.017143 231.568571 524.388571 231.568571 
z
" clip-path="url(#pe6474e8534)" style="fill: #a8b5c4"/>
   </g>
   <g id="text_1">
    <!-- Q -->
    <g style="fill: #ffffff" transform="translate(85.504554 58.702188) scale(0.12 -0.12)">
     <defs>
      <path id="ArialMT-51" d="M 3966 491 
Q 4388 200 4744 66 
L 4566 -356 
Q 4072 -178 3581 206 
Q 3072 -78 2456 -78 
Q 1834 -78 1328 222 
Q 822 522 548 1065 
Q 275 1609 275 2291 
Q 275 2969 550 3525 
Q 825 4081 1333 4372 
Q 1841 4663 2469 4663 
Q 3103 4663 3612 4361 
Q 4122 4059 4389 3517 
Q 4656 2975 4656 2294 
Q 4656 1728 4484 1276 
Q 4313 825 3966 491 
z
M 2631 1266 
Q 3156 1119 3497 828 
Q 4031 1316 4031 2294 
Q 4031 2850 3842 3265 
Q 3653 3681 3289 3911 
Q 2925 4141 2472 4141 
Q 1794 4141 1347 3677 
Q 900 3213 900 2291 
Q 900 1397 1342 919 
Q 1784 441 2472 441 
Q 2797 441 3084 563 
Q 2800 747 2484 825 
L 2631 1266 
z
" transform="scale(0.015625)"/>
     </defs>
     <use xlink:href="#ArialMT-51"/>
    </g>
   </g>
   <g id="text_2">
    <!-- K -->
    <g style="fill: #ffffff" transform="translate(155.312098 58.702188) scale(0.12 -0.12)">
     <defs>
      <path id="ArialMT-4b" d="M 469 0 
L 469 4581 
L 1075 4581 
L 1075 2309 
L 3350 4581 
L 4172 4581 
L 2250 2725 
L 4256 0 
L 3456 0 
L 1825 2319 
L 1075 1588 
L 1075 0 
L 469 0 
z
" transform="scale(0.015625)"/>
     </defs>
     <use xlink:href="#ArialMT-4b"/>
    </g>
   </g>
   <g id="text_3">
    <!-- V -->
    <g style="fill: #ffffff" transform="translate(590.912098 58.702188) scale(0.12 -0.12)">
     <defs>
      <path id="ArialMT-56" d="M 1803 0 
L 28 4581 
L 684 4581 
L 1875 1253 
Q 2019 853 2116 503 
Q 2222 878 2363 1253 
L 3600 4581 
L 4219 4581 
L 2425 0 
L 1803 0 
z
" transform="scale(0.015625)"/>
     </defs>
     <use xlink:href="#ArialMT-56"/>
    </g>
   </g>
   <g id="text_4">
    <!-- MatMul -->
    <g style="fill: #ffffff" transform="translate(109.991295 140.898069) scale(0.09 -0.09)">
     <defs>
      <path id="ArialMT-4d" d="M 475 0 
L 475 4581 
L 1388 4581 
L 2472 1338 
Q 2622 884 2691 659 
Q 2769 909 2934 1394 
L 4031 4581 
L 4847 4581 
L 4847 0 
L 4263 0 
L 4263 3834 
L 2931 0 
L 2384 0 
L 1059 3900 
L 1059 0 
L 475 0 
z
" transform="scale(0.015625)"/>
      <path id="ArialMT-61" d="M 2588 409 
Q 2275 144 1986 34 
Q 1697 -75 1366 -75 
Q 819 -75 525 192 
Q 231 459 231 875 
Q 231 1119 342 1320 
Q 453 1522 633 1644 
Q 813 1766 1038 1828 
Q 1203 1872 1538 1913 
Q 2219 1994 2541 2106 
Q 2544 2222 2544 2253 
Q 2544 2597 2384 2738 
Q 2169 2928 1744 2928 
Q 1347 2928 1158 2789 
Q 969 2650 878 2297 
L 328 2372 
Q 403 2725 575 2942 
Q 747 3159 1072 3276 
Q 1397 3394 1825 3394 
Q 2250 3394 2515 3294 
Q 2781 3194 2906 3042 
Q 3031 2891 3081 2659 
Q 3109 2516 3109 2141 
L 3109 1391 
Q 3109 606 3145 398 
Q 3181 191 3288 0 
L 2700 0 
Q 2613 175 2588 409 
z
M 2541 1666 
Q 2234 1541 1622 1453 
Q 1275 1403 1131 1340 
Q 988 1278 909 1158 
Q 831 1038 831 891 
Q 831 666 1001 516 
Q 1172 366 1500 366 
Q 1825 366 2078 508 
Q 2331 650 2450 897 
Q 2541 1088 2541 1459 
L 2541 1666 
z
" transform="scale(0.015625)"/>
      <path id="ArialMT-74" d="M 1650 503 
L 1731 6 
Q 1494 -44 1306 -44 
Q 1000 -44 831 53 
Q 663 150 594 308 
Q 525 466 525 972 
L 525 2881 
L 113 2881 
L 113 3319 
L 525 3319 
L 525 4141 
L 1084 4478 
L 1084 3319 
L 1650 3319 
L 1650 2881 
L 1084 2881 
L 1084 941 
Q 1084 700 1114 631 
Q 1144 563 1211 522 
Q 1278 481 1403 481 
Q 1497 481 1650 503 
z
" transform="scale(0.015625)"/>
      <path id="ArialMT-75" d="M 2597 0 
L 2597 488 
Q 2209 -75 1544 -75 
Q 1250 -75 995 37 
Q 741 150 617 320 
Q 494 491 444 738 
Q 409 903 409 1263 
L 409 3319 
L 972 3319 
L 972 1478 
Q 972 1038 1006 884 
Q 1059 663 1231 536 
Q 1403 409 1656 409 
Q 1909 409 2131 539 
Q 2353 669 2445 892 
Q 2538 1116 2538 1541 
L 2538 3319 
L 3100 3319 
L 3100 0 
L 2597 0 
z
" transform="scale(0.015625)"/>
      <path id="ArialMT-6c" d="M 409 0 
L 409 4581 
L 972 4581 
L 972 0 
L 409 0 
z
" transform="scale(0.015625)"/>
     </defs>
     <use xlink:href="#ArialMT-4d"/>
     <use xlink:href="#ArialMT-61" x="83.300781"/>
     <use xlink:href="#ArialMT-74" x="138.916016"/>
     <use xlink:href="#ArialMT-4d" x="166.699219"/>
     <use xlink:href="#ArialMT-75" x="250"/>
     <use xlink:href="#ArialMT-6c" x="305.615234"/>
    </g>
   </g>
   <g id="text_5">
    <!-- Scale -->
    <g style="fill: #4a4a4a" transform="translate(217.200815 140.898069) scale(0.09 -0.09)">
     <defs>
      <path id="ArialMT-53" d="M 288 1472 
L 859 1522 
Q 900 1178 1048 958 
Q 1197 738 1509 602 
Q 1822 466 2213 466 
Q 2559 466 2825 569 
Q 3091 672 3220 851 
Q 3350 1031 3350 1244 
Q 3350 1459 3225 1620 
Q 3100 1781 2813 1891 
Q 2628 1963 1997 2114 
Q 1366 2266 1113 2400 
Q 784 2572 623 2826 
Q 463 3081 463 3397 
Q 463 3744 659 4045 
Q 856 4347 1234 4503 
Q 1613 4659 2075 4659 
Q 2584 4659 2973 4495 
Q 3363 4331 3572 4012 
Q 3781 3694 3797 3291 
L 3216 3247 
Q 3169 3681 2898 3903 
Q 2628 4125 2100 4125 
Q 1550 4125 1298 3923 
Q 1047 3722 1047 3438 
Q 1047 3191 1225 3031 
Q 1400 2872 2139 2705 
Q 2878 2538 3153 2413 
Q 3553 2228 3743 1945 
Q 3934 1663 3934 1294 
Q 3934 928 3725 604 
Q 3516 281 3123 101 
Q 2731 -78 2241 -78 
Q 1619 -78 1198 103 
Q 778 284 539 648 
Q 300 1013 288 1472 
z
" transform="scale(0.015625)"/>
      <path id="ArialMT-63" d="M 2588 1216 
L 3141 1144 
Q 3050 572 2676 248 
Q 2303 -75 1759 -75 
Q 1078 -75 664 370 
Q 250 816 250 1647 
Q 250 2184 428 2587 
Q 606 2991 970 3192 
Q 1334 3394 1763 3394 
Q 2303 3394 2647 3120 
Q 2991 2847 3088 2344 
L 2541 2259 
Q 2463 2594 2264 2762 
Q 2066 2931 1784 2931 
Q 1359 2931 1093 2626 
Q 828 2322 828 1663 
Q 828 994 1084 691 
Q 1341 388 1753 388 
Q 2084 388 2306 591 
Q 2528 794 2588 1216 
z
" transform="scale(0.015625)"/>
      <path id="ArialMT-65" d="M 2694 1069 
L 3275 997 
Q 3138 488 2766 206 
Q 2394 -75 1816 -75 
Q 1088 -75 661 373 
Q 234 822 234 1631 
Q 234 2469 665 2931 
Q 1097 3394 1784 3394 
Q 2450 3394 2872 2941 
Q 3294 2488 3294 1666 
Q 3294 1616 3291 1516 
L 816 1516 
Q 847 969 1125 678 
Q 1403 388 1819 388 
Q 2128 388 2347 550 
Q 2566 713 2694 1069 
z
M 847 1978 
L 2700 1978 
Q 2663 2397 2488 2606 
Q 2219 2931 1791 2931 
Q 1403 2931 1139 2672 
Q 875 2413 847 1978 
z
" transform="scale(0.015625)"/>
     </defs>
     <use xlink:href="#ArialMT-53"/>
     <use xlink:href="#ArialMT-63" x="66.699219"/>
     <use xlink:href="#ArialMT-61" x="116.699219"/>
     <use xlink:href="#ArialMT-6c" x="172.314453"/>
     <use xlink:href="#ArialMT-65" x="194.53125"/>
    </g>
   </g>
   <g id="text_6">
    <!-- (/ sqrt dk) -->
    <g style="fill: #4a4a4a; opacity: 0.7" transform="translate(213.67894 166.228571) scale(0.07 -0.07)">
     <defs>
      <path id="ArialMT-28" d="M 1497 -1347 
Q 1031 -759 709 28 
Q 388 816 388 1659 
Q 388 2403 628 3084 
Q 909 3875 1497 4659 
L 1900 4659 
Q 1522 4009 1400 3731 
Q 1209 3300 1100 2831 
Q 966 2247 966 1656 
Q 966 153 1900 -1347 
L 1497 -1347 
z
" transform="scale(0.015625)"/>
      <path id="ArialMT-2f" d="M 0 -78 
L 1328 4659 
L 1778 4659 
L 453 -78 
L 0 -78 
z
" transform="scale(0.015625)"/>
      <path id="ArialMT-20" transform="scale(0.015625)"/>
      <path id="ArialMT-73" d="M 197 991 
L 753 1078 
Q 800 744 1014 566 
Q 1228 388 1613 388 
Q 2000 388 2187 545 
Q 2375 703 2375 916 
Q 2375 1106 2209 1216 
Q 2094 1291 1634 1406 
Q 1016 1563 777 1677 
Q 538 1791 414 1992 
Q 291 2194 291 2438 
Q 291 2659 392 2848 
Q 494 3038 669 3163 
Q 800 3259 1026 3326 
Q 1253 3394 1513 3394 
Q 1903 3394 2198 3281 
Q 2494 3169 2634 2976 
Q 2775 2784 2828 2463 
L 2278 2388 
Q 2241 2644 2061 2787 
Q 1881 2931 1553 2931 
Q 1166 2931 1000 2803 
Q 834 2675 834 2503 
Q 834 2394 903 2306 
Q 972 2216 1119 2156 
Q 1203 2125 1616 2013 
Q 2213 1853 2448 1751 
Q 2684 1650 2818 1456 
Q 2953 1263 2953 975 
Q 2953 694 2789 445 
Q 2625 197 2315 61 
Q 2006 -75 1616 -75 
Q 969 -75 630 194 
Q 291 463 197 991 
z
" transform="scale(0.015625)"/>
      <path id="ArialMT-71" d="M 2538 -1272 
L 2538 353 
Q 2406 169 2170 47 
Q 1934 -75 1669 -75 
Q 1078 -75 651 397 
Q 225 869 225 1691 
Q 225 2191 398 2587 
Q 572 2984 901 3189 
Q 1231 3394 1625 3394 
Q 2241 3394 2594 2875 
L 2594 3319 
L 3100 3319 
L 3100 -1272 
L 2538 -1272 
z
M 803 1669 
Q 803 1028 1072 708 
Q 1341 388 1716 388 
Q 2075 388 2334 692 
Q 2594 997 2594 1619 
Q 2594 2281 2320 2615 
Q 2047 2950 1678 2950 
Q 1313 2950 1058 2639 
Q 803 2328 803 1669 
z
" transform="scale(0.015625)"/>
      <path id="ArialMT-72" d="M 416 0 
L 416 3319 
L 922 3319 
L 922 2816 
Q 1116 3169 1280 3281 
Q 1444 3394 1641 3394 
Q 1925 3394 2219 3213 
L 2025 2691 
Q 1819 2813 1613 2813 
Q 1428 2813 1281 2702 
Q 1134 2591 1072 2394 
Q 978 2094 978 1738 
L 978 0 
L 416 0 
z
" transform="scale(0.015625)"/>
      <path id="ArialMT-64" d="M 2575 0 
L 2575 419 
Q 2259 -75 1647 -75 
Q 1250 -75 917 144 
Q 584 363 401 755 
Q 219 1147 219 1656 
Q 219 2153 384 2558 
Q 550 2963 881 3178 
Q 1213 3394 1622 3394 
Q 1922 3394 2156 3267 
Q 2391 3141 2538 2938 
L 2538 4581 
L 3097 4581 
L 3097 0 
L 2575 0 
z
M 797 1656 
Q 797 1019 1065 703 
Q 1334 388 1700 388 
Q 2069 388 2326 689 
Q 2584 991 2584 1609 
Q 2584 2291 2321 2609 
Q 2059 2928 1675 2928 
Q 1300 2928 1048 2622 
Q 797 2316 797 1656 
z
" transform="scale(0.015625)"/>
      <path id="ArialMT-6b" d="M 425 0 
L 425 4581 
L 988 4581 
L 988 1969 
L 2319 3319 
L 3047 3319 
L 1778 2088 
L 3175 0 
L 2481 0 
L 1384 1697 
L 988 1316 
L 988 0 
L 425 0 
z
" transform="scale(0.015625)"/>
      <path id="ArialMT-29" d="M 791 -1347 
L 388 -1347 
Q 1322 153 1322 1656 
Q 1322 2244 1188 2822 
Q 1081 3291 891 3722 
Q 769 4003 388 4659 
L 791 4659 
Q 1378 3875 1659 3084 
Q 1900 2403 1900 1659 
Q 1900 816 1576 28 
Q 1253 -759 791 -1347 
z
" transform="scale(0.015625)"/>
     </defs>
     <use xlink:href="#ArialMT-28"/>
     <use xlink:href="#ArialMT-2f" x="33.300781"/>
     <use xlink:href="#ArialMT-20" x="61.083984"/>
     <use xlink:href="#ArialMT-73" x="88.867188"/>
     <use xlink:href="#ArialMT-71" x="138.867188"/>
     <use xlink:href="#ArialMT-72" x="194.482422"/>
     <use xlink:href="#ArialMT-74" x="227.783203"/>
     <use xlink:href="#ArialMT-20" x="255.566406"/>
     <use xlink:href="#ArialMT-64" x="283.349609"/>
     <use xlink:href="#ArialMT-6b" x="338.964844"/>
     <use xlink:href="#ArialMT-29" x="388.964844"/>
    </g>
   </g>
   <g id="text_7">
    <!-- Mask -->
    <g style="fill: #4a4a4a" transform="translate(328.334933 140.898069) scale(0.09 -0.09)">
     <use xlink:href="#ArialMT-4d"/>
     <use xlink:href="#ArialMT-61" x="83.300781"/>
     <use xlink:href="#ArialMT-73" x="138.916016"/>
     <use xlink:href="#ArialMT-6b" x="188.916016"/>
    </g>
   </g>
   <g id="text_8">
    <!-- (optional) -->
    <g style="fill: #4a4a4a; opacity: 0.6" transform="translate(324.495636 166.228571) scale(0.07 -0.07)">
     <defs>
      <path id="ArialMT-6f" d="M 213 1659 
Q 213 2581 725 3025 
Q 1153 3394 1769 3394 
Q 2453 3394 2887 2945 
Q 3322 2497 3322 1706 
Q 3322 1066 3130 698 
Q 2938 331 2570 128 
Q 2203 -75 1769 -75 
Q 1072 -75 642 372 
Q 213 819 213 1659 
z
M 791 1659 
Q 791 1022 1069 705 
Q 1347 388 1769 388 
Q 2188 388 2466 706 
Q 2744 1025 2744 1678 
Q 2744 2294 2464 2611 
Q 2184 2928 1769 2928 
Q 1347 2928 1069 2612 
Q 791 2297 791 1659 
z
" transform="scale(0.015625)"/>
      <path id="ArialMT-70" d="M 422 -1272 
L 422 3319 
L 934 3319 
L 934 2888 
Q 1116 3141 1344 3267 
Q 1572 3394 1897 3394 
Q 2322 3394 2647 3175 
Q 2972 2956 3137 2557 
Q 3303 2159 3303 1684 
Q 3303 1175 3120 767 
Q 2938 359 2589 142 
Q 2241 -75 1856 -75 
Q 1575 -75 1351 44 
Q 1128 163 984 344 
L 984 -1272 
L 422 -1272 
z
M 931 1641 
Q 931 1000 1190 694 
Q 1450 388 1819 388 
Q 2194 388 2461 705 
Q 2728 1022 2728 1688 
Q 2728 2322 2467 2637 
Q 2206 2953 1844 2953 
Q 1484 2953 1207 2617 
Q 931 2281 931 1641 
z
" transform="scale(0.015625)"/>
      <path id="ArialMT-69" d="M 425 3934 
L 425 4581 
L 988 4581 
L 988 3934 
L 425 3934 
z
M 425 0 
L 425 3319 
L 988 3319 
L 988 0 
L 425 0 
z
" transform="scale(0.015625)"/>
      <path id="ArialMT-6e" d="M 422 0 
L 422 3319 
L 928 3319 
L 928 2847 
Q 1294 3394 1984 3394 
Q 2284 3394 2536 3286 
Q 2788 3178 2913 3003 
Q 3038 2828 3088 2588 
Q 3119 2431 3119 2041 
L 3119 0 
L 2556 0 
L 2556 2019 
Q 2556 2363 2490 2533 
Q 2425 2703 2258 2804 
Q 2091 2906 1866 2906 
Q 1506 2906 1245 2678 
Q 984 2450 984 1813 
L 984 0 
L 422 0 
z
" transform="scale(0.015625)"/>
     </defs>
     <use xlink:href="#ArialMT-28"/>
     <use xlink:href="#ArialMT-6f" x="33.300781"/>
     <use xlink:href="#ArialMT-70" x="88.916016"/>
     <use xlink:href="#ArialMT-74" x="144.53125"/>
     <use xlink:href="#ArialMT-69" x="172.314453"/>
     <use xlink:href="#ArialMT-6f" x="194.53125"/>
     <use xlink:href="#ArialMT-6e" x="250.146484"/>
     <use xlink:href="#ArialMT-61" x="305.761719"/>
     <use xlink:href="#ArialMT-6c" x="361.376953"/>
     <use xlink:href="#ArialMT-29" x="383.59375"/>
    </g>
   </g>
   <g id="text_9">
    <!-- Softmax -->
    <g style="fill: #4a4a4a" transform="translate(419.380558 140.898069) scale(0.09 -0.09)">
     <defs>
      <path id="ArialMT-66" d="M 556 0 
L 556 2881 
L 59 2881 
L 59 3319 
L 556 3319 
L 556 3672 
Q 556 4006 616 4169 
Q 697 4388 901 4523 
Q 1106 4659 1475 4659 
Q 1713 4659 2000 4603 
L 1916 4113 
Q 1741 4144 1584 4144 
Q 1328 4144 1222 4034 
Q 1116 3925 1116 3625 
L 1116 3319 
L 1763 3319 
L 1763 2881 
L 1116 2881 
L 1116 0 
L 556 0 
z
" transform="scale(0.015625)"/>
      <path id="ArialMT-6d" d="M 422 0 
L 422 3319 
L 925 3319 
L 925 2853 
Q 1081 3097 1340 3245 
Q 1600 3394 1931 3394 
Q 2300 3394 2536 3241 
Q 2772 3088 2869 2813 
Q 3263 3394 3894 3394 
Q 4388 3394 4653 3120 
Q 4919 2847 4919 2278 
L 4919 0 
L 4359 0 
L 4359 2091 
Q 4359 2428 4304 2576 
Q 4250 2725 4106 2815 
Q 3963 2906 3769 2906 
Q 3419 2906 3187 2673 
Q 2956 2441 2956 1928 
L 2956 0 
L 2394 0 
L 2394 2156 
Q 2394 2531 2256 2718 
Q 2119 2906 1806 2906 
Q 1569 2906 1367 2781 
Q 1166 2656 1075 2415 
Q 984 2175 984 1722 
L 984 0 
L 422 0 
z
" transform="scale(0.015625)"/>
      <path id="ArialMT-78" d="M 47 0 
L 1259 1725 
L 138 3319 
L 841 3319 
L 1350 2541 
Q 1494 2319 1581 2169 
Q 1719 2375 1834 2534 
L 2394 3319 
L 3066 3319 
L 1919 1756 
L 3153 0 
L 2463 0 
L 1781 1031 
L 1600 1309 
L 728 0 
L 47 0 
z
" transform="scale(0.015625)"/>
     </defs>
     <use xlink:href="#ArialMT-53"/>
     <use xlink:href="#ArialMT-6f" x="66.699219"/>
     <use xlink:href="#ArialMT-66" x="122.314453"/>
     <use xlink:href="#ArialMT-74" x="150.097656"/>
     <use xlink:href="#ArialMT-6d" x="177.880859"/>
     <use xlink:href="#ArialMT-61" x="261.181641"/>
     <use xlink:href="#ArialMT-78" x="316.796875"/>
    </g>
   </g>
   <g id="text_10">
    <!-- MatMul -->
    <g style="fill: #ffffff" transform="translate(531.762723 140.898069) scale(0.09 -0.09)">
     <use xlink:href="#ArialMT-4d"/>
     <use xlink:href="#ArialMT-61" x="83.300781"/>
     <use xlink:href="#ArialMT-74" x="138.916016"/>
     <use xlink:href="#ArialMT-4d" x="166.699219"/>
     <use xlink:href="#ArialMT-75" x="250"/>
     <use xlink:href="#ArialMT-6c" x="305.615234"/>
    </g>
   </g>
   <g id="text_11">
    <!-- Output -->
    <g style="fill: #4a4a4a" transform="translate(533.006551 217.012868) scale(0.09 -0.09)">
     <defs>
      <path id="ArialMT-4f" d="M 309 2231 
Q 309 3372 921 4017 
Q 1534 4663 2503 4663 
Q 3138 4663 3647 4359 
Q 4156 4056 4423 3514 
Q 4691 2972 4691 2284 
Q 4691 1588 4409 1038 
Q 4128 488 3612 205 
Q 3097 -78 2500 -78 
Q 1853 -78 1343 234 
Q 834 547 571 1087 
Q 309 1628 309 2231 
z
M 934 2222 
Q 934 1394 1379 917 
Q 1825 441 2497 441 
Q 3181 441 3623 922 
Q 4066 1403 4066 2288 
Q 4066 2847 3877 3264 
Q 3688 3681 3323 3911 
Q 2959 4141 2506 4141 
Q 1863 4141 1398 3698 
Q 934 3256 934 2222 
z
" transform="scale(0.015625)"/>
     </defs>
     <use xlink:href="#ArialMT-4f"/>
     <use xlink:href="#ArialMT-75" x="77.783203"/>
     <use xlink:href="#ArialMT-74" x="133.398438"/>
     <use xlink:href="#ArialMT-70" x="161.181641"/>
     <use xlink:href="#ArialMT-75" x="216.796875"/>
     <use xlink:href="#ArialMT-74" x="272.412109"/>
    </g>
   </g>
  </g>
 </g>
 <defs>
  <clipPath id="pe6474e8534">
   <rect x="7.2" y="7.2" width="691.428571" height="242"/>
  </clipPath>
 </defs>
</svg>
