<?xml version="1.0" encoding="utf-8" standalone="no"?>
<!DOCTYPE svg PUBLIC "-//W3C//DTD SVG 1.1//EN"
  "http://www.w3.org/Graphics/SVG/1.1/DTD/svg11.dtd">
<svg xmlns:xlink="http://www.w3.org/1999/xlink" width="998.64pt" height="710.64pt" viewBox="0 0 998.64 710.64" xmlns="http://www.w3.org/2000/svg" version="1.1">
 <metadata>
  <rdf:RDF xmlns:dc="http://purl.org/dc/elements/1.1/" xmlns:cc="http://creativecommons.org/ns#" xmlns:rdf="http://www.w3.org/1999/02/22-rdf-syntax-ns#">
   <cc:Work>
    <dc:type rdf:resource="http://purl.org/dc/dcmitype/StillImage"/>
    <dc:date>2026-01-25T05:10:26.381126</dc:date>
    <dc:format>image/svg+xml</dc:format>
    <dc:creator>
     <cc:Agent>
      <dc:title>Matplotlib v3.8.3, https://matplotlib.org/</dc:title>
     </cc:Agent>
    </dc:creator>
   </cc:Work>
  </rdf:RDF>
 </metadata>
 <defs>
  <style type="text/css">*{stroke-linejoin: round; stroke-linecap: butt}</style>
 </defs>
 <g id="figure_1">
  <g id="patch_1">
   <path d="M 0 710.64 
L 998.64 710.64 
L 998.64 0 
L 0 0 
z
" style="fill: #ffffff"/>
  </g>
  <g id="axes_1">
   <g id="patch_2">
    <path d="M 192.096514 172.20888 
L 244.120629 172.20888 
Q 251.150914 172.20888 251.150914 165.24648 
L 251.150914 127.64952 
Q 251.150914 120.68712 244.120629 120.68712 
L 192.096514 120.68712 
Q 185.066229 120.68712 185.066229 127.64952 
L 185.066229 165.24648 
Q 185.066229 172.20888 192.096514 172.20888 
z
" clip-path="url(#pab5148ca5e)" style="fill: #6c9bc2"/>
   </g>
   <g id="patch_3">
    <path d="M 269.429657 172.20888 
L 321.453771 172.20888 
Q 328.484057 172.20888 328.484057 165.24648 
L 328.484057 127.64952 
Q 328.484057 120.68712 321.453771 120.68712 
L 269.429657 120.68712 
Q 262.399371 120.68712 262.399371 127.64952 
L 262.399371 165.24648 
Q 262.399371 172.20888 269.429657 172.20888 
z
" clip-path="url(#pab5148ca5e)" style="fill: #6c9bc2"/>
   </g>
   <g id="patch_4">
    <path d="M 346.7628 172.20888 
L 398.786914 172.20888 
Q 405.8172 172.20888 405.8172 165.24648 
L 405.8172 127.64952 
Q 405.8172 120.68712 398.786914 120.68712 
L 346.7628 120.68712 
Q 339.732514 120.68712 339.732514 127.64952 
L 339.732514 165.24648 
Q 339.732514 172.20888 346.7628 172.20888 
z
" clip-path="url(#pab5148ca5e)" style="fill: #6c9bc2"/>
   </g>
   <g id="patch_5">
    <path d="M 424.095943 172.20888 
L 476.120057 172.20888 
Q 483.150343 172.20888 483.150343 165.24648 
L 483.150343 127.64952 
Q 483.150343 120.68712 476.120057 120.68712 
L 424.095943 120.68712 
Q 417.065657 120.68712 417.065657 127.64952 
L 417.065657 165.24648 
Q 417.065657 172.20888 424.095943 172.20888 
z
" clip-path="url(#pab5148ca5e)" style="fill: #e8a87c"/>
   </g>
   <g id="patch_6">
    <path d="M 501.429086 172.20888 
L 553.4532 172.20888 
Q 560.483486 172.20888 560.483486 165.24648 
L 560.483486 127.64952 
Q 560.483486 120.68712 553.4532 120.68712 
L 501.429086 120.68712 
Q 494.3988 120.68712 494.3988 127.64952 
L 494.3988 165.24648 
Q 494.3988 172.20888 501.429086 172.20888 
z
" clip-path="url(#pab5148ca5e)" style="fill: #e8a87c"/>
   </g>
   <g id="patch_7">
    <path d="M 578.762229 172.20888 
L 630.786343 172.20888 
Q 637.816629 172.20888 637.816629 165.24648 
L 637.816629 127.64952 
Q 637.816629 120.68712 630.786343 120.68712 
L 578.762229 120.68712 
Q 571.731943 120.68712 571.731943 127.64952 
L 571.731943 165.24648 
Q 571.731943 172.20888 578.762229 172.20888 
z
" clip-path="url(#pab5148ca5e)" style="fill: #7fb685"/>
   </g>
   <g id="patch_8">
    <path d="M 656.095371 172.20888 
L 708.119486 172.20888 
Q 715.149771 172.20888 715.149771 165.24648 
L 715.149771 127.64952 
Q 715.149771 120.68712 708.119486 120.68712 
L 656.095371 120.68712 
Q 649.065086 120.68712 649.065086 127.64952 
L 649.065086 165.24648 
Q 649.065086 172.20888 656.095371 172.20888 
z
" clip-path="url(#pab5148ca5e)" style="fill: #a8b5c4"/>
   </g>
   <g id="patch_9">
    <path d="M 192.096514 297.53208 
L 244.120629 297.53208 
Q 251.150914 297.53208 251.150914 290.56968 
L 251.150914 252.97272 
Q 251.150914 246.01032 244.120629 246.01032 
L 192.096514 246.01032 
Q 185.066229 246.01032 185.066229 252.97272 
L 185.066229 290.56968 
Q 185.066229 297.53208 192.096514 297.53208 
z
" clip-path="url(#pab5148ca5e)" style="fill: #6c9bc2"/>
   </g>
   <g id="patch_10">
    <path d="M 269.429657 297.53208 
L 321.453771 297.53208 
Q 328.484057 297.53208 328.484057 290.56968 
L 328.484057 252.97272 
Q 328.484057 246.01032 321.453771 246.01032 
L 269.429657 246.01032 
Q 262.399371 246.01032 262.399371 252.97272 
L 262.399371 290.56968 
Q 262.399371 297.53208 269.429657 297.53208 
z
" clip-path="url(#pab5148ca5e)" style="fill: #6c9bc2"/>
   </g>
   <g id="patch_11">
    <path d="M 346.7628 297.53208 
L 398.786914 297.53208 
Q 405.8172 297.53208 405.8172 290.56968 
L 405.8172 252.97272 
Q 405.8172 246.01032 398.786914 246.01032 
L 346.7628 246.01032 
Q 339.732514 246.01032 339.732514 252.97272 
L 339.732514 290.56968 
Q 339.732514 297.53208 346.7628 297.53208 
z
" clip-path="url(#pab5148ca5e)" style="fill: #6c9bc2"/>
   </g>
   <g id="patch_12">
    <path d="M 413.550514 297.53208 
L 486.665486 297.53208 
Q 493.695771 297.53208 493.695771 290.56968 
L 493.695771 252.97272 
Q 493.695771 246.01032 486.665486 246.01032 
L 413.550514 246.01032 
Q 406.520229 246.01032 406.520229 252.97272 
L 406.520229 290.56968 
Q 406.520229 297.53208 413.550514 297.53208 
z
" clip-path="url(#pab5148ca5e)" style="fill: #e8a87c"/>
   </g>
   <g id="patch_13">
    <path d="M 522.519943 297.53208 
L 574.544057 297.53208 
Q 581.574343 297.53208 581.574343 290.56968 
L 581.574343 252.97272 
Q 581.574343 246.01032 574.544057 246.01032 
L 522.519943 246.01032 
Q 515.489657 246.01032 515.489657 252.97272 
L 515.489657 290.56968 
Q 515.489657 297.53208 522.519943 297.53208 
z
" clip-path="url(#pab5148ca5e)" style="fill: #7fb685"/>
   </g>
   <g id="patch_14">
    <path d="M 599.853086 297.53208 
L 651.8772 297.53208 
Q 658.907486 297.53208 658.907486 290.56968 
L 658.907486 252.97272 
Q 658.907486 246.01032 651.8772 246.01032 
L 599.853086 246.01032 
Q 592.8228 246.01032 592.8228 252.97272 
L 592.8228 290.56968 
Q 592.8228 297.53208 599.853086 297.53208 
z
" clip-path="url(#pab5148ca5e)" style="fill: #a8b5c4"/>
   </g>
   <g id="patch_15">
    <path d="M 192.096514 422.85528 
L 244.120629 422.85528 
Q 251.150914 422.85528 251.150914 415.89288 
L 251.150914 378.29592 
Q 251.150914 371.33352 244.120629 371.33352 
L 192.096514 371.33352 
Q 185.066229 371.33352 185.066229 378.29592 
L 185.066229 415.89288 
Q 185.066229 422.85528 192.096514 422.85528 
z
" clip-path="url(#pab5148ca5e)" style="fill: #6c9bc2"/>
   </g>
   <g id="patch_16">
    <path d="M 269.429657 422.85528 
L 321.453771 422.85528 
Q 328.484057 422.85528 328.484057 415.89288 
L 328.484057 378.29592 
Q 328.484057 371.33352 321.453771 371.33352 
L 269.429657 371.33352 
Q 262.399371 371.33352 262.399371 378.29592 
L 262.399371 415.89288 
Q 262.399371 422.85528 269.429657 422.85528 
z
" clip-path="url(#pab5148ca5e)" style="fill: #6c9bc2"/>
   </g>
   <g id="patch_17">
    <path d="M 346.7628 422.85528 
L 398.786914 422.85528 
Q 405.8172 422.85528 405.8172 415.89288 
L 405.8172 378.29592 
Q 405.8172 371.33352 398.786914 371.33352 
L 346.7628 371.33352 
Q 339.732514 371.33352 339.732514 378.29592 
L 339.732514 415.89288 
Q 339.732514 422.85528 346.7628 422.85528 
z
" clip-path="url(#pab5148ca5e)" style="fill: #6c9bc2"/>
   </g>
   <g id="patch_18">
    <path d="M 403.005086 422.85528 
L 497.210914 422.85528 
Q 504.2412 422.85528 504.2412 415.89288 
L 504.2412 378.29592 
Q 504.2412 371.33352 497.210914 371.33352 
L 403.005086 371.33352 
Q 395.9748 371.33352 395.9748 378.29592 
L 395.9748 415.89288 
Q 395.9748 422.85528 403.005086 422.85528 
z
" clip-path="url(#pab5148ca5e)" style="fill: #e8d07c"/>
   </g>
   <g id="patch_19">
    <path d="M 543.6108 422.85528 
L 595.634914 422.85528 
Q 602.6652 422.85528 602.6652 415.89288 
L 602.6652 378.29592 
Q 602.6652 371.33352 595.634914 371.33352 
L 543.6108 371.33352 
Q 536.580514 371.33352 536.580514 378.29592 
L 536.580514 415.89288 
Q 536.580514 422.85528 543.6108 422.85528 
z
" clip-path="url(#pab5148ca5e)" style="fill: #a8b5c4"/>
   </g>
   <g id="patch_20">
    <path d="M 181.551086 548.17848 
L 254.666057 548.17848 
Q 261.696343 548.17848 261.696343 541.21608 
L 261.696343 503.61912 
Q 261.696343 496.65672 254.666057 496.65672 
L 181.551086 496.65672 
Q 174.5208 496.65672 174.5208 503.61912 
L 174.5208 541.21608 
Q 174.5208 548.17848 181.551086 548.17848 
z
" clip-path="url(#pab5148ca5e)" style="fill: #b08fc7"/>
   </g>
   <g id="patch_21">
    <path d="M 290.520514 548.17848 
L 342.544629 548.17848 
Q 349.574914 548.17848 349.574914 541.21608 
L 349.574914 503.61912 
Q 349.574914 496.65672 342.544629 496.65672 
L 290.520514 496.65672 
Q 283.490229 496.65672 283.490229 503.61912 
L 283.490229 541.21608 
Q 283.490229 548.17848 290.520514 548.17848 
z
" clip-path="url(#pab5148ca5e)" style="fill: #6c9bc2"/>
   </g>
   <g id="patch_22">
    <path d="M 346.7628 548.17848 
L 440.968629 548.17848 
Q 447.998914 548.17848 447.998914 541.21608 
L 447.998914 503.61912 
Q 447.998914 496.65672 440.968629 496.65672 
L 346.7628 496.65672 
Q 339.732514 496.65672 339.732514 503.61912 
L 339.732514 541.21608 
Q 339.732514 548.17848 346.7628 548.17848 
z
" clip-path="url(#pab5148ca5e)" style="fill: #e8d07c"/>
   </g>
   <g id="patch_23">
    <path d="M 487.368514 548.17848 
L 539.392629 548.17848 
Q 546.422914 548.17848 546.422914 541.21608 
L 546.422914 503.61912 
Q 546.422914 496.65672 539.392629 496.65672 
L 487.368514 496.65672 
Q 480.338229 496.65672 480.338229 503.61912 
L 480.338229 541.21608 
Q 480.338229 548.17848 487.368514 548.17848 
z
" clip-path="url(#pab5148ca5e)" style="fill: #a8b5c4"/>
   </g>
   <g id="patch_24">
    <path d="M 712.337657 621.28368 
L 736.240629 621.28368 
Q 739.755771 621.28368 739.755771 617.80248 
L 739.755771 604.57392 
Q 739.755771 601.09272 736.240629 601.09272 
L 712.337657 601.09272 
Q 708.822514 601.09272 708.822514 604.57392 
L 708.822514 617.80248 
Q 708.822514 621.28368 712.337657 621.28368 
z
" clip-path="url(#pab5148ca5e)" style="fill: #6c9bc2"/>
   </g>
   <g id="patch_25">
    <path d="M 712.337657 649.13328 
L 736.240629 649.13328 
Q 739.755771 649.13328 739.755771 645.65208 
L 739.755771 632.42352 
Q 739.755771 628.94232 736.240629 628.94232 
L 712.337657 628.94232 
Q 708.822514 628.94232 708.822514 632.42352 
L 708.822514 645.65208 
Q 708.822514 649.13328 712.337657 649.13328 
z
" clip-path="url(#pab5148ca5e)" style="fill: #e8a87c"/>
   </g>
   <g id="patch_26">
    <path d="M 712.337657 676.98288 
L 736.240629 676.98288 
Q 739.755771 676.98288 739.755771 673.50168 
L 739.755771 660.27312 
Q 739.755771 656.79192 736.240629 656.79192 
L 712.337657 656.79192 
Q 708.822514 656.79192 708.822514 660.27312 
L 708.822514 673.50168 
Q 708.822514 676.98288 712.337657 676.98288 
z
" clip-path="url(#pab5148ca5e)" style="fill: #e8d07c"/>
   </g>
   <g id="patch_27">
    <path d="M 712.337657 704.83248 
L 736.240629 704.83248 
Q 739.755771 704.83248 739.755771 701.35128 
L 739.755771 688.12272 
Q 739.755771 684.64152 736.240629 684.64152 
L 712.337657 684.64152 
Q 708.822514 684.64152 708.822514 688.12272 
L 708.822514 701.35128 
Q 708.822514 704.83248 712.337657 704.83248 
z
" clip-path="url(#pab5148ca5e)" style="fill: #b08fc7"/>
   </g>
   <g id="text_1">
    <!-- BPE Merge Process: Building Vocabulary -->
    <g style="fill: #4a4a4a" transform="translate(316.795 46.3645) scale(0.16 -0.16)">
     <defs>
      <path id="DejaVuSans-Bold-42" d="M 2456 2859 
Q 2741 2859 2887 2984 
Q 3034 3109 3034 3353 
Q 3034 3594 2887 3720 
Q 2741 3847 2456 3847 
L 1791 3847 
L 1791 2859 
L 2456 2859 
z
M 2497 819 
Q 2859 819 3042 972 
Q 3225 1125 3225 1434 
Q 3225 1738 3044 1889 
Q 2863 2041 2497 2041 
L 1791 2041 
L 1791 819 
L 2497 819 
z
M 3616 2497 
Q 4003 2384 4215 2081 
Q 4428 1778 4428 1338 
Q 4428 663 3972 331 
Q 3516 0 2584 0 
L 588 0 
L 588 4666 
L 2394 4666 
Q 3366 4666 3802 4372 
Q 4238 4078 4238 3431 
Q 4238 3091 4078 2852 
Q 3919 2613 3616 2497 
z
" transform="scale(0.015625)"/>
      <path id="DejaVuSans-Bold-50" d="M 588 4666 
L 2584 4666 
Q 3475 4666 3951 4270 
Q 4428 3875 4428 3144 
Q 4428 2409 3951 2014 
Q 3475 1619 2584 1619 
L 1791 1619 
L 1791 0 
L 588 0 
L 588 4666 
z
M 1791 3794 
L 1791 2491 
L 2456 2491 
Q 2806 2491 2997 2661 
Q 3188 2831 3188 3144 
Q 3188 3456 2997 3625 
Q 2806 3794 2456 3794 
L 1791 3794 
z
" transform="scale(0.015625)"/>
      <path id="DejaVuSans-Bold-45" d="M 588 4666 
L 3834 4666 
L 3834 3756 
L 1791 3756 
L 1791 2888 
L 3713 2888 
L 3713 1978 
L 1791 1978 
L 1791 909 
L 3903 909 
L 3903 0 
L 588 0 
L 588 4666 
z
" transform="scale(0.015625)"/>
      <path id="DejaVuSans-Bold-20" transform="scale(0.015625)"/>
      <path id="DejaVuSans-Bold-4d" d="M 588 4666 
L 2119 4666 
L 3181 2169 
L 4250 4666 
L 5778 4666 
L 5778 0 
L 4641 0 
L 4641 3413 
L 3566 897 
L 2803 897 
L 1728 3413 
L 1728 0 
L 588 0 
L 588 4666 
z
" transform="scale(0.015625)"/>
      <path id="DejaVuSans-Bold-65" d="M 4031 1759 
L 4031 1441 
L 1416 1441 
Q 1456 1047 1700 850 
Q 1944 653 2381 653 
Q 2734 653 3104 758 
Q 3475 863 3866 1075 
L 3866 213 
Q 3469 63 3072 -14 
Q 2675 -91 2278 -91 
Q 1328 -91 801 392 
Q 275 875 275 1747 
Q 275 2603 792 3093 
Q 1309 3584 2216 3584 
Q 3041 3584 3536 3087 
Q 4031 2591 4031 1759 
z
M 2881 2131 
Q 2881 2450 2695 2645 
Q 2509 2841 2209 2841 
Q 1884 2841 1681 2658 
Q 1478 2475 1428 2131 
L 2881 2131 
z
" transform="scale(0.015625)"/>
      <path id="DejaVuSans-Bold-72" d="M 3138 2547 
Q 2991 2616 2845 2648 
Q 2700 2681 2553 2681 
Q 2122 2681 1889 2404 
Q 1656 2128 1656 1613 
L 1656 0 
L 538 0 
L 538 3500 
L 1656 3500 
L 1656 2925 
Q 1872 3269 2151 3426 
Q 2431 3584 2822 3584 
Q 2878 3584 2943 3579 
Q 3009 3575 3134 3559 
L 3138 2547 
z
" transform="scale(0.015625)"/>
      <path id="DejaVuSans-Bold-67" d="M 2919 594 
Q 2688 288 2409 144 
Q 2131 0 1766 0 
Q 1125 0 706 504 
Q 288 1009 288 1791 
Q 288 2575 706 3076 
Q 1125 3578 1766 3578 
Q 2131 3578 2409 3434 
Q 2688 3291 2919 2981 
L 2919 3500 
L 4044 3500 
L 4044 353 
Q 4044 -491 3511 -936 
Q 2978 -1381 1966 -1381 
Q 1638 -1381 1331 -1331 
Q 1025 -1281 716 -1178 
L 716 -306 
Q 1009 -475 1290 -558 
Q 1572 -641 1856 -641 
Q 2406 -641 2662 -400 
Q 2919 -159 2919 353 
L 2919 594 
z
M 2181 2772 
Q 1834 2772 1640 2515 
Q 1447 2259 1447 1791 
Q 1447 1309 1634 1061 
Q 1822 813 2181 813 
Q 2531 813 2725 1069 
Q 2919 1325 2919 1791 
Q 2919 2259 2725 2515 
Q 2531 2772 2181 2772 
z
" transform="scale(0.015625)"/>
      <path id="DejaVuSans-Bold-6f" d="M 2203 2784 
Q 1831 2784 1636 2517 
Q 1441 2250 1441 1747 
Q 1441 1244 1636 976 
Q 1831 709 2203 709 
Q 2569 709 2762 976 
Q 2956 1244 2956 1747 
Q 2956 2250 2762 2517 
Q 2569 2784 2203 2784 
z
M 2203 3584 
Q 3106 3584 3614 3096 
Q 4122 2609 4122 1747 
Q 4122 884 3614 396 
Q 3106 -91 2203 -91 
Q 1297 -91 786 396 
Q 275 884 275 1747 
Q 275 2609 786 3096 
Q 1297 3584 2203 3584 
z
" transform="scale(0.015625)"/>
      <path id="DejaVuSans-Bold-63" d="M 3366 3391 
L 3366 2478 
Q 3138 2634 2908 2709 
Q 2678 2784 2431 2784 
Q 1963 2784 1702 2511 
Q 1441 2238 1441 1747 
Q 1441 1256 1702 982 
Q 1963 709 2431 709 
Q 2694 709 2930 787 
Q 3166 866 3366 1019 
L 3366 103 
Q 3103 6 2833 -42 
Q 2563 -91 2291 -91 
Q 1344 -91 809 395 
Q 275 881 275 1747 
Q 275 2613 809 3098 
Q 1344 3584 2291 3584 
Q 2566 3584 2833 3536 
Q 3100 3488 3366 3391 
z
" transform="scale(0.015625)"/>
      <path id="DejaVuSans-Bold-73" d="M 3272 3391 
L 3272 2541 
Q 2913 2691 2578 2766 
Q 2244 2841 1947 2841 
Q 1628 2841 1473 2761 
Q 1319 2681 1319 2516 
Q 1319 2381 1436 2309 
Q 1553 2238 1856 2203 
L 2053 2175 
Q 2913 2066 3209 1816 
Q 3506 1566 3506 1031 
Q 3506 472 3093 190 
Q 2681 -91 1863 -91 
Q 1516 -91 1145 -36 
Q 775 19 384 128 
L 384 978 
Q 719 816 1070 734 
Q 1422 653 1784 653 
Q 2113 653 2278 743 
Q 2444 834 2444 1013 
Q 2444 1163 2330 1236 
Q 2216 1309 1875 1350 
L 1678 1375 
Q 931 1469 631 1722 
Q 331 1975 331 2491 
Q 331 3047 712 3315 
Q 1094 3584 1881 3584 
Q 2191 3584 2531 3537 
Q 2872 3491 3272 3391 
z
" transform="scale(0.015625)"/>
      <path id="DejaVuSans-Bold-3a" d="M 716 3500 
L 1844 3500 
L 1844 2291 
L 716 2291 
L 716 3500 
z
M 716 1209 
L 1844 1209 
L 1844 0 
L 716 0 
L 716 1209 
z
" transform="scale(0.015625)"/>
      <path id="DejaVuSans-Bold-75" d="M 500 1363 
L 500 3500 
L 1625 3500 
L 1625 3150 
Q 1625 2866 1622 2436 
Q 1619 2006 1619 1863 
Q 1619 1441 1641 1255 
Q 1663 1069 1716 984 
Q 1784 875 1895 815 
Q 2006 756 2150 756 
Q 2500 756 2700 1025 
Q 2900 1294 2900 1772 
L 2900 3500 
L 4019 3500 
L 4019 0 
L 2900 0 
L 2900 506 
Q 2647 200 2364 54 
Q 2081 -91 1741 -91 
Q 1134 -91 817 281 
Q 500 653 500 1363 
z
" transform="scale(0.015625)"/>
      <path id="DejaVuSans-Bold-69" d="M 538 3500 
L 1656 3500 
L 1656 0 
L 538 0 
L 538 3500 
z
M 538 4863 
L 1656 4863 
L 1656 3950 
L 538 3950 
L 538 4863 
z
" transform="scale(0.015625)"/>
      <path id="DejaVuSans-Bold-6c" d="M 538 4863 
L 1656 4863 
L 1656 0 
L 538 0 
L 538 4863 
z
" transform="scale(0.015625)"/>
      <path id="DejaVuSans-Bold-64" d="M 2919 2988 
L 2919 4863 
L 4044 4863 
L 4044 0 
L 2919 0 
L 2919 506 
Q 2688 197 2409 53 
Q 2131 -91 1766 -91 
Q 1119 -91 703 423 
Q 288 938 288 1747 
Q 288 2556 703 3070 
Q 1119 3584 1766 3584 
Q 2128 3584 2408 3439 
Q 2688 3294 2919 2988 
z
M 2181 722 
Q 2541 722 2730 984 
Q 2919 1247 2919 1747 
Q 2919 2247 2730 2509 
Q 2541 2772 2181 2772 
Q 1825 2772 1636 2509 
Q 1447 2247 1447 1747 
Q 1447 1247 1636 984 
Q 1825 722 2181 722 
z
" transform="scale(0.015625)"/>
      <path id="DejaVuSans-Bold-6e" d="M 4056 2131 
L 4056 0 
L 2931 0 
L 2931 347 
L 2931 1631 
Q 2931 2084 2911 2256 
Q 2891 2428 2841 2509 
Q 2775 2619 2662 2680 
Q 2550 2741 2406 2741 
Q 2056 2741 1856 2470 
Q 1656 2200 1656 1722 
L 1656 0 
L 538 0 
L 538 3500 
L 1656 3500 
L 1656 2988 
Q 1909 3294 2193 3439 
Q 2478 3584 2822 3584 
Q 3428 3584 3742 3212 
Q 4056 2841 4056 2131 
z
" transform="scale(0.015625)"/>
      <path id="DejaVuSans-Bold-56" d="M 31 4666 
L 1241 4666 
L 2478 1222 
L 3713 4666 
L 4922 4666 
L 3194 0 
L 1759 0 
L 31 4666 
z
" transform="scale(0.015625)"/>
      <path id="DejaVuSans-Bold-61" d="M 2106 1575 
Q 1756 1575 1579 1456 
Q 1403 1338 1403 1106 
Q 1403 894 1545 773 
Q 1688 653 1941 653 
Q 2256 653 2472 879 
Q 2688 1106 2688 1447 
L 2688 1575 
L 2106 1575 
z
M 3816 1997 
L 3816 0 
L 2688 0 
L 2688 519 
Q 2463 200 2181 54 
Q 1900 -91 1497 -91 
Q 953 -91 614 226 
Q 275 544 275 1050 
Q 275 1666 698 1953 
Q 1122 2241 2028 2241 
L 2688 2241 
L 2688 2328 
Q 2688 2594 2478 2717 
Q 2269 2841 1825 2841 
Q 1466 2841 1156 2769 
Q 847 2697 581 2553 
L 581 3406 
Q 941 3494 1303 3539 
Q 1666 3584 2028 3584 
Q 2975 3584 3395 3211 
Q 3816 2838 3816 1997 
z
" transform="scale(0.015625)"/>
      <path id="DejaVuSans-Bold-62" d="M 2400 722 
Q 2759 722 2948 984 
Q 3138 1247 3138 1747 
Q 3138 2247 2948 2509 
Q 2759 2772 2400 2772 
Q 2041 2772 1848 2508 
Q 1656 2244 1656 1747 
Q 1656 1250 1848 986 
Q 2041 722 2400 722 
z
M 1656 2988 
Q 1888 3294 2169 3439 
Q 2450 3584 2816 3584 
Q 3463 3584 3878 3070 
Q 4294 2556 4294 1747 
Q 4294 938 3878 423 
Q 3463 -91 2816 -91 
Q 2450 -91 2169 54 
Q 1888 200 1656 506 
L 1656 0 
L 538 0 
L 538 4863 
L 1656 4863 
L 1656 2988 
z
" transform="scale(0.015625)"/>
      <path id="DejaVuSans-Bold-79" d="M 78 3500 
L 1197 3500 
L 2138 1125 
L 2938 3500 
L 4056 3500 
L 2584 -331 
Q 2363 -916 2067 -1148 
Q 1772 -1381 1288 -1381 
L 641 -1381 
L 641 -647 
L 991 -647 
Q 1275 -647 1404 -556 
Q 1534 -466 1606 -231 
L 1638 -134 
L 78 3500 
z
" transform="scale(0.015625)"/>
     </defs>
     <use xlink:href="#DejaVuSans-Bold-42"/>
     <use xlink:href="#DejaVuSans-Bold-50" x="76.220703"/>
     <use xlink:href="#DejaVuSans-Bold-45" x="149.511719"/>
     <use xlink:href="#DejaVuSans-Bold-20" x="217.822266"/>
     <use xlink:href="#DejaVuSans-Bold-4d" x="252.636719"/>
     <use xlink:href="#DejaVuSans-Bold-65" x="352.148438"/>
     <use xlink:href="#DejaVuSans-Bold-72" x="419.970703"/>
     <use xlink:href="#DejaVuSans-Bold-67" x="469.287109"/>
     <use xlink:href="#DejaVuSans-Bold-65" x="540.869141"/>
     <use xlink:href="#DejaVuSans-Bold-20" x="608.691406"/>
     <use xlink:href="#DejaVuSans-Bold-50" x="643.505859"/>
     <use xlink:href="#DejaVuSans-Bold-72" x="716.796875"/>
     <use xlink:href="#DejaVuSans-Bold-6f" x="766.113281"/>
     <use xlink:href="#DejaVuSans-Bold-63" x="834.814453"/>
     <use xlink:href="#DejaVuSans-Bold-65" x="894.091797"/>
     <use xlink:href="#DejaVuSans-Bold-73" x="961.914062"/>
     <use xlink:href="#DejaVuSans-Bold-73" x="1021.435547"/>
     <use xlink:href="#DejaVuSans-Bold-3a" x="1080.957031"/>
     <use xlink:href="#DejaVuSans-Bold-20" x="1120.947266"/>
     <use xlink:href="#DejaVuSans-Bold-42" x="1155.761719"/>
     <use xlink:href="#DejaVuSans-Bold-75" x="1231.982422"/>
     <use xlink:href="#DejaVuSans-Bold-69" x="1303.173828"/>
     <use xlink:href="#DejaVuSans-Bold-6c" x="1337.451172"/>
     <use xlink:href="#DejaVuSans-Bold-64" x="1371.728516"/>
     <use xlink:href="#DejaVuSans-Bold-69" x="1443.310547"/>
     <use xlink:href="#DejaVuSans-Bold-6e" x="1477.587891"/>
     <use xlink:href="#DejaVuSans-Bold-67" x="1548.779297"/>
     <use xlink:href="#DejaVuSans-Bold-20" x="1620.361328"/>
     <use xlink:href="#DejaVuSans-Bold-56" x="1655.175781"/>
     <use xlink:href="#DejaVuSans-Bold-6f" x="1727.068359"/>
     <use xlink:href="#DejaVuSans-Bold-63" x="1795.769531"/>
     <use xlink:href="#DejaVuSans-Bold-61" x="1855.046875"/>
     <use xlink:href="#DejaVuSans-Bold-62" x="1922.527344"/>
     <use xlink:href="#DejaVuSans-Bold-75" x="1994.109375"/>
     <use xlink:href="#DejaVuSans-Bold-6c" x="2065.300781"/>
     <use xlink:href="#DejaVuSans-Bold-61" x="2099.578125"/>
     <use xlink:href="#DejaVuSans-Bold-72" x="2167.058594"/>
     <use xlink:href="#DejaVuSans-Bold-79" x="2216.375"/>
    </g>
   </g>
   <g id="text_2">
    <!-- Step 0 -->
    <g style="fill: #4a4a4a" transform="translate(43.44377 149.483312) scale(0.11 -0.11)">
     <defs>
      <path id="DejaVuSans-Bold-53" d="M 3834 4519 
L 3834 3531 
Q 3450 3703 3084 3790 
Q 2719 3878 2394 3878 
Q 1963 3878 1756 3759 
Q 1550 3641 1550 3391 
Q 1550 3203 1689 3098 
Q 1828 2994 2194 2919 
L 2706 2816 
Q 3484 2659 3812 2340 
Q 4141 2022 4141 1434 
Q 4141 663 3683 286 
Q 3225 -91 2284 -91 
Q 1841 -91 1394 -6 
Q 947 78 500 244 
L 500 1259 
Q 947 1022 1364 901 
Q 1781 781 2169 781 
Q 2563 781 2772 912 
Q 2981 1044 2981 1288 
Q 2981 1506 2839 1625 
Q 2697 1744 2272 1838 
L 1806 1941 
Q 1106 2091 782 2419 
Q 459 2747 459 3303 
Q 459 4000 909 4375 
Q 1359 4750 2203 4750 
Q 2588 4750 2994 4692 
Q 3400 4634 3834 4519 
z
" transform="scale(0.015625)"/>
      <path id="DejaVuSans-Bold-74" d="M 1759 4494 
L 1759 3500 
L 2913 3500 
L 2913 2700 
L 1759 2700 
L 1759 1216 
Q 1759 972 1856 886 
Q 1953 800 2241 800 
L 2816 800 
L 2816 0 
L 1856 0 
Q 1194 0 917 276 
Q 641 553 641 1216 
L 641 2700 
L 84 2700 
L 84 3500 
L 641 3500 
L 641 4494 
L 1759 4494 
z
" transform="scale(0.015625)"/>
      <path id="DejaVuSans-Bold-70" d="M 1656 506 
L 1656 -1331 
L 538 -1331 
L 538 3500 
L 1656 3500 
L 1656 2988 
Q 1888 3294 2169 3439 
Q 2450 3584 2816 3584 
Q 3463 3584 3878 3070 
Q 4294 2556 4294 1747 
Q 4294 938 3878 423 
Q 3463 -91 2816 -91 
Q 2450 -91 2169 54 
Q 1888 200 1656 506 
z
M 2400 2772 
Q 2041 2772 1848 2508 
Q 1656 2244 1656 1747 
Q 1656 1250 1848 986 
Q 2041 722 2400 722 
Q 2759 722 2948 984 
Q 3138 1247 3138 1747 
Q 3138 2247 2948 2509 
Q 2759 2772 2400 2772 
z
" transform="scale(0.015625)"/>
      <path id="DejaVuSans-Bold-30" d="M 2944 2338 
Q 2944 3213 2780 3570 
Q 2616 3928 2228 3928 
Q 1841 3928 1675 3570 
Q 1509 3213 1509 2338 
Q 1509 1453 1675 1090 
Q 1841 728 2228 728 
Q 2613 728 2778 1090 
Q 2944 1453 2944 2338 
z
M 4147 2328 
Q 4147 1169 3647 539 
Q 3147 -91 2228 -91 
Q 1306 -91 806 539 
Q 306 1169 306 2328 
Q 306 3491 806 4120 
Q 1306 4750 2228 4750 
Q 3147 4750 3647 4120 
Q 4147 3491 4147 2328 
z
" transform="scale(0.015625)"/>
     </defs>
     <use xlink:href="#DejaVuSans-Bold-53"/>
     <use xlink:href="#DejaVuSans-Bold-74" x="72.021484"/>
     <use xlink:href="#DejaVuSans-Bold-65" x="119.824219"/>
     <use xlink:href="#DejaVuSans-Bold-70" x="187.646484"/>
     <use xlink:href="#DejaVuSans-Bold-20" x="259.228516"/>
     <use xlink:href="#DejaVuSans-Bold-30" x="294.042969"/>
    </g>
   </g>
   <g id="text_3">
    <!-- Initial -->
    <g style="fill: #a8b5c4" transform="translate(50.990645 178.704422) scale(0.09 -0.09)">
     <defs>
      <path id="DejaVuSans-49" d="M 628 4666 
L 1259 4666 
L 1259 0 
L 628 0 
L 628 4666 
z
" transform="scale(0.015625)"/>
      <path id="DejaVuSans-6e" d="M 3513 2113 
L 3513 0 
L 2938 0 
L 2938 2094 
Q 2938 2591 2744 2837 
Q 2550 3084 2163 3084 
Q 1697 3084 1428 2787 
Q 1159 2491 1159 1978 
L 1159 0 
L 581 0 
L 581 3500 
L 1159 3500 
L 1159 2956 
Q 1366 3272 1645 3428 
Q 1925 3584 2291 3584 
Q 2894 3584 3203 3211 
Q 3513 2838 3513 2113 
z
" transform="scale(0.015625)"/>
      <path id="DejaVuSans-69" d="M 603 3500 
L 1178 3500 
L 1178 0 
L 603 0 
L 603 3500 
z
M 603 4863 
L 1178 4863 
L 1178 4134 
L 603 4134 
L 603 4863 
z
" transform="scale(0.015625)"/>
      <path id="DejaVuSans-74" d="M 1172 4494 
L 1172 3500 
L 2356 3500 
L 2356 3053 
L 1172 3053 
L 1172 1153 
Q 1172 725 1289 603 
Q 1406 481 1766 481 
L 2356 481 
L 2356 0 
L 1766 0 
Q 1100 0 847 248 
Q 594 497 594 1153 
L 594 3053 
L 172 3053 
L 172 3500 
L 594 3500 
L 594 4494 
L 1172 4494 
z
" transform="scale(0.015625)"/>
      <path id="DejaVuSans-61" d="M 2194 1759 
Q 1497 1759 1228 1600 
Q 959 1441 959 1056 
Q 959 750 1161 570 
Q 1363 391 1709 391 
Q 2188 391 2477 730 
Q 2766 1069 2766 1631 
L 2766 1759 
L 2194 1759 
z
M 3341 1997 
L 3341 0 
L 2766 0 
L 2766 531 
Q 2569 213 2275 61 
Q 1981 -91 1556 -91 
Q 1019 -91 701 211 
Q 384 513 384 1019 
Q 384 1609 779 1909 
Q 1175 2209 1959 2209 
L 2766 2209 
L 2766 2266 
Q 2766 2663 2505 2880 
Q 2244 3097 1772 3097 
Q 1472 3097 1187 3025 
Q 903 2953 641 2809 
L 641 3341 
Q 956 3463 1253 3523 
Q 1550 3584 1831 3584 
Q 2591 3584 2966 3190 
Q 3341 2797 3341 1997 
z
" transform="scale(0.015625)"/>
      <path id="DejaVuSans-6c" d="M 603 4863 
L 1178 4863 
L 1178 0 
L 603 0 
L 603 4863 
z
" transform="scale(0.015625)"/>
     </defs>
     <use xlink:href="#DejaVuSans-49"/>
     <use xlink:href="#DejaVuSans-6e" x="29.492188"/>
     <use xlink:href="#DejaVuSans-69" x="92.871094"/>
     <use xlink:href="#DejaVuSans-74" x="120.654297"/>
     <use xlink:href="#DejaVuSans-69" x="159.863281"/>
     <use xlink:href="#DejaVuSans-61" x="187.646484"/>
     <use xlink:href="#DejaVuSans-6c" x="248.925781"/>
    </g>
    <!-- (characters) -->
    <g style="fill: #a8b5c4" transform="translate(36.037989 188.782453) scale(0.09 -0.09)">
     <defs>
      <path id="DejaVuSans-28" d="M 1984 4856 
Q 1566 4138 1362 3434 
Q 1159 2731 1159 2009 
Q 1159 1288 1364 580 
Q 1569 -128 1984 -844 
L 1484 -844 
Q 1016 -109 783 600 
Q 550 1309 550 2009 
Q 550 2706 781 3412 
Q 1013 4119 1484 4856 
L 1984 4856 
z
" transform="scale(0.015625)"/>
      <path id="DejaVuSans-63" d="M 3122 3366 
L 3122 2828 
Q 2878 2963 2633 3030 
Q 2388 3097 2138 3097 
Q 1578 3097 1268 2742 
Q 959 2388 959 1747 
Q 959 1106 1268 751 
Q 1578 397 2138 397 
Q 2388 397 2633 464 
Q 2878 531 3122 666 
L 3122 134 
Q 2881 22 2623 -34 
Q 2366 -91 2075 -91 
Q 1284 -91 818 406 
Q 353 903 353 1747 
Q 353 2603 823 3093 
Q 1294 3584 2113 3584 
Q 2378 3584 2631 3529 
Q 2884 3475 3122 3366 
z
" transform="scale(0.015625)"/>
      <path id="DejaVuSans-68" d="M 3513 2113 
L 3513 0 
L 2938 0 
L 2938 2094 
Q 2938 2591 2744 2837 
Q 2550 3084 2163 3084 
Q 1697 3084 1428 2787 
Q 1159 2491 1159 1978 
L 1159 0 
L 581 0 
L 581 4863 
L 1159 4863 
L 1159 2956 
Q 1366 3272 1645 3428 
Q 1925 3584 2291 3584 
Q 2894 3584 3203 3211 
Q 3513 2838 3513 2113 
z
" transform="scale(0.015625)"/>
      <path id="DejaVuSans-72" d="M 2631 2963 
Q 2534 3019 2420 3045 
Q 2306 3072 2169 3072 
Q 1681 3072 1420 2755 
Q 1159 2438 1159 1844 
L 1159 0 
L 581 0 
L 581 3500 
L 1159 3500 
L 1159 2956 
Q 1341 3275 1631 3429 
Q 1922 3584 2338 3584 
Q 2397 3584 2469 3576 
Q 2541 3569 2628 3553 
L 2631 2963 
z
" transform="scale(0.015625)"/>
      <path id="DejaVuSans-65" d="M 3597 1894 
L 3597 1613 
L 953 1613 
Q 991 1019 1311 708 
Q 1631 397 2203 397 
Q 2534 397 2845 478 
Q 3156 559 3463 722 
L 3463 178 
Q 3153 47 2828 -22 
Q 2503 -91 2169 -91 
Q 1331 -91 842 396 
Q 353 884 353 1716 
Q 353 2575 817 3079 
Q 1281 3584 2069 3584 
Q 2775 3584 3186 3129 
Q 3597 2675 3597 1894 
z
M 3022 2063 
Q 3016 2534 2758 2815 
Q 2500 3097 2075 3097 
Q 1594 3097 1305 2825 
Q 1016 2553 972 2059 
L 3022 2063 
z
" transform="scale(0.015625)"/>
      <path id="DejaVuSans-73" d="M 2834 3397 
L 2834 2853 
Q 2591 2978 2328 3040 
Q 2066 3103 1784 3103 
Q 1356 3103 1142 2972 
Q 928 2841 928 2578 
Q 928 2378 1081 2264 
Q 1234 2150 1697 2047 
L 1894 2003 
Q 2506 1872 2764 1633 
Q 3022 1394 3022 966 
Q 3022 478 2636 193 
Q 2250 -91 1575 -91 
Q 1294 -91 989 -36 
Q 684 19 347 128 
L 347 722 
Q 666 556 975 473 
Q 1284 391 1588 391 
Q 1994 391 2212 530 
Q 2431 669 2431 922 
Q 2431 1156 2273 1281 
Q 2116 1406 1581 1522 
L 1381 1569 
Q 847 1681 609 1914 
Q 372 2147 372 2553 
Q 372 3047 722 3315 
Q 1072 3584 1716 3584 
Q 2034 3584 2315 3537 
Q 2597 3491 2834 3397 
z
" transform="scale(0.015625)"/>
      <path id="DejaVuSans-29" d="M 513 4856 
L 1013 4856 
Q 1481 4119 1714 3412 
Q 1947 2706 1947 2009 
Q 1947 1309 1714 600 
Q 1481 -109 1013 -844 
L 513 -844 
Q 928 -128 1133 580 
Q 1338 1288 1338 2009 
Q 1338 2731 1133 3434 
Q 928 4138 513 4856 
z
" transform="scale(0.015625)"/>
     </defs>
     <use xlink:href="#DejaVuSans-28"/>
     <use xlink:href="#DejaVuSans-63" x="39.013672"/>
     <use xlink:href="#DejaVuSans-68" x="93.994141"/>
     <use xlink:href="#DejaVuSans-61" x="157.373047"/>
     <use xlink:href="#DejaVuSans-72" x="218.652344"/>
     <use xlink:href="#DejaVuSans-61" x="259.765625"/>
     <use xlink:href="#DejaVuSans-63" x="321.044922"/>
     <use xlink:href="#DejaVuSans-74" x="376.025391"/>
     <use xlink:href="#DejaVuSans-65" x="415.234375"/>
     <use xlink:href="#DejaVuSans-72" x="476.757812"/>
     <use xlink:href="#DejaVuSans-73" x="517.871094"/>
     <use xlink:href="#DejaVuSans-29" x="569.970703"/>
    </g>
   </g>
   <g id="text_4">
    <!-- Step 1 -->
    <g style="fill: #4a4a4a" transform="translate(43.44377 274.806512) scale(0.11 -0.11)">
     <defs>
      <path id="DejaVuSans-Bold-31" d="M 750 831 
L 1813 831 
L 1813 3847 
L 722 3622 
L 722 4441 
L 1806 4666 
L 2950 4666 
L 2950 831 
L 4013 831 
L 4013 0 
L 750 0 
L 750 831 
z
" transform="scale(0.015625)"/>
     </defs>
     <use xlink:href="#DejaVuSans-Bold-53"/>
     <use xlink:href="#DejaVuSans-Bold-74" x="72.021484"/>
     <use xlink:href="#DejaVuSans-Bold-65" x="119.824219"/>
     <use xlink:href="#DejaVuSans-Bold-70" x="187.646484"/>
     <use xlink:href="#DejaVuSans-Bold-20" x="259.228516"/>
     <use xlink:href="#DejaVuSans-Bold-31" x="294.042969"/>
    </g>
   </g>
   <g id="text_5">
    <!-- Merge (e,s) -->
    <g style="fill: #a8b5c4" transform="translate(37.909004 304.027622) scale(0.09 -0.09)">
     <defs>
      <path id="DejaVuSans-4d" d="M 628 4666 
L 1569 4666 
L 2759 1491 
L 3956 4666 
L 4897 4666 
L 4897 0 
L 4281 0 
L 4281 4097 
L 3078 897 
L 2444 897 
L 1241 4097 
L 1241 0 
L 628 0 
L 628 4666 
z
" transform="scale(0.015625)"/>
      <path id="DejaVuSans-67" d="M 2906 1791 
Q 2906 2416 2648 2759 
Q 2391 3103 1925 3103 
Q 1463 3103 1205 2759 
Q 947 2416 947 1791 
Q 947 1169 1205 825 
Q 1463 481 1925 481 
Q 2391 481 2648 825 
Q 2906 1169 2906 1791 
z
M 3481 434 
Q 3481 -459 3084 -895 
Q 2688 -1331 1869 -1331 
Q 1566 -1331 1297 -1286 
Q 1028 -1241 775 -1147 
L 775 -588 
Q 1028 -725 1275 -790 
Q 1522 -856 1778 -856 
Q 2344 -856 2625 -561 
Q 2906 -266 2906 331 
L 2906 616 
Q 2728 306 2450 153 
Q 2172 0 1784 0 
Q 1141 0 747 490 
Q 353 981 353 1791 
Q 353 2603 747 3093 
Q 1141 3584 1784 3584 
Q 2172 3584 2450 3431 
Q 2728 3278 2906 2969 
L 2906 3500 
L 3481 3500 
L 3481 434 
z
" transform="scale(0.015625)"/>
      <path id="DejaVuSans-20" transform="scale(0.015625)"/>
      <path id="DejaVuSans-2c" d="M 750 794 
L 1409 794 
L 1409 256 
L 897 -744 
L 494 -744 
L 750 256 
L 750 794 
z
" transform="scale(0.015625)"/>
     </defs>
     <use xlink:href="#DejaVuSans-4d"/>
     <use xlink:href="#DejaVuSans-65" x="86.279297"/>
     <use xlink:href="#DejaVuSans-72" x="147.802734"/>
     <use xlink:href="#DejaVuSans-67" x="187.166016"/>
     <use xlink:href="#DejaVuSans-65" x="250.642578"/>
     <use xlink:href="#DejaVuSans-20" x="312.166016"/>
     <use xlink:href="#DejaVuSans-28" x="343.953125"/>
     <use xlink:href="#DejaVuSans-65" x="382.966797"/>
     <use xlink:href="#DejaVuSans-2c" x="444.490234"/>
     <use xlink:href="#DejaVuSans-73" x="476.277344"/>
     <use xlink:href="#DejaVuSans-29" x="528.376953"/>
    </g>
    <!-- → "es" -->
    <g style="fill: #a8b5c4" transform="translate(48.988145 314.105653) scale(0.09 -0.09)">
     <defs>
      <path id="DejaVuSans-2192" d="M 5050 2147 
L 5050 1866 
L 3822 638 
L 3447 1013 
L 4175 1741 
L 366 1741 
L 366 2272 
L 4175 2272 
L 3447 3000 
L 3822 3375 
L 5050 2147 
z
" transform="scale(0.015625)"/>
      <path id="DejaVuSans-22" d="M 1147 4666 
L 1147 2931 
L 616 2931 
L 616 4666 
L 1147 4666 
z
M 2328 4666 
L 2328 2931 
L 1797 2931 
L 1797 4666 
L 2328 4666 
z
" transform="scale(0.015625)"/>
     </defs>
     <use xlink:href="#DejaVuSans-2192"/>
     <use xlink:href="#DejaVuSans-20" x="83.789062"/>
     <use xlink:href="#DejaVuSans-22" x="115.576172"/>
     <use xlink:href="#DejaVuSans-65" x="161.572266"/>
     <use xlink:href="#DejaVuSans-73" x="223.095703"/>
     <use xlink:href="#DejaVuSans-22" x="275.195312"/>
    </g>
   </g>
   <g id="text_6">
    <!-- Step 2 -->
    <g style="fill: #4a4a4a" transform="translate(43.44377 400.129712) scale(0.11 -0.11)">
     <defs>
      <path id="DejaVuSans-Bold-32" d="M 1844 884 
L 3897 884 
L 3897 0 
L 506 0 
L 506 884 
L 2209 2388 
Q 2438 2594 2547 2791 
Q 2656 2988 2656 3200 
Q 2656 3528 2436 3728 
Q 2216 3928 1850 3928 
Q 1569 3928 1234 3808 
Q 900 3688 519 3450 
L 519 4475 
Q 925 4609 1322 4679 
Q 1719 4750 2100 4750 
Q 2938 4750 3402 4381 
Q 3866 4013 3866 3353 
Q 3866 2972 3669 2642 
Q 3472 2313 2841 1759 
L 1844 884 
z
" transform="scale(0.015625)"/>
     </defs>
     <use xlink:href="#DejaVuSans-Bold-53"/>
     <use xlink:href="#DejaVuSans-Bold-74" x="72.021484"/>
     <use xlink:href="#DejaVuSans-Bold-65" x="119.824219"/>
     <use xlink:href="#DejaVuSans-Bold-70" x="187.646484"/>
     <use xlink:href="#DejaVuSans-Bold-20" x="259.228516"/>
     <use xlink:href="#DejaVuSans-Bold-32" x="294.042969"/>
    </g>
   </g>
   <g id="text_7">
    <!-- Merge (es,t) -->
    <g style="fill: #a8b5c4" transform="translate(36.144864 429.350822) scale(0.09 -0.09)">
     <use xlink:href="#DejaVuSans-4d"/>
     <use xlink:href="#DejaVuSans-65" x="86.279297"/>
     <use xlink:href="#DejaVuSans-72" x="147.802734"/>
     <use xlink:href="#DejaVuSans-67" x="187.166016"/>
     <use xlink:href="#DejaVuSans-65" x="250.642578"/>
     <use xlink:href="#DejaVuSans-20" x="312.166016"/>
     <use xlink:href="#DejaVuSans-28" x="343.953125"/>
     <use xlink:href="#DejaVuSans-65" x="382.966797"/>
     <use xlink:href="#DejaVuSans-73" x="444.490234"/>
     <use xlink:href="#DejaVuSans-2c" x="496.589844"/>
     <use xlink:href="#DejaVuSans-74" x="528.376953"/>
     <use xlink:href="#DejaVuSans-29" x="567.585938"/>
    </g>
    <!-- → "est" -->
    <g style="fill: #a8b5c4" transform="translate(47.224004 439.428853) scale(0.09 -0.09)">
     <use xlink:href="#DejaVuSans-2192"/>
     <use xlink:href="#DejaVuSans-20" x="83.789062"/>
     <use xlink:href="#DejaVuSans-22" x="115.576172"/>
     <use xlink:href="#DejaVuSans-65" x="161.572266"/>
     <use xlink:href="#DejaVuSans-73" x="223.095703"/>
     <use xlink:href="#DejaVuSans-74" x="275.195312"/>
     <use xlink:href="#DejaVuSans-22" x="314.404297"/>
    </g>
   </g>
   <g id="text_8">
    <!-- Step 3 -->
    <g style="fill: #4a4a4a" transform="translate(43.44377 525.452912) scale(0.11 -0.11)">
     <defs>
      <path id="DejaVuSans-Bold-33" d="M 2981 2516 
Q 3453 2394 3698 2092 
Q 3944 1791 3944 1325 
Q 3944 631 3412 270 
Q 2881 -91 1863 -91 
Q 1503 -91 1142 -33 
Q 781 25 428 141 
L 428 1069 
Q 766 900 1098 814 
Q 1431 728 1753 728 
Q 2231 728 2486 893 
Q 2741 1059 2741 1369 
Q 2741 1688 2480 1852 
Q 2219 2016 1709 2016 
L 1228 2016 
L 1228 2791 
L 1734 2791 
Q 2188 2791 2409 2933 
Q 2631 3075 2631 3366 
Q 2631 3634 2415 3781 
Q 2200 3928 1806 3928 
Q 1516 3928 1219 3862 
Q 922 3797 628 3669 
L 628 4550 
Q 984 4650 1334 4700 
Q 1684 4750 2022 4750 
Q 2931 4750 3382 4451 
Q 3834 4153 3834 3553 
Q 3834 3144 3618 2883 
Q 3403 2622 2981 2516 
z
" transform="scale(0.015625)"/>
     </defs>
     <use xlink:href="#DejaVuSans-Bold-53"/>
     <use xlink:href="#DejaVuSans-Bold-74" x="72.021484"/>
     <use xlink:href="#DejaVuSans-Bold-65" x="119.824219"/>
     <use xlink:href="#DejaVuSans-Bold-70" x="187.646484"/>
     <use xlink:href="#DejaVuSans-Bold-20" x="259.228516"/>
     <use xlink:href="#DejaVuSans-Bold-33" x="294.042969"/>
    </g>
   </g>
   <g id="text_9">
    <!-- Merge (l,o) -->
    <g style="fill: #a8b5c4" transform="translate(39.018536 554.674022) scale(0.09 -0.09)">
     <defs>
      <path id="DejaVuSans-6f" d="M 1959 3097 
Q 1497 3097 1228 2736 
Q 959 2375 959 1747 
Q 959 1119 1226 758 
Q 1494 397 1959 397 
Q 2419 397 2687 759 
Q 2956 1122 2956 1747 
Q 2956 2369 2687 2733 
Q 2419 3097 1959 3097 
z
M 1959 3584 
Q 2709 3584 3137 3096 
Q 3566 2609 3566 1747 
Q 3566 888 3137 398 
Q 2709 -91 1959 -91 
Q 1206 -91 779 398 
Q 353 888 353 1747 
Q 353 2609 779 3096 
Q 1206 3584 1959 3584 
z
" transform="scale(0.015625)"/>
     </defs>
     <use xlink:href="#DejaVuSans-4d"/>
     <use xlink:href="#DejaVuSans-65" x="86.279297"/>
     <use xlink:href="#DejaVuSans-72" x="147.802734"/>
     <use xlink:href="#DejaVuSans-67" x="187.166016"/>
     <use xlink:href="#DejaVuSans-65" x="250.642578"/>
     <use xlink:href="#DejaVuSans-20" x="312.166016"/>
     <use xlink:href="#DejaVuSans-28" x="343.953125"/>
     <use xlink:href="#DejaVuSans-6c" x="382.966797"/>
     <use xlink:href="#DejaVuSans-2c" x="410.75"/>
     <use xlink:href="#DejaVuSans-6f" x="442.537109"/>
     <use xlink:href="#DejaVuSans-29" x="503.71875"/>
    </g>
    <!-- → "lo" -->
    <g style="fill: #a8b5c4" transform="translate(50.097676 564.752053) scale(0.09 -0.09)">
     <use xlink:href="#DejaVuSans-2192"/>
     <use xlink:href="#DejaVuSans-20" x="83.789062"/>
     <use xlink:href="#DejaVuSans-22" x="115.576172"/>
     <use xlink:href="#DejaVuSans-6c" x="161.572266"/>
     <use xlink:href="#DejaVuSans-6f" x="189.355469"/>
     <use xlink:href="#DejaVuSans-22" x="250.537109"/>
    </g>
   </g>
   <g id="text_10">
    <!-- l -->
    <g style="fill: #4a4a4a" transform="translate(216.441696 149.75925) scale(0.12 -0.12)">
     <use xlink:href="#DejaVuSans-6c"/>
    </g>
   </g>
   <g id="text_11">
    <!-- o -->
    <g style="fill: #4a4a4a" transform="translate(291.770464 149.75925) scale(0.12 -0.12)">
     <use xlink:href="#DejaVuSans-6f"/>
    </g>
   </g>
   <g id="text_12">
    <!-- w -->
    <g style="fill: #4a4a4a" transform="translate(367.867982 149.75925) scale(0.12 -0.12)">
     <defs>
      <path id="DejaVuSans-77" d="M 269 3500 
L 844 3500 
L 1563 769 
L 2278 3500 
L 2956 3500 
L 3675 769 
L 4391 3500 
L 4966 3500 
L 4050 0 
L 3372 0 
L 2619 2869 
L 1863 0 
L 1184 0 
L 269 3500 
z
" transform="scale(0.015625)"/>
     </defs>
     <use xlink:href="#DejaVuSans-77"/>
    </g>
   </g>
   <g id="text_13">
    <!-- e -->
    <g style="fill: #4a4a4a" transform="translate(446.416125 149.75925) scale(0.12 -0.12)">
     <use xlink:href="#DejaVuSans-65"/>
    </g>
   </g>
   <g id="text_14">
    <!-- s -->
    <g style="fill: #4a4a4a" transform="translate(524.315518 149.75925) scale(0.12 -0.12)">
     <use xlink:href="#DejaVuSans-73"/>
    </g>
   </g>
   <g id="text_15">
    <!-- t -->
    <g style="fill: #4a4a4a" transform="translate(602.422098 149.75925) scale(0.12 -0.12)">
     <use xlink:href="#DejaVuSans-74"/>
    </g>
   </g>
   <g id="text_16">
    <!-- _ -->
    <g style="fill: #4a4a4a" transform="translate(679.107429 149.4255) scale(0.12 -0.12)">
     <defs>
      <path id="DejaVuSans-5f" d="M 3263 -1063 
L 3263 -1509 
L -63 -1509 
L -63 -1063 
L 3263 -1063 
z
" transform="scale(0.015625)"/>
     </defs>
     <use xlink:href="#DejaVuSans-5f"/>
    </g>
   </g>
   <g id="text_17">
    <!-- l -->
    <g style="fill: #4a4a4a" transform="translate(216.441696 275.08245) scale(0.12 -0.12)">
     <use xlink:href="#DejaVuSans-6c"/>
    </g>
   </g>
   <g id="text_18">
    <!-- o -->
    <g style="fill: #4a4a4a" transform="translate(291.770464 275.08245) scale(0.12 -0.12)">
     <use xlink:href="#DejaVuSans-6f"/>
    </g>
   </g>
   <g id="text_19">
    <!-- w -->
    <g style="fill: #4a4a4a" transform="translate(367.867982 275.08245) scale(0.12 -0.12)">
     <use xlink:href="#DejaVuSans-77"/>
    </g>
   </g>
   <g id="text_20">
    <!-- es -->
    <g style="fill: #4a4a4a" transform="translate(443.2905 275.08245) scale(0.12 -0.12)">
     <use xlink:href="#DejaVuSans-65"/>
     <use xlink:href="#DejaVuSans-73" x="61.523438"/>
    </g>
   </g>
   <g id="text_21">
    <!-- t -->
    <g style="fill: #4a4a4a" transform="translate(546.179812 275.08245) scale(0.12 -0.12)">
     <use xlink:href="#DejaVuSans-74"/>
    </g>
   </g>
   <g id="text_22">
    <!-- _ -->
    <g style="fill: #4a4a4a" transform="translate(622.865143 274.7487) scale(0.12 -0.12)">
     <use xlink:href="#DejaVuSans-5f"/>
    </g>
   </g>
   <g id="text_23">
    <!-- l -->
    <g style="fill: #4a4a4a" transform="translate(216.441696 400.40565) scale(0.12 -0.12)">
     <use xlink:href="#DejaVuSans-6c"/>
    </g>
   </g>
   <g id="text_24">
    <!-- o -->
    <g style="fill: #4a4a4a" transform="translate(291.770464 400.40565) scale(0.12 -0.12)">
     <use xlink:href="#DejaVuSans-6f"/>
    </g>
   </g>
   <g id="text_25">
    <!-- w -->
    <g style="fill: #4a4a4a" transform="translate(367.867982 400.40565) scale(0.12 -0.12)">
     <use xlink:href="#DejaVuSans-77"/>
    </g>
   </g>
   <g id="text_26">
    <!-- est -->
    <g style="fill: #4a4a4a" transform="translate(440.938312 400.40565) scale(0.12 -0.12)">
     <use xlink:href="#DejaVuSans-65"/>
     <use xlink:href="#DejaVuSans-73" x="61.523438"/>
     <use xlink:href="#DejaVuSans-74" x="113.623047"/>
    </g>
   </g>
   <g id="text_27">
    <!-- _ -->
    <g style="fill: #4a4a4a" transform="translate(566.622857 400.0719) scale(0.12 -0.12)">
     <use xlink:href="#DejaVuSans-5f"/>
    </g>
   </g>
   <g id="text_28">
    <!-- lo -->
    <g style="fill: #4a4a4a" transform="translate(212.770446 525.72885) scale(0.12 -0.12)">
     <use xlink:href="#DejaVuSans-6c"/>
     <use xlink:href="#DejaVuSans-6f" x="27.783203"/>
    </g>
   </g>
   <g id="text_29">
    <!-- w -->
    <g style="fill: #4a4a4a" transform="translate(311.625696 525.72885) scale(0.12 -0.12)">
     <use xlink:href="#DejaVuSans-77"/>
    </g>
   </g>
   <g id="text_30">
    <!-- est -->
    <g style="fill: #4a4a4a" transform="translate(384.696027 525.72885) scale(0.12 -0.12)">
     <use xlink:href="#DejaVuSans-65"/>
     <use xlink:href="#DejaVuSans-73" x="61.523438"/>
     <use xlink:href="#DejaVuSans-74" x="113.623047"/>
    </g>
   </g>
   <g id="text_31">
    <!-- _ -->
    <g style="fill: #4a4a4a" transform="translate(510.380571 525.3951) scale(0.12 -0.12)">
     <use xlink:href="#DejaVuSans-5f"/>
    </g>
   </g>
   <g id="patch_28">
    <path d="M 499.32 183.26237 
Q 499.32 209.109541 499.32 232.720644 
" style="fill: none; stroke: #a8b5c4; stroke-width: 2; stroke-linecap: round"/>
    <path d="M 501.52 228.320644 
L 499.32 232.720644 
L 497.12 228.320644 
" style="fill: none; stroke: #a8b5c4; stroke-width: 2; stroke-linecap: round"/>
   </g>
   <g id="patch_29">
    <path d="M 499.32 308.58557 
Q 499.32 334.432741 499.32 358.043844 
" style="fill: none; stroke: #a8b5c4; stroke-width: 2; stroke-linecap: round"/>
    <path d="M 501.52 353.643844 
L 499.32 358.043844 
L 497.12 353.643844 
" style="fill: none; stroke: #a8b5c4; stroke-width: 2; stroke-linecap: round"/>
   </g>
   <g id="patch_30">
    <path d="M 499.32 433.90877 
Q 499.32 459.755941 499.32 483.367044 
" style="fill: none; stroke: #a8b5c4; stroke-width: 2; stroke-linecap: round"/>
    <path d="M 501.52 478.967044 
L 499.32 483.367044 
L 497.12 478.967044 
" style="fill: none; stroke: #a8b5c4; stroke-width: 2; stroke-linecap: round"/>
   </g>
   <g id="text_32">
    <!-- Word: "lowest" -->
    <g style="fill: #4a4a4a" transform="translate(764.93692 149.75925) scale(0.12 -0.12)">
     <defs>
      <path id="DejaVuSans-Bold-57" d="M 191 4666 
L 1344 4666 
L 2150 1275 
L 2950 4666 
L 4109 4666 
L 4909 1275 
L 5716 4666 
L 6859 4666 
L 5759 0 
L 4372 0 
L 3525 3547 
L 2688 0 
L 1300 0 
L 191 4666 
z
" transform="scale(0.015625)"/>
      <path id="DejaVuSans-Bold-22" d="M 2725 4666 
L 2725 2931 
L 1984 2931 
L 1984 4666 
L 2725 4666 
z
M 1350 4666 
L 1350 2931 
L 609 2931 
L 609 4666 
L 1350 4666 
z
" transform="scale(0.015625)"/>
      <path id="DejaVuSans-Bold-77" d="M 225 3500 
L 1313 3500 
L 1900 1088 
L 2491 3500 
L 3425 3500 
L 4013 1113 
L 4603 3500 
L 5691 3500 
L 4769 0 
L 3547 0 
L 2956 2406 
L 2369 0 
L 1147 0 
L 225 3500 
z
" transform="scale(0.015625)"/>
     </defs>
     <use xlink:href="#DejaVuSans-Bold-57"/>
     <use xlink:href="#DejaVuSans-Bold-6f" x="106.677734"/>
     <use xlink:href="#DejaVuSans-Bold-72" x="175.378906"/>
     <use xlink:href="#DejaVuSans-Bold-64" x="224.695312"/>
     <use xlink:href="#DejaVuSans-Bold-3a" x="296.277344"/>
     <use xlink:href="#DejaVuSans-Bold-20" x="336.267578"/>
     <use xlink:href="#DejaVuSans-Bold-22" x="371.082031"/>
     <use xlink:href="#DejaVuSans-Bold-6c" x="423.181641"/>
     <use xlink:href="#DejaVuSans-Bold-6f" x="457.458984"/>
     <use xlink:href="#DejaVuSans-Bold-77" x="526.160156"/>
     <use xlink:href="#DejaVuSans-Bold-65" x="618.542969"/>
     <use xlink:href="#DejaVuSans-Bold-73" x="686.365234"/>
     <use xlink:href="#DejaVuSans-Bold-74" x="745.886719"/>
     <use xlink:href="#DejaVuSans-Bold-22" x="793.689453"/>
    </g>
   </g>
   <g id="text_33">
    <!-- Vocab: 11 -->
    <g style="fill: #a8b5c4" transform="translate(861.176339 149.207375) scale(0.1 -0.1)">
     <defs>
      <path id="DejaVuSans-Oblique-56" d="M 1319 0 
L 500 4666 
L 1119 4666 
L 1797 653 
L 4063 4666 
L 4750 4666 
L 2053 0 
L 1319 0 
z
" transform="scale(0.015625)"/>
      <path id="DejaVuSans-Oblique-6f" d="M 1625 -91 
Q 1009 -91 651 289 
Q 294 669 294 1325 
Q 294 1706 417 2101 
Q 541 2497 738 2766 
Q 1047 3184 1428 3384 
Q 1809 3584 2291 3584 
Q 2888 3584 3255 3212 
Q 3622 2841 3622 2241 
Q 3622 1825 3500 1412 
Q 3378 1000 3181 728 
Q 2875 309 2494 109 
Q 2113 -91 1625 -91 
z
M 891 1344 
Q 891 869 1089 633 
Q 1288 397 1691 397 
Q 2269 397 2648 901 
Q 3028 1406 3028 2181 
Q 3028 2634 2825 2865 
Q 2622 3097 2228 3097 
Q 1903 3097 1650 2945 
Q 1397 2794 1197 2484 
Q 1050 2253 970 1956 
Q 891 1659 891 1344 
z
" transform="scale(0.015625)"/>
      <path id="DejaVuSans-Oblique-63" d="M 3431 3366 
L 3316 2797 
Q 3109 2947 2876 3022 
Q 2644 3097 2394 3097 
Q 2119 3097 1870 3000 
Q 1622 2903 1453 2725 
Q 1184 2453 1037 2087 
Q 891 1722 891 1331 
Q 891 859 1127 628 
Q 1363 397 1844 397 
Q 2081 397 2348 469 
Q 2616 541 2906 684 
L 2797 116 
Q 2547 13 2283 -39 
Q 2019 -91 1741 -91 
Q 1044 -91 669 257 
Q 294 606 294 1253 
Q 294 1797 489 2255 
Q 684 2713 1069 3078 
Q 1331 3328 1684 3456 
Q 2038 3584 2456 3584 
Q 2700 3584 2940 3529 
Q 3181 3475 3431 3366 
z
" transform="scale(0.015625)"/>
      <path id="DejaVuSans-Oblique-61" d="M 3438 1997 
L 3047 0 
L 2472 0 
L 2578 531 
Q 2325 219 2001 64 
Q 1678 -91 1281 -91 
Q 834 -91 548 182 
Q 263 456 263 884 
Q 263 1497 752 1853 
Q 1241 2209 2100 2209 
L 2900 2209 
L 2931 2363 
Q 2938 2388 2941 2417 
Q 2944 2447 2944 2509 
Q 2944 2788 2717 2942 
Q 2491 3097 2081 3097 
Q 1800 3097 1504 3025 
Q 1209 2953 897 2809 
L 997 3341 
Q 1322 3463 1633 3523 
Q 1944 3584 2234 3584 
Q 2853 3584 3176 3315 
Q 3500 3047 3500 2534 
Q 3500 2431 3484 2292 
Q 3469 2153 3438 1997 
z
M 2816 1759 
L 2241 1759 
Q 1534 1759 1195 1570 
Q 856 1381 856 984 
Q 856 709 1029 553 
Q 1203 397 1509 397 
Q 1978 397 2328 733 
Q 2678 1069 2791 1631 
L 2816 1759 
z
" transform="scale(0.015625)"/>
      <path id="DejaVuSans-Oblique-62" d="M 3169 2138 
Q 3169 2591 2961 2847 
Q 2753 3103 2388 3103 
Q 2122 3103 1889 2973 
Q 1656 2844 1484 2597 
Q 1303 2338 1198 1995 
Q 1094 1653 1094 1313 
Q 1094 881 1298 636 
Q 1503 391 1863 391 
Q 2134 391 2365 517 
Q 2597 644 2772 891 
Q 2950 1147 3059 1487 
Q 3169 1828 3169 2138 
z
M 1381 2969 
Q 1594 3256 1914 3420 
Q 2234 3584 2584 3584 
Q 3122 3584 3439 3221 
Q 3756 2859 3756 2241 
Q 3756 1734 3570 1259 
Q 3384 784 3041 416 
Q 2816 172 2522 40 
Q 2228 -91 1906 -91 
Q 1566 -91 1316 65 
Q 1066 222 909 531 
L 806 0 
L 231 0 
L 1178 4863 
L 1753 4863 
L 1381 2969 
z
" transform="scale(0.015625)"/>
      <path id="DejaVuSans-Oblique-3a" d="M 978 3309 
L 1638 3309 
L 1484 2516 
L 825 2516 
L 978 3309 
z
M 488 794 
L 1147 794 
L 991 0 
L 331 0 
L 488 794 
z
" transform="scale(0.015625)"/>
      <path id="DejaVuSans-Oblique-20" transform="scale(0.015625)"/>
      <path id="DejaVuSans-Oblique-31" d="M 416 531 
L 1447 531 
L 2144 4122 
L 978 3897 
L 1088 4441 
L 2247 4666 
L 2881 4666 
L 2075 531 
L 3103 531 
L 3003 0 
L 313 0 
L 416 531 
z
" transform="scale(0.015625)"/>
     </defs>
     <use xlink:href="#DejaVuSans-Oblique-56"/>
     <use xlink:href="#DejaVuSans-Oblique-6f" x="62.533203"/>
     <use xlink:href="#DejaVuSans-Oblique-63" x="123.714844"/>
     <use xlink:href="#DejaVuSans-Oblique-61" x="178.695312"/>
     <use xlink:href="#DejaVuSans-Oblique-62" x="239.974609"/>
     <use xlink:href="#DejaVuSans-Oblique-3a" x="303.451172"/>
     <use xlink:href="#DejaVuSans-Oblique-20" x="337.142578"/>
     <use xlink:href="#DejaVuSans-Oblique-31" x="368.929688"/>
     <use xlink:href="#DejaVuSans-Oblique-31" x="432.552734"/>
    </g>
   </g>
   <g id="text_34">
    <!-- Vocab: 12 -->
    <g style="fill: #a8b5c4" transform="translate(861.176339 274.530575) scale(0.1 -0.1)">
     <defs>
      <path id="DejaVuSans-Oblique-32" d="M 2950 2253 
L 934 525 
L 3163 525 
L 3053 0 
L 25 0 
L 128 531 
L 2234 2338 
Q 2656 2703 2832 2979 
Q 3009 3256 3009 3547 
Q 3009 3850 2796 4040 
Q 2584 4231 2241 4231 
Q 1944 4231 1581 4125 
Q 1219 4019 806 3816 
L 922 4441 
Q 1309 4594 1662 4672 
Q 2016 4750 2316 4750 
Q 2928 4750 3301 4425 
Q 3675 4100 3675 3572 
Q 3675 3216 3497 2892 
Q 3319 2569 2950 2253 
z
" transform="scale(0.015625)"/>
     </defs>
     <use xlink:href="#DejaVuSans-Oblique-56"/>
     <use xlink:href="#DejaVuSans-Oblique-6f" x="62.533203"/>
     <use xlink:href="#DejaVuSans-Oblique-63" x="123.714844"/>
     <use xlink:href="#DejaVuSans-Oblique-61" x="178.695312"/>
     <use xlink:href="#DejaVuSans-Oblique-62" x="239.974609"/>
     <use xlink:href="#DejaVuSans-Oblique-3a" x="303.451172"/>
     <use xlink:href="#DejaVuSans-Oblique-20" x="337.142578"/>
     <use xlink:href="#DejaVuSans-Oblique-31" x="368.929688"/>
     <use xlink:href="#DejaVuSans-Oblique-32" x="432.552734"/>
    </g>
   </g>
   <g id="text_35">
    <!-- Vocab: 13 -->
    <g style="fill: #a8b5c4" transform="translate(861.176339 399.853775) scale(0.1 -0.1)">
     <defs>
      <path id="DejaVuSans-Oblique-33" d="M 1013 4550 
Q 1356 4650 1679 4700 
Q 2003 4750 2316 4750 
Q 2934 4750 3296 4475 
Q 3659 4200 3659 3738 
Q 3659 3284 3373 2959 
Q 3088 2634 2584 2516 
Q 2978 2403 3162 2165 
Q 3347 1928 3347 1538 
Q 3347 1163 3167 834 
Q 2988 506 2650 269 
Q 2394 88 2037 -1 
Q 1681 -91 1216 -91 
Q 922 -91 622 -33 
Q 322 25 13 141 
L 128 738 
Q 422 575 720 495 
Q 1019 416 1331 416 
Q 1947 416 2330 733 
Q 2713 1050 2713 1556 
Q 2713 1881 2469 2057 
Q 2225 2234 1772 2234 
L 1228 2234 
L 1325 2747 
L 1900 2747 
Q 2419 2747 2717 2984 
Q 3016 3222 3016 3628 
Q 3016 3922 2797 4083 
Q 2578 4244 2181 4244 
Q 1881 4244 1567 4180 
Q 1253 4116 916 3988 
L 1013 4550 
z
" transform="scale(0.015625)"/>
     </defs>
     <use xlink:href="#DejaVuSans-Oblique-56"/>
     <use xlink:href="#DejaVuSans-Oblique-6f" x="62.533203"/>
     <use xlink:href="#DejaVuSans-Oblique-63" x="123.714844"/>
     <use xlink:href="#DejaVuSans-Oblique-61" x="178.695312"/>
     <use xlink:href="#DejaVuSans-Oblique-62" x="239.974609"/>
     <use xlink:href="#DejaVuSans-Oblique-3a" x="303.451172"/>
     <use xlink:href="#DejaVuSans-Oblique-20" x="337.142578"/>
     <use xlink:href="#DejaVuSans-Oblique-31" x="368.929688"/>
     <use xlink:href="#DejaVuSans-Oblique-33" x="432.552734"/>
    </g>
   </g>
   <g id="text_36">
    <!-- Vocab: 14 -->
    <g style="fill: #a8b5c4" transform="translate(861.176339 525.176975) scale(0.1 -0.1)">
     <defs>
      <path id="DejaVuSans-Oblique-34" d="M 2753 4666 
L 3547 4666 
L 2950 1625 
L 3616 1625 
L 3513 1100 
L 2847 1100 
L 2638 0 
L 2009 0 
L 2222 1100 
L 116 1100 
L 238 1709 
L 2753 4666 
z
M 2809 4116 
L 728 1625 
L 2322 1625 
L 2809 4116 
z
" transform="scale(0.015625)"/>
     </defs>
     <use xlink:href="#DejaVuSans-Oblique-56"/>
     <use xlink:href="#DejaVuSans-Oblique-6f" x="62.533203"/>
     <use xlink:href="#DejaVuSans-Oblique-63" x="123.714844"/>
     <use xlink:href="#DejaVuSans-Oblique-61" x="178.695312"/>
     <use xlink:href="#DejaVuSans-Oblique-62" x="239.974609"/>
     <use xlink:href="#DejaVuSans-Oblique-3a" x="303.451172"/>
     <use xlink:href="#DejaVuSans-Oblique-20" x="337.142578"/>
     <use xlink:href="#DejaVuSans-Oblique-31" x="368.929688"/>
     <use xlink:href="#DejaVuSans-Oblique-34" x="432.552734"/>
    </g>
   </g>
   <g id="text_37">
    <g id="patch_31">
     <path d="M 752.023929 216.164756 
L 809.038929 216.164756 
Q 811.738929 216.164756 811.738929 213.464756 
L 811.738929 204.754444 
Q 811.738929 202.054444 809.038929 202.054444 
L 752.023929 202.054444 
Q 749.323929 202.054444 749.323929 204.754444 
L 749.323929 213.464756 
Q 749.323929 216.164756 752.023929 216.164756 
z
" style="fill: #f5f5f5"/>
    </g>
    <!-- freq(e,s) = 9 -->
    <g style="fill: #4a4a4a" transform="translate(752.023929 211.593037) scale(0.09 -0.09)">
     <defs>
      <path id="DejaVuSans-66" d="M 2375 4863 
L 2375 4384 
L 1825 4384 
Q 1516 4384 1395 4259 
Q 1275 4134 1275 3809 
L 1275 3500 
L 2222 3500 
L 2222 3053 
L 1275 3053 
L 1275 0 
L 697 0 
L 697 3053 
L 147 3053 
L 147 3500 
L 697 3500 
L 697 3744 
Q 697 4328 969 4595 
Q 1241 4863 1831 4863 
L 2375 4863 
z
" transform="scale(0.015625)"/>
      <path id="DejaVuSans-71" d="M 947 1747 
Q 947 1113 1208 752 
Q 1469 391 1925 391 
Q 2381 391 2643 752 
Q 2906 1113 2906 1747 
Q 2906 2381 2643 2742 
Q 2381 3103 1925 3103 
Q 1469 3103 1208 2742 
Q 947 2381 947 1747 
z
M 2906 525 
Q 2725 213 2448 61 
Q 2172 -91 1784 -91 
Q 1150 -91 751 415 
Q 353 922 353 1747 
Q 353 2572 751 3078 
Q 1150 3584 1784 3584 
Q 2172 3584 2448 3432 
Q 2725 3281 2906 2969 
L 2906 3500 
L 3481 3500 
L 3481 -1331 
L 2906 -1331 
L 2906 525 
z
" transform="scale(0.015625)"/>
      <path id="DejaVuSans-3d" d="M 678 2906 
L 4684 2906 
L 4684 2381 
L 678 2381 
L 678 2906 
z
M 678 1631 
L 4684 1631 
L 4684 1100 
L 678 1100 
L 678 1631 
z
" transform="scale(0.015625)"/>
      <path id="DejaVuSans-39" d="M 703 97 
L 703 672 
Q 941 559 1184 500 
Q 1428 441 1663 441 
Q 2288 441 2617 861 
Q 2947 1281 2994 2138 
Q 2813 1869 2534 1725 
Q 2256 1581 1919 1581 
Q 1219 1581 811 2004 
Q 403 2428 403 3163 
Q 403 3881 828 4315 
Q 1253 4750 1959 4750 
Q 2769 4750 3195 4129 
Q 3622 3509 3622 2328 
Q 3622 1225 3098 567 
Q 2575 -91 1691 -91 
Q 1453 -91 1209 -44 
Q 966 3 703 97 
z
M 1959 2075 
Q 2384 2075 2632 2365 
Q 2881 2656 2881 3163 
Q 2881 3666 2632 3958 
Q 2384 4250 1959 4250 
Q 1534 4250 1286 3958 
Q 1038 3666 1038 3163 
Q 1038 2656 1286 2365 
Q 1534 2075 1959 2075 
z
" transform="scale(0.015625)"/>
     </defs>
     <use xlink:href="#DejaVuSans-66"/>
     <use xlink:href="#DejaVuSans-72" x="35.205078"/>
     <use xlink:href="#DejaVuSans-65" x="74.068359"/>
     <use xlink:href="#DejaVuSans-71" x="135.591797"/>
     <use xlink:href="#DejaVuSans-28" x="199.068359"/>
     <use xlink:href="#DejaVuSans-65" x="238.082031"/>
     <use xlink:href="#DejaVuSans-2c" x="299.605469"/>
     <use xlink:href="#DejaVuSans-73" x="331.392578"/>
     <use xlink:href="#DejaVuSans-29" x="383.492188"/>
     <use xlink:href="#DejaVuSans-20" x="422.505859"/>
     <use xlink:href="#DejaVuSans-3d" x="454.292969"/>
     <use xlink:href="#DejaVuSans-20" x="538.082031"/>
     <use xlink:href="#DejaVuSans-39" x="569.869141"/>
    </g>
   </g>
   <g id="text_38">
    <g id="patch_32">
     <path d="M 750.259788 341.487956 
L 810.803069 341.487956 
Q 813.503069 341.487956 813.503069 338.787956 
L 813.503069 330.077644 
Q 813.503069 327.377644 810.803069 327.377644 
L 750.259788 327.377644 
Q 747.559788 327.377644 747.559788 330.077644 
L 747.559788 338.787956 
Q 747.559788 341.487956 750.259788 341.487956 
z
" style="fill: #f5f5f5"/>
    </g>
    <!-- freq(es,t) = 9 -->
    <g style="fill: #4a4a4a" transform="translate(750.259788 336.916237) scale(0.09 -0.09)">
     <use xlink:href="#DejaVuSans-66"/>
     <use xlink:href="#DejaVuSans-72" x="35.205078"/>
     <use xlink:href="#DejaVuSans-65" x="74.068359"/>
     <use xlink:href="#DejaVuSans-71" x="135.591797"/>
     <use xlink:href="#DejaVuSans-28" x="199.068359"/>
     <use xlink:href="#DejaVuSans-65" x="238.082031"/>
     <use xlink:href="#DejaVuSans-73" x="299.605469"/>
     <use xlink:href="#DejaVuSans-2c" x="351.705078"/>
     <use xlink:href="#DejaVuSans-74" x="383.492188"/>
     <use xlink:href="#DejaVuSans-29" x="422.701172"/>
     <use xlink:href="#DejaVuSans-20" x="461.714844"/>
     <use xlink:href="#DejaVuSans-3d" x="493.501953"/>
     <use xlink:href="#DejaVuSans-20" x="577.291016"/>
     <use xlink:href="#DejaVuSans-39" x="609.078125"/>
    </g>
   </g>
   <g id="text_39">
    <g id="patch_33">
     <path d="M 753.13346 466.811156 
L 807.929397 466.811156 
Q 810.629397 466.811156 810.629397 464.111156 
L 810.629397 455.400844 
Q 810.629397 452.700844 807.929397 452.700844 
L 753.13346 452.700844 
Q 750.43346 452.700844 750.43346 455.400844 
L 750.43346 464.111156 
Q 750.43346 466.811156 753.13346 466.811156 
z
" style="fill: #f5f5f5"/>
    </g>
    <!-- freq(l,o) = 7 -->
    <g style="fill: #4a4a4a" transform="translate(753.13346 462.239438) scale(0.09 -0.09)">
     <defs>
      <path id="DejaVuSans-37" d="M 525 4666 
L 3525 4666 
L 3525 4397 
L 1831 0 
L 1172 0 
L 2766 4134 
L 525 4134 
L 525 4666 
z
" transform="scale(0.015625)"/>
     </defs>
     <use xlink:href="#DejaVuSans-66"/>
     <use xlink:href="#DejaVuSans-72" x="35.205078"/>
     <use xlink:href="#DejaVuSans-65" x="74.068359"/>
     <use xlink:href="#DejaVuSans-71" x="135.591797"/>
     <use xlink:href="#DejaVuSans-28" x="199.068359"/>
     <use xlink:href="#DejaVuSans-6c" x="238.082031"/>
     <use xlink:href="#DejaVuSans-2c" x="265.865234"/>
     <use xlink:href="#DejaVuSans-6f" x="297.652344"/>
     <use xlink:href="#DejaVuSans-29" x="358.833984"/>
     <use xlink:href="#DejaVuSans-20" x="397.847656"/>
     <use xlink:href="#DejaVuSans-3d" x="429.634766"/>
     <use xlink:href="#DejaVuSans-20" x="513.423828"/>
     <use xlink:href="#DejaVuSans-37" x="545.210938"/>
    </g>
   </g>
   <g id="text_40">
    <!-- Original characters -->
    <g style="fill: #4a4a4a" transform="translate(752.410286 614.019757) scale(0.09 -0.09)">
     <defs>
      <path id="DejaVuSans-4f" d="M 2522 4238 
Q 1834 4238 1429 3725 
Q 1025 3213 1025 2328 
Q 1025 1447 1429 934 
Q 1834 422 2522 422 
Q 3209 422 3611 934 
Q 4013 1447 4013 2328 
Q 4013 3213 3611 3725 
Q 3209 4238 2522 4238 
z
M 2522 4750 
Q 3503 4750 4090 4092 
Q 4678 3434 4678 2328 
Q 4678 1225 4090 567 
Q 3503 -91 2522 -91 
Q 1538 -91 948 565 
Q 359 1222 359 2328 
Q 359 3434 948 4092 
Q 1538 4750 2522 4750 
z
" transform="scale(0.015625)"/>
     </defs>
     <use xlink:href="#DejaVuSans-4f"/>
     <use xlink:href="#DejaVuSans-72" x="78.710938"/>
     <use xlink:href="#DejaVuSans-69" x="119.824219"/>
     <use xlink:href="#DejaVuSans-67" x="147.607422"/>
     <use xlink:href="#DejaVuSans-69" x="211.083984"/>
     <use xlink:href="#DejaVuSans-6e" x="238.867188"/>
     <use xlink:href="#DejaVuSans-61" x="302.246094"/>
     <use xlink:href="#DejaVuSans-6c" x="363.525391"/>
     <use xlink:href="#DejaVuSans-20" x="391.308594"/>
     <use xlink:href="#DejaVuSans-63" x="423.095703"/>
     <use xlink:href="#DejaVuSans-68" x="478.076172"/>
     <use xlink:href="#DejaVuSans-61" x="541.455078"/>
     <use xlink:href="#DejaVuSans-72" x="602.734375"/>
     <use xlink:href="#DejaVuSans-61" x="643.847656"/>
     <use xlink:href="#DejaVuSans-63" x="705.126953"/>
     <use xlink:href="#DejaVuSans-74" x="760.107422"/>
     <use xlink:href="#DejaVuSans-65" x="799.316406"/>
     <use xlink:href="#DejaVuSans-72" x="860.839844"/>
     <use xlink:href="#DejaVuSans-73" x="901.953125"/>
    </g>
   </g>
   <g id="text_41">
    <!-- First merge -->
    <g style="fill: #4a4a4a" transform="translate(752.410286 641.869357) scale(0.09 -0.09)">
     <defs>
      <path id="DejaVuSans-46" d="M 628 4666 
L 3309 4666 
L 3309 4134 
L 1259 4134 
L 1259 2759 
L 3109 2759 
L 3109 2228 
L 1259 2228 
L 1259 0 
L 628 0 
L 628 4666 
z
" transform="scale(0.015625)"/>
      <path id="DejaVuSans-6d" d="M 3328 2828 
Q 3544 3216 3844 3400 
Q 4144 3584 4550 3584 
Q 5097 3584 5394 3201 
Q 5691 2819 5691 2113 
L 5691 0 
L 5113 0 
L 5113 2094 
Q 5113 2597 4934 2840 
Q 4756 3084 4391 3084 
Q 3944 3084 3684 2787 
Q 3425 2491 3425 1978 
L 3425 0 
L 2847 0 
L 2847 2094 
Q 2847 2600 2669 2842 
Q 2491 3084 2119 3084 
Q 1678 3084 1418 2786 
Q 1159 2488 1159 1978 
L 1159 0 
L 581 0 
L 581 3500 
L 1159 3500 
L 1159 2956 
Q 1356 3278 1631 3431 
Q 1906 3584 2284 3584 
Q 2666 3584 2933 3390 
Q 3200 3197 3328 2828 
z
" transform="scale(0.015625)"/>
     </defs>
     <use xlink:href="#DejaVuSans-46"/>
     <use xlink:href="#DejaVuSans-69" x="50.269531"/>
     <use xlink:href="#DejaVuSans-72" x="78.052734"/>
     <use xlink:href="#DejaVuSans-73" x="119.166016"/>
     <use xlink:href="#DejaVuSans-74" x="171.265625"/>
     <use xlink:href="#DejaVuSans-20" x="210.474609"/>
     <use xlink:href="#DejaVuSans-6d" x="242.261719"/>
     <use xlink:href="#DejaVuSans-65" x="339.673828"/>
     <use xlink:href="#DejaVuSans-72" x="401.197266"/>
     <use xlink:href="#DejaVuSans-67" x="440.560547"/>
     <use xlink:href="#DejaVuSans-65" x="504.037109"/>
    </g>
   </g>
   <g id="text_42">
    <!-- Second merge -->
    <g style="fill: #4a4a4a" transform="translate(752.410286 669.718957) scale(0.09 -0.09)">
     <defs>
      <path id="DejaVuSans-53" d="M 3425 4513 
L 3425 3897 
Q 3066 4069 2747 4153 
Q 2428 4238 2131 4238 
Q 1616 4238 1336 4038 
Q 1056 3838 1056 3469 
Q 1056 3159 1242 3001 
Q 1428 2844 1947 2747 
L 2328 2669 
Q 3034 2534 3370 2195 
Q 3706 1856 3706 1288 
Q 3706 609 3251 259 
Q 2797 -91 1919 -91 
Q 1588 -91 1214 -16 
Q 841 59 441 206 
L 441 856 
Q 825 641 1194 531 
Q 1563 422 1919 422 
Q 2459 422 2753 634 
Q 3047 847 3047 1241 
Q 3047 1584 2836 1778 
Q 2625 1972 2144 2069 
L 1759 2144 
Q 1053 2284 737 2584 
Q 422 2884 422 3419 
Q 422 4038 858 4394 
Q 1294 4750 2059 4750 
Q 2388 4750 2728 4690 
Q 3069 4631 3425 4513 
z
" transform="scale(0.015625)"/>
      <path id="DejaVuSans-64" d="M 2906 2969 
L 2906 4863 
L 3481 4863 
L 3481 0 
L 2906 0 
L 2906 525 
Q 2725 213 2448 61 
Q 2172 -91 1784 -91 
Q 1150 -91 751 415 
Q 353 922 353 1747 
Q 353 2572 751 3078 
Q 1150 3584 1784 3584 
Q 2172 3584 2448 3432 
Q 2725 3281 2906 2969 
z
M 947 1747 
Q 947 1113 1208 752 
Q 1469 391 1925 391 
Q 2381 391 2643 752 
Q 2906 1113 2906 1747 
Q 2906 2381 2643 2742 
Q 2381 3103 1925 3103 
Q 1469 3103 1208 2742 
Q 947 2381 947 1747 
z
" transform="scale(0.015625)"/>
     </defs>
     <use xlink:href="#DejaVuSans-53"/>
     <use xlink:href="#DejaVuSans-65" x="63.476562"/>
     <use xlink:href="#DejaVuSans-63" x="125"/>
     <use xlink:href="#DejaVuSans-6f" x="179.980469"/>
     <use xlink:href="#DejaVuSans-6e" x="241.162109"/>
     <use xlink:href="#DejaVuSans-64" x="304.541016"/>
     <use xlink:href="#DejaVuSans-20" x="368.017578"/>
     <use xlink:href="#DejaVuSans-6d" x="399.804688"/>
     <use xlink:href="#DejaVuSans-65" x="497.216797"/>
     <use xlink:href="#DejaVuSans-72" x="558.740234"/>
     <use xlink:href="#DejaVuSans-67" x="598.103516"/>
     <use xlink:href="#DejaVuSans-65" x="661.580078"/>
    </g>
   </g>
   <g id="text_43">
    <!-- Third merge -->
    <g style="fill: #4a4a4a" transform="translate(752.410286 697.568557) scale(0.09 -0.09)">
     <defs>
      <path id="DejaVuSans-54" d="M -19 4666 
L 3928 4666 
L 3928 4134 
L 2272 4134 
L 2272 0 
L 1638 0 
L 1638 4134 
L -19 4134 
L -19 4666 
z
" transform="scale(0.015625)"/>
     </defs>
     <use xlink:href="#DejaVuSans-54"/>
     <use xlink:href="#DejaVuSans-68" x="61.083984"/>
     <use xlink:href="#DejaVuSans-69" x="124.462891"/>
     <use xlink:href="#DejaVuSans-72" x="152.246094"/>
     <use xlink:href="#DejaVuSans-64" x="191.609375"/>
     <use xlink:href="#DejaVuSans-20" x="255.085938"/>
     <use xlink:href="#DejaVuSans-6d" x="286.873047"/>
     <use xlink:href="#DejaVuSans-65" x="384.285156"/>
     <use xlink:href="#DejaVuSans-72" x="445.808594"/>
     <use xlink:href="#DejaVuSans-67" x="485.171875"/>
     <use xlink:href="#DejaVuSans-65" x="548.648438"/>
    </g>
   </g>
  </g>
 </g>
 <defs>
  <clipPath id="pab5148ca5e">
   <rect x="7.2" y="7.2" width="984.24" height="696.24"/>
  </clipPath>
 </defs>
</svg>
