<?xml version="1.0" encoding="utf-8" standalone="no"?>
<!DOCTYPE svg PUBLIC "-//W3C//DTD SVG 1.1//EN"
  "http://www.w3.org/Graphics/SVG/1.1/DTD/svg11.dtd">
<svg xmlns:xlink="http://www.w3.org/1999/xlink" width="865.1205pt" height="567pt" viewBox="0 0 865.1205 567" xmlns="http://www.w3.org/2000/svg" version="1.1">
 <metadata>
  <rdf:RDF xmlns:dc="http://purl.org/dc/elements/1.1/" xmlns:cc="http://creativecommons.org/ns#" xmlns:rdf="http://www.w3.org/1999/02/22-rdf-syntax-ns#">
   <cc:Work>
    <dc:type rdf:resource="http://purl.org/dc/dcmitype/StillImage"/>
    <dc:date>2026-01-25T05:10:26.886737</dc:date>
    <dc:format>image/svg+xml</dc:format>
    <dc:creator>
     <cc:Agent>
      <dc:title>Matplotlib v3.8.3, https://matplotlib.org/</dc:title>
     </cc:Agent>
    </dc:creator>
   </cc:Work>
  </rdf:RDF>
 </metadata>
 <defs>
  <style type="text/css">*{stroke-linejoin: round; stroke-linecap: butt}</style>
 </defs>
 <g id="figure_1">
  <g id="patch_1">
   <path d="M 0 567 
L 865.1205 567 
L 865.1205 0 
L 0 0 
z
" style="fill: #ffffff"/>
  </g>
  <g id="axes_1">
   <g id="patch_2">
    <path d="M 106.7637 144.324 
L 285.7263 144.324 
Q 292.0278 144.324 292.0278 135.954 
L 292.0278 99.126 
Q 292.0278 90.756 285.7263 90.756 
L 106.7637 90.756 
Q 100.4622 90.756 100.4622 99.126 
L 100.4622 135.954 
Q 100.4622 144.324 106.7637 144.324 
z
" clip-path="url(#pdfe7e0a823)" style="fill: #6c9bc2"/>
   </g>
   <g id="text_1">
    <!-- Word-level -->
    <g style="fill: #4a4a4a" transform="translate(38.7075 121.403125) scale(0.14 -0.14)">
     <defs>
      <path id="DejaVuSans-Bold-57" d="M 191 4666 
L 1344 4666 
L 2150 1275 
L 2950 4666 
L 4109 4666 
L 4909 1275 
L 5716 4666 
L 6859 4666 
L 5759 0 
L 4372 0 
L 3525 3547 
L 2688 0 
L 1300 0 
L 191 4666 
z
" transform="scale(0.015625)"/>
      <path id="DejaVuSans-Bold-6f" d="M 2203 2784 
Q 1831 2784 1636 2517 
Q 1441 2250 1441 1747 
Q 1441 1244 1636 976 
Q 1831 709 2203 709 
Q 2569 709 2762 976 
Q 2956 1244 2956 1747 
Q 2956 2250 2762 2517 
Q 2569 2784 2203 2784 
z
M 2203 3584 
Q 3106 3584 3614 3096 
Q 4122 2609 4122 1747 
Q 4122 884 3614 396 
Q 3106 -91 2203 -91 
Q 1297 -91 786 396 
Q 275 884 275 1747 
Q 275 2609 786 3096 
Q 1297 3584 2203 3584 
z
" transform="scale(0.015625)"/>
      <path id="DejaVuSans-Bold-72" d="M 3138 2547 
Q 2991 2616 2845 2648 
Q 2700 2681 2553 2681 
Q 2122 2681 1889 2404 
Q 1656 2128 1656 1613 
L 1656 0 
L 538 0 
L 538 3500 
L 1656 3500 
L 1656 2925 
Q 1872 3269 2151 3426 
Q 2431 3584 2822 3584 
Q 2878 3584 2943 3579 
Q 3009 3575 3134 3559 
L 3138 2547 
z
" transform="scale(0.015625)"/>
      <path id="DejaVuSans-Bold-64" d="M 2919 2988 
L 2919 4863 
L 4044 4863 
L 4044 0 
L 2919 0 
L 2919 506 
Q 2688 197 2409 53 
Q 2131 -91 1766 -91 
Q 1119 -91 703 423 
Q 288 938 288 1747 
Q 288 2556 703 3070 
Q 1119 3584 1766 3584 
Q 2128 3584 2408 3439 
Q 2688 3294 2919 2988 
z
M 2181 722 
Q 2541 722 2730 984 
Q 2919 1247 2919 1747 
Q 2919 2247 2730 2509 
Q 2541 2772 2181 2772 
Q 1825 2772 1636 2509 
Q 1447 2247 1447 1747 
Q 1447 1247 1636 984 
Q 1825 722 2181 722 
z
" transform="scale(0.015625)"/>
      <path id="DejaVuSans-Bold-2d" d="M 347 2297 
L 2309 2297 
L 2309 1388 
L 347 1388 
L 347 2297 
z
" transform="scale(0.015625)"/>
      <path id="DejaVuSans-Bold-6c" d="M 538 4863 
L 1656 4863 
L 1656 0 
L 538 0 
L 538 4863 
z
" transform="scale(0.015625)"/>
      <path id="DejaVuSans-Bold-65" d="M 4031 1759 
L 4031 1441 
L 1416 1441 
Q 1456 1047 1700 850 
Q 1944 653 2381 653 
Q 2734 653 3104 758 
Q 3475 863 3866 1075 
L 3866 213 
Q 3469 63 3072 -14 
Q 2675 -91 2278 -91 
Q 1328 -91 801 392 
Q 275 875 275 1747 
Q 275 2603 792 3093 
Q 1309 3584 2216 3584 
Q 3041 3584 3536 3087 
Q 4031 2591 4031 1759 
z
M 2881 2131 
Q 2881 2450 2695 2645 
Q 2509 2841 2209 2841 
Q 1884 2841 1681 2658 
Q 1478 2475 1428 2131 
L 2881 2131 
z
" transform="scale(0.015625)"/>
      <path id="DejaVuSans-Bold-76" d="M 97 3500 
L 1216 3500 
L 2088 1081 
L 2956 3500 
L 4078 3500 
L 2700 0 
L 1472 0 
L 97 3500 
z
" transform="scale(0.015625)"/>
     </defs>
     <use xlink:href="#DejaVuSans-Bold-57"/>
     <use xlink:href="#DejaVuSans-Bold-6f" x="106.677734"/>
     <use xlink:href="#DejaVuSans-Bold-72" x="175.378906"/>
     <use xlink:href="#DejaVuSans-Bold-64" x="224.695312"/>
     <use xlink:href="#DejaVuSans-Bold-2d" x="296.277344"/>
     <use xlink:href="#DejaVuSans-Bold-6c" x="337.78125"/>
     <use xlink:href="#DejaVuSans-Bold-65" x="372.058594"/>
     <use xlink:href="#DejaVuSans-Bold-76" x="439.880859"/>
     <use xlink:href="#DejaVuSans-Bold-65" x="505.066406"/>
     <use xlink:href="#DejaVuSans-Bold-6c" x="572.888672"/>
    </g>
   </g>
   <g id="text_2">
    <!-- tokenization -->
    <g style="fill: #4a4a4a" transform="translate(165.611406 120.299375) scale(0.1 -0.1)">
     <defs>
      <path id="DejaVuSans-74" d="M 1172 4494 
L 1172 3500 
L 2356 3500 
L 2356 3053 
L 1172 3053 
L 1172 1153 
Q 1172 725 1289 603 
Q 1406 481 1766 481 
L 2356 481 
L 2356 0 
L 1766 0 
Q 1100 0 847 248 
Q 594 497 594 1153 
L 594 3053 
L 172 3053 
L 172 3500 
L 594 3500 
L 594 4494 
L 1172 4494 
z
" transform="scale(0.015625)"/>
      <path id="DejaVuSans-6f" d="M 1959 3097 
Q 1497 3097 1228 2736 
Q 959 2375 959 1747 
Q 959 1119 1226 758 
Q 1494 397 1959 397 
Q 2419 397 2687 759 
Q 2956 1122 2956 1747 
Q 2956 2369 2687 2733 
Q 2419 3097 1959 3097 
z
M 1959 3584 
Q 2709 3584 3137 3096 
Q 3566 2609 3566 1747 
Q 3566 888 3137 398 
Q 2709 -91 1959 -91 
Q 1206 -91 779 398 
Q 353 888 353 1747 
Q 353 2609 779 3096 
Q 1206 3584 1959 3584 
z
" transform="scale(0.015625)"/>
      <path id="DejaVuSans-6b" d="M 581 4863 
L 1159 4863 
L 1159 1991 
L 2875 3500 
L 3609 3500 
L 1753 1863 
L 3688 0 
L 2938 0 
L 1159 1709 
L 1159 0 
L 581 0 
L 581 4863 
z
" transform="scale(0.015625)"/>
      <path id="DejaVuSans-65" d="M 3597 1894 
L 3597 1613 
L 953 1613 
Q 991 1019 1311 708 
Q 1631 397 2203 397 
Q 2534 397 2845 478 
Q 3156 559 3463 722 
L 3463 178 
Q 3153 47 2828 -22 
Q 2503 -91 2169 -91 
Q 1331 -91 842 396 
Q 353 884 353 1716 
Q 353 2575 817 3079 
Q 1281 3584 2069 3584 
Q 2775 3584 3186 3129 
Q 3597 2675 3597 1894 
z
M 3022 2063 
Q 3016 2534 2758 2815 
Q 2500 3097 2075 3097 
Q 1594 3097 1305 2825 
Q 1016 2553 972 2059 
L 3022 2063 
z
" transform="scale(0.015625)"/>
      <path id="DejaVuSans-6e" d="M 3513 2113 
L 3513 0 
L 2938 0 
L 2938 2094 
Q 2938 2591 2744 2837 
Q 2550 3084 2163 3084 
Q 1697 3084 1428 2787 
Q 1159 2491 1159 1978 
L 1159 0 
L 581 0 
L 581 3500 
L 1159 3500 
L 1159 2956 
Q 1366 3272 1645 3428 
Q 1925 3584 2291 3584 
Q 2894 3584 3203 3211 
Q 3513 2838 3513 2113 
z
" transform="scale(0.015625)"/>
      <path id="DejaVuSans-69" d="M 603 3500 
L 1178 3500 
L 1178 0 
L 603 0 
L 603 3500 
z
M 603 4863 
L 1178 4863 
L 1178 4134 
L 603 4134 
L 603 4863 
z
" transform="scale(0.015625)"/>
      <path id="DejaVuSans-7a" d="M 353 3500 
L 3084 3500 
L 3084 2975 
L 922 459 
L 3084 459 
L 3084 0 
L 275 0 
L 275 525 
L 2438 3041 
L 353 3041 
L 353 3500 
z
" transform="scale(0.015625)"/>
      <path id="DejaVuSans-61" d="M 2194 1759 
Q 1497 1759 1228 1600 
Q 959 1441 959 1056 
Q 959 750 1161 570 
Q 1363 391 1709 391 
Q 2188 391 2477 730 
Q 2766 1069 2766 1631 
L 2766 1759 
L 2194 1759 
z
M 3341 1997 
L 3341 0 
L 2766 0 
L 2766 531 
Q 2569 213 2275 61 
Q 1981 -91 1556 -91 
Q 1019 -91 701 211 
Q 384 513 384 1019 
Q 384 1609 779 1909 
Q 1175 2209 1959 2209 
L 2766 2209 
L 2766 2266 
Q 2766 2663 2505 2880 
Q 2244 3097 1772 3097 
Q 1472 3097 1187 3025 
Q 903 2953 641 2809 
L 641 3341 
Q 956 3463 1253 3523 
Q 1550 3584 1831 3584 
Q 2591 3584 2966 3190 
Q 3341 2797 3341 1997 
z
" transform="scale(0.015625)"/>
     </defs>
     <use xlink:href="#DejaVuSans-74"/>
     <use xlink:href="#DejaVuSans-6f" x="39.208984"/>
     <use xlink:href="#DejaVuSans-6b" x="100.390625"/>
     <use xlink:href="#DejaVuSans-65" x="154.675781"/>
     <use xlink:href="#DejaVuSans-6e" x="216.199219"/>
     <use xlink:href="#DejaVuSans-69" x="279.578125"/>
     <use xlink:href="#DejaVuSans-7a" x="307.361328"/>
     <use xlink:href="#DejaVuSans-61" x="359.851562"/>
     <use xlink:href="#DejaVuSans-74" x="421.130859"/>
     <use xlink:href="#DejaVuSans-69" x="460.339844"/>
     <use xlink:href="#DejaVuSans-6f" x="488.123047"/>
     <use xlink:href="#DejaVuSans-6e" x="549.304688"/>
    </g>
   </g>
   <g id="text_3">
    <!-- 1 token -->
    <g style="fill: #a8b5c4" transform="translate(659.116719 120.575312) scale(0.11 -0.11)">
     <defs>
      <path id="DejaVuSans-31" d="M 794 531 
L 1825 531 
L 1825 4091 
L 703 3866 
L 703 4441 
L 1819 4666 
L 2450 4666 
L 2450 531 
L 3481 531 
L 3481 0 
L 794 0 
L 794 531 
z
" transform="scale(0.015625)"/>
      <path id="DejaVuSans-20" transform="scale(0.015625)"/>
     </defs>
     <use xlink:href="#DejaVuSans-31"/>
     <use xlink:href="#DejaVuSans-20" x="63.623047"/>
     <use xlink:href="#DejaVuSans-74" x="95.410156"/>
     <use xlink:href="#DejaVuSans-6f" x="134.619141"/>
     <use xlink:href="#DejaVuSans-6b" x="195.800781"/>
     <use xlink:href="#DejaVuSans-65" x="250.085938"/>
     <use xlink:href="#DejaVuSans-6e" x="311.609375"/>
    </g>
   </g>
  </g>
  <g id="axes_2">
   <g id="patch_3">
    <path d="M 176.0802 323.604 
L 216.4098 323.604 
Q 222.7113 323.604 222.7113 315.234 
L 222.7113 278.406 
Q 222.7113 270.036 216.4098 270.036 
L 176.0802 270.036 
Q 169.7787 270.036 169.7787 278.406 
L 169.7787 315.234 
Q 169.7787 323.604 176.0802 323.604 
z
" clip-path="url(#pe08b29c36a)" style="fill: #e8a87c"/>
   </g>
   <g id="patch_4">
    <path d="M 235.94445 323.604 
L 276.27405 323.604 
Q 282.57555 323.604 282.57555 315.234 
L 282.57555 278.406 
Q 282.57555 270.036 276.27405 270.036 
L 235.94445 270.036 
Q 229.64295 270.036 229.64295 278.406 
L 229.64295 315.234 
Q 229.64295 323.604 235.94445 323.604 
z
" clip-path="url(#pe08b29c36a)" style="fill: #e8a87c"/>
   </g>
   <g id="patch_5">
    <path d="M 295.8087 323.604 
L 336.1383 323.604 
Q 342.4398 323.604 342.4398 315.234 
L 342.4398 278.406 
Q 342.4398 270.036 336.1383 270.036 
L 295.8087 270.036 
Q 289.5072 270.036 289.5072 278.406 
L 289.5072 315.234 
Q 289.5072 323.604 295.8087 323.604 
z
" clip-path="url(#pe08b29c36a)" style="fill: #e8a87c"/>
   </g>
   <g id="patch_6">
    <path d="M 355.67295 323.604 
L 396.00255 323.604 
Q 402.30405 323.604 402.30405 315.234 
L 402.30405 278.406 
Q 402.30405 270.036 396.00255 270.036 
L 355.67295 270.036 
Q 349.37145 270.036 349.37145 278.406 
L 349.37145 315.234 
Q 349.37145 323.604 355.67295 323.604 
z
" clip-path="url(#pe08b29c36a)" style="fill: #e8a87c"/>
   </g>
   <g id="patch_7">
    <path d="M 415.5372 323.604 
L 455.8668 323.604 
Q 462.1683 323.604 462.1683 315.234 
L 462.1683 278.406 
Q 462.1683 270.036 455.8668 270.036 
L 415.5372 270.036 
Q 409.2357 270.036 409.2357 278.406 
L 409.2357 315.234 
Q 409.2357 323.604 415.5372 323.604 
z
" clip-path="url(#pe08b29c36a)" style="fill: #e8a87c"/>
   </g>
   <g id="patch_8">
    <path d="M 475.40145 323.604 
L 515.73105 323.604 
Q 522.03255 323.604 522.03255 315.234 
L 522.03255 278.406 
Q 522.03255 270.036 515.73105 270.036 
L 475.40145 270.036 
Q 469.09995 270.036 469.09995 278.406 
L 469.09995 315.234 
Q 469.09995 323.604 475.40145 323.604 
z
" clip-path="url(#pe08b29c36a)" style="fill: #e8a87c"/>
   </g>
   <g id="patch_9">
    <path d="M 535.2657 323.604 
L 575.5953 323.604 
Q 581.8968 323.604 581.8968 315.234 
L 581.8968 278.406 
Q 581.8968 270.036 575.5953 270.036 
L 535.2657 270.036 
Q 528.9642 270.036 528.9642 278.406 
L 528.9642 315.234 
Q 528.9642 323.604 535.2657 323.604 
z
" clip-path="url(#pe08b29c36a)" style="fill: #e8a87c"/>
   </g>
   <g id="patch_10">
    <path d="M 595.12995 323.604 
L 635.45955 323.604 
Q 641.76105 323.604 641.76105 315.234 
L 641.76105 278.406 
Q 641.76105 270.036 635.45955 270.036 
L 595.12995 270.036 
Q 588.82845 270.036 588.82845 278.406 
L 588.82845 315.234 
Q 588.82845 323.604 595.12995 323.604 
z
" clip-path="url(#pe08b29c36a)" style="fill: #e8a87c"/>
   </g>
   <g id="patch_11">
    <path d="M 654.9942 323.604 
L 695.3238 323.604 
Q 701.6253 323.604 701.6253 315.234 
L 701.6253 278.406 
Q 701.6253 270.036 695.3238 270.036 
L 654.9942 270.036 
Q 648.6927 270.036 648.6927 278.406 
L 648.6927 315.234 
Q 648.6927 323.604 654.9942 323.604 
z
" clip-path="url(#pe08b29c36a)" style="fill: #e8a87c"/>
   </g>
   <g id="patch_12">
    <path d="M 714.85845 323.604 
L 755.18805 323.604 
Q 761.48955 323.604 761.48955 315.234 
L 761.48955 278.406 
Q 761.48955 270.036 755.18805 270.036 
L 714.85845 270.036 
Q 708.55695 270.036 708.55695 278.406 
L 708.55695 315.234 
Q 708.55695 323.604 714.85845 323.604 
z
" clip-path="url(#pe08b29c36a)" style="fill: #e8a87c"/>
   </g>
   <g id="patch_13">
    <path d="M 774.7227 323.604 
L 815.0523 323.604 
Q 821.3538 323.604 821.3538 315.234 
L 821.3538 278.406 
Q 821.3538 270.036 815.0523 270.036 
L 774.7227 270.036 
Q 768.4212 270.036 768.4212 278.406 
L 768.4212 315.234 
Q 768.4212 323.604 774.7227 323.604 
z
" clip-path="url(#pe08b29c36a)" style="fill: #e8a87c"/>
   </g>
   <g id="patch_14">
    <path d="M 834.58695 323.604 
L 874.91655 323.604 
Q 881.21805 323.604 881.21805 315.234 
L 881.21805 278.406 
Q 881.21805 270.036 874.91655 270.036 
L 834.58695 270.036 
Q 828.28545 270.036 828.28545 278.406 
L 828.28545 315.234 
Q 828.28545 323.604 834.58695 323.604 
z
" clip-path="url(#pe08b29c36a)" style="fill: #e8a87c"/>
   </g>
   <g id="text_4">
    <!-- Character-level -->
    <g style="fill: #4a4a4a" transform="translate(38.7075 300.683125) scale(0.14 -0.14)">
     <defs>
      <path id="DejaVuSans-Bold-43" d="M 4288 256 
Q 3956 84 3597 -3 
Q 3238 -91 2847 -91 
Q 1681 -91 1000 561 
Q 319 1213 319 2328 
Q 319 3447 1000 4098 
Q 1681 4750 2847 4750 
Q 3238 4750 3597 4662 
Q 3956 4575 4288 4403 
L 4288 3438 
Q 3953 3666 3628 3772 
Q 3303 3878 2944 3878 
Q 2300 3878 1931 3465 
Q 1563 3053 1563 2328 
Q 1563 1606 1931 1193 
Q 2300 781 2944 781 
Q 3303 781 3628 887 
Q 3953 994 4288 1222 
L 4288 256 
z
" transform="scale(0.015625)"/>
      <path id="DejaVuSans-Bold-68" d="M 4056 2131 
L 4056 0 
L 2931 0 
L 2931 347 
L 2931 1625 
Q 2931 2084 2911 2256 
Q 2891 2428 2841 2509 
Q 2775 2619 2662 2680 
Q 2550 2741 2406 2741 
Q 2056 2741 1856 2470 
Q 1656 2200 1656 1722 
L 1656 0 
L 538 0 
L 538 4863 
L 1656 4863 
L 1656 2988 
Q 1909 3294 2193 3439 
Q 2478 3584 2822 3584 
Q 3428 3584 3742 3212 
Q 4056 2841 4056 2131 
z
" transform="scale(0.015625)"/>
      <path id="DejaVuSans-Bold-61" d="M 2106 1575 
Q 1756 1575 1579 1456 
Q 1403 1338 1403 1106 
Q 1403 894 1545 773 
Q 1688 653 1941 653 
Q 2256 653 2472 879 
Q 2688 1106 2688 1447 
L 2688 1575 
L 2106 1575 
z
M 3816 1997 
L 3816 0 
L 2688 0 
L 2688 519 
Q 2463 200 2181 54 
Q 1900 -91 1497 -91 
Q 953 -91 614 226 
Q 275 544 275 1050 
Q 275 1666 698 1953 
Q 1122 2241 2028 2241 
L 2688 2241 
L 2688 2328 
Q 2688 2594 2478 2717 
Q 2269 2841 1825 2841 
Q 1466 2841 1156 2769 
Q 847 2697 581 2553 
L 581 3406 
Q 941 3494 1303 3539 
Q 1666 3584 2028 3584 
Q 2975 3584 3395 3211 
Q 3816 2838 3816 1997 
z
" transform="scale(0.015625)"/>
      <path id="DejaVuSans-Bold-63" d="M 3366 3391 
L 3366 2478 
Q 3138 2634 2908 2709 
Q 2678 2784 2431 2784 
Q 1963 2784 1702 2511 
Q 1441 2238 1441 1747 
Q 1441 1256 1702 982 
Q 1963 709 2431 709 
Q 2694 709 2930 787 
Q 3166 866 3366 1019 
L 3366 103 
Q 3103 6 2833 -42 
Q 2563 -91 2291 -91 
Q 1344 -91 809 395 
Q 275 881 275 1747 
Q 275 2613 809 3098 
Q 1344 3584 2291 3584 
Q 2566 3584 2833 3536 
Q 3100 3488 3366 3391 
z
" transform="scale(0.015625)"/>
      <path id="DejaVuSans-Bold-74" d="M 1759 4494 
L 1759 3500 
L 2913 3500 
L 2913 2700 
L 1759 2700 
L 1759 1216 
Q 1759 972 1856 886 
Q 1953 800 2241 800 
L 2816 800 
L 2816 0 
L 1856 0 
Q 1194 0 917 276 
Q 641 553 641 1216 
L 641 2700 
L 84 2700 
L 84 3500 
L 641 3500 
L 641 4494 
L 1759 4494 
z
" transform="scale(0.015625)"/>
     </defs>
     <use xlink:href="#DejaVuSans-Bold-43"/>
     <use xlink:href="#DejaVuSans-Bold-68" x="73.388672"/>
     <use xlink:href="#DejaVuSans-Bold-61" x="144.580078"/>
     <use xlink:href="#DejaVuSans-Bold-72" x="212.060547"/>
     <use xlink:href="#DejaVuSans-Bold-61" x="261.376953"/>
     <use xlink:href="#DejaVuSans-Bold-63" x="328.857422"/>
     <use xlink:href="#DejaVuSans-Bold-74" x="388.134766"/>
     <use xlink:href="#DejaVuSans-Bold-65" x="435.9375"/>
     <use xlink:href="#DejaVuSans-Bold-72" x="503.759766"/>
     <use xlink:href="#DejaVuSans-Bold-2d" x="553.076172"/>
     <use xlink:href="#DejaVuSans-Bold-6c" x="594.580078"/>
     <use xlink:href="#DejaVuSans-Bold-65" x="628.857422"/>
     <use xlink:href="#DejaVuSans-Bold-76" x="696.679688"/>
     <use xlink:href="#DejaVuSans-Bold-65" x="761.865234"/>
     <use xlink:href="#DejaVuSans-Bold-6c" x="829.6875"/>
    </g>
   </g>
   <g id="text_5">
    <!-- t -->
    <g style="fill: #4a4a4a" transform="translate(194.284844 299.579375) scale(0.1 -0.1)">
     <use xlink:href="#DejaVuSans-74"/>
    </g>
   </g>
   <g id="text_6">
    <!-- o -->
    <g style="fill: #4a4a4a" transform="translate(253.049875 299.579375) scale(0.1 -0.1)">
     <use xlink:href="#DejaVuSans-6f"/>
    </g>
   </g>
   <g id="text_7">
    <!-- k -->
    <g style="fill: #4a4a4a" transform="translate(313.078188 299.579375) scale(0.1 -0.1)">
     <use xlink:href="#DejaVuSans-6b"/>
    </g>
   </g>
   <g id="text_8">
    <!-- e -->
    <g style="fill: #4a4a4a" transform="translate(372.761188 299.579375) scale(0.1 -0.1)">
     <use xlink:href="#DejaVuSans-65"/>
    </g>
   </g>
   <g id="text_9">
    <!-- n -->
    <g style="fill: #4a4a4a" transform="translate(432.53325 299.579375) scale(0.1 -0.1)">
     <use xlink:href="#DejaVuSans-6e"/>
    </g>
   </g>
   <g id="text_10">
    <!-- i -->
    <g style="fill: #4a4a4a" transform="translate(494.177188 299.579375) scale(0.1 -0.1)">
     <use xlink:href="#DejaVuSans-69"/>
    </g>
   </g>
   <g id="text_11">
    <!-- z -->
    <g style="fill: #4a4a4a" transform="translate(552.806281 299.579375) scale(0.1 -0.1)">
     <use xlink:href="#DejaVuSans-7a"/>
    </g>
   </g>
   <g id="text_12">
    <!-- a -->
    <g style="fill: #4a4a4a" transform="translate(612.230688 299.579375) scale(0.1 -0.1)">
     <use xlink:href="#DejaVuSans-61"/>
    </g>
   </g>
   <g id="text_13">
    <!-- t -->
    <g style="fill: #4a4a4a" transform="translate(673.198844 299.579375) scale(0.1 -0.1)">
     <use xlink:href="#DejaVuSans-74"/>
    </g>
   </g>
   <g id="text_14">
    <!-- i -->
    <g style="fill: #4a4a4a" transform="translate(733.634187 299.579375) scale(0.1 -0.1)">
     <use xlink:href="#DejaVuSans-69"/>
    </g>
   </g>
   <g id="text_15">
    <!-- o -->
    <g style="fill: #4a4a4a" transform="translate(791.828125 299.579375) scale(0.1 -0.1)">
     <use xlink:href="#DejaVuSans-6f"/>
    </g>
   </g>
   <g id="text_16">
    <!-- n -->
    <g style="fill: #4a4a4a" transform="translate(851.583 299.579375) scale(0.1 -0.1)">
     <use xlink:href="#DejaVuSans-6e"/>
    </g>
   </g>
   <g id="text_17">
    <!-- 12 tokens -->
    <g style="fill: #a8b5c4" transform="translate(646.387656 299.855312) scale(0.11 -0.11)">
     <defs>
      <path id="DejaVuSans-32" d="M 1228 531 
L 3431 531 
L 3431 0 
L 469 0 
L 469 531 
Q 828 903 1448 1529 
Q 2069 2156 2228 2338 
Q 2531 2678 2651 2914 
Q 2772 3150 2772 3378 
Q 2772 3750 2511 3984 
Q 2250 4219 1831 4219 
Q 1534 4219 1204 4116 
Q 875 4013 500 3803 
L 500 4441 
Q 881 4594 1212 4672 
Q 1544 4750 1819 4750 
Q 2544 4750 2975 4387 
Q 3406 4025 3406 3419 
Q 3406 3131 3298 2873 
Q 3191 2616 2906 2266 
Q 2828 2175 2409 1742 
Q 1991 1309 1228 531 
z
" transform="scale(0.015625)"/>
      <path id="DejaVuSans-73" d="M 2834 3397 
L 2834 2853 
Q 2591 2978 2328 3040 
Q 2066 3103 1784 3103 
Q 1356 3103 1142 2972 
Q 928 2841 928 2578 
Q 928 2378 1081 2264 
Q 1234 2150 1697 2047 
L 1894 2003 
Q 2506 1872 2764 1633 
Q 3022 1394 3022 966 
Q 3022 478 2636 193 
Q 2250 -91 1575 -91 
Q 1294 -91 989 -36 
Q 684 19 347 128 
L 347 722 
Q 666 556 975 473 
Q 1284 391 1588 391 
Q 1994 391 2212 530 
Q 2431 669 2431 922 
Q 2431 1156 2273 1281 
Q 2116 1406 1581 1522 
L 1381 1569 
Q 847 1681 609 1914 
Q 372 2147 372 2553 
Q 372 3047 722 3315 
Q 1072 3584 1716 3584 
Q 2034 3584 2315 3537 
Q 2597 3491 2834 3397 
z
" transform="scale(0.015625)"/>
     </defs>
     <use xlink:href="#DejaVuSans-31"/>
     <use xlink:href="#DejaVuSans-32" x="63.623047"/>
     <use xlink:href="#DejaVuSans-20" x="127.246094"/>
     <use xlink:href="#DejaVuSans-74" x="159.033203"/>
     <use xlink:href="#DejaVuSans-6f" x="198.242188"/>
     <use xlink:href="#DejaVuSans-6b" x="259.423828"/>
     <use xlink:href="#DejaVuSans-65" x="313.708984"/>
     <use xlink:href="#DejaVuSans-6e" x="375.232422"/>
     <use xlink:href="#DejaVuSans-73" x="438.611328"/>
    </g>
   </g>
  </g>
  <g id="axes_3">
   <g id="patch_15">
    <path d="M 161.901825 502.884 
L 230.588175 502.884 
Q 236.889675 502.884 236.889675 494.514 
L 236.889675 457.686 
Q 236.889675 449.316 230.588175 449.316 
L 161.901825 449.316 
Q 155.600325 449.316 155.600325 457.686 
L 155.600325 494.514 
Q 155.600325 502.884 161.901825 502.884 
z
" clip-path="url(#pe688f60345)" style="fill: #7fb685"/>
   </g>
   <g id="patch_16">
    <path d="M 234.369075 502.884 
L 334.562925 502.884 
Q 340.864425 502.884 340.864425 494.514 
L 340.864425 457.686 
Q 340.864425 449.316 334.562925 449.316 
L 234.369075 449.316 
Q 228.067575 449.316 228.067575 457.686 
L 228.067575 494.514 
Q 228.067575 502.884 234.369075 502.884 
z
" clip-path="url(#pe688f60345)" style="fill: #7fb685"/>
   </g>
   <g id="text_18">
    <!-- Subword (BPE) -->
    <g style="fill: #4a4a4a" transform="translate(38.7075 479.963125) scale(0.14 -0.14)">
     <defs>
      <path id="DejaVuSans-Bold-53" d="M 3834 4519 
L 3834 3531 
Q 3450 3703 3084 3790 
Q 2719 3878 2394 3878 
Q 1963 3878 1756 3759 
Q 1550 3641 1550 3391 
Q 1550 3203 1689 3098 
Q 1828 2994 2194 2919 
L 2706 2816 
Q 3484 2659 3812 2340 
Q 4141 2022 4141 1434 
Q 4141 663 3683 286 
Q 3225 -91 2284 -91 
Q 1841 -91 1394 -6 
Q 947 78 500 244 
L 500 1259 
Q 947 1022 1364 901 
Q 1781 781 2169 781 
Q 2563 781 2772 912 
Q 2981 1044 2981 1288 
Q 2981 1506 2839 1625 
Q 2697 1744 2272 1838 
L 1806 1941 
Q 1106 2091 782 2419 
Q 459 2747 459 3303 
Q 459 4000 909 4375 
Q 1359 4750 2203 4750 
Q 2588 4750 2994 4692 
Q 3400 4634 3834 4519 
z
" transform="scale(0.015625)"/>
      <path id="DejaVuSans-Bold-75" d="M 500 1363 
L 500 3500 
L 1625 3500 
L 1625 3150 
Q 1625 2866 1622 2436 
Q 1619 2006 1619 1863 
Q 1619 1441 1641 1255 
Q 1663 1069 1716 984 
Q 1784 875 1895 815 
Q 2006 756 2150 756 
Q 2500 756 2700 1025 
Q 2900 1294 2900 1772 
L 2900 3500 
L 4019 3500 
L 4019 0 
L 2900 0 
L 2900 506 
Q 2647 200 2364 54 
Q 2081 -91 1741 -91 
Q 1134 -91 817 281 
Q 500 653 500 1363 
z
" transform="scale(0.015625)"/>
      <path id="DejaVuSans-Bold-62" d="M 2400 722 
Q 2759 722 2948 984 
Q 3138 1247 3138 1747 
Q 3138 2247 2948 2509 
Q 2759 2772 2400 2772 
Q 2041 2772 1848 2508 
Q 1656 2244 1656 1747 
Q 1656 1250 1848 986 
Q 2041 722 2400 722 
z
M 1656 2988 
Q 1888 3294 2169 3439 
Q 2450 3584 2816 3584 
Q 3463 3584 3878 3070 
Q 4294 2556 4294 1747 
Q 4294 938 3878 423 
Q 3463 -91 2816 -91 
Q 2450 -91 2169 54 
Q 1888 200 1656 506 
L 1656 0 
L 538 0 
L 538 4863 
L 1656 4863 
L 1656 2988 
z
" transform="scale(0.015625)"/>
      <path id="DejaVuSans-Bold-77" d="M 225 3500 
L 1313 3500 
L 1900 1088 
L 2491 3500 
L 3425 3500 
L 4013 1113 
L 4603 3500 
L 5691 3500 
L 4769 0 
L 3547 0 
L 2956 2406 
L 2369 0 
L 1147 0 
L 225 3500 
z
" transform="scale(0.015625)"/>
      <path id="DejaVuSans-Bold-20" transform="scale(0.015625)"/>
      <path id="DejaVuSans-Bold-28" d="M 2413 -844 
L 1484 -844 
Q 1006 -72 778 623 
Q 550 1319 550 2003 
Q 550 2688 779 3389 
Q 1009 4091 1484 4856 
L 2413 4856 
Q 2013 4116 1813 3408 
Q 1613 2700 1613 2009 
Q 1613 1319 1811 609 
Q 2009 -100 2413 -844 
z
" transform="scale(0.015625)"/>
      <path id="DejaVuSans-Bold-42" d="M 2456 2859 
Q 2741 2859 2887 2984 
Q 3034 3109 3034 3353 
Q 3034 3594 2887 3720 
Q 2741 3847 2456 3847 
L 1791 3847 
L 1791 2859 
L 2456 2859 
z
M 2497 819 
Q 2859 819 3042 972 
Q 3225 1125 3225 1434 
Q 3225 1738 3044 1889 
Q 2863 2041 2497 2041 
L 1791 2041 
L 1791 819 
L 2497 819 
z
M 3616 2497 
Q 4003 2384 4215 2081 
Q 4428 1778 4428 1338 
Q 4428 663 3972 331 
Q 3516 0 2584 0 
L 588 0 
L 588 4666 
L 2394 4666 
Q 3366 4666 3802 4372 
Q 4238 4078 4238 3431 
Q 4238 3091 4078 2852 
Q 3919 2613 3616 2497 
z
" transform="scale(0.015625)"/>
      <path id="DejaVuSans-Bold-50" d="M 588 4666 
L 2584 4666 
Q 3475 4666 3951 4270 
Q 4428 3875 4428 3144 
Q 4428 2409 3951 2014 
Q 3475 1619 2584 1619 
L 1791 1619 
L 1791 0 
L 588 0 
L 588 4666 
z
M 1791 3794 
L 1791 2491 
L 2456 2491 
Q 2806 2491 2997 2661 
Q 3188 2831 3188 3144 
Q 3188 3456 2997 3625 
Q 2806 3794 2456 3794 
L 1791 3794 
z
" transform="scale(0.015625)"/>
      <path id="DejaVuSans-Bold-45" d="M 588 4666 
L 3834 4666 
L 3834 3756 
L 1791 3756 
L 1791 2888 
L 3713 2888 
L 3713 1978 
L 1791 1978 
L 1791 909 
L 3903 909 
L 3903 0 
L 588 0 
L 588 4666 
z
" transform="scale(0.015625)"/>
      <path id="DejaVuSans-Bold-29" d="M 513 -844 
Q 913 -100 1113 609 
Q 1313 1319 1313 2009 
Q 1313 2700 1113 3408 
Q 913 4116 513 4856 
L 1441 4856 
Q 1916 4091 2145 3389 
Q 2375 2688 2375 2003 
Q 2375 1319 2147 623 
Q 1919 -72 1441 -844 
L 513 -844 
z
" transform="scale(0.015625)"/>
     </defs>
     <use xlink:href="#DejaVuSans-Bold-53"/>
     <use xlink:href="#DejaVuSans-Bold-75" x="72.021484"/>
     <use xlink:href="#DejaVuSans-Bold-62" x="143.212891"/>
     <use xlink:href="#DejaVuSans-Bold-77" x="214.794922"/>
     <use xlink:href="#DejaVuSans-Bold-6f" x="307.177734"/>
     <use xlink:href="#DejaVuSans-Bold-72" x="375.878906"/>
     <use xlink:href="#DejaVuSans-Bold-64" x="425.195312"/>
     <use xlink:href="#DejaVuSans-Bold-20" x="496.777344"/>
     <use xlink:href="#DejaVuSans-Bold-28" x="531.591797"/>
     <use xlink:href="#DejaVuSans-Bold-42" x="577.294922"/>
     <use xlink:href="#DejaVuSans-Bold-50" x="653.515625"/>
     <use xlink:href="#DejaVuSans-Bold-45" x="726.806641"/>
     <use xlink:href="#DejaVuSans-Bold-29" x="795.117188"/>
    </g>
   </g>
   <g id="text_19">
    <!-- token -->
    <g style="fill: #4a4a4a" transform="translate(182.266094 478.859375) scale(0.1 -0.1)">
     <use xlink:href="#DejaVuSans-74"/>
     <use xlink:href="#DejaVuSans-6f" x="39.208984"/>
     <use xlink:href="#DejaVuSans-6b" x="100.390625"/>
     <use xlink:href="#DejaVuSans-65" x="154.675781"/>
     <use xlink:href="#DejaVuSans-6e" x="216.199219"/>
    </g>
   </g>
   <g id="text_20">
    <!-- ization -->
    <g style="fill: #4a4a4a" transform="translate(267.811312 478.859375) scale(0.1 -0.1)">
     <use xlink:href="#DejaVuSans-69"/>
     <use xlink:href="#DejaVuSans-7a" x="27.783203"/>
     <use xlink:href="#DejaVuSans-61" x="80.273438"/>
     <use xlink:href="#DejaVuSans-74" x="141.552734"/>
     <use xlink:href="#DejaVuSans-69" x="180.761719"/>
     <use xlink:href="#DejaVuSans-6f" x="208.544922"/>
     <use xlink:href="#DejaVuSans-6e" x="269.726562"/>
    </g>
   </g>
   <g id="text_21">
    <!-- 2 tokens -->
    <g style="fill: #a8b5c4" transform="translate(653.386406 479.135312) scale(0.11 -0.11)">
     <use xlink:href="#DejaVuSans-32"/>
     <use xlink:href="#DejaVuSans-20" x="63.623047"/>
     <use xlink:href="#DejaVuSans-74" x="95.410156"/>
     <use xlink:href="#DejaVuSans-6f" x="134.619141"/>
     <use xlink:href="#DejaVuSans-6b" x="195.800781"/>
     <use xlink:href="#DejaVuSans-65" x="250.085938"/>
     <use xlink:href="#DejaVuSans-6e" x="311.609375"/>
     <use xlink:href="#DejaVuSans-73" x="374.988281"/>
    </g>
   </g>
  </g>
  <g id="text_22">
   <!-- Tokenization Strategies for "tokenization" -->
   <g transform="translate(238.0875 19.3575) scale(0.16 -0.16)">
    <defs>
     <path id="DejaVuSans-Bold-54" d="M 31 4666 
L 4331 4666 
L 4331 3756 
L 2784 3756 
L 2784 0 
L 1581 0 
L 1581 3756 
L 31 3756 
L 31 4666 
z
" transform="scale(0.015625)"/>
     <path id="DejaVuSans-Bold-6b" d="M 538 4863 
L 1656 4863 
L 1656 2216 
L 2944 3500 
L 4244 3500 
L 2534 1894 
L 4378 0 
L 3022 0 
L 1656 1459 
L 1656 0 
L 538 0 
L 538 4863 
z
" transform="scale(0.015625)"/>
     <path id="DejaVuSans-Bold-6e" d="M 4056 2131 
L 4056 0 
L 2931 0 
L 2931 347 
L 2931 1631 
Q 2931 2084 2911 2256 
Q 2891 2428 2841 2509 
Q 2775 2619 2662 2680 
Q 2550 2741 2406 2741 
Q 2056 2741 1856 2470 
Q 1656 2200 1656 1722 
L 1656 0 
L 538 0 
L 538 3500 
L 1656 3500 
L 1656 2988 
Q 1909 3294 2193 3439 
Q 2478 3584 2822 3584 
Q 3428 3584 3742 3212 
Q 4056 2841 4056 2131 
z
" transform="scale(0.015625)"/>
     <path id="DejaVuSans-Bold-69" d="M 538 3500 
L 1656 3500 
L 1656 0 
L 538 0 
L 538 3500 
z
M 538 4863 
L 1656 4863 
L 1656 3950 
L 538 3950 
L 538 4863 
z
" transform="scale(0.015625)"/>
     <path id="DejaVuSans-Bold-7a" d="M 366 3500 
L 3419 3500 
L 3419 2719 
L 1575 800 
L 3419 800 
L 3419 0 
L 288 0 
L 288 781 
L 2131 2700 
L 366 2700 
L 366 3500 
z
" transform="scale(0.015625)"/>
     <path id="DejaVuSans-Bold-67" d="M 2919 594 
Q 2688 288 2409 144 
Q 2131 0 1766 0 
Q 1125 0 706 504 
Q 288 1009 288 1791 
Q 288 2575 706 3076 
Q 1125 3578 1766 3578 
Q 2131 3578 2409 3434 
Q 2688 3291 2919 2981 
L 2919 3500 
L 4044 3500 
L 4044 353 
Q 4044 -491 3511 -936 
Q 2978 -1381 1966 -1381 
Q 1638 -1381 1331 -1331 
Q 1025 -1281 716 -1178 
L 716 -306 
Q 1009 -475 1290 -558 
Q 1572 -641 1856 -641 
Q 2406 -641 2662 -400 
Q 2919 -159 2919 353 
L 2919 594 
z
M 2181 2772 
Q 1834 2772 1640 2515 
Q 1447 2259 1447 1791 
Q 1447 1309 1634 1061 
Q 1822 813 2181 813 
Q 2531 813 2725 1069 
Q 2919 1325 2919 1791 
Q 2919 2259 2725 2515 
Q 2531 2772 2181 2772 
z
" transform="scale(0.015625)"/>
     <path id="DejaVuSans-Bold-73" d="M 3272 3391 
L 3272 2541 
Q 2913 2691 2578 2766 
Q 2244 2841 1947 2841 
Q 1628 2841 1473 2761 
Q 1319 2681 1319 2516 
Q 1319 2381 1436 2309 
Q 1553 2238 1856 2203 
L 2053 2175 
Q 2913 2066 3209 1816 
Q 3506 1566 3506 1031 
Q 3506 472 3093 190 
Q 2681 -91 1863 -91 
Q 1516 -91 1145 -36 
Q 775 19 384 128 
L 384 978 
Q 719 816 1070 734 
Q 1422 653 1784 653 
Q 2113 653 2278 743 
Q 2444 834 2444 1013 
Q 2444 1163 2330 1236 
Q 2216 1309 1875 1350 
L 1678 1375 
Q 931 1469 631 1722 
Q 331 1975 331 2491 
Q 331 3047 712 3315 
Q 1094 3584 1881 3584 
Q 2191 3584 2531 3537 
Q 2872 3491 3272 3391 
z
" transform="scale(0.015625)"/>
     <path id="DejaVuSans-Bold-66" d="M 2841 4863 
L 2841 4128 
L 2222 4128 
Q 1984 4128 1890 4042 
Q 1797 3956 1797 3744 
L 1797 3500 
L 2753 3500 
L 2753 2700 
L 1797 2700 
L 1797 0 
L 678 0 
L 678 2700 
L 122 2700 
L 122 3500 
L 678 3500 
L 678 3744 
Q 678 4316 997 4589 
Q 1316 4863 1984 4863 
L 2841 4863 
z
" transform="scale(0.015625)"/>
     <path id="DejaVuSans-Bold-22" d="M 2725 4666 
L 2725 2931 
L 1984 2931 
L 1984 4666 
L 2725 4666 
z
M 1350 4666 
L 1350 2931 
L 609 2931 
L 609 4666 
L 1350 4666 
z
" transform="scale(0.015625)"/>
    </defs>
    <use xlink:href="#DejaVuSans-Bold-54"/>
    <use xlink:href="#DejaVuSans-Bold-6f" x="54.962891"/>
    <use xlink:href="#DejaVuSans-Bold-6b" x="123.664062"/>
    <use xlink:href="#DejaVuSans-Bold-65" x="187.542969"/>
    <use xlink:href="#DejaVuSans-Bold-6e" x="255.365234"/>
    <use xlink:href="#DejaVuSans-Bold-69" x="326.556641"/>
    <use xlink:href="#DejaVuSans-Bold-7a" x="360.833984"/>
    <use xlink:href="#DejaVuSans-Bold-61" x="419.037109"/>
    <use xlink:href="#DejaVuSans-Bold-74" x="486.517578"/>
    <use xlink:href="#DejaVuSans-Bold-69" x="534.320312"/>
    <use xlink:href="#DejaVuSans-Bold-6f" x="568.597656"/>
    <use xlink:href="#DejaVuSans-Bold-6e" x="637.298828"/>
    <use xlink:href="#DejaVuSans-Bold-20" x="708.490234"/>
    <use xlink:href="#DejaVuSans-Bold-53" x="743.304688"/>
    <use xlink:href="#DejaVuSans-Bold-74" x="815.326172"/>
    <use xlink:href="#DejaVuSans-Bold-72" x="863.128906"/>
    <use xlink:href="#DejaVuSans-Bold-61" x="912.445312"/>
    <use xlink:href="#DejaVuSans-Bold-74" x="979.925781"/>
    <use xlink:href="#DejaVuSans-Bold-65" x="1027.728516"/>
    <use xlink:href="#DejaVuSans-Bold-67" x="1095.550781"/>
    <use xlink:href="#DejaVuSans-Bold-69" x="1167.132812"/>
    <use xlink:href="#DejaVuSans-Bold-65" x="1201.410156"/>
    <use xlink:href="#DejaVuSans-Bold-73" x="1269.232422"/>
    <use xlink:href="#DejaVuSans-Bold-20" x="1328.753906"/>
    <use xlink:href="#DejaVuSans-Bold-66" x="1363.568359"/>
    <use xlink:href="#DejaVuSans-Bold-6f" x="1407.074219"/>
    <use xlink:href="#DejaVuSans-Bold-72" x="1475.775391"/>
    <use xlink:href="#DejaVuSans-Bold-20" x="1525.091797"/>
    <use xlink:href="#DejaVuSans-Bold-22" x="1559.90625"/>
    <use xlink:href="#DejaVuSans-Bold-74" x="1612.005859"/>
    <use xlink:href="#DejaVuSans-Bold-6f" x="1659.808594"/>
    <use xlink:href="#DejaVuSans-Bold-6b" x="1728.509766"/>
    <use xlink:href="#DejaVuSans-Bold-65" x="1792.388672"/>
    <use xlink:href="#DejaVuSans-Bold-6e" x="1860.210938"/>
    <use xlink:href="#DejaVuSans-Bold-69" x="1931.402344"/>
    <use xlink:href="#DejaVuSans-Bold-7a" x="1965.679688"/>
    <use xlink:href="#DejaVuSans-Bold-61" x="2023.882812"/>
    <use xlink:href="#DejaVuSans-Bold-74" x="2091.363281"/>
    <use xlink:href="#DejaVuSans-Bold-69" x="2139.166016"/>
    <use xlink:href="#DejaVuSans-Bold-6f" x="2173.443359"/>
    <use xlink:href="#DejaVuSans-Bold-6e" x="2242.144531"/>
    <use xlink:href="#DejaVuSans-Bold-22" x="2313.335938"/>
   </g>
  </g>
 </g>
 <defs>
  <clipPath id="pdfe7e0a823">
   <rect x="7.2" y="33.84" width="756.18" height="167.4"/>
  </clipPath>
  <clipPath id="pe08b29c36a">
   <rect x="7.2" y="213.12" width="756.18" height="167.4"/>
  </clipPath>
  <clipPath id="pe688f60345">
   <rect x="7.2" y="392.4" width="756.18" height="167.4"/>
  </clipPath>
 </defs>
</svg>
