<?xml version="1.0" encoding="utf-8" standalone="no"?>
<!DOCTYPE svg PUBLIC "-//W3C//DTD SVG 1.1//EN"
  "http://www.w3.org/Graphics/SVG/1.1/DTD/svg11.dtd">
<svg xmlns:xlink="http://www.w3.org/1999/xlink" width="998.64pt" height="350.31125pt" viewBox="0 0 998.64 350.31125" xmlns="http://www.w3.org/2000/svg" version="1.1">
 <metadata>
  <rdf:RDF xmlns:dc="http://purl.org/dc/elements/1.1/" xmlns:cc="http://creativecommons.org/ns#" xmlns:rdf="http://www.w3.org/1999/02/22-rdf-syntax-ns#">
   <cc:Work>
    <dc:type rdf:resource="http://purl.org/dc/dcmitype/StillImage"/>
    <dc:date>2026-01-26T08:21:56.364432</dc:date>
    <dc:format>image/svg+xml</dc:format>
    <dc:creator>
     <cc:Agent>
      <dc:title>Matplotlib v3.10.8, https://matplotlib.org/</dc:title>
     </cc:Agent>
    </dc:creator>
   </cc:Work>
  </rdf:RDF>
 </metadata>
 <defs>
  <style type="text/css">*{stroke-linejoin: round; stroke-linecap: butt}</style>
 </defs>
 <g id="figure_1">
  <g id="patch_1">
   <path d="M 0 350.31125 
L 998.64 350.31125 
L 998.64 0 
L 0 0 
z
" style="fill: #ffffff"/>
  </g>
  <g id="axes_1">
   <g id="patch_2">
    <path d="M 7.2 343.11125 
L 991.44 343.11125 
L 991.44 33.39125 
L 7.2 33.39125 
z
" style="fill: #ffffff"/>
   </g>
   <g id="line2d_1">
    <path d="M 7.2 172.23125 
L 952.0704 172.23125 
" clip-path="url(#pba6274d011)" style="fill: none; stroke: #a8b5c4; stroke-width: 2; stroke-linecap: square"/>
   </g>
   <g id="matplotlib.axis_1"/>
   <g id="matplotlib.axis_2"/>
   <g id="line2d_2">
    <path d="M 85.9392 172.23125 
L 85.9392 129.51125 
" clip-path="url(#pba6274d011)" style="fill: none; stroke: #a8b5c4; stroke-width: 1.5; stroke-linecap: square"/>
   </g>
   <g id="line2d_3">
    <path d="M 479.6352 172.23125 
L 479.6352 129.51125 
" clip-path="url(#pba6274d011)" style="fill: none; stroke: #6c9bc2; stroke-width: 1.5; stroke-linecap: square"/>
   </g>
   <g id="line2d_4">
    <path d="M 558.3744 172.23125 
L 558.3744 223.49525 
" clip-path="url(#pba6274d011)" style="fill: none; stroke: #7fb685; stroke-width: 1.5; stroke-linecap: square"/>
   </g>
   <g id="line2d_5">
    <path d="M 637.1136 172.23125 
L 637.1136 129.51125 
" clip-path="url(#pba6274d011)" style="fill: none; stroke: #e8a87c; stroke-width: 1.5; stroke-linecap: square"/>
   </g>
   <g id="line2d_6">
    <path d="M 794.592 172.23125 
L 794.592 223.49525 
" clip-path="url(#pba6274d011)" style="fill: none; stroke: #b39ddb; stroke-width: 1.5; stroke-linecap: square"/>
   </g>
   <g id="line2d_7">
    <path d="M 873.3312 172.23125 
L 873.3312 129.51125 
" clip-path="url(#pba6274d011)" style="fill: none; stroke: #e57373; stroke-width: 1.5; stroke-linecap: square"/>
   </g>
   <g id="PathCollection_1">
    <defs>
     <path id="mf8c8cb7b30" d="M 0 5.477226 
C 1.452577 5.477226 2.845856 4.900111 3.872983 3.872983 
C 4.900111 2.845856 5.477226 1.452577 5.477226 0 
C 5.477226 -1.452577 4.900111 -2.845856 3.872983 -3.872983 
C 2.845856 -4.900111 1.452577 -5.477226 0 -5.477226 
C -1.452577 -5.477226 -2.845856 -4.900111 -3.872983 -3.872983 
C -4.900111 -2.845856 -5.477226 -1.452577 -5.477226 0 
C -5.477226 1.452577 -4.900111 2.845856 -3.872983 3.872983 
C -2.845856 4.900111 -1.452577 5.477226 0 5.477226 
z
" style="stroke: #ffffff; stroke-width: 1.5"/>
    </defs>
    <g clip-path="url(#pba6274d011)">
     <use xlink:href="#mf8c8cb7b30" x="85.9392" y="172.23125" style="fill: #a8b5c4; stroke: #ffffff; stroke-width: 1.5"/>
    </g>
   </g>
   <g id="text_1">
    <!-- Collobert &amp; -->
    <g style="fill: #4a4a4a" transform="translate(56.410294 104.266875) scale(0.1 -0.1)">
     <defs>
      <path id="MicrosoftYaHei-Bold-43" d="M 4013 175 
Q 3484 -84 2634 -84 
Q 1541 -84 898 570 
Q 256 1225 256 2316 
Q 256 3463 973 4192 
Q 1691 4922 2825 4922 
Q 3534 4922 4013 4738 
L 4013 3741 
Q 3522 4028 2900 4028 
Q 2191 4028 1766 3575 
Q 1341 3122 1341 2391 
Q 1341 1678 1744 1243 
Q 2147 809 2834 809 
Q 3481 809 4013 1122 
L 4013 175 
z
" transform="scale(0.015625)"/>
      <path id="MicrosoftYaHei-Bold-6f" d="M 253 1713 
Q 253 2566 764 3053 
Q 1275 3541 2138 3541 
Q 2972 3541 3462 3061 
Q 3953 2581 3953 1772 
Q 3953 922 3450 419 
Q 2947 -84 2088 -84 
Q 1244 -84 748 398 
Q 253 881 253 1713 
z
M 1275 1725 
Q 1275 691 2119 691 
Q 2928 691 2928 1753 
Q 2928 2766 2113 2766 
Q 1716 2766 1495 2494 
Q 1275 2222 1275 1725 
z
" transform="scale(0.015625)"/>
      <path id="MicrosoftYaHei-Bold-6c" d="M 444 0 
L 444 5116 
L 1450 5116 
L 1450 0 
L 444 0 
z
" transform="scale(0.015625)"/>
      <path id="MicrosoftYaHei-Bold-62" d="M 1469 416 
L 1469 0 
L 459 0 
L 459 5116 
L 1469 5116 
L 1469 2928 
L 1481 2928 
Q 1878 3541 2613 3541 
Q 3266 3541 3636 3084 
Q 4006 2628 4006 1825 
Q 4006 966 3581 441 
Q 3156 -84 2453 -84 
Q 1809 -84 1481 416 
L 1469 416 
z
M 1453 1494 
Q 1453 1153 1656 922 
Q 1859 691 2172 691 
Q 2550 691 2761 984 
Q 2972 1278 2972 1816 
Q 2972 2263 2780 2514 
Q 2588 2766 2231 2766 
Q 1894 2766 1673 2512 
Q 1453 2259 1453 1863 
L 1453 1494 
z
" transform="scale(0.015625)"/>
      <path id="MicrosoftYaHei-Bold-65" d="M 3528 1444 
L 1253 1444 
Q 1306 641 2222 641 
Q 2794 641 3231 922 
L 3231 181 
Q 2759 -84 1994 -84 
Q 1169 -84 711 381 
Q 253 847 253 1678 
Q 253 2506 740 3023 
Q 1228 3541 1966 3541 
Q 2700 3541 3114 3095 
Q 3528 2650 3528 1872 
L 3528 1444 
z
M 2588 2075 
Q 2588 2850 1959 2850 
Q 1700 2850 1500 2637 
Q 1300 2425 1250 2075 
L 2588 2075 
z
" transform="scale(0.015625)"/>
      <path id="MicrosoftYaHei-Bold-72" d="M 2663 2541 
Q 2478 2647 2216 2647 
Q 1872 2647 1670 2384 
Q 1469 2122 1469 1663 
L 1469 0 
L 459 0 
L 459 3456 
L 1469 3456 
L 1469 2806 
L 1481 2806 
Q 1731 3516 2391 3516 
Q 2569 3516 2663 3475 
L 2663 2541 
z
" transform="scale(0.015625)"/>
      <path id="MicrosoftYaHei-Bold-74" d="M 2494 41 
Q 2266 -84 1803 -84 
Q 703 -84 703 1072 
L 703 2703 
L 134 2703 
L 134 3456 
L 703 3456 
L 703 4216 
L 1706 4503 
L 1706 3456 
L 2494 3456 
L 2494 2703 
L 1706 2703 
L 1706 1247 
Q 1706 694 2144 694 
Q 2313 694 2494 794 
L 2494 41 
z
" transform="scale(0.015625)"/>
      <path id="MicrosoftYaHei-Bold-20" transform="scale(0.015625)"/>
      <path id="MicrosoftYaHei-Bold-26" d="M 3831 538 
Q 3075 -78 2078 -78 
Q 1247 -78 759 314 
Q 272 706 272 1394 
Q 272 2344 1441 2800 
Q 853 3259 853 3809 
Q 853 4319 1242 4620 
Q 1631 4922 2297 4922 
Q 2906 4922 3289 4628 
Q 3672 4334 3672 3872 
Q 3672 3134 2806 2772 
Q 3475 2472 3975 1731 
Q 4494 2384 4494 3319 
Q 4494 3578 4428 3784 
L 5297 3784 
Q 5363 3600 5363 3334 
Q 5363 2094 4428 1091 
Q 4794 700 5122 700 
Q 5450 700 5725 834 
L 5725 63 
Q 5381 -78 4981 -78 
Q 4369 -78 3831 538 
z
M 2188 3153 
Q 2775 3369 2775 3800 
Q 2775 3997 2633 4119 
Q 2491 4241 2297 4241 
Q 2066 4241 1912 4108 
Q 1759 3975 1759 3781 
Q 1759 3403 2188 3153 
z
M 3391 1181 
Q 2853 2041 2028 2381 
Q 1297 2044 1297 1434 
Q 1297 1100 1526 895 
Q 1756 691 2128 691 
Q 2822 691 3391 1181 
z
" transform="scale(0.015625)"/>
     </defs>
     <use xlink:href="#MicrosoftYaHei-Bold-43"/>
     <use xlink:href="#MicrosoftYaHei-Bold-6f" transform="translate(67.333984 0)"/>
     <use xlink:href="#MicrosoftYaHei-Bold-6c" transform="translate(133.056641 0)"/>
     <use xlink:href="#MicrosoftYaHei-Bold-6c" transform="translate(162.646484 0)"/>
     <use xlink:href="#MicrosoftYaHei-Bold-6f" transform="translate(192.236328 0)"/>
     <use xlink:href="#MicrosoftYaHei-Bold-62" transform="translate(257.958984 0)"/>
     <use xlink:href="#MicrosoftYaHei-Bold-65" transform="translate(324.560547 0)"/>
     <use xlink:href="#MicrosoftYaHei-Bold-72" transform="translate(382.763672 0)"/>
     <use xlink:href="#MicrosoftYaHei-Bold-74" transform="translate(428.271484 0)"/>
     <use xlink:href="#MicrosoftYaHei-Bold-20" transform="translate(469.677734 0)"/>
     <use xlink:href="#MicrosoftYaHei-Bold-26" transform="translate(499.462891 0)"/>
    </g>
    <!-- Weston -->
    <g style="fill: #4a4a4a" transform="translate(66.752481 116.345312) scale(0.1 -0.1)">
     <defs>
      <path id="MicrosoftYaHei-Bold-57" d="M 6825 4841 
L 5534 0 
L 4388 0 
L 3563 3156 
Q 3497 3413 3484 3691 
L 3472 3691 
Q 3441 3366 3384 3156 
L 2541 0 
L 1350 0 
L 59 4841 
L 1191 4841 
L 1909 1559 
Q 1956 1344 1975 1016 
L 1997 1016 
Q 2013 1272 2094 1575 
L 2994 4841 
L 4091 4841 
L 4909 1534 
Q 4959 1338 4988 1022 
L 5003 1022 
Q 5016 1294 5075 1553 
L 5778 4841 
L 6825 4841 
z
" transform="scale(0.015625)"/>
      <path id="MicrosoftYaHei-Bold-73" d="M 369 928 
Q 888 613 1384 613 
Q 2009 613 2009 947 
Q 2009 1184 1494 1344 
Q 850 1544 609 1789 
Q 369 2034 369 2453 
Q 369 2963 781 3252 
Q 1194 3541 1863 3541 
Q 2338 3541 2778 3400 
L 2778 2606 
Q 2375 2844 1891 2844 
Q 1650 2844 1503 2758 
Q 1356 2672 1356 2531 
Q 1356 2294 1794 2147 
Q 2263 1991 2498 1862 
Q 2734 1734 2857 1525 
Q 2981 1316 2981 1041 
Q 2981 506 2553 211 
Q 2125 -84 1409 -84 
Q 847 -84 369 94 
L 369 928 
z
" transform="scale(0.015625)"/>
      <path id="MicrosoftYaHei-Bold-6e" d="M 3744 0 
L 2741 0 
L 2741 1928 
Q 2741 2766 2138 2766 
Q 1850 2766 1659 2542 
Q 1469 2319 1469 1972 
L 1469 0 
L 459 0 
L 459 3456 
L 1469 3456 
L 1469 2906 
L 1481 2906 
Q 1859 3541 2594 3541 
Q 3744 3541 3744 2116 
L 3744 0 
z
" transform="scale(0.015625)"/>
     </defs>
     <use xlink:href="#MicrosoftYaHei-Bold-57"/>
     <use xlink:href="#MicrosoftYaHei-Bold-65" transform="translate(104.742188 0)"/>
     <use xlink:href="#MicrosoftYaHei-Bold-73" transform="translate(162.945312 0)"/>
     <use xlink:href="#MicrosoftYaHei-Bold-74" transform="translate(212.310547 0)"/>
     <use xlink:href="#MicrosoftYaHei-Bold-6f" transform="translate(253.216797 0)"/>
     <use xlink:href="#MicrosoftYaHei-Bold-6e" transform="translate(318.939453 0)"/>
    </g>
   </g>
   <g id="text_2">
    <!-- 多任务共享表示 -->
    <g style="fill: #a8b5c4" transform="translate(57.9392 81.54775) scale(0.08 -0.08)">
     <defs>
      <path id="MicrosoftYaHei-591a" d="M 3719 2803 
L 4338 2803 
Q 4050 2522 3744 2272 
L 6019 2272 
L 6019 1816 
Q 4006 -366 650 -891 
Q 538 -666 369 -422 
Q 1894 -203 3100 322 
Q 2919 559 2581 903 
L 2956 1178 
Q 3275 847 3538 522 
Q 4588 1059 5344 1834 
L 3200 1834 
Q 2100 1009 881 484 
Q 769 666 581 909 
Q 2319 1609 3719 2803 
z
M 2775 5316 
L 3406 5316 
Q 3088 4972 2756 4672 
L 5700 4672 
L 5700 4247 
Q 3550 2516 481 1666 
Q 350 1916 194 2103 
Q 1481 2441 2506 2872 
Q 2281 3122 1913 3484 
L 2263 3759 
Q 2631 3403 2944 3066 
Q 4088 3584 4950 4234 
L 2256 4234 
Q 1606 3678 713 3172 
Q 575 3359 369 3566 
Q 1800 4328 2775 5316 
z
" transform="scale(0.015625)"/>
      <path id="MicrosoftYaHei-4efb" d="M 2138 -3 
L 3963 -3 
L 3963 1972 
L 2025 1972 
L 2025 2447 
L 3963 2447 
L 3963 4306 
Q 3188 4253 2338 4209 
Q 2306 4428 2250 4691 
Q 4356 4803 5969 4978 
L 6063 4484 
Q 5325 4409 4488 4347 
L 4488 2447 
L 6319 2447 
L 6319 1972 
L 4488 1972 
L 4488 -3 
L 6225 -3 
L 6225 -466 
L 2138 -466 
L 2138 -3 
z
M 75 2309 
Q 1044 3616 1606 5291 
L 2100 5109 
Q 1819 4375 1513 3741 
L 1513 -841 
L 1019 -841 
L 1019 2822 
Q 666 2225 281 1753 
Q 194 2003 75 2309 
z
" transform="scale(0.015625)"/>
      <path id="MicrosoftYaHei-52a1" d="M 1900 5391 
L 2369 5191 
Q 2228 4959 2075 4741 
L 5456 4741 
L 5456 4322 
Q 4875 3616 3866 3088 
Q 4916 2706 6369 2616 
Q 6169 2334 6019 2091 
Q 4391 2306 3288 2819 
Q 2047 2291 288 1984 
Q 181 2178 31 2422 
Q 1597 2663 2750 3103 
Q 2038 3538 1609 4131 
Q 1125 3556 538 3066 
Q 350 3266 194 3403 
Q 1344 4316 1900 5391 
z
M 588 1728 
L 2406 1728 
Q 2450 2031 2481 2403 
L 2988 2403 
Q 2947 2031 2903 1728 
L 5425 1728 
Q 5363 609 5306 159 
Q 5206 -722 4256 -728 
Q 3888 -734 3150 -703 
Q 3113 -472 3056 -184 
Q 3775 -247 4244 -253 
Q 4775 -241 4831 284 
Q 4888 753 4913 1284 
L 2828 1284 
Q 2497 -219 500 -897 
Q 356 -691 194 -478 
Q 1988 103 2319 1284 
L 588 1284 
L 588 1728 
z
M 4788 4328 
L 1997 4328 
Q 2500 3725 3291 3334 
Q 4194 3756 4788 4328 
z
" transform="scale(0.015625)"/>
      <path id="MicrosoftYaHei-5171" d="M 125 1847 
L 1738 1847 
L 1738 3572 
L 375 3572 
L 375 4047 
L 1738 4047 
L 1738 5247 
L 2250 5247 
L 2250 4047 
L 4144 4047 
L 4144 5253 
L 4656 5253 
L 4656 4047 
L 6025 4047 
L 6025 3572 
L 4656 3572 
L 4656 1847 
L 6275 1847 
L 6275 1372 
L 125 1372 
L 125 1847 
z
M 2250 1847 
L 4144 1847 
L 4144 3572 
L 2250 3572 
L 2250 1847 
z
M 2219 1053 
L 2606 653 
Q 1569 -103 444 -747 
Q 306 -547 113 -316 
Q 1206 266 2219 1053 
z
M 3744 622 
L 4063 1016 
Q 5138 378 6131 -303 
L 5769 -759 
Q 4781 -16 3744 622 
z
" transform="scale(0.015625)"/>
      <path id="MicrosoftYaHei-4eab" d="M 113 884 
L 3006 884 
L 3006 1216 
L 4538 1634 
L 663 1634 
L 663 2047 
L 5400 2047 
L 5400 1509 
L 3506 953 
L 3506 884 
L 6275 884 
L 6275 459 
L 3506 459 
L 3506 -53 
Q 3506 -778 2725 -778 
Q 2363 -778 1800 -766 
Q 1781 -559 1725 -259 
Q 2231 -316 2638 -316 
Q 3006 -322 3006 22 
L 3006 459 
L 113 459 
L 113 884 
z
M 1025 3772 
L 5325 3772 
L 5325 2291 
L 4850 2291 
L 4850 2491 
L 1500 2491 
L 1500 2291 
L 1025 2291 
L 1025 3772 
z
M 188 4584 
L 2972 4584 
Q 2784 4869 2594 5128 
L 3050 5397 
Q 3344 5009 3538 4722 
L 3300 4584 
L 6219 4584 
L 6219 4159 
L 188 4159 
L 188 4584 
z
M 4850 3372 
L 1500 3372 
L 1500 2891 
L 4850 2891 
L 4850 3372 
z
" transform="scale(0.015625)"/>
      <path id="MicrosoftYaHei-8868" d="M 5519 1891 
L 5863 1459 
L 4466 759 
Q 5200 159 6306 -34 
Q 6094 -309 5956 -534 
Q 3941 -53 3066 1944 
Q 2747 1538 2338 1172 
L 2338 -166 
Q 3163 103 3869 397 
Q 3863 122 3875 -147 
Q 3125 -403 2325 -709 
Q 2156 -778 1994 -872 
L 1700 -416 
Q 1875 -291 1875 -66 
L 1875 794 
Q 1228 309 406 -84 
Q 269 134 88 347 
Q 1703 1009 2625 2122 
L 156 2122 
L 156 2553 
L 2956 2553 
L 2956 3191 
L 600 3191 
L 600 3622 
L 2956 3622 
L 2956 4234 
L 350 4234 
L 350 4666 
L 2956 4666 
L 2956 5366 
L 3450 5366 
L 3450 4666 
L 6069 4666 
L 6069 4234 
L 3450 4234 
L 3450 3622 
L 5800 3622 
L 5800 3191 
L 3450 3191 
L 3450 2553 
L 6244 2553 
L 6244 2122 
L 3466 2122 
Q 3728 1513 4141 1066 
Q 4769 1378 5519 1891 
z
" transform="scale(0.015625)"/>
      <path id="MicrosoftYaHei-793a" d="M 100 3072 
L 6300 3072 
L 6300 2603 
L 3619 2603 
L 3619 78 
Q 3619 -703 2800 -709 
Q 2366 -709 1825 -703 
Q 1788 -447 1731 -128 
Q 2225 -178 2663 -178 
Q 3088 -178 3088 241 
L 3088 2603 
L 100 2603 
L 100 3072 
z
M 675 4916 
L 5744 4916 
L 5744 4447 
L 675 4447 
L 675 4916 
z
M 4413 1847 
L 4831 2128 
Q 5600 1184 6319 159 
L 5863 -141 
Q 5088 991 4413 1847 
z
M 1481 2141 
L 1938 1884 
Q 1281 747 538 -278 
Q 344 -134 125 16 
Q 825 922 1481 2141 
z
" transform="scale(0.015625)"/>
     </defs>
     <use xlink:href="#MicrosoftYaHei-591a"/>
     <use xlink:href="#MicrosoftYaHei-4efb" transform="translate(100 0)"/>
     <use xlink:href="#MicrosoftYaHei-52a1" transform="translate(200 0)"/>
     <use xlink:href="#MicrosoftYaHei-5171" transform="translate(300 0)"/>
     <use xlink:href="#MicrosoftYaHei-4eab" transform="translate(400 0)"/>
     <use xlink:href="#MicrosoftYaHei-8868" transform="translate(500 0)"/>
     <use xlink:href="#MicrosoftYaHei-793a" transform="translate(600 0)"/>
    </g>
    <!-- (被低估的先驱) -->
    <g style="fill: #a8b5c4" transform="translate(59.2667 91.2105) scale(0.08 -0.08)">
     <defs>
      <path id="MicrosoftYaHei-28" d="M 1531 -1100 
Q 478 100 478 1847 
Q 478 3594 1531 4841 
L 2072 4841 
Q 1016 3544 1016 1853 
Q 1016 166 2066 -1100 
L 1531 -1100 
z
" transform="scale(0.015625)"/>
      <path id="MicrosoftYaHei-88ab" d="M 2606 4391 
L 4225 4391 
L 4225 5303 
L 4675 5303 
L 4675 4391 
L 6163 4391 
L 6163 3997 
Q 6038 3566 5844 3159 
Q 5656 3247 5419 3322 
Q 5581 3647 5681 3978 
L 4675 3978 
L 4675 2753 
L 5794 2753 
L 5794 2378 
Q 5491 1194 4844 434 
Q 5363 -25 6313 -347 
Q 6125 -572 5956 -816 
Q 5056 -419 4509 103 
Q 3884 -459 3000 -834 
Q 2863 -622 2688 -422 
Q 3634 -59 4203 431 
Q 3575 1141 3356 2341 
L 3044 2341 
L 3044 2009 
Q 3044 197 2081 -834 
Q 1925 -616 1763 -447 
Q 2606 516 2606 2009 
L 2606 4391 
z
M 125 3641 
L 125 4097 
L 2175 4097 
L 2175 3628 
Q 1841 3038 1413 2484 
L 1413 2338 
Q 1538 2213 1650 2097 
Q 1947 2431 2138 2684 
L 2469 2409 
Q 2250 2147 1919 1816 
Q 2163 1556 2344 1347 
L 2031 1022 
Q 1772 1366 1413 1769 
L 1413 -797 
L 975 -797 
L 975 1963 
Q 641 1594 263 1241 
Q 194 1484 88 1784 
Q 1106 2634 1625 3641 
L 125 3641 
z
M 3044 2753 
L 4225 2753 
L 4225 3978 
L 3044 3978 
L 3044 2753 
z
M 5306 2341 
L 3788 2341 
Q 3988 1406 4528 766 
Q 5034 1391 5306 2341 
z
M 738 5141 
L 1163 5353 
Q 1444 4922 1656 4484 
L 1206 4259 
Q 1025 4653 738 5141 
z
" transform="scale(0.015625)"/>
      <path id="MicrosoftYaHei-4f4e" d="M 2275 4809 
Q 4069 4809 5994 5072 
L 6169 4603 
Q 5306 4522 4497 4469 
Q 4513 3594 4556 2872 
L 6250 2872 
L 6250 2422 
L 4591 2422 
Q 4775 250 5581 -172 
Q 5756 -247 5806 -41 
Q 5863 278 5913 897 
Q 6156 784 6363 728 
Q 6300 141 6225 -241 
Q 6119 -728 5738 -728 
Q 5275 -728 4856 -178 
Q 4259 644 4122 2422 
L 2750 2422 
L 2750 209 
Q 3425 597 3913 878 
Q 3950 591 4006 397 
Q 3206 -59 2744 -353 
Q 2563 -472 2388 -634 
L 2063 -222 
Q 2275 -41 2275 316 
L 2275 4809 
z
M 38 2397 
Q 1000 3697 1531 5334 
L 1988 5172 
Q 1678 4309 1306 3578 
L 1306 -828 
L 856 -828 
L 856 2778 
Q 550 2288 213 1872 
Q 138 2122 38 2397 
z
M 4016 4441 
Q 3366 4403 2750 4384 
L 2750 2872 
L 4094 2872 
Q 4059 3481 4016 4441 
z
M 3531 -116 
L 3856 141 
Q 4206 -191 4544 -566 
L 4181 -859 
Q 3888 -491 3531 -116 
z
" transform="scale(0.015625)"/>
      <path id="MicrosoftYaHei-4f30" d="M 2250 2284 
L 3781 2284 
L 3781 3553 
L 1800 3553 
L 1800 4016 
L 3781 4016 
L 3781 5316 
L 4294 5316 
L 4294 4016 
L 6300 4016 
L 6300 3553 
L 4294 3553 
L 4294 2284 
L 5831 2284 
L 5831 -841 
L 5319 -841 
L 5319 -353 
L 2763 -353 
L 2763 -841 
L 2250 -841 
L 2250 2284 
z
M 5319 1822 
L 2763 1822 
L 2763 97 
L 5319 97 
L 5319 1822 
z
M 44 2259 
Q 919 3559 1431 5347 
L 1944 5197 
Q 1713 4494 1456 3878 
L 1456 -853 
L 963 -853 
L 963 2834 
Q 634 2213 269 1716 
Q 175 1984 44 2259 
z
" transform="scale(0.015625)"/>
      <path id="MicrosoftYaHei-7684" d="M 356 4284 
L 988 4284 
Q 1219 4853 1369 5322 
L 1894 5172 
Q 1697 4694 1513 4284 
L 2763 4284 
L 2763 -691 
L 2263 -691 
L 2263 -203 
L 856 -203 
L 856 -734 
L 356 -734 
L 356 4284 
z
M 2856 3003 
Q 3444 3934 3850 5322 
L 4375 5191 
Q 4216 4719 4050 4303 
L 6063 4303 
Q 5988 1091 5938 259 
Q 5894 -722 4906 -722 
Q 4338 -722 3750 -684 
Q 3713 -372 3650 -128 
L 3669 -128 
Q 4294 -216 4813 -216 
Q 5381 -216 5425 384 
Q 5494 1316 5525 3834 
L 3850 3834 
Q 3578 3231 3288 2772 
Q 3119 2891 2856 3003 
z
M 856 266 
L 2263 266 
L 2263 1847 
L 856 1847 
L 856 266 
z
M 2263 3816 
L 856 3816 
L 856 2297 
L 2263 2297 
L 2263 3816 
z
M 3406 2578 
L 3788 2859 
Q 4481 2041 4894 1441 
L 4431 1116 
Q 3988 1841 3406 2578 
z
" transform="scale(0.015625)"/>
      <path id="MicrosoftYaHei-5148" d="M 225 2453 
L 2956 2453 
L 2956 3784 
L 1459 3784 
Q 1153 3166 800 2709 
Q 569 2891 394 2997 
Q 1094 3903 1481 5166 
L 1969 5028 
Q 1828 4613 1672 4247 
L 2956 4247 
L 2956 5309 
L 3469 5309 
L 3469 4247 
L 5788 4247 
L 5788 3784 
L 3469 3784 
L 3469 2453 
L 6219 2453 
L 6219 1991 
L 4206 1991 
L 4206 222 
Q 4169 -259 4638 -216 
L 5275 -216 
Q 5706 -216 5750 109 
Q 5794 428 5819 1022 
Q 6056 922 6344 834 
Q 6313 372 6231 -122 
Q 6169 -434 5956 -559 
Q 5769 -678 5281 -678 
L 4538 -678 
Q 3663 -716 3700 141 
L 3700 1991 
L 2478 1991 
Q 2428 909 2044 328 
Q 1581 -397 369 -847 
Q 244 -647 50 -397 
Q 1163 -16 1581 584 
Q 1925 1047 1978 1991 
L 225 1991 
L 225 2453 
z
" transform="scale(0.015625)"/>
      <path id="MicrosoftYaHei-9a71" d="M 1006 4128 
L 800 2366 
L 1544 2366 
L 1725 4553 
L 206 4553 
L 206 4991 
L 2238 4991 
L 2019 2366 
L 2494 2366 
Q 2444 1034 2388 278 
Q 2356 -684 1525 -684 
Q 1150 -684 656 -666 
Q 625 -434 575 -141 
Q 1038 -197 1450 -197 
Q 1894 -197 1931 341 
Q 1975 922 2000 1928 
L 281 1928 
L 538 4128 
L 1006 4128 
z
M 2900 4941 
L 6163 4941 
L 6163 4491 
L 3381 4491 
L 3381 -122 
L 6250 -122 
L 6250 -572 
L 2900 -572 
L 2900 4941 
z
M 3513 3847 
L 3900 4047 
Q 4334 3359 4756 2638 
Q 5109 3347 5394 4116 
L 5844 3953 
Q 5456 2978 5034 2163 
Q 5500 1356 5956 509 
L 5513 297 
Q 5156 963 4766 1663 
Q 4322 884 3844 272 
L 3438 522 
Q 4022 1284 4497 2144 
Q 4028 2972 3513 3847 
z
M 56 997 
Q 588 1116 1769 1459 
Q 1788 1197 1813 1003 
Q 1338 872 194 522 
L 56 997 
z
" transform="scale(0.015625)"/>
      <path id="MicrosoftYaHei-29" d="M 78 -1100 
Q 1131 163 1131 1853 
Q 1131 3547 72 4841 
L 616 4841 
Q 1672 3603 1672 1847 
Q 1672 91 616 -1100 
L 78 -1100 
z
" transform="scale(0.015625)"/>
     </defs>
     <use xlink:href="#MicrosoftYaHei-28"/>
     <use xlink:href="#MicrosoftYaHei-88ab" transform="translate(33.398438 0)"/>
     <use xlink:href="#MicrosoftYaHei-4f4e" transform="translate(133.398438 0)"/>
     <use xlink:href="#MicrosoftYaHei-4f30" transform="translate(233.398438 0)"/>
     <use xlink:href="#MicrosoftYaHei-7684" transform="translate(333.398438 0)"/>
     <use xlink:href="#MicrosoftYaHei-5148" transform="translate(433.398438 0)"/>
     <use xlink:href="#MicrosoftYaHei-9a71" transform="translate(533.398438 0)"/>
     <use xlink:href="#MicrosoftYaHei-29" transform="translate(633.398438 0)"/>
    </g>
   </g>
   <g id="PathCollection_2">
    <defs>
     <path id="m25804c1525" d="M 0 5.477226 
C 1.452577 5.477226 2.845856 4.900111 3.872983 3.872983 
C 4.900111 2.845856 5.477226 1.452577 5.477226 0 
C 5.477226 -1.452577 4.900111 -2.845856 3.872983 -3.872983 
C 2.845856 -4.900111 1.452577 -5.477226 0 -5.477226 
C -1.452577 -5.477226 -2.845856 -4.900111 -3.872983 -3.872983 
C -4.900111 -2.845856 -5.477226 -1.452577 -5.477226 0 
C -5.477226 1.452577 -4.900111 2.845856 -3.872983 3.872983 
C -2.845856 4.900111 -1.452577 5.477226 0 5.477226 
z
" style="stroke: #ffffff; stroke-width: 1.5"/>
    </defs>
    <g clip-path="url(#pba6274d011)">
     <use xlink:href="#m25804c1525" x="479.6352" y="172.23125" style="fill: #6c9bc2; stroke: #ffffff; stroke-width: 1.5"/>
    </g>
   </g>
   <g id="text_3">
    <!-- Word2Vec -->
    <g style="fill: #4a4a4a" transform="translate(453.893794 116.345312) scale(0.1 -0.1)">
     <defs>
      <path id="MicrosoftYaHei-Bold-64" d="M 3794 0 
L 2788 0 
L 2788 488 
L 2772 488 
Q 2406 -84 1691 -84 
Q 1031 -84 642 381 
Q 253 847 253 1650 
Q 253 2500 689 3020 
Q 1125 3541 1828 3541 
Q 2503 3541 2772 3053 
L 2788 3053 
L 2788 5116 
L 3794 5116 
L 3794 0 
z
M 2803 1956 
Q 2803 2306 2592 2536 
Q 2381 2766 2066 2766 
Q 1697 2766 1486 2473 
Q 1275 2181 1275 1681 
Q 1275 1206 1478 948 
Q 1681 691 2038 691 
Q 2372 691 2587 962 
Q 2803 1234 2803 1669 
L 2803 1956 
z
" transform="scale(0.015625)"/>
      <path id="MicrosoftYaHei-Bold-32" d="M 1500 841 
L 3553 841 
L 3553 0 
L 334 0 
L 334 359 
Q 334 738 473 1050 
Q 613 1363 856 1633 
Q 1100 1903 1613 2266 
Q 2081 2616 2268 2886 
Q 2456 3156 2456 3459 
Q 2456 4113 1744 4113 
Q 1119 4113 550 3613 
L 550 4513 
Q 1184 4922 1975 4922 
Q 2700 4922 3122 4551 
Q 3544 4181 3544 3531 
Q 3544 3169 3422 2876 
Q 3300 2584 3069 2328 
Q 2838 2072 2328 1713 
Q 1838 1363 1669 1172 
Q 1500 981 1500 841 
z
" transform="scale(0.015625)"/>
      <path id="MicrosoftYaHei-Bold-56" d="M 4541 4841 
L 2859 0 
L 1694 0 
L 34 4841 
L 1147 4841 
L 2194 1419 
Q 2272 1166 2291 941 
L 2309 941 
Q 2334 1172 2416 1431 
L 3463 4841 
L 4541 4841 
z
" transform="scale(0.015625)"/>
      <path id="MicrosoftYaHei-Bold-63" d="M 3050 128 
Q 2688 -84 2019 -84 
Q 1228 -84 740 397 
Q 253 878 253 1644 
Q 253 2525 778 3033 
Q 1303 3541 2178 3541 
Q 2769 3541 3053 3378 
L 3053 2513 
Q 2706 2766 2297 2766 
Q 1834 2766 1554 2484 
Q 1275 2203 1275 1713 
Q 1275 1238 1540 964 
Q 1806 691 2263 691 
Q 2666 691 3050 947 
L 3050 128 
z
" transform="scale(0.015625)"/>
     </defs>
     <use xlink:href="#MicrosoftYaHei-Bold-57"/>
     <use xlink:href="#MicrosoftYaHei-Bold-6f" transform="translate(104.742188 0)"/>
     <use xlink:href="#MicrosoftYaHei-Bold-72" transform="translate(170.464844 0)"/>
     <use xlink:href="#MicrosoftYaHei-Bold-64" transform="translate(212.347656 0)"/>
     <use xlink:href="#MicrosoftYaHei-Bold-32" transform="translate(278.802734 0)"/>
     <use xlink:href="#MicrosoftYaHei-Bold-56" transform="translate(340.472656 0)"/>
     <use xlink:href="#MicrosoftYaHei-Bold-65" transform="translate(404.957031 0)"/>
     <use xlink:href="#MicrosoftYaHei-Bold-63" transform="translate(463.160156 0)"/>
    </g>
   </g>
   <g id="text_4">
    <!-- 词向量预训练 -->
    <g style="fill: #a8b5c4" transform="translate(455.6352 81.54775) scale(0.08 -0.08)">
     <defs>
      <path id="MicrosoftYaHei-8bcd" d="M 2319 2509 
L 4650 2509 
L 4650 434 
L 2769 434 
L 2769 47 
L 2319 47 
L 2319 2509 
z
M 1919 3716 
L 5131 3716 
L 5131 3253 
L 1919 3253 
L 1919 3716 
z
M 2125 4509 
L 2125 4972 
L 5956 4972 
L 5956 -34 
Q 5956 -759 5306 -766 
Q 4750 -766 4188 -759 
Q 4169 -553 4088 -259 
Q 4694 -303 5156 -303 
Q 5469 -303 5469 53 
L 5469 4509 
L 2125 4509 
z
M 2006 622 
Q 2025 297 2050 84 
Q 1256 -428 888 -747 
L 594 -328 
Q 806 -159 806 234 
L 806 2691 
L 100 2691 
L 100 3141 
L 1288 3141 
L 1288 122 
Q 1725 416 2006 622 
z
M 738 5197 
Q 1419 4497 1725 4159 
L 1288 3791 
Q 894 4309 356 4866 
L 738 5197 
z
M 4200 872 
L 4200 2072 
L 2769 2072 
L 2769 872 
L 4200 872 
z
" transform="scale(0.015625)"/>
      <path id="MicrosoftYaHei-5411" d="M 1038 -772 
L 550 -772 
L 550 4359 
L 2394 4359 
Q 2550 4822 2694 5328 
L 3231 5178 
Q 3069 4741 2913 4359 
L 5838 4359 
L 5838 -34 
Q 5838 -741 5131 -741 
Q 4738 -741 4181 -728 
Q 4150 -509 4094 -241 
Q 4631 -284 5006 -284 
Q 5350 -284 5350 78 
L 5350 3897 
L 1038 3897 
L 1038 -772 
z
M 1894 2997 
L 4481 2997 
L 4481 803 
L 2369 803 
L 2369 372 
L 1894 372 
L 1894 2997 
z
M 4006 2547 
L 2369 2547 
L 2369 1253 
L 4006 1253 
L 4006 2547 
z
" transform="scale(0.015625)"/>
      <path id="MicrosoftYaHei-91cf" d="M 113 -278 
L 2981 -278 
L 2981 78 
L 475 78 
L 475 403 
L 2981 403 
L 2981 759 
L 1494 759 
L 1494 597 
L 1069 597 
L 1069 2516 
L 5350 2516 
L 5350 597 
L 4925 597 
L 4925 759 
L 3419 759 
L 3419 403 
L 5931 403 
L 5931 78 
L 3419 78 
L 3419 -278 
L 6288 -278 
L 6288 -616 
L 113 -616 
L 113 -278 
z
M 1119 5072 
L 5306 5072 
L 5306 3284 
L 4881 3284 
L 4881 3453 
L 1544 3453 
L 1544 3284 
L 1119 3284 
L 1119 5072 
z
M 163 3153 
L 6263 3153 
L 6263 2816 
L 163 2816 
L 163 3153 
z
M 1544 3778 
L 4881 3778 
L 4881 4116 
L 1544 4116 
L 1544 3778 
z
M 4881 4747 
L 1544 4747 
L 1544 4416 
L 4881 4416 
L 4881 4747 
z
M 3419 1084 
L 4925 1084 
L 4925 1491 
L 3419 1491 
L 3419 1084 
z
M 1494 1084 
L 2981 1084 
L 2981 1491 
L 1494 1491 
L 1494 1084 
z
M 4925 2191 
L 3419 2191 
L 3419 1791 
L 4925 1791 
L 4925 2191 
z
M 1494 1791 
L 2981 1791 
L 2981 2191 
L 1494 2191 
L 1494 1791 
z
" transform="scale(0.015625)"/>
      <path id="MicrosoftYaHei-9884" d="M 531 3872 
L 844 4147 
Q 1069 3947 1275 3747 
L 1938 4553 
L 175 4553 
L 175 4991 
L 2513 4991 
L 2513 4553 
L 1588 3434 
Q 1694 3322 1794 3216 
L 1544 2997 
L 2681 2997 
L 2681 2578 
Q 2581 2097 2369 1466 
Q 2175 1534 1938 1609 
Q 2094 2003 2213 2559 
L 1588 2559 
L 1588 -72 
Q 1588 -784 888 -784 
L 225 -784 
Q 194 -559 138 -278 
Q 450 -316 769 -316 
Q 1119 -316 1119 84 
L 1119 2559 
L 113 2559 
L 113 2997 
L 1344 2997 
Q 938 3484 531 3872 
z
M 2969 3716 
L 4025 3716 
L 4181 4572 
L 2744 4572 
L 2744 5009 
L 6294 5009 
L 6294 4572 
L 4688 4572 
L 4506 3716 
L 6006 3716 
L 6006 641 
L 5550 641 
L 5550 3284 
L 3425 3284 
L 3425 641 
L 2969 641 
L 2969 3716 
z
M 4244 3028 
L 4706 3028 
L 4706 2097 
Q 4706 1366 4519 841 
Q 5500 184 6306 -441 
L 5963 -847 
Q 5200 -197 4325 428 
Q 4263 334 4200 247 
Q 3694 -397 2613 -897 
Q 2413 -641 2263 -484 
Q 3381 -22 3831 572 
Q 4244 1109 4244 2128 
L 4244 3028 
z
" transform="scale(0.015625)"/>
      <path id="MicrosoftYaHei-8bad" d="M 2581 5178 
L 3056 5178 
L 3056 2722 
Q 3056 1272 2831 466 
Q 2613 -297 1981 -872 
Q 1769 -678 1550 -534 
Q 2156 -66 2375 647 
Q 2581 1353 2581 2678 
L 2581 5178 
z
M 5506 5184 
L 5981 5184 
L 5981 -772 
L 5506 -772 
L 5506 5184 
z
M 4038 4953 
L 4513 4953 
L 4513 -403 
L 4038 -403 
L 4038 4953 
z
M 2025 1372 
Q 2025 1059 2069 784 
Q 1438 247 913 -284 
L 625 116 
Q 838 316 838 691 
L 838 2803 
L 81 2803 
L 81 3253 
L 1313 3253 
L 1313 709 
Q 1650 1009 2025 1372 
z
M 875 5191 
Q 1438 4628 1850 4166 
L 1413 3797 
Q 1031 4303 500 4872 
L 875 5191 
z
" transform="scale(0.015625)"/>
      <path id="MicrosoftYaHei-7ec3" d="M 2363 3403 
L 3059 3403 
Q 3203 3781 3344 4197 
L 2213 4197 
L 2213 4622 
L 3488 4622 
Q 3603 4975 3719 5353 
L 4219 5253 
Q 4109 4931 4000 4622 
L 6000 4622 
L 6000 4197 
L 3847 4197 
Q 3700 3791 3553 3403 
L 4763 3403 
L 4763 2016 
L 6025 2016 
L 6025 1591 
L 4763 1591 
L 4763 3 
Q 4763 -734 4056 -734 
Q 3788 -734 3369 -728 
Q 3331 -516 3263 -241 
Q 3638 -284 3931 -284 
Q 4300 -284 4300 109 
L 4300 1591 
L 2475 1591 
L 2475 1997 
Q 2688 2450 2897 2978 
L 2363 2978 
L 2363 3403 
z
M 888 1566 
Q 1531 1659 2219 1778 
Q 2181 1547 2163 1297 
Q 1600 1216 319 1003 
L 219 1472 
Q 669 1969 1175 2794 
Q 666 2763 219 2722 
L 100 3147 
Q 700 3966 1294 5366 
L 1750 5178 
Q 1088 3878 644 3184 
Q 1078 3194 1419 3203 
Q 1669 3638 1931 4147 
L 2388 3916 
Q 1656 2659 888 1566 
z
M 3013 2016 
L 4300 2016 
L 4300 2978 
L 3394 2978 
Q 3203 2484 3013 2016 
z
M 94 122 
Q 1031 291 2219 559 
Q 2200 316 2206 78 
Q 1231 -103 219 -353 
L 94 122 
z
M 3194 1272 
L 3638 1066 
Q 3194 203 2700 -547 
Q 2500 -397 2275 -278 
Q 2813 459 3194 1272 
z
M 5094 1041 
L 5500 1278 
Q 5963 578 6381 -122 
L 5950 -391 
Q 5544 366 5094 1041 
z
" transform="scale(0.015625)"/>
     </defs>
     <use xlink:href="#MicrosoftYaHei-8bcd"/>
     <use xlink:href="#MicrosoftYaHei-5411" transform="translate(100 0)"/>
     <use xlink:href="#MicrosoftYaHei-91cf" transform="translate(200 0)"/>
     <use xlink:href="#MicrosoftYaHei-9884" transform="translate(300 0)"/>
     <use xlink:href="#MicrosoftYaHei-8bad" transform="translate(400 0)"/>
     <use xlink:href="#MicrosoftYaHei-7ec3" transform="translate(500 0)"/>
    </g>
    <!-- (第一代: 浅层迁移) -->
    <g style="fill: #a8b5c4" transform="translate(446.815825 91.2105) scale(0.08 -0.08)">
     <defs>
      <path id="MicrosoftYaHei-7b2c" d="M 4006 5347 
L 4544 5347 
Q 4406 5038 4256 4759 
L 6225 4759 
L 6225 4372 
L 4650 4372 
Q 4922 4106 5163 3822 
L 4806 3553 
L 5613 3553 
L 5613 1884 
L 5131 1884 
L 5131 2109 
L 3431 2109 
L 3431 1484 
L 5944 1484 
Q 5919 922 5881 416 
Q 5838 -372 5081 -372 
Q 4700 -372 4138 -366 
Q 4094 -134 4031 128 
Q 4644 97 4988 97 
Q 5356 97 5388 466 
Q 5419 759 5431 1059 
L 3431 1059 
L 3431 -853 
L 2931 -853 
L 2931 909 
Q 2059 -147 306 -703 
Q 194 -522 44 -303 
Q 1566 144 2463 1059 
L 563 1059 
L 563 1484 
L 863 2534 
L 2931 2534 
L 2931 3128 
L 744 3128 
L 744 3553 
L 1972 3553 
Q 1713 3891 1456 4184 
L 1706 4372 
L 1247 4372 
Q 875 3875 388 3459 
Q 263 3609 75 3797 
Q 869 4441 1294 5347 
L 1831 5347 
Q 1688 5041 1513 4759 
L 3325 4759 
L 3325 4372 
L 1825 4372 
Q 2075 4119 2331 3828 
L 1981 3553 
L 4794 3553 
Q 4541 3894 4294 4178 
L 4559 4372 
L 4028 4372 
Q 3784 3984 3506 3672 
Q 3369 3809 3125 3978 
Q 3650 4516 4006 5347 
z
M 1075 1484 
L 2931 1484 
L 2931 2109 
L 1250 2109 
L 1075 1484 
z
M 5131 3128 
L 3431 3128 
L 3431 2534 
L 5131 2534 
L 5131 3128 
z
" transform="scale(0.015625)"/>
      <path id="MicrosoftYaHei-4e00" d="M 100 2703 
L 6313 2703 
L 6313 2153 
L 100 2153 
L 100 2703 
z
" transform="scale(0.015625)"/>
      <path id="MicrosoftYaHei-4ee3" d="M 1850 3141 
L 3328 3303 
Q 3253 4097 3225 5284 
L 3769 5284 
Q 3756 4350 3847 3359 
L 6138 3609 
L 6194 3147 
L 3897 2894 
Q 4250 306 5256 -209 
Q 5531 -322 5613 -28 
Q 5731 416 5813 978 
Q 6075 866 6313 797 
Q 6219 191 6088 -278 
Q 5919 -822 5419 -809 
Q 4881 -791 4394 -166 
Q 3669 678 3384 2838 
L 1925 2678 
L 1850 3141 
z
M 38 2322 
Q 1013 3634 1581 5322 
L 2081 5147 
Q 1803 4419 1500 3794 
L 1500 -841 
L 988 -841 
L 988 2834 
Q 631 2238 250 1759 
Q 163 2016 38 2322 
z
M 4344 4791 
L 4669 5122 
Q 5219 4703 5794 4191 
L 5413 3803 
Q 4888 4341 4344 4791 
z
" transform="scale(0.015625)"/>
      <path id="MicrosoftYaHei-3a" d="M 372 3134 
Q 372 3303 490 3415 
Q 609 3528 775 3528 
Q 944 3528 1062 3414 
Q 1181 3300 1181 3134 
Q 1181 2969 1065 2853 
Q 950 2738 772 2738 
Q 603 2738 487 2853 
Q 372 2969 372 3134 
z
M 372 322 
Q 372 491 487 606 
Q 603 722 775 722 
Q 950 722 1065 605 
Q 1181 488 1181 322 
Q 1181 159 1065 42 
Q 950 -75 772 -75 
Q 600 -75 486 42 
Q 372 159 372 322 
z
" transform="scale(0.015625)"/>
      <path id="MicrosoftYaHei-20" transform="scale(0.015625)"/>
      <path id="MicrosoftYaHei-6d45" d="M 1613 -141 
Q 2841 188 3809 738 
Q 3594 1284 3478 2009 
L 1875 1816 
L 1800 2272 
L 3419 2466 
Q 3378 2866 3344 3431 
L 1981 3297 
L 1913 3747 
L 3319 3884 
Q 3291 4509 3269 5297 
L 3781 5297 
Q 3791 4531 3816 3931 
L 5956 4141 
L 6006 3697 
L 3838 3481 
Q 3872 2909 3919 2525 
L 6125 2791 
L 6181 2334 
L 3978 2069 
Q 4069 1466 4250 1006 
Q 4891 1431 5406 1966 
L 5756 1609 
Q 5153 1034 4456 575 
Q 4734 94 5150 -178 
Q 5600 -453 5681 9 
Q 5769 453 5831 953 
Q 6125 828 6325 772 
Q 6213 78 6094 -316 
Q 5944 -809 5513 -809 
Q 5138 -809 4769 -553 
Q 4319 -250 4013 303 
Q 3028 -263 1869 -616 
Q 1781 -422 1613 -141 
z
M 1050 1809 
Q 1294 1703 1544 1603 
Q 1219 534 838 -766 
L 306 -578 
Q 750 659 1050 1809 
z
M 406 3603 
Q 956 3222 1506 2778 
Q 1275 2503 1138 2359 
Q 594 2859 100 3253 
L 406 3603 
z
M 750 5247 
Q 1338 4784 1800 4372 
Q 1588 4141 1431 3972 
Q 806 4578 413 4916 
L 750 5247 
z
M 4231 4959 
L 4513 5278 
Q 5025 4972 5475 4597 
L 5150 4228 
Q 4750 4572 4231 4959 
z
" transform="scale(0.015625)"/>
      <path id="MicrosoftYaHei-5c42" d="M 394 -847 
Q 213 -603 50 -409 
Q 825 678 825 2709 
L 825 5022 
L 5963 5022 
L 5963 3053 
L 5488 3053 
L 5488 3284 
L 1300 3284 
L 1300 2609 
Q 1300 497 394 -847 
z
M 4294 559 
L 4631 853 
Q 5556 53 6100 -528 
L 5713 -872 
Q 5522 -656 5328 -453 
Q 3425 -463 2219 -553 
Q 2044 -566 1775 -634 
L 1563 -172 
Q 1938 -28 2144 147 
Q 2500 497 2906 1034 
L 1375 1034 
L 1375 1472 
L 6288 1472 
L 6288 1034 
L 3550 1034 
Q 3022 388 2569 -66 
Q 3741 -59 4922 -34 
Q 4613 272 4294 559 
z
M 1300 4584 
L 1300 3722 
L 5488 3722 
L 5488 4584 
L 1300 4584 
z
M 1819 2603 
L 5731 2603 
L 5731 2166 
L 1819 2166 
L 1819 2603 
z
" transform="scale(0.015625)"/>
      <path id="MicrosoftYaHei-8fc1" d="M 1919 2872 
L 3844 2872 
L 3844 4447 
Q 3047 4400 2231 4353 
Q 2188 4566 2119 4809 
Q 4188 4909 5869 5047 
L 5981 4584 
Q 5178 4531 4356 4478 
L 4356 2872 
L 6244 2872 
L 6244 2397 
L 4356 2397 
L 4356 84 
L 3844 84 
L 3844 2397 
L 1919 2397 
L 1919 2872 
z
M 2859 -150 
L 4338 -172 
L 6313 -109 
Q 6206 -366 6113 -609 
L 4188 -616 
L 2769 -603 
Q 1650 -575 1156 122 
Q 769 -209 369 -697 
L 100 -166 
Q 559 231 931 547 
L 931 2678 
L 131 2678 
L 131 3134 
L 1431 3134 
L 1431 459 
Q 1897 -131 2859 -150 
z
M 794 5278 
Q 1188 4809 1750 4072 
Q 1525 3941 1300 3778 
Q 763 4572 413 5003 
L 794 5278 
z
" transform="scale(0.015625)"/>
      <path id="MicrosoftYaHei-79fb" d="M 2244 703 
Q 3244 1434 3875 2441 
Q 3300 2159 2594 1928 
Q 2494 2122 2363 2347 
Q 3288 2616 4013 3022 
Q 3744 3284 3306 3641 
L 3594 3953 
Q 4050 3597 4400 3284 
Q 4981 3653 5488 4341 
L 3619 4341 
Q 3256 3834 2638 3303 
Q 2506 3472 2331 3653 
Q 3231 4384 3713 5353 
L 4156 5184 
Q 4050 4978 3925 4784 
L 6013 4784 
L 6013 4334 
Q 5475 3291 4113 2559 
L 4444 2447 
Q 4344 2284 4238 2128 
L 6219 2128 
L 6219 1672 
Q 5388 -234 2431 -922 
Q 2319 -684 2206 -509 
Q 3200 -297 4094 153 
Q 3825 447 3450 797 
L 3750 1097 
Q 4156 734 4494 397 
Q 5288 959 5706 1684 
L 3913 1684 
Q 3338 941 2531 309 
Q 2413 484 2244 703 
z
M 50 859 
Q 681 1759 1056 2947 
L 131 2947 
L 131 3391 
L 1119 3391 
L 1119 4372 
Q 719 4341 263 4309 
Q 231 4522 169 4766 
Q 1444 4834 2394 4972 
L 2506 4497 
Q 2119 4453 1581 4409 
L 1581 3391 
L 2450 3391 
L 2450 2947 
L 1581 2947 
L 1581 2147 
L 1788 2378 
Q 2200 2053 2606 1697 
L 2275 1328 
Q 1956 1628 1581 1972 
L 1581 -859 
L 1119 -859 
L 1119 1897 
Q 781 1009 269 322 
Q 169 591 50 859 
z
" transform="scale(0.015625)"/>
     </defs>
     <use xlink:href="#MicrosoftYaHei-28"/>
     <use xlink:href="#MicrosoftYaHei-7b2c" transform="translate(33.398438 0)"/>
     <use xlink:href="#MicrosoftYaHei-4e00" transform="translate(133.398438 0)"/>
     <use xlink:href="#MicrosoftYaHei-4ee3" transform="translate(233.398438 0)"/>
     <use xlink:href="#MicrosoftYaHei-3a" transform="translate(333.398438 0)"/>
     <use xlink:href="#MicrosoftYaHei-20" transform="translate(357.470703 0)"/>
     <use xlink:href="#MicrosoftYaHei-6d45" transform="translate(387.060547 0)"/>
     <use xlink:href="#MicrosoftYaHei-5c42" transform="translate(487.060547 0)"/>
     <use xlink:href="#MicrosoftYaHei-8fc1" transform="translate(587.060547 0)"/>
     <use xlink:href="#MicrosoftYaHei-79fb" transform="translate(687.060547 0)"/>
     <use xlink:href="#MicrosoftYaHei-29" transform="translate(787.060547 0)"/>
    </g>
   </g>
   <g id="PathCollection_3">
    <defs>
     <path id="mac949ad3ec" d="M 0 5.477226 
C 1.452577 5.477226 2.845856 4.900111 3.872983 3.872983 
C 4.900111 2.845856 5.477226 1.452577 5.477226 0 
C 5.477226 -1.452577 4.900111 -2.845856 3.872983 -3.872983 
C 2.845856 -4.900111 1.452577 -5.477226 0 -5.477226 
C -1.452577 -5.477226 -2.845856 -4.900111 -3.872983 -3.872983 
C -4.900111 -2.845856 -5.477226 -1.452577 -5.477226 0 
C -5.477226 1.452577 -4.900111 2.845856 -3.872983 3.872983 
C -2.845856 4.900111 -1.452577 5.477226 0 5.477226 
z
" style="stroke: #ffffff; stroke-width: 1.5"/>
    </defs>
    <g clip-path="url(#pba6274d011)">
     <use xlink:href="#mac949ad3ec" x="558.3744" y="172.23125" style="fill: #7fb685; stroke: #ffffff; stroke-width: 1.5"/>
    </g>
   </g>
   <g id="text_5">
    <!-- ImageNet -->
    <g style="fill: #4a4a4a" transform="translate(533.445494 244.256562) scale(0.1 -0.1)">
     <defs>
      <path id="MicrosoftYaHei-Bold-49" d="M 1588 4841 
L 1588 0 
L 556 0 
L 556 4841 
L 1588 4841 
z
" transform="scale(0.015625)"/>
      <path id="MicrosoftYaHei-Bold-6d" d="M 5881 0 
L 4875 0 
L 4875 1972 
Q 4875 2766 4297 2766 
Q 4028 2766 3850 2525 
Q 3672 2284 3672 1938 
L 3672 0 
L 2666 0 
L 2666 1997 
Q 2666 2766 2094 2766 
Q 1809 2766 1639 2536 
Q 1469 2306 1469 1928 
L 1469 0 
L 459 0 
L 459 3456 
L 1469 3456 
L 1469 2916 
L 1481 2916 
Q 1663 3213 1963 3377 
Q 2263 3541 2594 3541 
Q 3322 3541 3591 2888 
Q 3991 3541 4753 3541 
Q 5881 3541 5881 2147 
L 5881 0 
z
" transform="scale(0.015625)"/>
      <path id="MicrosoftYaHei-Bold-61" d="M 544 3247 
Q 778 3378 1170 3459 
Q 1563 3541 1841 3541 
Q 3291 3541 3291 2088 
L 3291 0 
L 2331 0 
L 2331 503 
L 2319 503 
Q 1966 -84 1284 -84 
Q 794 -84 498 195 
Q 203 475 203 956 
Q 203 1950 1388 2113 
L 2338 2241 
Q 2338 2844 1709 2844 
Q 1091 2844 544 2469 
L 544 3247 
z
M 1684 1566 
Q 1138 1494 1138 1072 
Q 1138 878 1270 759 
Q 1403 641 1628 641 
Q 1938 641 2138 859 
Q 2338 1078 2338 1403 
L 2338 1650 
L 1684 1566 
z
" transform="scale(0.015625)"/>
      <path id="MicrosoftYaHei-Bold-67" d="M 3800 381 
Q 3800 -581 3251 -1101 
Q 2703 -1622 1672 -1622 
Q 972 -1622 559 -1422 
L 559 -559 
Q 1097 -872 1644 -872 
Q 2184 -872 2489 -583 
Q 2794 -294 2794 219 
L 2794 506 
L 2778 506 
Q 2413 -84 1691 -84 
Q 1038 -84 645 381 
Q 253 847 253 1628 
Q 253 2500 686 3020 
Q 1119 3541 1822 3541 
Q 2459 3541 2778 3044 
L 2794 3044 
L 2794 3456 
L 3800 3456 
L 3800 381 
z
M 2803 1950 
Q 2803 2294 2595 2530 
Q 2388 2766 2072 2766 
Q 1703 2766 1489 2477 
Q 1275 2188 1275 1666 
Q 1275 1213 1481 952 
Q 1688 691 2028 691 
Q 2372 691 2587 956 
Q 2803 1222 2803 1647 
L 2803 1950 
z
" transform="scale(0.015625)"/>
      <path id="MicrosoftYaHei-Bold-4e" d="M 4863 0 
L 3806 0 
L 1756 3131 
Q 1597 3375 1525 3525 
L 1509 3525 
Q 1538 3275 1538 2753 
L 1538 0 
L 559 0 
L 559 4841 
L 1684 4841 
L 3659 1797 
Q 3856 1494 3900 1413 
L 3916 1413 
Q 3884 1588 3884 2081 
L 3884 4841 
L 4863 4841 
L 4863 0 
z
" transform="scale(0.015625)"/>
     </defs>
     <use xlink:href="#MicrosoftYaHei-Bold-49"/>
     <use xlink:href="#MicrosoftYaHei-Bold-6d" transform="translate(33.544922 0)"/>
     <use xlink:href="#MicrosoftYaHei-Bold-61" transform="translate(131.738281 0)"/>
     <use xlink:href="#MicrosoftYaHei-Bold-67" transform="translate(189.501953 0)"/>
     <use xlink:href="#MicrosoftYaHei-Bold-65" transform="translate(255.957031 0)"/>
     <use xlink:href="#MicrosoftYaHei-Bold-4e" transform="translate(314.160156 0)"/>
     <use xlink:href="#MicrosoftYaHei-Bold-65" transform="translate(398.974609 0)"/>
     <use xlink:href="#MicrosoftYaHei-Bold-74" transform="translate(457.177734 0)"/>
    </g>
    <!-- 预训练 -->
    <g style="fill: #4a4a4a" transform="translate(543.3744 256.383437) scale(0.1 -0.1)">
     <defs>
      <path id="MicrosoftYaHei-Bold-9884" d="M 2725 2984 
L 2525 903 
L 1963 903 
L 2088 2209 
L 1663 2209 
L 1663 -66 
Q 1663 -778 981 -822 
Q 763 -841 288 -841 
Q 213 -459 119 -34 
Q 319 -47 506 -47 
Q 850 -47 850 316 
L 850 2209 
L 75 2209 
L 75 2984 
L 938 2984 
Q 538 3266 181 3509 
L 625 4066 
Q 956 3797 1288 3516 
L 1800 4253 
L 175 4253 
L 175 5003 
L 2638 5003 
L 2638 4203 
L 1800 2984 
L 2725 2984 
z
M 2938 703 
L 2938 3703 
L 3913 3703 
L 4013 4241 
L 2813 4241 
L 2813 5016 
L 6188 5016 
L 6188 4241 
L 4856 4241 
L 4738 3703 
L 6081 3703 
L 6081 703 
L 5275 703 
L 5275 2928 
L 3744 2928 
L 3744 703 
L 2938 703 
z
M 4119 2603 
L 4906 2603 
L 4906 2422 
Q 4906 1447 4756 872 
Q 5606 278 6319 -303 
L 5731 -903 
Q 5175 -366 4450 191 
Q 4050 -366 3006 -909 
Q 2744 -509 2488 -178 
Q 3600 316 3881 878 
Q 4125 1366 4119 2422 
L 4119 2603 
z
" transform="scale(0.015625)"/>
      <path id="MicrosoftYaHei-Bold-8bad" d="M 956 5259 
Q 1475 4753 1925 4234 
L 1263 3684 
Q 769 4328 356 4747 
L 956 5259 
z
M 2450 5184 
L 3281 5184 
L 3281 2066 
Q 3281 209 2275 -884 
Q 1844 -528 1519 -328 
Q 2450 659 2450 2134 
L 2450 5184 
z
M 5238 5184 
L 6069 5184 
L 6069 -784 
L 5238 -784 
L 5238 5184 
z
M 3856 4953 
L 4663 4953 
L 4663 -416 
L 3856 -416 
L 3856 4953 
z
M 2019 1772 
Q 2050 1466 2175 916 
Q 1556 353 925 -341 
L 488 266 
Q 650 447 650 772 
L 650 2422 
L 125 2422 
L 125 3266 
L 1475 3266 
L 1475 1297 
Q 1769 1541 2019 1772 
z
" transform="scale(0.015625)"/>
      <path id="MicrosoftYaHei-Bold-7ec3" d="M 2400 3516 
L 2984 3516 
L 3159 4028 
L 2263 4028 
L 2263 4753 
L 3394 4753 
L 3575 5347 
L 4413 5291 
L 4238 4753 
L 6000 4753 
L 6000 4028 
L 3994 4028 
L 3809 3516 
L 4969 3516 
L 4969 2191 
L 6025 2191 
L 6025 1484 
L 4969 1484 
L 4969 297 
Q 4969 -131 4831 -397 
Q 4694 -663 4444 -758 
Q 4194 -853 3394 -853 
Q 3294 -309 3225 -34 
Q 3525 -72 3756 -72 
Q 4125 -72 4125 491 
L 4125 1484 
L 2513 1484 
L 2513 2291 
Q 2613 2525 2716 2791 
L 2400 2791 
L 2400 3516 
z
M 3306 2191 
L 4125 2191 
L 4125 2791 
L 3541 2791 
L 3306 2191 
z
M 1013 3372 
L 1419 3388 
L 1744 3966 
L 2413 3659 
L 1356 1797 
Q 1894 1872 2294 1941 
Q 2263 1684 2231 1159 
Q 931 984 475 866 
L 244 1566 
Q 531 1816 1009 2653 
L 306 2584 
L 75 3297 
Q 575 3966 1219 5341 
L 2000 5028 
Q 1450 4053 1013 3372 
z
M 75 372 
Q 1100 478 2288 672 
Q 2275 350 2272 116 
Q 2722 741 3000 1309 
L 3706 1003 
Q 3294 197 2738 -597 
Q 2469 -409 2078 -191 
L 238 -503 
L 75 372 
z
M 5000 978 
L 5619 1278 
Q 5994 584 6369 -197 
L 5713 -534 
Q 5356 316 5000 978 
z
" transform="scale(0.015625)"/>
     </defs>
     <use xlink:href="#MicrosoftYaHei-Bold-9884"/>
     <use xlink:href="#MicrosoftYaHei-Bold-8bad" transform="translate(100 0)"/>
     <use xlink:href="#MicrosoftYaHei-Bold-7ec3" transform="translate(200 0)"/>
    </g>
   </g>
   <g id="text_6">
    <!-- CNN特征迁移 -->
    <g style="fill: #a8b5c4" transform="translate(533.195025 268.33825) scale(0.08 -0.08)">
     <defs>
      <path id="MicrosoftYaHei-43" d="M 3938 200 
Q 3403 -81 2597 -81 
Q 1556 -81 934 580 
Q 313 1241 313 2328 
Q 313 3497 1013 4209 
Q 1713 4922 2791 4922 
Q 3484 4922 3938 4725 
L 3938 4072 
Q 3419 4359 2797 4359 
Q 1988 4359 1478 3820 
Q 969 3281 969 2366 
Q 969 1497 1444 986 
Q 1919 475 2688 475 
Q 3406 475 3938 800 
L 3938 200 
z
" transform="scale(0.015625)"/>
      <path id="MicrosoftYaHei-4e" d="M 4578 0 
L 3838 0 
L 1403 3766 
Q 1300 3925 1238 4081 
L 1219 4081 
Q 1244 3919 1244 3403 
L 1244 0 
L 625 0 
L 625 4841 
L 1409 4841 
L 3778 1141 
Q 3947 878 3978 806 
L 3991 806 
Q 3959 1013 3959 1513 
L 3959 4841 
L 4578 4841 
L 4578 0 
z
" transform="scale(0.015625)"/>
      <path id="MicrosoftYaHei-7279" d="M 81 1609 
Q 666 1806 1238 2003 
L 1238 3472 
L 744 3472 
Q 616 2878 431 2384 
Q 238 2522 19 2659 
Q 369 3484 475 4716 
L 925 4641 
Q 884 4250 822 3891 
L 1238 3891 
L 1238 5291 
L 1706 5291 
L 1706 3891 
L 2488 3891 
L 2488 3472 
L 1706 3472 
L 1706 2166 
Q 2059 2291 2406 2416 
Q 2438 2141 2475 1941 
Q 2113 1813 1706 1663 
L 1706 -828 
L 1238 -828 
L 1238 1488 
Q 734 1297 175 1078 
L 81 1609 
z
M 2263 3103 
L 3981 3103 
L 3981 4028 
L 2525 4028 
L 2525 4453 
L 3981 4453 
L 3981 5322 
L 4469 5322 
L 4469 4453 
L 5988 4453 
L 5988 4028 
L 4469 4028 
L 4469 3103 
L 6275 3103 
L 6275 2678 
L 2263 2678 
L 2263 3103 
z
M 2394 1834 
L 4906 1834 
L 4906 2497 
L 5394 2497 
L 5394 1834 
L 6306 1834 
L 6306 1409 
L 5394 1409 
L 5394 34 
Q 5394 -747 4606 -753 
Q 4325 -759 3756 -747 
Q 3719 -503 3663 -209 
Q 4156 -259 4513 -259 
Q 4906 -259 4906 178 
L 4906 1409 
L 2394 1409 
L 2394 1834 
z
M 2744 978 
L 3106 1266 
Q 3556 772 3881 366 
L 3481 59 
Q 3125 541 2744 978 
z
" transform="scale(0.015625)"/>
      <path id="MicrosoftYaHei-5f81" d="M 2013 -59 
L 2656 -59 
L 2656 3141 
L 3144 3141 
L 3144 -59 
L 4231 -59 
L 4231 4453 
L 2438 4453 
L 2438 4922 
L 6175 4922 
L 6175 4453 
L 4719 4453 
L 4719 2559 
L 6050 2559 
L 6050 2097 
L 4719 2097 
L 4719 -59 
L 6269 -59 
L 6269 -522 
L 2013 -522 
L 2013 -59 
z
M 94 1578 
Q 1069 2372 1856 3809 
L 2294 3541 
Q 1975 2991 1619 2506 
L 1619 -816 
L 1100 -816 
L 1100 1863 
Q 725 1434 313 1072 
Q 213 1334 94 1578 
z
M 231 3766 
Q 1225 4503 1656 5222 
L 2106 4947 
Q 1456 4053 481 3284 
Q 369 3522 231 3766 
z
" transform="scale(0.015625)"/>
     </defs>
     <use xlink:href="#MicrosoftYaHei-43"/>
     <use xlink:href="#MicrosoftYaHei-4e" transform="translate(66.894531 0)"/>
     <use xlink:href="#MicrosoftYaHei-4e" transform="translate(148.193359 0)"/>
     <use xlink:href="#MicrosoftYaHei-7279" transform="translate(229.492188 0)"/>
     <use xlink:href="#MicrosoftYaHei-5f81" transform="translate(329.492188 0)"/>
     <use xlink:href="#MicrosoftYaHei-8fc1" transform="translate(429.492188 0)"/>
     <use xlink:href="#MicrosoftYaHei-79fb" transform="translate(529.492188 0)"/>
    </g>
    <!-- (CV的启示) -->
    <g style="fill: #a8b5c4" transform="translate(538.321275 278.001) scale(0.08 -0.08)">
     <defs>
      <path id="MicrosoftYaHei-56" d="M 4272 4841 
L 2494 0 
L 1800 0 
L 56 4841 
L 750 4841 
L 2053 1056 
Q 2119 869 2150 622 
L 2166 622 
Q 2191 838 2275 1063 
L 3603 4841 
L 4272 4841 
z
" transform="scale(0.015625)"/>
      <path id="MicrosoftYaHei-542f" d="M 2781 5166 
L 3225 5391 
Q 3469 5006 3691 4603 
L 5938 4603 
L 5938 2516 
L 5450 2516 
L 5450 2747 
L 1288 2747 
L 1288 2728 
Q 1288 209 413 -878 
Q 244 -678 50 -472 
Q 788 459 788 2728 
L 788 4603 
L 3119 4603 
Q 2966 4881 2781 5166 
z
M 5869 1822 
L 5869 -847 
L 5381 -847 
L 5381 -441 
L 2225 -441 
L 2225 -847 
L 1738 -847 
L 1738 1822 
L 5869 1822 
z
M 5381 1384 
L 2225 1384 
L 2225 -9 
L 5381 -9 
L 5381 1384 
z
M 1288 4166 
L 1288 3184 
L 5450 3184 
L 5450 4166 
L 1288 4166 
z
" transform="scale(0.015625)"/>
     </defs>
     <use xlink:href="#MicrosoftYaHei-28"/>
     <use xlink:href="#MicrosoftYaHei-43" transform="translate(33.398438 0)"/>
     <use xlink:href="#MicrosoftYaHei-56" transform="translate(100.292969 0)"/>
     <use xlink:href="#MicrosoftYaHei-7684" transform="translate(167.919922 0)"/>
     <use xlink:href="#MicrosoftYaHei-542f" transform="translate(267.919922 0)"/>
     <use xlink:href="#MicrosoftYaHei-793a" transform="translate(367.919922 0)"/>
     <use xlink:href="#MicrosoftYaHei-29" transform="translate(467.919922 0)"/>
    </g>
   </g>
   <g id="PathCollection_4">
    <defs>
     <path id="maccb5bed35" d="M 0 5.477226 
C 1.452577 5.477226 2.845856 4.900111 3.872983 3.872983 
C 4.900111 2.845856 5.477226 1.452577 5.477226 0 
C 5.477226 -1.452577 4.900111 -2.845856 3.872983 -3.872983 
C 2.845856 -4.900111 1.452577 -5.477226 0 -5.477226 
C -1.452577 -5.477226 -2.845856 -4.900111 -3.872983 -3.872983 
C -4.900111 -2.845856 -5.477226 -1.452577 -5.477226 0 
C -5.477226 1.452577 -4.900111 2.845856 -3.872983 3.872983 
C -2.845856 4.900111 -1.452577 5.477226 0 5.477226 
z
" style="stroke: #ffffff; stroke-width: 1.5"/>
    </defs>
    <g clip-path="url(#pba6274d011)">
     <use xlink:href="#maccb5bed35" x="637.1136" y="172.23125" style="fill: #e8a87c; stroke: #ffffff; stroke-width: 1.5"/>
    </g>
   </g>
   <g id="text_7">
    <!-- Dai &amp; Le -->
    <g style="fill: #4a4a4a" transform="translate(615.609694 116.345312) scale(0.1 -0.1)">
     <defs>
      <path id="MicrosoftYaHei-Bold-44" d="M 559 0 
L 559 4841 
L 2231 4841 
Q 4809 4841 4809 2481 
Q 4809 1359 4087 679 
Q 3366 0 2225 0 
L 559 0 
z
M 1591 3997 
L 1591 844 
L 2153 844 
Q 2888 844 3306 1281 
Q 3725 1719 3725 2466 
Q 3725 3188 3287 3592 
Q 2850 3997 2150 3997 
L 1591 3997 
z
" transform="scale(0.015625)"/>
      <path id="MicrosoftYaHei-Bold-69" d="M 369 4572 
Q 369 4803 533 4948 
Q 697 5094 953 5094 
Q 1216 5094 1378 4945 
Q 1541 4797 1541 4572 
Q 1541 4344 1375 4192 
Q 1209 4041 953 4041 
Q 700 4041 534 4194 
Q 369 4347 369 4572 
z
M 444 0 
L 444 3456 
L 1450 3456 
L 1450 0 
L 444 0 
z
" transform="scale(0.015625)"/>
      <path id="MicrosoftYaHei-Bold-4c" d="M 3400 0 
L 559 0 
L 559 4841 
L 1591 4841 
L 1591 844 
L 3400 844 
L 3400 0 
z
" transform="scale(0.015625)"/>
     </defs>
     <use xlink:href="#MicrosoftYaHei-Bold-44"/>
     <use xlink:href="#MicrosoftYaHei-Bold-61" transform="translate(79.150391 0)"/>
     <use xlink:href="#MicrosoftYaHei-Bold-69" transform="translate(136.914062 0)"/>
     <use xlink:href="#MicrosoftYaHei-Bold-20" transform="translate(166.503906 0)"/>
     <use xlink:href="#MicrosoftYaHei-Bold-26" transform="translate(196.289062 0)"/>
     <use xlink:href="#MicrosoftYaHei-Bold-20" transform="translate(287.402344 0)"/>
     <use xlink:href="#MicrosoftYaHei-Bold-4c" transform="translate(317.1875 0)"/>
     <use xlink:href="#MicrosoftYaHei-Bold-65" transform="translate(371.875 0)"/>
    </g>
   </g>
   <g id="text_8">
    <!-- LSTM语言模型 -->
    <g style="fill: #a8b5c4" transform="translate(610.5511 81.54775) scale(0.08 -0.08)">
     <defs>
      <path id="MicrosoftYaHei-4c" d="M 3178 0 
L 625 0 
L 625 4841 
L 1250 4841 
L 1250 553 
L 3178 553 
L 3178 0 
z
" transform="scale(0.015625)"/>
      <path id="MicrosoftYaHei-53" d="M 400 909 
Q 622 716 994 591 
Q 1366 466 1700 466 
Q 2719 466 2719 1191 
Q 2719 1394 2609 1556 
Q 2500 1719 2309 1844 
Q 2119 1969 1594 2228 
Q 866 2591 634 2902 
Q 403 3213 403 3613 
Q 403 4216 887 4569 
Q 1372 4922 2109 4922 
Q 2831 4922 3169 4747 
L 3169 4066 
Q 2731 4369 2063 4369 
Q 1619 4369 1339 4183 
Q 1059 3997 1059 3666 
Q 1059 3372 1253 3187 
Q 1447 3003 2094 2684 
Q 2806 2344 3090 2003 
Q 3375 1663 3375 1238 
Q 3375 600 2912 259 
Q 2450 -81 1628 -81 
Q 1341 -81 958 -1 
Q 575 78 400 197 
L 400 909 
z
" transform="scale(0.015625)"/>
      <path id="MicrosoftYaHei-54" d="M 3550 4284 
L 2153 4284 
L 2153 0 
L 1525 0 
L 1525 4284 
L 134 4284 
L 134 4841 
L 3550 4841 
L 3550 4284 
z
" transform="scale(0.015625)"/>
      <path id="MicrosoftYaHei-4d" d="M 5003 0 
L 5003 3206 
Q 5003 3603 5050 4159 
L 5034 4159 
Q 4953 3809 4891 3672 
L 3294 0 
L 2947 0 
L 1353 3644 
Q 1297 3769 1209 4159 
L 1191 4159 
Q 1222 3822 1222 3178 
L 1222 0 
L 625 0 
L 625 4841 
L 1472 4841 
L 2900 1522 
Q 3063 1141 3116 928 
L 3138 928 
Q 3300 1375 3366 1534 
L 4819 4841 
L 5625 4841 
L 5625 0 
L 5003 0 
z
" transform="scale(0.015625)"/>
      <path id="MicrosoftYaHei-8bed" d="M 1825 2547 
L 2881 2547 
L 3006 3428 
L 2113 3428 
L 2113 3859 
L 3066 3859 
L 3169 4584 
L 1975 4584 
L 1975 5022 
L 6025 5022 
L 6025 4584 
L 3641 4584 
L 3541 3859 
L 5506 3859 
L 5506 2547 
L 6288 2547 
L 6288 2109 
L 1825 2109 
L 1825 2547 
z
M 2375 1466 
L 5719 1466 
L 5719 -822 
L 5250 -822 
L 5250 -441 
L 2844 -441 
L 2844 -822 
L 2375 -822 
L 2375 1466 
z
M 2094 716 
Q 2113 391 2138 178 
Q 1519 -216 888 -722 
L 594 -303 
Q 806 -103 806 259 
L 806 2716 
L 100 2716 
L 100 3166 
L 1288 3166 
L 1288 147 
Q 1725 441 2094 716 
z
M 5250 1028 
L 2844 1028 
L 2844 -3 
L 5250 -3 
L 5250 1028 
z
M 5038 3428 
L 3481 3428 
L 3363 2547 
L 5038 2547 
L 5038 3428 
z
M 738 5222 
Q 1419 4522 1725 4184 
L 1288 3816 
Q 894 4334 356 4891 
L 738 5222 
z
" transform="scale(0.015625)"/>
      <path id="MicrosoftYaHei-8a00" d="M 906 1491 
L 5488 1491 
L 5488 -834 
L 4988 -834 
L 4988 -478 
L 1406 -478 
L 1406 -847 
L 906 -847 
L 906 1491 
z
M 4988 1047 
L 1406 1047 
L 1406 -34 
L 4988 -34 
L 4988 1047 
z
M 169 4453 
L 3091 4453 
Q 2931 4778 2706 5134 
L 3181 5359 
Q 3444 4953 3638 4597 
L 3353 4453 
L 6250 4453 
L 6250 3991 
L 169 3991 
L 169 4453 
z
M 788 2472 
L 5650 2472 
L 5650 2028 
L 788 2028 
L 788 2472 
z
M 788 3453 
L 5650 3453 
L 5650 3009 
L 788 3009 
L 788 3453 
z
" transform="scale(0.015625)"/>
      <path id="MicrosoftYaHei-6a21" d="M 2050 984 
L 3859 984 
Q 3900 1213 3913 1547 
L 2950 1547 
L 2950 1372 
L 2500 1372 
L 2500 3634 
L 5844 3634 
L 5844 1372 
L 5394 1372 
L 5394 1547 
L 4344 1547 
Q 4325 1203 4288 984 
L 6250 984 
L 6250 584 
L 4525 584 
Q 5203 -175 6319 -341 
Q 6144 -572 6013 -809 
Q 4803 -456 4128 466 
Q 3681 -431 2075 -847 
Q 1969 -628 1831 -416 
Q 3303 -106 3713 584 
L 2050 584 
L 2050 984 
z
M 63 1409 
Q 603 2316 922 3509 
L 138 3509 
L 138 3922 
L 1006 3922 
L 1006 5309 
L 1444 5309 
L 1444 3922 
L 2256 3922 
L 2256 3509 
L 1444 3509 
L 1444 2684 
L 1688 2884 
Q 2044 2503 2350 2116 
L 2006 1828 
Q 1719 2244 1444 2563 
L 1444 -822 
L 1006 -822 
L 1006 2581 
Q 672 1438 275 859 
Q 188 1128 63 1409 
z
M 4713 5303 
L 5150 5303 
L 5150 4703 
L 6225 4703 
L 6225 4303 
L 5150 4303 
L 5150 3797 
L 4713 3797 
L 4713 4303 
L 3600 4303 
L 3600 3797 
L 3163 3797 
L 3163 4303 
L 2175 4303 
L 2175 4703 
L 3163 4703 
L 3163 5309 
L 3600 5309 
L 3600 4703 
L 4713 4703 
L 4713 5303 
z
M 5394 3247 
L 2950 3247 
L 2950 2778 
L 5394 2778 
L 5394 3247 
z
M 2950 1934 
L 5394 1934 
L 5394 2403 
L 2950 2403 
L 2950 1934 
z
" transform="scale(0.015625)"/>
      <path id="MicrosoftYaHei-578b" d="M 150 3503 
L 1100 3503 
Q 1106 3638 1106 4547 
L 413 4547 
L 413 4959 
L 3675 4959 
L 3675 4547 
L 2994 4547 
L 2994 3503 
L 3881 3503 
L 3881 3091 
L 2994 3091 
L 2994 1747 
L 2538 1747 
L 2538 3091 
L 1528 3091 
Q 1450 2191 638 1534 
Q 475 1716 294 1897 
Q 1013 2453 1066 3091 
L 150 3091 
L 150 3503 
z
M 138 -103 
L 2938 -103 
L 2938 741 
L 706 741 
L 706 1172 
L 2938 1172 
L 2938 1659 
L 3425 1659 
L 3425 1172 
L 5713 1172 
L 5713 741 
L 3425 741 
L 3425 -103 
L 6256 -103 
L 6256 -534 
L 138 -534 
L 138 -103 
z
M 5856 5209 
L 5856 2334 
Q 5856 1672 5200 1659 
Q 4825 1647 4331 1659 
Q 4306 1897 4256 2153 
Q 4781 2122 5044 2122 
Q 5400 2122 5400 2516 
L 5400 5209 
L 5856 5209 
z
M 1556 3503 
L 2538 3503 
L 2538 4547 
L 1563 4547 
Q 1563 3791 1556 3503 
z
M 4138 4859 
L 4588 4859 
L 4588 2697 
L 4138 2697 
L 4138 4859 
z
" transform="scale(0.015625)"/>
     </defs>
     <use xlink:href="#MicrosoftYaHei-4c"/>
     <use xlink:href="#MicrosoftYaHei-53" transform="translate(51.318359 0)"/>
     <use xlink:href="#MicrosoftYaHei-54" transform="translate(109.033203 0)"/>
     <use xlink:href="#MicrosoftYaHei-4d" transform="translate(166.357422 0)"/>
     <use xlink:href="#MicrosoftYaHei-8bed" transform="translate(264.0625 0)"/>
     <use xlink:href="#MicrosoftYaHei-8a00" transform="translate(364.0625 0)"/>
     <use xlink:href="#MicrosoftYaHei-6a21" transform="translate(464.0625 0)"/>
     <use xlink:href="#MicrosoftYaHei-578b" transform="translate(564.0625 0)"/>
    </g>
    <!-- 预训练 (第二代) -->
    <g style="fill: #a8b5c4" transform="translate(609.25735 91.2105) scale(0.08 -0.08)">
     <defs>
      <path id="MicrosoftYaHei-4e8c" d="M 650 4516 
L 5750 4516 
L 5750 3978 
L 650 3978 
L 650 4516 
z
M 188 422 
L 6194 422 
L 6194 -103 
L 188 -103 
L 188 422 
z
" transform="scale(0.015625)"/>
     </defs>
     <use xlink:href="#MicrosoftYaHei-9884"/>
     <use xlink:href="#MicrosoftYaHei-8bad" transform="translate(100 0)"/>
     <use xlink:href="#MicrosoftYaHei-7ec3" transform="translate(200 0)"/>
     <use xlink:href="#MicrosoftYaHei-20" transform="translate(300 0)"/>
     <use xlink:href="#MicrosoftYaHei-28" transform="translate(329.589844 0)"/>
     <use xlink:href="#MicrosoftYaHei-7b2c" transform="translate(362.988281 0)"/>
     <use xlink:href="#MicrosoftYaHei-4e8c" transform="translate(462.988281 0)"/>
     <use xlink:href="#MicrosoftYaHei-4ee3" transform="translate(562.988281 0)"/>
     <use xlink:href="#MicrosoftYaHei-29" transform="translate(662.988281 0)"/>
    </g>
   </g>
   <g id="PathCollection_5">
    <defs>
     <path id="mc053e1e635" d="M 0 5.477226 
C 1.452577 5.477226 2.845856 4.900111 3.872983 3.872983 
C 4.900111 2.845856 5.477226 1.452577 5.477226 0 
C 5.477226 -1.452577 4.900111 -2.845856 3.872983 -3.872983 
C 2.845856 -4.900111 1.452577 -5.477226 0 -5.477226 
C -1.452577 -5.477226 -2.845856 -4.900111 -3.872983 -3.872983 
C -4.900111 -2.845856 -5.477226 -1.452577 -5.477226 0 
C -5.477226 1.452577 -4.900111 2.845856 -3.872983 3.872983 
C -2.845856 4.900111 -1.452577 5.477226 0 5.477226 
z
" style="stroke: #ffffff; stroke-width: 1.5"/>
    </defs>
    <g clip-path="url(#pba6274d011)">
     <use xlink:href="#mc053e1e635" x="794.592" y="172.23125" style="fill: #b39ddb; stroke: #ffffff; stroke-width: 1.5"/>
    </g>
   </g>
   <g id="text_9">
    <!-- Transformer -->
    <g style="fill: #4a4a4a" transform="translate(763.777938 244.305) scale(0.1 -0.1)">
     <defs>
      <path id="MicrosoftYaHei-Bold-54" d="M 3900 3997 
L 2519 3997 
L 2519 0 
L 1484 0 
L 1484 3997 
L 106 3997 
L 106 4841 
L 3900 4841 
L 3900 3997 
z
" transform="scale(0.015625)"/>
      <path id="MicrosoftYaHei-Bold-66" d="M 2653 4338 
Q 2447 4419 2263 4419 
Q 1744 4419 1744 3844 
L 1744 3456 
L 2531 3456 
L 2531 2703 
L 1744 2703 
L 1744 0 
L 734 0 
L 734 2703 
L 156 2703 
L 156 3456 
L 734 3456 
L 734 3900 
Q 734 4491 1118 4844 
Q 1503 5197 2128 5197 
Q 2447 5197 2653 5131 
L 2653 4338 
z
" transform="scale(0.015625)"/>
     </defs>
     <use xlink:href="#MicrosoftYaHei-Bold-54"/>
     <use xlink:href="#MicrosoftYaHei-Bold-72" transform="translate(54.298828 0)"/>
     <use xlink:href="#MicrosoftYaHei-Bold-61" transform="translate(96.681641 0)"/>
     <use xlink:href="#MicrosoftYaHei-Bold-6e" transform="translate(154.445312 0)"/>
     <use xlink:href="#MicrosoftYaHei-Bold-73" transform="translate(219.240234 0)"/>
     <use xlink:href="#MicrosoftYaHei-Bold-66" transform="translate(268.605469 0)"/>
     <use xlink:href="#MicrosoftYaHei-Bold-6f" transform="translate(309.132812 0)"/>
     <use xlink:href="#MicrosoftYaHei-Bold-72" transform="translate(374.855469 0)"/>
     <use xlink:href="#MicrosoftYaHei-Bold-6d" transform="translate(417.488281 0)"/>
     <use xlink:href="#MicrosoftYaHei-Bold-65" transform="translate(515.681641 0)"/>
     <use xlink:href="#MicrosoftYaHei-Bold-72" transform="translate(573.884766 0)"/>
    </g>
   </g>
   <g id="text_10">
    <!-- 强大的新架构 -->
    <g style="fill: #a8b5c4" transform="translate(770.592 268.33825) scale(0.08 -0.08)">
     <defs>
      <path id="MicrosoftYaHei-5f3a" d="M 5250 466 
L 5669 666 
Q 6031 28 6363 -641 
L 5894 -878 
Q 5794 -641 5688 -416 
Q 3750 -547 2219 -653 
L 2150 -134 
Q 3088 -97 3969 -59 
L 3969 866 
L 2894 866 
L 2894 622 
L 2431 622 
L 2431 2616 
L 3969 2616 
L 3969 3297 
L 3144 3297 
L 3144 3047 
L 2681 3047 
L 2681 4972 
L 5731 4972 
L 5731 3047 
L 5269 3047 
L 5269 3297 
L 4444 3297 
L 4444 2616 
L 5988 2616 
L 5988 866 
L 4444 866 
L 4444 -41 
Q 4975 -22 5488 3 
Q 5369 241 5250 466 
z
M 425 3466 
L 1650 3466 
L 1650 4516 
L 238 4516 
L 238 4941 
L 2113 4941 
L 2113 2772 
L 1650 2772 
L 1650 3041 
L 831 3041 
L 719 2072 
L 2056 2072 
Q 1994 741 1944 128 
Q 1888 -722 1100 -722 
Q 819 -722 425 -716 
Q 388 -484 325 -216 
Q 731 -247 1019 -247 
Q 1444 -247 1475 191 
Q 1525 828 1563 1647 
L 225 1647 
L 425 3466 
z
M 5269 4547 
L 3144 4547 
L 3144 3722 
L 5269 3722 
L 5269 4547 
z
M 5525 1291 
L 5525 2191 
L 4444 2191 
L 4444 1291 
L 5525 1291 
z
M 2894 1291 
L 3969 1291 
L 3969 2191 
L 2894 2191 
L 2894 1291 
z
" transform="scale(0.015625)"/>
      <path id="MicrosoftYaHei-5927" d="M 88 -341 
Q 2666 806 2869 3103 
L 200 3103 
L 200 3591 
L 2891 3591 
Q 2906 4431 2906 5284 
L 3450 5284 
Q 3450 4444 3434 3591 
L 6206 3591 
L 6206 3103 
L 3425 3103 
Q 3869 606 6338 -191 
Q 6019 -497 5863 -697 
Q 3828 122 3203 2219 
Q 2716 322 475 -822 
Q 350 -653 88 -341 
z
" transform="scale(0.015625)"/>
      <path id="MicrosoftYaHei-65b0" d="M 3594 4797 
Q 4888 4809 5981 5053 
L 6144 4572 
Q 4906 4409 4038 4359 
L 4038 2903 
L 6319 2903 
L 6319 2478 
L 5425 2478 
L 5425 -797 
L 4963 -797 
L 4963 2478 
L 4038 2478 
L 4038 2172 
Q 4038 253 3119 -816 
Q 2969 -622 2788 -416 
Q 3594 466 3594 2191 
L 3594 4797 
z
M 263 1991 
L 1538 1991 
L 1538 2584 
L 1988 2584 
L 1988 1991 
L 3213 1991 
L 3213 1591 
L 1988 1591 
L 1988 -41 
Q 1988 -703 1350 -703 
Q 1081 -703 744 -697 
Q 719 -491 675 -222 
Q 1038 -259 1244 -259 
Q 1538 -259 1538 59 
L 1538 1591 
L 263 1591 
L 263 1991 
z
M 88 3159 
L 1094 3159 
Q 828 3581 594 3884 
L 931 4122 
Q 1138 3872 1463 3416 
L 1109 3159 
L 1934 3159 
Q 2275 3650 2563 4128 
L 3006 3878 
Q 2703 3488 2428 3159 
L 3375 3159 
L 3375 2759 
L 88 2759 
L 88 3159 
z
M 288 4609 
L 1638 4609 
Q 1503 4866 1331 5166 
L 1731 5353 
Q 1925 5034 2094 4709 
L 1884 4609 
L 3213 4609 
L 3213 4209 
L 288 4209 
L 288 4609 
z
M 744 1309 
L 1169 1109 
Q 831 403 500 -166 
Q 319 -53 88 59 
Q 394 534 744 1309 
z
M 2544 1278 
Q 2894 803 3156 403 
L 2756 128 
Q 2481 609 2175 1034 
L 2544 1278 
z
" transform="scale(0.015625)"/>
      <path id="MicrosoftYaHei-67b6" d="M 6313 -91 
Q 6081 -347 5925 -566 
Q 4369 -34 3438 1094 
L 3438 -859 
L 2963 -859 
L 2963 1103 
Q 1913 -41 450 -641 
Q 306 -453 88 -216 
Q 1509 269 2606 1209 
L 200 1209 
L 200 1647 
L 2963 1647 
L 2963 2347 
L 3438 2347 
L 3438 1647 
L 6231 1647 
L 6231 1209 
L 3772 1209 
Q 4781 231 6313 -91 
z
M 3588 4797 
L 5863 4797 
L 5863 2334 
L 5400 2334 
L 5400 2653 
L 4050 2653 
L 4050 2316 
L 3588 2316 
L 3588 4797 
z
M 281 4628 
L 1181 4628 
Q 1200 4953 1200 5347 
L 1663 5347 
Q 1663 4956 1647 4628 
L 3050 4628 
Q 3019 3766 2981 3234 
Q 2944 2666 2763 2472 
Q 2600 2278 2138 2278 
Q 1950 2278 1650 2284 
Q 1606 2534 1544 2753 
Q 1913 2716 2113 2716 
Q 2475 2716 2506 3109 
Q 2556 3728 2575 4203 
L 1616 4203 
Q 1563 2891 444 1972 
Q 300 2141 81 2316 
Q 1050 3041 1144 4203 
L 281 4203 
L 281 4628 
z
M 5400 4372 
L 4050 4372 
L 4050 3078 
L 5400 3078 
L 5400 4372 
z
" transform="scale(0.015625)"/>
      <path id="MicrosoftYaHei-6784" d="M 2138 3059 
Q 2838 4047 3256 5309 
L 3738 5153 
Q 3556 4722 3388 4347 
L 6081 4347 
Q 5994 1153 5956 397 
Q 5925 -259 5656 -503 
Q 5400 -747 4731 -747 
Q 4238 -747 3700 -716 
Q 3663 -466 3594 -166 
Q 4213 -234 4713 -247 
Q 5144 -253 5294 -97 
Q 5450 34 5469 472 
Q 5513 1316 5575 3891 
L 3169 3891 
Q 2838 3241 2525 2797 
Q 2369 2916 2138 3059 
z
M 81 1359 
Q 731 2372 1000 3578 
L 125 3578 
L 125 3997 
L 1006 3997 
L 1006 5234 
L 1438 5234 
L 1438 3997 
L 2250 3997 
L 2250 3578 
L 1438 3578 
L 1438 2734 
L 1613 2916 
Q 2038 2528 2494 2091 
L 2163 1747 
Q 1775 2191 1438 2516 
L 1438 -834 
L 1006 -834 
L 1006 2384 
Q 700 1409 281 809 
Q 200 1078 81 1359 
z
M 3925 2253 
L 4306 2453 
Q 4763 1666 5250 734 
L 4806 497 
Q 4731 666 4650 834 
Q 3838 784 3050 722 
Q 2856 703 2500 628 
L 2288 1078 
Q 2488 1216 2625 1416 
Q 3138 2222 3638 3397 
L 4106 3203 
Q 3738 2391 2981 1172 
Q 3881 1197 4463 1222 
Q 4213 1741 3925 2253 
z
" transform="scale(0.015625)"/>
     </defs>
     <use xlink:href="#MicrosoftYaHei-5f3a"/>
     <use xlink:href="#MicrosoftYaHei-5927" transform="translate(100 0)"/>
     <use xlink:href="#MicrosoftYaHei-7684" transform="translate(200 0)"/>
     <use xlink:href="#MicrosoftYaHei-65b0" transform="translate(300 0)"/>
     <use xlink:href="#MicrosoftYaHei-67b6" transform="translate(400 0)"/>
     <use xlink:href="#MicrosoftYaHei-6784" transform="translate(500 0)"/>
    </g>
    <!-- (缺一把火) -->
    <g style="fill: #a8b5c4" transform="translate(775.9195 278.001) scale(0.08 -0.08)">
     <defs>
      <path id="MicrosoftYaHei-7f3a" d="M 3056 2259 
L 4091 2259 
Q 4122 2716 4128 3753 
L 3188 3753 
L 3188 4191 
L 4131 4191 
Q 4134 4691 4131 5303 
L 4594 5303 
Q 4594 4694 4594 4191 
L 5869 4191 
L 5869 2259 
L 6319 2259 
L 6319 1822 
L 4638 1822 
Q 5088 241 6356 -303 
Q 6125 -547 5938 -784 
Q 4781 -41 4372 1309 
Q 4066 19 3038 -872 
Q 2900 -666 2706 -447 
Q 2791 -388 2872 -322 
L 2450 -322 
L 2450 -72 
L 400 -141 
L 400 1922 
L 838 1922 
L 838 297 
L 1419 316 
L 1419 2416 
L 100 2416 
L 100 2841 
L 1419 2841 
L 1419 4078 
L 959 4078 
Q 753 3581 525 3166 
Q 338 3272 100 3372 
Q 638 4241 925 5347 
L 1375 5222 
Q 1256 4847 1128 4503 
L 2913 4503 
L 2913 4078 
L 1869 4078 
L 1869 2841 
L 3106 2841 
L 3106 2416 
L 1869 2416 
L 1869 331 
L 2450 350 
L 2450 1922 
L 2888 1922 
L 2888 -309 
Q 3784 428 4034 1822 
L 3056 1822 
L 3056 2259 
z
M 4566 2259 
L 5419 2259 
L 5419 3753 
L 4591 3753 
Q 4584 2759 4566 2259 
z
" transform="scale(0.015625)"/>
      <path id="MicrosoftYaHei-628a" d="M 2300 4972 
L 5788 4972 
L 5788 1922 
L 5313 1922 
L 5313 2259 
L 2775 2259 
L 2775 353 
Q 2775 -153 3244 -153 
L 5000 -153 
Q 5581 -153 5663 284 
Q 5731 628 5794 1241 
Q 6044 1141 6319 1059 
Q 6225 434 6138 72 
Q 5969 -616 5125 -616 
L 3050 -616 
Q 2300 -616 2300 234 
L 2300 4972 
z
M 81 1991 
Q 509 2113 906 2231 
L 906 3647 
L 150 3647 
L 150 4066 
L 906 4066 
L 906 5284 
L 1381 5284 
L 1381 4066 
L 2106 4066 
L 2106 3647 
L 1381 3647 
L 1381 2375 
Q 1744 2488 2075 2597 
Q 2063 2291 2063 2116 
Q 1741 2013 1381 1894 
L 1381 -97 
Q 1381 -734 788 -753 
Q 538 -753 213 -753 
Q 181 -522 131 -234 
Q 438 -272 644 -272 
Q 906 -272 906 28 
L 906 1731 
Q 544 1609 150 1472 
L 81 1991 
z
M 5313 4528 
L 4281 4528 
L 4281 2703 
L 5313 2703 
L 5313 4528 
z
M 2775 2703 
L 3806 2703 
L 3806 4528 
L 2775 4528 
L 2775 2703 
z
" transform="scale(0.015625)"/>
      <path id="MicrosoftYaHei-706b" d="M 94 -347 
Q 2838 816 2888 3059 
Q 2919 4178 2919 5228 
L 3463 5228 
Q 3456 4256 3422 2816 
Q 3950 491 6319 -222 
Q 6063 -528 5888 -741 
Q 3869 56 3216 1953 
Q 2747 250 475 -822 
Q 356 -647 94 -347 
z
M 3975 2359 
Q 4713 3178 5338 4247 
L 5819 3966 
Q 5138 2941 4400 2041 
L 3975 2359 
z
M 550 3959 
L 956 4253 
Q 1606 3434 2300 2378 
L 1831 2053 
Q 1106 3266 550 3959 
z
" transform="scale(0.015625)"/>
     </defs>
     <use xlink:href="#MicrosoftYaHei-28"/>
     <use xlink:href="#MicrosoftYaHei-7f3a" transform="translate(33.398438 0)"/>
     <use xlink:href="#MicrosoftYaHei-4e00" transform="translate(133.398438 0)"/>
     <use xlink:href="#MicrosoftYaHei-628a" transform="translate(233.398438 0)"/>
     <use xlink:href="#MicrosoftYaHei-706b" transform="translate(333.398438 0)"/>
     <use xlink:href="#MicrosoftYaHei-29" transform="translate(433.398438 0)"/>
    </g>
   </g>
   <g id="PathCollection_6">
    <defs>
     <path id="m99744a7d30" d="M 0 5.477226 
C 1.452577 5.477226 2.845856 4.900111 3.872983 3.872983 
C 4.900111 2.845856 5.477226 1.452577 5.477226 0 
C 5.477226 -1.452577 4.900111 -2.845856 3.872983 -3.872983 
C 2.845856 -4.900111 1.452577 -5.477226 0 -5.477226 
C -1.452577 -5.477226 -2.845856 -4.900111 -3.872983 -3.872983 
C -4.900111 -2.845856 -5.477226 -1.452577 -5.477226 0 
C -5.477226 1.452577 -4.900111 2.845856 -3.872983 3.872983 
C -2.845856 4.900111 -1.452577 5.477226 0 5.477226 
z
" style="stroke: #ffffff; stroke-width: 1.5"/>
    </defs>
    <g clip-path="url(#pba6274d011)">
     <use xlink:href="#m99744a7d30" x="873.3312" y="172.23125" style="fill: #e57373; stroke: #ffffff; stroke-width: 1.5"/>
    </g>
   </g>
   <g id="text_11">
    <!-- ULMFiT -->
    <g style="fill: #4a4a4a" transform="translate(854.175731 92.188437) scale(0.1 -0.1)">
     <defs>
      <path id="MicrosoftYaHei-Bold-55" d="M 4466 2081 
Q 4466 -84 2453 -84 
Q 509 -84 509 2025 
L 509 4841 
L 1544 4841 
L 1544 2019 
Q 1544 809 2497 809 
Q 3434 809 3434 1975 
L 3434 4841 
L 4466 4841 
L 4466 2081 
z
" transform="scale(0.015625)"/>
      <path id="MicrosoftYaHei-Bold-4d" d="M 4991 0 
L 4991 2938 
Q 4991 3344 5031 3959 
L 5006 3959 
Q 4913 3494 4856 3338 
L 3663 0 
L 2841 0 
L 1631 3306 
Q 1588 3425 1478 3959 
L 1450 3959 
Q 1491 3350 1491 2738 
L 1491 0 
L 559 0 
L 559 4841 
L 2059 4841 
L 3103 1916 
Q 3234 1553 3281 1234 
L 3303 1234 
Q 3400 1631 3503 1922 
L 4550 4841 
L 6009 4841 
L 6009 0 
L 4991 0 
z
" transform="scale(0.015625)"/>
      <path id="MicrosoftYaHei-Bold-46" d="M 3319 3997 
L 1591 3997 
L 1591 2753 
L 3181 2753 
L 3181 1909 
L 1591 1909 
L 1591 0 
L 559 0 
L 559 4841 
L 3319 4841 
L 3319 3997 
z
" transform="scale(0.015625)"/>
     </defs>
     <use xlink:href="#MicrosoftYaHei-Bold-55"/>
     <use xlink:href="#MicrosoftYaHei-Bold-4c" transform="translate(77.636719 0)"/>
     <use xlink:href="#MicrosoftYaHei-Bold-4d" transform="translate(132.324219 0)"/>
     <use xlink:href="#MicrosoftYaHei-Bold-46" transform="translate(235.15625 0)"/>
     <use xlink:href="#MicrosoftYaHei-Bold-69" transform="translate(290.966797 0)"/>
     <use xlink:href="#MicrosoftYaHei-Bold-54" transform="translate(320.556641 0)"/>
    </g>
    <!-- ELMo / GPT -->
    <g style="fill: #4a4a4a" transform="translate(843.730419 104.266875) scale(0.1 -0.1)">
     <defs>
      <path id="MicrosoftYaHei-Bold-45" d="M 3425 0 
L 559 0 
L 559 4841 
L 3313 4841 
L 3313 3997 
L 1591 3997 
L 1591 2856 
L 3191 2856 
L 3191 2016 
L 1591 2016 
L 1591 844 
L 3425 844 
L 3425 0 
z
" transform="scale(0.015625)"/>
      <path id="MicrosoftYaHei-Bold-2f" d="M 3100 4841 
L 747 -803 
L -156 -803 
L 2188 4841 
L 3100 4841 
z
" transform="scale(0.015625)"/>
      <path id="MicrosoftYaHei-Bold-47" d="M 4494 325 
Q 3784 -84 2750 -84 
Q 1594 -84 925 566 
Q 256 1216 256 2344 
Q 256 3488 992 4205 
Q 1728 4922 2931 4922 
Q 3706 4922 4284 4703 
L 4284 3725 
Q 3722 4053 2909 4053 
Q 2209 4053 1775 3597 
Q 1341 3141 1341 2394 
Q 1341 1634 1733 1209 
Q 2125 784 2803 784 
Q 3206 784 3463 909 
L 3463 1903 
L 2484 1903 
L 2484 2731 
L 4494 2731 
L 4494 325 
z
" transform="scale(0.015625)"/>
      <path id="MicrosoftYaHei-Bold-50" d="M 1591 1688 
L 1591 0 
L 559 0 
L 559 4841 
L 2225 4841 
Q 4031 4841 4031 3309 
Q 4031 2566 3486 2117 
Q 2941 1669 2122 1688 
L 1591 1688 
z
M 1591 4041 
L 1591 2478 
L 2038 2478 
Q 2947 2478 2947 3269 
Q 2947 4041 2047 4041 
L 1591 4041 
z
" transform="scale(0.015625)"/>
     </defs>
     <use xlink:href="#MicrosoftYaHei-Bold-45"/>
     <use xlink:href="#MicrosoftYaHei-Bold-4c" transform="translate(57.177734 0)"/>
     <use xlink:href="#MicrosoftYaHei-Bold-4d" transform="translate(111.865234 0)"/>
     <use xlink:href="#MicrosoftYaHei-Bold-6f" transform="translate(214.697266 0)"/>
     <use xlink:href="#MicrosoftYaHei-Bold-20" transform="translate(280.419922 0)"/>
     <use xlink:href="#MicrosoftYaHei-Bold-2f" transform="translate(310.205078 0)"/>
     <use xlink:href="#MicrosoftYaHei-Bold-20" transform="translate(357.470703 0)"/>
     <use xlink:href="#MicrosoftYaHei-Bold-47" transform="translate(387.255859 0)"/>
     <use xlink:href="#MicrosoftYaHei-Bold-50" transform="translate(463.769531 0)"/>
     <use xlink:href="#MicrosoftYaHei-Bold-54" transform="translate(529.492188 0)"/>
    </g>
    <!-- BERT -->
    <g style="fill: #4a4a4a" transform="translate(860.548387 116.345312) scale(0.1 -0.1)">
     <defs>
      <path id="MicrosoftYaHei-Bold-42" d="M 559 0 
L 559 4841 
L 2278 4841 
Q 3069 4841 3497 4541 
Q 3925 4241 3925 3709 
Q 3925 3316 3659 3019 
Q 3394 2722 2991 2609 
L 2991 2597 
Q 3497 2534 3808 2221 
Q 4119 1909 4119 1438 
Q 4119 778 3650 389 
Q 3181 0 2369 0 
L 559 0 
z
M 1591 4072 
L 1591 2875 
L 2081 2875 
Q 2434 2875 2637 3044 
Q 2841 3213 2841 3516 
Q 2841 4072 2028 4072 
L 1591 4072 
z
M 1591 2097 
L 1591 769 
L 2203 769 
Q 2594 769 2814 950 
Q 3034 1131 3034 1453 
Q 3034 1759 2815 1928 
Q 2597 2097 2194 2097 
L 1591 2097 
z
" transform="scale(0.015625)"/>
      <path id="MicrosoftYaHei-Bold-52" d="M 4553 0 
L 3366 0 
L 2606 1259 
Q 2372 1650 2222 1762 
Q 2072 1875 1903 1875 
L 1591 1875 
L 1591 0 
L 559 0 
L 559 4841 
L 2256 4841 
Q 3984 4841 3984 3528 
Q 3984 3034 3695 2681 
Q 3406 2328 2900 2184 
L 2900 2172 
Q 3234 2059 3641 1434 
L 4553 0 
z
M 1591 4056 
L 1591 2663 
L 2097 2663 
Q 2459 2663 2679 2873 
Q 2900 3084 2900 3400 
Q 2900 4056 2116 4056 
L 1591 4056 
z
" transform="scale(0.015625)"/>
     </defs>
     <use xlink:href="#MicrosoftYaHei-Bold-42"/>
     <use xlink:href="#MicrosoftYaHei-Bold-45" transform="translate(68.359375 0)"/>
     <use xlink:href="#MicrosoftYaHei-Bold-52" transform="translate(125.537109 0)"/>
     <use xlink:href="#MicrosoftYaHei-Bold-54" transform="translate(193.111328 0)"/>
    </g>
   </g>
   <g id="text_12">
    <!-- 深层预训练+微调 -->
    <g style="fill: #a8b5c4" transform="translate(842.364325 81.54775) scale(0.08 -0.08)">
     <defs>
      <path id="MicrosoftYaHei-6df1" d="M 6319 141 
Q 6138 -84 5963 -303 
Q 4906 388 4250 1475 
L 4250 -816 
L 3756 -816 
L 3756 1494 
Q 3050 413 1906 -372 
Q 1681 -116 1531 22 
Q 2884 809 3625 1828 
L 1869 1828 
L 1869 2284 
L 3756 2284 
L 3756 3066 
L 4250 3066 
L 4250 2284 
L 6181 2284 
L 6181 1828 
L 4350 1828 
Q 5150 747 6319 141 
z
M 2038 4903 
L 6063 4903 
L 6063 3866 
L 5563 3866 
L 5563 4428 
L 2538 4428 
L 2538 3847 
L 2038 3847 
L 2038 4903 
z
M 981 1853 
Q 1244 1734 1494 1634 
Q 1200 616 763 -766 
L 231 -566 
Q 669 603 981 1853 
z
M 3406 4047 
L 3738 3709 
Q 2963 3028 2256 2547 
Q 2125 2747 1950 2947 
Q 2775 3459 3406 4047 
z
M 4288 3716 
L 4588 4047 
Q 5381 3509 6081 2947 
L 5750 2559 
Q 5063 3172 4288 3716 
z
M 663 5209 
Q 1356 4734 1894 4309 
Q 1694 4078 1544 3903 
Q 850 4497 356 4853 
L 663 5209 
z
M 406 3647 
Q 1094 3209 1625 2803 
Q 1531 2709 1288 2391 
Q 769 2822 100 3291 
L 406 3647 
z
" transform="scale(0.015625)"/>
      <path id="MicrosoftYaHei-2b" d="M 3972 1772 
L 2613 1772 
L 2613 419 
L 2141 419 
L 2141 1772 
L 788 1772 
L 788 2250 
L 2141 2250 
L 2141 3603 
L 2613 3603 
L 2613 2250 
L 3972 2250 
L 3972 1772 
z
" transform="scale(0.015625)"/>
      <path id="MicrosoftYaHei-5fae" d="M 4775 5303 
L 5200 5228 
Q 5100 4650 4966 4128 
L 6313 4128 
L 6313 3678 
L 6013 3678 
Q 5881 1888 5409 844 
Q 5769 147 6350 -347 
Q 6213 -591 6088 -828 
Q 5534 -294 5172 384 
Q 4797 -269 4206 -872 
Q 4081 -691 3900 -478 
Q 4581 166 4950 866 
Q 4600 1734 4525 2813 
Q 4425 2572 4313 2347 
Q 4188 2509 4013 2672 
Q 4563 3741 4775 5303 
z
M 1813 3203 
L 1813 4734 
L 2213 4734 
L 2213 3628 
L 2725 3628 
L 2725 5216 
L 3138 5216 
L 3138 3628 
L 3650 3628 
L 3650 4741 
L 4050 4741 
L 4050 3003 
L 3650 3003 
L 3650 3203 
L 1813 3203 
z
M 3256 1209 
L 2431 1209 
L 2431 922 
Q 2431 -203 1800 -678 
Q 1694 -503 1519 -278 
Q 2013 47 2013 972 
L 2013 1634 
L 3675 1634 
L 3675 547 
Q 3963 797 4331 1134 
Q 4388 859 4438 653 
Q 4094 378 3656 -22 
Q 3519 -153 3406 -272 
L 3088 128 
Q 3256 297 3256 578 
L 3256 1209 
z
M 81 1628 
Q 788 2453 1281 3572 
L 1694 3378 
Q 1463 2891 1213 2466 
L 1213 -816 
L 788 -816 
L 788 1809 
Q 525 1438 244 1128 
Q 169 1378 81 1628 
z
M 5588 3678 
L 4838 3678 
L 4819 3619 
Q 4828 2338 5178 1375 
Q 5453 2150 5588 3678 
z
M 113 3641 
Q 900 4441 1294 5272 
L 1681 5053 
Q 1131 3997 263 3153 
Q 194 3397 113 3641 
z
M 1938 2647 
L 3925 2647 
L 3925 2209 
L 1938 2209 
L 1938 2647 
z
" transform="scale(0.015625)"/>
      <path id="MicrosoftYaHei-8c03" d="M 2600 4509 
L 2600 1941 
Q 2600 109 1606 -841 
Q 1450 -616 1281 -441 
Q 2144 384 2144 1891 
L 2144 4934 
L 5994 4934 
L 5994 -66 
Q 5994 -759 5356 -759 
Q 4988 -759 4369 -741 
Q 4338 -509 4275 -259 
Q 4938 -303 5225 -303 
Q 5538 -303 5538 28 
L 5538 4509 
L 2600 4509 
z
M 3081 1884 
L 4994 1884 
L 4994 291 
L 3519 291 
L 3519 3 
L 3081 3 
L 3081 1884 
z
M 2794 2791 
L 3844 2791 
L 3844 3366 
L 2969 3366 
L 2969 3766 
L 3844 3766 
L 3844 4359 
L 4294 4359 
L 4294 3766 
L 5156 3766 
L 5156 3366 
L 4294 3366 
L 4294 2791 
L 5344 2791 
L 5344 2391 
L 2794 2391 
L 2794 2791 
z
M 1944 1466 
Q 1956 1184 1988 922 
Q 1338 447 863 28 
L 575 434 
Q 781 659 781 997 
L 781 2903 
L 100 2903 
L 100 3341 
L 1238 3341 
L 1238 909 
Q 1569 1153 1944 1466 
z
M 4556 1484 
L 3519 1484 
L 3519 691 
L 4556 691 
L 4556 1484 
z
M 863 5197 
Q 1281 4784 1800 4216 
L 1388 3866 
Q 900 4484 506 4897 
L 863 5197 
z
" transform="scale(0.015625)"/>
     </defs>
     <use xlink:href="#MicrosoftYaHei-6df1"/>
     <use xlink:href="#MicrosoftYaHei-5c42" transform="translate(100 0)"/>
     <use xlink:href="#MicrosoftYaHei-9884" transform="translate(200 0)"/>
     <use xlink:href="#MicrosoftYaHei-8bad" transform="translate(300 0)"/>
     <use xlink:href="#MicrosoftYaHei-7ec3" transform="translate(400 0)"/>
     <use xlink:href="#MicrosoftYaHei-2b" transform="translate(500 0)"/>
     <use xlink:href="#MicrosoftYaHei-5fae" transform="translate(574.169922 0)"/>
     <use xlink:href="#MicrosoftYaHei-8c03" transform="translate(674.169922 0)"/>
    </g>
    <!-- (第三代: 范式成熟) -->
    <g style="fill: #a8b5c4" transform="translate(840.511825 91.2105) scale(0.08 -0.08)">
     <defs>
      <path id="MicrosoftYaHei-4e09" d="M 575 4691 
L 5813 4691 
L 5813 4153 
L 575 4153 
L 575 4691 
z
M 188 166 
L 6225 166 
L 6225 -359 
L 188 -359 
L 188 166 
z
M 856 2547 
L 5531 2547 
L 5531 2016 
L 856 2016 
L 856 2547 
z
" transform="scale(0.015625)"/>
      <path id="MicrosoftYaHei-8303" d="M 2600 3341 
L 5575 3341 
Q 5525 2416 5481 1828 
Q 5400 941 4550 941 
Q 4188 941 3713 959 
Q 3675 1209 3613 1503 
Q 4163 1428 4538 1428 
Q 4931 1428 4988 1822 
Q 5031 2241 5056 2903 
L 3094 2903 
L 3094 197 
Q 3094 -191 3488 -191 
L 5125 -191 
Q 5625 -209 5694 191 
Q 5781 672 5806 1134 
Q 6069 1028 6313 947 
Q 6263 522 6169 22 
Q 6056 -678 5169 -641 
L 3344 -641 
Q 2600 -628 2600 109 
L 2600 3341 
z
M 150 4653 
L 1863 4653 
L 1863 5328 
L 2363 5328 
L 2363 4653 
L 4050 4653 
L 4050 5328 
L 4550 5328 
L 4550 4653 
L 6269 4653 
L 6269 4209 
L 4550 4209 
L 4550 3659 
L 4050 3659 
L 4050 4209 
L 2363 4209 
L 2363 3659 
L 1863 3659 
L 1863 4209 
L 150 4209 
L 150 4653 
z
M 1525 1559 
Q 1700 1422 1975 1253 
Q 1213 -97 813 -734 
L 344 -422 
Q 988 484 1525 1559 
z
M 1119 3784 
Q 1788 3316 2156 3016 
L 1819 2622 
Q 1275 3109 819 3428 
L 1119 3784 
z
M 431 2747 
Q 1025 2341 1438 1984 
L 1125 1591 
Q 494 2141 131 2378 
L 431 2747 
z
" transform="scale(0.015625)"/>
      <path id="MicrosoftYaHei-5f0f" d="M 94 4122 
L 3569 4122 
Q 3544 4700 3531 5347 
L 4063 5347 
Q 4059 4728 4081 4122 
L 6231 4122 
L 6231 3653 
L 4103 3653 
Q 4225 503 5156 -172 
Q 5494 -447 5631 -22 
Q 5725 303 5800 941 
Q 6094 834 6306 778 
Q 6188 47 6050 -403 
Q 5900 -834 5475 -834 
Q 5044 -834 4619 -397 
Q 3725 553 3597 3653 
L 94 3653 
L 94 4122 
z
M 119 159 
Q 825 244 1569 344 
L 1569 2097 
L 350 2097 
L 350 2566 
L 3288 2566 
L 3288 2097 
L 2081 2097 
L 2081 416 
Q 2809 519 3575 634 
Q 3563 391 3563 128 
Q 1681 -141 244 -366 
L 119 159 
z
M 4544 4978 
L 4844 5297 
Q 5294 4972 5756 4559 
L 5400 4191 
Q 5000 4597 4544 4978 
z
" transform="scale(0.015625)"/>
      <path id="MicrosoftYaHei-6210" d="M 2750 -347 
Q 3472 138 4038 781 
Q 3675 1703 3609 3759 
L 1250 3759 
L 1250 2809 
L 3050 2809 
Q 3013 1616 2950 803 
Q 2875 -59 2113 -59 
Q 1856 -59 1431 -34 
Q 1394 197 1331 484 
Q 1769 422 2063 422 
Q 2425 422 2469 922 
Q 2519 1497 2544 2347 
L 1247 2347 
Q 1197 175 369 -866 
Q 213 -653 44 -434 
Q 750 503 750 2528 
L 750 4222 
L 3591 4222 
Q 3569 4716 3550 5291 
L 4069 5291 
Q 4066 4850 4084 4222 
L 6238 4222 
L 6238 3759 
L 4100 3759 
Q 4163 2078 4409 1247 
Q 5016 2069 5406 3109 
L 5900 2903 
Q 5363 1631 4609 691 
Q 5069 -244 5506 -244 
Q 5666 -244 5750 47 
Q 5838 503 5888 984 
Q 6156 878 6363 809 
Q 6269 141 6156 -284 
Q 6038 -741 5631 -778 
Q 5250 -803 4900 -522 
Q 4522 -231 4256 278 
Q 3728 -291 3106 -722 
Q 2944 -534 2750 -347 
z
M 4544 4984 
L 4806 5309 
Q 5331 5009 5788 4684 
L 5488 4309 
Q 5038 4666 4544 4984 
z
" transform="scale(0.015625)"/>
      <path id="MicrosoftYaHei-719f" d="M 3081 2834 
L 3344 3128 
Q 3572 2944 3797 2753 
Q 3875 3203 3897 3791 
L 3256 3791 
L 3256 4166 
L 3906 4166 
Q 3919 4769 3919 5328 
L 4344 5328 
Q 4344 4719 4334 4166 
L 5388 4166 
Q 5388 2791 5431 2172 
Q 5475 1597 5625 1297 
Q 5681 1191 5738 1191 
Q 5806 1191 5838 1347 
Q 5881 1597 5925 2091 
Q 6181 1997 6325 1953 
Q 6256 1328 6200 1078 
Q 6088 609 5831 609 
Q 5544 609 5306 1003 
Q 5094 1359 5044 1884 
Q 4969 2572 4969 3791 
L 4325 3791 
Q 4297 3016 4178 2428 
Q 4528 2128 4875 1809 
L 4569 1466 
Q 4344 1691 4056 1956 
Q 3791 1184 3094 466 
Q 2950 622 2738 803 
Q 3463 1522 3694 2288 
Q 3413 2544 3081 2834 
z
M 94 1584 
Q 816 1619 1550 1669 
L 1550 1909 
L 2300 2309 
L 238 2309 
L 238 2672 
L 2963 2672 
L 2963 2284 
L 1975 1747 
L 1975 1697 
Q 2538 1738 3106 1784 
Q 3106 1534 3119 1409 
Q 2603 1378 1975 1334 
L 1975 1172 
Q 1975 503 1294 497 
Q 1019 491 675 522 
Q 650 747 600 972 
Q 975 916 1275 909 
Q 1550 903 1550 1209 
L 1550 1303 
Q 925 1256 200 1197 
L 94 1584 
z
M 425 4103 
L 2950 4103 
L 2950 2909 
L 2550 2909 
L 2550 3041 
L 825 3041 
L 825 2909 
L 425 2909 
L 425 4103 
z
M 125 4828 
L 1503 4828 
Q 1397 4997 1281 5159 
L 1681 5372 
Q 1850 5116 2003 4828 
L 3331 4828 
L 3331 4466 
L 125 4466 
L 125 4828 
z
M 4931 303 
L 5306 547 
Q 5881 -134 6175 -559 
L 5763 -859 
Q 5413 -328 4931 303 
z
M 2550 3766 
L 825 3766 
L 825 3378 
L 2550 3378 
L 2550 3766 
z
M 756 428 
L 1188 253 
Q 850 -478 613 -866 
Q 413 -784 169 -672 
Q 488 -197 756 428 
z
M 3375 334 
L 3756 541 
Q 4100 72 4381 -472 
L 3938 -716 
Q 3700 -191 3375 334 
z
M 1888 234 
L 2288 409 
Q 2600 -97 2813 -559 
L 2363 -778 
Q 2156 -259 1888 234 
z
" transform="scale(0.015625)"/>
     </defs>
     <use xlink:href="#MicrosoftYaHei-28"/>
     <use xlink:href="#MicrosoftYaHei-7b2c" transform="translate(33.398438 0)"/>
     <use xlink:href="#MicrosoftYaHei-4e09" transform="translate(133.398438 0)"/>
     <use xlink:href="#MicrosoftYaHei-4ee3" transform="translate(233.398438 0)"/>
     <use xlink:href="#MicrosoftYaHei-3a" transform="translate(333.398438 0)"/>
     <use xlink:href="#MicrosoftYaHei-20" transform="translate(357.470703 0)"/>
     <use xlink:href="#MicrosoftYaHei-8303" transform="translate(387.060547 0)"/>
     <use xlink:href="#MicrosoftYaHei-5f0f" transform="translate(487.060547 0)"/>
     <use xlink:href="#MicrosoftYaHei-6210" transform="translate(587.060547 0)"/>
     <use xlink:href="#MicrosoftYaHei-719f" transform="translate(687.060547 0)"/>
     <use xlink:href="#MicrosoftYaHei-29" transform="translate(787.060547 0)"/>
    </g>
   </g>
   <g id="text_13">
    <!-- 2008 -->
    <g style="fill: #4a4a4a" transform="translate(74.838262 196.513625) scale(0.09 -0.09)">
     <defs>
      <path id="MicrosoftYaHei-Bold-30" d="M 244 2341 
Q 244 3597 706 4259 
Q 1169 4922 2044 4922 
Q 3713 4922 3713 2453 
Q 3713 1238 3259 577 
Q 2806 -84 1950 -84 
Q 244 -84 244 2341 
z
M 1266 2366 
Q 1266 691 1981 691 
Q 2684 691 2684 2416 
Q 2684 4147 2000 4147 
Q 1266 4147 1266 2366 
z
" transform="scale(0.015625)"/>
      <path id="MicrosoftYaHei-Bold-38" d="M 269 1303 
Q 269 1725 512 2053 
Q 756 2381 1219 2534 
Q 850 2719 648 3003 
Q 447 3288 447 3634 
Q 447 3997 645 4292 
Q 844 4588 1200 4755 
Q 1556 4922 1997 4922 
Q 2441 4922 2800 4758 
Q 3159 4594 3359 4298 
Q 3559 4003 3559 3647 
Q 3559 3309 3339 3018 
Q 3119 2728 2747 2559 
Q 3200 2403 3453 2076 
Q 3706 1750 3706 1313 
Q 3706 697 3228 309 
Q 2750 -78 1988 -78 
Q 1225 -78 747 309 
Q 269 697 269 1303 
z
M 1278 1394 
Q 1278 1056 1472 853 
Q 1666 650 1991 650 
Q 2303 650 2503 853 
Q 2703 1056 2703 1394 
Q 2703 1709 2500 1920 
Q 2297 2131 1991 2131 
Q 1675 2131 1476 1920 
Q 1278 1709 1278 1394 
z
M 1428 3531 
Q 1428 3266 1592 3077 
Q 1756 2888 2006 2888 
Q 2247 2888 2415 3072 
Q 2584 3256 2584 3531 
Q 2584 3806 2420 3997 
Q 2256 4188 2006 4188 
Q 1750 4188 1589 3997 
Q 1428 3806 1428 3531 
z
" transform="scale(0.015625)"/>
     </defs>
     <use xlink:href="#MicrosoftYaHei-Bold-32"/>
     <use xlink:href="#MicrosoftYaHei-Bold-30" transform="translate(61.669922 0)"/>
     <use xlink:href="#MicrosoftYaHei-Bold-30" transform="translate(123.339844 0)"/>
     <use xlink:href="#MicrosoftYaHei-Bold-38" transform="translate(185.009766 0)"/>
    </g>
   </g>
   <g id="text_14">
    <!-- 2013 -->
    <g style="fill: #4a4a4a" transform="translate(468.534262 196.513625) scale(0.09 -0.09)">
     <defs>
      <path id="MicrosoftYaHei-Bold-31" d="M 2716 4947 
L 2716 0 
L 1700 0 
L 1700 3809 
Q 1513 3647 1188 3517 
Q 863 3388 591 3356 
L 591 4222 
Q 1447 4472 2072 4947 
L 2716 4947 
z
" transform="scale(0.015625)"/>
      <path id="MicrosoftYaHei-Bold-33" d="M 494 1053 
Q 978 691 1625 691 
Q 2034 691 2275 872 
Q 2516 1053 2516 1388 
Q 2516 1731 2230 1912 
Q 1944 2094 1428 2094 
L 997 2094 
L 997 2872 
L 1394 2872 
Q 2369 2872 2369 3528 
Q 2369 4147 1622 4147 
Q 1134 4147 675 3828 
L 675 4663 
Q 1175 4922 1853 4922 
Q 2541 4922 2969 4605 
Q 3397 4288 3397 3725 
Q 3397 2775 2434 2531 
L 2434 2516 
Q 2941 2459 3244 2145 
Q 3547 1831 3547 1381 
Q 3547 691 3042 303 
Q 2538 -84 1697 -84 
Q 950 -84 494 163 
L 494 1053 
z
" transform="scale(0.015625)"/>
     </defs>
     <use xlink:href="#MicrosoftYaHei-Bold-32"/>
     <use xlink:href="#MicrosoftYaHei-Bold-30" transform="translate(61.669922 0)"/>
     <use xlink:href="#MicrosoftYaHei-Bold-31" transform="translate(123.339844 0)"/>
     <use xlink:href="#MicrosoftYaHei-Bold-33" transform="translate(185.009766 0)"/>
    </g>
   </g>
   <g id="text_15">
    <!-- 2014 -->
    <g style="fill: #4a4a4a" transform="translate(547.273463 196.513625) scale(0.09 -0.09)">
     <defs>
      <path id="MicrosoftYaHei-Bold-34" d="M 3184 4841 
L 3184 1766 
L 3869 1766 
L 3869 1031 
L 3184 1031 
L 3184 0 
L 2266 0 
L 2266 1031 
L 103 1031 
L 103 1772 
Q 775 2522 1362 3359 
Q 1950 4197 2250 4841 
L 3184 4841 
z
M 997 1766 
L 2266 1766 
L 2266 3541 
Q 2116 3259 1836 2859 
Q 1556 2459 997 1766 
z
" transform="scale(0.015625)"/>
     </defs>
     <use xlink:href="#MicrosoftYaHei-Bold-32"/>
     <use xlink:href="#MicrosoftYaHei-Bold-30" transform="translate(61.669922 0)"/>
     <use xlink:href="#MicrosoftYaHei-Bold-31" transform="translate(123.339844 0)"/>
     <use xlink:href="#MicrosoftYaHei-Bold-34" transform="translate(185.009766 0)"/>
    </g>
   </g>
   <g id="text_16">
    <!-- 2015 -->
    <g style="fill: #4a4a4a" transform="translate(626.012662 196.513625) scale(0.09 -0.09)">
     <defs>
      <path id="MicrosoftYaHei-Bold-35" d="M 541 125 
L 541 997 
Q 1044 691 1613 691 
Q 2041 691 2283 902 
Q 2525 1113 2525 1472 
Q 2525 2225 1494 2225 
Q 1113 2225 616 2169 
L 797 4841 
L 3359 4841 
L 3359 4009 
L 1613 4009 
L 1544 2991 
Q 1803 3013 2022 3013 
Q 2731 3013 3142 2625 
Q 3553 2238 3553 1575 
Q 3553 844 3056 380 
Q 2559 -84 1706 -84 
Q 1016 -84 541 125 
z
" transform="scale(0.015625)"/>
     </defs>
     <use xlink:href="#MicrosoftYaHei-Bold-32"/>
     <use xlink:href="#MicrosoftYaHei-Bold-30" transform="translate(61.669922 0)"/>
     <use xlink:href="#MicrosoftYaHei-Bold-31" transform="translate(123.339844 0)"/>
     <use xlink:href="#MicrosoftYaHei-Bold-35" transform="translate(185.009766 0)"/>
    </g>
   </g>
   <g id="text_17">
    <!-- 2017 -->
    <g style="fill: #4a4a4a" transform="translate(783.491063 196.513625) scale(0.09 -0.09)">
     <defs>
      <path id="MicrosoftYaHei-Bold-37" d="M 3675 4225 
Q 3088 3172 2798 2528 
Q 2509 1884 2328 1275 
Q 2147 666 2050 0 
L 966 0 
Q 1122 947 1517 1917 
Q 1913 2888 2609 4009 
L 300 4009 
L 300 4841 
L 3675 4841 
L 3675 4225 
z
" transform="scale(0.015625)"/>
     </defs>
     <use xlink:href="#MicrosoftYaHei-Bold-32"/>
     <use xlink:href="#MicrosoftYaHei-Bold-30" transform="translate(61.669922 0)"/>
     <use xlink:href="#MicrosoftYaHei-Bold-31" transform="translate(123.339844 0)"/>
     <use xlink:href="#MicrosoftYaHei-Bold-37" transform="translate(185.009766 0)"/>
    </g>
   </g>
   <g id="text_18">
    <!-- 2018 -->
    <g style="fill: #4a4a4a" transform="translate(862.230262 196.513625) scale(0.09 -0.09)">
     <use xlink:href="#MicrosoftYaHei-Bold-32"/>
     <use xlink:href="#MicrosoftYaHei-Bold-30" transform="translate(61.669922 0)"/>
     <use xlink:href="#MicrosoftYaHei-Bold-31" transform="translate(123.339844 0)"/>
     <use xlink:href="#MicrosoftYaHei-Bold-38" transform="translate(185.009766 0)"/>
    </g>
   </g>
   <g id="patch_3">
    <path d="M 87.943243 268.35125 
Q 400.899188 268.35125 712.178081 268.35125 
" style="fill: none; stroke: #6c9bc2; stroke-width: 1.5; stroke-linecap: round"/>
    <path d="M 707.778081 266.15125 
L 712.178081 268.35125 
L 707.778081 270.55125 
" style="fill: none; stroke: #6c9bc2; stroke-width: 1.5; stroke-linecap: round"/>
   </g>
   <g id="text_19">
    <!-- 词级别迁移 -->
    <g style="fill: #6c9bc2" transform="translate(380.896 279.03125) scale(0.08 -0.08)">
     <defs>
      <path id="MicrosoftYaHei-7ea7" d="M 3272 2522 
Q 3175 466 1994 -803 
Q 1769 -578 1594 -453 
Q 2394 391 2631 1428 
Q 2859 2322 2844 4497 
L 2288 4497 
L 2288 4941 
L 5406 4941 
L 5406 4472 
L 4800 3216 
L 5838 3216 
L 5838 2753 
Q 5475 1622 4853 775 
Q 5456 163 6331 -291 
Q 6144 -472 5913 -753 
Q 5088 -231 4522 359 
Q 3881 -366 3013 -847 
Q 2838 -616 2663 -447 
Q 3563 63 4188 756 
Q 3625 1500 3272 2522 
z
M 4281 3228 
L 4881 4497 
L 3319 4497 
Q 3322 4050 3316 3653 
Q 3794 2034 4513 1153 
Q 5044 1878 5319 2772 
L 4281 2772 
L 4281 3228 
z
M 938 1897 
Q 1588 1966 2263 2053 
Q 2238 1847 2213 1647 
Q 1194 1522 413 1391 
L 300 1834 
Q 672 2163 1234 3028 
Q 753 2994 244 2941 
L 125 3334 
Q 644 3909 1331 5334 
L 1806 5128 
Q 1163 4041 681 3366 
Q 1031 3378 1469 3397 
Q 1694 3766 1950 4209 
L 2400 3997 
Q 1456 2566 938 1897 
z
M 100 441 
Q 1100 678 2131 959 
Q 2138 741 2150 528 
Q 1094 241 275 -3 
L 100 441 
z
" transform="scale(0.015625)"/>
      <path id="MicrosoftYaHei-522b" d="M 538 4959 
L 3375 4959 
L 3375 2772 
L 2888 2772 
L 2888 3028 
L 1025 3028 
L 1025 2772 
L 538 2772 
L 538 4959 
z
M 300 2116 
L 1316 2116 
Q 1331 2431 1338 2822 
L 1825 2822 
Q 1816 2431 1797 2116 
L 3431 2116 
Q 3413 1028 3363 328 
Q 3319 -684 2431 -678 
Q 2006 -678 1563 -641 
Q 1531 -347 1469 -122 
Q 1963 -203 2350 -203 
Q 2850 -209 2875 378 
Q 2925 891 2938 1666 
L 1769 1666 
Q 1688 53 431 -859 
Q 300 -666 88 -441 
Q 1238 366 1288 1666 
L 300 1666 
L 300 2116 
z
M 5425 5278 
L 5944 5278 
L 5944 53 
Q 5944 -747 5163 -747 
Q 4756 -747 4175 -741 
Q 4138 -484 4081 -178 
Q 4725 -228 4994 -228 
Q 5425 -228 5425 191 
L 5425 5278 
z
M 4138 4647 
L 4644 4647 
L 4644 666 
L 4138 666 
L 4138 4647 
z
M 2888 4509 
L 1025 4509 
L 1025 3478 
L 2888 3478 
L 2888 4509 
z
" transform="scale(0.015625)"/>
     </defs>
     <use xlink:href="#MicrosoftYaHei-8bcd"/>
     <use xlink:href="#MicrosoftYaHei-7ea7" transform="translate(100 0)"/>
     <use xlink:href="#MicrosoftYaHei-522b" transform="translate(200 0)"/>
     <use xlink:href="#MicrosoftYaHei-8fc1" transform="translate(300 0)"/>
     <use xlink:href="#MicrosoftYaHei-79fb" transform="translate(400 0)"/>
    </g>
   </g>
   <g id="patch_4">
    <path d="M 717.853239 268.35125 
Q 833.962923 268.35125 948.395556 268.35125 
" style="fill: none; stroke: #e57373; stroke-width: 1.5; stroke-linecap: round"/>
    <path d="M 943.995556 266.15125 
L 948.395556 268.35125 
L 943.995556 270.55125 
" style="fill: none; stroke: #e57373; stroke-width: 1.5; stroke-linecap: round"/>
   </g>
   <g id="text_20">
    <!-- 模型级别迁移 -->
    <g style="fill: #e57373" transform="translate(809.9616 279.03125) scale(0.08 -0.08)">
     <use xlink:href="#MicrosoftYaHei-6a21"/>
     <use xlink:href="#MicrosoftYaHei-578b" transform="translate(100 0)"/>
     <use xlink:href="#MicrosoftYaHei-7ea7" transform="translate(200 0)"/>
     <use xlink:href="#MicrosoftYaHei-522b" transform="translate(300 0)"/>
     <use xlink:href="#MicrosoftYaHei-8fc1" transform="translate(400 0)"/>
     <use xlink:href="#MicrosoftYaHei-79fb" transform="translate(500 0)"/>
    </g>
   </g>
   <g id="text_21">
    <!-- NLP 预训练范式的演进 -->
    <g style="fill: #4a4a4a" transform="translate(426.87 18.39125) scale(0.14 -0.14)">
     <defs>
      <path id="MicrosoftYaHei-Bold-8303" d="M 106 4853 
L 1669 4853 
L 1669 5316 
L 2525 5316 
L 2525 4853 
L 3900 4853 
L 3900 5316 
L 4750 5316 
L 4750 4853 
L 6306 4853 
L 6306 4066 
L 4750 4066 
L 4750 3659 
L 3900 3659 
L 3900 4066 
L 2525 4066 
L 2525 3659 
L 1669 3659 
L 1669 4066 
L 106 4066 
L 106 4853 
z
M 1075 3834 
Q 1806 3334 2075 3097 
L 1550 2472 
Q 1169 2809 588 3247 
L 1075 3834 
z
M 5425 1122 
Q 6006 891 6300 797 
Q 6163 116 6053 -171 
Q 5944 -459 5584 -578 
Q 5225 -697 4688 -697 
L 3375 -697 
Q 2219 -697 2219 416 
L 2219 3378 
L 5606 3378 
L 5563 1972 
Q 5544 1378 5323 1081 
Q 5103 784 4681 784 
L 3731 766 
Q 3638 1228 3531 1603 
Q 4013 1572 4253 1572 
Q 4550 1572 4640 1673 
Q 4731 1775 4731 2603 
L 3125 2603 
L 3125 484 
Q 3125 122 3600 109 
L 4594 109 
Q 4919 109 5101 195 
Q 5284 281 5328 436 
Q 5372 591 5425 1122 
z
M 556 2753 
L 1544 2016 
L 1000 1347 
Q 506 1797 69 2153 
L 556 2753 
z
M 1150 1466 
L 1925 1141 
Q 1744 584 1306 -884 
Q 894 -691 463 -503 
Q 875 547 1150 1466 
z
" transform="scale(0.015625)"/>
      <path id="MicrosoftYaHei-Bold-5f0f" d="M 100 4222 
L 3350 4222 
L 3281 5322 
L 4219 5322 
Q 4234 4769 4266 4222 
L 5125 4222 
Q 4856 4572 4594 4853 
L 5150 5272 
Q 5519 4891 5863 4478 
L 5531 4222 
L 6169 4222 
L 6169 3397 
L 4322 3397 
Q 4463 1363 4698 727 
Q 4934 91 5144 91 
Q 5200 91 5247 156 
Q 5294 222 5358 530 
Q 5422 838 5481 1347 
Q 5913 1072 6300 909 
Q 6131 -263 5887 -561 
Q 5644 -859 5150 -859 
Q 4269 -859 3916 128 
Q 3563 1116 3409 3397 
L 100 3397 
L 100 4222 
z
M 375 2716 
L 3200 2716 
L 3200 1897 
L 2263 1897 
L 2263 681 
L 3500 866 
Q 3481 253 3488 -34 
L 200 -516 
L 94 416 
L 1369 566 
L 1369 1897 
L 375 1897 
L 375 2716 
z
" transform="scale(0.015625)"/>
      <path id="MicrosoftYaHei-Bold-7684" d="M 1250 5303 
L 2181 5159 
L 1900 4309 
L 2963 4309 
L 2963 3091 
Q 3466 3934 3925 5316 
L 4788 5091 
Q 4650 4675 4494 4278 
L 6106 4278 
L 6034 681 
Q 6019 100 5937 -133 
Q 5856 -366 5684 -512 
Q 5513 -659 5205 -712 
Q 4897 -766 3863 -766 
Q 3769 -216 3625 178 
Q 4088 141 4609 141 
Q 4759 141 4868 175 
Q 4978 209 5048 279 
Q 5119 350 5144 437 
Q 5169 525 5184 1206 
L 5213 2484 
Q 5225 3081 5225 3453 
L 4138 3453 
Q 3931 3016 3700 2603 
Q 3403 2797 2963 2988 
L 2963 -734 
L 2094 -734 
L 2094 -284 
L 1206 -284 
L 1206 -772 
L 338 -772 
L 338 4309 
L 997 4309 
Q 1178 4922 1250 5303 
z
M 2094 3491 
L 1206 3491 
L 1206 2422 
L 2094 2422 
L 2094 3491 
z
M 1206 534 
L 2094 534 
L 2094 1603 
L 1206 1603 
L 1206 534 
z
M 3944 2703 
Q 4394 2166 4913 1397 
L 4125 872 
Q 3650 1653 3219 2203 
L 3944 2703 
z
" transform="scale(0.015625)"/>
      <path id="MicrosoftYaHei-Bold-6f14" d="M 4194 -197 
L 4491 366 
L 3347 366 
L 3725 -191 
Q 2931 -578 1919 -884 
L 1556 -184 
Q 2347 13 3247 366 
L 2025 366 
L 2025 2909 
L 3581 2909 
L 3581 3209 
L 2238 3209 
L 2238 3616 
L 1750 3616 
L 1750 4778 
L 3472 4778 
Q 3394 4947 3294 5147 
L 4150 5372 
Q 4328 5034 4444 4778 
L 6175 4778 
L 6175 3616 
L 5675 3616 
L 5675 3209 
L 4356 3209 
L 4356 2909 
L 5913 2909 
L 5913 366 
L 4681 366 
Q 5716 47 6313 -172 
L 5963 -872 
L 4194 -197 
z
M 5375 4109 
L 2550 4109 
L 2550 3816 
L 5375 3816 
L 5375 4109 
z
M 5150 2303 
L 4356 2303 
L 4356 1922 
L 5150 1922 
L 5150 2303 
z
M 2788 1922 
L 3581 1922 
L 3581 2303 
L 2788 2303 
L 2788 1922 
z
M 2788 972 
L 3581 972 
L 3581 1359 
L 2788 1359 
L 2788 972 
z
M 5150 972 
L 5150 1359 
L 4356 1359 
L 4356 972 
L 5150 972 
z
M 719 5278 
Q 1425 4772 1744 4509 
L 1163 3878 
Q 719 4309 200 4734 
L 719 5278 
z
M 594 3666 
Q 1069 3316 1581 2878 
L 1019 2203 
L 81 3072 
L 594 3666 
z
M 825 1784 
Q 1213 1616 1631 1491 
Q 1356 503 1050 -822 
Q 619 -672 225 -566 
Q 556 541 825 1784 
z
" transform="scale(0.015625)"/>
      <path id="MicrosoftYaHei-Bold-8fdb" d="M 1806 2516 
L 2700 2516 
Q 2719 2728 2719 3591 
L 2044 3591 
L 2044 4341 
L 2719 4341 
L 2719 5291 
L 3556 5291 
L 3556 4341 
L 4494 4341 
L 4494 5291 
L 5331 5291 
L 5331 4341 
L 6000 4341 
L 6000 3591 
L 5331 3591 
L 5331 2516 
L 6244 2516 
L 6244 1766 
L 5331 1766 
L 5331 291 
L 4494 291 
L 4494 1766 
L 3463 1766 
Q 3309 844 2900 178 
Q 2519 509 2088 803 
Q 2413 1200 2572 1766 
L 1806 1766 
L 1806 2516 
z
M 3544 2516 
L 4494 2516 
L 4494 3591 
L 3556 3591 
Q 3556 2959 3544 2516 
z
M 988 5253 
Q 1456 4641 1831 4103 
L 1100 3609 
Q 719 4259 319 4841 
L 988 5253 
z
M 6319 141 
Q 6144 -309 6050 -691 
Q 5634 -703 4181 -703 
L 3075 -703 
Q 2434 -703 1956 -553 
Q 1478 -403 1175 -103 
L 450 -847 
L 94 109 
Q 425 428 738 694 
L 738 2309 
L 138 2309 
L 138 3103 
L 1556 3103 
L 1556 613 
Q 2047 97 3019 97 
Q 5722 97 6319 141 
z
" transform="scale(0.015625)"/>
     </defs>
     <use xlink:href="#MicrosoftYaHei-Bold-4e"/>
     <use xlink:href="#MicrosoftYaHei-Bold-4c" transform="translate(84.814453 0)"/>
     <use xlink:href="#MicrosoftYaHei-Bold-50" transform="translate(139.501953 0)"/>
     <use xlink:href="#MicrosoftYaHei-Bold-20" transform="translate(205.224609 0)"/>
     <use xlink:href="#MicrosoftYaHei-Bold-9884" transform="translate(235.009766 0)"/>
     <use xlink:href="#MicrosoftYaHei-Bold-8bad" transform="translate(335.009766 0)"/>
     <use xlink:href="#MicrosoftYaHei-Bold-7ec3" transform="translate(435.009766 0)"/>
     <use xlink:href="#MicrosoftYaHei-Bold-8303" transform="translate(535.009766 0)"/>
     <use xlink:href="#MicrosoftYaHei-Bold-5f0f" transform="translate(635.009766 0)"/>
     <use xlink:href="#MicrosoftYaHei-Bold-7684" transform="translate(735.009766 0)"/>
     <use xlink:href="#MicrosoftYaHei-Bold-6f14" transform="translate(835.009766 0)"/>
     <use xlink:href="#MicrosoftYaHei-Bold-8fdb" transform="translate(935.009766 0)"/>
    </g>
   </g>
  </g>
 </g>
 <defs>
  <clipPath id="pba6274d011">
   <rect x="7.2" y="33.39125" width="984.24" height="309.72"/>
  </clipPath>
 </defs>
</svg>
