<?xml version="1.0" encoding="utf-8" standalone="no"?>
<!DOCTYPE svg PUBLIC "-//W3C//DTD SVG 1.1//EN"
  "http://www.w3.org/Graphics/SVG/1.1/DTD/svg11.dtd">
<svg xmlns:xlink="http://www.w3.org/1999/xlink" width="926.64pt" height="350.793125pt" viewBox="0 0 926.64 350.793125" xmlns="http://www.w3.org/2000/svg" version="1.1">
 <metadata>
  <rdf:RDF xmlns:dc="http://purl.org/dc/elements/1.1/" xmlns:cc="http://creativecommons.org/ns#" xmlns:rdf="http://www.w3.org/1999/02/22-rdf-syntax-ns#">
   <cc:Work>
    <dc:type rdf:resource="http://purl.org/dc/dcmitype/StillImage"/>
    <dc:date>2026-01-26T08:21:57.264275</dc:date>
    <dc:format>image/svg+xml</dc:format>
    <dc:creator>
     <cc:Agent>
      <dc:title>Matplotlib v3.10.8, https://matplotlib.org/</dc:title>
     </cc:Agent>
    </dc:creator>
   </cc:Work>
  </rdf:RDF>
 </metadata>
 <defs>
  <style type="text/css">*{stroke-linejoin: round; stroke-linecap: butt}</style>
 </defs>
 <g id="figure_1">
  <g id="patch_1">
   <path d="M 0 350.793125 
L 926.64 350.793125 
L 926.64 0 
L 0 0 
z
" style="fill: #ffffff"/>
  </g>
  <g id="axes_1">
   <g id="patch_2">
    <path d="M 7.2 343.593125 
L 457.38 343.593125 
L 457.38 27.993125 
L 7.2 27.993125 
z
" style="fill: #ffffff"/>
   </g>
   <g id="patch_3">
    <path d="M 257.652254 280.473125 
L 409.825775 280.473125 
Q 419.33662 280.473125 419.33662 269.953125 
L 419.33662 213.846458 
Q 419.33662 203.326458 409.825775 203.326458 
L 257.652254 203.326458 
Q 248.141408 203.326458 248.141408 213.846458 
L 248.141408 269.953125 
Q 248.141408 280.473125 257.652254 280.473125 
z
" clip-path="url(#pcef35d23e2)" style="fill: #e57373; opacity: 0.15; stroke: #e57373; stroke-width: 1.5; stroke-linejoin: miter"/>
   </g>
   <g id="matplotlib.axis_1"/>
   <g id="matplotlib.axis_2"/>
   <g id="text_1">
    <g id="patch_4">
     <path d="M 32.562254 104.343021 
L 200.155613 104.343021 
Q 203.955613 104.343021 203.955613 100.543021 
L 203.955613 90.532396 
Q 203.955613 86.732396 200.155613 86.732396 
L 32.562254 86.732396 
Q 28.762254 86.732396 28.762254 90.532396 
L 28.762254 100.543021 
Q 28.762254 104.343021 32.562254 104.343021 
z
" style="fill: #f0f2f5"/>
    </g>
    <!-- I went to the bank to deposit money. -->
    <g style="fill: #4a4a4a" transform="translate(32.562254 98.126458) scale(0.095 -0.095)">
     <defs>
      <path id="MicrosoftYaHei-49" d="M 1250 4841 
L 1250 0 
L 625 0 
L 625 4841 
L 1250 4841 
z
" transform="scale(0.015625)"/>
      <path id="MicrosoftYaHei-20" transform="scale(0.015625)"/>
      <path id="MicrosoftYaHei-77" d="M 4975 3456 
L 3944 0 
L 3306 0 
L 2619 2425 
Q 2575 2581 2563 2756 
L 2550 2756 
Q 2541 2625 2478 2431 
L 1734 0 
L 1116 0 
L 78 3456 
L 716 3456 
L 1406 894 
Q 1438 778 1453 578 
L 1478 578 
Q 1491 750 1538 903 
L 2281 3456 
L 2847 3456 
L 3572 891 
Q 3603 778 3622 572 
L 3650 572 
Q 3656 709 3706 891 
L 4381 3456 
L 4975 3456 
z
" transform="scale(0.015625)"/>
      <path id="MicrosoftYaHei-65" d="M 3363 1572 
L 944 1572 
Q 959 1019 1246 717 
Q 1534 416 2050 416 
Q 2631 416 3116 788 
L 3116 241 
Q 2659 -81 1906 -81 
Q 1156 -81 736 394 
Q 316 869 316 1713 
Q 316 2506 777 3022 
Q 1238 3538 1922 3538 
Q 2600 3538 2981 3102 
Q 3363 2666 3363 1881 
L 3363 1572 
z
M 2750 2063 
Q 2747 2531 2528 2787 
Q 2309 3044 1913 3044 
Q 1547 3044 1280 2772 
Q 1013 2500 944 2063 
L 2750 2063 
z
" transform="scale(0.015625)"/>
      <path id="MicrosoftYaHei-6e" d="M 3469 0 
L 2859 0 
L 2859 1966 
Q 2859 3031 2081 3031 
Q 1678 3031 1418 2731 
Q 1159 2431 1159 1972 
L 1159 0 
L 547 0 
L 547 3456 
L 1159 3456 
L 1159 2884 
L 1172 2884 
Q 1563 3538 2306 3538 
Q 2875 3538 3172 3173 
Q 3469 2809 3469 2113 
L 3469 0 
z
" transform="scale(0.015625)"/>
      <path id="MicrosoftYaHei-74" d="M 2206 34 
Q 2006 -75 1666 -75 
Q 738 -75 738 953 
L 738 2950 
L 144 2950 
L 144 3456 
L 738 3456 
L 738 4288 
L 1347 4481 
L 1347 3456 
L 2206 3456 
L 2206 2950 
L 1347 2950 
L 1347 1063 
Q 1347 722 1462 575 
Q 1578 428 1847 428 
Q 2053 428 2206 544 
L 2206 34 
z
" transform="scale(0.015625)"/>
      <path id="MicrosoftYaHei-6f" d="M 316 1691 
Q 316 2547 794 3042 
Q 1272 3538 2091 3538 
Q 2869 3538 3311 3061 
Q 3753 2584 3753 1744 
Q 3753 925 3281 422 
Q 2809 -81 2016 -81 
Q 1241 -81 778 406 
Q 316 894 316 1691 
z
M 941 1709 
Q 941 1113 1242 769 
Q 1544 425 2053 425 
Q 2578 425 2853 761 
Q 3128 1097 3128 1725 
Q 3128 2356 2853 2693 
Q 2578 3031 2053 3031 
Q 1538 3031 1239 2678 
Q 941 2325 941 1709 
z
" transform="scale(0.015625)"/>
      <path id="MicrosoftYaHei-68" d="M 3466 0 
L 2856 0 
L 2856 1988 
Q 2856 3031 2081 3031 
Q 1684 3031 1421 2726 
Q 1159 2422 1159 1959 
L 1159 0 
L 547 0 
L 547 5116 
L 1159 5116 
L 1159 2888 
L 1172 2888 
Q 1569 3538 2300 3538 
Q 3466 3538 3466 2128 
L 3466 0 
z
" transform="scale(0.015625)"/>
      <path id="MicrosoftYaHei-62" d="M 1159 488 
L 1159 0 
L 547 0 
L 547 5116 
L 1159 5116 
L 1159 2859 
L 1172 2859 
Q 1578 3538 2359 3538 
Q 3009 3538 3392 3080 
Q 3775 2622 3775 1828 
Q 3775 953 3345 436 
Q 2916 -81 2200 -81 
Q 1525 -81 1172 488 
L 1159 488 
z
M 1156 1422 
Q 1156 1003 1428 714 
Q 1700 425 2109 425 
Q 2597 425 2872 800 
Q 3147 1175 3147 1838 
Q 3147 2384 2890 2707 
Q 2634 3031 2191 3031 
Q 1741 3031 1448 2709 
Q 1156 2388 1156 1891 
L 1156 1422 
z
" transform="scale(0.015625)"/>
      <path id="MicrosoftYaHei-61" d="M 628 3216 
Q 1144 3538 1819 3538 
Q 3069 3538 3069 2225 
L 3069 0 
L 2463 0 
L 2463 534 
L 2447 534 
Q 2088 -81 1388 -81 
Q 884 -81 587 191 
Q 291 463 291 925 
Q 291 1894 1438 2053 
L 2463 2197 
Q 2463 3044 1763 3044 
Q 1141 3044 628 2625 
L 628 3216 
z
M 1653 1625 
Q 1228 1569 1067 1412 
Q 906 1256 906 975 
Q 906 728 1081 572 
Q 1256 416 1544 416 
Q 1944 416 2203 697 
Q 2463 978 2463 1403 
L 2463 1734 
L 1653 1625 
z
" transform="scale(0.015625)"/>
      <path id="MicrosoftYaHei-6b" d="M 3484 0 
L 2650 0 
L 1172 1666 
L 1159 1666 
L 1159 0 
L 547 0 
L 547 5116 
L 1159 5116 
L 1159 1872 
L 1172 1872 
L 2575 3456 
L 3363 3456 
L 1800 1794 
L 3484 0 
z
" transform="scale(0.015625)"/>
      <path id="MicrosoftYaHei-64" d="M 3547 0 
L 2934 0 
L 2934 575 
L 2922 575 
Q 2544 -81 1747 -81 
Q 1091 -81 703 386 
Q 316 853 316 1647 
Q 316 2503 753 3020 
Q 1191 3538 1897 3538 
Q 2603 3538 2922 2988 
L 2934 2988 
L 2934 5116 
L 3547 5116 
L 3547 0 
z
M 2938 2056 
Q 2938 2472 2664 2751 
Q 2391 3031 1991 3031 
Q 1503 3031 1222 2667 
Q 941 2303 941 1675 
Q 941 1097 1211 761 
Q 1481 425 1931 425 
Q 2375 425 2656 754 
Q 2938 1084 2938 1575 
L 2938 2056 
z
" transform="scale(0.015625)"/>
      <path id="MicrosoftYaHei-70" d="M 1159 488 
L 1159 -1591 
L 547 -1591 
L 547 3456 
L 1159 3456 
L 1159 2859 
L 1172 2859 
Q 1578 3538 2359 3538 
Q 3022 3538 3398 3073 
Q 3775 2609 3775 1828 
Q 3775 966 3348 442 
Q 2922 -81 2200 -81 
Q 1534 -81 1172 488 
L 1159 488 
z
M 1156 1425 
Q 1156 1003 1428 714 
Q 1700 425 2109 425 
Q 2597 425 2872 800 
Q 3147 1175 3147 1838 
Q 3147 2397 2890 2714 
Q 2634 3031 2191 3031 
Q 1738 3031 1447 2709 
Q 1156 2388 1156 1884 
L 1156 1425 
z
" transform="scale(0.015625)"/>
      <path id="MicrosoftYaHei-73" d="M 353 747 
Q 816 413 1350 413 
Q 2066 413 2066 881 
Q 2066 1081 1909 1211 
Q 1753 1341 1275 1519 
Q 700 1750 528 1976 
Q 356 2203 356 2525 
Q 356 2984 745 3261 
Q 1134 3538 1703 3538 
Q 2144 3538 2522 3384 
L 2522 2794 
Q 2134 3044 1644 3044 
Q 1350 3044 1165 2916 
Q 981 2788 981 2578 
Q 981 2372 1114 2256 
Q 1247 2141 1703 1959 
Q 2281 1744 2484 1512 
Q 2688 1281 2688 941 
Q 2688 466 2298 192 
Q 1909 -81 1291 -81 
Q 753 -81 353 122 
L 353 747 
z
" transform="scale(0.015625)"/>
      <path id="MicrosoftYaHei-69" d="M 472 4675 
Q 472 4838 583 4948 
Q 694 5059 856 5059 
Q 1022 5059 1136 4950 
Q 1250 4841 1250 4675 
Q 1250 4513 1136 4405 
Q 1022 4297 856 4297 
Q 691 4297 581 4405 
Q 472 4513 472 4675 
z
M 544 0 
L 544 3456 
L 1156 3456 
L 1156 0 
L 544 0 
z
" transform="scale(0.015625)"/>
      <path id="MicrosoftYaHei-6d" d="M 5522 0 
L 4909 0 
L 4909 1984 
Q 4909 2547 4734 2789 
Q 4559 3031 4159 3031 
Q 3822 3031 3581 2715 
Q 3341 2400 3341 1969 
L 3341 0 
L 2728 0 
L 2728 2047 
Q 2728 3031 1969 3031 
Q 1619 3031 1389 2731 
Q 1159 2431 1159 1966 
L 1159 0 
L 547 0 
L 547 3456 
L 1159 3456 
L 1159 2909 
L 1172 2909 
Q 1541 3538 2250 3538 
Q 2597 3538 2862 3347 
Q 3128 3156 3231 2831 
Q 3616 3538 4381 3538 
Q 5522 3538 5522 2131 
L 5522 0 
z
" transform="scale(0.015625)"/>
      <path id="MicrosoftYaHei-79" d="M 3359 3456 
L 1791 -522 
Q 1353 -1628 556 -1628 
Q 328 -1628 166 -1578 
L 166 -1041 
Q 344 -1109 509 -1109 
Q 925 -1109 1131 -622 
L 1397 6 
L 41 3456 
L 719 3456 
L 1622 859 
L 1697 575 
L 1713 575 
Q 1731 672 1788 853 
L 2731 3456 
L 3359 3456 
z
" transform="scale(0.015625)"/>
      <path id="MicrosoftYaHei-2e" d="M 372 322 
Q 372 491 487 606 
Q 603 722 775 722 
Q 950 722 1065 605 
Q 1181 488 1181 322 
Q 1181 159 1065 42 
Q 950 -75 772 -75 
Q 600 -75 486 42 
Q 372 159 372 322 
z
" transform="scale(0.015625)"/>
     </defs>
     <use xlink:href="#MicrosoftYaHei-49"/>
     <use xlink:href="#MicrosoftYaHei-20" transform="translate(29.394531 0)"/>
     <use xlink:href="#MicrosoftYaHei-77" transform="translate(58.984375 0)"/>
     <use xlink:href="#MicrosoftYaHei-65" transform="translate(137.439453 0)"/>
     <use xlink:href="#MicrosoftYaHei-6e" transform="translate(194.177734 0)"/>
     <use xlink:href="#MicrosoftYaHei-74" transform="translate(255.798828 0)"/>
     <use xlink:href="#MicrosoftYaHei-20" transform="translate(293.054688 0)"/>
     <use xlink:href="#MicrosoftYaHei-74" transform="translate(322.644531 0)"/>
     <use xlink:href="#MicrosoftYaHei-6f" transform="translate(359.025391 0)"/>
     <use xlink:href="#MicrosoftYaHei-20" transform="translate(422.599609 0)"/>
     <use xlink:href="#MicrosoftYaHei-74" transform="translate(452.189453 0)"/>
     <use xlink:href="#MicrosoftYaHei-68" transform="translate(489.445312 0)"/>
     <use xlink:href="#MicrosoftYaHei-65" transform="translate(551.017578 0)"/>
     <use xlink:href="#MicrosoftYaHei-20" transform="translate(607.755859 0)"/>
     <use xlink:href="#MicrosoftYaHei-62" transform="translate(637.345703 0)"/>
     <use xlink:href="#MicrosoftYaHei-61" transform="translate(699.837891 0)"/>
     <use xlink:href="#MicrosoftYaHei-6e" transform="translate(755.111328 0)"/>
     <use xlink:href="#MicrosoftYaHei-6b" transform="translate(816.732422 0)"/>
     <use xlink:href="#MicrosoftYaHei-20" transform="translate(871.175781 0)"/>
     <use xlink:href="#MicrosoftYaHei-74" transform="translate(900.765625 0)"/>
     <use xlink:href="#MicrosoftYaHei-6f" transform="translate(937.146484 0)"/>
     <use xlink:href="#MicrosoftYaHei-20" transform="translate(1000.720703 0)"/>
     <use xlink:href="#MicrosoftYaHei-64" transform="translate(1030.310547 0)"/>
     <use xlink:href="#MicrosoftYaHei-65" transform="translate(1094.275391 0)"/>
     <use xlink:href="#MicrosoftYaHei-70" transform="translate(1151.013672 0)"/>
     <use xlink:href="#MicrosoftYaHei-6f" transform="translate(1214.880859 0)"/>
     <use xlink:href="#MicrosoftYaHei-73" transform="translate(1278.455078 0)"/>
     <use xlink:href="#MicrosoftYaHei-69" transform="translate(1324.744141 0)"/>
     <use xlink:href="#MicrosoftYaHei-74" transform="translate(1351.355469 0)"/>
     <use xlink:href="#MicrosoftYaHei-20" transform="translate(1388.611328 0)"/>
     <use xlink:href="#MicrosoftYaHei-6d" transform="translate(1418.201172 0)"/>
     <use xlink:href="#MicrosoftYaHei-6f" transform="translate(1511.902344 0)"/>
     <use xlink:href="#MicrosoftYaHei-6e" transform="translate(1575.476562 0)"/>
     <use xlink:href="#MicrosoftYaHei-65" transform="translate(1637.097656 0)"/>
     <use xlink:href="#MicrosoftYaHei-79" transform="translate(1693.835938 0)"/>
     <use xlink:href="#MicrosoftYaHei-2e" transform="translate(1740.015625 0)"/>
    </g>
   </g>
   <g id="patch_5">
    <path d="M 154.006509 120.913721 
Q 202.570616 207.376779 295.577906 237.340998 
" style="fill: none; stroke: #e57373; stroke-width: 1.3; stroke-linecap: round"/>
    <path d="M 292.064515 233.897731 
L 295.577906 237.340998 
L 290.715258 238.085751 
" style="fill: none; stroke: #e57373; stroke-width: 1.3; stroke-linecap: round"/>
   </g>
   <g id="text_2">
    <g id="patch_6">
     <path d="M 32.562254 230.528099 
L 162.5653 230.528099 
Q 166.3653 230.528099 166.3653 226.728099 
L 166.3653 216.772396 
Q 166.3653 212.972396 162.5653 212.972396 
L 32.562254 212.972396 
Q 28.762254 212.972396 28.762254 216.772396 
L 28.762254 226.728099 
Q 28.762254 230.528099 32.562254 230.528099 
z
" style="fill: #f0f2f5"/>
    </g>
    <!-- I sat on the bank of the river. -->
    <g style="fill: #4a4a4a" transform="translate(32.562254 224.366458) scale(0.095 -0.095)">
     <defs>
      <path id="MicrosoftYaHei-66" d="M 2319 4594 
Q 2147 4684 1947 4684 
Q 1372 4684 1372 3972 
L 1372 3456 
L 2181 3456 
L 2181 2950 
L 1372 2950 
L 1372 0 
L 766 0 
L 766 2950 
L 175 2950 
L 175 3456 
L 766 3456 
L 766 4000 
Q 766 4556 1086 4873 
Q 1406 5191 1900 5191 
Q 2163 5191 2319 5131 
L 2319 4594 
z
" transform="scale(0.015625)"/>
      <path id="MicrosoftYaHei-72" d="M 2400 2850 
Q 2247 2959 1978 2959 
Q 1622 2959 1390 2626 
Q 1159 2294 1159 1750 
L 1159 0 
L 547 0 
L 547 3456 
L 1159 3456 
L 1159 2753 
L 1172 2753 
Q 1434 3516 2078 3516 
Q 2288 3516 2400 3469 
L 2400 2850 
z
" transform="scale(0.015625)"/>
      <path id="MicrosoftYaHei-76" d="M 3331 3456 
L 1963 0 
L 1344 0 
L 44 3456 
L 713 3456 
L 1556 988 
Q 1659 691 1678 491 
L 1694 491 
Q 1725 753 1803 975 
L 2688 3456 
L 3331 3456 
z
" transform="scale(0.015625)"/>
     </defs>
     <use xlink:href="#MicrosoftYaHei-49"/>
     <use xlink:href="#MicrosoftYaHei-20" transform="translate(29.394531 0)"/>
     <use xlink:href="#MicrosoftYaHei-73" transform="translate(58.984375 0)"/>
     <use xlink:href="#MicrosoftYaHei-61" transform="translate(105.273438 0)"/>
     <use xlink:href="#MicrosoftYaHei-74" transform="translate(160.546875 0)"/>
     <use xlink:href="#MicrosoftYaHei-20" transform="translate(197.802734 0)"/>
     <use xlink:href="#MicrosoftYaHei-6f" transform="translate(227.392578 0)"/>
     <use xlink:href="#MicrosoftYaHei-6e" transform="translate(290.966797 0)"/>
     <use xlink:href="#MicrosoftYaHei-20" transform="translate(352.587891 0)"/>
     <use xlink:href="#MicrosoftYaHei-74" transform="translate(382.177734 0)"/>
     <use xlink:href="#MicrosoftYaHei-68" transform="translate(419.433594 0)"/>
     <use xlink:href="#MicrosoftYaHei-65" transform="translate(481.005859 0)"/>
     <use xlink:href="#MicrosoftYaHei-20" transform="translate(537.744141 0)"/>
     <use xlink:href="#MicrosoftYaHei-62" transform="translate(567.333984 0)"/>
     <use xlink:href="#MicrosoftYaHei-61" transform="translate(629.826172 0)"/>
     <use xlink:href="#MicrosoftYaHei-6e" transform="translate(685.099609 0)"/>
     <use xlink:href="#MicrosoftYaHei-6b" transform="translate(746.720703 0)"/>
     <use xlink:href="#MicrosoftYaHei-20" transform="translate(801.164062 0)"/>
     <use xlink:href="#MicrosoftYaHei-6f" transform="translate(830.753906 0)"/>
     <use xlink:href="#MicrosoftYaHei-66" transform="translate(892.328125 0)"/>
     <use xlink:href="#MicrosoftYaHei-20" transform="translate(926.996094 0)"/>
     <use xlink:href="#MicrosoftYaHei-74" transform="translate(956.585938 0)"/>
     <use xlink:href="#MicrosoftYaHei-68" transform="translate(993.841797 0)"/>
     <use xlink:href="#MicrosoftYaHei-65" transform="translate(1055.414062 0)"/>
     <use xlink:href="#MicrosoftYaHei-20" transform="translate(1112.152344 0)"/>
     <use xlink:href="#MicrosoftYaHei-72" transform="translate(1141.742188 0)"/>
     <use xlink:href="#MicrosoftYaHei-69" transform="translate(1179.925781 0)"/>
     <use xlink:href="#MicrosoftYaHei-76" transform="translate(1206.537109 0)"/>
     <use xlink:href="#MicrosoftYaHei-65" transform="translate(1258.402344 0)"/>
     <use xlink:href="#MicrosoftYaHei-72" transform="translate(1315.140625 0)"/>
     <use xlink:href="#MicrosoftYaHei-2e" transform="translate(1344.324219 0)"/>
    </g>
   </g>
   <g id="patch_7">
    <path d="M 154.924049 246.050099 
Q 227.315459 270.333023 295.715344 239.808782 
" style="fill: none; stroke: #e57373; stroke-width: 1.3; stroke-linecap: round"/>
    <path d="M 290.800736 239.592858 
L 295.715344 239.808782 
L 292.59384 243.610915 
" style="fill: none; stroke: #e57373; stroke-width: 1.3; stroke-linecap: round"/>
   </g>
   <g id="text_3">
    <!-- "bank" -->
    <g style="fill: #e57373" transform="translate(317.905342 238.94301) scale(0.09 -0.09)">
     <defs>
      <path id="MicrosoftYaHei-Bold-22" d="M 1434 4841 
L 1334 3347 
L 681 3347 
L 584 4841 
L 1434 4841 
z
M 2747 4841 
L 2641 3344 
L 1997 3344 
L 1894 4841 
L 2747 4841 
z
" transform="scale(0.015625)"/>
      <path id="MicrosoftYaHei-Bold-62" d="M 1469 416 
L 1469 0 
L 459 0 
L 459 5116 
L 1469 5116 
L 1469 2928 
L 1481 2928 
Q 1878 3541 2613 3541 
Q 3266 3541 3636 3084 
Q 4006 2628 4006 1825 
Q 4006 966 3581 441 
Q 3156 -84 2453 -84 
Q 1809 -84 1481 416 
L 1469 416 
z
M 1453 1494 
Q 1453 1153 1656 922 
Q 1859 691 2172 691 
Q 2550 691 2761 984 
Q 2972 1278 2972 1816 
Q 2972 2263 2780 2514 
Q 2588 2766 2231 2766 
Q 1894 2766 1673 2512 
Q 1453 2259 1453 1863 
L 1453 1494 
z
" transform="scale(0.015625)"/>
      <path id="MicrosoftYaHei-Bold-61" d="M 544 3247 
Q 778 3378 1170 3459 
Q 1563 3541 1841 3541 
Q 3291 3541 3291 2088 
L 3291 0 
L 2331 0 
L 2331 503 
L 2319 503 
Q 1966 -84 1284 -84 
Q 794 -84 498 195 
Q 203 475 203 956 
Q 203 1950 1388 2113 
L 2338 2241 
Q 2338 2844 1709 2844 
Q 1091 2844 544 2469 
L 544 3247 
z
M 1684 1566 
Q 1138 1494 1138 1072 
Q 1138 878 1270 759 
Q 1403 641 1628 641 
Q 1938 641 2138 859 
Q 2338 1078 2338 1403 
L 2338 1650 
L 1684 1566 
z
" transform="scale(0.015625)"/>
      <path id="MicrosoftYaHei-Bold-6e" d="M 3744 0 
L 2741 0 
L 2741 1928 
Q 2741 2766 2138 2766 
Q 1850 2766 1659 2542 
Q 1469 2319 1469 1972 
L 1469 0 
L 459 0 
L 459 3456 
L 1469 3456 
L 1469 2906 
L 1481 2906 
Q 1859 3541 2594 3541 
Q 3744 3541 3744 2116 
L 3744 0 
z
" transform="scale(0.015625)"/>
      <path id="MicrosoftYaHei-Bold-6b" d="M 3856 0 
L 2631 0 
L 1481 1709 
L 1469 1709 
L 1469 0 
L 459 0 
L 459 5116 
L 1469 5116 
L 1469 1859 
L 1481 1859 
L 2559 3456 
L 3763 3456 
L 2481 1825 
L 3856 0 
z
" transform="scale(0.015625)"/>
     </defs>
     <use xlink:href="#MicrosoftYaHei-Bold-22"/>
     <use xlink:href="#MicrosoftYaHei-Bold-62" transform="translate(52.099609 0)"/>
     <use xlink:href="#MicrosoftYaHei-Bold-61" transform="translate(117.576172 0)"/>
     <use xlink:href="#MicrosoftYaHei-Bold-6e" transform="translate(175.339844 0)"/>
     <use xlink:href="#MicrosoftYaHei-Bold-6b" transform="translate(240.134766 0)"/>
     <use xlink:href="#MicrosoftYaHei-Bold-22" transform="translate(299.753906 0)"/>
    </g>
    <!-- [0.23, −0.15, 0.87, ...] -->
    <g style="fill: #e57373" transform="translate(286.240811 249.813604) scale(0.09 -0.09)">
     <defs>
      <path id="MicrosoftYaHei-Bold-5b" d="M 2269 -1100 
L 722 -1100 
L 722 4841 
L 2269 4841 
L 2269 4194 
L 1556 4194 
L 1556 -453 
L 2269 -453 
L 2269 -1100 
z
" transform="scale(0.015625)"/>
      <path id="MicrosoftYaHei-Bold-30" d="M 244 2341 
Q 244 3597 706 4259 
Q 1169 4922 2044 4922 
Q 3713 4922 3713 2453 
Q 3713 1238 3259 577 
Q 2806 -84 1950 -84 
Q 244 -84 244 2341 
z
M 1266 2366 
Q 1266 691 1981 691 
Q 2684 691 2684 2416 
Q 2684 4147 2000 4147 
Q 1266 4147 1266 2366 
z
" transform="scale(0.015625)"/>
      <path id="MicrosoftYaHei-Bold-2e" d="M 313 453 
Q 313 688 491 838 
Q 669 988 916 988 
Q 1166 988 1337 834 
Q 1509 681 1509 453 
Q 1509 213 1337 64 
Q 1166 -84 903 -84 
Q 659 -84 486 69 
Q 313 222 313 453 
z
" transform="scale(0.015625)"/>
      <path id="MicrosoftYaHei-Bold-32" d="M 1500 841 
L 3553 841 
L 3553 0 
L 334 0 
L 334 359 
Q 334 738 473 1050 
Q 613 1363 856 1633 
Q 1100 1903 1613 2266 
Q 2081 2616 2268 2886 
Q 2456 3156 2456 3459 
Q 2456 4113 1744 4113 
Q 1119 4113 550 3613 
L 550 4513 
Q 1184 4922 1975 4922 
Q 2700 4922 3122 4551 
Q 3544 4181 3544 3531 
Q 3544 3169 3422 2876 
Q 3300 2584 3069 2328 
Q 2838 2072 2328 1713 
Q 1838 1363 1669 1172 
Q 1500 981 1500 841 
z
" transform="scale(0.015625)"/>
      <path id="MicrosoftYaHei-Bold-33" d="M 494 1053 
Q 978 691 1625 691 
Q 2034 691 2275 872 
Q 2516 1053 2516 1388 
Q 2516 1731 2230 1912 
Q 1944 2094 1428 2094 
L 997 2094 
L 997 2872 
L 1394 2872 
Q 2369 2872 2369 3528 
Q 2369 4147 1622 4147 
Q 1134 4147 675 3828 
L 675 4663 
Q 1175 4922 1853 4922 
Q 2541 4922 2969 4605 
Q 3397 4288 3397 3725 
Q 3397 2775 2434 2531 
L 2434 2516 
Q 2941 2459 3244 2145 
Q 3547 1831 3547 1381 
Q 3547 691 3042 303 
Q 2538 -84 1697 -84 
Q 950 -84 494 163 
L 494 1053 
z
" transform="scale(0.015625)"/>
      <path id="MicrosoftYaHei-Bold-2c" d="M 1419 841 
L 916 -859 
L 134 -859 
L 484 841 
L 1419 841 
z
" transform="scale(0.015625)"/>
      <path id="MicrosoftYaHei-Bold-20" transform="scale(0.015625)"/>
      <path id="MicrosoftYaHei-Bold-2212" d="M 4072 1653 
L 797 1653 
L 797 2313 
L 4072 2313 
L 4072 1653 
z
" transform="scale(0.015625)"/>
      <path id="MicrosoftYaHei-Bold-31" d="M 2716 4947 
L 2716 0 
L 1700 0 
L 1700 3809 
Q 1513 3647 1188 3517 
Q 863 3388 591 3356 
L 591 4222 
Q 1447 4472 2072 4947 
L 2716 4947 
z
" transform="scale(0.015625)"/>
      <path id="MicrosoftYaHei-Bold-35" d="M 541 125 
L 541 997 
Q 1044 691 1613 691 
Q 2041 691 2283 902 
Q 2525 1113 2525 1472 
Q 2525 2225 1494 2225 
Q 1113 2225 616 2169 
L 797 4841 
L 3359 4841 
L 3359 4009 
L 1613 4009 
L 1544 2991 
Q 1803 3013 2022 3013 
Q 2731 3013 3142 2625 
Q 3553 2238 3553 1575 
Q 3553 844 3056 380 
Q 2559 -84 1706 -84 
Q 1016 -84 541 125 
z
" transform="scale(0.015625)"/>
      <path id="MicrosoftYaHei-Bold-38" d="M 269 1303 
Q 269 1725 512 2053 
Q 756 2381 1219 2534 
Q 850 2719 648 3003 
Q 447 3288 447 3634 
Q 447 3997 645 4292 
Q 844 4588 1200 4755 
Q 1556 4922 1997 4922 
Q 2441 4922 2800 4758 
Q 3159 4594 3359 4298 
Q 3559 4003 3559 3647 
Q 3559 3309 3339 3018 
Q 3119 2728 2747 2559 
Q 3200 2403 3453 2076 
Q 3706 1750 3706 1313 
Q 3706 697 3228 309 
Q 2750 -78 1988 -78 
Q 1225 -78 747 309 
Q 269 697 269 1303 
z
M 1278 1394 
Q 1278 1056 1472 853 
Q 1666 650 1991 650 
Q 2303 650 2503 853 
Q 2703 1056 2703 1394 
Q 2703 1709 2500 1920 
Q 2297 2131 1991 2131 
Q 1675 2131 1476 1920 
Q 1278 1709 1278 1394 
z
M 1428 3531 
Q 1428 3266 1592 3077 
Q 1756 2888 2006 2888 
Q 2247 2888 2415 3072 
Q 2584 3256 2584 3531 
Q 2584 3806 2420 3997 
Q 2256 4188 2006 4188 
Q 1750 4188 1589 3997 
Q 1428 3806 1428 3531 
z
" transform="scale(0.015625)"/>
      <path id="MicrosoftYaHei-Bold-37" d="M 3675 4225 
Q 3088 3172 2798 2528 
Q 2509 1884 2328 1275 
Q 2147 666 2050 0 
L 966 0 
Q 1122 947 1517 1917 
Q 1913 2888 2609 4009 
L 300 4009 
L 300 4841 
L 3675 4841 
L 3675 4225 
z
" transform="scale(0.015625)"/>
      <path id="MicrosoftYaHei-Bold-5d" d="M 1778 -1100 
L 231 -1100 
L 231 -453 
L 944 -453 
L 944 4194 
L 231 4194 
L 231 4841 
L 1778 4841 
L 1778 -1100 
z
" transform="scale(0.015625)"/>
     </defs>
     <use xlink:href="#MicrosoftYaHei-Bold-5b"/>
     <use xlink:href="#MicrosoftYaHei-Bold-30" transform="translate(38.964844 0)"/>
     <use xlink:href="#MicrosoftYaHei-Bold-2e" transform="translate(100.634766 0)"/>
     <use xlink:href="#MicrosoftYaHei-Bold-32" transform="translate(129.199219 0)"/>
     <use xlink:href="#MicrosoftYaHei-Bold-33" transform="translate(190.869141 0)"/>
     <use xlink:href="#MicrosoftYaHei-Bold-2c" transform="translate(252.539062 0)"/>
     <use xlink:href="#MicrosoftYaHei-Bold-20" transform="translate(281.103516 0)"/>
     <use xlink:href="#MicrosoftYaHei-Bold-2212" transform="translate(310.888672 0)"/>
     <use xlink:href="#MicrosoftYaHei-Bold-30" transform="translate(387.011719 0)"/>
     <use xlink:href="#MicrosoftYaHei-Bold-2e" transform="translate(448.681641 0)"/>
     <use xlink:href="#MicrosoftYaHei-Bold-31" transform="translate(477.246094 0)"/>
     <use xlink:href="#MicrosoftYaHei-Bold-35" transform="translate(538.916016 0)"/>
     <use xlink:href="#MicrosoftYaHei-Bold-2c" transform="translate(600.585938 0)"/>
     <use xlink:href="#MicrosoftYaHei-Bold-20" transform="translate(629.150391 0)"/>
     <use xlink:href="#MicrosoftYaHei-Bold-30" transform="translate(658.935547 0)"/>
     <use xlink:href="#MicrosoftYaHei-Bold-2e" transform="translate(720.605469 0)"/>
     <use xlink:href="#MicrosoftYaHei-Bold-38" transform="translate(749.169922 0)"/>
     <use xlink:href="#MicrosoftYaHei-Bold-37" transform="translate(810.839844 0)"/>
     <use xlink:href="#MicrosoftYaHei-Bold-2c" transform="translate(872.509766 0)"/>
     <use xlink:href="#MicrosoftYaHei-Bold-20" transform="translate(901.074219 0)"/>
     <use xlink:href="#MicrosoftYaHei-Bold-2e" transform="translate(930.859375 0)"/>
     <use xlink:href="#MicrosoftYaHei-Bold-2e" transform="translate(959.423828 0)"/>
     <use xlink:href="#MicrosoftYaHei-Bold-2e" transform="translate(987.988281 0)"/>
     <use xlink:href="#MicrosoftYaHei-Bold-5d" transform="translate(1016.552734 0)"/>
    </g>
   </g>
   <g id="text_4">
    <!-- 一个词 = 一个固定向量 -->
    <g style="fill: #e57373" transform="translate(289.821241 291.246453) scale(0.085 -0.085)">
     <defs>
      <path id="MicrosoftYaHei-4e00" d="M 100 2703 
L 6313 2703 
L 6313 2153 
L 100 2153 
L 100 2703 
z
" transform="scale(0.015625)"/>
      <path id="MicrosoftYaHei-4e2a" d="M 2913 3028 
L 3481 3028 
L 3481 -841 
L 2913 -841 
L 2913 3028 
z
M 3600 5178 
L 3506 5034 
Q 4519 3366 6319 2647 
Q 6125 2341 5988 2084 
Q 4150 3047 3206 4566 
Q 2281 3122 400 1997 
Q 263 2222 81 2491 
Q 2031 3572 2981 5178 
L 3600 5178 
z
" transform="scale(0.015625)"/>
      <path id="MicrosoftYaHei-8bcd" d="M 2319 2509 
L 4650 2509 
L 4650 434 
L 2769 434 
L 2769 47 
L 2319 47 
L 2319 2509 
z
M 1919 3716 
L 5131 3716 
L 5131 3253 
L 1919 3253 
L 1919 3716 
z
M 2125 4509 
L 2125 4972 
L 5956 4972 
L 5956 -34 
Q 5956 -759 5306 -766 
Q 4750 -766 4188 -759 
Q 4169 -553 4088 -259 
Q 4694 -303 5156 -303 
Q 5469 -303 5469 53 
L 5469 4509 
L 2125 4509 
z
M 2006 622 
Q 2025 297 2050 84 
Q 1256 -428 888 -747 
L 594 -328 
Q 806 -159 806 234 
L 806 2691 
L 100 2691 
L 100 3141 
L 1288 3141 
L 1288 122 
Q 1725 416 2006 622 
z
M 738 5197 
Q 1419 4497 1725 4159 
L 1288 3791 
Q 894 4309 356 4866 
L 738 5197 
z
M 4200 872 
L 4200 2072 
L 2769 2072 
L 2769 872 
L 4200 872 
z
" transform="scale(0.015625)"/>
      <path id="MicrosoftYaHei-3d" d="M 3972 2497 
L 788 2497 
L 788 2969 
L 3972 2969 
L 3972 2497 
z
M 3972 1053 
L 788 1053 
L 788 1525 
L 3972 1525 
L 3972 1053 
z
" transform="scale(0.015625)"/>
      <path id="MicrosoftYaHei-56fa" d="M 469 4997 
L 5938 4997 
L 5938 -834 
L 5469 -834 
L 5469 -509 
L 944 -509 
L 944 -841 
L 469 -841 
L 469 4997 
z
M 5469 4541 
L 944 4541 
L 944 -53 
L 5469 -53 
L 5469 4541 
z
M 1869 2459 
L 2963 2459 
L 2963 3216 
L 1313 3216 
L 1313 3641 
L 2963 3641 
L 2963 4366 
L 3425 4366 
L 3425 3641 
L 5081 3641 
L 5081 3216 
L 3425 3216 
L 3425 2459 
L 4531 2459 
L 4531 434 
L 4081 434 
L 4081 691 
L 2319 691 
L 2319 434 
L 1869 434 
L 1869 2459 
z
M 4081 2047 
L 2319 2047 
L 2319 1103 
L 4081 1103 
L 4081 2047 
z
" transform="scale(0.015625)"/>
      <path id="MicrosoftYaHei-5b9a" d="M 81 -384 
Q 1119 509 1281 2241 
L 1806 2159 
Q 1731 1581 1578 1081 
Q 2063 50 3081 -103 
L 3081 2647 
L 225 2647 
L 225 3116 
L 6163 3116 
L 6163 2647 
L 3600 2647 
L 3600 1634 
L 5775 1634 
L 5775 1172 
L 3600 1172 
L 3600 -138 
Q 4844 -169 6306 -116 
Q 6200 -359 6125 -634 
Q 4594 -653 3450 -616 
Q 2041 -616 1378 528 
Q 1022 -300 413 -872 
Q 269 -628 81 -384 
z
M 450 4566 
L 3116 4566 
Q 2931 4834 2725 5091 
L 3200 5347 
Q 3444 5066 3731 4716 
L 3450 4566 
L 5981 4566 
L 5981 3378 
L 5488 3378 
L 5488 4097 
L 944 4097 
L 944 3384 
L 450 3384 
L 450 4566 
z
" transform="scale(0.015625)"/>
      <path id="MicrosoftYaHei-5411" d="M 1038 -772 
L 550 -772 
L 550 4359 
L 2394 4359 
Q 2550 4822 2694 5328 
L 3231 5178 
Q 3069 4741 2913 4359 
L 5838 4359 
L 5838 -34 
Q 5838 -741 5131 -741 
Q 4738 -741 4181 -728 
Q 4150 -509 4094 -241 
Q 4631 -284 5006 -284 
Q 5350 -284 5350 78 
L 5350 3897 
L 1038 3897 
L 1038 -772 
z
M 1894 2997 
L 4481 2997 
L 4481 803 
L 2369 803 
L 2369 372 
L 1894 372 
L 1894 2997 
z
M 4006 2547 
L 2369 2547 
L 2369 1253 
L 4006 1253 
L 4006 2547 
z
" transform="scale(0.015625)"/>
      <path id="MicrosoftYaHei-91cf" d="M 113 -278 
L 2981 -278 
L 2981 78 
L 475 78 
L 475 403 
L 2981 403 
L 2981 759 
L 1494 759 
L 1494 597 
L 1069 597 
L 1069 2516 
L 5350 2516 
L 5350 597 
L 4925 597 
L 4925 759 
L 3419 759 
L 3419 403 
L 5931 403 
L 5931 78 
L 3419 78 
L 3419 -278 
L 6288 -278 
L 6288 -616 
L 113 -616 
L 113 -278 
z
M 1119 5072 
L 5306 5072 
L 5306 3284 
L 4881 3284 
L 4881 3453 
L 1544 3453 
L 1544 3284 
L 1119 3284 
L 1119 5072 
z
M 163 3153 
L 6263 3153 
L 6263 2816 
L 163 2816 
L 163 3153 
z
M 1544 3778 
L 4881 3778 
L 4881 4116 
L 1544 4116 
L 1544 3778 
z
M 4881 4747 
L 1544 4747 
L 1544 4416 
L 4881 4416 
L 4881 4747 
z
M 3419 1084 
L 4925 1084 
L 4925 1491 
L 3419 1491 
L 3419 1084 
z
M 1494 1084 
L 2981 1084 
L 2981 1491 
L 1494 1491 
L 1494 1084 
z
M 4925 2191 
L 3419 2191 
L 3419 1791 
L 4925 1791 
L 4925 2191 
z
M 1494 1791 
L 2981 1791 
L 2981 2191 
L 1494 2191 
L 1494 1791 
z
" transform="scale(0.015625)"/>
     </defs>
     <use xlink:href="#MicrosoftYaHei-4e00"/>
     <use xlink:href="#MicrosoftYaHei-4e2a" transform="translate(100 0)"/>
     <use xlink:href="#MicrosoftYaHei-8bcd" transform="translate(200 0)"/>
     <use xlink:href="#MicrosoftYaHei-20" transform="translate(300 0)"/>
     <use xlink:href="#MicrosoftYaHei-3d" transform="translate(329.589844 0)"/>
     <use xlink:href="#MicrosoftYaHei-20" transform="translate(403.759766 0)"/>
     <use xlink:href="#MicrosoftYaHei-4e00" transform="translate(433.349609 0)"/>
     <use xlink:href="#MicrosoftYaHei-4e2a" transform="translate(533.349609 0)"/>
     <use xlink:href="#MicrosoftYaHei-56fa" transform="translate(633.349609 0)"/>
     <use xlink:href="#MicrosoftYaHei-5b9a" transform="translate(733.349609 0)"/>
     <use xlink:href="#MicrosoftYaHei-5411" transform="translate(833.349609 0)"/>
     <use xlink:href="#MicrosoftYaHei-91cf" transform="translate(933.349609 0)"/>
    </g>
    <!-- 无法区分不同含义! -->
    <g style="fill: #e57373" transform="translate(298.410889 301.513125) scale(0.085 -0.085)">
     <defs>
      <path id="MicrosoftYaHei-65e0" d="M 200 2878 
L 2650 2878 
Q 2781 3528 2806 4328 
L 675 4328 
L 675 4816 
L 5750 4816 
L 5750 4328 
L 3331 4328 
Q 3288 3528 3169 2878 
L 6225 2878 
L 6225 2391 
L 3063 2391 
Q 2588 278 450 -884 
Q 313 -672 113 -441 
Q 1975 491 2538 2391 
L 200 2391 
L 200 2878 
z
M 3400 1941 
L 3906 1941 
L 3906 297 
Q 3906 -197 4363 -197 
L 5219 -197 
Q 5644 -197 5700 172 
Q 5750 528 5775 1097 
Q 6013 1009 6300 916 
Q 6238 297 6188 -16 
Q 6106 -641 5300 -641 
L 4219 -641 
Q 3400 -641 3400 222 
L 3400 1941 
z
" transform="scale(0.015625)"/>
      <path id="MicrosoftYaHei-6cd5" d="M 4888 1328 
Q 5488 509 6181 -553 
Q 5931 -697 5694 -841 
Q 5519 -550 5350 -278 
Q 3300 -447 2138 -559 
L 1906 -16 
Q 2300 159 2675 716 
Q 3088 1303 3441 1953 
L 1800 1953 
L 1800 2403 
L 3763 2403 
L 3763 3728 
L 2106 3728 
L 2106 4178 
L 3763 4178 
L 3763 5322 
L 4263 5322 
L 4263 4178 
L 5994 4178 
L 5994 3728 
L 4263 3728 
L 4263 2403 
L 6288 2403 
L 6288 1953 
L 4069 1953 
Q 3372 806 2706 -28 
Q 3897 28 5088 141 
Q 4766 644 4475 1066 
L 4888 1328 
z
M 1013 1828 
Q 1244 1728 1506 1622 
Q 1063 291 731 -784 
L 194 -603 
Q 606 497 1013 1828 
z
M 400 3622 
Q 869 3291 1500 2772 
Q 1269 2509 1138 2366 
Q 431 2997 88 3259 
L 400 3622 
z
M 644 5241 
Q 1144 4841 1719 4328 
Q 1506 4109 1350 3941 
Q 775 4509 325 4897 
L 644 5241 
z
" transform="scale(0.015625)"/>
      <path id="MicrosoftYaHei-533a" d="M 600 4872 
L 5975 4872 
L 5975 4384 
L 1131 4384 
L 1131 22 
L 6075 22 
L 6075 -453 
L 600 -453 
L 600 4872 
z
M 1613 3697 
L 1963 4028 
Q 2744 3384 3597 2616 
Q 4250 3322 4850 4153 
L 5306 3847 
Q 4650 2997 3975 2272 
Q 4753 1563 5588 753 
L 5156 316 
Q 4400 1106 3600 1878 
Q 2697 963 1763 266 
Q 1613 459 1363 672 
Q 2344 1341 3228 2231 
Q 2444 2972 1613 3697 
z
" transform="scale(0.015625)"/>
      <path id="MicrosoftYaHei-5206" d="M 900 2559 
L 5056 2559 
Q 5025 1497 4963 484 
Q 4888 -684 3856 -678 
Q 3350 -684 2788 -647 
Q 2750 -384 2700 -116 
Q 3181 -184 3775 -191 
Q 4400 -203 4463 541 
Q 4513 1216 4538 2097 
L 2616 2097 
Q 2541 1053 2181 416 
Q 1706 -422 588 -878 
Q 425 -666 231 -459 
Q 1269 -72 1725 666 
Q 2053 1225 2103 2097 
L 900 2097 
L 900 2559 
z
M 3488 5159 
L 3938 5353 
Q 4625 3678 6350 2847 
Q 6069 2553 5944 2372 
Q 4225 3366 3488 5159 
z
M 50 2766 
Q 1338 3678 2250 5253 
L 2694 5009 
Q 1744 3347 413 2341 
Q 281 2534 50 2766 
z
" transform="scale(0.015625)"/>
      <path id="MicrosoftYaHei-4e0d" d="M 225 4772 
L 6181 4772 
L 6181 4284 
L 3881 4284 
Q 3581 3766 3081 3053 
L 3444 3053 
L 3444 -866 
L 2906 -866 
L 2906 2859 
Q 1838 1541 388 609 
Q 231 834 38 1059 
Q 2006 2291 3213 4284 
L 225 4284 
L 225 4772 
z
M 4069 2859 
Q 5238 2147 6325 1409 
L 5969 916 
Q 4681 1872 3763 2434 
L 4069 2859 
z
" transform="scale(0.015625)"/>
      <path id="MicrosoftYaHei-540c" d="M 1013 -772 
L 531 -772 
L 531 4959 
L 5856 4959 
L 5856 -47 
Q 5856 -741 5125 -741 
Q 4669 -741 4088 -716 
Q 4056 -497 4000 -216 
Q 4619 -272 5025 -272 
Q 5375 -272 5375 78 
L 5375 4497 
L 1013 4497 
L 1013 -772 
z
M 1875 2566 
L 4506 2566 
L 4506 597 
L 2338 597 
L 2338 272 
L 1875 272 
L 1875 2566 
z
M 4044 2116 
L 2338 2116 
L 2338 1047 
L 4044 1047 
L 4044 2116 
z
M 1363 3734 
L 5025 3734 
L 5025 3284 
L 1363 3284 
L 1363 3734 
z
" transform="scale(0.015625)"/>
      <path id="MicrosoftYaHei-542b" d="M 975 1572 
L 5438 1572 
L 5438 -822 
L 4950 -822 
L 4950 -478 
L 1463 -478 
L 1463 -834 
L 975 -834 
L 975 1572 
z
M 1188 2622 
L 1188 3053 
L 4950 3053 
L 4950 2622 
Q 4550 2147 3981 1628 
Q 3800 1784 3594 1922 
Q 3981 2228 4350 2622 
L 1188 2622 
z
M 2631 3872 
L 2975 4134 
Q 3288 3809 3619 3422 
L 3244 3128 
Q 2975 3484 2631 3872 
z
M 3663 5291 
L 3519 5134 
Q 4525 3909 6313 3259 
Q 6100 2991 5988 2778 
Q 4094 3622 3206 4834 
Q 2050 3516 369 2672 
Q 244 2903 81 3109 
Q 1838 3934 2981 5291 
L 3663 5291 
z
M 4950 -34 
L 4950 1128 
L 1463 1128 
L 1463 -34 
L 4950 -34 
z
" transform="scale(0.015625)"/>
      <path id="MicrosoftYaHei-4e49" d="M 4869 4891 
L 5406 4791 
Q 4991 2394 3603 966 
Q 4563 209 6325 -197 
Q 6056 -516 5888 -741 
Q 4113 -163 3203 594 
Q 2275 -166 444 -816 
Q 306 -584 100 -328 
Q 1938 216 2825 950 
Q 1553 2241 956 4703 
L 1444 4891 
Q 1981 2575 3213 1316 
Q 4588 2750 4869 4891 
z
M 2500 5128 
L 2956 5347 
Q 3431 4547 3750 3859 
L 3263 3597 
Q 2881 4441 2500 5128 
z
" transform="scale(0.015625)"/>
      <path id="MicrosoftYaHei-21" d="M 1313 4841 
L 1241 1378 
L 741 1378 
L 672 4841 
L 1313 4841 
z
M 597 328 
Q 597 497 715 611 
Q 834 725 1000 725 
Q 1163 725 1281 606 
Q 1400 488 1400 328 
Q 1400 172 1284 54 
Q 1169 -63 1016 -63 
Q 828 -63 712 54 
Q 597 172 597 328 
z
" transform="scale(0.015625)"/>
     </defs>
     <use xlink:href="#MicrosoftYaHei-65e0"/>
     <use xlink:href="#MicrosoftYaHei-6cd5" transform="translate(100 0)"/>
     <use xlink:href="#MicrosoftYaHei-533a" transform="translate(200 0)"/>
     <use xlink:href="#MicrosoftYaHei-5206" transform="translate(300 0)"/>
     <use xlink:href="#MicrosoftYaHei-4e0d" transform="translate(400 0)"/>
     <use xlink:href="#MicrosoftYaHei-540c" transform="translate(500 0)"/>
     <use xlink:href="#MicrosoftYaHei-542b" transform="translate(600 0)"/>
     <use xlink:href="#MicrosoftYaHei-4e49" transform="translate(700 0)"/>
     <use xlink:href="#MicrosoftYaHei-21" transform="translate(800 0)"/>
    </g>
   </g>
   <g id="text_5">
    <!-- (a) 静态词向量 (Word2Vec / GloVe) -->
    <g style="fill: #4a4a4a" transform="translate(139.374375 15.993125) scale(0.11 -0.11)">
     <defs>
      <path id="MicrosoftYaHei-Bold-28" d="M 1606 -1100 
Q 525 97 525 1853 
Q 525 3550 1606 4841 
L 2431 4841 
Q 1406 3497 1406 1853 
Q 1406 216 2438 -1100 
L 1606 -1100 
z
" transform="scale(0.015625)"/>
      <path id="MicrosoftYaHei-Bold-29" d="M 59 -1100 
Q 1097 216 1097 1853 
Q 1097 3484 59 4841 
L 888 4841 
Q 1978 3544 1978 1853 
Q 1978 113 881 -1100 
L 59 -1100 
z
" transform="scale(0.015625)"/>
      <path id="MicrosoftYaHei-Bold-9759" d="M 3669 5347 
L 4481 5278 
Q 4363 5025 4234 4791 
L 5488 4791 
L 5488 4191 
L 5166 3709 
L 5994 3709 
L 5994 2566 
L 6275 2566 
L 6275 1891 
L 5994 1891 
L 5994 378 
L 5275 378 
L 5275 747 
L 4750 747 
L 4750 -103 
Q 4750 -400 4609 -573 
Q 4469 -747 4228 -790 
Q 3988 -834 3288 -834 
Q 3219 -397 3125 -91 
Q 3456 -116 3763 -116 
Q 4000 -116 4000 122 
L 4000 747 
L 3088 747 
L 3088 1384 
L 4000 1384 
L 4000 1891 
L 2900 1891 
L 2900 2566 
L 4000 2566 
L 4000 3072 
L 3088 3072 
L 3088 3678 
Q 2941 3794 2769 3916 
L 2769 3459 
L 1944 3459 
L 1944 3191 
L 2975 3191 
L 2975 2653 
L 119 2653 
L 119 3191 
L 1150 3191 
L 1150 3459 
L 325 3459 
L 325 3997 
L 1150 3997 
L 1150 4266 
L 231 4266 
L 231 4803 
L 1150 4803 
L 1150 5322 
L 1944 5322 
L 1944 4803 
L 2869 4803 
L 2869 4266 
L 1944 4266 
L 1944 3997 
L 2769 3997 
L 2769 3947 
Q 3294 4519 3669 5347 
z
M 3506 3709 
L 4328 3709 
L 4606 4166 
L 3850 4166 
Q 3684 3922 3506 3709 
z
M 5275 3072 
L 4750 3072 
L 4750 2566 
L 5275 2566 
L 5275 3072 
z
M 4750 1384 
L 5275 1384 
L 5275 1891 
L 4750 1891 
L 4750 1384 
z
M 1075 -816 
L 338 -816 
L 338 2403 
L 2756 2403 
L 2756 -103 
Q 2756 -406 2643 -579 
Q 2531 -753 2343 -787 
Q 2156 -822 1481 -822 
Q 1419 -534 1325 -184 
Q 1563 -197 1863 -197 
Q 2019 -197 2019 -16 
L 2019 191 
L 1075 191 
L 1075 -816 
z
M 2019 1828 
L 1075 1828 
L 1075 1528 
L 2019 1528 
L 2019 1828 
z
M 1075 709 
L 2019 709 
L 2019 1009 
L 1075 1009 
L 1075 709 
z
" transform="scale(0.015625)"/>
      <path id="MicrosoftYaHei-Bold-6001" d="M 300 4628 
L 2656 4628 
Q 2719 4953 2700 5334 
L 3625 5334 
Q 3613 4947 3584 4628 
L 6100 4628 
L 6100 3878 
L 3981 3878 
Q 4788 3000 6313 2703 
Q 6063 2228 5869 1784 
Q 4159 2303 3206 3700 
Q 2500 2331 588 1703 
Q 356 2197 88 2616 
Q 1869 3028 2369 3878 
L 300 3878 
L 300 4628 
z
M 2919 3022 
Q 3356 2753 3950 2347 
L 3388 1784 
Q 2863 2222 2406 2528 
L 2919 3022 
z
M 2975 1941 
Q 3619 1559 4163 1166 
L 3644 566 
Q 3119 997 2506 1372 
L 2975 1941 
z
M 5494 1709 
Q 5969 997 6331 278 
L 5588 -128 
Q 5244 603 4775 1353 
L 5494 1709 
z
M 4350 872 
Q 4813 647 5213 497 
Q 5022 -278 4744 -509 
Q 4466 -741 3913 -741 
L 2500 -741 
Q 1563 -741 1563 184 
L 1563 1491 
L 2388 1491 
L 2388 391 
Q 2388 9 2775 9 
L 3713 9 
Q 4019 9 4147 143 
Q 4275 278 4350 872 
z
M 663 1466 
L 1438 1203 
Q 1119 253 863 -353 
L 81 -53 
Q 413 659 663 1466 
z
" transform="scale(0.015625)"/>
      <path id="MicrosoftYaHei-Bold-8bcd" d="M 1056 5322 
Q 1488 4759 1863 4172 
L 1056 3697 
Q 700 4328 300 4884 
L 1056 5322 
z
M 6031 422 
Q 6031 -78 5873 -361 
Q 5716 -644 5420 -712 
Q 5125 -781 3969 -803 
Q 3894 -353 3788 134 
Q 4225 97 4563 97 
Q 4922 97 5048 245 
Q 5175 394 5175 647 
L 5175 4272 
L 2125 4272 
L 2125 5072 
L 6031 5072 
L 6031 422 
z
M 4844 3072 
L 1956 3072 
L 1956 3853 
L 4844 3853 
L 4844 3072 
z
M 1913 1134 
Q 1938 572 1994 166 
Q 1400 -328 938 -766 
L 463 -141 
Q 619 47 619 353 
L 619 2422 
L 113 2422 
L 113 3234 
L 1463 3234 
L 1463 766 
L 1913 1134 
z
M 4638 2659 
L 4638 472 
L 2925 472 
L 2925 78 
L 2119 78 
L 2119 2659 
L 4638 2659 
z
M 2925 1934 
L 2925 1197 
L 3831 1197 
L 3831 1934 
L 2925 1934 
z
" transform="scale(0.015625)"/>
      <path id="MicrosoftYaHei-Bold-5411" d="M 400 4466 
L 2253 4466 
Q 2388 4928 2475 5347 
L 3438 5203 
L 3197 4466 
L 6006 4466 
L 6006 409 
Q 6006 -166 5743 -464 
Q 5481 -763 4928 -780 
Q 4375 -797 3625 -797 
Q 3538 -366 3394 116 
Q 3856 84 4209 84 
Q 4622 84 4781 131 
Q 4941 178 5033 315 
Q 5125 453 5125 672 
L 5125 3603 
L 1288 3603 
L 1288 -766 
L 400 -766 
L 400 4466 
z
M 4613 3091 
L 4613 666 
L 2650 666 
L 2650 291 
L 1800 291 
L 1800 3091 
L 4613 3091 
z
M 2650 2291 
L 2650 1466 
L 3763 1466 
L 3763 2291 
L 2650 2291 
z
" transform="scale(0.015625)"/>
      <path id="MicrosoftYaHei-Bold-91cf" d="M 725 5103 
L 5675 5103 
L 5675 3416 
L 725 3416 
L 725 5103 
z
M 4825 4666 
L 1575 4666 
L 1575 4447 
L 4825 4447 
L 4825 4666 
z
M 4825 3853 
L 4825 4072 
L 1575 4072 
L 1575 3853 
L 4825 3853 
z
M 138 3209 
L 6288 3209 
L 6288 2747 
L 138 2747 
L 138 3209 
z
M 113 -184 
L 2781 -184 
L 2781 53 
L 506 53 
L 506 491 
L 2781 491 
L 2781 716 
L 713 716 
L 713 2534 
L 5681 2534 
L 5681 716 
L 3606 716 
L 3606 491 
L 5925 491 
L 5925 53 
L 3606 53 
L 3606 -184 
L 6300 -184 
L 6300 -647 
L 113 -647 
L 113 -184 
z
M 4881 2097 
L 3606 2097 
L 3606 1816 
L 4881 1816 
L 4881 2097 
z
M 1513 1816 
L 2781 1816 
L 2781 2097 
L 1513 2097 
L 1513 1816 
z
M 4881 1153 
L 4881 1434 
L 3606 1434 
L 3606 1153 
L 4881 1153 
z
M 1513 1153 
L 2781 1153 
L 2781 1434 
L 1513 1434 
L 1513 1153 
z
" transform="scale(0.015625)"/>
      <path id="MicrosoftYaHei-Bold-57" d="M 6825 4841 
L 5534 0 
L 4388 0 
L 3563 3156 
Q 3497 3413 3484 3691 
L 3472 3691 
Q 3441 3366 3384 3156 
L 2541 0 
L 1350 0 
L 59 4841 
L 1191 4841 
L 1909 1559 
Q 1956 1344 1975 1016 
L 1997 1016 
Q 2013 1272 2094 1575 
L 2994 4841 
L 4091 4841 
L 4909 1534 
Q 4959 1338 4988 1022 
L 5003 1022 
Q 5016 1294 5075 1553 
L 5778 4841 
L 6825 4841 
z
" transform="scale(0.015625)"/>
      <path id="MicrosoftYaHei-Bold-6f" d="M 253 1713 
Q 253 2566 764 3053 
Q 1275 3541 2138 3541 
Q 2972 3541 3462 3061 
Q 3953 2581 3953 1772 
Q 3953 922 3450 419 
Q 2947 -84 2088 -84 
Q 1244 -84 748 398 
Q 253 881 253 1713 
z
M 1275 1725 
Q 1275 691 2119 691 
Q 2928 691 2928 1753 
Q 2928 2766 2113 2766 
Q 1716 2766 1495 2494 
Q 1275 2222 1275 1725 
z
" transform="scale(0.015625)"/>
      <path id="MicrosoftYaHei-Bold-72" d="M 2663 2541 
Q 2478 2647 2216 2647 
Q 1872 2647 1670 2384 
Q 1469 2122 1469 1663 
L 1469 0 
L 459 0 
L 459 3456 
L 1469 3456 
L 1469 2806 
L 1481 2806 
Q 1731 3516 2391 3516 
Q 2569 3516 2663 3475 
L 2663 2541 
z
" transform="scale(0.015625)"/>
      <path id="MicrosoftYaHei-Bold-64" d="M 3794 0 
L 2788 0 
L 2788 488 
L 2772 488 
Q 2406 -84 1691 -84 
Q 1031 -84 642 381 
Q 253 847 253 1650 
Q 253 2500 689 3020 
Q 1125 3541 1828 3541 
Q 2503 3541 2772 3053 
L 2788 3053 
L 2788 5116 
L 3794 5116 
L 3794 0 
z
M 2803 1956 
Q 2803 2306 2592 2536 
Q 2381 2766 2066 2766 
Q 1697 2766 1486 2473 
Q 1275 2181 1275 1681 
Q 1275 1206 1478 948 
Q 1681 691 2038 691 
Q 2372 691 2587 962 
Q 2803 1234 2803 1669 
L 2803 1956 
z
" transform="scale(0.015625)"/>
      <path id="MicrosoftYaHei-Bold-56" d="M 4541 4841 
L 2859 0 
L 1694 0 
L 34 4841 
L 1147 4841 
L 2194 1419 
Q 2272 1166 2291 941 
L 2309 941 
Q 2334 1172 2416 1431 
L 3463 4841 
L 4541 4841 
z
" transform="scale(0.015625)"/>
      <path id="MicrosoftYaHei-Bold-65" d="M 3528 1444 
L 1253 1444 
Q 1306 641 2222 641 
Q 2794 641 3231 922 
L 3231 181 
Q 2759 -84 1994 -84 
Q 1169 -84 711 381 
Q 253 847 253 1678 
Q 253 2506 740 3023 
Q 1228 3541 1966 3541 
Q 2700 3541 3114 3095 
Q 3528 2650 3528 1872 
L 3528 1444 
z
M 2588 2075 
Q 2588 2850 1959 2850 
Q 1700 2850 1500 2637 
Q 1300 2425 1250 2075 
L 2588 2075 
z
" transform="scale(0.015625)"/>
      <path id="MicrosoftYaHei-Bold-63" d="M 3050 128 
Q 2688 -84 2019 -84 
Q 1228 -84 740 397 
Q 253 878 253 1644 
Q 253 2525 778 3033 
Q 1303 3541 2178 3541 
Q 2769 3541 3053 3378 
L 3053 2513 
Q 2706 2766 2297 2766 
Q 1834 2766 1554 2484 
Q 1275 2203 1275 1713 
Q 1275 1238 1540 964 
Q 1806 691 2263 691 
Q 2666 691 3050 947 
L 3050 128 
z
" transform="scale(0.015625)"/>
      <path id="MicrosoftYaHei-Bold-2f" d="M 3100 4841 
L 747 -803 
L -156 -803 
L 2188 4841 
L 3100 4841 
z
" transform="scale(0.015625)"/>
      <path id="MicrosoftYaHei-Bold-47" d="M 4494 325 
Q 3784 -84 2750 -84 
Q 1594 -84 925 566 
Q 256 1216 256 2344 
Q 256 3488 992 4205 
Q 1728 4922 2931 4922 
Q 3706 4922 4284 4703 
L 4284 3725 
Q 3722 4053 2909 4053 
Q 2209 4053 1775 3597 
Q 1341 3141 1341 2394 
Q 1341 1634 1733 1209 
Q 2125 784 2803 784 
Q 3206 784 3463 909 
L 3463 1903 
L 2484 1903 
L 2484 2731 
L 4494 2731 
L 4494 325 
z
" transform="scale(0.015625)"/>
      <path id="MicrosoftYaHei-Bold-6c" d="M 444 0 
L 444 5116 
L 1450 5116 
L 1450 0 
L 444 0 
z
" transform="scale(0.015625)"/>
     </defs>
     <use xlink:href="#MicrosoftYaHei-Bold-28"/>
     <use xlink:href="#MicrosoftYaHei-Bold-61" transform="translate(38.964844 0)"/>
     <use xlink:href="#MicrosoftYaHei-Bold-29" transform="translate(96.728516 0)"/>
     <use xlink:href="#MicrosoftYaHei-Bold-20" transform="translate(135.693359 0)"/>
     <use xlink:href="#MicrosoftYaHei-Bold-9759" transform="translate(165.478516 0)"/>
     <use xlink:href="#MicrosoftYaHei-Bold-6001" transform="translate(265.478516 0)"/>
     <use xlink:href="#MicrosoftYaHei-Bold-8bcd" transform="translate(365.478516 0)"/>
     <use xlink:href="#MicrosoftYaHei-Bold-5411" transform="translate(465.478516 0)"/>
     <use xlink:href="#MicrosoftYaHei-Bold-91cf" transform="translate(565.478516 0)"/>
     <use xlink:href="#MicrosoftYaHei-Bold-20" transform="translate(665.478516 0)"/>
     <use xlink:href="#MicrosoftYaHei-Bold-28" transform="translate(695.263672 0)"/>
     <use xlink:href="#MicrosoftYaHei-Bold-57" transform="translate(734.228516 0)"/>
     <use xlink:href="#MicrosoftYaHei-Bold-6f" transform="translate(838.970703 0)"/>
     <use xlink:href="#MicrosoftYaHei-Bold-72" transform="translate(904.693359 0)"/>
     <use xlink:href="#MicrosoftYaHei-Bold-64" transform="translate(946.576172 0)"/>
     <use xlink:href="#MicrosoftYaHei-Bold-32" transform="translate(1013.03125 0)"/>
     <use xlink:href="#MicrosoftYaHei-Bold-56" transform="translate(1074.701172 0)"/>
     <use xlink:href="#MicrosoftYaHei-Bold-65" transform="translate(1139.185547 0)"/>
     <use xlink:href="#MicrosoftYaHei-Bold-63" transform="translate(1197.388672 0)"/>
     <use xlink:href="#MicrosoftYaHei-Bold-20" transform="translate(1249.048828 0)"/>
     <use xlink:href="#MicrosoftYaHei-Bold-2f" transform="translate(1278.833984 0)"/>
     <use xlink:href="#MicrosoftYaHei-Bold-20" transform="translate(1326.099609 0)"/>
     <use xlink:href="#MicrosoftYaHei-Bold-47" transform="translate(1355.884766 0)"/>
     <use xlink:href="#MicrosoftYaHei-Bold-6c" transform="translate(1432.398438 0)"/>
     <use xlink:href="#MicrosoftYaHei-Bold-6f" transform="translate(1461.988281 0)"/>
     <use xlink:href="#MicrosoftYaHei-Bold-56" transform="translate(1527.710938 0)"/>
     <use xlink:href="#MicrosoftYaHei-Bold-65" transform="translate(1592.195312 0)"/>
     <use xlink:href="#MicrosoftYaHei-Bold-29" transform="translate(1650.398438 0)"/>
    </g>
   </g>
  </g>
  <g id="axes_2">
   <g id="patch_8">
    <path d="M 469.26 343.593125 
L 919.44 343.593125 
L 919.44 27.993125 
L 469.26 27.993125 
z
" style="fill: #ffffff"/>
   </g>
   <g id="patch_9">
    <path d="M 719.712254 161.246458 
L 871.885775 161.246458 
Q 881.39662 161.246458 881.39662 150.726458 
L 881.39662 112.153125 
Q 881.39662 101.633125 871.885775 101.633125 
L 719.712254 101.633125 
Q 710.201408 101.633125 710.201408 112.153125 
L 710.201408 150.726458 
Q 710.201408 161.246458 719.712254 161.246458 
z
" clip-path="url(#p660b350a33)" style="fill: #6c9bc2; opacity: 0.15; stroke: #6c9bc2; stroke-width: 1.5; stroke-linejoin: miter"/>
   </g>
   <g id="patch_10">
    <path d="M 719.712254 287.486458 
L 871.885775 287.486458 
Q 881.39662 287.486458 881.39662 276.966458 
L 881.39662 238.393125 
Q 881.39662 227.873125 871.885775 227.873125 
L 719.712254 227.873125 
Q 710.201408 227.873125 710.201408 238.393125 
L 710.201408 276.966458 
Q 710.201408 287.486458 719.712254 287.486458 
z
" clip-path="url(#p660b350a33)" style="fill: #7fb685; opacity: 0.15; stroke: #7fb685; stroke-width: 1.5; stroke-linejoin: miter"/>
   </g>
   <g id="matplotlib.axis_3"/>
   <g id="matplotlib.axis_4"/>
   <g id="text_6">
    <g id="patch_11">
     <path d="M 494.622254 104.343021 
L 662.215613 104.343021 
Q 666.015613 104.343021 666.015613 100.543021 
L 666.015613 90.532396 
Q 666.015613 86.732396 662.215613 86.732396 
L 494.622254 86.732396 
Q 490.822254 86.732396 490.822254 90.532396 
L 490.822254 100.543021 
Q 490.822254 104.343021 494.622254 104.343021 
z
" style="fill: #f0f2f5"/>
    </g>
    <!-- I went to the bank to deposit money. -->
    <g style="fill: #4a4a4a" transform="translate(494.622254 98.126458) scale(0.095 -0.095)">
     <use xlink:href="#MicrosoftYaHei-49"/>
     <use xlink:href="#MicrosoftYaHei-20" transform="translate(29.394531 0)"/>
     <use xlink:href="#MicrosoftYaHei-77" transform="translate(58.984375 0)"/>
     <use xlink:href="#MicrosoftYaHei-65" transform="translate(137.439453 0)"/>
     <use xlink:href="#MicrosoftYaHei-6e" transform="translate(194.177734 0)"/>
     <use xlink:href="#MicrosoftYaHei-74" transform="translate(255.798828 0)"/>
     <use xlink:href="#MicrosoftYaHei-20" transform="translate(293.054688 0)"/>
     <use xlink:href="#MicrosoftYaHei-74" transform="translate(322.644531 0)"/>
     <use xlink:href="#MicrosoftYaHei-6f" transform="translate(359.025391 0)"/>
     <use xlink:href="#MicrosoftYaHei-20" transform="translate(422.599609 0)"/>
     <use xlink:href="#MicrosoftYaHei-74" transform="translate(452.189453 0)"/>
     <use xlink:href="#MicrosoftYaHei-68" transform="translate(489.445312 0)"/>
     <use xlink:href="#MicrosoftYaHei-65" transform="translate(551.017578 0)"/>
     <use xlink:href="#MicrosoftYaHei-20" transform="translate(607.755859 0)"/>
     <use xlink:href="#MicrosoftYaHei-62" transform="translate(637.345703 0)"/>
     <use xlink:href="#MicrosoftYaHei-61" transform="translate(699.837891 0)"/>
     <use xlink:href="#MicrosoftYaHei-6e" transform="translate(755.111328 0)"/>
     <use xlink:href="#MicrosoftYaHei-6b" transform="translate(816.732422 0)"/>
     <use xlink:href="#MicrosoftYaHei-20" transform="translate(871.175781 0)"/>
     <use xlink:href="#MicrosoftYaHei-74" transform="translate(900.765625 0)"/>
     <use xlink:href="#MicrosoftYaHei-6f" transform="translate(937.146484 0)"/>
     <use xlink:href="#MicrosoftYaHei-20" transform="translate(1000.720703 0)"/>
     <use xlink:href="#MicrosoftYaHei-64" transform="translate(1030.310547 0)"/>
     <use xlink:href="#MicrosoftYaHei-65" transform="translate(1094.275391 0)"/>
     <use xlink:href="#MicrosoftYaHei-70" transform="translate(1151.013672 0)"/>
     <use xlink:href="#MicrosoftYaHei-6f" transform="translate(1214.880859 0)"/>
     <use xlink:href="#MicrosoftYaHei-73" transform="translate(1278.455078 0)"/>
     <use xlink:href="#MicrosoftYaHei-69" transform="translate(1324.744141 0)"/>
     <use xlink:href="#MicrosoftYaHei-74" transform="translate(1351.355469 0)"/>
     <use xlink:href="#MicrosoftYaHei-20" transform="translate(1388.611328 0)"/>
     <use xlink:href="#MicrosoftYaHei-6d" transform="translate(1418.201172 0)"/>
     <use xlink:href="#MicrosoftYaHei-6f" transform="translate(1511.902344 0)"/>
     <use xlink:href="#MicrosoftYaHei-6e" transform="translate(1575.476562 0)"/>
     <use xlink:href="#MicrosoftYaHei-65" transform="translate(1637.097656 0)"/>
     <use xlink:href="#MicrosoftYaHei-79" transform="translate(1693.835938 0)"/>
     <use xlink:href="#MicrosoftYaHei-2e" transform="translate(1740.015625 0)"/>
    </g>
   </g>
   <g id="patch_12">
    <path d="M 617.092041 119.282837 
Q 705.446136 124.426467 792.349244 129.485626 
" style="fill: none; stroke: #6c9bc2; stroke-width: 1.3; stroke-linecap: round"/>
    <path d="M 788.08454 127.033627 
L 792.349244 129.485626 
L 787.828822 131.42619 
" style="fill: none; stroke: #6c9bc2; stroke-width: 1.3; stroke-linecap: round"/>
   </g>
   <g id="text_7">
    <!-- "bank" → 金融机构 -->
    <g style="fill: #6c9bc2" transform="translate(754.78503 134.268974) scale(0.09 -0.09)">
     <defs>
      <path id="MicrosoftYaHei-Bold-2192" d="M 4859 3766 
Q 5241 3344 5514 3125 
Q 5788 2906 6150 2713 
L 6150 2572 
Q 5788 2381 5517 2164 
Q 5247 1947 4859 1519 
L 4622 1519 
Q 4766 1822 4866 1983 
Q 4966 2144 5141 2369 
L 247 2369 
L 247 2916 
L 5141 2916 
Q 4972 3131 4869 3298 
Q 4766 3466 4622 3766 
L 4859 3766 
z
" transform="scale(0.015625)"/>
      <path id="MicrosoftYaHei-Bold-91d1" d="M 263 103 
L 1600 103 
Q 1356 428 981 878 
L 1706 1316 
Q 2031 941 2381 484 
L 1775 103 
L 2731 103 
L 2731 1328 
L 763 1328 
L 763 2091 
L 2731 2091 
L 2731 2616 
L 1538 2616 
L 1538 3122 
Q 1081 2828 569 2547 
Q 344 2916 50 3359 
Q 1938 4172 2813 5297 
L 4081 5297 
L 3800 5016 
Q 4769 4003 6350 3491 
Q 6056 3009 5844 2647 
Q 5331 2884 4888 3147 
L 4888 2616 
L 3663 2616 
L 3663 2091 
L 5638 2091 
L 5638 1328 
L 4700 1328 
L 5463 928 
Q 5119 484 4800 103 
L 6150 103 
L 6150 -659 
L 263 -659 
L 263 103 
z
M 3213 4478 
Q 2650 3903 1906 3378 
L 4519 3378 
Q 3763 3878 3213 4478 
z
M 4669 1328 
L 3663 1328 
L 3663 103 
L 4631 103 
L 4031 434 
Q 4375 884 4669 1328 
z
" transform="scale(0.015625)"/>
      <path id="MicrosoftYaHei-Bold-878d" d="M 1119 941 
L 1381 941 
Q 1238 1272 1100 1572 
L 1619 1572 
Q 1725 1284 1819 941 
L 1838 941 
Q 1906 1216 2006 1572 
L 2569 1572 
Q 2413 1272 2250 941 
L 2525 941 
L 2525 328 
L 2138 328 
L 2138 -66 
Q 2219 -72 2463 -66 
Q 2656 -53 2669 147 
L 2669 1747 
L 1000 1747 
L 1000 -784 
L 338 -784 
L 338 2391 
L 3288 2391 
L 3288 22 
Q 3288 -628 2894 -703 
Q 2619 -741 2288 -741 
Q 2219 -434 2138 -84 
L 2138 -709 
L 1519 -709 
L 1519 328 
L 1119 328 
L 1119 941 
z
M 563 4153 
L 3069 4153 
L 3069 2641 
L 563 2641 
L 563 4153 
z
M 225 5091 
L 3363 5091 
L 3363 4403 
L 225 4403 
L 225 5091 
z
M 2363 3553 
L 1269 3553 
L 1269 3241 
L 2363 3241 
L 2363 3553 
z
M 3544 4228 
L 4438 4228 
L 4438 5278 
L 5188 5278 
L 5188 4228 
L 6088 4228 
L 6088 1378 
L 5188 1378 
L 5188 291 
Q 5344 309 5500 322 
Q 5431 609 5356 934 
L 5944 1091 
Q 6206 9 6344 -678 
L 5775 -841 
Q 5731 -634 5669 -391 
Q 4706 -497 3494 -666 
L 3388 153 
Q 3925 184 4438 222 
L 4438 1378 
L 4125 1378 
L 4125 1016 
L 3544 1016 
L 3544 4228 
z
M 4125 2078 
L 4438 2078 
L 4438 3528 
L 4125 3528 
L 4125 2078 
z
M 5500 2078 
L 5500 3528 
L 5188 3528 
L 5188 2078 
L 5500 2078 
z
" transform="scale(0.015625)"/>
      <path id="MicrosoftYaHei-Bold-673a" d="M 81 1597 
Q 594 2397 841 3372 
L 138 3372 
L 138 4203 
L 856 4203 
L 856 5322 
L 1675 5322 
L 1675 4203 
L 2400 4203 
L 2400 3372 
L 1675 3372 
L 1675 2788 
Q 2072 2559 2538 2272 
L 2131 1566 
L 1675 1888 
L 1675 -809 
L 856 -809 
L 856 1388 
Q 647 919 369 491 
Q 269 903 81 1597 
z
M 5694 1634 
Q 5988 1503 6306 1391 
Q 6241 91 6181 -189 
Q 6122 -469 5961 -580 
Q 5800 -691 5525 -691 
L 5038 -691 
Q 4438 -691 4438 59 
L 4438 4159 
L 3550 4159 
L 3550 2409 
Q 3550 1031 3328 412 
Q 3106 -206 2531 -828 
Q 2238 -478 1875 -84 
Q 2391 466 2548 1023 
Q 2706 1581 2706 2941 
L 2706 5041 
L 5331 5041 
L 5331 316 
Q 5331 103 5469 103 
Q 5544 103 5580 151 
Q 5616 200 5648 562 
Q 5681 925 5694 1634 
z
" transform="scale(0.015625)"/>
      <path id="MicrosoftYaHei-Bold-6784" d="M 75 1709 
Q 550 2447 828 3353 
L 138 3353 
L 138 4091 
L 900 4091 
L 900 5303 
L 1713 5303 
L 1713 4091 
L 2313 4091 
L 2313 3756 
Q 2825 4431 3100 5278 
L 3963 5209 
Q 3850 4903 3719 4616 
L 6056 4616 
Q 6056 3244 6042 2212 
Q 6028 1181 6004 565 
Q 5981 -50 5714 -367 
Q 5447 -684 5051 -725 
Q 4656 -766 3675 -747 
Q 3588 -253 3494 122 
Q 4175 66 4600 66 
Q 4863 66 5023 206 
Q 5184 347 5191 822 
L 4775 609 
L 4644 878 
Q 3147 769 2444 622 
L 2188 1334 
Q 2669 1691 3388 3453 
L 4188 3128 
L 3206 1453 
L 4316 1525 
Q 4106 1928 3875 2347 
L 4519 2684 
Q 4866 2113 5209 1481 
Q 5231 2419 5231 3841 
L 3313 3841 
Q 2991 3297 2594 2822 
Q 2319 3125 2072 3353 
L 1713 3353 
L 1713 2991 
Q 2153 2594 2575 2191 
L 2031 1678 
Q 1872 1906 1713 2116 
L 1713 -822 
L 900 -822 
L 900 1816 
Q 647 1156 288 566 
Q 219 997 75 1709 
z
" transform="scale(0.015625)"/>
     </defs>
     <use xlink:href="#MicrosoftYaHei-Bold-22"/>
     <use xlink:href="#MicrosoftYaHei-Bold-62" transform="translate(52.099609 0)"/>
     <use xlink:href="#MicrosoftYaHei-Bold-61" transform="translate(117.576172 0)"/>
     <use xlink:href="#MicrosoftYaHei-Bold-6e" transform="translate(175.339844 0)"/>
     <use xlink:href="#MicrosoftYaHei-Bold-6b" transform="translate(240.134766 0)"/>
     <use xlink:href="#MicrosoftYaHei-Bold-22" transform="translate(299.753906 0)"/>
     <use xlink:href="#MicrosoftYaHei-Bold-20" transform="translate(351.853516 0)"/>
     <use xlink:href="#MicrosoftYaHei-Bold-2192" transform="translate(381.638672 0)"/>
     <use xlink:href="#MicrosoftYaHei-Bold-20" transform="translate(481.638672 0)"/>
     <use xlink:href="#MicrosoftYaHei-Bold-91d1" transform="translate(511.423828 0)"/>
     <use xlink:href="#MicrosoftYaHei-Bold-878d" transform="translate(611.423828 0)"/>
     <use xlink:href="#MicrosoftYaHei-Bold-673a" transform="translate(711.423828 0)"/>
     <use xlink:href="#MicrosoftYaHei-Bold-6784" transform="translate(811.423828 0)"/>
    </g>
   </g>
   <g id="text_8">
    <g id="patch_13">
     <path d="M 494.622254 230.528099 
L 624.6253 230.528099 
Q 628.4253 230.528099 628.4253 226.728099 
L 628.4253 216.772396 
Q 628.4253 212.972396 624.6253 212.972396 
L 494.622254 212.972396 
Q 490.822254 212.972396 490.822254 216.772396 
L 490.822254 226.728099 
Q 490.822254 230.528099 494.622254 230.528099 
z
" style="fill: #f0f2f5"/>
    </g>
    <!-- I sat on the bank of the river. -->
    <g style="fill: #4a4a4a" transform="translate(494.622254 224.366458) scale(0.095 -0.095)">
     <use xlink:href="#MicrosoftYaHei-49"/>
     <use xlink:href="#MicrosoftYaHei-20" transform="translate(29.394531 0)"/>
     <use xlink:href="#MicrosoftYaHei-73" transform="translate(58.984375 0)"/>
     <use xlink:href="#MicrosoftYaHei-61" transform="translate(105.273438 0)"/>
     <use xlink:href="#MicrosoftYaHei-74" transform="translate(160.546875 0)"/>
     <use xlink:href="#MicrosoftYaHei-20" transform="translate(197.802734 0)"/>
     <use xlink:href="#MicrosoftYaHei-6f" transform="translate(227.392578 0)"/>
     <use xlink:href="#MicrosoftYaHei-6e" transform="translate(290.966797 0)"/>
     <use xlink:href="#MicrosoftYaHei-20" transform="translate(352.587891 0)"/>
     <use xlink:href="#MicrosoftYaHei-74" transform="translate(382.177734 0)"/>
     <use xlink:href="#MicrosoftYaHei-68" transform="translate(419.433594 0)"/>
     <use xlink:href="#MicrosoftYaHei-65" transform="translate(481.005859 0)"/>
     <use xlink:href="#MicrosoftYaHei-20" transform="translate(537.744141 0)"/>
     <use xlink:href="#MicrosoftYaHei-62" transform="translate(567.333984 0)"/>
     <use xlink:href="#MicrosoftYaHei-61" transform="translate(629.826172 0)"/>
     <use xlink:href="#MicrosoftYaHei-6e" transform="translate(685.099609 0)"/>
     <use xlink:href="#MicrosoftYaHei-6b" transform="translate(746.720703 0)"/>
     <use xlink:href="#MicrosoftYaHei-20" transform="translate(801.164062 0)"/>
     <use xlink:href="#MicrosoftYaHei-6f" transform="translate(830.753906 0)"/>
     <use xlink:href="#MicrosoftYaHei-66" transform="translate(892.328125 0)"/>
     <use xlink:href="#MicrosoftYaHei-20" transform="translate(926.996094 0)"/>
     <use xlink:href="#MicrosoftYaHei-74" transform="translate(956.585938 0)"/>
     <use xlink:href="#MicrosoftYaHei-68" transform="translate(993.841797 0)"/>
     <use xlink:href="#MicrosoftYaHei-65" transform="translate(1055.414062 0)"/>
     <use xlink:href="#MicrosoftYaHei-20" transform="translate(1112.152344 0)"/>
     <use xlink:href="#MicrosoftYaHei-72" transform="translate(1141.742188 0)"/>
     <use xlink:href="#MicrosoftYaHei-69" transform="translate(1179.925781 0)"/>
     <use xlink:href="#MicrosoftYaHei-76" transform="translate(1206.537109 0)"/>
     <use xlink:href="#MicrosoftYaHei-65" transform="translate(1258.402344 0)"/>
     <use xlink:href="#MicrosoftYaHei-72" transform="translate(1315.140625 0)"/>
     <use xlink:href="#MicrosoftYaHei-2e" transform="translate(1344.324219 0)"/>
    </g>
   </g>
   <g id="patch_14">
    <path d="M 617.092041 245.522837 
Q 705.446136 250.666467 792.349244 255.725626 
" style="fill: none; stroke: #7fb685; stroke-width: 1.3; stroke-linecap: round"/>
    <path d="M 788.08454 253.273627 
L 792.349244 255.725626 
L 787.828822 257.66619 
" style="fill: none; stroke: #7fb685; stroke-width: 1.3; stroke-linecap: round"/>
   </g>
   <g id="text_9">
    <!-- "bank" → 河岸 -->
    <g style="fill: #7fb685" transform="translate(763.78503 260.508974) scale(0.09 -0.09)">
     <defs>
      <path id="MicrosoftYaHei-Bold-6cb3" d="M 788 5272 
Q 1531 4728 1900 4416 
L 1306 3766 
Q 806 4228 281 4672 
L 788 5272 
z
M 1925 4991 
L 6288 4991 
L 6288 4184 
L 5863 4184 
L 5863 472 
Q 5863 -147 5655 -415 
Q 5447 -684 5097 -746 
Q 4747 -809 3663 -809 
Q 3575 -353 3475 84 
Q 3869 56 4184 56 
Q 4753 56 4873 206 
Q 4994 356 4994 684 
L 4994 4184 
L 1925 4184 
L 1925 4991 
z
M 4425 3641 
L 4425 741 
L 2931 741 
L 2931 372 
L 2150 372 
L 2150 3641 
L 4425 3641 
z
M 2931 2891 
L 2931 1491 
L 3644 1491 
L 3644 2891 
L 2931 2891 
z
M 600 3622 
Q 1344 3072 1831 2666 
L 1250 2016 
Q 881 2359 88 3003 
L 600 3622 
z
M 881 1872 
Q 1294 1716 1700 1597 
L 1038 -816 
Q 613 -659 194 -547 
Q 613 753 881 1872 
z
" transform="scale(0.015625)"/>
      <path id="MicrosoftYaHei-Bold-5cb8" d="M 1606 4453 
L 2950 4453 
L 2950 5328 
L 3775 5328 
L 3775 4453 
L 5125 4453 
L 5125 5141 
L 5950 5141 
L 5950 3766 
L 781 3766 
L 781 5141 
L 1606 5141 
L 1606 4453 
z
M 1775 2303 
L 5825 2303 
L 5825 1616 
L 4225 1616 
L 4225 1028 
L 6263 1028 
L 6263 316 
L 4225 316 
L 4225 -834 
L 3363 -834 
L 3363 316 
L 1319 316 
Q 1109 -375 675 -878 
Q 563 -722 63 -184 
Q 713 491 675 1997 
L 675 3403 
L 6163 3403 
L 6163 2691 
L 1519 2691 
L 1519 1984 
Q 1519 1334 1472 1028 
L 3363 1028 
L 3363 1616 
L 1775 1616 
L 1775 2303 
z
" transform="scale(0.015625)"/>
     </defs>
     <use xlink:href="#MicrosoftYaHei-Bold-22"/>
     <use xlink:href="#MicrosoftYaHei-Bold-62" transform="translate(52.099609 0)"/>
     <use xlink:href="#MicrosoftYaHei-Bold-61" transform="translate(117.576172 0)"/>
     <use xlink:href="#MicrosoftYaHei-Bold-6e" transform="translate(175.339844 0)"/>
     <use xlink:href="#MicrosoftYaHei-Bold-6b" transform="translate(240.134766 0)"/>
     <use xlink:href="#MicrosoftYaHei-Bold-22" transform="translate(299.753906 0)"/>
     <use xlink:href="#MicrosoftYaHei-Bold-20" transform="translate(351.853516 0)"/>
     <use xlink:href="#MicrosoftYaHei-Bold-2192" transform="translate(381.638672 0)"/>
     <use xlink:href="#MicrosoftYaHei-Bold-20" transform="translate(481.638672 0)"/>
     <use xlink:href="#MicrosoftYaHei-Bold-6cb3" transform="translate(511.423828 0)"/>
     <use xlink:href="#MicrosoftYaHei-Bold-5cb8" transform="translate(611.423828 0)"/>
    </g>
   </g>
   <g id="text_10">
    <!-- 同一个词 = 不同向量 -->
    <g style="fill: #7fb685" transform="translate(756.131241 301.766453) scale(0.085 -0.085)">
     <use xlink:href="#MicrosoftYaHei-540c"/>
     <use xlink:href="#MicrosoftYaHei-4e00" transform="translate(100 0)"/>
     <use xlink:href="#MicrosoftYaHei-4e2a" transform="translate(200 0)"/>
     <use xlink:href="#MicrosoftYaHei-8bcd" transform="translate(300 0)"/>
     <use xlink:href="#MicrosoftYaHei-20" transform="translate(400 0)"/>
     <use xlink:href="#MicrosoftYaHei-3d" transform="translate(429.589844 0)"/>
     <use xlink:href="#MicrosoftYaHei-20" transform="translate(503.759766 0)"/>
     <use xlink:href="#MicrosoftYaHei-4e0d" transform="translate(533.349609 0)"/>
     <use xlink:href="#MicrosoftYaHei-540c" transform="translate(633.349609 0)"/>
     <use xlink:href="#MicrosoftYaHei-5411" transform="translate(733.349609 0)"/>
     <use xlink:href="#MicrosoftYaHei-91cf" transform="translate(833.349609 0)"/>
    </g>
    <!-- 根据上下文动态生成 -->
    <g style="fill: #7fb685" transform="translate(757.549014 312.033125) scale(0.085 -0.085)">
     <defs>
      <path id="MicrosoftYaHei-6839" d="M 2706 5028 
L 5788 5028 
L 5788 1872 
L 5331 1872 
L 5331 2009 
L 4163 2009 
Q 4356 1447 4663 997 
Q 5300 1372 5856 1778 
L 6163 1384 
Q 5550 1003 4919 672 
Q 5475 41 6319 -316 
Q 6113 -516 5925 -753 
Q 4275 191 3706 2009 
L 3169 2009 
L 3169 -47 
Q 3594 128 4256 459 
Q 4263 159 4294 -34 
Q 3700 -297 3194 -597 
Q 2969 -741 2831 -866 
L 2494 -434 
Q 2706 -253 2706 128 
L 2706 5028 
z
M 88 1378 
Q 669 2328 1006 3597 
L 144 3597 
L 144 4016 
L 1044 4016 
L 1044 5266 
L 1500 5266 
L 1500 4016 
L 2375 4016 
L 2375 3597 
L 1500 3597 
L 1500 2791 
L 1688 2953 
Q 2075 2566 2519 2072 
L 2181 1759 
Q 1794 2241 1500 2559 
L 1500 -841 
L 1044 -841 
L 1044 2566 
Q 700 1484 288 828 
Q 200 1097 88 1378 
z
M 5331 4597 
L 3169 4597 
L 3169 3728 
L 5331 3728 
L 5331 4597 
z
M 5331 2441 
L 5331 3309 
L 3169 3309 
L 3169 2441 
L 5331 2441 
z
" transform="scale(0.015625)"/>
      <path id="MicrosoftYaHei-636e" d="M 2900 1334 
L 4188 1334 
L 4188 2128 
L 2731 2128 
Q 2663 206 1844 -841 
Q 1694 -647 1506 -447 
Q 2288 516 2288 2509 
L 2288 4947 
L 5975 4947 
L 5975 3134 
L 5525 3134 
L 5525 3328 
L 2738 3328 
L 2738 2553 
L 4188 2553 
L 4188 3209 
L 4638 3209 
L 4638 2553 
L 6288 2553 
L 6288 2128 
L 4638 2128 
L 4638 1334 
L 5938 1334 
L 5938 -778 
L 5488 -778 
L 5488 -416 
L 3350 -416 
L 3350 -778 
L 2900 -778 
L 2900 1334 
z
M 100 1966 
Q 544 2088 963 2213 
L 963 3641 
L 175 3641 
L 175 4091 
L 963 4091 
L 963 5284 
L 1425 5284 
L 1425 4091 
L 2106 4091 
L 2106 3641 
L 1425 3641 
L 1425 2356 
Q 1722 2450 2006 2547 
Q 2013 2266 2044 2059 
Q 1722 1956 1425 1856 
L 1425 -34 
Q 1425 -741 806 -753 
Q 613 -759 231 -747 
Q 206 -497 156 -228 
Q 500 -266 681 -266 
Q 963 -266 963 53 
L 963 1703 
Q 534 1559 163 1428 
L 100 1966 
z
M 5525 4534 
L 2738 4534 
L 2738 3741 
L 5525 3741 
L 5525 4534 
z
M 5488 922 
L 3350 922 
L 3350 -9 
L 5488 -9 
L 5488 922 
z
" transform="scale(0.015625)"/>
      <path id="MicrosoftYaHei-4e0a" d="M 163 47 
L 2613 47 
L 2613 5209 
L 3181 5209 
L 3181 3328 
L 5750 3328 
L 5750 2828 
L 3181 2828 
L 3181 47 
L 6244 47 
L 6244 -453 
L 163 -453 
L 163 47 
z
" transform="scale(0.015625)"/>
      <path id="MicrosoftYaHei-4e0b" d="M 163 4803 
L 6238 4803 
L 6238 4291 
L 3200 4291 
L 3200 2928 
L 3488 3328 
Q 4919 2484 5888 1809 
L 5519 1303 
Q 4550 2047 3200 2872 
L 3200 -797 
L 2631 -797 
L 2631 4291 
L 163 4291 
L 163 4803 
z
" transform="scale(0.015625)"/>
      <path id="MicrosoftYaHei-6587" d="M 194 4241 
L 3194 4241 
Q 2878 4841 2700 5116 
L 3181 5341 
Q 3356 5072 3706 4466 
L 3256 4241 
L 6194 4241 
L 6194 3778 
L 5041 3778 
Q 4706 1994 3603 909 
Q 4434 303 6244 -178 
Q 5956 -503 5806 -722 
Q 4044 -113 3203 553 
Q 2359 -103 506 -772 
Q 344 -553 131 -284 
Q 1919 253 2822 913 
Q 1681 2131 1372 3778 
L 194 3778 
L 194 4241 
z
M 4506 3778 
L 1872 3778 
Q 2153 2241 3216 1238 
Q 4231 2181 4506 3778 
z
" transform="scale(0.015625)"/>
      <path id="MicrosoftYaHei-52a8" d="M 2975 4022 
L 3906 4022 
Q 3916 4650 3913 5309 
L 4425 5309 
Q 4422 4656 4409 4022 
L 6094 4022 
Q 6050 1659 5969 216 
Q 5900 -666 5150 -678 
Q 4763 -678 4306 -659 
Q 4263 -397 4206 -109 
Q 4638 -166 4994 -172 
Q 5456 -172 5475 347 
Q 5569 1897 5588 3547 
L 4400 3547 
Q 4394 3278 4388 3016 
Q 4356 553 2900 -872 
Q 2725 -659 2525 -447 
Q 3831 716 3888 3028 
Q 3894 3284 3900 3547 
L 2975 3547 
L 2975 4022 
z
M 2338 1866 
Q 2731 1016 3063 178 
Q 2788 59 2594 -28 
Q 2550 91 2506 209 
Q 1316 97 338 -16 
L 119 491 
Q 394 647 563 997 
Q 869 1613 1200 2559 
L 144 2559 
L 144 3022 
L 3163 3022 
L 3163 2559 
L 1725 2559 
Q 1191 1228 800 491 
Q 1519 544 2347 631 
Q 2138 1163 1906 1672 
L 2338 1866 
z
M 406 4778 
L 2913 4778 
L 2913 4316 
L 406 4316 
L 406 4778 
z
" transform="scale(0.015625)"/>
      <path id="MicrosoftYaHei-6001" d="M 325 4434 
L 2888 4434 
Q 2972 4822 2969 5328 
L 3438 5328 
Q 3444 4841 3372 4434 
L 6075 4434 
L 6075 3991 
L 3528 3991 
Q 4419 2706 6231 2241 
Q 6050 2034 5881 1759 
Q 4041 2394 3172 3772 
Q 2975 3331 2588 2953 
Q 3078 2616 3538 2259 
L 3225 1891 
Q 2828 2244 2259 2675 
Q 1556 2138 388 1703 
Q 294 1922 113 2178 
Q 2250 2866 2750 3991 
L 325 3991 
L 325 4434 
z
M 1713 1547 
L 2200 1547 
L 2200 203 
Q 2200 -172 2575 -172 
L 3763 -172 
Q 4175 -172 4256 134 
Q 4331 428 4381 1028 
Q 4556 953 4863 847 
Q 4763 128 4706 -47 
Q 4563 -616 3869 -616 
L 2488 -616 
Q 1713 -616 1713 172 
L 1713 1547 
z
M 813 1447 
L 1281 1297 
Q 1038 522 663 -297 
Q 463 -203 194 -116 
Q 569 591 813 1447 
z
M 4894 1272 
L 5263 1553 
Q 5781 972 6306 309 
L 5888 -9 
Q 5425 641 4894 1272 
z
M 2594 1503 
L 2913 1809 
Q 3419 1403 3850 991 
L 3488 641 
Q 3094 1059 2594 1503 
z
" transform="scale(0.015625)"/>
      <path id="MicrosoftYaHei-751f" d="M 125 16 
L 3025 16 
L 3025 1609 
L 813 1609 
L 813 2091 
L 3025 2091 
L 3025 3534 
L 1375 3534 
Q 959 2784 419 2178 
Q 288 2384 81 2616 
Q 963 3603 1475 5028 
L 1988 4891 
Q 1822 4434 1622 4016 
L 3025 4016 
L 3025 5341 
L 3563 5341 
L 3563 4016 
L 5950 4016 
L 5950 3534 
L 3563 3534 
L 3563 2091 
L 5775 2091 
L 5775 1609 
L 3563 1609 
L 3563 16 
L 6288 16 
L 6288 -453 
L 125 -453 
L 125 16 
z
" transform="scale(0.015625)"/>
      <path id="MicrosoftYaHei-6210" d="M 2750 -347 
Q 3472 138 4038 781 
Q 3675 1703 3609 3759 
L 1250 3759 
L 1250 2809 
L 3050 2809 
Q 3013 1616 2950 803 
Q 2875 -59 2113 -59 
Q 1856 -59 1431 -34 
Q 1394 197 1331 484 
Q 1769 422 2063 422 
Q 2425 422 2469 922 
Q 2519 1497 2544 2347 
L 1247 2347 
Q 1197 175 369 -866 
Q 213 -653 44 -434 
Q 750 503 750 2528 
L 750 4222 
L 3591 4222 
Q 3569 4716 3550 5291 
L 4069 5291 
Q 4066 4850 4084 4222 
L 6238 4222 
L 6238 3759 
L 4100 3759 
Q 4163 2078 4409 1247 
Q 5016 2069 5406 3109 
L 5900 2903 
Q 5363 1631 4609 691 
Q 5069 -244 5506 -244 
Q 5666 -244 5750 47 
Q 5838 503 5888 984 
Q 6156 878 6363 809 
Q 6269 141 6156 -284 
Q 6038 -741 5631 -778 
Q 5250 -803 4900 -522 
Q 4522 -231 4256 278 
Q 3728 -291 3106 -722 
Q 2944 -534 2750 -347 
z
M 4544 4984 
L 4806 5309 
Q 5331 5009 5788 4684 
L 5488 4309 
Q 5038 4666 4544 4984 
z
" transform="scale(0.015625)"/>
     </defs>
     <use xlink:href="#MicrosoftYaHei-6839"/>
     <use xlink:href="#MicrosoftYaHei-636e" transform="translate(100 0)"/>
     <use xlink:href="#MicrosoftYaHei-4e0a" transform="translate(200 0)"/>
     <use xlink:href="#MicrosoftYaHei-4e0b" transform="translate(300 0)"/>
     <use xlink:href="#MicrosoftYaHei-6587" transform="translate(400 0)"/>
     <use xlink:href="#MicrosoftYaHei-52a8" transform="translate(500 0)"/>
     <use xlink:href="#MicrosoftYaHei-6001" transform="translate(600 0)"/>
     <use xlink:href="#MicrosoftYaHei-751f" transform="translate(700 0)"/>
     <use xlink:href="#MicrosoftYaHei-6210" transform="translate(800 0)"/>
    </g>
   </g>
   <g id="text_11">
    <!-- (b) 上下文词向量 (ELMo / BERT) -->
    <g style="fill: #4a4a4a" transform="translate(610.478438 15.993125) scale(0.11 -0.11)">
     <defs>
      <path id="MicrosoftYaHei-Bold-4e0a" d="M 181 359 
L 2500 359 
L 2500 5278 
L 3513 5278 
L 3513 3547 
L 5825 3547 
L 5825 2653 
L 3513 2653 
L 3513 359 
L 6231 359 
L 6231 -522 
L 181 -522 
L 181 359 
z
" transform="scale(0.015625)"/>
      <path id="MicrosoftYaHei-Bold-4e0b" d="M 4038 3372 
Q 5050 2647 6069 1866 
L 5425 1078 
Q 4363 1997 3488 2647 
L 3488 -822 
L 2475 -822 
L 2475 4066 
L 175 4066 
L 175 4947 
L 6213 4947 
L 6213 4066 
L 3488 4066 
L 3488 2822 
L 4038 3372 
z
" transform="scale(0.015625)"/>
      <path id="MicrosoftYaHei-Bold-6587" d="M 169 4353 
L 2781 4353 
Q 2684 4672 2519 5141 
L 3475 5334 
Q 3709 4713 3831 4353 
L 6213 4353 
L 6213 3509 
L 5284 3509 
Q 4813 2091 3925 1113 
Q 4888 447 6300 97 
Q 5781 -534 5613 -822 
Q 4184 -344 3188 441 
Q 2184 -316 725 -859 
Q 388 -316 100 47 
Q 1503 484 2450 1128 
Q 1550 2131 1175 3509 
L 169 3509 
L 169 4353 
z
M 4222 3509 
L 2141 3509 
Q 2463 2484 3184 1738 
Q 3913 2488 4222 3509 
z
" transform="scale(0.015625)"/>
      <path id="MicrosoftYaHei-Bold-45" d="M 3425 0 
L 559 0 
L 559 4841 
L 3313 4841 
L 3313 3997 
L 1591 3997 
L 1591 2856 
L 3191 2856 
L 3191 2016 
L 1591 2016 
L 1591 844 
L 3425 844 
L 3425 0 
z
" transform="scale(0.015625)"/>
      <path id="MicrosoftYaHei-Bold-4c" d="M 3400 0 
L 559 0 
L 559 4841 
L 1591 4841 
L 1591 844 
L 3400 844 
L 3400 0 
z
" transform="scale(0.015625)"/>
      <path id="MicrosoftYaHei-Bold-4d" d="M 4991 0 
L 4991 2938 
Q 4991 3344 5031 3959 
L 5006 3959 
Q 4913 3494 4856 3338 
L 3663 0 
L 2841 0 
L 1631 3306 
Q 1588 3425 1478 3959 
L 1450 3959 
Q 1491 3350 1491 2738 
L 1491 0 
L 559 0 
L 559 4841 
L 2059 4841 
L 3103 1916 
Q 3234 1553 3281 1234 
L 3303 1234 
Q 3400 1631 3503 1922 
L 4550 4841 
L 6009 4841 
L 6009 0 
L 4991 0 
z
" transform="scale(0.015625)"/>
      <path id="MicrosoftYaHei-Bold-42" d="M 559 0 
L 559 4841 
L 2278 4841 
Q 3069 4841 3497 4541 
Q 3925 4241 3925 3709 
Q 3925 3316 3659 3019 
Q 3394 2722 2991 2609 
L 2991 2597 
Q 3497 2534 3808 2221 
Q 4119 1909 4119 1438 
Q 4119 778 3650 389 
Q 3181 0 2369 0 
L 559 0 
z
M 1591 4072 
L 1591 2875 
L 2081 2875 
Q 2434 2875 2637 3044 
Q 2841 3213 2841 3516 
Q 2841 4072 2028 4072 
L 1591 4072 
z
M 1591 2097 
L 1591 769 
L 2203 769 
Q 2594 769 2814 950 
Q 3034 1131 3034 1453 
Q 3034 1759 2815 1928 
Q 2597 2097 2194 2097 
L 1591 2097 
z
" transform="scale(0.015625)"/>
      <path id="MicrosoftYaHei-Bold-52" d="M 4553 0 
L 3366 0 
L 2606 1259 
Q 2372 1650 2222 1762 
Q 2072 1875 1903 1875 
L 1591 1875 
L 1591 0 
L 559 0 
L 559 4841 
L 2256 4841 
Q 3984 4841 3984 3528 
Q 3984 3034 3695 2681 
Q 3406 2328 2900 2184 
L 2900 2172 
Q 3234 2059 3641 1434 
L 4553 0 
z
M 1591 4056 
L 1591 2663 
L 2097 2663 
Q 2459 2663 2679 2873 
Q 2900 3084 2900 3400 
Q 2900 4056 2116 4056 
L 1591 4056 
z
" transform="scale(0.015625)"/>
      <path id="MicrosoftYaHei-Bold-54" d="M 3900 3997 
L 2519 3997 
L 2519 0 
L 1484 0 
L 1484 3997 
L 106 3997 
L 106 4841 
L 3900 4841 
L 3900 3997 
z
" transform="scale(0.015625)"/>
     </defs>
     <use xlink:href="#MicrosoftYaHei-Bold-28"/>
     <use xlink:href="#MicrosoftYaHei-Bold-62" transform="translate(38.964844 0)"/>
     <use xlink:href="#MicrosoftYaHei-Bold-29" transform="translate(105.566406 0)"/>
     <use xlink:href="#MicrosoftYaHei-Bold-20" transform="translate(144.53125 0)"/>
     <use xlink:href="#MicrosoftYaHei-Bold-4e0a" transform="translate(174.316406 0)"/>
     <use xlink:href="#MicrosoftYaHei-Bold-4e0b" transform="translate(274.316406 0)"/>
     <use xlink:href="#MicrosoftYaHei-Bold-6587" transform="translate(374.316406 0)"/>
     <use xlink:href="#MicrosoftYaHei-Bold-8bcd" transform="translate(474.316406 0)"/>
     <use xlink:href="#MicrosoftYaHei-Bold-5411" transform="translate(574.316406 0)"/>
     <use xlink:href="#MicrosoftYaHei-Bold-91cf" transform="translate(674.316406 0)"/>
     <use xlink:href="#MicrosoftYaHei-Bold-20" transform="translate(774.316406 0)"/>
     <use xlink:href="#MicrosoftYaHei-Bold-28" transform="translate(804.101562 0)"/>
     <use xlink:href="#MicrosoftYaHei-Bold-45" transform="translate(843.066406 0)"/>
     <use xlink:href="#MicrosoftYaHei-Bold-4c" transform="translate(900.244141 0)"/>
     <use xlink:href="#MicrosoftYaHei-Bold-4d" transform="translate(954.931641 0)"/>
     <use xlink:href="#MicrosoftYaHei-Bold-6f" transform="translate(1057.763672 0)"/>
     <use xlink:href="#MicrosoftYaHei-Bold-20" transform="translate(1123.486328 0)"/>
     <use xlink:href="#MicrosoftYaHei-Bold-2f" transform="translate(1153.271484 0)"/>
     <use xlink:href="#MicrosoftYaHei-Bold-20" transform="translate(1200.537109 0)"/>
     <use xlink:href="#MicrosoftYaHei-Bold-42" transform="translate(1230.322266 0)"/>
     <use xlink:href="#MicrosoftYaHei-Bold-45" transform="translate(1298.681641 0)"/>
     <use xlink:href="#MicrosoftYaHei-Bold-52" transform="translate(1355.859375 0)"/>
     <use xlink:href="#MicrosoftYaHei-Bold-54" transform="translate(1423.433594 0)"/>
     <use xlink:href="#MicrosoftYaHei-Bold-29" transform="translate(1485.982422 0)"/>
    </g>
   </g>
  </g>
 </g>
 <defs>
  <clipPath id="pcef35d23e2">
   <rect x="7.2" y="27.993125" width="450.18" height="315.6"/>
  </clipPath>
  <clipPath id="p660b350a33">
   <rect x="469.26" y="27.993125" width="450.18" height="315.6"/>
  </clipPath>
 </defs>
</svg>
