<?xml version="1.0" encoding="utf-8" standalone="no"?>
<!DOCTYPE svg PUBLIC "-//W3C//DTD SVG 1.1//EN"
  "http://www.w3.org/Graphics/SVG/1.1/DTD/svg11.dtd">
<svg xmlns:xlink="http://www.w3.org/1999/xlink" width="726.854906pt" height="568.8pt" viewBox="0 0 726.854906 568.8" xmlns="http://www.w3.org/2000/svg" version="1.1">
 <metadata>
  <rdf:RDF xmlns:dc="http://purl.org/dc/elements/1.1/" xmlns:cc="http://creativecommons.org/ns#" xmlns:rdf="http://www.w3.org/1999/02/22-rdf-syntax-ns#">
   <cc:Work>
    <dc:type rdf:resource="http://purl.org/dc/dcmitype/StillImage"/>
    <dc:date>2026-01-25T18:30:01.092092</dc:date>
    <dc:format>image/svg+xml</dc:format>
    <dc:creator>
     <cc:Agent>
      <dc:title>Matplotlib v3.8.3, https://matplotlib.org/</dc:title>
     </cc:Agent>
    </dc:creator>
   </cc:Work>
  </rdf:RDF>
 </metadata>
 <defs>
  <style type="text/css">*{stroke-linejoin: round; stroke-linecap: butt}</style>
 </defs>
 <g id="figure_1">
  <g id="patch_1">
   <path d="M 0 568.8 
L 726.854906 568.8 
L 726.854906 0 
L 0 0 
z
" style="fill: #ffffff"/>
  </g>
  <g id="axes_1">
   <g id="patch_2">
    <path d="M 144.6912 113.6448 
L 202.3488 113.6448 
Q 207.8928 113.6448 207.8928 108.1008 
L 207.8928 72.6192 
Q 207.8928 67.0752 202.3488 67.0752 
L 144.6912 67.0752 
Q 139.1472 67.0752 139.1472 72.6192 
L 139.1472 108.1008 
Q 139.1472 113.6448 144.6912 113.6448 
z
" clip-path="url(#p7fabe4426a)" style="fill: #6c9bc2; opacity: 0.9"/>
   </g>
   <g id="patch_3">
    <path d="M 255.5712 113.6448 
L 313.2288 113.6448 
Q 318.7728 113.6448 318.7728 108.1008 
L 318.7728 72.6192 
Q 318.7728 67.0752 313.2288 67.0752 
L 255.5712 67.0752 
Q 250.0272 67.0752 250.0272 72.6192 
L 250.0272 108.1008 
Q 250.0272 113.6448 255.5712 113.6448 
z
" clip-path="url(#p7fabe4426a)" style="fill: #6c9bc2; opacity: 0.9"/>
   </g>
   <g id="patch_4">
    <path d="M 366.4512 113.6448 
L 424.1088 113.6448 
Q 429.6528 113.6448 429.6528 108.1008 
L 429.6528 72.6192 
Q 429.6528 67.0752 424.1088 67.0752 
L 366.4512 67.0752 
Q 360.9072 67.0752 360.9072 72.6192 
L 360.9072 108.1008 
Q 360.9072 113.6448 366.4512 113.6448 
z
" clip-path="url(#p7fabe4426a)" style="fill: #6c9bc2; opacity: 0.9"/>
   </g>
   <g id="patch_5">
    <path d="M 477.3312 113.6448 
L 534.9888 113.6448 
Q 540.5328 113.6448 540.5328 108.1008 
L 540.5328 72.6192 
Q 540.5328 67.0752 534.9888 67.0752 
L 477.3312 67.0752 
Q 471.7872 67.0752 471.7872 72.6192 
L 471.7872 108.1008 
Q 471.7872 113.6448 477.3312 113.6448 
z
" clip-path="url(#p7fabe4426a)" style="fill: #6c9bc2; opacity: 0.9"/>
   </g>
   <g id="patch_6">
    <path d="M 55.9872 307.6848 
L 124.7328 307.6848 
Q 130.2768 307.6848 130.2768 302.1408 
L 130.2768 266.6592 
Q 130.2768 261.1152 124.7328 261.1152 
L 55.9872 261.1152 
Q 50.4432 261.1152 50.4432 266.6592 
L 50.4432 302.1408 
Q 50.4432 307.6848 55.9872 307.6848 
z
" clip-path="url(#p7fabe4426a)" style="fill: #e8a87c; opacity: 0.9"/>
   </g>
   <g id="patch_7">
    <path d="M 173.52 223.416 
C 179.401144 223.416 185.042203 221.079397 189.2008 216.9208 
C 193.359397 212.762203 195.696 207.121144 195.696 201.24 
C 195.696 195.358856 193.359397 189.717797 189.2008 185.5592 
C 185.042203 181.400603 179.401144 179.064 173.52 179.064 
C 167.638856 179.064 161.997797 181.400603 157.8392 185.5592 
C 153.680603 189.717797 151.344 195.358856 151.344 201.24 
C 151.344 207.121144 153.680603 212.762203 157.8392 216.9208 
C 161.997797 221.079397 167.638856 223.416 173.52 223.416 
z
" clip-path="url(#p7fabe4426a)" style="fill: #7fb685; opacity: 0.9"/>
   </g>
   <g id="patch_8">
    <path d="M 284.4 223.416 
C 290.281144 223.416 295.922203 221.079397 300.0808 216.9208 
C 304.239397 212.762203 306.576 207.121144 306.576 201.24 
C 306.576 195.358856 304.239397 189.717797 300.0808 185.5592 
C 295.922203 181.400603 290.281144 179.064 284.4 179.064 
C 278.518856 179.064 272.877797 181.400603 268.7192 185.5592 
C 264.560603 189.717797 262.224 195.358856 262.224 201.24 
C 262.224 207.121144 264.560603 212.762203 268.7192 216.9208 
C 272.877797 221.079397 278.518856 223.416 284.4 223.416 
z
" clip-path="url(#p7fabe4426a)" style="fill: #7fb685; opacity: 0.9"/>
   </g>
   <g id="patch_9">
    <path d="M 395.28 223.416 
C 401.161144 223.416 406.802203 221.079397 410.9608 216.9208 
C 415.119397 212.762203 417.456 207.121144 417.456 201.24 
C 417.456 195.358856 415.119397 189.717797 410.9608 185.5592 
C 406.802203 181.400603 401.161144 179.064 395.28 179.064 
C 389.398856 179.064 383.757797 181.400603 379.5992 185.5592 
C 375.440603 189.717797 373.104 195.358856 373.104 201.24 
C 373.104 207.121144 375.440603 212.762203 379.5992 216.9208 
C 383.757797 221.079397 389.398856 223.416 395.28 223.416 
z
" clip-path="url(#p7fabe4426a)" style="fill: #7fb685; opacity: 0.9"/>
   </g>
   <g id="patch_10">
    <path d="M 506.16 223.416 
C 512.041144 223.416 517.682203 221.079397 521.8408 216.9208 
C 525.999397 212.762203 528.336 207.121144 528.336 201.24 
C 528.336 195.358856 525.999397 189.717797 521.8408 185.5592 
C 517.682203 181.400603 512.041144 179.064 506.16 179.064 
C 500.278856 179.064 494.637797 181.400603 490.4792 185.5592 
C 486.320603 189.717797 483.984 195.358856 483.984 201.24 
C 483.984 207.121144 486.320603 212.762203 490.4792 216.9208 
C 494.637797 221.079397 500.278856 223.416 506.16 223.416 
z
" clip-path="url(#p7fabe4426a)" style="fill: #7fb685; opacity: 0.9"/>
   </g>
   <g id="patch_11">
    <path d="M 288.8352 304.9128 
L 390.8448 304.9128 
Q 396.3888 304.9128 396.3888 299.3688 
L 396.3888 269.4312 
Q 396.3888 263.8872 390.8448 263.8872 
L 288.8352 263.8872 
Q 283.2912 263.8872 283.2912 269.4312 
L 283.2912 299.3688 
Q 283.2912 304.9128 288.8352 304.9128 
z
" clip-path="url(#p7fabe4426a)" style="fill: #7fb685; opacity: 0.9"/>
   </g>
   <g id="patch_12">
    <path d="M 173.52 389.736 
C 179.401144 389.736 185.042203 387.399397 189.2008 383.2408 
C 193.359397 379.082203 195.696 373.441144 195.696 367.56 
C 195.696 361.678856 193.359397 356.037797 189.2008 351.8792 
C 185.042203 347.720603 179.401144 345.384 173.52 345.384 
C 167.638856 345.384 161.997797 347.720603 157.8392 351.8792 
C 153.680603 356.037797 151.344 361.678856 151.344 367.56 
C 151.344 373.441144 153.680603 379.082203 157.8392 383.2408 
C 161.997797 387.399397 167.638856 389.736 173.52 389.736 
z
" clip-path="url(#p7fabe4426a)" style="fill: #b784a7; opacity: 0.9"/>
   </g>
   <g id="patch_13">
    <path d="M 284.4 389.736 
C 290.281144 389.736 295.922203 387.399397 300.0808 383.2408 
C 304.239397 379.082203 306.576 373.441144 306.576 367.56 
C 306.576 361.678856 304.239397 356.037797 300.0808 351.8792 
C 295.922203 347.720603 290.281144 345.384 284.4 345.384 
C 278.518856 345.384 272.877797 347.720603 268.7192 351.8792 
C 264.560603 356.037797 262.224 361.678856 262.224 367.56 
C 262.224 373.441144 264.560603 379.082203 268.7192 383.2408 
C 272.877797 387.399397 278.518856 389.736 284.4 389.736 
z
" clip-path="url(#p7fabe4426a)" style="fill: #b784a7; opacity: 0.9"/>
   </g>
   <g id="patch_14">
    <path d="M 395.28 389.736 
C 401.161144 389.736 406.802203 387.399397 410.9608 383.2408 
C 415.119397 379.082203 417.456 373.441144 417.456 367.56 
C 417.456 361.678856 415.119397 356.037797 410.9608 351.8792 
C 406.802203 347.720603 401.161144 345.384 395.28 345.384 
C 389.398856 345.384 383.757797 347.720603 379.5992 351.8792 
C 375.440603 356.037797 373.104 361.678856 373.104 367.56 
C 373.104 373.441144 375.440603 379.082203 379.5992 383.2408 
C 383.757797 387.399397 389.398856 389.736 395.28 389.736 
z
" clip-path="url(#p7fabe4426a)" style="fill: #b784a7; opacity: 0.9"/>
   </g>
   <g id="patch_15">
    <path d="M 506.16 389.736 
C 512.041144 389.736 517.682203 387.399397 521.8408 383.2408 
C 525.999397 379.082203 528.336 373.441144 528.336 367.56 
C 528.336 361.678856 525.999397 356.037797 521.8408 351.8792 
C 517.682203 347.720603 512.041144 345.384 506.16 345.384 
C 500.278856 345.384 494.637797 347.720603 490.4792 351.8792 
C 486.320603 356.037797 483.984 361.678856 483.984 367.56 
C 483.984 373.441144 486.320603 379.082203 490.4792 383.2408 
C 494.637797 387.399397 500.278856 389.736 506.16 389.736 
z
" clip-path="url(#p7fabe4426a)" style="fill: #b784a7; opacity: 0.9"/>
   </g>
   <g id="patch_16">
    <path d="M 302.6952 474.0048 
L 376.9848 474.0048 
Q 382.5288 474.0048 382.5288 468.4608 
L 382.5288 432.9792 
Q 382.5288 427.4352 376.9848 427.4352 
L 302.6952 427.4352 
Q 297.1512 427.4352 297.1512 432.9792 
L 297.1512 468.4608 
Q 297.1512 474.0048 302.6952 474.0048 
z
" clip-path="url(#p7fabe4426a)" style="fill: #b784a7; opacity: 0.9"/>
   </g>
   <g id="patch_17">
    <path d="M 602.6256 348.7104 
L 620.3664 348.7104 
Q 623.1384 348.7104 623.1384 345.9384 
L 623.1384 333.7416 
Q 623.1384 330.9696 620.3664 330.9696 
L 602.6256 330.9696 
Q 599.8536 330.9696 599.8536 333.7416 
L 599.8536 345.9384 
Q 599.8536 348.7104 602.6256 348.7104 
z
" clip-path="url(#p7fabe4426a)" style="fill: #6c9bc2"/>
   </g>
   <g id="patch_18">
    <path d="M 602.6256 381.9744 
L 620.3664 381.9744 
Q 623.1384 381.9744 623.1384 379.2024 
L 623.1384 367.0056 
Q 623.1384 364.2336 620.3664 364.2336 
L 602.6256 364.2336 
Q 599.8536 364.2336 599.8536 367.0056 
L 599.8536 379.2024 
Q 599.8536 381.9744 602.6256 381.9744 
z
" clip-path="url(#p7fabe4426a)" style="fill: #e8a87c"/>
   </g>
   <g id="patch_19">
    <path d="M 602.6256 415.2384 
L 620.3664 415.2384 
Q 623.1384 415.2384 623.1384 412.4664 
L 623.1384 400.2696 
Q 623.1384 397.4976 620.3664 397.4976 
L 602.6256 397.4976 
Q 599.8536 397.4976 599.8536 400.2696 
L 599.8536 412.4664 
Q 599.8536 415.2384 602.6256 415.2384 
z
" clip-path="url(#p7fabe4426a)" style="fill: #7fb685"/>
   </g>
   <g id="patch_20">
    <path d="M 602.6256 448.5024 
L 620.3664 448.5024 
Q 623.1384 448.5024 623.1384 445.7304 
L 623.1384 433.5336 
Q 623.1384 430.7616 620.3664 430.7616 
L 602.6256 430.7616 
Q 599.8536 430.7616 599.8536 433.5336 
L 599.8536 445.7304 
Q 599.8536 448.5024 602.6256 448.5024 
z
" clip-path="url(#p7fabe4426a)" style="fill: #b784a7"/>
   </g>
   <g id="text_1">
    <!-- $h_1$ -->
    <g style="fill: #ffffff" transform="translate(166.86 93.67125) scale(0.12 -0.12)">
     <defs>
      <path id="DejaVuSans-Oblique-68" d="M 3566 2113 
L 3156 0 
L 2578 0 
L 2988 2091 
Q 3016 2238 3031 2350 
Q 3047 2463 3047 2528 
Q 3047 2791 2881 2937 
Q 2716 3084 2419 3084 
Q 1956 3084 1617 2771 
Q 1278 2459 1178 1941 
L 800 0 
L 225 0 
L 1172 4863 
L 1747 4863 
L 1375 2950 
Q 1594 3244 1934 3414 
Q 2275 3584 2650 3584 
Q 3113 3584 3367 3334 
Q 3622 3084 3622 2631 
Q 3622 2519 3608 2391 
Q 3594 2263 3566 2113 
z
" transform="scale(0.015625)"/>
      <path id="DejaVuSans-31" d="M 794 531 
L 1825 531 
L 1825 4091 
L 703 3866 
L 703 4441 
L 1819 4666 
L 2450 4666 
L 2450 531 
L 3481 531 
L 3481 0 
L 794 0 
L 794 531 
z
" transform="scale(0.015625)"/>
     </defs>
     <use xlink:href="#DejaVuSans-Oblique-68" transform="translate(0 0.015625)"/>
     <use xlink:href="#DejaVuSans-31" transform="translate(63.378906 -16.390625) scale(0.7)"/>
    </g>
   </g>
   <g id="text_2">
    <!-- $h_2$ -->
    <g style="fill: #ffffff" transform="translate(277.74 93.67125) scale(0.12 -0.12)">
     <defs>
      <path id="DejaVuSans-32" d="M 1228 531 
L 3431 531 
L 3431 0 
L 469 0 
L 469 531 
Q 828 903 1448 1529 
Q 2069 2156 2228 2338 
Q 2531 2678 2651 2914 
Q 2772 3150 2772 3378 
Q 2772 3750 2511 3984 
Q 2250 4219 1831 4219 
Q 1534 4219 1204 4116 
Q 875 4013 500 3803 
L 500 4441 
Q 881 4594 1212 4672 
Q 1544 4750 1819 4750 
Q 2544 4750 2975 4387 
Q 3406 4025 3406 3419 
Q 3406 3131 3298 2873 
Q 3191 2616 2906 2266 
Q 2828 2175 2409 1742 
Q 1991 1309 1228 531 
z
" transform="scale(0.015625)"/>
     </defs>
     <use xlink:href="#DejaVuSans-Oblique-68" transform="translate(0 0.015625)"/>
     <use xlink:href="#DejaVuSans-32" transform="translate(63.378906 -16.390625) scale(0.7)"/>
    </g>
   </g>
   <g id="text_3">
    <!-- $h_3$ -->
    <g style="fill: #ffffff" transform="translate(388.62 93.67125) scale(0.12 -0.12)">
     <defs>
      <path id="DejaVuSans-33" d="M 2597 2516 
Q 3050 2419 3304 2112 
Q 3559 1806 3559 1356 
Q 3559 666 3084 287 
Q 2609 -91 1734 -91 
Q 1441 -91 1130 -33 
Q 819 25 488 141 
L 488 750 
Q 750 597 1062 519 
Q 1375 441 1716 441 
Q 2309 441 2620 675 
Q 2931 909 2931 1356 
Q 2931 1769 2642 2001 
Q 2353 2234 1838 2234 
L 1294 2234 
L 1294 2753 
L 1863 2753 
Q 2328 2753 2575 2939 
Q 2822 3125 2822 3475 
Q 2822 3834 2567 4026 
Q 2313 4219 1838 4219 
Q 1578 4219 1281 4162 
Q 984 4106 628 3988 
L 628 4550 
Q 988 4650 1302 4700 
Q 1616 4750 1894 4750 
Q 2613 4750 3031 4423 
Q 3450 4097 3450 3541 
Q 3450 3153 3228 2886 
Q 3006 2619 2597 2516 
z
" transform="scale(0.015625)"/>
     </defs>
     <use xlink:href="#DejaVuSans-Oblique-68" transform="translate(0 0.015625)"/>
     <use xlink:href="#DejaVuSans-33" transform="translate(63.378906 -16.390625) scale(0.7)"/>
    </g>
   </g>
   <g id="text_4">
    <!-- $h_T$ -->
    <g style="fill: #ffffff" transform="translate(499.62 93.67125) scale(0.12 -0.12)">
     <defs>
      <path id="DejaVuSans-Oblique-54" d="M 378 4666 
L 4325 4666 
L 4225 4134 
L 2559 4134 
L 1759 0 
L 1125 0 
L 1925 4134 
L 275 4134 
L 378 4666 
z
" transform="scale(0.015625)"/>
     </defs>
     <use xlink:href="#DejaVuSans-Oblique-68" transform="translate(0 0.015625)"/>
     <use xlink:href="#DejaVuSans-Oblique-54" transform="translate(63.378906 -16.390625) scale(0.7)"/>
    </g>
   </g>
   <g id="text_5">
    <!-- ... -->
    <g style="fill: #4a4a4a" transform="translate(443.0925 94.775) scale(0.16 -0.16)">
     <defs>
      <path id="DejaVuSans-2e" d="M 684 794 
L 1344 794 
L 1344 0 
L 684 0 
L 684 794 
z
" transform="scale(0.015625)"/>
     </defs>
     <use xlink:href="#DejaVuSans-2e"/>
     <use xlink:href="#DejaVuSans-2e" x="31.787109"/>
     <use xlink:href="#DejaVuSans-2e" x="63.574219"/>
    </g>
   </g>
   <g id="text_6">
    <!-- Encoder Hidden States -->
    <g style="fill: #4a4a4a" transform="translate(262.535625 38.23125) scale(0.12 -0.12)">
     <defs>
      <path id="DejaVuSans-Bold-45" d="M 588 4666 
L 3834 4666 
L 3834 3756 
L 1791 3756 
L 1791 2888 
L 3713 2888 
L 3713 1978 
L 1791 1978 
L 1791 909 
L 3903 909 
L 3903 0 
L 588 0 
L 588 4666 
z
" transform="scale(0.015625)"/>
      <path id="DejaVuSans-Bold-6e" d="M 4056 2131 
L 4056 0 
L 2931 0 
L 2931 347 
L 2931 1631 
Q 2931 2084 2911 2256 
Q 2891 2428 2841 2509 
Q 2775 2619 2662 2680 
Q 2550 2741 2406 2741 
Q 2056 2741 1856 2470 
Q 1656 2200 1656 1722 
L 1656 0 
L 538 0 
L 538 3500 
L 1656 3500 
L 1656 2988 
Q 1909 3294 2193 3439 
Q 2478 3584 2822 3584 
Q 3428 3584 3742 3212 
Q 4056 2841 4056 2131 
z
" transform="scale(0.015625)"/>
      <path id="DejaVuSans-Bold-63" d="M 3366 3391 
L 3366 2478 
Q 3138 2634 2908 2709 
Q 2678 2784 2431 2784 
Q 1963 2784 1702 2511 
Q 1441 2238 1441 1747 
Q 1441 1256 1702 982 
Q 1963 709 2431 709 
Q 2694 709 2930 787 
Q 3166 866 3366 1019 
L 3366 103 
Q 3103 6 2833 -42 
Q 2563 -91 2291 -91 
Q 1344 -91 809 395 
Q 275 881 275 1747 
Q 275 2613 809 3098 
Q 1344 3584 2291 3584 
Q 2566 3584 2833 3536 
Q 3100 3488 3366 3391 
z
" transform="scale(0.015625)"/>
      <path id="DejaVuSans-Bold-6f" d="M 2203 2784 
Q 1831 2784 1636 2517 
Q 1441 2250 1441 1747 
Q 1441 1244 1636 976 
Q 1831 709 2203 709 
Q 2569 709 2762 976 
Q 2956 1244 2956 1747 
Q 2956 2250 2762 2517 
Q 2569 2784 2203 2784 
z
M 2203 3584 
Q 3106 3584 3614 3096 
Q 4122 2609 4122 1747 
Q 4122 884 3614 396 
Q 3106 -91 2203 -91 
Q 1297 -91 786 396 
Q 275 884 275 1747 
Q 275 2609 786 3096 
Q 1297 3584 2203 3584 
z
" transform="scale(0.015625)"/>
      <path id="DejaVuSans-Bold-64" d="M 2919 2988 
L 2919 4863 
L 4044 4863 
L 4044 0 
L 2919 0 
L 2919 506 
Q 2688 197 2409 53 
Q 2131 -91 1766 -91 
Q 1119 -91 703 423 
Q 288 938 288 1747 
Q 288 2556 703 3070 
Q 1119 3584 1766 3584 
Q 2128 3584 2408 3439 
Q 2688 3294 2919 2988 
z
M 2181 722 
Q 2541 722 2730 984 
Q 2919 1247 2919 1747 
Q 2919 2247 2730 2509 
Q 2541 2772 2181 2772 
Q 1825 2772 1636 2509 
Q 1447 2247 1447 1747 
Q 1447 1247 1636 984 
Q 1825 722 2181 722 
z
" transform="scale(0.015625)"/>
      <path id="DejaVuSans-Bold-65" d="M 4031 1759 
L 4031 1441 
L 1416 1441 
Q 1456 1047 1700 850 
Q 1944 653 2381 653 
Q 2734 653 3104 758 
Q 3475 863 3866 1075 
L 3866 213 
Q 3469 63 3072 -14 
Q 2675 -91 2278 -91 
Q 1328 -91 801 392 
Q 275 875 275 1747 
Q 275 2603 792 3093 
Q 1309 3584 2216 3584 
Q 3041 3584 3536 3087 
Q 4031 2591 4031 1759 
z
M 2881 2131 
Q 2881 2450 2695 2645 
Q 2509 2841 2209 2841 
Q 1884 2841 1681 2658 
Q 1478 2475 1428 2131 
L 2881 2131 
z
" transform="scale(0.015625)"/>
      <path id="DejaVuSans-Bold-72" d="M 3138 2547 
Q 2991 2616 2845 2648 
Q 2700 2681 2553 2681 
Q 2122 2681 1889 2404 
Q 1656 2128 1656 1613 
L 1656 0 
L 538 0 
L 538 3500 
L 1656 3500 
L 1656 2925 
Q 1872 3269 2151 3426 
Q 2431 3584 2822 3584 
Q 2878 3584 2943 3579 
Q 3009 3575 3134 3559 
L 3138 2547 
z
" transform="scale(0.015625)"/>
      <path id="DejaVuSans-Bold-20" transform="scale(0.015625)"/>
      <path id="DejaVuSans-Bold-48" d="M 588 4666 
L 1791 4666 
L 1791 2888 
L 3566 2888 
L 3566 4666 
L 4769 4666 
L 4769 0 
L 3566 0 
L 3566 1978 
L 1791 1978 
L 1791 0 
L 588 0 
L 588 4666 
z
" transform="scale(0.015625)"/>
      <path id="DejaVuSans-Bold-69" d="M 538 3500 
L 1656 3500 
L 1656 0 
L 538 0 
L 538 3500 
z
M 538 4863 
L 1656 4863 
L 1656 3950 
L 538 3950 
L 538 4863 
z
" transform="scale(0.015625)"/>
      <path id="DejaVuSans-Bold-53" d="M 3834 4519 
L 3834 3531 
Q 3450 3703 3084 3790 
Q 2719 3878 2394 3878 
Q 1963 3878 1756 3759 
Q 1550 3641 1550 3391 
Q 1550 3203 1689 3098 
Q 1828 2994 2194 2919 
L 2706 2816 
Q 3484 2659 3812 2340 
Q 4141 2022 4141 1434 
Q 4141 663 3683 286 
Q 3225 -91 2284 -91 
Q 1841 -91 1394 -6 
Q 947 78 500 244 
L 500 1259 
Q 947 1022 1364 901 
Q 1781 781 2169 781 
Q 2563 781 2772 912 
Q 2981 1044 2981 1288 
Q 2981 1506 2839 1625 
Q 2697 1744 2272 1838 
L 1806 1941 
Q 1106 2091 782 2419 
Q 459 2747 459 3303 
Q 459 4000 909 4375 
Q 1359 4750 2203 4750 
Q 2588 4750 2994 4692 
Q 3400 4634 3834 4519 
z
" transform="scale(0.015625)"/>
      <path id="DejaVuSans-Bold-74" d="M 1759 4494 
L 1759 3500 
L 2913 3500 
L 2913 2700 
L 1759 2700 
L 1759 1216 
Q 1759 972 1856 886 
Q 1953 800 2241 800 
L 2816 800 
L 2816 0 
L 1856 0 
Q 1194 0 917 276 
Q 641 553 641 1216 
L 641 2700 
L 84 2700 
L 84 3500 
L 641 3500 
L 641 4494 
L 1759 4494 
z
" transform="scale(0.015625)"/>
      <path id="DejaVuSans-Bold-61" d="M 2106 1575 
Q 1756 1575 1579 1456 
Q 1403 1338 1403 1106 
Q 1403 894 1545 773 
Q 1688 653 1941 653 
Q 2256 653 2472 879 
Q 2688 1106 2688 1447 
L 2688 1575 
L 2106 1575 
z
M 3816 1997 
L 3816 0 
L 2688 0 
L 2688 519 
Q 2463 200 2181 54 
Q 1900 -91 1497 -91 
Q 953 -91 614 226 
Q 275 544 275 1050 
Q 275 1666 698 1953 
Q 1122 2241 2028 2241 
L 2688 2241 
L 2688 2328 
Q 2688 2594 2478 2717 
Q 2269 2841 1825 2841 
Q 1466 2841 1156 2769 
Q 847 2697 581 2553 
L 581 3406 
Q 941 3494 1303 3539 
Q 1666 3584 2028 3584 
Q 2975 3584 3395 3211 
Q 3816 2838 3816 1997 
z
" transform="scale(0.015625)"/>
      <path id="DejaVuSans-Bold-73" d="M 3272 3391 
L 3272 2541 
Q 2913 2691 2578 2766 
Q 2244 2841 1947 2841 
Q 1628 2841 1473 2761 
Q 1319 2681 1319 2516 
Q 1319 2381 1436 2309 
Q 1553 2238 1856 2203 
L 2053 2175 
Q 2913 2066 3209 1816 
Q 3506 1566 3506 1031 
Q 3506 472 3093 190 
Q 2681 -91 1863 -91 
Q 1516 -91 1145 -36 
Q 775 19 384 128 
L 384 978 
Q 719 816 1070 734 
Q 1422 653 1784 653 
Q 2113 653 2278 743 
Q 2444 834 2444 1013 
Q 2444 1163 2330 1236 
Q 2216 1309 1875 1350 
L 1678 1375 
Q 931 1469 631 1722 
Q 331 1975 331 2491 
Q 331 3047 712 3315 
Q 1094 3584 1881 3584 
Q 2191 3584 2531 3537 
Q 2872 3491 3272 3391 
z
" transform="scale(0.015625)"/>
     </defs>
     <use xlink:href="#DejaVuSans-Bold-45"/>
     <use xlink:href="#DejaVuSans-Bold-6e" x="68.310547"/>
     <use xlink:href="#DejaVuSans-Bold-63" x="139.501953"/>
     <use xlink:href="#DejaVuSans-Bold-6f" x="198.779297"/>
     <use xlink:href="#DejaVuSans-Bold-64" x="267.480469"/>
     <use xlink:href="#DejaVuSans-Bold-65" x="339.0625"/>
     <use xlink:href="#DejaVuSans-Bold-72" x="406.884766"/>
     <use xlink:href="#DejaVuSans-Bold-20" x="456.201172"/>
     <use xlink:href="#DejaVuSans-Bold-48" x="491.015625"/>
     <use xlink:href="#DejaVuSans-Bold-69" x="574.707031"/>
     <use xlink:href="#DejaVuSans-Bold-64" x="608.984375"/>
     <use xlink:href="#DejaVuSans-Bold-64" x="680.566406"/>
     <use xlink:href="#DejaVuSans-Bold-65" x="752.148438"/>
     <use xlink:href="#DejaVuSans-Bold-6e" x="819.970703"/>
     <use xlink:href="#DejaVuSans-Bold-20" x="891.162109"/>
     <use xlink:href="#DejaVuSans-Bold-53" x="925.976562"/>
     <use xlink:href="#DejaVuSans-Bold-74" x="997.998047"/>
     <use xlink:href="#DejaVuSans-Bold-61" x="1045.800781"/>
     <use xlink:href="#DejaVuSans-Bold-74" x="1113.28125"/>
     <use xlink:href="#DejaVuSans-Bold-65" x="1161.083984"/>
     <use xlink:href="#DejaVuSans-Bold-73" x="1228.90625"/>
    </g>
   </g>
   <g id="text_7">
    <!-- $s_{i-1}$ -->
    <g style="fill: #ffffff" transform="translate(78.06 287.71125) scale(0.12 -0.12)">
     <defs>
      <path id="DejaVuSans-Oblique-73" d="M 3200 3397 
L 3091 2853 
Q 2863 2978 2609 3040 
Q 2356 3103 2088 3103 
Q 1634 3103 1373 2948 
Q 1113 2794 1113 2528 
Q 1113 2219 1719 2053 
Q 1766 2041 1788 2034 
L 1972 1978 
Q 2547 1819 2739 1644 
Q 2931 1469 2931 1166 
Q 2931 609 2489 259 
Q 2047 -91 1331 -91 
Q 1053 -91 747 -37 
Q 441 16 72 128 
L 184 722 
Q 500 559 806 475 
Q 1113 391 1394 391 
Q 1816 391 2080 572 
Q 2344 753 2344 1031 
Q 2344 1331 1650 1516 
L 1591 1531 
L 1394 1581 
Q 956 1697 753 1886 
Q 550 2075 550 2369 
Q 550 2928 970 3256 
Q 1391 3584 2113 3584 
Q 2397 3584 2667 3537 
Q 2938 3491 3200 3397 
z
" transform="scale(0.015625)"/>
      <path id="DejaVuSans-Oblique-69" d="M 1172 4863 
L 1747 4863 
L 1606 4134 
L 1031 4134 
L 1172 4863 
z
M 909 3500 
L 1484 3500 
L 800 0 
L 225 0 
L 909 3500 
z
" transform="scale(0.015625)"/>
      <path id="DejaVuSans-2212" d="M 678 2272 
L 4684 2272 
L 4684 1741 
L 678 1741 
L 678 2272 
z
" transform="scale(0.015625)"/>
     </defs>
     <use xlink:href="#DejaVuSans-Oblique-73"/>
     <use xlink:href="#DejaVuSans-Oblique-69" transform="translate(52.099609 -16.40625) scale(0.7)"/>
     <use xlink:href="#DejaVuSans-2212" transform="translate(85.185547 -16.40625) scale(0.7)"/>
     <use xlink:href="#DejaVuSans-31" transform="translate(157.475586 -16.40625) scale(0.7)"/>
    </g>
   </g>
   <g id="text_8">
    <!-- Decoder -->
    <g style="fill: #4a4a4a" transform="translate(71.422734 326.196422) scale(0.09 -0.09)">
     <defs>
      <path id="DejaVuSans-44" d="M 1259 4147 
L 1259 519 
L 2022 519 
Q 2988 519 3436 956 
Q 3884 1394 3884 2338 
Q 3884 3275 3436 3711 
Q 2988 4147 2022 4147 
L 1259 4147 
z
M 628 4666 
L 1925 4666 
Q 3281 4666 3915 4102 
Q 4550 3538 4550 2338 
Q 4550 1131 3912 565 
Q 3275 0 1925 0 
L 628 0 
L 628 4666 
z
" transform="scale(0.015625)"/>
      <path id="DejaVuSans-65" d="M 3597 1894 
L 3597 1613 
L 953 1613 
Q 991 1019 1311 708 
Q 1631 397 2203 397 
Q 2534 397 2845 478 
Q 3156 559 3463 722 
L 3463 178 
Q 3153 47 2828 -22 
Q 2503 -91 2169 -91 
Q 1331 -91 842 396 
Q 353 884 353 1716 
Q 353 2575 817 3079 
Q 1281 3584 2069 3584 
Q 2775 3584 3186 3129 
Q 3597 2675 3597 1894 
z
M 3022 2063 
Q 3016 2534 2758 2815 
Q 2500 3097 2075 3097 
Q 1594 3097 1305 2825 
Q 1016 2553 972 2059 
L 3022 2063 
z
" transform="scale(0.015625)"/>
      <path id="DejaVuSans-63" d="M 3122 3366 
L 3122 2828 
Q 2878 2963 2633 3030 
Q 2388 3097 2138 3097 
Q 1578 3097 1268 2742 
Q 959 2388 959 1747 
Q 959 1106 1268 751 
Q 1578 397 2138 397 
Q 2388 397 2633 464 
Q 2878 531 3122 666 
L 3122 134 
Q 2881 22 2623 -34 
Q 2366 -91 2075 -91 
Q 1284 -91 818 406 
Q 353 903 353 1747 
Q 353 2603 823 3093 
Q 1294 3584 2113 3584 
Q 2378 3584 2631 3529 
Q 2884 3475 3122 3366 
z
" transform="scale(0.015625)"/>
      <path id="DejaVuSans-6f" d="M 1959 3097 
Q 1497 3097 1228 2736 
Q 959 2375 959 1747 
Q 959 1119 1226 758 
Q 1494 397 1959 397 
Q 2419 397 2687 759 
Q 2956 1122 2956 1747 
Q 2956 2369 2687 2733 
Q 2419 3097 1959 3097 
z
M 1959 3584 
Q 2709 3584 3137 3096 
Q 3566 2609 3566 1747 
Q 3566 888 3137 398 
Q 2709 -91 1959 -91 
Q 1206 -91 779 398 
Q 353 888 353 1747 
Q 353 2609 779 3096 
Q 1206 3584 1959 3584 
z
" transform="scale(0.015625)"/>
      <path id="DejaVuSans-64" d="M 2906 2969 
L 2906 4863 
L 3481 4863 
L 3481 0 
L 2906 0 
L 2906 525 
Q 2725 213 2448 61 
Q 2172 -91 1784 -91 
Q 1150 -91 751 415 
Q 353 922 353 1747 
Q 353 2572 751 3078 
Q 1150 3584 1784 3584 
Q 2172 3584 2448 3432 
Q 2725 3281 2906 2969 
z
M 947 1747 
Q 947 1113 1208 752 
Q 1469 391 1925 391 
Q 2381 391 2643 752 
Q 2906 1113 2906 1747 
Q 2906 2381 2643 2742 
Q 2381 3103 1925 3103 
Q 1469 3103 1208 2742 
Q 947 2381 947 1747 
z
" transform="scale(0.015625)"/>
      <path id="DejaVuSans-72" d="M 2631 2963 
Q 2534 3019 2420 3045 
Q 2306 3072 2169 3072 
Q 1681 3072 1420 2755 
Q 1159 2438 1159 1844 
L 1159 0 
L 581 0 
L 581 3500 
L 1159 3500 
L 1159 2956 
Q 1341 3275 1631 3429 
Q 1922 3584 2338 3584 
Q 2397 3584 2469 3576 
Q 2541 3569 2628 3553 
L 2631 2963 
z
" transform="scale(0.015625)"/>
     </defs>
     <use xlink:href="#DejaVuSans-44"/>
     <use xlink:href="#DejaVuSans-65" x="77.001953"/>
     <use xlink:href="#DejaVuSans-63" x="138.525391"/>
     <use xlink:href="#DejaVuSans-6f" x="193.505859"/>
     <use xlink:href="#DejaVuSans-64" x="254.6875"/>
     <use xlink:href="#DejaVuSans-65" x="318.164062"/>
     <use xlink:href="#DejaVuSans-72" x="379.6875"/>
    </g>
    <!-- State -->
    <g style="fill: #4a4a4a" transform="translate(78.448359 336.274453) scale(0.09 -0.09)">
     <defs>
      <path id="DejaVuSans-53" d="M 3425 4513 
L 3425 3897 
Q 3066 4069 2747 4153 
Q 2428 4238 2131 4238 
Q 1616 4238 1336 4038 
Q 1056 3838 1056 3469 
Q 1056 3159 1242 3001 
Q 1428 2844 1947 2747 
L 2328 2669 
Q 3034 2534 3370 2195 
Q 3706 1856 3706 1288 
Q 3706 609 3251 259 
Q 2797 -91 1919 -91 
Q 1588 -91 1214 -16 
Q 841 59 441 206 
L 441 856 
Q 825 641 1194 531 
Q 1563 422 1919 422 
Q 2459 422 2753 634 
Q 3047 847 3047 1241 
Q 3047 1584 2836 1778 
Q 2625 1972 2144 2069 
L 1759 2144 
Q 1053 2284 737 2584 
Q 422 2884 422 3419 
Q 422 4038 858 4394 
Q 1294 4750 2059 4750 
Q 2388 4750 2728 4690 
Q 3069 4631 3425 4513 
z
" transform="scale(0.015625)"/>
      <path id="DejaVuSans-74" d="M 1172 4494 
L 1172 3500 
L 2356 3500 
L 2356 3053 
L 1172 3053 
L 1172 1153 
Q 1172 725 1289 603 
Q 1406 481 1766 481 
L 2356 481 
L 2356 0 
L 1766 0 
Q 1100 0 847 248 
Q 594 497 594 1153 
L 594 3053 
L 172 3053 
L 172 3500 
L 594 3500 
L 594 4494 
L 1172 4494 
z
" transform="scale(0.015625)"/>
      <path id="DejaVuSans-61" d="M 2194 1759 
Q 1497 1759 1228 1600 
Q 959 1441 959 1056 
Q 959 750 1161 570 
Q 1363 391 1709 391 
Q 2188 391 2477 730 
Q 2766 1069 2766 1631 
L 2766 1759 
L 2194 1759 
z
M 3341 1997 
L 3341 0 
L 2766 0 
L 2766 531 
Q 2569 213 2275 61 
Q 1981 -91 1556 -91 
Q 1019 -91 701 211 
Q 384 513 384 1019 
Q 384 1609 779 1909 
Q 1175 2209 1959 2209 
L 2766 2209 
L 2766 2266 
Q 2766 2663 2505 2880 
Q 2244 3097 1772 3097 
Q 1472 3097 1187 3025 
Q 903 2953 641 2809 
L 641 3341 
Q 956 3463 1253 3523 
Q 1550 3584 1831 3584 
Q 2591 3584 2966 3190 
Q 3341 2797 3341 1997 
z
" transform="scale(0.015625)"/>
     </defs>
     <use xlink:href="#DejaVuSans-53"/>
     <use xlink:href="#DejaVuSans-74" x="63.476562"/>
     <use xlink:href="#DejaVuSans-61" x="102.685547"/>
     <use xlink:href="#DejaVuSans-74" x="163.964844"/>
     <use xlink:href="#DejaVuSans-65" x="203.173828"/>
    </g>
   </g>
   <g id="text_9">
    <!-- $e_{i1}$ -->
    <g style="fill: #ffffff" transform="translate(167.715 203.723437) scale(0.09 -0.09)">
     <defs>
      <path id="DejaVuSans-Oblique-65" d="M 3078 2063 
Q 3088 2113 3092 2166 
Q 3097 2219 3097 2272 
Q 3097 2653 2873 2875 
Q 2650 3097 2266 3097 
Q 1838 3097 1509 2826 
Q 1181 2556 1013 2059 
L 3078 2063 
z
M 3578 1613 
L 903 1613 
Q 884 1494 878 1425 
Q 872 1356 872 1306 
Q 872 872 1139 634 
Q 1406 397 1894 397 
Q 2269 397 2603 481 
Q 2938 566 3225 728 
L 3116 159 
Q 2806 34 2476 -28 
Q 2147 -91 1806 -91 
Q 1078 -91 686 257 
Q 294 606 294 1247 
Q 294 1794 489 2264 
Q 684 2734 1063 3103 
Q 1306 3334 1642 3459 
Q 1978 3584 2356 3584 
Q 2950 3584 3301 3228 
Q 3653 2872 3653 2272 
Q 3653 2128 3634 1964 
Q 3616 1800 3578 1613 
z
" transform="scale(0.015625)"/>
     </defs>
     <use xlink:href="#DejaVuSans-Oblique-65"/>
     <use xlink:href="#DejaVuSans-Oblique-69" transform="translate(61.523438 -16.40625) scale(0.7)"/>
     <use xlink:href="#DejaVuSans-31" transform="translate(80.97168 -16.40625) scale(0.7)"/>
    </g>
   </g>
   <g id="patch_21">
    <path d="M 173.52 114.53785 
Q 173.52 145.80255 173.52 175.390199 
" style="fill: none; stroke: #666666; stroke-width: 1.5; stroke-linecap: round"/>
    <path d="M 175.52 171.390199 
L 173.52 175.390199 
L 171.52 171.390199 
" style="fill: none; stroke: #666666; stroke-width: 1.5; stroke-linecap: round"/>
   </g>
   <g id="patch_22">
    <path d="M 130.025283 265.95818 
Q 141.642026 241.433946 152.540845 218.425326 
" style="fill: none; stroke: #e8a87c; stroke-width: 1.5; stroke-linecap: round"/>
    <path d="M 149.021024 221.184105 
L 152.540845 218.425326 
L 152.635976 222.89645 
" style="fill: none; stroke: #e8a87c; stroke-width: 1.5; stroke-linecap: round"/>
   </g>
   <g id="text_10">
    <!-- $e_{i2}$ -->
    <g style="fill: #ffffff" transform="translate(278.595 203.723437) scale(0.09 -0.09)">
     <use xlink:href="#DejaVuSans-Oblique-65"/>
     <use xlink:href="#DejaVuSans-Oblique-69" transform="translate(61.523438 -16.40625) scale(0.7)"/>
     <use xlink:href="#DejaVuSans-32" transform="translate(80.97168 -16.40625) scale(0.7)"/>
    </g>
   </g>
   <g id="patch_23">
    <path d="M 284.4 114.53785 
Q 284.4 145.80255 284.4 175.390199 
" style="fill: none; stroke: #666666; stroke-width: 1.5; stroke-linecap: round"/>
    <path d="M 286.4 171.390199 
L 284.4 175.390199 
L 282.4 171.390199 
" style="fill: none; stroke: #666666; stroke-width: 1.5; stroke-linecap: round"/>
   </g>
   <g id="patch_24">
    <path d="M 131.029169 267.046322 
Q 197.078398 241.435397 261.56401 216.430772 
" style="fill: none; stroke: #e8a87c; stroke-width: 1.5; stroke-linecap: round"/>
    <path d="M 257.111509 216.012161 
L 261.56401 216.430772 
L 258.55762 219.741606 
" style="fill: none; stroke: #e8a87c; stroke-width: 1.5; stroke-linecap: round"/>
   </g>
   <g id="text_11">
    <!-- $e_{i3}$ -->
    <g style="fill: #ffffff" transform="translate(389.475 203.723437) scale(0.09 -0.09)">
     <use xlink:href="#DejaVuSans-Oblique-65"/>
     <use xlink:href="#DejaVuSans-Oblique-69" transform="translate(61.523438 -16.40625) scale(0.7)"/>
     <use xlink:href="#DejaVuSans-33" transform="translate(80.97168 -16.40625) scale(0.7)"/>
    </g>
   </g>
   <g id="patch_25">
    <path d="M 395.28 114.53785 
Q 395.28 145.80255 395.28 175.390199 
" style="fill: none; stroke: #666666; stroke-width: 1.5; stroke-linecap: round"/>
    <path d="M 397.28 171.390199 
L 395.28 175.390199 
L 393.28 171.390199 
" style="fill: none; stroke: #666666; stroke-width: 1.5; stroke-linecap: round"/>
   </g>
   <g id="patch_26">
    <path d="M 131.121758 267.350906 
Q 252.522267 241.433943 372.282683 215.867113 
" style="fill: none; stroke: #e8a87c; stroke-width: 1.5; stroke-linecap: round"/>
    <path d="M 367.953274 214.746301 
L 372.282683 215.867113 
L 368.788388 218.658153 
" style="fill: none; stroke: #e8a87c; stroke-width: 1.5; stroke-linecap: round"/>
   </g>
   <g id="text_12">
    <!-- $e_{iT}$ -->
    <g style="fill: #ffffff" transform="translate(500.445 203.723437) scale(0.09 -0.09)">
     <use xlink:href="#DejaVuSans-Oblique-65"/>
     <use xlink:href="#DejaVuSans-Oblique-69" transform="translate(61.523438 -16.40625) scale(0.7)"/>
     <use xlink:href="#DejaVuSans-Oblique-54" transform="translate(80.97168 -16.40625) scale(0.7)"/>
    </g>
   </g>
   <g id="patch_27">
    <path d="M 506.16 114.53785 
Q 506.16 145.80255 506.16 175.390199 
" style="fill: none; stroke: #666666; stroke-width: 1.5; stroke-linecap: round"/>
    <path d="M 508.16 171.390199 
L 506.16 175.390199 
L 504.16 171.390199 
" style="fill: none; stroke: #666666; stroke-width: 1.5; stroke-linecap: round"/>
   </g>
   <g id="patch_28">
    <path d="M 131.14593 267.476677 
Q 307.962044 241.433994 483.119007 215.635681 
" style="fill: none; stroke: #e8a87c; stroke-width: 1.5; stroke-linecap: round"/>
    <path d="M 478.87027 214.239887 
L 483.119007 215.635681 
L 479.45313 218.197194 
" style="fill: none; stroke: #e8a87c; stroke-width: 1.5; stroke-linecap: round"/>
   </g>
   <g id="text_13">
    <!-- ... -->
    <g style="fill: #4a4a4a" transform="translate(444.045937 205.103125) scale(0.14 -0.14)">
     <use xlink:href="#DejaVuSans-2e"/>
     <use xlink:href="#DejaVuSans-2e" x="31.787109"/>
     <use xlink:href="#DejaVuSans-2e" x="63.574219"/>
    </g>
   </g>
   <g id="text_14">
    <!-- $e_{ij} = a(s_{i-1}, h_j)$ -->
    <g style="fill: #4a4a4a" transform="translate(617.04 203.49) scale(0.1 -0.1)">
     <defs>
      <path id="DejaVuSans-Oblique-6a" d="M 928 3500 
L 1503 3500 
L 813 -63 
L 809 -78 
Q 694 -675 544 -897 
Q 403 -1106 132 -1218 
Q -138 -1331 -506 -1331 
L -722 -1331 
L -628 -844 
L -481 -844 
Q -144 -844 -1 -703 
Q 141 -563 238 -63 
L 928 3500 
z
M 1197 4863 
L 1772 4863 
L 1631 4134 
L 1056 4134 
L 1197 4863 
z
" transform="scale(0.015625)"/>
      <path id="DejaVuSans-3d" d="M 678 2906 
L 4684 2906 
L 4684 2381 
L 678 2381 
L 678 2906 
z
M 678 1631 
L 4684 1631 
L 4684 1100 
L 678 1100 
L 678 1631 
z
" transform="scale(0.015625)"/>
      <path id="DejaVuSans-Oblique-61" d="M 3438 1997 
L 3047 0 
L 2472 0 
L 2578 531 
Q 2325 219 2001 64 
Q 1678 -91 1281 -91 
Q 834 -91 548 182 
Q 263 456 263 884 
Q 263 1497 752 1853 
Q 1241 2209 2100 2209 
L 2900 2209 
L 2931 2363 
Q 2938 2388 2941 2417 
Q 2944 2447 2944 2509 
Q 2944 2788 2717 2942 
Q 2491 3097 2081 3097 
Q 1800 3097 1504 3025 
Q 1209 2953 897 2809 
L 997 3341 
Q 1322 3463 1633 3523 
Q 1944 3584 2234 3584 
Q 2853 3584 3176 3315 
Q 3500 3047 3500 2534 
Q 3500 2431 3484 2292 
Q 3469 2153 3438 1997 
z
M 2816 1759 
L 2241 1759 
Q 1534 1759 1195 1570 
Q 856 1381 856 984 
Q 856 709 1029 553 
Q 1203 397 1509 397 
Q 1978 397 2328 733 
Q 2678 1069 2791 1631 
L 2816 1759 
z
" transform="scale(0.015625)"/>
      <path id="DejaVuSans-28" d="M 1984 4856 
Q 1566 4138 1362 3434 
Q 1159 2731 1159 2009 
Q 1159 1288 1364 580 
Q 1569 -128 1984 -844 
L 1484 -844 
Q 1016 -109 783 600 
Q 550 1309 550 2009 
Q 550 2706 781 3412 
Q 1013 4119 1484 4856 
L 1984 4856 
z
" transform="scale(0.015625)"/>
      <path id="DejaVuSans-2c" d="M 750 794 
L 1409 794 
L 1409 256 
L 897 -744 
L 494 -744 
L 750 256 
L 750 794 
z
" transform="scale(0.015625)"/>
      <path id="DejaVuSans-29" d="M 513 4856 
L 1013 4856 
Q 1481 4119 1714 3412 
Q 1947 2706 1947 2009 
Q 1947 1309 1714 600 
Q 1481 -109 1013 -844 
L 513 -844 
Q 928 -128 1133 580 
Q 1338 1288 1338 2009 
Q 1338 2731 1133 3434 
Q 928 4138 513 4856 
z
" transform="scale(0.015625)"/>
     </defs>
     <use xlink:href="#DejaVuSans-Oblique-65" transform="translate(0 0.015625)"/>
     <use xlink:href="#DejaVuSans-Oblique-69" transform="translate(61.523438 -16.390625) scale(0.7)"/>
     <use xlink:href="#DejaVuSans-Oblique-6a" transform="translate(80.97168 -16.390625) scale(0.7)"/>
     <use xlink:href="#DejaVuSans-3d" transform="translate(122.636719 0.015625)"/>
     <use xlink:href="#DejaVuSans-Oblique-61" transform="translate(225.908203 0.015625)"/>
     <use xlink:href="#DejaVuSans-28" transform="translate(287.1875 0.015625)"/>
     <use xlink:href="#DejaVuSans-Oblique-73" transform="translate(326.201172 0.015625)"/>
     <use xlink:href="#DejaVuSans-Oblique-69" transform="translate(378.300781 -16.390625) scale(0.7)"/>
     <use xlink:href="#DejaVuSans-2212" transform="translate(411.386719 -16.390625) scale(0.7)"/>
     <use xlink:href="#DejaVuSans-31" transform="translate(483.676758 -16.390625) scale(0.7)"/>
     <use xlink:href="#DejaVuSans-2c" transform="translate(530.947266 0.015625)"/>
     <use xlink:href="#DejaVuSans-Oblique-68" transform="translate(582.216797 0.015625)"/>
     <use xlink:href="#DejaVuSans-Oblique-6a" transform="translate(645.595703 -16.390625) scale(0.7)"/>
     <use xlink:href="#DejaVuSans-29" transform="translate(667.77832 0.015625)"/>
    </g>
   </g>
   <g id="text_15">
    <!-- Softmax -->
    <g style="fill: #ffffff" transform="translate(314.088828 287.435312) scale(0.11 -0.11)">
     <defs>
      <path id="DejaVuSans-Bold-66" d="M 2841 4863 
L 2841 4128 
L 2222 4128 
Q 1984 4128 1890 4042 
Q 1797 3956 1797 3744 
L 1797 3500 
L 2753 3500 
L 2753 2700 
L 1797 2700 
L 1797 0 
L 678 0 
L 678 2700 
L 122 2700 
L 122 3500 
L 678 3500 
L 678 3744 
Q 678 4316 997 4589 
Q 1316 4863 1984 4863 
L 2841 4863 
z
" transform="scale(0.015625)"/>
      <path id="DejaVuSans-Bold-6d" d="M 3781 2919 
Q 3994 3244 4286 3414 
Q 4578 3584 4928 3584 
Q 5531 3584 5847 3212 
Q 6163 2841 6163 2131 
L 6163 0 
L 5038 0 
L 5038 1825 
Q 5041 1866 5042 1909 
Q 5044 1953 5044 2034 
Q 5044 2406 4934 2573 
Q 4825 2741 4581 2741 
Q 4263 2741 4089 2478 
Q 3916 2216 3909 1719 
L 3909 0 
L 2784 0 
L 2784 1825 
Q 2784 2406 2684 2573 
Q 2584 2741 2328 2741 
Q 2006 2741 1831 2477 
Q 1656 2213 1656 1722 
L 1656 0 
L 531 0 
L 531 3500 
L 1656 3500 
L 1656 2988 
Q 1863 3284 2130 3434 
Q 2397 3584 2719 3584 
Q 3081 3584 3359 3409 
Q 3638 3234 3781 2919 
z
" transform="scale(0.015625)"/>
      <path id="DejaVuSans-Bold-78" d="M 1422 1791 
L 159 3500 
L 1344 3500 
L 2059 2463 
L 2784 3500 
L 3969 3500 
L 2706 1797 
L 4031 0 
L 2847 0 
L 2059 1106 
L 1281 0 
L 97 0 
L 1422 1791 
z
" transform="scale(0.015625)"/>
     </defs>
     <use xlink:href="#DejaVuSans-Bold-53"/>
     <use xlink:href="#DejaVuSans-Bold-6f" x="72.021484"/>
     <use xlink:href="#DejaVuSans-Bold-66" x="140.722656"/>
     <use xlink:href="#DejaVuSans-Bold-74" x="184.228516"/>
     <use xlink:href="#DejaVuSans-Bold-6d" x="232.03125"/>
     <use xlink:href="#DejaVuSans-Bold-61" x="336.230469"/>
     <use xlink:href="#DejaVuSans-Bold-78" x="403.710938"/>
    </g>
   </g>
   <g id="patch_29">
    <path d="M 175.436071 223.990821 
Q 242.820731 244.206219 308.599067 263.93972 
" style="fill: none; stroke: #666666; stroke-width: 1.5; stroke-linecap: round"/>
    <path d="M 305.342458 260.874676 
L 308.599067 263.93972 
L 304.193066 264.705981 
" style="fill: none; stroke: #666666; stroke-width: 1.5; stroke-linecap: round"/>
   </g>
   <g id="patch_30">
    <path d="M 285.766712 224.880335 
Q 303.805214 244.2073 320.699432 262.308249 
" style="fill: none; stroke: #666666; stroke-width: 1.5; stroke-linecap: round"/>
    <path d="M 319.43227 258.019391 
L 320.699432 262.308249 
L 316.508049 260.748664 
" style="fill: none; stroke: #666666; stroke-width: 1.5; stroke-linecap: round"/>
   </g>
   <g id="patch_31">
    <path d="M 393.63108 224.540264 
Q 364.791058 244.203915 337.336663 262.922821 
" style="fill: none; stroke: #666666; stroke-width: 1.5; stroke-linecap: round"/>
    <path d="M 341.768246 262.321928 
L 337.336663 262.922821 
L 339.514898 259.017019 
" style="fill: none; stroke: #666666; stroke-width: 1.5; stroke-linecap: round"/>
   </g>
   <g id="patch_32">
    <path d="M 504.224388 223.916589 
Q 425.772467 244.205879 348.944178 264.075264 
" style="fill: none; stroke: #666666; stroke-width: 1.5; stroke-linecap: round"/>
    <path d="M 353.317531 265.010027 
L 348.944178 264.075264 
L 352.316 261.137439 
" style="fill: none; stroke: #666666; stroke-width: 1.5; stroke-linecap: round"/>
   </g>
   <g id="text_16">
    <!-- $\alpha_{i1}$ -->
    <g style="fill: #ffffff" transform="translate(168.2 369.7675) scale(0.08 -0.08)">
     <defs>
      <path id="DejaVuSans-Oblique-3b1" d="M 2619 1628 
L 2622 2350 
Q 2625 3088 2069 3091 
Q 1653 3094 1394 2747 
Q 1069 2319 959 1747 
Q 825 1059 994 731 
Q 1169 397 1547 397 
Q 1966 397 2319 1063 
L 2619 1628 
z
M 2166 3578 
Q 3141 3594 3128 2584 
Q 3128 2584 3616 3500 
L 4128 3500 
L 3119 1603 
L 3109 919 
Q 3109 766 3194 638 
Q 3291 488 3391 488 
L 3669 488 
L 3575 0 
L 3228 0 
Q 2934 0 2722 263 
Q 2622 394 2619 669 
Q 2416 334 2066 50 
Q 1900 -81 1453 -78 
Q 722 -72 456 397 
Q 184 884 353 1747 
Q 534 2675 1009 3097 
Q 1544 3569 2166 3578 
z
" transform="scale(0.015625)"/>
     </defs>
     <use xlink:href="#DejaVuSans-Oblique-3b1" transform="translate(0 0.84375)"/>
     <use xlink:href="#DejaVuSans-Oblique-69" transform="translate(65.917969 -15.5625) scale(0.7)"/>
     <use xlink:href="#DejaVuSans-31" transform="translate(85.366211 -15.5625) scale(0.7)"/>
    </g>
   </g>
   <g id="text_17">
    <!-- $\alpha_{i2}$ -->
    <g style="fill: #ffffff" transform="translate(279.08 369.7675) scale(0.08 -0.08)">
     <use xlink:href="#DejaVuSans-Oblique-3b1" transform="translate(0 0.84375)"/>
     <use xlink:href="#DejaVuSans-Oblique-69" transform="translate(65.917969 -15.5625) scale(0.7)"/>
     <use xlink:href="#DejaVuSans-32" transform="translate(85.366211 -15.5625) scale(0.7)"/>
    </g>
   </g>
   <g id="text_18">
    <!-- $\alpha_{i3}$ -->
    <g style="fill: #ffffff" transform="translate(389.96 369.7675) scale(0.08 -0.08)">
     <use xlink:href="#DejaVuSans-Oblique-3b1" transform="translate(0 0.84375)"/>
     <use xlink:href="#DejaVuSans-Oblique-69" transform="translate(65.917969 -15.5625) scale(0.7)"/>
     <use xlink:href="#DejaVuSans-33" transform="translate(85.366211 -15.5625) scale(0.7)"/>
    </g>
   </g>
   <g id="text_19">
    <!-- $\alpha_{iT}$ -->
    <g style="fill: #ffffff" transform="translate(500.92 369.7675) scale(0.08 -0.08)">
     <use xlink:href="#DejaVuSans-Oblique-3b1" transform="translate(0 0.84375)"/>
     <use xlink:href="#DejaVuSans-Oblique-69" transform="translate(65.917969 -15.5625) scale(0.7)"/>
     <use xlink:href="#DejaVuSans-Oblique-54" transform="translate(85.366211 -15.5625) scale(0.7)"/>
    </g>
   </g>
   <g id="text_20">
    <!-- ... -->
    <g style="fill: #4a4a4a" transform="translate(444.045937 371.423125) scale(0.14 -0.14)">
     <use xlink:href="#DejaVuSans-2e"/>
     <use xlink:href="#DejaVuSans-2e" x="31.787109"/>
     <use xlink:href="#DejaVuSans-2e" x="63.574219"/>
    </g>
   </g>
   <g id="patch_33">
    <path d="M 321.284823 304.338216 
Q 248.365174 324.593674 177.061393 344.40028 
" style="fill: none; stroke: #666666; stroke-width: 1.5; stroke-linecap: round"/>
    <path d="M 181.450752 345.25674 
L 177.061393 344.40028 
L 180.380177 341.402668 
" style="fill: none; stroke: #666666; stroke-width: 1.5; stroke-linecap: round"/>
   </g>
   <g id="patch_34">
    <path d="M 332.758068 305.08561 
Q 309.347911 324.594074 287.2261 343.028917 
" style="fill: none; stroke: #666666; stroke-width: 1.5; stroke-linecap: round"/>
    <path d="M 291.579354 342.004622 
L 287.2261 343.028917 
L 289.018616 338.931737 
" style="fill: none; stroke: #666666; stroke-width: 1.5; stroke-linecap: round"/>
   </g>
   <g id="patch_35">
    <path d="M 346.921932 305.08561 
Q 370.332089 324.594074 392.4539 343.028917 
" style="fill: none; stroke: #666666; stroke-width: 1.5; stroke-linecap: round"/>
    <path d="M 390.661384 338.931737 
L 392.4539 343.028917 
L 388.100646 342.004622 
" style="fill: none; stroke: #666666; stroke-width: 1.5; stroke-linecap: round"/>
   </g>
   <g id="patch_36">
    <path d="M 358.395177 304.338216 
Q 431.314826 324.593674 502.618607 344.40028 
" style="fill: none; stroke: #666666; stroke-width: 1.5; stroke-linecap: round"/>
    <path d="M 499.299823 341.402668 
L 502.618607 344.40028 
L 498.229248 345.25674 
" style="fill: none; stroke: #666666; stroke-width: 1.5; stroke-linecap: round"/>
   </g>
   <g id="text_21">
    <!-- $c_i$ -->
    <g style="fill: #ffffff" transform="translate(335.16 454.03125) scale(0.12 -0.12)">
     <defs>
      <path id="DejaVuSans-Oblique-63" d="M 3431 3366 
L 3316 2797 
Q 3109 2947 2876 3022 
Q 2644 3097 2394 3097 
Q 2119 3097 1870 3000 
Q 1622 2903 1453 2725 
Q 1184 2453 1037 2087 
Q 891 1722 891 1331 
Q 891 859 1127 628 
Q 1363 397 1844 397 
Q 2081 397 2348 469 
Q 2616 541 2906 684 
L 2797 116 
Q 2547 13 2283 -39 
Q 2019 -91 1741 -91 
Q 1044 -91 669 257 
Q 294 606 294 1253 
Q 294 1797 489 2255 
Q 684 2713 1069 3078 
Q 1331 3328 1684 3456 
Q 2038 3584 2456 3584 
Q 2700 3584 2940 3529 
Q 3181 3475 3431 3366 
z
" transform="scale(0.015625)"/>
     </defs>
     <use xlink:href="#DejaVuSans-Oblique-63"/>
     <use xlink:href="#DejaVuSans-Oblique-69" transform="translate(54.980469 -16.40625) scale(0.7)"/>
    </g>
   </g>
   <g id="patch_37">
    <path d="M 175.427188 390.329347 
Q 235.889586 409.139871 294.750639 427.452199 
" style="fill: none; stroke: #666666; stroke-width: 1.5; stroke-linecap: round"/>
    <path d="M 291.525345 424.354219 
L 294.750639 427.452199 
L 290.337079 428.173646 
" style="fill: none; stroke: #666666; stroke-width: 1.5; stroke-linecap: round"/>
   </g>
   <g id="patch_38">
    <path d="M 285.633899 391.306417 
Q 299.645965 409.139955 312.621913 425.654798 
" style="fill: none; stroke: #666666; stroke-width: 1.5; stroke-linecap: round"/>
    <path d="M 311.723263 421.273882 
L 312.621913 425.654798 
L 308.57799 423.745168 
" style="fill: none; stroke: #666666; stroke-width: 1.5; stroke-linecap: round"/>
   </g>
   <g id="patch_39">
    <path d="M 393.571694 390.775838 
Q 363.401836 409.1401 334.664512 426.632384 
" style="fill: none; stroke: #666666; stroke-width: 1.5; stroke-linecap: round"/>
    <path d="M 339.121201 426.260993 
L 334.664512 426.632384 
L 337.041413 422.844199 
" style="fill: none; stroke: #666666; stroke-width: 1.5; stroke-linecap: round"/>
   </g>
   <g id="patch_40">
    <path d="M 504.216775 390.213283 
Q 427.155576 409.140595 351.723022 427.667889 
" style="fill: none; stroke: #666666; stroke-width: 1.5; stroke-linecap: round"/>
    <path d="M 356.084617 428.656063 
L 351.723022 427.667889 
L 355.130518 424.771517 
" style="fill: none; stroke: #666666; stroke-width: 1.5; stroke-linecap: round"/>
   </g>
   <g id="text_22">
    <!-- $c_i = \sum_j \alpha_{ij} h_j$ -->
    <g style="fill: #4a4a4a" transform="translate(315.64 494.472) scale(0.1 -0.1)">
     <defs>
      <path id="DejaVuSansDisplay-2211" d="M 244 6509 
L 5803 6509 
L 5803 5656 
L 1566 5656 
L 4534 2488 
L 1469 -888 
L 5919 -888 
L 5919 -1738 
L 109 -1738 
L 109 -1078 
L 3316 2463 
L 244 5728 
L 244 6509 
z
" transform="scale(0.015625)"/>
     </defs>
     <use xlink:href="#DejaVuSans-Oblique-63" transform="translate(0 0.296875)"/>
     <use xlink:href="#DejaVuSans-Oblique-69" transform="translate(54.980469 -16.109375) scale(0.7)"/>
     <use xlink:href="#DejaVuSans-3d" transform="translate(96.645508 0.296875)"/>
     <use xlink:href="#DejaVuSansDisplay-2211" transform="translate(199.916992 0.296875)"/>
     <use xlink:href="#DejaVuSans-Oblique-6a" transform="translate(231.916992 -98.798438) scale(0.7)"/>
     <use xlink:href="#DejaVuSans-Oblique-3b1" transform="translate(290.682617 0.296875)"/>
     <use xlink:href="#DejaVuSans-Oblique-69" transform="translate(356.600586 -16.109375) scale(0.7)"/>
     <use xlink:href="#DejaVuSans-Oblique-6a" transform="translate(376.048828 -16.109375) scale(0.7)"/>
     <use xlink:href="#DejaVuSans-Oblique-68" transform="translate(398.231445 0.296875)"/>
     <use xlink:href="#DejaVuSans-Oblique-6a" transform="translate(461.610352 -16.109375) scale(0.7)"/>
    </g>
   </g>
   <g id="text_23">
    <!-- Context Vector -->
    <g style="fill: #4a4a4a" transform="translate(293.594453 525.827312) scale(0.11 -0.11)">
     <defs>
      <path id="DejaVuSans-Bold-43" d="M 4288 256 
Q 3956 84 3597 -3 
Q 3238 -91 2847 -91 
Q 1681 -91 1000 561 
Q 319 1213 319 2328 
Q 319 3447 1000 4098 
Q 1681 4750 2847 4750 
Q 3238 4750 3597 4662 
Q 3956 4575 4288 4403 
L 4288 3438 
Q 3953 3666 3628 3772 
Q 3303 3878 2944 3878 
Q 2300 3878 1931 3465 
Q 1563 3053 1563 2328 
Q 1563 1606 1931 1193 
Q 2300 781 2944 781 
Q 3303 781 3628 887 
Q 3953 994 4288 1222 
L 4288 256 
z
" transform="scale(0.015625)"/>
      <path id="DejaVuSans-Bold-56" d="M 31 4666 
L 1241 4666 
L 2478 1222 
L 3713 4666 
L 4922 4666 
L 3194 0 
L 1759 0 
L 31 4666 
z
" transform="scale(0.015625)"/>
     </defs>
     <use xlink:href="#DejaVuSans-Bold-43"/>
     <use xlink:href="#DejaVuSans-Bold-6f" x="73.388672"/>
     <use xlink:href="#DejaVuSans-Bold-6e" x="142.089844"/>
     <use xlink:href="#DejaVuSans-Bold-74" x="213.28125"/>
     <use xlink:href="#DejaVuSans-Bold-65" x="261.083984"/>
     <use xlink:href="#DejaVuSans-Bold-78" x="328.90625"/>
     <use xlink:href="#DejaVuSans-Bold-74" x="393.408203"/>
     <use xlink:href="#DejaVuSans-Bold-20" x="441.210938"/>
     <use xlink:href="#DejaVuSans-Bold-56" x="476.025391"/>
     <use xlink:href="#DejaVuSans-Bold-65" x="547.917969"/>
     <use xlink:href="#DejaVuSans-Bold-63" x="615.740234"/>
     <use xlink:href="#DejaVuSans-Bold-74" x="675.017578"/>
     <use xlink:href="#DejaVuSans-Bold-6f" x="722.820312"/>
     <use xlink:href="#DejaVuSans-Bold-72" x="791.521484"/>
    </g>
   </g>
   <g id="text_24">
    <!-- Encoder -->
    <g style="fill: #4a4a4a" transform="translate(639.216 342.323437) scale(0.09 -0.09)">
     <defs>
      <path id="DejaVuSans-45" d="M 628 4666 
L 3578 4666 
L 3578 4134 
L 1259 4134 
L 1259 2753 
L 3481 2753 
L 3481 2222 
L 1259 2222 
L 1259 531 
L 3634 531 
L 3634 0 
L 628 0 
L 628 4666 
z
" transform="scale(0.015625)"/>
      <path id="DejaVuSans-6e" d="M 3513 2113 
L 3513 0 
L 2938 0 
L 2938 2094 
Q 2938 2591 2744 2837 
Q 2550 3084 2163 3084 
Q 1697 3084 1428 2787 
Q 1159 2491 1159 1978 
L 1159 0 
L 581 0 
L 581 3500 
L 1159 3500 
L 1159 2956 
Q 1366 3272 1645 3428 
Q 1925 3584 2291 3584 
Q 2894 3584 3203 3211 
Q 3513 2838 3513 2113 
z
" transform="scale(0.015625)"/>
     </defs>
     <use xlink:href="#DejaVuSans-45"/>
     <use xlink:href="#DejaVuSans-6e" x="63.183594"/>
     <use xlink:href="#DejaVuSans-63" x="126.5625"/>
     <use xlink:href="#DejaVuSans-6f" x="181.542969"/>
     <use xlink:href="#DejaVuSans-64" x="242.724609"/>
     <use xlink:href="#DejaVuSans-65" x="306.201172"/>
     <use xlink:href="#DejaVuSans-72" x="367.724609"/>
    </g>
   </g>
   <g id="text_25">
    <!-- Decoder -->
    <g style="fill: #4a4a4a" transform="translate(639.216 375.587437) scale(0.09 -0.09)">
     <use xlink:href="#DejaVuSans-44"/>
     <use xlink:href="#DejaVuSans-65" x="77.001953"/>
     <use xlink:href="#DejaVuSans-63" x="138.525391"/>
     <use xlink:href="#DejaVuSans-6f" x="193.505859"/>
     <use xlink:href="#DejaVuSans-64" x="254.6875"/>
     <use xlink:href="#DejaVuSans-65" x="318.164062"/>
     <use xlink:href="#DejaVuSans-72" x="379.6875"/>
    </g>
   </g>
   <g id="text_26">
    <!-- Alignment -->
    <g style="fill: #4a4a4a" transform="translate(639.216 408.851437) scale(0.09 -0.09)">
     <defs>
      <path id="DejaVuSans-41" d="M 2188 4044 
L 1331 1722 
L 3047 1722 
L 2188 4044 
z
M 1831 4666 
L 2547 4666 
L 4325 0 
L 3669 0 
L 3244 1197 
L 1141 1197 
L 716 0 
L 50 0 
L 1831 4666 
z
" transform="scale(0.015625)"/>
      <path id="DejaVuSans-6c" d="M 603 4863 
L 1178 4863 
L 1178 0 
L 603 0 
L 603 4863 
z
" transform="scale(0.015625)"/>
      <path id="DejaVuSans-69" d="M 603 3500 
L 1178 3500 
L 1178 0 
L 603 0 
L 603 3500 
z
M 603 4863 
L 1178 4863 
L 1178 4134 
L 603 4134 
L 603 4863 
z
" transform="scale(0.015625)"/>
      <path id="DejaVuSans-67" d="M 2906 1791 
Q 2906 2416 2648 2759 
Q 2391 3103 1925 3103 
Q 1463 3103 1205 2759 
Q 947 2416 947 1791 
Q 947 1169 1205 825 
Q 1463 481 1925 481 
Q 2391 481 2648 825 
Q 2906 1169 2906 1791 
z
M 3481 434 
Q 3481 -459 3084 -895 
Q 2688 -1331 1869 -1331 
Q 1566 -1331 1297 -1286 
Q 1028 -1241 775 -1147 
L 775 -588 
Q 1028 -725 1275 -790 
Q 1522 -856 1778 -856 
Q 2344 -856 2625 -561 
Q 2906 -266 2906 331 
L 2906 616 
Q 2728 306 2450 153 
Q 2172 0 1784 0 
Q 1141 0 747 490 
Q 353 981 353 1791 
Q 353 2603 747 3093 
Q 1141 3584 1784 3584 
Q 2172 3584 2450 3431 
Q 2728 3278 2906 2969 
L 2906 3500 
L 3481 3500 
L 3481 434 
z
" transform="scale(0.015625)"/>
      <path id="DejaVuSans-6d" d="M 3328 2828 
Q 3544 3216 3844 3400 
Q 4144 3584 4550 3584 
Q 5097 3584 5394 3201 
Q 5691 2819 5691 2113 
L 5691 0 
L 5113 0 
L 5113 2094 
Q 5113 2597 4934 2840 
Q 4756 3084 4391 3084 
Q 3944 3084 3684 2787 
Q 3425 2491 3425 1978 
L 3425 0 
L 2847 0 
L 2847 2094 
Q 2847 2600 2669 2842 
Q 2491 3084 2119 3084 
Q 1678 3084 1418 2786 
Q 1159 2488 1159 1978 
L 1159 0 
L 581 0 
L 581 3500 
L 1159 3500 
L 1159 2956 
Q 1356 3278 1631 3431 
Q 1906 3584 2284 3584 
Q 2666 3584 2933 3390 
Q 3200 3197 3328 2828 
z
" transform="scale(0.015625)"/>
     </defs>
     <use xlink:href="#DejaVuSans-41"/>
     <use xlink:href="#DejaVuSans-6c" x="68.408203"/>
     <use xlink:href="#DejaVuSans-69" x="96.191406"/>
     <use xlink:href="#DejaVuSans-67" x="123.974609"/>
     <use xlink:href="#DejaVuSans-6e" x="187.451172"/>
     <use xlink:href="#DejaVuSans-6d" x="250.830078"/>
     <use xlink:href="#DejaVuSans-65" x="348.242188"/>
     <use xlink:href="#DejaVuSans-6e" x="409.765625"/>
     <use xlink:href="#DejaVuSans-74" x="473.144531"/>
    </g>
   </g>
   <g id="text_27">
    <!-- Attention Weights -->
    <g style="fill: #4a4a4a" transform="translate(639.216 442.115437) scale(0.09 -0.09)">
     <defs>
      <path id="DejaVuSans-20" transform="scale(0.015625)"/>
      <path id="DejaVuSans-57" d="M 213 4666 
L 850 4666 
L 1831 722 
L 2809 4666 
L 3519 4666 
L 4500 722 
L 5478 4666 
L 6119 4666 
L 4947 0 
L 4153 0 
L 3169 4050 
L 2175 0 
L 1381 0 
L 213 4666 
z
" transform="scale(0.015625)"/>
      <path id="DejaVuSans-68" d="M 3513 2113 
L 3513 0 
L 2938 0 
L 2938 2094 
Q 2938 2591 2744 2837 
Q 2550 3084 2163 3084 
Q 1697 3084 1428 2787 
Q 1159 2491 1159 1978 
L 1159 0 
L 581 0 
L 581 4863 
L 1159 4863 
L 1159 2956 
Q 1366 3272 1645 3428 
Q 1925 3584 2291 3584 
Q 2894 3584 3203 3211 
Q 3513 2838 3513 2113 
z
" transform="scale(0.015625)"/>
      <path id="DejaVuSans-73" d="M 2834 3397 
L 2834 2853 
Q 2591 2978 2328 3040 
Q 2066 3103 1784 3103 
Q 1356 3103 1142 2972 
Q 928 2841 928 2578 
Q 928 2378 1081 2264 
Q 1234 2150 1697 2047 
L 1894 2003 
Q 2506 1872 2764 1633 
Q 3022 1394 3022 966 
Q 3022 478 2636 193 
Q 2250 -91 1575 -91 
Q 1294 -91 989 -36 
Q 684 19 347 128 
L 347 722 
Q 666 556 975 473 
Q 1284 391 1588 391 
Q 1994 391 2212 530 
Q 2431 669 2431 922 
Q 2431 1156 2273 1281 
Q 2116 1406 1581 1522 
L 1381 1569 
Q 847 1681 609 1914 
Q 372 2147 372 2553 
Q 372 3047 722 3315 
Q 1072 3584 1716 3584 
Q 2034 3584 2315 3537 
Q 2597 3491 2834 3397 
z
" transform="scale(0.015625)"/>
     </defs>
     <use xlink:href="#DejaVuSans-41"/>
     <use xlink:href="#DejaVuSans-74" x="66.658203"/>
     <use xlink:href="#DejaVuSans-74" x="105.867188"/>
     <use xlink:href="#DejaVuSans-65" x="145.076172"/>
     <use xlink:href="#DejaVuSans-6e" x="206.599609"/>
     <use xlink:href="#DejaVuSans-74" x="269.978516"/>
     <use xlink:href="#DejaVuSans-69" x="309.1875"/>
     <use xlink:href="#DejaVuSans-6f" x="336.970703"/>
     <use xlink:href="#DejaVuSans-6e" x="398.152344"/>
     <use xlink:href="#DejaVuSans-20" x="461.53125"/>
     <use xlink:href="#DejaVuSans-57" x="493.318359"/>
     <use xlink:href="#DejaVuSans-65" x="586.320312"/>
     <use xlink:href="#DejaVuSans-69" x="647.84375"/>
     <use xlink:href="#DejaVuSans-67" x="675.626953"/>
     <use xlink:href="#DejaVuSans-68" x="739.103516"/>
     <use xlink:href="#DejaVuSans-74" x="802.482422"/>
     <use xlink:href="#DejaVuSans-73" x="841.691406"/>
    </g>
   </g>
  </g>
 </g>
 <defs>
  <clipPath id="p7fabe4426a">
   <rect x="7.2" y="7.2" width="665.28" height="554.4"/>
  </clipPath>
 </defs>
</svg>
