<?xml version="1.0" encoding="utf-8" standalone="no"?>
<!DOCTYPE svg PUBLIC "-//W3C//DTD SVG 1.1//EN"
  "http://www.w3.org/Graphics/SVG/1.1/DTD/svg11.dtd">
<svg xmlns:xlink="http://www.w3.org/1999/xlink" width="470.4pt" height="424.8pt" viewBox="0 0 470.4 424.8" xmlns="http://www.w3.org/2000/svg" version="1.1">
 <metadata>
  <rdf:RDF xmlns:dc="http://purl.org/dc/elements/1.1/" xmlns:cc="http://creativecommons.org/ns#" xmlns:rdf="http://www.w3.org/1999/02/22-rdf-syntax-ns#">
   <cc:Work>
    <dc:type rdf:resource="http://purl.org/dc/dcmitype/StillImage"/>
    <dc:date>2026-01-25T04:25:13.438866</dc:date>
    <dc:format>image/svg+xml</dc:format>
    <dc:creator>
     <cc:Agent>
      <dc:title>Matplotlib v3.8.3, https://matplotlib.org/</dc:title>
     </cc:Agent>
    </dc:creator>
   </cc:Work>
  </rdf:RDF>
 </metadata>
 <defs>
  <style type="text/css">*{stroke-linejoin: round; stroke-linecap: butt}</style>
 </defs>
 <g id="figure_1">
  <g id="patch_1">
   <path d="M 0 424.8 
L 470.4 424.8 
L 470.4 0 
L 0 0 
z
" style="fill: #ffffff"/>
  </g>
  <g id="axes_1">
   <g id="patch_2">
    <path d="M 69.216 223.344 
L 127.584 223.344 
Q 132.144 223.344 132.144 218.784 
L 132.144 196.896 
Q 132.144 192.336 127.584 192.336 
L 69.216 192.336 
Q 64.656 192.336 64.656 196.896 
L 64.656 218.784 
Q 64.656 223.344 69.216 223.344 
z
" clip-path="url(#p06cc25cec3)" style="fill: #6c9bc2; opacity: 0.9"/>
   </g>
   <g id="patch_3">
    <path d="M 196.896 255.264 
L 237.024 255.264 
Q 246.144 255.264 246.144 246.144 
L 246.144 169.536 
Q 246.144 160.416 237.024 160.416 
L 196.896 160.416 
Q 187.776 160.416 187.776 169.536 
L 187.776 246.144 
Q 187.776 255.264 196.896 255.264 
z
" clip-path="url(#p06cc25cec3)" style="fill: #e8d07c; opacity: 0.9"/>
   </g>
   <g id="patch_4">
    <path d="M 288.096 255.264 
L 328.224 255.264 
Q 337.344 255.264 337.344 246.144 
L 337.344 169.536 
Q 337.344 160.416 328.224 160.416 
L 288.096 160.416 
Q 278.976 160.416 278.976 169.536 
L 278.976 246.144 
Q 278.976 255.264 288.096 255.264 
z
" clip-path="url(#p06cc25cec3)" style="fill: #7fb685; opacity: 0.9"/>
   </g>
   <g id="patch_5">
    <path d="M 388.416 141.264 
L 446.784 141.264 
Q 451.344 141.264 451.344 136.704 
L 451.344 114.816 
Q 451.344 110.256 446.784 110.256 
L 388.416 110.256 
Q 383.856 110.256 383.856 114.816 
L 383.856 136.704 
Q 383.856 141.264 388.416 141.264 
z
" clip-path="url(#p06cc25cec3)" style="fill: #e8a87c; opacity: 0.9"/>
   </g>
   <g id="patch_6">
    <path d="M 388.416 195.984 
L 446.784 195.984 
Q 451.344 195.984 451.344 191.424 
L 451.344 169.536 
Q 451.344 164.976 446.784 164.976 
L 388.416 164.976 
Q 383.856 164.976 383.856 169.536 
L 383.856 191.424 
Q 383.856 195.984 388.416 195.984 
z
" clip-path="url(#p06cc25cec3)" style="fill: #e8a87c; opacity: 0.9"/>
   </g>
   <g id="patch_7">
    <path d="M 388.416 250.704 
L 446.784 250.704 
Q 451.344 250.704 451.344 246.144 
L 451.344 224.256 
Q 451.344 219.696 446.784 219.696 
L 388.416 219.696 
Q 383.856 219.696 383.856 224.256 
L 383.856 246.144 
Q 383.856 250.704 388.416 250.704 
z
" clip-path="url(#p06cc25cec3)" style="fill: #e8a87c; opacity: 0.9"/>
   </g>
   <g id="patch_8">
    <path d="M 388.416 305.424 
L 446.784 305.424 
Q 451.344 305.424 451.344 300.864 
L 451.344 278.976 
Q 451.344 274.416 446.784 274.416 
L 388.416 274.416 
Q 383.856 274.416 383.856 278.976 
L 383.856 300.864 
Q 383.856 305.424 388.416 305.424 
z
" clip-path="url(#p06cc25cec3)" style="fill: #e8a87c; opacity: 0.9"/>
   </g>
   <g id="text_1">
    <!-- Skip-gram -->
    <g style="fill: #4a4a4a" transform="translate(194.708281 31.539062) scale(0.14 -0.14)">
     <defs>
      <path id="DejaVuSans-Bold-53" d="M 3834 4519 
L 3834 3531 
Q 3450 3703 3084 3790 
Q 2719 3878 2394 3878 
Q 1963 3878 1756 3759 
Q 1550 3641 1550 3391 
Q 1550 3203 1689 3098 
Q 1828 2994 2194 2919 
L 2706 2816 
Q 3484 2659 3812 2340 
Q 4141 2022 4141 1434 
Q 4141 663 3683 286 
Q 3225 -91 2284 -91 
Q 1841 -91 1394 -6 
Q 947 78 500 244 
L 500 1259 
Q 947 1022 1364 901 
Q 1781 781 2169 781 
Q 2563 781 2772 912 
Q 2981 1044 2981 1288 
Q 2981 1506 2839 1625 
Q 2697 1744 2272 1838 
L 1806 1941 
Q 1106 2091 782 2419 
Q 459 2747 459 3303 
Q 459 4000 909 4375 
Q 1359 4750 2203 4750 
Q 2588 4750 2994 4692 
Q 3400 4634 3834 4519 
z
" transform="scale(0.015625)"/>
      <path id="DejaVuSans-Bold-6b" d="M 538 4863 
L 1656 4863 
L 1656 2216 
L 2944 3500 
L 4244 3500 
L 2534 1894 
L 4378 0 
L 3022 0 
L 1656 1459 
L 1656 0 
L 538 0 
L 538 4863 
z
" transform="scale(0.015625)"/>
      <path id="DejaVuSans-Bold-69" d="M 538 3500 
L 1656 3500 
L 1656 0 
L 538 0 
L 538 3500 
z
M 538 4863 
L 1656 4863 
L 1656 3950 
L 538 3950 
L 538 4863 
z
" transform="scale(0.015625)"/>
      <path id="DejaVuSans-Bold-70" d="M 1656 506 
L 1656 -1331 
L 538 -1331 
L 538 3500 
L 1656 3500 
L 1656 2988 
Q 1888 3294 2169 3439 
Q 2450 3584 2816 3584 
Q 3463 3584 3878 3070 
Q 4294 2556 4294 1747 
Q 4294 938 3878 423 
Q 3463 -91 2816 -91 
Q 2450 -91 2169 54 
Q 1888 200 1656 506 
z
M 2400 2772 
Q 2041 2772 1848 2508 
Q 1656 2244 1656 1747 
Q 1656 1250 1848 986 
Q 2041 722 2400 722 
Q 2759 722 2948 984 
Q 3138 1247 3138 1747 
Q 3138 2247 2948 2509 
Q 2759 2772 2400 2772 
z
" transform="scale(0.015625)"/>
      <path id="DejaVuSans-Bold-2d" d="M 347 2297 
L 2309 2297 
L 2309 1388 
L 347 1388 
L 347 2297 
z
" transform="scale(0.015625)"/>
      <path id="DejaVuSans-Bold-67" d="M 2919 594 
Q 2688 288 2409 144 
Q 2131 0 1766 0 
Q 1125 0 706 504 
Q 288 1009 288 1791 
Q 288 2575 706 3076 
Q 1125 3578 1766 3578 
Q 2131 3578 2409 3434 
Q 2688 3291 2919 2981 
L 2919 3500 
L 4044 3500 
L 4044 353 
Q 4044 -491 3511 -936 
Q 2978 -1381 1966 -1381 
Q 1638 -1381 1331 -1331 
Q 1025 -1281 716 -1178 
L 716 -306 
Q 1009 -475 1290 -558 
Q 1572 -641 1856 -641 
Q 2406 -641 2662 -400 
Q 2919 -159 2919 353 
L 2919 594 
z
M 2181 2772 
Q 1834 2772 1640 2515 
Q 1447 2259 1447 1791 
Q 1447 1309 1634 1061 
Q 1822 813 2181 813 
Q 2531 813 2725 1069 
Q 2919 1325 2919 1791 
Q 2919 2259 2725 2515 
Q 2531 2772 2181 2772 
z
" transform="scale(0.015625)"/>
      <path id="DejaVuSans-Bold-72" d="M 3138 2547 
Q 2991 2616 2845 2648 
Q 2700 2681 2553 2681 
Q 2122 2681 1889 2404 
Q 1656 2128 1656 1613 
L 1656 0 
L 538 0 
L 538 3500 
L 1656 3500 
L 1656 2925 
Q 1872 3269 2151 3426 
Q 2431 3584 2822 3584 
Q 2878 3584 2943 3579 
Q 3009 3575 3134 3559 
L 3138 2547 
z
" transform="scale(0.015625)"/>
      <path id="DejaVuSans-Bold-61" d="M 2106 1575 
Q 1756 1575 1579 1456 
Q 1403 1338 1403 1106 
Q 1403 894 1545 773 
Q 1688 653 1941 653 
Q 2256 653 2472 879 
Q 2688 1106 2688 1447 
L 2688 1575 
L 2106 1575 
z
M 3816 1997 
L 3816 0 
L 2688 0 
L 2688 519 
Q 2463 200 2181 54 
Q 1900 -91 1497 -91 
Q 953 -91 614 226 
Q 275 544 275 1050 
Q 275 1666 698 1953 
Q 1122 2241 2028 2241 
L 2688 2241 
L 2688 2328 
Q 2688 2594 2478 2717 
Q 2269 2841 1825 2841 
Q 1466 2841 1156 2769 
Q 847 2697 581 2553 
L 581 3406 
Q 941 3494 1303 3539 
Q 1666 3584 2028 3584 
Q 2975 3584 3395 3211 
Q 3816 2838 3816 1997 
z
" transform="scale(0.015625)"/>
      <path id="DejaVuSans-Bold-6d" d="M 3781 2919 
Q 3994 3244 4286 3414 
Q 4578 3584 4928 3584 
Q 5531 3584 5847 3212 
Q 6163 2841 6163 2131 
L 6163 0 
L 5038 0 
L 5038 1825 
Q 5041 1866 5042 1909 
Q 5044 1953 5044 2034 
Q 5044 2406 4934 2573 
Q 4825 2741 4581 2741 
Q 4263 2741 4089 2478 
Q 3916 2216 3909 1719 
L 3909 0 
L 2784 0 
L 2784 1825 
Q 2784 2406 2684 2573 
Q 2584 2741 2328 2741 
Q 2006 2741 1831 2477 
Q 1656 2213 1656 1722 
L 1656 0 
L 531 0 
L 531 3500 
L 1656 3500 
L 1656 2988 
Q 1863 3284 2130 3434 
Q 2397 3584 2719 3584 
Q 3081 3584 3359 3409 
Q 3638 3234 3781 2919 
z
" transform="scale(0.015625)"/>
     </defs>
     <use xlink:href="#DejaVuSans-Bold-53"/>
     <use xlink:href="#DejaVuSans-Bold-6b" x="72.021484"/>
     <use xlink:href="#DejaVuSans-Bold-69" x="138.525391"/>
     <use xlink:href="#DejaVuSans-Bold-70" x="172.802734"/>
     <use xlink:href="#DejaVuSans-Bold-2d" x="244.384766"/>
     <use xlink:href="#DejaVuSans-Bold-67" x="285.888672"/>
     <use xlink:href="#DejaVuSans-Bold-72" x="357.470703"/>
     <use xlink:href="#DejaVuSans-Bold-61" x="406.787109"/>
     <use xlink:href="#DejaVuSans-Bold-6d" x="474.267578"/>
    </g>
   </g>
   <g id="text_2">
    <!-- w(t) -->
    <g style="fill: #ffffff" transform="translate(86.820312 210.599375) scale(0.1 -0.1)">
     <defs>
      <path id="DejaVuSans-Bold-77" d="M 225 3500 
L 1313 3500 
L 1900 1088 
L 2491 3500 
L 3425 3500 
L 4013 1113 
L 4603 3500 
L 5691 3500 
L 4769 0 
L 3547 0 
L 2956 2406 
L 2369 0 
L 1147 0 
L 225 3500 
z
" transform="scale(0.015625)"/>
      <path id="DejaVuSans-Bold-28" d="M 2413 -844 
L 1484 -844 
Q 1006 -72 778 623 
Q 550 1319 550 2003 
Q 550 2688 779 3389 
Q 1009 4091 1484 4856 
L 2413 4856 
Q 2013 4116 1813 3408 
Q 1613 2700 1613 2009 
Q 1613 1319 1811 609 
Q 2009 -100 2413 -844 
z
" transform="scale(0.015625)"/>
      <path id="DejaVuSans-Bold-74" d="M 1759 4494 
L 1759 3500 
L 2913 3500 
L 2913 2700 
L 1759 2700 
L 1759 1216 
Q 1759 972 1856 886 
Q 1953 800 2241 800 
L 2816 800 
L 2816 0 
L 1856 0 
Q 1194 0 917 276 
Q 641 553 641 1216 
L 641 2700 
L 84 2700 
L 84 3500 
L 641 3500 
L 641 4494 
L 1759 4494 
z
" transform="scale(0.015625)"/>
      <path id="DejaVuSans-Bold-29" d="M 513 -844 
Q 913 -100 1113 609 
Q 1313 1319 1313 2009 
Q 1313 2700 1113 3408 
Q 913 4116 513 4856 
L 1441 4856 
Q 1916 4091 2145 3389 
Q 2375 2688 2375 2003 
Q 2375 1319 2147 623 
Q 1919 -72 1441 -844 
L 513 -844 
z
" transform="scale(0.015625)"/>
     </defs>
     <use xlink:href="#DejaVuSans-Bold-77"/>
     <use xlink:href="#DejaVuSans-Bold-28" x="92.382812"/>
     <use xlink:href="#DejaVuSans-Bold-74" x="138.085938"/>
     <use xlink:href="#DejaVuSans-Bold-29" x="185.888672"/>
    </g>
   </g>
   <g id="text_3">
    <!-- Input -->
    <g style="fill: #4a4a4a" transform="translate(86.747813 246.598594) scale(0.09 -0.09)">
     <defs>
      <path id="DejaVuSans-49" d="M 628 4666 
L 1259 4666 
L 1259 0 
L 628 0 
L 628 4666 
z
" transform="scale(0.015625)"/>
      <path id="DejaVuSans-6e" d="M 3513 2113 
L 3513 0 
L 2938 0 
L 2938 2094 
Q 2938 2591 2744 2837 
Q 2550 3084 2163 3084 
Q 1697 3084 1428 2787 
Q 1159 2491 1159 1978 
L 1159 0 
L 581 0 
L 581 3500 
L 1159 3500 
L 1159 2956 
Q 1366 3272 1645 3428 
Q 1925 3584 2291 3584 
Q 2894 3584 3203 3211 
Q 3513 2838 3513 2113 
z
" transform="scale(0.015625)"/>
      <path id="DejaVuSans-70" d="M 1159 525 
L 1159 -1331 
L 581 -1331 
L 581 3500 
L 1159 3500 
L 1159 2969 
Q 1341 3281 1617 3432 
Q 1894 3584 2278 3584 
Q 2916 3584 3314 3078 
Q 3713 2572 3713 1747 
Q 3713 922 3314 415 
Q 2916 -91 2278 -91 
Q 1894 -91 1617 61 
Q 1341 213 1159 525 
z
M 3116 1747 
Q 3116 2381 2855 2742 
Q 2594 3103 2138 3103 
Q 1681 3103 1420 2742 
Q 1159 2381 1159 1747 
Q 1159 1113 1420 752 
Q 1681 391 2138 391 
Q 2594 391 2855 752 
Q 3116 1113 3116 1747 
z
" transform="scale(0.015625)"/>
      <path id="DejaVuSans-75" d="M 544 1381 
L 544 3500 
L 1119 3500 
L 1119 1403 
Q 1119 906 1312 657 
Q 1506 409 1894 409 
Q 2359 409 2629 706 
Q 2900 1003 2900 1516 
L 2900 3500 
L 3475 3500 
L 3475 0 
L 2900 0 
L 2900 538 
Q 2691 219 2414 64 
Q 2138 -91 1772 -91 
Q 1169 -91 856 284 
Q 544 659 544 1381 
z
M 1991 3584 
L 1991 3584 
z
" transform="scale(0.015625)"/>
      <path id="DejaVuSans-74" d="M 1172 4494 
L 1172 3500 
L 2356 3500 
L 2356 3053 
L 1172 3053 
L 1172 1153 
Q 1172 725 1289 603 
Q 1406 481 1766 481 
L 2356 481 
L 2356 0 
L 1766 0 
Q 1100 0 847 248 
Q 594 497 594 1153 
L 594 3053 
L 172 3053 
L 172 3500 
L 594 3500 
L 594 4494 
L 1172 4494 
z
" transform="scale(0.015625)"/>
     </defs>
     <use xlink:href="#DejaVuSans-49"/>
     <use xlink:href="#DejaVuSans-6e" x="29.492188"/>
     <use xlink:href="#DejaVuSans-70" x="92.871094"/>
     <use xlink:href="#DejaVuSans-75" x="156.347656"/>
     <use xlink:href="#DejaVuSans-74" x="219.726562"/>
    </g>
    <!-- (Center Word) -->
    <g style="fill: #4a4a4a" transform="translate(66.746016 256.676625) scale(0.09 -0.09)">
     <defs>
      <path id="DejaVuSans-28" d="M 1984 4856 
Q 1566 4138 1362 3434 
Q 1159 2731 1159 2009 
Q 1159 1288 1364 580 
Q 1569 -128 1984 -844 
L 1484 -844 
Q 1016 -109 783 600 
Q 550 1309 550 2009 
Q 550 2706 781 3412 
Q 1013 4119 1484 4856 
L 1984 4856 
z
" transform="scale(0.015625)"/>
      <path id="DejaVuSans-43" d="M 4122 4306 
L 4122 3641 
Q 3803 3938 3442 4084 
Q 3081 4231 2675 4231 
Q 1875 4231 1450 3742 
Q 1025 3253 1025 2328 
Q 1025 1406 1450 917 
Q 1875 428 2675 428 
Q 3081 428 3442 575 
Q 3803 722 4122 1019 
L 4122 359 
Q 3791 134 3420 21 
Q 3050 -91 2638 -91 
Q 1578 -91 968 557 
Q 359 1206 359 2328 
Q 359 3453 968 4101 
Q 1578 4750 2638 4750 
Q 3056 4750 3426 4639 
Q 3797 4528 4122 4306 
z
" transform="scale(0.015625)"/>
      <path id="DejaVuSans-65" d="M 3597 1894 
L 3597 1613 
L 953 1613 
Q 991 1019 1311 708 
Q 1631 397 2203 397 
Q 2534 397 2845 478 
Q 3156 559 3463 722 
L 3463 178 
Q 3153 47 2828 -22 
Q 2503 -91 2169 -91 
Q 1331 -91 842 396 
Q 353 884 353 1716 
Q 353 2575 817 3079 
Q 1281 3584 2069 3584 
Q 2775 3584 3186 3129 
Q 3597 2675 3597 1894 
z
M 3022 2063 
Q 3016 2534 2758 2815 
Q 2500 3097 2075 3097 
Q 1594 3097 1305 2825 
Q 1016 2553 972 2059 
L 3022 2063 
z
" transform="scale(0.015625)"/>
      <path id="DejaVuSans-72" d="M 2631 2963 
Q 2534 3019 2420 3045 
Q 2306 3072 2169 3072 
Q 1681 3072 1420 2755 
Q 1159 2438 1159 1844 
L 1159 0 
L 581 0 
L 581 3500 
L 1159 3500 
L 1159 2956 
Q 1341 3275 1631 3429 
Q 1922 3584 2338 3584 
Q 2397 3584 2469 3576 
Q 2541 3569 2628 3553 
L 2631 2963 
z
" transform="scale(0.015625)"/>
      <path id="DejaVuSans-20" transform="scale(0.015625)"/>
      <path id="DejaVuSans-57" d="M 213 4666 
L 850 4666 
L 1831 722 
L 2809 4666 
L 3519 4666 
L 4500 722 
L 5478 4666 
L 6119 4666 
L 4947 0 
L 4153 0 
L 3169 4050 
L 2175 0 
L 1381 0 
L 213 4666 
z
" transform="scale(0.015625)"/>
      <path id="DejaVuSans-6f" d="M 1959 3097 
Q 1497 3097 1228 2736 
Q 959 2375 959 1747 
Q 959 1119 1226 758 
Q 1494 397 1959 397 
Q 2419 397 2687 759 
Q 2956 1122 2956 1747 
Q 2956 2369 2687 2733 
Q 2419 3097 1959 3097 
z
M 1959 3584 
Q 2709 3584 3137 3096 
Q 3566 2609 3566 1747 
Q 3566 888 3137 398 
Q 2709 -91 1959 -91 
Q 1206 -91 779 398 
Q 353 888 353 1747 
Q 353 2609 779 3096 
Q 1206 3584 1959 3584 
z
" transform="scale(0.015625)"/>
      <path id="DejaVuSans-64" d="M 2906 2969 
L 2906 4863 
L 3481 4863 
L 3481 0 
L 2906 0 
L 2906 525 
Q 2725 213 2448 61 
Q 2172 -91 1784 -91 
Q 1150 -91 751 415 
Q 353 922 353 1747 
Q 353 2572 751 3078 
Q 1150 3584 1784 3584 
Q 2172 3584 2448 3432 
Q 2725 3281 2906 2969 
z
M 947 1747 
Q 947 1113 1208 752 
Q 1469 391 1925 391 
Q 2381 391 2643 752 
Q 2906 1113 2906 1747 
Q 2906 2381 2643 2742 
Q 2381 3103 1925 3103 
Q 1469 3103 1208 2742 
Q 947 2381 947 1747 
z
" transform="scale(0.015625)"/>
      <path id="DejaVuSans-29" d="M 513 4856 
L 1013 4856 
Q 1481 4119 1714 3412 
Q 1947 2706 1947 2009 
Q 1947 1309 1714 600 
Q 1481 -109 1013 -844 
L 513 -844 
Q 928 -128 1133 580 
Q 1338 1288 1338 2009 
Q 1338 2731 1133 3434 
Q 928 4138 513 4856 
z
" transform="scale(0.015625)"/>
     </defs>
     <use xlink:href="#DejaVuSans-28"/>
     <use xlink:href="#DejaVuSans-43" x="39.013672"/>
     <use xlink:href="#DejaVuSans-65" x="108.837891"/>
     <use xlink:href="#DejaVuSans-6e" x="170.361328"/>
     <use xlink:href="#DejaVuSans-74" x="233.740234"/>
     <use xlink:href="#DejaVuSans-65" x="272.949219"/>
     <use xlink:href="#DejaVuSans-72" x="334.472656"/>
     <use xlink:href="#DejaVuSans-20" x="375.585938"/>
     <use xlink:href="#DejaVuSans-57" x="407.373047"/>
     <use xlink:href="#DejaVuSans-6f" x="500.375"/>
     <use xlink:href="#DejaVuSans-72" x="561.556641"/>
     <use xlink:href="#DejaVuSans-64" x="600.919922"/>
     <use xlink:href="#DejaVuSans-29" x="664.396484"/>
    </g>
   </g>
   <g id="text_4">
    <!-- Projection -->
    <g style="fill: #4a4a4a" transform="translate(194.710313 278.518594) scale(0.09 -0.09)">
     <defs>
      <path id="DejaVuSans-50" d="M 1259 4147 
L 1259 2394 
L 2053 2394 
Q 2494 2394 2734 2622 
Q 2975 2850 2975 3272 
Q 2975 3691 2734 3919 
Q 2494 4147 2053 4147 
L 1259 4147 
z
M 628 4666 
L 2053 4666 
Q 2838 4666 3239 4311 
Q 3641 3956 3641 3272 
Q 3641 2581 3239 2228 
Q 2838 1875 2053 1875 
L 1259 1875 
L 1259 0 
L 628 0 
L 628 4666 
z
" transform="scale(0.015625)"/>
      <path id="DejaVuSans-6a" d="M 603 3500 
L 1178 3500 
L 1178 -63 
Q 1178 -731 923 -1031 
Q 669 -1331 103 -1331 
L -116 -1331 
L -116 -844 
L 38 -844 
Q 366 -844 484 -692 
Q 603 -541 603 -63 
L 603 3500 
z
M 603 4863 
L 1178 4863 
L 1178 4134 
L 603 4134 
L 603 4863 
z
" transform="scale(0.015625)"/>
      <path id="DejaVuSans-63" d="M 3122 3366 
L 3122 2828 
Q 2878 2963 2633 3030 
Q 2388 3097 2138 3097 
Q 1578 3097 1268 2742 
Q 959 2388 959 1747 
Q 959 1106 1268 751 
Q 1578 397 2138 397 
Q 2388 397 2633 464 
Q 2878 531 3122 666 
L 3122 134 
Q 2881 22 2623 -34 
Q 2366 -91 2075 -91 
Q 1284 -91 818 406 
Q 353 903 353 1747 
Q 353 2603 823 3093 
Q 1294 3584 2113 3584 
Q 2378 3584 2631 3529 
Q 2884 3475 3122 3366 
z
" transform="scale(0.015625)"/>
      <path id="DejaVuSans-69" d="M 603 3500 
L 1178 3500 
L 1178 0 
L 603 0 
L 603 3500 
z
M 603 4863 
L 1178 4863 
L 1178 4134 
L 603 4134 
L 603 4863 
z
" transform="scale(0.015625)"/>
     </defs>
     <use xlink:href="#DejaVuSans-50"/>
     <use xlink:href="#DejaVuSans-72" x="58.552734"/>
     <use xlink:href="#DejaVuSans-6f" x="97.416016"/>
     <use xlink:href="#DejaVuSans-6a" x="158.597656"/>
     <use xlink:href="#DejaVuSans-65" x="186.380859"/>
     <use xlink:href="#DejaVuSans-63" x="247.904297"/>
     <use xlink:href="#DejaVuSans-74" x="302.884766"/>
     <use xlink:href="#DejaVuSans-69" x="342.09375"/>
     <use xlink:href="#DejaVuSans-6f" x="369.876953"/>
     <use xlink:href="#DejaVuSans-6e" x="431.058594"/>
    </g>
    <!-- Layer -->
    <g style="fill: #4a4a4a" transform="translate(204.412734 288.596625) scale(0.09 -0.09)">
     <defs>
      <path id="DejaVuSans-4c" d="M 628 4666 
L 1259 4666 
L 1259 531 
L 3531 531 
L 3531 0 
L 628 0 
L 628 4666 
z
" transform="scale(0.015625)"/>
      <path id="DejaVuSans-61" d="M 2194 1759 
Q 1497 1759 1228 1600 
Q 959 1441 959 1056 
Q 959 750 1161 570 
Q 1363 391 1709 391 
Q 2188 391 2477 730 
Q 2766 1069 2766 1631 
L 2766 1759 
L 2194 1759 
z
M 3341 1997 
L 3341 0 
L 2766 0 
L 2766 531 
Q 2569 213 2275 61 
Q 1981 -91 1556 -91 
Q 1019 -91 701 211 
Q 384 513 384 1019 
Q 384 1609 779 1909 
Q 1175 2209 1959 2209 
L 2766 2209 
L 2766 2266 
Q 2766 2663 2505 2880 
Q 2244 3097 1772 3097 
Q 1472 3097 1187 3025 
Q 903 2953 641 2809 
L 641 3341 
Q 956 3463 1253 3523 
Q 1550 3584 1831 3584 
Q 2591 3584 2966 3190 
Q 3341 2797 3341 1997 
z
" transform="scale(0.015625)"/>
      <path id="DejaVuSans-79" d="M 2059 -325 
Q 1816 -950 1584 -1140 
Q 1353 -1331 966 -1331 
L 506 -1331 
L 506 -850 
L 844 -850 
Q 1081 -850 1212 -737 
Q 1344 -625 1503 -206 
L 1606 56 
L 191 3500 
L 800 3500 
L 1894 763 
L 2988 3500 
L 3597 3500 
L 2059 -325 
z
" transform="scale(0.015625)"/>
     </defs>
     <use xlink:href="#DejaVuSans-4c"/>
     <use xlink:href="#DejaVuSans-61" x="55.712891"/>
     <use xlink:href="#DejaVuSans-79" x="116.992188"/>
     <use xlink:href="#DejaVuSans-65" x="176.171875"/>
     <use xlink:href="#DejaVuSans-72" x="237.695312"/>
    </g>
   </g>
   <g id="patch_9">
    <path d="M 136.879175 207.84 
Q 159.958686 207.84 181.361147 207.84 
" style="fill: none; stroke: #888888; stroke-width: 1.5; stroke-linecap: round"/>
    <path d="M 177.361147 205.84 
L 181.361147 207.84 
L 177.361147 209.84 
" style="fill: none; stroke: #888888; stroke-width: 1.5; stroke-linecap: round"/>
   </g>
   <g id="text_5">
    <!-- Hidden -->
    <g style="fill: #4a4a4a" transform="translate(292.191328 278.518594) scale(0.09 -0.09)">
     <defs>
      <path id="DejaVuSans-48" d="M 628 4666 
L 1259 4666 
L 1259 2753 
L 3553 2753 
L 3553 4666 
L 4184 4666 
L 4184 0 
L 3553 0 
L 3553 2222 
L 1259 2222 
L 1259 0 
L 628 0 
L 628 4666 
z
" transform="scale(0.015625)"/>
     </defs>
     <use xlink:href="#DejaVuSans-48"/>
     <use xlink:href="#DejaVuSans-69" x="75.195312"/>
     <use xlink:href="#DejaVuSans-64" x="102.978516"/>
     <use xlink:href="#DejaVuSans-64" x="166.455078"/>
     <use xlink:href="#DejaVuSans-65" x="229.931641"/>
     <use xlink:href="#DejaVuSans-6e" x="291.455078"/>
    </g>
    <!-- Layer -->
    <g style="fill: #4a4a4a" transform="translate(295.612734 288.596625) scale(0.09 -0.09)">
     <use xlink:href="#DejaVuSans-4c"/>
     <use xlink:href="#DejaVuSans-61" x="55.712891"/>
     <use xlink:href="#DejaVuSans-79" x="116.992188"/>
     <use xlink:href="#DejaVuSans-65" x="176.171875"/>
     <use xlink:href="#DejaVuSans-72" x="237.695312"/>
    </g>
   </g>
   <g id="patch_10">
    <path d="M 250.880566 207.84 
Q 262.558846 207.84 272.560074 207.84 
" style="fill: none; stroke: #888888; stroke-width: 1.5; stroke-linecap: round"/>
    <path d="M 268.560074 205.84 
L 272.560074 207.84 
L 268.560074 209.84 
" style="fill: none; stroke: #888888; stroke-width: 1.5; stroke-linecap: round"/>
   </g>
   <g id="text_6">
    <!-- w(t-2) -->
    <g style="fill: #ffffff" transform="translate(400.466406 128.519375) scale(0.1 -0.1)">
     <defs>
      <path id="DejaVuSans-Bold-32" d="M 1844 884 
L 3897 884 
L 3897 0 
L 506 0 
L 506 884 
L 2209 2388 
Q 2438 2594 2547 2791 
Q 2656 2988 2656 3200 
Q 2656 3528 2436 3728 
Q 2216 3928 1850 3928 
Q 1569 3928 1234 3808 
Q 900 3688 519 3450 
L 519 4475 
Q 925 4609 1322 4679 
Q 1719 4750 2100 4750 
Q 2938 4750 3402 4381 
Q 3866 4013 3866 3353 
Q 3866 2972 3669 2642 
Q 3472 2313 2841 1759 
L 1844 884 
z
" transform="scale(0.015625)"/>
     </defs>
     <use xlink:href="#DejaVuSans-Bold-77"/>
     <use xlink:href="#DejaVuSans-Bold-28" x="92.382812"/>
     <use xlink:href="#DejaVuSans-Bold-74" x="138.085938"/>
     <use xlink:href="#DejaVuSans-Bold-2d" x="185.888672"/>
     <use xlink:href="#DejaVuSans-Bold-32" x="227.392578"/>
     <use xlink:href="#DejaVuSans-Bold-29" x="296.972656"/>
    </g>
   </g>
   <g id="patch_11">
    <path d="M 340.975496 206.049009 
Q 360.599969 166.800062 379.474442 129.051115 
" style="fill: none; stroke: #888888; stroke-width: 1.5; stroke-linecap: round"/>
    <path d="M 375.896734 131.734397 
L 379.474442 129.051115 
L 379.474442 133.523251 
" style="fill: none; stroke: #888888; stroke-width: 1.5; stroke-linecap: round"/>
   </g>
   <g id="text_7">
    <!-- w(t-1) -->
    <g style="fill: #ffffff" transform="translate(400.466406 183.239375) scale(0.1 -0.1)">
     <defs>
      <path id="DejaVuSans-Bold-31" d="M 750 831 
L 1813 831 
L 1813 3847 
L 722 3622 
L 722 4441 
L 1806 4666 
L 2950 4666 
L 2950 831 
L 4013 831 
L 4013 0 
L 750 0 
L 750 831 
z
" transform="scale(0.015625)"/>
     </defs>
     <use xlink:href="#DejaVuSans-Bold-77"/>
     <use xlink:href="#DejaVuSans-Bold-28" x="92.382812"/>
     <use xlink:href="#DejaVuSans-Bold-74" x="138.085938"/>
     <use xlink:href="#DejaVuSans-Bold-2d" x="185.888672"/>
     <use xlink:href="#DejaVuSans-Bold-31" x="227.392578"/>
     <use xlink:href="#DejaVuSans-Bold-29" x="296.972656"/>
    </g>
   </g>
   <g id="patch_12">
    <path d="M 341.745747 206.729502 
Q 360.60016 194.159893 378.059182 182.520545 
" style="fill: none; stroke: #888888; stroke-width: 1.5; stroke-linecap: round"/>
    <path d="M 373.621581 183.075245 
L 378.059182 182.520545 
L 375.840381 186.403447 
" style="fill: none; stroke: #888888; stroke-width: 1.5; stroke-linecap: round"/>
   </g>
   <g id="text_8">
    <!-- w(t+1) -->
    <g style="fill: #ffffff" transform="translate(398.351562 237.959375) scale(0.1 -0.1)">
     <defs>
      <path id="DejaVuSans-Bold-2b" d="M 3053 4013 
L 3053 2375 
L 4684 2375 
L 4684 1638 
L 3053 1638 
L 3053 0 
L 2309 0 
L 2309 1638 
L 678 1638 
L 678 2375 
L 2309 2375 
L 2309 4013 
L 3053 4013 
z
" transform="scale(0.015625)"/>
     </defs>
     <use xlink:href="#DejaVuSans-Bold-77"/>
     <use xlink:href="#DejaVuSans-Bold-28" x="92.382812"/>
     <use xlink:href="#DejaVuSans-Bold-74" x="138.085938"/>
     <use xlink:href="#DejaVuSans-Bold-2b" x="185.888672"/>
     <use xlink:href="#DejaVuSans-Bold-31" x="269.677734"/>
     <use xlink:href="#DejaVuSans-Bold-29" x="339.257812"/>
    </g>
   </g>
   <g id="patch_13">
    <path d="M 341.745747 208.950498 
Q 360.60016 221.520107 378.059182 233.159455 
" style="fill: none; stroke: #888888; stroke-width: 1.5; stroke-linecap: round"/>
    <path d="M 375.840381 229.276553 
L 378.059182 233.159455 
L 373.621581 232.604755 
" style="fill: none; stroke: #888888; stroke-width: 1.5; stroke-linecap: round"/>
   </g>
   <g id="text_9">
    <!-- w(t+2) -->
    <g style="fill: #ffffff" transform="translate(398.351562 292.679375) scale(0.1 -0.1)">
     <use xlink:href="#DejaVuSans-Bold-77"/>
     <use xlink:href="#DejaVuSans-Bold-28" x="92.382812"/>
     <use xlink:href="#DejaVuSans-Bold-74" x="138.085938"/>
     <use xlink:href="#DejaVuSans-Bold-2b" x="185.888672"/>
     <use xlink:href="#DejaVuSans-Bold-32" x="269.677734"/>
     <use xlink:href="#DejaVuSans-Bold-29" x="339.257812"/>
    </g>
   </g>
   <g id="patch_14">
    <path d="M 340.975496 209.630991 
Q 360.599969 248.879938 379.474442 286.628885 
" style="fill: none; stroke: #888888; stroke-width: 1.5; stroke-linecap: round"/>
    <path d="M 379.474442 282.156749 
L 379.474442 286.628885 
L 375.896734 283.945603 
" style="fill: none; stroke: #888888; stroke-width: 1.5; stroke-linecap: round"/>
   </g>
   <g id="text_10">
    <!-- Output Layer -->
    <g style="fill: #4a4a4a" transform="translate(387.991406 360.598594) scale(0.09 -0.09)">
     <defs>
      <path id="DejaVuSans-4f" d="M 2522 4238 
Q 1834 4238 1429 3725 
Q 1025 3213 1025 2328 
Q 1025 1447 1429 934 
Q 1834 422 2522 422 
Q 3209 422 3611 934 
Q 4013 1447 4013 2328 
Q 4013 3213 3611 3725 
Q 3209 4238 2522 4238 
z
M 2522 4750 
Q 3503 4750 4090 4092 
Q 4678 3434 4678 2328 
Q 4678 1225 4090 567 
Q 3503 -91 2522 -91 
Q 1538 -91 948 565 
Q 359 1222 359 2328 
Q 359 3434 948 4092 
Q 1538 4750 2522 4750 
z
" transform="scale(0.015625)"/>
     </defs>
     <use xlink:href="#DejaVuSans-4f"/>
     <use xlink:href="#DejaVuSans-75" x="78.710938"/>
     <use xlink:href="#DejaVuSans-74" x="142.089844"/>
     <use xlink:href="#DejaVuSans-70" x="181.298828"/>
     <use xlink:href="#DejaVuSans-75" x="244.775391"/>
     <use xlink:href="#DejaVuSans-74" x="308.154297"/>
     <use xlink:href="#DejaVuSans-20" x="347.363281"/>
     <use xlink:href="#DejaVuSans-4c" x="379.150391"/>
     <use xlink:href="#DejaVuSans-61" x="434.863281"/>
     <use xlink:href="#DejaVuSans-79" x="496.142578"/>
     <use xlink:href="#DejaVuSans-65" x="555.322266"/>
     <use xlink:href="#DejaVuSans-72" x="616.845703"/>
    </g>
    <!-- (Context Words) -->
    <g style="fill: #4a4a4a" transform="translate(381.118359 370.676625) scale(0.09 -0.09)">
     <defs>
      <path id="DejaVuSans-78" d="M 3513 3500 
L 2247 1797 
L 3578 0 
L 2900 0 
L 1881 1375 
L 863 0 
L 184 0 
L 1544 1831 
L 300 3500 
L 978 3500 
L 1906 2253 
L 2834 3500 
L 3513 3500 
z
" transform="scale(0.015625)"/>
      <path id="DejaVuSans-73" d="M 2834 3397 
L 2834 2853 
Q 2591 2978 2328 3040 
Q 2066 3103 1784 3103 
Q 1356 3103 1142 2972 
Q 928 2841 928 2578 
Q 928 2378 1081 2264 
Q 1234 2150 1697 2047 
L 1894 2003 
Q 2506 1872 2764 1633 
Q 3022 1394 3022 966 
Q 3022 478 2636 193 
Q 2250 -91 1575 -91 
Q 1294 -91 989 -36 
Q 684 19 347 128 
L 347 722 
Q 666 556 975 473 
Q 1284 391 1588 391 
Q 1994 391 2212 530 
Q 2431 669 2431 922 
Q 2431 1156 2273 1281 
Q 2116 1406 1581 1522 
L 1381 1569 
Q 847 1681 609 1914 
Q 372 2147 372 2553 
Q 372 3047 722 3315 
Q 1072 3584 1716 3584 
Q 2034 3584 2315 3537 
Q 2597 3491 2834 3397 
z
" transform="scale(0.015625)"/>
     </defs>
     <use xlink:href="#DejaVuSans-28"/>
     <use xlink:href="#DejaVuSans-43" x="39.013672"/>
     <use xlink:href="#DejaVuSans-6f" x="108.837891"/>
     <use xlink:href="#DejaVuSans-6e" x="170.019531"/>
     <use xlink:href="#DejaVuSans-74" x="233.398438"/>
     <use xlink:href="#DejaVuSans-65" x="272.607422"/>
     <use xlink:href="#DejaVuSans-78" x="332.380859"/>
     <use xlink:href="#DejaVuSans-74" x="391.560547"/>
     <use xlink:href="#DejaVuSans-20" x="430.769531"/>
     <use xlink:href="#DejaVuSans-57" x="462.556641"/>
     <use xlink:href="#DejaVuSans-6f" x="555.558594"/>
     <use xlink:href="#DejaVuSans-72" x="616.740234"/>
     <use xlink:href="#DejaVuSans-64" x="656.103516"/>
     <use xlink:href="#DejaVuSans-73" x="719.580078"/>
     <use xlink:href="#DejaVuSans-29" x="771.679688"/>
    </g>
   </g>
   <g id="text_11">
    <!-- W -->
    <g style="fill: #4a4a4a" transform="translate(152.73625 183.239375) scale(0.1 -0.1)">
     <defs>
      <path id="DejaVuSans-Oblique-57" d="M 616 4666 
L 1228 4666 
L 1453 697 
L 3213 4666 
L 3916 4666 
L 4147 697 
L 5888 4666 
L 6528 4666 
L 4453 0 
L 3659 0 
L 3444 3891 
L 1697 0 
L 903 0 
L 616 4666 
z
" transform="scale(0.015625)"/>
     </defs>
     <use xlink:href="#DejaVuSans-Oblique-57"/>
    </g>
   </g>
   <g id="text_12">
    <!-- W' -->
    <g style="fill: #4a4a4a" transform="translate(356.562031 146.759375) scale(0.1 -0.1)">
     <defs>
      <path id="DejaVuSans-Oblique-27" d="M 1147 4666 
L 1147 2931 
L 616 2931 
L 616 4666 
L 1147 4666 
z
" transform="scale(0.015625)"/>
     </defs>
     <use xlink:href="#DejaVuSans-Oblique-57"/>
     <use xlink:href="#DejaVuSans-Oblique-27" x="98.876953"/>
    </g>
   </g>
  </g>
 </g>
 <defs>
  <clipPath id="p06cc25cec3">
   <rect x="7.2" y="7.2" width="456" height="410.4"/>
  </clipPath>
 </defs>
</svg>
