<?xml version="1.0" encoding="utf-8" standalone="no"?>
<!DOCTYPE svg PUBLIC "-//W3C//DTD SVG 1.1//EN"
  "http://www.w3.org/Graphics/SVG/1.1/DTD/svg11.dtd">
<svg xmlns:xlink="http://www.w3.org/1999/xlink" width="969pt" height="424.8pt" viewBox="0 0 969 424.8" xmlns="http://www.w3.org/2000/svg" version="1.1">
 <metadata>
  <rdf:RDF xmlns:dc="http://purl.org/dc/elements/1.1/" xmlns:cc="http://creativecommons.org/ns#" xmlns:rdf="http://www.w3.org/1999/02/22-rdf-syntax-ns#">
   <cc:Work>
    <dc:type rdf:resource="http://purl.org/dc/dcmitype/StillImage"/>
    <dc:date>2026-01-25T04:25:14.093373</dc:date>
    <dc:format>image/svg+xml</dc:format>
    <dc:creator>
     <cc:Agent>
      <dc:title>Matplotlib v3.8.3, https://matplotlib.org/</dc:title>
     </cc:Agent>
    </dc:creator>
   </cc:Work>
  </rdf:RDF>
 </metadata>
 <defs>
  <style type="text/css">*{stroke-linejoin: round; stroke-linecap: butt}</style>
 </defs>
 <g id="figure_1">
  <g id="patch_1">
   <path d="M 0 424.8 
L 969 424.8 
L 969 0 
L 0 0 
z
" style="fill: #ffffff"/>
  </g>
  <g id="axes_1">
   <g id="patch_2">
    <path d="M 69.216 141.264 
L 127.584 141.264 
Q 132.144 141.264 132.144 136.704 
L 132.144 114.816 
Q 132.144 110.256 127.584 110.256 
L 69.216 110.256 
Q 64.656 110.256 64.656 114.816 
L 64.656 136.704 
Q 64.656 141.264 69.216 141.264 
z
" clip-path="url(#p9368ea4b3c)" style="fill: #6c9bc2; opacity: 0.9"/>
   </g>
   <g id="patch_3">
    <path d="M 69.216 195.984 
L 127.584 195.984 
Q 132.144 195.984 132.144 191.424 
L 132.144 169.536 
Q 132.144 164.976 127.584 164.976 
L 69.216 164.976 
Q 64.656 164.976 64.656 169.536 
L 64.656 191.424 
Q 64.656 195.984 69.216 195.984 
z
" clip-path="url(#p9368ea4b3c)" style="fill: #6c9bc2; opacity: 0.9"/>
   </g>
   <g id="patch_4">
    <path d="M 69.216 250.704 
L 127.584 250.704 
Q 132.144 250.704 132.144 246.144 
L 132.144 224.256 
Q 132.144 219.696 127.584 219.696 
L 69.216 219.696 
Q 64.656 219.696 64.656 224.256 
L 64.656 246.144 
Q 64.656 250.704 69.216 250.704 
z
" clip-path="url(#p9368ea4b3c)" style="fill: #6c9bc2; opacity: 0.9"/>
   </g>
   <g id="patch_5">
    <path d="M 69.216 305.424 
L 127.584 305.424 
Q 132.144 305.424 132.144 300.864 
L 132.144 278.976 
Q 132.144 274.416 127.584 274.416 
L 69.216 274.416 
Q 64.656 274.416 64.656 278.976 
L 64.656 300.864 
Q 64.656 305.424 69.216 305.424 
z
" clip-path="url(#p9368ea4b3c)" style="fill: #6c9bc2; opacity: 0.9"/>
   </g>
   <g id="patch_6">
    <path d="M 210.576 246.144 
L 259.824 246.144 
Q 268.944 246.144 268.944 237.024 
L 268.944 178.656 
Q 268.944 169.536 259.824 169.536 
L 210.576 169.536 
Q 201.456 169.536 201.456 178.656 
L 201.456 237.024 
Q 201.456 246.144 210.576 246.144 
z
" clip-path="url(#p9368ea4b3c)" style="fill: #7fb685; opacity: 0.9"/>
   </g>
   <g id="patch_7">
    <path d="M 342.816 223.344 
L 401.184 223.344 
Q 405.744 223.344 405.744 218.784 
L 405.744 196.896 
Q 405.744 192.336 401.184 192.336 
L 342.816 192.336 
Q 338.256 192.336 338.256 196.896 
L 338.256 218.784 
Q 338.256 223.344 342.816 223.344 
z
" clip-path="url(#p9368ea4b3c)" style="fill: #e8a87c; opacity: 0.9"/>
   </g>
   <g id="text_1">
    <!-- CBOW -->
    <g style="fill: #4a4a4a" transform="translate(207.60625 31.2325) scale(0.16 -0.16)">
     <defs>
      <path id="DejaVuSans-Bold-43" d="M 4288 256 
Q 3956 84 3597 -3 
Q 3238 -91 2847 -91 
Q 1681 -91 1000 561 
Q 319 1213 319 2328 
Q 319 3447 1000 4098 
Q 1681 4750 2847 4750 
Q 3238 4750 3597 4662 
Q 3956 4575 4288 4403 
L 4288 3438 
Q 3953 3666 3628 3772 
Q 3303 3878 2944 3878 
Q 2300 3878 1931 3465 
Q 1563 3053 1563 2328 
Q 1563 1606 1931 1193 
Q 2300 781 2944 781 
Q 3303 781 3628 887 
Q 3953 994 4288 1222 
L 4288 256 
z
" transform="scale(0.015625)"/>
      <path id="DejaVuSans-Bold-42" d="M 2456 2859 
Q 2741 2859 2887 2984 
Q 3034 3109 3034 3353 
Q 3034 3594 2887 3720 
Q 2741 3847 2456 3847 
L 1791 3847 
L 1791 2859 
L 2456 2859 
z
M 2497 819 
Q 2859 819 3042 972 
Q 3225 1125 3225 1434 
Q 3225 1738 3044 1889 
Q 2863 2041 2497 2041 
L 1791 2041 
L 1791 819 
L 2497 819 
z
M 3616 2497 
Q 4003 2384 4215 2081 
Q 4428 1778 4428 1338 
Q 4428 663 3972 331 
Q 3516 0 2584 0 
L 588 0 
L 588 4666 
L 2394 4666 
Q 3366 4666 3802 4372 
Q 4238 4078 4238 3431 
Q 4238 3091 4078 2852 
Q 3919 2613 3616 2497 
z
" transform="scale(0.015625)"/>
      <path id="DejaVuSans-Bold-4f" d="M 2719 3878 
Q 2169 3878 1866 3472 
Q 1563 3066 1563 2328 
Q 1563 1594 1866 1187 
Q 2169 781 2719 781 
Q 3272 781 3575 1187 
Q 3878 1594 3878 2328 
Q 3878 3066 3575 3472 
Q 3272 3878 2719 3878 
z
M 2719 4750 
Q 3844 4750 4481 4106 
Q 5119 3463 5119 2328 
Q 5119 1197 4481 553 
Q 3844 -91 2719 -91 
Q 1597 -91 958 553 
Q 319 1197 319 2328 
Q 319 3463 958 4106 
Q 1597 4750 2719 4750 
z
" transform="scale(0.015625)"/>
      <path id="DejaVuSans-Bold-57" d="M 191 4666 
L 1344 4666 
L 2150 1275 
L 2950 4666 
L 4109 4666 
L 4909 1275 
L 5716 4666 
L 6859 4666 
L 5759 0 
L 4372 0 
L 3525 3547 
L 2688 0 
L 1300 0 
L 191 4666 
z
" transform="scale(0.015625)"/>
     </defs>
     <use xlink:href="#DejaVuSans-Bold-43"/>
     <use xlink:href="#DejaVuSans-Bold-42" x="73.388672"/>
     <use xlink:href="#DejaVuSans-Bold-4f" x="149.609375"/>
     <use xlink:href="#DejaVuSans-Bold-57" x="234.619141"/>
    </g>
   </g>
   <g id="text_2">
    <!-- Predict center word from context -->
    <g style="fill: #666666" transform="translate(152.280469 69.518438) scale(0.1 -0.1)">
     <defs>
      <path id="DejaVuSans-Oblique-50" d="M 1081 4666 
L 2541 4666 
Q 3178 4666 3512 4369 
Q 3847 4072 3847 3500 
Q 3847 2731 3353 2303 
Q 2859 1875 1966 1875 
L 1172 1875 
L 806 0 
L 172 0 
L 1081 4666 
z
M 1613 4147 
L 1275 2394 
L 2069 2394 
Q 2606 2394 2893 2669 
Q 3181 2944 3181 3456 
Q 3181 3784 2986 3965 
Q 2791 4147 2438 4147 
L 1613 4147 
z
" transform="scale(0.015625)"/>
      <path id="DejaVuSans-Oblique-72" d="M 2853 2969 
Q 2766 3016 2653 3041 
Q 2541 3066 2413 3066 
Q 1953 3066 1609 2717 
Q 1266 2369 1153 1784 
L 800 0 
L 225 0 
L 909 3500 
L 1484 3500 
L 1375 2956 
Q 1603 3259 1920 3421 
Q 2238 3584 2597 3584 
Q 2691 3584 2781 3573 
Q 2872 3563 2963 3538 
L 2853 2969 
z
" transform="scale(0.015625)"/>
      <path id="DejaVuSans-Oblique-65" d="M 3078 2063 
Q 3088 2113 3092 2166 
Q 3097 2219 3097 2272 
Q 3097 2653 2873 2875 
Q 2650 3097 2266 3097 
Q 1838 3097 1509 2826 
Q 1181 2556 1013 2059 
L 3078 2063 
z
M 3578 1613 
L 903 1613 
Q 884 1494 878 1425 
Q 872 1356 872 1306 
Q 872 872 1139 634 
Q 1406 397 1894 397 
Q 2269 397 2603 481 
Q 2938 566 3225 728 
L 3116 159 
Q 2806 34 2476 -28 
Q 2147 -91 1806 -91 
Q 1078 -91 686 257 
Q 294 606 294 1247 
Q 294 1794 489 2264 
Q 684 2734 1063 3103 
Q 1306 3334 1642 3459 
Q 1978 3584 2356 3584 
Q 2950 3584 3301 3228 
Q 3653 2872 3653 2272 
Q 3653 2128 3634 1964 
Q 3616 1800 3578 1613 
z
" transform="scale(0.015625)"/>
      <path id="DejaVuSans-Oblique-64" d="M 2675 525 
Q 2444 222 2128 65 
Q 1813 -91 1428 -91 
Q 903 -91 598 267 
Q 294 625 294 1247 
Q 294 1766 478 2236 
Q 663 2706 1013 3078 
Q 1244 3325 1534 3454 
Q 1825 3584 2144 3584 
Q 2481 3584 2739 3421 
Q 2997 3259 3138 2956 
L 3513 4863 
L 4091 4863 
L 3144 0 
L 2566 0 
L 2675 525 
z
M 891 1350 
Q 891 897 1095 644 
Q 1300 391 1663 391 
Q 1931 391 2161 520 
Q 2391 650 2566 903 
Q 2750 1166 2856 1509 
Q 2963 1853 2963 2188 
Q 2963 2622 2758 2865 
Q 2553 3109 2194 3109 
Q 1922 3109 1687 2981 
Q 1453 2853 1288 2613 
Q 1106 2353 998 2009 
Q 891 1666 891 1350 
z
" transform="scale(0.015625)"/>
      <path id="DejaVuSans-Oblique-69" d="M 1172 4863 
L 1747 4863 
L 1606 4134 
L 1031 4134 
L 1172 4863 
z
M 909 3500 
L 1484 3500 
L 800 0 
L 225 0 
L 909 3500 
z
" transform="scale(0.015625)"/>
      <path id="DejaVuSans-Oblique-63" d="M 3431 3366 
L 3316 2797 
Q 3109 2947 2876 3022 
Q 2644 3097 2394 3097 
Q 2119 3097 1870 3000 
Q 1622 2903 1453 2725 
Q 1184 2453 1037 2087 
Q 891 1722 891 1331 
Q 891 859 1127 628 
Q 1363 397 1844 397 
Q 2081 397 2348 469 
Q 2616 541 2906 684 
L 2797 116 
Q 2547 13 2283 -39 
Q 2019 -91 1741 -91 
Q 1044 -91 669 257 
Q 294 606 294 1253 
Q 294 1797 489 2255 
Q 684 2713 1069 3078 
Q 1331 3328 1684 3456 
Q 2038 3584 2456 3584 
Q 2700 3584 2940 3529 
Q 3181 3475 3431 3366 
z
" transform="scale(0.015625)"/>
      <path id="DejaVuSans-Oblique-74" d="M 2706 3500 
L 2619 3053 
L 1472 3053 
L 1100 1153 
Q 1081 1047 1072 975 
Q 1063 903 1063 863 
Q 1063 663 1183 572 
Q 1303 481 1569 481 
L 2150 481 
L 2053 0 
L 1503 0 
Q 991 0 739 200 
Q 488 400 488 806 
Q 488 878 497 964 
Q 506 1050 525 1153 
L 897 3053 
L 409 3053 
L 500 3500 
L 978 3500 
L 1172 4494 
L 1747 4494 
L 1556 3500 
L 2706 3500 
z
" transform="scale(0.015625)"/>
      <path id="DejaVuSans-Oblique-20" transform="scale(0.015625)"/>
      <path id="DejaVuSans-Oblique-6e" d="M 3566 2113 
L 3156 0 
L 2578 0 
L 2988 2091 
Q 3016 2238 3031 2350 
Q 3047 2463 3047 2528 
Q 3047 2791 2881 2937 
Q 2716 3084 2419 3084 
Q 1956 3084 1622 2776 
Q 1288 2469 1184 1941 
L 800 0 
L 225 0 
L 903 3500 
L 1478 3500 
L 1363 2950 
Q 1603 3253 1940 3418 
Q 2278 3584 2650 3584 
Q 3113 3584 3367 3334 
Q 3622 3084 3622 2631 
Q 3622 2519 3608 2391 
Q 3594 2263 3566 2113 
z
" transform="scale(0.015625)"/>
      <path id="DejaVuSans-Oblique-77" d="M 544 3500 
L 1113 3500 
L 1259 684 
L 2566 3500 
L 3231 3500 
L 3425 684 
L 4666 3500 
L 5241 3500 
L 3641 0 
L 2969 0 
L 2797 2900 
L 1459 0 
L 781 0 
L 544 3500 
z
" transform="scale(0.015625)"/>
      <path id="DejaVuSans-Oblique-6f" d="M 1625 -91 
Q 1009 -91 651 289 
Q 294 669 294 1325 
Q 294 1706 417 2101 
Q 541 2497 738 2766 
Q 1047 3184 1428 3384 
Q 1809 3584 2291 3584 
Q 2888 3584 3255 3212 
Q 3622 2841 3622 2241 
Q 3622 1825 3500 1412 
Q 3378 1000 3181 728 
Q 2875 309 2494 109 
Q 2113 -91 1625 -91 
z
M 891 1344 
Q 891 869 1089 633 
Q 1288 397 1691 397 
Q 2269 397 2648 901 
Q 3028 1406 3028 2181 
Q 3028 2634 2825 2865 
Q 2622 3097 2228 3097 
Q 1903 3097 1650 2945 
Q 1397 2794 1197 2484 
Q 1050 2253 970 1956 
Q 891 1659 891 1344 
z
" transform="scale(0.015625)"/>
      <path id="DejaVuSans-Oblique-66" d="M 3059 4863 
L 2969 4384 
L 2419 4384 
Q 2106 4384 1964 4261 
Q 1822 4138 1753 3809 
L 1691 3500 
L 2638 3500 
L 2553 3053 
L 1606 3053 
L 1013 0 
L 434 0 
L 1031 3053 
L 481 3053 
L 563 3500 
L 1113 3500 
L 1159 3744 
Q 1278 4363 1576 4613 
Q 1875 4863 2516 4863 
L 3059 4863 
z
" transform="scale(0.015625)"/>
      <path id="DejaVuSans-Oblique-6d" d="M 5747 2113 
L 5338 0 
L 4763 0 
L 5166 2094 
Q 5191 2228 5203 2325 
Q 5216 2422 5216 2491 
Q 5216 2772 5059 2928 
Q 4903 3084 4622 3084 
Q 4203 3084 3875 2770 
Q 3547 2456 3450 1953 
L 3066 0 
L 2491 0 
L 2900 2094 
Q 2925 2209 2937 2307 
Q 2950 2406 2950 2484 
Q 2950 2769 2794 2926 
Q 2638 3084 2363 3084 
Q 1938 3084 1609 2770 
Q 1281 2456 1184 1953 
L 800 0 
L 225 0 
L 909 3500 
L 1484 3500 
L 1375 2956 
Q 1609 3263 1923 3423 
Q 2238 3584 2597 3584 
Q 2978 3584 3223 3384 
Q 3469 3184 3519 2828 
Q 3781 3197 4126 3390 
Q 4472 3584 4856 3584 
Q 5306 3584 5551 3325 
Q 5797 3066 5797 2591 
Q 5797 2488 5784 2364 
Q 5772 2241 5747 2113 
z
" transform="scale(0.015625)"/>
      <path id="DejaVuSans-Oblique-78" d="M 3841 3500 
L 2234 1784 
L 3219 0 
L 2559 0 
L 1819 1388 
L 531 0 
L -166 0 
L 1556 1844 
L 641 3500 
L 1300 3500 
L 1972 2234 
L 3144 3500 
L 3841 3500 
z
" transform="scale(0.015625)"/>
     </defs>
     <use xlink:href="#DejaVuSans-Oblique-50"/>
     <use xlink:href="#DejaVuSans-Oblique-72" x="60.302734"/>
     <use xlink:href="#DejaVuSans-Oblique-65" x="101.416016"/>
     <use xlink:href="#DejaVuSans-Oblique-64" x="162.939453"/>
     <use xlink:href="#DejaVuSans-Oblique-69" x="226.416016"/>
     <use xlink:href="#DejaVuSans-Oblique-63" x="254.199219"/>
     <use xlink:href="#DejaVuSans-Oblique-74" x="309.179688"/>
     <use xlink:href="#DejaVuSans-Oblique-20" x="348.388672"/>
     <use xlink:href="#DejaVuSans-Oblique-63" x="380.175781"/>
     <use xlink:href="#DejaVuSans-Oblique-65" x="435.15625"/>
     <use xlink:href="#DejaVuSans-Oblique-6e" x="496.679688"/>
     <use xlink:href="#DejaVuSans-Oblique-74" x="560.058594"/>
     <use xlink:href="#DejaVuSans-Oblique-65" x="599.267578"/>
     <use xlink:href="#DejaVuSans-Oblique-72" x="660.791016"/>
     <use xlink:href="#DejaVuSans-Oblique-20" x="701.904297"/>
     <use xlink:href="#DejaVuSans-Oblique-77" x="733.691406"/>
     <use xlink:href="#DejaVuSans-Oblique-6f" x="815.478516"/>
     <use xlink:href="#DejaVuSans-Oblique-72" x="876.660156"/>
     <use xlink:href="#DejaVuSans-Oblique-64" x="917.773438"/>
     <use xlink:href="#DejaVuSans-Oblique-20" x="981.25"/>
     <use xlink:href="#DejaVuSans-Oblique-66" x="1013.037109"/>
     <use xlink:href="#DejaVuSans-Oblique-72" x="1048.242188"/>
     <use xlink:href="#DejaVuSans-Oblique-6f" x="1089.355469"/>
     <use xlink:href="#DejaVuSans-Oblique-6d" x="1150.537109"/>
     <use xlink:href="#DejaVuSans-Oblique-20" x="1247.949219"/>
     <use xlink:href="#DejaVuSans-Oblique-63" x="1279.736328"/>
     <use xlink:href="#DejaVuSans-Oblique-6f" x="1334.716797"/>
     <use xlink:href="#DejaVuSans-Oblique-6e" x="1395.898438"/>
     <use xlink:href="#DejaVuSans-Oblique-74" x="1459.277344"/>
     <use xlink:href="#DejaVuSans-Oblique-65" x="1498.486328"/>
     <use xlink:href="#DejaVuSans-Oblique-78" x="1560.009766"/>
     <use xlink:href="#DejaVuSans-Oblique-74" x="1619.189453"/>
    </g>
   </g>
   <g id="text_3">
    <!-- w(t-2) -->
    <g style="fill: #ffffff" transform="translate(82.979766 128.243437) scale(0.09 -0.09)">
     <defs>
      <path id="DejaVuSans-Bold-77" d="M 225 3500 
L 1313 3500 
L 1900 1088 
L 2491 3500 
L 3425 3500 
L 4013 1113 
L 4603 3500 
L 5691 3500 
L 4769 0 
L 3547 0 
L 2956 2406 
L 2369 0 
L 1147 0 
L 225 3500 
z
" transform="scale(0.015625)"/>
      <path id="DejaVuSans-Bold-28" d="M 2413 -844 
L 1484 -844 
Q 1006 -72 778 623 
Q 550 1319 550 2003 
Q 550 2688 779 3389 
Q 1009 4091 1484 4856 
L 2413 4856 
Q 2013 4116 1813 3408 
Q 1613 2700 1613 2009 
Q 1613 1319 1811 609 
Q 2009 -100 2413 -844 
z
" transform="scale(0.015625)"/>
      <path id="DejaVuSans-Bold-74" d="M 1759 4494 
L 1759 3500 
L 2913 3500 
L 2913 2700 
L 1759 2700 
L 1759 1216 
Q 1759 972 1856 886 
Q 1953 800 2241 800 
L 2816 800 
L 2816 0 
L 1856 0 
Q 1194 0 917 276 
Q 641 553 641 1216 
L 641 2700 
L 84 2700 
L 84 3500 
L 641 3500 
L 641 4494 
L 1759 4494 
z
" transform="scale(0.015625)"/>
      <path id="DejaVuSans-Bold-2d" d="M 347 2297 
L 2309 2297 
L 2309 1388 
L 347 1388 
L 347 2297 
z
" transform="scale(0.015625)"/>
      <path id="DejaVuSans-Bold-32" d="M 1844 884 
L 3897 884 
L 3897 0 
L 506 0 
L 506 884 
L 2209 2388 
Q 2438 2594 2547 2791 
Q 2656 2988 2656 3200 
Q 2656 3528 2436 3728 
Q 2216 3928 1850 3928 
Q 1569 3928 1234 3808 
Q 900 3688 519 3450 
L 519 4475 
Q 925 4609 1322 4679 
Q 1719 4750 2100 4750 
Q 2938 4750 3402 4381 
Q 3866 4013 3866 3353 
Q 3866 2972 3669 2642 
Q 3472 2313 2841 1759 
L 1844 884 
z
" transform="scale(0.015625)"/>
      <path id="DejaVuSans-Bold-29" d="M 513 -844 
Q 913 -100 1113 609 
Q 1313 1319 1313 2009 
Q 1313 2700 1113 3408 
Q 913 4116 513 4856 
L 1441 4856 
Q 1916 4091 2145 3389 
Q 2375 2688 2375 2003 
Q 2375 1319 2147 623 
Q 1919 -72 1441 -844 
L 513 -844 
z
" transform="scale(0.015625)"/>
     </defs>
     <use xlink:href="#DejaVuSans-Bold-77"/>
     <use xlink:href="#DejaVuSans-Bold-28" x="92.382812"/>
     <use xlink:href="#DejaVuSans-Bold-74" x="138.085938"/>
     <use xlink:href="#DejaVuSans-Bold-2d" x="185.888672"/>
     <use xlink:href="#DejaVuSans-Bold-32" x="227.392578"/>
     <use xlink:href="#DejaVuSans-Bold-29" x="296.972656"/>
    </g>
   </g>
   <g id="text_4">
    <!-- w(t-1) -->
    <g style="fill: #ffffff" transform="translate(82.979766 182.963437) scale(0.09 -0.09)">
     <defs>
      <path id="DejaVuSans-Bold-31" d="M 750 831 
L 1813 831 
L 1813 3847 
L 722 3622 
L 722 4441 
L 1806 4666 
L 2950 4666 
L 2950 831 
L 4013 831 
L 4013 0 
L 750 0 
L 750 831 
z
" transform="scale(0.015625)"/>
     </defs>
     <use xlink:href="#DejaVuSans-Bold-77"/>
     <use xlink:href="#DejaVuSans-Bold-28" x="92.382812"/>
     <use xlink:href="#DejaVuSans-Bold-74" x="138.085938"/>
     <use xlink:href="#DejaVuSans-Bold-2d" x="185.888672"/>
     <use xlink:href="#DejaVuSans-Bold-31" x="227.392578"/>
     <use xlink:href="#DejaVuSans-Bold-29" x="296.972656"/>
    </g>
   </g>
   <g id="text_5">
    <!-- w(t+1) -->
    <g style="fill: #ffffff" transform="translate(81.076406 237.683437) scale(0.09 -0.09)">
     <defs>
      <path id="DejaVuSans-Bold-2b" d="M 3053 4013 
L 3053 2375 
L 4684 2375 
L 4684 1638 
L 3053 1638 
L 3053 0 
L 2309 0 
L 2309 1638 
L 678 1638 
L 678 2375 
L 2309 2375 
L 2309 4013 
L 3053 4013 
z
" transform="scale(0.015625)"/>
     </defs>
     <use xlink:href="#DejaVuSans-Bold-77"/>
     <use xlink:href="#DejaVuSans-Bold-28" x="92.382812"/>
     <use xlink:href="#DejaVuSans-Bold-74" x="138.085938"/>
     <use xlink:href="#DejaVuSans-Bold-2b" x="185.888672"/>
     <use xlink:href="#DejaVuSans-Bold-31" x="269.677734"/>
     <use xlink:href="#DejaVuSans-Bold-29" x="339.257812"/>
    </g>
   </g>
   <g id="text_6">
    <!-- w(t+2) -->
    <g style="fill: #ffffff" transform="translate(81.076406 292.403437) scale(0.09 -0.09)">
     <use xlink:href="#DejaVuSans-Bold-77"/>
     <use xlink:href="#DejaVuSans-Bold-28" x="92.382812"/>
     <use xlink:href="#DejaVuSans-Bold-74" x="138.085938"/>
     <use xlink:href="#DejaVuSans-Bold-2b" x="185.888672"/>
     <use xlink:href="#DejaVuSans-Bold-32" x="269.677734"/>
     <use xlink:href="#DejaVuSans-Bold-29" x="339.257812"/>
    </g>
   </g>
   <g id="text_7">
    <!-- Context -->
    <g style="fill: #4a4a4a" transform="translate(80.770547 351.478594) scale(0.09 -0.09)">
     <defs>
      <path id="DejaVuSans-43" d="M 4122 4306 
L 4122 3641 
Q 3803 3938 3442 4084 
Q 3081 4231 2675 4231 
Q 1875 4231 1450 3742 
Q 1025 3253 1025 2328 
Q 1025 1406 1450 917 
Q 1875 428 2675 428 
Q 3081 428 3442 575 
Q 3803 722 4122 1019 
L 4122 359 
Q 3791 134 3420 21 
Q 3050 -91 2638 -91 
Q 1578 -91 968 557 
Q 359 1206 359 2328 
Q 359 3453 968 4101 
Q 1578 4750 2638 4750 
Q 3056 4750 3426 4639 
Q 3797 4528 4122 4306 
z
" transform="scale(0.015625)"/>
      <path id="DejaVuSans-6f" d="M 1959 3097 
Q 1497 3097 1228 2736 
Q 959 2375 959 1747 
Q 959 1119 1226 758 
Q 1494 397 1959 397 
Q 2419 397 2687 759 
Q 2956 1122 2956 1747 
Q 2956 2369 2687 2733 
Q 2419 3097 1959 3097 
z
M 1959 3584 
Q 2709 3584 3137 3096 
Q 3566 2609 3566 1747 
Q 3566 888 3137 398 
Q 2709 -91 1959 -91 
Q 1206 -91 779 398 
Q 353 888 353 1747 
Q 353 2609 779 3096 
Q 1206 3584 1959 3584 
z
" transform="scale(0.015625)"/>
      <path id="DejaVuSans-6e" d="M 3513 2113 
L 3513 0 
L 2938 0 
L 2938 2094 
Q 2938 2591 2744 2837 
Q 2550 3084 2163 3084 
Q 1697 3084 1428 2787 
Q 1159 2491 1159 1978 
L 1159 0 
L 581 0 
L 581 3500 
L 1159 3500 
L 1159 2956 
Q 1366 3272 1645 3428 
Q 1925 3584 2291 3584 
Q 2894 3584 3203 3211 
Q 3513 2838 3513 2113 
z
" transform="scale(0.015625)"/>
      <path id="DejaVuSans-74" d="M 1172 4494 
L 1172 3500 
L 2356 3500 
L 2356 3053 
L 1172 3053 
L 1172 1153 
Q 1172 725 1289 603 
Q 1406 481 1766 481 
L 2356 481 
L 2356 0 
L 1766 0 
Q 1100 0 847 248 
Q 594 497 594 1153 
L 594 3053 
L 172 3053 
L 172 3500 
L 594 3500 
L 594 4494 
L 1172 4494 
z
" transform="scale(0.015625)"/>
      <path id="DejaVuSans-65" d="M 3597 1894 
L 3597 1613 
L 953 1613 
Q 991 1019 1311 708 
Q 1631 397 2203 397 
Q 2534 397 2845 478 
Q 3156 559 3463 722 
L 3463 178 
Q 3153 47 2828 -22 
Q 2503 -91 2169 -91 
Q 1331 -91 842 396 
Q 353 884 353 1716 
Q 353 2575 817 3079 
Q 1281 3584 2069 3584 
Q 2775 3584 3186 3129 
Q 3597 2675 3597 1894 
z
M 3022 2063 
Q 3016 2534 2758 2815 
Q 2500 3097 2075 3097 
Q 1594 3097 1305 2825 
Q 1016 2553 972 2059 
L 3022 2063 
z
" transform="scale(0.015625)"/>
      <path id="DejaVuSans-78" d="M 3513 3500 
L 2247 1797 
L 3578 0 
L 2900 0 
L 1881 1375 
L 863 0 
L 184 0 
L 1544 1831 
L 300 3500 
L 978 3500 
L 1906 2253 
L 2834 3500 
L 3513 3500 
z
" transform="scale(0.015625)"/>
     </defs>
     <use xlink:href="#DejaVuSans-43"/>
     <use xlink:href="#DejaVuSans-6f" x="69.824219"/>
     <use xlink:href="#DejaVuSans-6e" x="131.005859"/>
     <use xlink:href="#DejaVuSans-74" x="194.384766"/>
     <use xlink:href="#DejaVuSans-65" x="233.59375"/>
     <use xlink:href="#DejaVuSans-78" x="293.367188"/>
     <use xlink:href="#DejaVuSans-74" x="352.546875"/>
    </g>
   </g>
   <g id="text_8">
    <!-- Hidden -->
    <g style="fill: #ffffff" transform="translate(217.193672 210.323437) scale(0.09 -0.09)">
     <defs>
      <path id="DejaVuSans-Bold-48" d="M 588 4666 
L 1791 4666 
L 1791 2888 
L 3566 2888 
L 3566 4666 
L 4769 4666 
L 4769 0 
L 3566 0 
L 3566 1978 
L 1791 1978 
L 1791 0 
L 588 0 
L 588 4666 
z
" transform="scale(0.015625)"/>
      <path id="DejaVuSans-Bold-69" d="M 538 3500 
L 1656 3500 
L 1656 0 
L 538 0 
L 538 3500 
z
M 538 4863 
L 1656 4863 
L 1656 3950 
L 538 3950 
L 538 4863 
z
" transform="scale(0.015625)"/>
      <path id="DejaVuSans-Bold-64" d="M 2919 2988 
L 2919 4863 
L 4044 4863 
L 4044 0 
L 2919 0 
L 2919 506 
Q 2688 197 2409 53 
Q 2131 -91 1766 -91 
Q 1119 -91 703 423 
Q 288 938 288 1747 
Q 288 2556 703 3070 
Q 1119 3584 1766 3584 
Q 2128 3584 2408 3439 
Q 2688 3294 2919 2988 
z
M 2181 722 
Q 2541 722 2730 984 
Q 2919 1247 2919 1747 
Q 2919 2247 2730 2509 
Q 2541 2772 2181 2772 
Q 1825 2772 1636 2509 
Q 1447 2247 1447 1747 
Q 1447 1247 1636 984 
Q 1825 722 2181 722 
z
" transform="scale(0.015625)"/>
      <path id="DejaVuSans-Bold-65" d="M 4031 1759 
L 4031 1441 
L 1416 1441 
Q 1456 1047 1700 850 
Q 1944 653 2381 653 
Q 2734 653 3104 758 
Q 3475 863 3866 1075 
L 3866 213 
Q 3469 63 3072 -14 
Q 2675 -91 2278 -91 
Q 1328 -91 801 392 
Q 275 875 275 1747 
Q 275 2603 792 3093 
Q 1309 3584 2216 3584 
Q 3041 3584 3536 3087 
Q 4031 2591 4031 1759 
z
M 2881 2131 
Q 2881 2450 2695 2645 
Q 2509 2841 2209 2841 
Q 1884 2841 1681 2658 
Q 1478 2475 1428 2131 
L 2881 2131 
z
" transform="scale(0.015625)"/>
      <path id="DejaVuSans-Bold-6e" d="M 4056 2131 
L 4056 0 
L 2931 0 
L 2931 347 
L 2931 1631 
Q 2931 2084 2911 2256 
Q 2891 2428 2841 2509 
Q 2775 2619 2662 2680 
Q 2550 2741 2406 2741 
Q 2056 2741 1856 2470 
Q 1656 2200 1656 1722 
L 1656 0 
L 538 0 
L 538 3500 
L 1656 3500 
L 1656 2988 
Q 1909 3294 2193 3439 
Q 2478 3584 2822 3584 
Q 3428 3584 3742 3212 
Q 4056 2841 4056 2131 
z
" transform="scale(0.015625)"/>
     </defs>
     <use xlink:href="#DejaVuSans-Bold-48"/>
     <use xlink:href="#DejaVuSans-Bold-69" x="83.691406"/>
     <use xlink:href="#DejaVuSans-Bold-64" x="117.96875"/>
     <use xlink:href="#DejaVuSans-Bold-64" x="189.550781"/>
     <use xlink:href="#DejaVuSans-Bold-65" x="261.132812"/>
     <use xlink:href="#DejaVuSans-Bold-6e" x="328.955078"/>
    </g>
   </g>
   <g id="patch_8">
    <path d="M 136.109341 127.340581 
Q 166.800372 166.800478 196.667716 205.201349 
" style="fill: none; stroke: #888888; stroke-width: 1.2; stroke-linecap: round"/>
    <path d="M 195.790658 200.816059 
L 196.667716 205.201349 
L 192.633249 203.271821 
" style="fill: none; stroke: #888888; stroke-width: 1.2; stroke-linecap: round"/>
   </g>
   <g id="patch_9">
    <path d="M 136.715244 181.266533 
Q 166.799888 194.159952 195.65137 206.524873 
" style="fill: none; stroke: #888888; stroke-width: 1.2; stroke-linecap: round"/>
    <path d="M 192.762628 203.110905 
L 195.65137 206.524873 
L 191.186951 206.787486 
" style="fill: none; stroke: #888888; stroke-width: 1.2; stroke-linecap: round"/>
   </g>
   <g id="patch_10">
    <path d="M 136.715244 234.413467 
Q 166.799888 221.520048 195.65137 209.155127 
" style="fill: none; stroke: #888888; stroke-width: 1.2; stroke-linecap: round"/>
    <path d="M 191.186951 208.892514 
L 195.65137 209.155127 
L 192.762628 212.569095 
" style="fill: none; stroke: #888888; stroke-width: 1.2; stroke-linecap: round"/>
   </g>
   <g id="patch_11">
    <path d="M 136.109341 288.339419 
Q 166.800372 248.879522 196.667716 210.478651 
" style="fill: none; stroke: #888888; stroke-width: 1.2; stroke-linecap: round"/>
    <path d="M 192.633249 212.408179 
L 196.667716 210.478651 
L 195.790658 214.863941 
" style="fill: none; stroke: #888888; stroke-width: 1.2; stroke-linecap: round"/>
   </g>
   <g id="text_9">
    <!-- w(t) -->
    <g style="fill: #ffffff" transform="translate(361.578281 210.323437) scale(0.09 -0.09)">
     <use xlink:href="#DejaVuSans-Bold-77"/>
     <use xlink:href="#DejaVuSans-Bold-28" x="92.382812"/>
     <use xlink:href="#DejaVuSans-Bold-74" x="138.085938"/>
     <use xlink:href="#DejaVuSans-Bold-29" x="185.888672"/>
    </g>
   </g>
   <g id="text_10">
    <!-- Target -->
    <g style="fill: #4a4a4a" transform="translate(358.075312 246.598594) scale(0.09 -0.09)">
     <defs>
      <path id="DejaVuSans-54" d="M -19 4666 
L 3928 4666 
L 3928 4134 
L 2272 4134 
L 2272 0 
L 1638 0 
L 1638 4134 
L -19 4134 
L -19 4666 
z
" transform="scale(0.015625)"/>
      <path id="DejaVuSans-61" d="M 2194 1759 
Q 1497 1759 1228 1600 
Q 959 1441 959 1056 
Q 959 750 1161 570 
Q 1363 391 1709 391 
Q 2188 391 2477 730 
Q 2766 1069 2766 1631 
L 2766 1759 
L 2194 1759 
z
M 3341 1997 
L 3341 0 
L 2766 0 
L 2766 531 
Q 2569 213 2275 61 
Q 1981 -91 1556 -91 
Q 1019 -91 701 211 
Q 384 513 384 1019 
Q 384 1609 779 1909 
Q 1175 2209 1959 2209 
L 2766 2209 
L 2766 2266 
Q 2766 2663 2505 2880 
Q 2244 3097 1772 3097 
Q 1472 3097 1187 3025 
Q 903 2953 641 2809 
L 641 3341 
Q 956 3463 1253 3523 
Q 1550 3584 1831 3584 
Q 2591 3584 2966 3190 
Q 3341 2797 3341 1997 
z
" transform="scale(0.015625)"/>
      <path id="DejaVuSans-72" d="M 2631 2963 
Q 2534 3019 2420 3045 
Q 2306 3072 2169 3072 
Q 1681 3072 1420 2755 
Q 1159 2438 1159 1844 
L 1159 0 
L 581 0 
L 581 3500 
L 1159 3500 
L 1159 2956 
Q 1341 3275 1631 3429 
Q 1922 3584 2338 3584 
Q 2397 3584 2469 3576 
Q 2541 3569 2628 3553 
L 2631 2963 
z
" transform="scale(0.015625)"/>
      <path id="DejaVuSans-67" d="M 2906 1791 
Q 2906 2416 2648 2759 
Q 2391 3103 1925 3103 
Q 1463 3103 1205 2759 
Q 947 2416 947 1791 
Q 947 1169 1205 825 
Q 1463 481 1925 481 
Q 2391 481 2648 825 
Q 2906 1169 2906 1791 
z
M 3481 434 
Q 3481 -459 3084 -895 
Q 2688 -1331 1869 -1331 
Q 1566 -1331 1297 -1286 
Q 1028 -1241 775 -1147 
L 775 -588 
Q 1028 -725 1275 -790 
Q 1522 -856 1778 -856 
Q 2344 -856 2625 -561 
Q 2906 -266 2906 331 
L 2906 616 
Q 2728 306 2450 153 
Q 2172 0 1784 0 
Q 1141 0 747 490 
Q 353 981 353 1791 
Q 353 2603 747 3093 
Q 1141 3584 1784 3584 
Q 2172 3584 2450 3431 
Q 2728 3278 2906 2969 
L 2906 3500 
L 3481 3500 
L 3481 434 
z
" transform="scale(0.015625)"/>
     </defs>
     <use xlink:href="#DejaVuSans-54"/>
     <use xlink:href="#DejaVuSans-61" x="44.583984"/>
     <use xlink:href="#DejaVuSans-72" x="105.863281"/>
     <use xlink:href="#DejaVuSans-67" x="145.226562"/>
     <use xlink:href="#DejaVuSans-65" x="208.703125"/>
     <use xlink:href="#DejaVuSans-74" x="270.226562"/>
    </g>
   </g>
   <g id="patch_12">
    <path d="M 273.678896 207.84 
Q 303.601098 207.84 331.846248 207.84 
" style="fill: none; stroke: #888888; stroke-width: 1.5; stroke-linecap: round"/>
    <path d="M 327.846248 205.84 
L 331.846248 207.84 
L 327.846248 209.84 
" style="fill: none; stroke: #888888; stroke-width: 1.5; stroke-linecap: round"/>
   </g>
  </g>
  <g id="axes_2">
   <g id="patch_13">
    <path d="M 567.816 223.344 
L 626.184 223.344 
Q 630.744 223.344 630.744 218.784 
L 630.744 196.896 
Q 630.744 192.336 626.184 192.336 
L 567.816 192.336 
Q 563.256 192.336 563.256 196.896 
L 563.256 218.784 
Q 563.256 223.344 567.816 223.344 
z
" clip-path="url(#pc81e6fc093)" style="fill: #6c9bc2; opacity: 0.9"/>
   </g>
   <g id="patch_14">
    <path d="M 709.176 246.144 
L 758.424 246.144 
Q 767.544 246.144 767.544 237.024 
L 767.544 178.656 
Q 767.544 169.536 758.424 169.536 
L 709.176 169.536 
Q 700.056 169.536 700.056 178.656 
L 700.056 237.024 
Q 700.056 246.144 709.176 246.144 
z
" clip-path="url(#pc81e6fc093)" style="fill: #7fb685; opacity: 0.9"/>
   </g>
   <g id="patch_15">
    <path d="M 841.416 141.264 
L 899.784 141.264 
Q 904.344 141.264 904.344 136.704 
L 904.344 114.816 
Q 904.344 110.256 899.784 110.256 
L 841.416 110.256 
Q 836.856 110.256 836.856 114.816 
L 836.856 136.704 
Q 836.856 141.264 841.416 141.264 
z
" clip-path="url(#pc81e6fc093)" style="fill: #e8a87c; opacity: 0.9"/>
   </g>
   <g id="patch_16">
    <path d="M 841.416 195.984 
L 899.784 195.984 
Q 904.344 195.984 904.344 191.424 
L 904.344 169.536 
Q 904.344 164.976 899.784 164.976 
L 841.416 164.976 
Q 836.856 164.976 836.856 169.536 
L 836.856 191.424 
Q 836.856 195.984 841.416 195.984 
z
" clip-path="url(#pc81e6fc093)" style="fill: #e8a87c; opacity: 0.9"/>
   </g>
   <g id="patch_17">
    <path d="M 841.416 250.704 
L 899.784 250.704 
Q 904.344 250.704 904.344 246.144 
L 904.344 224.256 
Q 904.344 219.696 899.784 219.696 
L 841.416 219.696 
Q 836.856 219.696 836.856 224.256 
L 836.856 246.144 
Q 836.856 250.704 841.416 250.704 
z
" clip-path="url(#pc81e6fc093)" style="fill: #e8a87c; opacity: 0.9"/>
   </g>
   <g id="patch_18">
    <path d="M 841.416 305.424 
L 899.784 305.424 
Q 904.344 305.424 904.344 300.864 
L 904.344 278.976 
Q 904.344 274.416 899.784 274.416 
L 841.416 274.416 
Q 836.856 274.416 836.856 278.976 
L 836.856 300.864 
Q 836.856 305.424 841.416 305.424 
z
" clip-path="url(#pc81e6fc093)" style="fill: #e8a87c; opacity: 0.9"/>
   </g>
   <g id="text_11">
    <!-- Skip-gram -->
    <g style="fill: #4a4a4a" transform="translate(687.52375 31.1075) scale(0.16 -0.16)">
     <defs>
      <path id="DejaVuSans-Bold-53" d="M 3834 4519 
L 3834 3531 
Q 3450 3703 3084 3790 
Q 2719 3878 2394 3878 
Q 1963 3878 1756 3759 
Q 1550 3641 1550 3391 
Q 1550 3203 1689 3098 
Q 1828 2994 2194 2919 
L 2706 2816 
Q 3484 2659 3812 2340 
Q 4141 2022 4141 1434 
Q 4141 663 3683 286 
Q 3225 -91 2284 -91 
Q 1841 -91 1394 -6 
Q 947 78 500 244 
L 500 1259 
Q 947 1022 1364 901 
Q 1781 781 2169 781 
Q 2563 781 2772 912 
Q 2981 1044 2981 1288 
Q 2981 1506 2839 1625 
Q 2697 1744 2272 1838 
L 1806 1941 
Q 1106 2091 782 2419 
Q 459 2747 459 3303 
Q 459 4000 909 4375 
Q 1359 4750 2203 4750 
Q 2588 4750 2994 4692 
Q 3400 4634 3834 4519 
z
" transform="scale(0.015625)"/>
      <path id="DejaVuSans-Bold-6b" d="M 538 4863 
L 1656 4863 
L 1656 2216 
L 2944 3500 
L 4244 3500 
L 2534 1894 
L 4378 0 
L 3022 0 
L 1656 1459 
L 1656 0 
L 538 0 
L 538 4863 
z
" transform="scale(0.015625)"/>
      <path id="DejaVuSans-Bold-70" d="M 1656 506 
L 1656 -1331 
L 538 -1331 
L 538 3500 
L 1656 3500 
L 1656 2988 
Q 1888 3294 2169 3439 
Q 2450 3584 2816 3584 
Q 3463 3584 3878 3070 
Q 4294 2556 4294 1747 
Q 4294 938 3878 423 
Q 3463 -91 2816 -91 
Q 2450 -91 2169 54 
Q 1888 200 1656 506 
z
M 2400 2772 
Q 2041 2772 1848 2508 
Q 1656 2244 1656 1747 
Q 1656 1250 1848 986 
Q 2041 722 2400 722 
Q 2759 722 2948 984 
Q 3138 1247 3138 1747 
Q 3138 2247 2948 2509 
Q 2759 2772 2400 2772 
z
" transform="scale(0.015625)"/>
      <path id="DejaVuSans-Bold-67" d="M 2919 594 
Q 2688 288 2409 144 
Q 2131 0 1766 0 
Q 1125 0 706 504 
Q 288 1009 288 1791 
Q 288 2575 706 3076 
Q 1125 3578 1766 3578 
Q 2131 3578 2409 3434 
Q 2688 3291 2919 2981 
L 2919 3500 
L 4044 3500 
L 4044 353 
Q 4044 -491 3511 -936 
Q 2978 -1381 1966 -1381 
Q 1638 -1381 1331 -1331 
Q 1025 -1281 716 -1178 
L 716 -306 
Q 1009 -475 1290 -558 
Q 1572 -641 1856 -641 
Q 2406 -641 2662 -400 
Q 2919 -159 2919 353 
L 2919 594 
z
M 2181 2772 
Q 1834 2772 1640 2515 
Q 1447 2259 1447 1791 
Q 1447 1309 1634 1061 
Q 1822 813 2181 813 
Q 2531 813 2725 1069 
Q 2919 1325 2919 1791 
Q 2919 2259 2725 2515 
Q 2531 2772 2181 2772 
z
" transform="scale(0.015625)"/>
      <path id="DejaVuSans-Bold-72" d="M 3138 2547 
Q 2991 2616 2845 2648 
Q 2700 2681 2553 2681 
Q 2122 2681 1889 2404 
Q 1656 2128 1656 1613 
L 1656 0 
L 538 0 
L 538 3500 
L 1656 3500 
L 1656 2925 
Q 1872 3269 2151 3426 
Q 2431 3584 2822 3584 
Q 2878 3584 2943 3579 
Q 3009 3575 3134 3559 
L 3138 2547 
z
" transform="scale(0.015625)"/>
      <path id="DejaVuSans-Bold-61" d="M 2106 1575 
Q 1756 1575 1579 1456 
Q 1403 1338 1403 1106 
Q 1403 894 1545 773 
Q 1688 653 1941 653 
Q 2256 653 2472 879 
Q 2688 1106 2688 1447 
L 2688 1575 
L 2106 1575 
z
M 3816 1997 
L 3816 0 
L 2688 0 
L 2688 519 
Q 2463 200 2181 54 
Q 1900 -91 1497 -91 
Q 953 -91 614 226 
Q 275 544 275 1050 
Q 275 1666 698 1953 
Q 1122 2241 2028 2241 
L 2688 2241 
L 2688 2328 
Q 2688 2594 2478 2717 
Q 2269 2841 1825 2841 
Q 1466 2841 1156 2769 
Q 847 2697 581 2553 
L 581 3406 
Q 941 3494 1303 3539 
Q 1666 3584 2028 3584 
Q 2975 3584 3395 3211 
Q 3816 2838 3816 1997 
z
" transform="scale(0.015625)"/>
      <path id="DejaVuSans-Bold-6d" d="M 3781 2919 
Q 3994 3244 4286 3414 
Q 4578 3584 4928 3584 
Q 5531 3584 5847 3212 
Q 6163 2841 6163 2131 
L 6163 0 
L 5038 0 
L 5038 1825 
Q 5041 1866 5042 1909 
Q 5044 1953 5044 2034 
Q 5044 2406 4934 2573 
Q 4825 2741 4581 2741 
Q 4263 2741 4089 2478 
Q 3916 2216 3909 1719 
L 3909 0 
L 2784 0 
L 2784 1825 
Q 2784 2406 2684 2573 
Q 2584 2741 2328 2741 
Q 2006 2741 1831 2477 
Q 1656 2213 1656 1722 
L 1656 0 
L 531 0 
L 531 3500 
L 1656 3500 
L 1656 2988 
Q 1863 3284 2130 3434 
Q 2397 3584 2719 3584 
Q 3081 3584 3359 3409 
Q 3638 3234 3781 2919 
z
" transform="scale(0.015625)"/>
     </defs>
     <use xlink:href="#DejaVuSans-Bold-53"/>
     <use xlink:href="#DejaVuSans-Bold-6b" x="72.021484"/>
     <use xlink:href="#DejaVuSans-Bold-69" x="138.525391"/>
     <use xlink:href="#DejaVuSans-Bold-70" x="172.802734"/>
     <use xlink:href="#DejaVuSans-Bold-2d" x="244.384766"/>
     <use xlink:href="#DejaVuSans-Bold-67" x="285.888672"/>
     <use xlink:href="#DejaVuSans-Bold-72" x="357.470703"/>
     <use xlink:href="#DejaVuSans-Bold-61" x="406.787109"/>
     <use xlink:href="#DejaVuSans-Bold-6d" x="474.267578"/>
    </g>
   </g>
   <g id="text_12">
    <!-- Predict context from center word -->
    <g style="fill: #666666" transform="translate(650.880469 69.518438) scale(0.1 -0.1)">
     <use xlink:href="#DejaVuSans-Oblique-50"/>
     <use xlink:href="#DejaVuSans-Oblique-72" x="60.302734"/>
     <use xlink:href="#DejaVuSans-Oblique-65" x="101.416016"/>
     <use xlink:href="#DejaVuSans-Oblique-64" x="162.939453"/>
     <use xlink:href="#DejaVuSans-Oblique-69" x="226.416016"/>
     <use xlink:href="#DejaVuSans-Oblique-63" x="254.199219"/>
     <use xlink:href="#DejaVuSans-Oblique-74" x="309.179688"/>
     <use xlink:href="#DejaVuSans-Oblique-20" x="348.388672"/>
     <use xlink:href="#DejaVuSans-Oblique-63" x="380.175781"/>
     <use xlink:href="#DejaVuSans-Oblique-6f" x="435.15625"/>
     <use xlink:href="#DejaVuSans-Oblique-6e" x="496.337891"/>
     <use xlink:href="#DejaVuSans-Oblique-74" x="559.716797"/>
     <use xlink:href="#DejaVuSans-Oblique-65" x="598.925781"/>
     <use xlink:href="#DejaVuSans-Oblique-78" x="660.449219"/>
     <use xlink:href="#DejaVuSans-Oblique-74" x="719.628906"/>
     <use xlink:href="#DejaVuSans-Oblique-20" x="758.837891"/>
     <use xlink:href="#DejaVuSans-Oblique-66" x="790.625"/>
     <use xlink:href="#DejaVuSans-Oblique-72" x="825.830078"/>
     <use xlink:href="#DejaVuSans-Oblique-6f" x="866.943359"/>
     <use xlink:href="#DejaVuSans-Oblique-6d" x="928.125"/>
     <use xlink:href="#DejaVuSans-Oblique-20" x="1025.537109"/>
     <use xlink:href="#DejaVuSans-Oblique-63" x="1057.324219"/>
     <use xlink:href="#DejaVuSans-Oblique-65" x="1112.304688"/>
     <use xlink:href="#DejaVuSans-Oblique-6e" x="1173.828125"/>
     <use xlink:href="#DejaVuSans-Oblique-74" x="1237.207031"/>
     <use xlink:href="#DejaVuSans-Oblique-65" x="1276.416016"/>
     <use xlink:href="#DejaVuSans-Oblique-72" x="1337.939453"/>
     <use xlink:href="#DejaVuSans-Oblique-20" x="1379.052734"/>
     <use xlink:href="#DejaVuSans-Oblique-77" x="1410.839844"/>
     <use xlink:href="#DejaVuSans-Oblique-6f" x="1492.626953"/>
     <use xlink:href="#DejaVuSans-Oblique-72" x="1553.808594"/>
     <use xlink:href="#DejaVuSans-Oblique-64" x="1594.921875"/>
    </g>
   </g>
   <g id="text_13">
    <!-- w(t) -->
    <g style="fill: #ffffff" transform="translate(586.578281 210.323437) scale(0.09 -0.09)">
     <use xlink:href="#DejaVuSans-Bold-77"/>
     <use xlink:href="#DejaVuSans-Bold-28" x="92.382812"/>
     <use xlink:href="#DejaVuSans-Bold-74" x="138.085938"/>
     <use xlink:href="#DejaVuSans-Bold-29" x="185.888672"/>
    </g>
   </g>
   <g id="text_14">
    <!-- Center -->
    <g style="fill: #4a4a4a" transform="translate(581.853984 246.598594) scale(0.09 -0.09)">
     <use xlink:href="#DejaVuSans-43"/>
     <use xlink:href="#DejaVuSans-65" x="69.824219"/>
     <use xlink:href="#DejaVuSans-6e" x="131.347656"/>
     <use xlink:href="#DejaVuSans-74" x="194.726562"/>
     <use xlink:href="#DejaVuSans-65" x="233.935547"/>
     <use xlink:href="#DejaVuSans-72" x="295.458984"/>
    </g>
   </g>
   <g id="text_15">
    <!-- Hidden -->
    <g style="fill: #ffffff" transform="translate(715.793672 210.323437) scale(0.09 -0.09)">
     <use xlink:href="#DejaVuSans-Bold-48"/>
     <use xlink:href="#DejaVuSans-Bold-69" x="83.691406"/>
     <use xlink:href="#DejaVuSans-Bold-64" x="117.96875"/>
     <use xlink:href="#DejaVuSans-Bold-64" x="189.550781"/>
     <use xlink:href="#DejaVuSans-Bold-65" x="261.132812"/>
     <use xlink:href="#DejaVuSans-Bold-6e" x="328.955078"/>
    </g>
   </g>
   <g id="patch_19">
    <path d="M 635.478896 207.84 
Q 665.401098 207.84 693.646248 207.84 
" style="fill: none; stroke: #888888; stroke-width: 1.5; stroke-linecap: round"/>
    <path d="M 689.646248 205.84 
L 693.646248 207.84 
L 689.646248 209.84 
" style="fill: none; stroke: #888888; stroke-width: 1.5; stroke-linecap: round"/>
   </g>
   <g id="text_16">
    <!-- w(t-2) -->
    <g style="fill: #ffffff" transform="translate(855.179766 128.243437) scale(0.09 -0.09)">
     <use xlink:href="#DejaVuSans-Bold-77"/>
     <use xlink:href="#DejaVuSans-Bold-28" x="92.382812"/>
     <use xlink:href="#DejaVuSans-Bold-74" x="138.085938"/>
     <use xlink:href="#DejaVuSans-Bold-2d" x="185.888672"/>
     <use xlink:href="#DejaVuSans-Bold-32" x="227.392578"/>
     <use xlink:href="#DejaVuSans-Bold-29" x="296.972656"/>
    </g>
   </g>
   <g id="patch_20">
    <path d="M 771.509341 206.259419 
Q 802.200372 166.799522 832.067716 128.398651 
" style="fill: none; stroke: #888888; stroke-width: 1.2; stroke-linecap: round"/>
    <path d="M 828.033249 130.328179 
L 832.067716 128.398651 
L 831.190658 132.783941 
" style="fill: none; stroke: #888888; stroke-width: 1.2; stroke-linecap: round"/>
   </g>
   <g id="text_17">
    <!-- w(t-1) -->
    <g style="fill: #ffffff" transform="translate(855.179766 182.963437) scale(0.09 -0.09)">
     <use xlink:href="#DejaVuSans-Bold-77"/>
     <use xlink:href="#DejaVuSans-Bold-28" x="92.382812"/>
     <use xlink:href="#DejaVuSans-Bold-74" x="138.085938"/>
     <use xlink:href="#DejaVuSans-Bold-2d" x="185.888672"/>
     <use xlink:href="#DejaVuSans-Bold-31" x="227.392578"/>
     <use xlink:href="#DejaVuSans-Bold-29" x="296.972656"/>
    </g>
   </g>
   <g id="patch_21">
    <path d="M 772.115244 207.053467 
Q 802.199888 194.160048 831.05137 181.795127 
" style="fill: none; stroke: #888888; stroke-width: 1.2; stroke-linecap: round"/>
    <path d="M 826.586951 181.532514 
L 831.05137 181.795127 
L 828.162628 185.209095 
" style="fill: none; stroke: #888888; stroke-width: 1.2; stroke-linecap: round"/>
   </g>
   <g id="text_18">
    <!-- w(t+1) -->
    <g style="fill: #ffffff" transform="translate(853.276406 237.683437) scale(0.09 -0.09)">
     <use xlink:href="#DejaVuSans-Bold-77"/>
     <use xlink:href="#DejaVuSans-Bold-28" x="92.382812"/>
     <use xlink:href="#DejaVuSans-Bold-74" x="138.085938"/>
     <use xlink:href="#DejaVuSans-Bold-2b" x="185.888672"/>
     <use xlink:href="#DejaVuSans-Bold-31" x="269.677734"/>
     <use xlink:href="#DejaVuSans-Bold-29" x="339.257812"/>
    </g>
   </g>
   <g id="patch_22">
    <path d="M 772.115244 208.626533 
Q 802.199888 221.519952 831.05137 233.884873 
" style="fill: none; stroke: #888888; stroke-width: 1.2; stroke-linecap: round"/>
    <path d="M 828.162628 230.470905 
L 831.05137 233.884873 
L 826.586951 234.147486 
" style="fill: none; stroke: #888888; stroke-width: 1.2; stroke-linecap: round"/>
   </g>
   <g id="text_19">
    <!-- w(t+2) -->
    <g style="fill: #ffffff" transform="translate(853.276406 292.403437) scale(0.09 -0.09)">
     <use xlink:href="#DejaVuSans-Bold-77"/>
     <use xlink:href="#DejaVuSans-Bold-28" x="92.382812"/>
     <use xlink:href="#DejaVuSans-Bold-74" x="138.085938"/>
     <use xlink:href="#DejaVuSans-Bold-2b" x="185.888672"/>
     <use xlink:href="#DejaVuSans-Bold-32" x="269.677734"/>
     <use xlink:href="#DejaVuSans-Bold-29" x="339.257812"/>
    </g>
   </g>
   <g id="patch_23">
    <path d="M 771.509341 209.420581 
Q 802.200372 248.880478 832.067716 287.281349 
" style="fill: none; stroke: #888888; stroke-width: 1.2; stroke-linecap: round"/>
    <path d="M 831.190658 282.896059 
L 832.067716 287.281349 
L 828.033249 285.351821 
" style="fill: none; stroke: #888888; stroke-width: 1.2; stroke-linecap: round"/>
   </g>
   <g id="text_20">
    <!-- Context -->
    <g style="fill: #4a4a4a" transform="translate(852.970547 351.478594) scale(0.09 -0.09)">
     <use xlink:href="#DejaVuSans-43"/>
     <use xlink:href="#DejaVuSans-6f" x="69.824219"/>
     <use xlink:href="#DejaVuSans-6e" x="131.005859"/>
     <use xlink:href="#DejaVuSans-74" x="194.384766"/>
     <use xlink:href="#DejaVuSans-65" x="233.59375"/>
     <use xlink:href="#DejaVuSans-78" x="293.367188"/>
     <use xlink:href="#DejaVuSans-74" x="352.546875"/>
    </g>
   </g>
  </g>
 </g>
 <defs>
  <clipPath id="p9368ea4b3c">
   <rect x="7.2" y="7.2" width="456" height="410.4"/>
  </clipPath>
  <clipPath id="pc81e6fc093">
   <rect x="505.8" y="7.2" width="456" height="410.4"/>
  </clipPath>
 </defs>
</svg>
