<?xml version="1.0" encoding="utf-8" standalone="no"?>
<!DOCTYPE svg PUBLIC "-//W3C//DTD SVG 1.1//EN"
  "http://www.w3.org/Graphics/SVG/1.1/DTD/svg11.dtd">
<svg xmlns:xlink="http://www.w3.org/1999/xlink" width="569.035625pt" height="349.769844pt" viewBox="0 0 569.035625 349.769844" xmlns="http://www.w3.org/2000/svg" version="1.1">
 <metadata>
  <rdf:RDF xmlns:dc="http://purl.org/dc/elements/1.1/" xmlns:cc="http://creativecommons.org/ns#" xmlns:rdf="http://www.w3.org/1999/02/22-rdf-syntax-ns#">
   <cc:Work>
    <dc:type rdf:resource="http://purl.org/dc/dcmitype/StillImage"/>
    <dc:date>2026-01-29T05:43:58.215960</dc:date>
    <dc:format>image/svg+xml</dc:format>
    <dc:creator>
     <cc:Agent>
      <dc:title>Matplotlib v3.10.8, https://matplotlib.org/</dc:title>
     </cc:Agent>
    </dc:creator>
   </cc:Work>
  </rdf:RDF>
 </metadata>
 <defs>
  <style type="text/css">*{stroke-linejoin: round; stroke-linecap: butt}</style>
 </defs>
 <g id="figure_1">
  <g id="patch_1">
   <path d="M 0 349.769844 
L 569.035625 349.769844 
L 569.035625 0 
L 0 0 
z
" style="fill: #ffffff"/>
  </g>
  <g id="axes_1">
   <g id="patch_2">
    <path d="M 45.716875 310.277969 
L 561.835625 310.277969 
L 561.835625 23.077969 
L 45.716875 23.077969 
z
" style="fill: #ffffff"/>
   </g>
   <g id="patch_3">
    <path d="M 345.802803 310.277969 
L 542.814879 310.277969 
L 542.814879 23.077969 
L 345.802803 23.077969 
z
" clip-path="url(#p9c9d1be815)" style="fill: #ffa500; opacity: 0.08; stroke: #ffa500; stroke-linejoin: miter"/>
   </g>
   <g id="matplotlib.axis_1">
    <g id="xtick_1">
     <g id="line2d_1">
      <path d="M 78.233055 310.277969 
L 78.233055 23.077969 
" clip-path="url(#p9c9d1be815)" style="fill: none; stroke: #b0b0b0; stroke-opacity: 0.3; stroke-width: 0.8; stroke-linecap: square"/>
     </g>
     <g id="line2d_2">
      <defs>
       <path id="m100780e56a" d="M 0 0 
L 0 3.5 
" style="stroke: #000000; stroke-width: 0.8"/>
      </defs>
      <g>
       <use xlink:href="#m100780e56a" x="78.233055" y="310.277969" style="stroke: #000000; stroke-width: 0.8"/>
      </g>
     </g>
     <g id="text_1">
      <!-- $\mathdefault{10^{7}}$ -->
      <g transform="translate(69.433055 324.876406) scale(0.1 -0.1)">
       <defs>
        <path id="DejaVuSans-31" d="M 794 531 
L 1825 531 
L 1825 4091 
L 703 3866 
L 703 4441 
L 1819 4666 
L 2450 4666 
L 2450 531 
L 3481 531 
L 3481 0 
L 794 0 
L 794 531 
z
" transform="scale(0.015625)"/>
        <path id="DejaVuSans-30" d="M 2034 4250 
Q 1547 4250 1301 3770 
Q 1056 3291 1056 2328 
Q 1056 1369 1301 889 
Q 1547 409 2034 409 
Q 2525 409 2770 889 
Q 3016 1369 3016 2328 
Q 3016 3291 2770 3770 
Q 2525 4250 2034 4250 
z
M 2034 4750 
Q 2819 4750 3233 4129 
Q 3647 3509 3647 2328 
Q 3647 1150 3233 529 
Q 2819 -91 2034 -91 
Q 1250 -91 836 529 
Q 422 1150 422 2328 
Q 422 3509 836 4129 
Q 1250 4750 2034 4750 
z
" transform="scale(0.015625)"/>
        <path id="DejaVuSans-37" d="M 525 4666 
L 3525 4666 
L 3525 4397 
L 1831 0 
L 1172 0 
L 2766 4134 
L 525 4134 
L 525 4666 
z
" transform="scale(0.015625)"/>
       </defs>
       <use xlink:href="#DejaVuSans-31" transform="translate(0 0.684375)"/>
       <use xlink:href="#DejaVuSans-30" transform="translate(63.623047 0.684375)"/>
       <use xlink:href="#DejaVuSans-37" transform="translate(128.203125 38.965625) scale(0.7)"/>
      </g>
     </g>
    </g>
    <g id="xtick_2">
     <g id="line2d_3">
      <path d="M 186.249466 310.277969 
L 186.249466 23.077969 
" clip-path="url(#p9c9d1be815)" style="fill: none; stroke: #b0b0b0; stroke-opacity: 0.3; stroke-width: 0.8; stroke-linecap: square"/>
     </g>
     <g id="line2d_4">
      <g>
       <use xlink:href="#m100780e56a" x="186.249466" y="310.277969" style="stroke: #000000; stroke-width: 0.8"/>
      </g>
     </g>
     <g id="text_2">
      <!-- $\mathdefault{10^{8}}$ -->
      <g transform="translate(177.449466 324.876406) scale(0.1 -0.1)">
       <defs>
        <path id="DejaVuSans-38" d="M 2034 2216 
Q 1584 2216 1326 1975 
Q 1069 1734 1069 1313 
Q 1069 891 1326 650 
Q 1584 409 2034 409 
Q 2484 409 2743 651 
Q 3003 894 3003 1313 
Q 3003 1734 2745 1975 
Q 2488 2216 2034 2216 
z
M 1403 2484 
Q 997 2584 770 2862 
Q 544 3141 544 3541 
Q 544 4100 942 4425 
Q 1341 4750 2034 4750 
Q 2731 4750 3128 4425 
Q 3525 4100 3525 3541 
Q 3525 3141 3298 2862 
Q 3072 2584 2669 2484 
Q 3125 2378 3379 2068 
Q 3634 1759 3634 1313 
Q 3634 634 3220 271 
Q 2806 -91 2034 -91 
Q 1263 -91 848 271 
Q 434 634 434 1313 
Q 434 1759 690 2068 
Q 947 2378 1403 2484 
z
M 1172 3481 
Q 1172 3119 1398 2916 
Q 1625 2713 2034 2713 
Q 2441 2713 2670 2916 
Q 2900 3119 2900 3481 
Q 2900 3844 2670 4047 
Q 2441 4250 2034 4250 
Q 1625 4250 1398 4047 
Q 1172 3844 1172 3481 
z
" transform="scale(0.015625)"/>
       </defs>
       <use xlink:href="#DejaVuSans-31" transform="translate(0 0.765625)"/>
       <use xlink:href="#DejaVuSans-30" transform="translate(63.623047 0.765625)"/>
       <use xlink:href="#DejaVuSans-38" transform="translate(128.203125 39.046875) scale(0.7)"/>
      </g>
     </g>
    </g>
    <g id="xtick_3">
     <g id="line2d_5">
      <path d="M 294.265877 310.277969 
L 294.265877 23.077969 
" clip-path="url(#p9c9d1be815)" style="fill: none; stroke: #b0b0b0; stroke-opacity: 0.3; stroke-width: 0.8; stroke-linecap: square"/>
     </g>
     <g id="line2d_6">
      <g>
       <use xlink:href="#m100780e56a" x="294.265877" y="310.277969" style="stroke: #000000; stroke-width: 0.8"/>
      </g>
     </g>
     <g id="text_3">
      <!-- $\mathdefault{10^{9}}$ -->
      <g transform="translate(285.465877 324.876406) scale(0.1 -0.1)">
       <defs>
        <path id="DejaVuSans-39" d="M 703 97 
L 703 672 
Q 941 559 1184 500 
Q 1428 441 1663 441 
Q 2288 441 2617 861 
Q 2947 1281 2994 2138 
Q 2813 1869 2534 1725 
Q 2256 1581 1919 1581 
Q 1219 1581 811 2004 
Q 403 2428 403 3163 
Q 403 3881 828 4315 
Q 1253 4750 1959 4750 
Q 2769 4750 3195 4129 
Q 3622 3509 3622 2328 
Q 3622 1225 3098 567 
Q 2575 -91 1691 -91 
Q 1453 -91 1209 -44 
Q 966 3 703 97 
z
M 1959 2075 
Q 2384 2075 2632 2365 
Q 2881 2656 2881 3163 
Q 2881 3666 2632 3958 
Q 2384 4250 1959 4250 
Q 1534 4250 1286 3958 
Q 1038 3666 1038 3163 
Q 1038 2656 1286 2365 
Q 1534 2075 1959 2075 
z
" transform="scale(0.015625)"/>
       </defs>
       <use xlink:href="#DejaVuSans-31" transform="translate(0 0.765625)"/>
       <use xlink:href="#DejaVuSans-30" transform="translate(63.623047 0.765625)"/>
       <use xlink:href="#DejaVuSans-39" transform="translate(128.203125 39.046875) scale(0.7)"/>
      </g>
     </g>
    </g>
    <g id="xtick_4">
     <g id="line2d_7">
      <path d="M 402.282288 310.277969 
L 402.282288 23.077969 
" clip-path="url(#p9c9d1be815)" style="fill: none; stroke: #b0b0b0; stroke-opacity: 0.3; stroke-width: 0.8; stroke-linecap: square"/>
     </g>
     <g id="line2d_8">
      <g>
       <use xlink:href="#m100780e56a" x="402.282288" y="310.277969" style="stroke: #000000; stroke-width: 0.8"/>
      </g>
     </g>
     <g id="text_4">
      <!-- $\mathdefault{10^{10}}$ -->
      <g transform="translate(391.232288 324.876406) scale(0.1 -0.1)">
       <use xlink:href="#DejaVuSans-31" transform="translate(0 0.765625)"/>
       <use xlink:href="#DejaVuSans-30" transform="translate(63.623047 0.765625)"/>
       <use xlink:href="#DejaVuSans-31" transform="translate(128.203125 39.046875) scale(0.7)"/>
       <use xlink:href="#DejaVuSans-30" transform="translate(172.739258 39.046875) scale(0.7)"/>
      </g>
     </g>
    </g>
    <g id="xtick_5">
     <g id="line2d_9">
      <path d="M 510.298699 310.277969 
L 510.298699 23.077969 
" clip-path="url(#p9c9d1be815)" style="fill: none; stroke: #b0b0b0; stroke-opacity: 0.3; stroke-width: 0.8; stroke-linecap: square"/>
     </g>
     <g id="line2d_10">
      <g>
       <use xlink:href="#m100780e56a" x="510.298699" y="310.277969" style="stroke: #000000; stroke-width: 0.8"/>
      </g>
     </g>
     <g id="text_5">
      <!-- $\mathdefault{10^{11}}$ -->
      <g transform="translate(499.248699 324.876406) scale(0.1 -0.1)">
       <use xlink:href="#DejaVuSans-31" transform="translate(0 0.684375)"/>
       <use xlink:href="#DejaVuSans-30" transform="translate(63.623047 0.684375)"/>
       <use xlink:href="#DejaVuSans-31" transform="translate(128.203125 38.965625) scale(0.7)"/>
       <use xlink:href="#DejaVuSans-31" transform="translate(172.739258 38.965625) scale(0.7)"/>
      </g>
     </g>
    </g>
    <g id="xtick_6">
     <g id="line2d_11">
      <defs>
       <path id="mf435ee8bb4" d="M 0 0 
L 0 2 
" style="stroke: #000000; stroke-width: 0.6"/>
      </defs>
      <g>
       <use xlink:href="#mf435ee8bb4" x="45.716875" y="310.277969" style="stroke: #000000; stroke-width: 0.6"/>
      </g>
     </g>
    </g>
    <g id="xtick_7">
     <g id="line2d_12">
      <g>
       <use xlink:href="#mf435ee8bb4" x="54.269749" y="310.277969" style="stroke: #000000; stroke-width: 0.6"/>
      </g>
     </g>
    </g>
    <g id="xtick_8">
     <g id="line2d_13">
      <g>
       <use xlink:href="#mf435ee8bb4" x="61.501101" y="310.277969" style="stroke: #000000; stroke-width: 0.6"/>
      </g>
     </g>
    </g>
    <g id="xtick_9">
     <g id="line2d_14">
      <g>
       <use xlink:href="#mf435ee8bb4" x="67.765183" y="310.277969" style="stroke: #000000; stroke-width: 0.6"/>
      </g>
     </g>
    </g>
    <g id="xtick_10">
     <g id="line2d_15">
      <g>
       <use xlink:href="#mf435ee8bb4" x="73.290495" y="310.277969" style="stroke: #000000; stroke-width: 0.6"/>
      </g>
     </g>
    </g>
    <g id="xtick_11">
     <g id="line2d_16">
      <g>
       <use xlink:href="#mf435ee8bb4" x="110.749235" y="310.277969" style="stroke: #000000; stroke-width: 0.6"/>
      </g>
     </g>
    </g>
    <g id="xtick_12">
     <g id="line2d_17">
      <g>
       <use xlink:href="#mf435ee8bb4" x="129.76998" y="310.277969" style="stroke: #000000; stroke-width: 0.6"/>
      </g>
     </g>
    </g>
    <g id="xtick_13">
     <g id="line2d_18">
      <g>
       <use xlink:href="#mf435ee8bb4" x="143.265414" y="310.277969" style="stroke: #000000; stroke-width: 0.6"/>
      </g>
     </g>
    </g>
    <g id="xtick_14">
     <g id="line2d_19">
      <g>
       <use xlink:href="#mf435ee8bb4" x="153.733286" y="310.277969" style="stroke: #000000; stroke-width: 0.6"/>
      </g>
     </g>
    </g>
    <g id="xtick_15">
     <g id="line2d_20">
      <g>
       <use xlink:href="#mf435ee8bb4" x="162.28616" y="310.277969" style="stroke: #000000; stroke-width: 0.6"/>
      </g>
     </g>
    </g>
    <g id="xtick_16">
     <g id="line2d_21">
      <g>
       <use xlink:href="#mf435ee8bb4" x="169.517512" y="310.277969" style="stroke: #000000; stroke-width: 0.6"/>
      </g>
     </g>
    </g>
    <g id="xtick_17">
     <g id="line2d_22">
      <g>
       <use xlink:href="#mf435ee8bb4" x="175.781594" y="310.277969" style="stroke: #000000; stroke-width: 0.6"/>
      </g>
     </g>
    </g>
    <g id="xtick_18">
     <g id="line2d_23">
      <g>
       <use xlink:href="#mf435ee8bb4" x="181.306906" y="310.277969" style="stroke: #000000; stroke-width: 0.6"/>
      </g>
     </g>
    </g>
    <g id="xtick_19">
     <g id="line2d_24">
      <g>
       <use xlink:href="#mf435ee8bb4" x="218.765646" y="310.277969" style="stroke: #000000; stroke-width: 0.6"/>
      </g>
     </g>
    </g>
    <g id="xtick_20">
     <g id="line2d_25">
      <g>
       <use xlink:href="#mf435ee8bb4" x="237.786392" y="310.277969" style="stroke: #000000; stroke-width: 0.6"/>
      </g>
     </g>
    </g>
    <g id="xtick_21">
     <g id="line2d_26">
      <g>
       <use xlink:href="#mf435ee8bb4" x="251.281825" y="310.277969" style="stroke: #000000; stroke-width: 0.6"/>
      </g>
     </g>
    </g>
    <g id="xtick_22">
     <g id="line2d_27">
      <g>
       <use xlink:href="#mf435ee8bb4" x="261.749697" y="310.277969" style="stroke: #000000; stroke-width: 0.6"/>
      </g>
     </g>
    </g>
    <g id="xtick_23">
     <g id="line2d_28">
      <g>
       <use xlink:href="#mf435ee8bb4" x="270.302571" y="310.277969" style="stroke: #000000; stroke-width: 0.6"/>
      </g>
     </g>
    </g>
    <g id="xtick_24">
     <g id="line2d_29">
      <g>
       <use xlink:href="#mf435ee8bb4" x="277.533923" y="310.277969" style="stroke: #000000; stroke-width: 0.6"/>
      </g>
     </g>
    </g>
    <g id="xtick_25">
     <g id="line2d_30">
      <g>
       <use xlink:href="#mf435ee8bb4" x="283.798005" y="310.277969" style="stroke: #000000; stroke-width: 0.6"/>
      </g>
     </g>
    </g>
    <g id="xtick_26">
     <g id="line2d_31">
      <g>
       <use xlink:href="#mf435ee8bb4" x="289.323317" y="310.277969" style="stroke: #000000; stroke-width: 0.6"/>
      </g>
     </g>
    </g>
    <g id="xtick_27">
     <g id="line2d_32">
      <g>
       <use xlink:href="#mf435ee8bb4" x="326.782057" y="310.277969" style="stroke: #000000; stroke-width: 0.6"/>
      </g>
     </g>
    </g>
    <g id="xtick_28">
     <g id="line2d_33">
      <g>
       <use xlink:href="#mf435ee8bb4" x="345.802803" y="310.277969" style="stroke: #000000; stroke-width: 0.6"/>
      </g>
     </g>
    </g>
    <g id="xtick_29">
     <g id="line2d_34">
      <g>
       <use xlink:href="#mf435ee8bb4" x="359.298237" y="310.277969" style="stroke: #000000; stroke-width: 0.6"/>
      </g>
     </g>
    </g>
    <g id="xtick_30">
     <g id="line2d_35">
      <g>
       <use xlink:href="#mf435ee8bb4" x="369.766108" y="310.277969" style="stroke: #000000; stroke-width: 0.6"/>
      </g>
     </g>
    </g>
    <g id="xtick_31">
     <g id="line2d_36">
      <g>
       <use xlink:href="#mf435ee8bb4" x="378.318982" y="310.277969" style="stroke: #000000; stroke-width: 0.6"/>
      </g>
     </g>
    </g>
    <g id="xtick_32">
     <g id="line2d_37">
      <g>
       <use xlink:href="#mf435ee8bb4" x="385.550334" y="310.277969" style="stroke: #000000; stroke-width: 0.6"/>
      </g>
     </g>
    </g>
    <g id="xtick_33">
     <g id="line2d_38">
      <g>
       <use xlink:href="#mf435ee8bb4" x="391.814416" y="310.277969" style="stroke: #000000; stroke-width: 0.6"/>
      </g>
     </g>
    </g>
    <g id="xtick_34">
     <g id="line2d_39">
      <g>
       <use xlink:href="#mf435ee8bb4" x="397.339728" y="310.277969" style="stroke: #000000; stroke-width: 0.6"/>
      </g>
     </g>
    </g>
    <g id="xtick_35">
     <g id="line2d_40">
      <g>
       <use xlink:href="#mf435ee8bb4" x="434.798468" y="310.277969" style="stroke: #000000; stroke-width: 0.6"/>
      </g>
     </g>
    </g>
    <g id="xtick_36">
     <g id="line2d_41">
      <g>
       <use xlink:href="#mf435ee8bb4" x="453.819214" y="310.277969" style="stroke: #000000; stroke-width: 0.6"/>
      </g>
     </g>
    </g>
    <g id="xtick_37">
     <g id="line2d_42">
      <g>
       <use xlink:href="#mf435ee8bb4" x="467.314648" y="310.277969" style="stroke: #000000; stroke-width: 0.6"/>
      </g>
     </g>
    </g>
    <g id="xtick_38">
     <g id="line2d_43">
      <g>
       <use xlink:href="#mf435ee8bb4" x="477.78252" y="310.277969" style="stroke: #000000; stroke-width: 0.6"/>
      </g>
     </g>
    </g>
    <g id="xtick_39">
     <g id="line2d_44">
      <g>
       <use xlink:href="#mf435ee8bb4" x="486.335394" y="310.277969" style="stroke: #000000; stroke-width: 0.6"/>
      </g>
     </g>
    </g>
    <g id="xtick_40">
     <g id="line2d_45">
      <g>
       <use xlink:href="#mf435ee8bb4" x="493.566746" y="310.277969" style="stroke: #000000; stroke-width: 0.6"/>
      </g>
     </g>
    </g>
    <g id="xtick_41">
     <g id="line2d_46">
      <g>
       <use xlink:href="#mf435ee8bb4" x="499.830828" y="310.277969" style="stroke: #000000; stroke-width: 0.6"/>
      </g>
     </g>
    </g>
    <g id="xtick_42">
     <g id="line2d_47">
      <g>
       <use xlink:href="#mf435ee8bb4" x="505.356139" y="310.277969" style="stroke: #000000; stroke-width: 0.6"/>
      </g>
     </g>
    </g>
    <g id="xtick_43">
     <g id="line2d_48">
      <g>
       <use xlink:href="#mf435ee8bb4" x="542.814879" y="310.277969" style="stroke: #000000; stroke-width: 0.6"/>
      </g>
     </g>
    </g>
    <g id="xtick_44">
     <g id="line2d_49">
      <g>
       <use xlink:href="#mf435ee8bb4" x="561.835625" y="310.277969" style="stroke: #000000; stroke-width: 0.6"/>
      </g>
     </g>
    </g>
    <g id="text_6">
     <!-- Non-embedding parameters (N) -->
     <g transform="translate(207.929063 340.074219) scale(0.12 -0.12)">
      <defs>
       <path id="DejaVuSans-4e" d="M 628 4666 
L 1478 4666 
L 3547 763 
L 3547 4666 
L 4159 4666 
L 4159 0 
L 3309 0 
L 1241 3903 
L 1241 0 
L 628 0 
L 628 4666 
z
" transform="scale(0.015625)"/>
       <path id="DejaVuSans-6f" d="M 1959 3097 
Q 1497 3097 1228 2736 
Q 959 2375 959 1747 
Q 959 1119 1226 758 
Q 1494 397 1959 397 
Q 2419 397 2687 759 
Q 2956 1122 2956 1747 
Q 2956 2369 2687 2733 
Q 2419 3097 1959 3097 
z
M 1959 3584 
Q 2709 3584 3137 3096 
Q 3566 2609 3566 1747 
Q 3566 888 3137 398 
Q 2709 -91 1959 -91 
Q 1206 -91 779 398 
Q 353 888 353 1747 
Q 353 2609 779 3096 
Q 1206 3584 1959 3584 
z
" transform="scale(0.015625)"/>
       <path id="DejaVuSans-6e" d="M 3513 2113 
L 3513 0 
L 2938 0 
L 2938 2094 
Q 2938 2591 2744 2837 
Q 2550 3084 2163 3084 
Q 1697 3084 1428 2787 
Q 1159 2491 1159 1978 
L 1159 0 
L 581 0 
L 581 3500 
L 1159 3500 
L 1159 2956 
Q 1366 3272 1645 3428 
Q 1925 3584 2291 3584 
Q 2894 3584 3203 3211 
Q 3513 2838 3513 2113 
z
" transform="scale(0.015625)"/>
       <path id="DejaVuSans-2d" d="M 313 2009 
L 1997 2009 
L 1997 1497 
L 313 1497 
L 313 2009 
z
" transform="scale(0.015625)"/>
       <path id="DejaVuSans-65" d="M 3597 1894 
L 3597 1613 
L 953 1613 
Q 991 1019 1311 708 
Q 1631 397 2203 397 
Q 2534 397 2845 478 
Q 3156 559 3463 722 
L 3463 178 
Q 3153 47 2828 -22 
Q 2503 -91 2169 -91 
Q 1331 -91 842 396 
Q 353 884 353 1716 
Q 353 2575 817 3079 
Q 1281 3584 2069 3584 
Q 2775 3584 3186 3129 
Q 3597 2675 3597 1894 
z
M 3022 2063 
Q 3016 2534 2758 2815 
Q 2500 3097 2075 3097 
Q 1594 3097 1305 2825 
Q 1016 2553 972 2059 
L 3022 2063 
z
" transform="scale(0.015625)"/>
       <path id="DejaVuSans-6d" d="M 3328 2828 
Q 3544 3216 3844 3400 
Q 4144 3584 4550 3584 
Q 5097 3584 5394 3201 
Q 5691 2819 5691 2113 
L 5691 0 
L 5113 0 
L 5113 2094 
Q 5113 2597 4934 2840 
Q 4756 3084 4391 3084 
Q 3944 3084 3684 2787 
Q 3425 2491 3425 1978 
L 3425 0 
L 2847 0 
L 2847 2094 
Q 2847 2600 2669 2842 
Q 2491 3084 2119 3084 
Q 1678 3084 1418 2786 
Q 1159 2488 1159 1978 
L 1159 0 
L 581 0 
L 581 3500 
L 1159 3500 
L 1159 2956 
Q 1356 3278 1631 3431 
Q 1906 3584 2284 3584 
Q 2666 3584 2933 3390 
Q 3200 3197 3328 2828 
z
" transform="scale(0.015625)"/>
       <path id="DejaVuSans-62" d="M 3116 1747 
Q 3116 2381 2855 2742 
Q 2594 3103 2138 3103 
Q 1681 3103 1420 2742 
Q 1159 2381 1159 1747 
Q 1159 1113 1420 752 
Q 1681 391 2138 391 
Q 2594 391 2855 752 
Q 3116 1113 3116 1747 
z
M 1159 2969 
Q 1341 3281 1617 3432 
Q 1894 3584 2278 3584 
Q 2916 3584 3314 3078 
Q 3713 2572 3713 1747 
Q 3713 922 3314 415 
Q 2916 -91 2278 -91 
Q 1894 -91 1617 61 
Q 1341 213 1159 525 
L 1159 0 
L 581 0 
L 581 4863 
L 1159 4863 
L 1159 2969 
z
" transform="scale(0.015625)"/>
       <path id="DejaVuSans-64" d="M 2906 2969 
L 2906 4863 
L 3481 4863 
L 3481 0 
L 2906 0 
L 2906 525 
Q 2725 213 2448 61 
Q 2172 -91 1784 -91 
Q 1150 -91 751 415 
Q 353 922 353 1747 
Q 353 2572 751 3078 
Q 1150 3584 1784 3584 
Q 2172 3584 2448 3432 
Q 2725 3281 2906 2969 
z
M 947 1747 
Q 947 1113 1208 752 
Q 1469 391 1925 391 
Q 2381 391 2643 752 
Q 2906 1113 2906 1747 
Q 2906 2381 2643 2742 
Q 2381 3103 1925 3103 
Q 1469 3103 1208 2742 
Q 947 2381 947 1747 
z
" transform="scale(0.015625)"/>
       <path id="DejaVuSans-69" d="M 603 3500 
L 1178 3500 
L 1178 0 
L 603 0 
L 603 3500 
z
M 603 4863 
L 1178 4863 
L 1178 4134 
L 603 4134 
L 603 4863 
z
" transform="scale(0.015625)"/>
       <path id="DejaVuSans-67" d="M 2906 1791 
Q 2906 2416 2648 2759 
Q 2391 3103 1925 3103 
Q 1463 3103 1205 2759 
Q 947 2416 947 1791 
Q 947 1169 1205 825 
Q 1463 481 1925 481 
Q 2391 481 2648 825 
Q 2906 1169 2906 1791 
z
M 3481 434 
Q 3481 -459 3084 -895 
Q 2688 -1331 1869 -1331 
Q 1566 -1331 1297 -1286 
Q 1028 -1241 775 -1147 
L 775 -588 
Q 1028 -725 1275 -790 
Q 1522 -856 1778 -856 
Q 2344 -856 2625 -561 
Q 2906 -266 2906 331 
L 2906 616 
Q 2728 306 2450 153 
Q 2172 0 1784 0 
Q 1141 0 747 490 
Q 353 981 353 1791 
Q 353 2603 747 3093 
Q 1141 3584 1784 3584 
Q 2172 3584 2450 3431 
Q 2728 3278 2906 2969 
L 2906 3500 
L 3481 3500 
L 3481 434 
z
" transform="scale(0.015625)"/>
       <path id="DejaVuSans-20" transform="scale(0.015625)"/>
       <path id="DejaVuSans-70" d="M 1159 525 
L 1159 -1331 
L 581 -1331 
L 581 3500 
L 1159 3500 
L 1159 2969 
Q 1341 3281 1617 3432 
Q 1894 3584 2278 3584 
Q 2916 3584 3314 3078 
Q 3713 2572 3713 1747 
Q 3713 922 3314 415 
Q 2916 -91 2278 -91 
Q 1894 -91 1617 61 
Q 1341 213 1159 525 
z
M 3116 1747 
Q 3116 2381 2855 2742 
Q 2594 3103 2138 3103 
Q 1681 3103 1420 2742 
Q 1159 2381 1159 1747 
Q 1159 1113 1420 752 
Q 1681 391 2138 391 
Q 2594 391 2855 752 
Q 3116 1113 3116 1747 
z
" transform="scale(0.015625)"/>
       <path id="DejaVuSans-61" d="M 2194 1759 
Q 1497 1759 1228 1600 
Q 959 1441 959 1056 
Q 959 750 1161 570 
Q 1363 391 1709 391 
Q 2188 391 2477 730 
Q 2766 1069 2766 1631 
L 2766 1759 
L 2194 1759 
z
M 3341 1997 
L 3341 0 
L 2766 0 
L 2766 531 
Q 2569 213 2275 61 
Q 1981 -91 1556 -91 
Q 1019 -91 701 211 
Q 384 513 384 1019 
Q 384 1609 779 1909 
Q 1175 2209 1959 2209 
L 2766 2209 
L 2766 2266 
Q 2766 2663 2505 2880 
Q 2244 3097 1772 3097 
Q 1472 3097 1187 3025 
Q 903 2953 641 2809 
L 641 3341 
Q 956 3463 1253 3523 
Q 1550 3584 1831 3584 
Q 2591 3584 2966 3190 
Q 3341 2797 3341 1997 
z
" transform="scale(0.015625)"/>
       <path id="DejaVuSans-72" d="M 2631 2963 
Q 2534 3019 2420 3045 
Q 2306 3072 2169 3072 
Q 1681 3072 1420 2755 
Q 1159 2438 1159 1844 
L 1159 0 
L 581 0 
L 581 3500 
L 1159 3500 
L 1159 2956 
Q 1341 3275 1631 3429 
Q 1922 3584 2338 3584 
Q 2397 3584 2469 3576 
Q 2541 3569 2628 3553 
L 2631 2963 
z
" transform="scale(0.015625)"/>
       <path id="DejaVuSans-74" d="M 1172 4494 
L 1172 3500 
L 2356 3500 
L 2356 3053 
L 1172 3053 
L 1172 1153 
Q 1172 725 1289 603 
Q 1406 481 1766 481 
L 2356 481 
L 2356 0 
L 1766 0 
Q 1100 0 847 248 
Q 594 497 594 1153 
L 594 3053 
L 172 3053 
L 172 3500 
L 594 3500 
L 594 4494 
L 1172 4494 
z
" transform="scale(0.015625)"/>
       <path id="DejaVuSans-73" d="M 2834 3397 
L 2834 2853 
Q 2591 2978 2328 3040 
Q 2066 3103 1784 3103 
Q 1356 3103 1142 2972 
Q 928 2841 928 2578 
Q 928 2378 1081 2264 
Q 1234 2150 1697 2047 
L 1894 2003 
Q 2506 1872 2764 1633 
Q 3022 1394 3022 966 
Q 3022 478 2636 193 
Q 2250 -91 1575 -91 
Q 1294 -91 989 -36 
Q 684 19 347 128 
L 347 722 
Q 666 556 975 473 
Q 1284 391 1588 391 
Q 1994 391 2212 530 
Q 2431 669 2431 922 
Q 2431 1156 2273 1281 
Q 2116 1406 1581 1522 
L 1381 1569 
Q 847 1681 609 1914 
Q 372 2147 372 2553 
Q 372 3047 722 3315 
Q 1072 3584 1716 3584 
Q 2034 3584 2315 3537 
Q 2597 3491 2834 3397 
z
" transform="scale(0.015625)"/>
       <path id="DejaVuSans-28" d="M 1984 4856 
Q 1566 4138 1362 3434 
Q 1159 2731 1159 2009 
Q 1159 1288 1364 580 
Q 1569 -128 1984 -844 
L 1484 -844 
Q 1016 -109 783 600 
Q 550 1309 550 2009 
Q 550 2706 781 3412 
Q 1013 4119 1484 4856 
L 1984 4856 
z
" transform="scale(0.015625)"/>
       <path id="DejaVuSans-29" d="M 513 4856 
L 1013 4856 
Q 1481 4119 1714 3412 
Q 1947 2706 1947 2009 
Q 1947 1309 1714 600 
Q 1481 -109 1013 -844 
L 513 -844 
Q 928 -128 1133 580 
Q 1338 1288 1338 2009 
Q 1338 2731 1133 3434 
Q 928 4138 513 4856 
z
" transform="scale(0.015625)"/>
      </defs>
      <use xlink:href="#DejaVuSans-4e"/>
      <use xlink:href="#DejaVuSans-6f" transform="translate(74.804688 0)"/>
      <use xlink:href="#DejaVuSans-6e" transform="translate(135.986328 0)"/>
      <use xlink:href="#DejaVuSans-2d" transform="translate(199.365234 0)"/>
      <use xlink:href="#DejaVuSans-65" transform="translate(235.449219 0)"/>
      <use xlink:href="#DejaVuSans-6d" transform="translate(296.972656 0)"/>
      <use xlink:href="#DejaVuSans-62" transform="translate(394.384766 0)"/>
      <use xlink:href="#DejaVuSans-65" transform="translate(457.861328 0)"/>
      <use xlink:href="#DejaVuSans-64" transform="translate(519.384766 0)"/>
      <use xlink:href="#DejaVuSans-64" transform="translate(582.861328 0)"/>
      <use xlink:href="#DejaVuSans-69" transform="translate(646.337891 0)"/>
      <use xlink:href="#DejaVuSans-6e" transform="translate(674.121094 0)"/>
      <use xlink:href="#DejaVuSans-67" transform="translate(737.5 0)"/>
      <use xlink:href="#DejaVuSans-20" transform="translate(800.976562 0)"/>
      <use xlink:href="#DejaVuSans-70" transform="translate(832.763672 0)"/>
      <use xlink:href="#DejaVuSans-61" transform="translate(896.240234 0)"/>
      <use xlink:href="#DejaVuSans-72" transform="translate(957.519531 0)"/>
      <use xlink:href="#DejaVuSans-61" transform="translate(998.632812 0)"/>
      <use xlink:href="#DejaVuSans-6d" transform="translate(1059.912109 0)"/>
      <use xlink:href="#DejaVuSans-65" transform="translate(1157.324219 0)"/>
      <use xlink:href="#DejaVuSans-74" transform="translate(1218.847656 0)"/>
      <use xlink:href="#DejaVuSans-65" transform="translate(1258.056641 0)"/>
      <use xlink:href="#DejaVuSans-72" transform="translate(1319.580078 0)"/>
      <use xlink:href="#DejaVuSans-73" transform="translate(1360.693359 0)"/>
      <use xlink:href="#DejaVuSans-20" transform="translate(1412.792969 0)"/>
      <use xlink:href="#DejaVuSans-28" transform="translate(1444.580078 0)"/>
      <use xlink:href="#DejaVuSans-4e" transform="translate(1483.59375 0)"/>
      <use xlink:href="#DejaVuSans-29" transform="translate(1558.398438 0)"/>
     </g>
    </g>
   </g>
   <g id="matplotlib.axis_2">
    <g id="ytick_1">
     <g id="line2d_50">
      <path d="M 45.716875 310.277969 
L 561.835625 310.277969 
" clip-path="url(#p9c9d1be815)" style="fill: none; stroke: #b0b0b0; stroke-opacity: 0.3; stroke-width: 0.8; stroke-linecap: square"/>
     </g>
     <g id="line2d_51">
      <defs>
       <path id="m41571915a9" d="M 0 0 
L -3.5 0 
" style="stroke: #000000; stroke-width: 0.8"/>
      </defs>
      <g>
       <use xlink:href="#m41571915a9" x="45.716875" y="310.277969" style="stroke: #000000; stroke-width: 0.8"/>
      </g>
     </g>
     <g id="text_7">
      <!-- 1.5 -->
      <g transform="translate(22.81375 314.077187) scale(0.1 -0.1)">
       <defs>
        <path id="DejaVuSans-2e" d="M 684 794 
L 1344 794 
L 1344 0 
L 684 0 
L 684 794 
z
" transform="scale(0.015625)"/>
        <path id="DejaVuSans-35" d="M 691 4666 
L 3169 4666 
L 3169 4134 
L 1269 4134 
L 1269 2991 
Q 1406 3038 1543 3061 
Q 1681 3084 1819 3084 
Q 2600 3084 3056 2656 
Q 3513 2228 3513 1497 
Q 3513 744 3044 326 
Q 2575 -91 1722 -91 
Q 1428 -91 1123 -41 
Q 819 9 494 109 
L 494 744 
Q 775 591 1075 516 
Q 1375 441 1709 441 
Q 2250 441 2565 725 
Q 2881 1009 2881 1497 
Q 2881 1984 2565 2268 
Q 2250 2553 1709 2553 
Q 1456 2553 1204 2497 
Q 953 2441 691 2322 
L 691 4666 
z
" transform="scale(0.015625)"/>
       </defs>
       <use xlink:href="#DejaVuSans-31"/>
       <use xlink:href="#DejaVuSans-2e" transform="translate(63.623047 0)"/>
       <use xlink:href="#DejaVuSans-35" transform="translate(95.410156 0)"/>
      </g>
     </g>
    </g>
    <g id="ytick_2">
     <g id="line2d_52">
      <path d="M 45.716875 247.843186 
L 561.835625 247.843186 
" clip-path="url(#p9c9d1be815)" style="fill: none; stroke: #b0b0b0; stroke-opacity: 0.3; stroke-width: 0.8; stroke-linecap: square"/>
     </g>
     <g id="line2d_53">
      <g>
       <use xlink:href="#m41571915a9" x="45.716875" y="247.843186" style="stroke: #000000; stroke-width: 0.8"/>
      </g>
     </g>
     <g id="text_8">
      <!-- 2.0 -->
      <g transform="translate(22.81375 251.642405) scale(0.1 -0.1)">
       <defs>
        <path id="DejaVuSans-32" d="M 1228 531 
L 3431 531 
L 3431 0 
L 469 0 
L 469 531 
Q 828 903 1448 1529 
Q 2069 2156 2228 2338 
Q 2531 2678 2651 2914 
Q 2772 3150 2772 3378 
Q 2772 3750 2511 3984 
Q 2250 4219 1831 4219 
Q 1534 4219 1204 4116 
Q 875 4013 500 3803 
L 500 4441 
Q 881 4594 1212 4672 
Q 1544 4750 1819 4750 
Q 2544 4750 2975 4387 
Q 3406 4025 3406 3419 
Q 3406 3131 3298 2873 
Q 3191 2616 2906 2266 
Q 2828 2175 2409 1742 
Q 1991 1309 1228 531 
z
" transform="scale(0.015625)"/>
       </defs>
       <use xlink:href="#DejaVuSans-32"/>
       <use xlink:href="#DejaVuSans-2e" transform="translate(63.623047 0)"/>
       <use xlink:href="#DejaVuSans-30" transform="translate(95.410156 0)"/>
      </g>
     </g>
    </g>
    <g id="ytick_3">
     <g id="line2d_54">
      <path d="M 45.716875 185.408404 
L 561.835625 185.408404 
" clip-path="url(#p9c9d1be815)" style="fill: none; stroke: #b0b0b0; stroke-opacity: 0.3; stroke-width: 0.8; stroke-linecap: square"/>
     </g>
     <g id="line2d_55">
      <g>
       <use xlink:href="#m41571915a9" x="45.716875" y="185.408404" style="stroke: #000000; stroke-width: 0.8"/>
      </g>
     </g>
     <g id="text_9">
      <!-- 2.5 -->
      <g transform="translate(22.81375 189.207622) scale(0.1 -0.1)">
       <use xlink:href="#DejaVuSans-32"/>
       <use xlink:href="#DejaVuSans-2e" transform="translate(63.623047 0)"/>
       <use xlink:href="#DejaVuSans-35" transform="translate(95.410156 0)"/>
      </g>
     </g>
    </g>
    <g id="ytick_4">
     <g id="line2d_56">
      <path d="M 45.716875 122.973621 
L 561.835625 122.973621 
" clip-path="url(#p9c9d1be815)" style="fill: none; stroke: #b0b0b0; stroke-opacity: 0.3; stroke-width: 0.8; stroke-linecap: square"/>
     </g>
     <g id="line2d_57">
      <g>
       <use xlink:href="#m41571915a9" x="45.716875" y="122.973621" style="stroke: #000000; stroke-width: 0.8"/>
      </g>
     </g>
     <g id="text_10">
      <!-- 3.0 -->
      <g transform="translate(22.81375 126.77284) scale(0.1 -0.1)">
       <defs>
        <path id="DejaVuSans-33" d="M 2597 2516 
Q 3050 2419 3304 2112 
Q 3559 1806 3559 1356 
Q 3559 666 3084 287 
Q 2609 -91 1734 -91 
Q 1441 -91 1130 -33 
Q 819 25 488 141 
L 488 750 
Q 750 597 1062 519 
Q 1375 441 1716 441 
Q 2309 441 2620 675 
Q 2931 909 2931 1356 
Q 2931 1769 2642 2001 
Q 2353 2234 1838 2234 
L 1294 2234 
L 1294 2753 
L 1863 2753 
Q 2328 2753 2575 2939 
Q 2822 3125 2822 3475 
Q 2822 3834 2567 4026 
Q 2313 4219 1838 4219 
Q 1578 4219 1281 4162 
Q 984 4106 628 3988 
L 628 4550 
Q 988 4650 1302 4700 
Q 1616 4750 1894 4750 
Q 2613 4750 3031 4423 
Q 3450 4097 3450 3541 
Q 3450 3153 3228 2886 
Q 3006 2619 2597 2516 
z
" transform="scale(0.015625)"/>
       </defs>
       <use xlink:href="#DejaVuSans-33"/>
       <use xlink:href="#DejaVuSans-2e" transform="translate(63.623047 0)"/>
       <use xlink:href="#DejaVuSans-30" transform="translate(95.410156 0)"/>
      </g>
     </g>
    </g>
    <g id="ytick_5">
     <g id="line2d_58">
      <path d="M 45.716875 60.538838 
L 561.835625 60.538838 
" clip-path="url(#p9c9d1be815)" style="fill: none; stroke: #b0b0b0; stroke-opacity: 0.3; stroke-width: 0.8; stroke-linecap: square"/>
     </g>
     <g id="line2d_59">
      <g>
       <use xlink:href="#m41571915a9" x="45.716875" y="60.538838" style="stroke: #000000; stroke-width: 0.8"/>
      </g>
     </g>
     <g id="text_11">
      <!-- 3.5 -->
      <g transform="translate(22.81375 64.338057) scale(0.1 -0.1)">
       <use xlink:href="#DejaVuSans-33"/>
       <use xlink:href="#DejaVuSans-2e" transform="translate(63.623047 0)"/>
       <use xlink:href="#DejaVuSans-35" transform="translate(95.410156 0)"/>
      </g>
     </g>
    </g>
    <g id="text_12">
     <!-- Cross-entropy loss (L) -->
     <g transform="translate(16.318125 231.924219) rotate(-90) scale(0.12 -0.12)">
      <defs>
       <path id="DejaVuSans-43" d="M 4122 4306 
L 4122 3641 
Q 3803 3938 3442 4084 
Q 3081 4231 2675 4231 
Q 1875 4231 1450 3742 
Q 1025 3253 1025 2328 
Q 1025 1406 1450 917 
Q 1875 428 2675 428 
Q 3081 428 3442 575 
Q 3803 722 4122 1019 
L 4122 359 
Q 3791 134 3420 21 
Q 3050 -91 2638 -91 
Q 1578 -91 968 557 
Q 359 1206 359 2328 
Q 359 3453 968 4101 
Q 1578 4750 2638 4750 
Q 3056 4750 3426 4639 
Q 3797 4528 4122 4306 
z
" transform="scale(0.015625)"/>
       <path id="DejaVuSans-79" d="M 2059 -325 
Q 1816 -950 1584 -1140 
Q 1353 -1331 966 -1331 
L 506 -1331 
L 506 -850 
L 844 -850 
Q 1081 -850 1212 -737 
Q 1344 -625 1503 -206 
L 1606 56 
L 191 3500 
L 800 3500 
L 1894 763 
L 2988 3500 
L 3597 3500 
L 2059 -325 
z
" transform="scale(0.015625)"/>
       <path id="DejaVuSans-6c" d="M 603 4863 
L 1178 4863 
L 1178 0 
L 603 0 
L 603 4863 
z
" transform="scale(0.015625)"/>
       <path id="DejaVuSans-4c" d="M 628 4666 
L 1259 4666 
L 1259 531 
L 3531 531 
L 3531 0 
L 628 0 
L 628 4666 
z
" transform="scale(0.015625)"/>
      </defs>
      <use xlink:href="#DejaVuSans-43"/>
      <use xlink:href="#DejaVuSans-72" transform="translate(69.824219 0)"/>
      <use xlink:href="#DejaVuSans-6f" transform="translate(108.6875 0)"/>
      <use xlink:href="#DejaVuSans-73" transform="translate(169.869141 0)"/>
      <use xlink:href="#DejaVuSans-73" transform="translate(221.96875 0)"/>
      <use xlink:href="#DejaVuSans-2d" transform="translate(274.068359 0)"/>
      <use xlink:href="#DejaVuSans-65" transform="translate(310.152344 0)"/>
      <use xlink:href="#DejaVuSans-6e" transform="translate(371.675781 0)"/>
      <use xlink:href="#DejaVuSans-74" transform="translate(435.054688 0)"/>
      <use xlink:href="#DejaVuSans-72" transform="translate(474.263672 0)"/>
      <use xlink:href="#DejaVuSans-6f" transform="translate(513.126953 0)"/>
      <use xlink:href="#DejaVuSans-70" transform="translate(574.308594 0)"/>
      <use xlink:href="#DejaVuSans-79" transform="translate(637.785156 0)"/>
      <use xlink:href="#DejaVuSans-20" transform="translate(696.964844 0)"/>
      <use xlink:href="#DejaVuSans-6c" transform="translate(728.751953 0)"/>
      <use xlink:href="#DejaVuSans-6f" transform="translate(756.535156 0)"/>
      <use xlink:href="#DejaVuSans-73" transform="translate(817.716797 0)"/>
      <use xlink:href="#DejaVuSans-73" transform="translate(869.816406 0)"/>
      <use xlink:href="#DejaVuSans-20" transform="translate(921.916016 0)"/>
      <use xlink:href="#DejaVuSans-28" transform="translate(953.703125 0)"/>
      <use xlink:href="#DejaVuSans-4c" transform="translate(992.716797 0)"/>
      <use xlink:href="#DejaVuSans-29" transform="translate(1048.429688 0)"/>
     </g>
    </g>
   </g>
   <g id="line2d_60">
    <path d="M 78.233055 60.095323 
L 83.142892 64.194169 
L 88.052729 68.215356 
L 92.962565 72.160357 
L 97.872402 76.030613 
L 102.782239 79.827542 
L 107.692076 83.552533 
L 112.601913 87.206948 
L 117.51175 90.792125 
L 122.421587 94.309376 
L 127.331423 97.759987 
L 132.24126 101.145222 
L 137.151097 104.466319 
L 142.060934 107.724492 
L 146.970771 110.920935 
L 151.880608 114.056817 
L 156.790445 117.133285 
L 161.700282 120.151464 
L 166.610118 123.11246 
L 171.519955 126.017356 
L 176.429792 128.867214 
L 181.339629 131.663078 
L 186.249466 134.40597 
L 191.159303 137.096894 
L 196.06914 139.736834 
L 200.978977 142.326757 
L 205.888813 144.867611 
L 210.79865 147.360324 
L 215.708487 149.805809 
L 220.618324 152.204961 
L 225.528161 154.558657 
L 230.437998 156.867759 
L 235.347835 159.133112 
L 240.257672 161.355545 
L 245.167508 163.535871 
L 250.077345 165.674887 
L 254.987182 167.773376 
L 259.897019 169.832107 
L 264.806856 171.851831 
L 269.716693 173.83329 
L 274.62653 175.777206 
L 279.536366 177.684293 
L 284.446203 179.555247 
L 289.35604 181.390753 
L 294.265877 183.191483 
L 299.175714 184.958095 
L 304.085551 186.691236 
L 308.995388 188.391541 
L 313.905225 190.05963 
L 318.815061 191.696116 
L 323.724898 193.301595 
L 328.634735 194.876657 
L 333.544572 196.421877 
L 338.454409 197.937821 
L 343.364246 199.425042 
L 348.274083 200.884086 
L 353.18392 202.315487 
L 358.093756 203.719768 
L 363.003593 205.097442 
L 367.91343 206.449014 
L 372.823267 207.774979 
L 377.733104 209.075822 
L 382.642941 210.352018 
L 387.552778 211.604035 
L 392.462614 212.832331 
L 397.372451 214.037355 
L 402.282288 215.219548 
L 407.192125 216.379342 
L 412.101962 217.517163 
L 417.011799 218.633426 
L 421.921636 219.72854 
L 426.831473 220.802905 
L 431.741309 221.856915 
L 436.651146 222.890955 
L 441.560983 223.905404 
L 446.47082 224.900632 
L 451.380657 225.877005 
L 456.290494 226.834879 
L 461.200331 227.774604 
L 466.110168 228.696525 
L 471.020004 229.600979 
L 475.929841 230.488297 
L 480.839678 231.358803 
L 485.749515 232.212816 
L 490.659352 233.050649 
L 495.569189 233.872608 
L 500.479026 234.678993 
L 505.388863 235.470101 
L 510.298699 236.24622 
L 515.208536 237.007634 
L 520.118373 237.754622 
L 525.02821 238.487457 
L 529.938047 239.206408 
L 534.847884 239.911737 
L 539.757721 240.603702 
L 544.667557 241.282558 
L 549.577394 241.948551 
L 554.487231 242.601926 
L 559.397068 243.242922 
L 564.306905 243.871774 
" clip-path="url(#p9c9d1be815)" style="fill: none; stroke-dasharray: 7.4,3.2; stroke-dashoffset: 0; stroke: #4a4a4a; stroke-width: 2"/>
   </g>
   <g id="patch_4">
    <path d="M 45.716875 310.277969 
L 45.716875 23.077969 
" style="fill: none; stroke: #000000; stroke-width: 0.8; stroke-linejoin: miter; stroke-linecap: square"/>
   </g>
   <g id="patch_5">
    <path d="M 561.835625 310.277969 
L 561.835625 23.077969 
" style="fill: none; stroke: #000000; stroke-width: 0.8; stroke-linejoin: miter; stroke-linecap: square"/>
   </g>
   <g id="patch_6">
    <path d="M 45.716875 310.277969 
L 561.835625 310.277969 
" style="fill: none; stroke: #000000; stroke-width: 0.8; stroke-linejoin: miter; stroke-linecap: square"/>
   </g>
   <g id="patch_7">
    <path d="M 45.716875 23.077969 
L 561.835625 23.077969 
" style="fill: none; stroke: #000000; stroke-width: 0.8; stroke-linejoin: miter; stroke-linecap: square"/>
   </g>
   <g id="text_13">
    <!-- Scaling Law: Predicting Large-Scale Performance from Small Experiments -->
    <g transform="translate(65.156172 17.077969) scale(0.13 -0.13)">
     <defs>
      <path id="DejaVuSans-53" d="M 3425 4513 
L 3425 3897 
Q 3066 4069 2747 4153 
Q 2428 4238 2131 4238 
Q 1616 4238 1336 4038 
Q 1056 3838 1056 3469 
Q 1056 3159 1242 3001 
Q 1428 2844 1947 2747 
L 2328 2669 
Q 3034 2534 3370 2195 
Q 3706 1856 3706 1288 
Q 3706 609 3251 259 
Q 2797 -91 1919 -91 
Q 1588 -91 1214 -16 
Q 841 59 441 206 
L 441 856 
Q 825 641 1194 531 
Q 1563 422 1919 422 
Q 2459 422 2753 634 
Q 3047 847 3047 1241 
Q 3047 1584 2836 1778 
Q 2625 1972 2144 2069 
L 1759 2144 
Q 1053 2284 737 2584 
Q 422 2884 422 3419 
Q 422 4038 858 4394 
Q 1294 4750 2059 4750 
Q 2388 4750 2728 4690 
Q 3069 4631 3425 4513 
z
" transform="scale(0.015625)"/>
      <path id="DejaVuSans-63" d="M 3122 3366 
L 3122 2828 
Q 2878 2963 2633 3030 
Q 2388 3097 2138 3097 
Q 1578 3097 1268 2742 
Q 959 2388 959 1747 
Q 959 1106 1268 751 
Q 1578 397 2138 397 
Q 2388 397 2633 464 
Q 2878 531 3122 666 
L 3122 134 
Q 2881 22 2623 -34 
Q 2366 -91 2075 -91 
Q 1284 -91 818 406 
Q 353 903 353 1747 
Q 353 2603 823 3093 
Q 1294 3584 2113 3584 
Q 2378 3584 2631 3529 
Q 2884 3475 3122 3366 
z
" transform="scale(0.015625)"/>
      <path id="DejaVuSans-77" d="M 269 3500 
L 844 3500 
L 1563 769 
L 2278 3500 
L 2956 3500 
L 3675 769 
L 4391 3500 
L 4966 3500 
L 4050 0 
L 3372 0 
L 2619 2869 
L 1863 0 
L 1184 0 
L 269 3500 
z
" transform="scale(0.015625)"/>
      <path id="DejaVuSans-3a" d="M 750 794 
L 1409 794 
L 1409 0 
L 750 0 
L 750 794 
z
M 750 3309 
L 1409 3309 
L 1409 2516 
L 750 2516 
L 750 3309 
z
" transform="scale(0.015625)"/>
      <path id="DejaVuSans-50" d="M 1259 4147 
L 1259 2394 
L 2053 2394 
Q 2494 2394 2734 2622 
Q 2975 2850 2975 3272 
Q 2975 3691 2734 3919 
Q 2494 4147 2053 4147 
L 1259 4147 
z
M 628 4666 
L 2053 4666 
Q 2838 4666 3239 4311 
Q 3641 3956 3641 3272 
Q 3641 2581 3239 2228 
Q 2838 1875 2053 1875 
L 1259 1875 
L 1259 0 
L 628 0 
L 628 4666 
z
" transform="scale(0.015625)"/>
      <path id="DejaVuSans-66" d="M 2375 4863 
L 2375 4384 
L 1825 4384 
Q 1516 4384 1395 4259 
Q 1275 4134 1275 3809 
L 1275 3500 
L 2222 3500 
L 2222 3053 
L 1275 3053 
L 1275 0 
L 697 0 
L 697 3053 
L 147 3053 
L 147 3500 
L 697 3500 
L 697 3744 
Q 697 4328 969 4595 
Q 1241 4863 1831 4863 
L 2375 4863 
z
" transform="scale(0.015625)"/>
      <path id="DejaVuSans-45" d="M 628 4666 
L 3578 4666 
L 3578 4134 
L 1259 4134 
L 1259 2753 
L 3481 2753 
L 3481 2222 
L 1259 2222 
L 1259 531 
L 3634 531 
L 3634 0 
L 628 0 
L 628 4666 
z
" transform="scale(0.015625)"/>
      <path id="DejaVuSans-78" d="M 3513 3500 
L 2247 1797 
L 3578 0 
L 2900 0 
L 1881 1375 
L 863 0 
L 184 0 
L 1544 1831 
L 300 3500 
L 978 3500 
L 1906 2253 
L 2834 3500 
L 3513 3500 
z
" transform="scale(0.015625)"/>
     </defs>
     <use xlink:href="#DejaVuSans-53"/>
     <use xlink:href="#DejaVuSans-63" transform="translate(63.476562 0)"/>
     <use xlink:href="#DejaVuSans-61" transform="translate(118.457031 0)"/>
     <use xlink:href="#DejaVuSans-6c" transform="translate(179.736328 0)"/>
     <use xlink:href="#DejaVuSans-69" transform="translate(207.519531 0)"/>
     <use xlink:href="#DejaVuSans-6e" transform="translate(235.302734 0)"/>
     <use xlink:href="#DejaVuSans-67" transform="translate(298.681641 0)"/>
     <use xlink:href="#DejaVuSans-20" transform="translate(362.158203 0)"/>
     <use xlink:href="#DejaVuSans-4c" transform="translate(393.945312 0)"/>
     <use xlink:href="#DejaVuSans-61" transform="translate(449.658203 0)"/>
     <use xlink:href="#DejaVuSans-77" transform="translate(510.9375 0)"/>
     <use xlink:href="#DejaVuSans-3a" transform="translate(587.224609 0)"/>
     <use xlink:href="#DejaVuSans-20" transform="translate(620.916016 0)"/>
     <use xlink:href="#DejaVuSans-50" transform="translate(652.703125 0)"/>
     <use xlink:href="#DejaVuSans-72" transform="translate(711.255859 0)"/>
     <use xlink:href="#DejaVuSans-65" transform="translate(750.119141 0)"/>
     <use xlink:href="#DejaVuSans-64" transform="translate(811.642578 0)"/>
     <use xlink:href="#DejaVuSans-69" transform="translate(875.119141 0)"/>
     <use xlink:href="#DejaVuSans-63" transform="translate(902.902344 0)"/>
     <use xlink:href="#DejaVuSans-74" transform="translate(957.882812 0)"/>
     <use xlink:href="#DejaVuSans-69" transform="translate(997.091797 0)"/>
     <use xlink:href="#DejaVuSans-6e" transform="translate(1024.875 0)"/>
     <use xlink:href="#DejaVuSans-67" transform="translate(1088.253906 0)"/>
     <use xlink:href="#DejaVuSans-20" transform="translate(1151.730469 0)"/>
     <use xlink:href="#DejaVuSans-4c" transform="translate(1183.517578 0)"/>
     <use xlink:href="#DejaVuSans-61" transform="translate(1239.230469 0)"/>
     <use xlink:href="#DejaVuSans-72" transform="translate(1300.509766 0)"/>
     <use xlink:href="#DejaVuSans-67" transform="translate(1339.873047 0)"/>
     <use xlink:href="#DejaVuSans-65" transform="translate(1403.349609 0)"/>
     <use xlink:href="#DejaVuSans-2d" transform="translate(1464.873047 0)"/>
     <use xlink:href="#DejaVuSans-53" transform="translate(1500.957031 0)"/>
     <use xlink:href="#DejaVuSans-63" transform="translate(1564.433594 0)"/>
     <use xlink:href="#DejaVuSans-61" transform="translate(1619.414062 0)"/>
     <use xlink:href="#DejaVuSans-6c" transform="translate(1680.693359 0)"/>
     <use xlink:href="#DejaVuSans-65" transform="translate(1708.476562 0)"/>
     <use xlink:href="#DejaVuSans-20" transform="translate(1770 0)"/>
     <use xlink:href="#DejaVuSans-50" transform="translate(1801.787109 0)"/>
     <use xlink:href="#DejaVuSans-65" transform="translate(1858.464844 0)"/>
     <use xlink:href="#DejaVuSans-72" transform="translate(1919.988281 0)"/>
     <use xlink:href="#DejaVuSans-66" transform="translate(1961.101562 0)"/>
     <use xlink:href="#DejaVuSans-6f" transform="translate(1996.306641 0)"/>
     <use xlink:href="#DejaVuSans-72" transform="translate(2057.488281 0)"/>
     <use xlink:href="#DejaVuSans-6d" transform="translate(2096.851562 0)"/>
     <use xlink:href="#DejaVuSans-61" transform="translate(2194.263672 0)"/>
     <use xlink:href="#DejaVuSans-6e" transform="translate(2255.542969 0)"/>
     <use xlink:href="#DejaVuSans-63" transform="translate(2318.921875 0)"/>
     <use xlink:href="#DejaVuSans-65" transform="translate(2373.902344 0)"/>
     <use xlink:href="#DejaVuSans-20" transform="translate(2435.425781 0)"/>
     <use xlink:href="#DejaVuSans-66" transform="translate(2467.212891 0)"/>
     <use xlink:href="#DejaVuSans-72" transform="translate(2502.417969 0)"/>
     <use xlink:href="#DejaVuSans-6f" transform="translate(2541.28125 0)"/>
     <use xlink:href="#DejaVuSans-6d" transform="translate(2602.462891 0)"/>
     <use xlink:href="#DejaVuSans-20" transform="translate(2699.875 0)"/>
     <use xlink:href="#DejaVuSans-53" transform="translate(2731.662109 0)"/>
     <use xlink:href="#DejaVuSans-6d" transform="translate(2795.138672 0)"/>
     <use xlink:href="#DejaVuSans-61" transform="translate(2892.550781 0)"/>
     <use xlink:href="#DejaVuSans-6c" transform="translate(2953.830078 0)"/>
     <use xlink:href="#DejaVuSans-6c" transform="translate(2981.613281 0)"/>
     <use xlink:href="#DejaVuSans-20" transform="translate(3009.396484 0)"/>
     <use xlink:href="#DejaVuSans-45" transform="translate(3041.183594 0)"/>
     <use xlink:href="#DejaVuSans-78" transform="translate(3104.367188 0)"/>
     <use xlink:href="#DejaVuSans-70" transform="translate(3163.546875 0)"/>
     <use xlink:href="#DejaVuSans-65" transform="translate(3227.023438 0)"/>
     <use xlink:href="#DejaVuSans-72" transform="translate(3288.546875 0)"/>
     <use xlink:href="#DejaVuSans-69" transform="translate(3329.660156 0)"/>
     <use xlink:href="#DejaVuSans-6d" transform="translate(3357.443359 0)"/>
     <use xlink:href="#DejaVuSans-65" transform="translate(3454.855469 0)"/>
     <use xlink:href="#DejaVuSans-6e" transform="translate(3516.378906 0)"/>
     <use xlink:href="#DejaVuSans-74" transform="translate(3579.757812 0)"/>
     <use xlink:href="#DejaVuSans-73" transform="translate(3618.966797 0)"/>
    </g>
   </g>
   <g id="PathCollection_1">
    <defs>
     <path id="m8fadcee97f" d="M 0 4.472136 
C 1.186024 4.472136 2.323632 4.000923 3.162278 3.162278 
C 4.000923 2.323632 4.472136 1.186024 4.472136 0 
C 4.472136 -1.186024 4.000923 -2.323632 3.162278 -3.162278 
C 2.323632 -4.000923 1.186024 -4.472136 0 -4.472136 
C -1.186024 -4.472136 -2.323632 -4.000923 -3.162278 -3.162278 
C -4.000923 -2.323632 -4.472136 -1.186024 -4.472136 0 
C -4.472136 1.186024 -4.000923 2.323632 -3.162278 3.162278 
C -2.323632 4.000923 -1.186024 4.472136 0 4.472136 
z
" style="stroke: #ffffff; stroke-width: 1.5"/>
    </defs>
    <g clip-path="url(#p9c9d1be815)">
     <use xlink:href="#m8fadcee97f" x="78.233055" y="60.538838" style="fill: #6c9bc2; stroke: #ffffff; stroke-width: 1.5"/>
     <use xlink:href="#m8fadcee97f" x="129.76998" y="97.999708" style="fill: #6c9bc2; stroke: #ffffff; stroke-width: 1.5"/>
     <use xlink:href="#m8fadcee97f" x="186.249466" y="135.460577" style="fill: #6c9bc2; stroke: #ffffff; stroke-width: 1.5"/>
     <use xlink:href="#m8fadcee97f" x="237.786392" y="160.43449" style="fill: #6c9bc2; stroke: #ffffff; stroke-width: 1.5"/>
     <use xlink:href="#m8fadcee97f" x="294.265877" y="182.911012" style="fill: #6c9bc2; stroke: #ffffff; stroke-width: 1.5"/>
    </g>
   </g>
   <g id="PathCollection_2">
    <defs>
     <path id="m6369046503" d="M 0 6.324555 
L 6.324555 0 
L 0 -6.324555 
L -6.324555 0 
z
" style="stroke: #ffffff; stroke-width: 1.5"/>
    </defs>
    <g clip-path="url(#p9c9d1be815)">
     <use xlink:href="#m6369046503" x="345.802803" y="204.138838" style="fill: #e8a87c; stroke: #ffffff; stroke-width: 1.5"/>
     <use xlink:href="#m6369046503" x="402.282288" y="232.858838" style="fill: #e8a87c; stroke: #ffffff; stroke-width: 1.5"/>
     <use xlink:href="#m6369046503" x="453.819214" y="254.086664" style="fill: #e8a87c; stroke: #ffffff; stroke-width: 1.5"/>
     <use xlink:href="#m6369046503" x="510.298699" y="275.31449" style="fill: #e8a87c; stroke: #ffffff; stroke-width: 1.5"/>
    </g>
   </g>
   <g id="legend_1">
    <g id="patch_8">
     <path d="M 328.541562 83.119219 
L 555.535625 83.119219 
Q 557.335625 83.119219 557.335625 81.319219 
L 557.335625 29.377969 
Q 557.335625 27.577969 555.535625 27.577969 
L 328.541562 27.577969 
Q 326.741562 27.577969 326.741562 29.377969 
L 326.741562 81.319219 
Q 326.741562 83.119219 328.541562 83.119219 
z
" style="fill: #ffffff; opacity: 0.8; stroke: #cccccc; stroke-linejoin: miter"/>
    </g>
    <g id="PathCollection_3">
     <g>
      <use xlink:href="#m8fadcee97f" x="339.341562" y="35.654062" style="fill: #6c9bc2; stroke: #ffffff; stroke-width: 1.5"/>
     </g>
    </g>
    <g id="text_14">
     <!-- Small-scale experiments (used for fitting) -->
     <g transform="translate(355.541562 38.016562) scale(0.09 -0.09)">
      <defs>
       <path id="DejaVuSans-75" d="M 544 1381 
L 544 3500 
L 1119 3500 
L 1119 1403 
Q 1119 906 1312 657 
Q 1506 409 1894 409 
Q 2359 409 2629 706 
Q 2900 1003 2900 1516 
L 2900 3500 
L 3475 3500 
L 3475 0 
L 2900 0 
L 2900 538 
Q 2691 219 2414 64 
Q 2138 -91 1772 -91 
Q 1169 -91 856 284 
Q 544 659 544 1381 
z
M 1991 3584 
L 1991 3584 
z
" transform="scale(0.015625)"/>
      </defs>
      <use xlink:href="#DejaVuSans-53"/>
      <use xlink:href="#DejaVuSans-6d" transform="translate(63.476562 0)"/>
      <use xlink:href="#DejaVuSans-61" transform="translate(160.888672 0)"/>
      <use xlink:href="#DejaVuSans-6c" transform="translate(222.167969 0)"/>
      <use xlink:href="#DejaVuSans-6c" transform="translate(249.951172 0)"/>
      <use xlink:href="#DejaVuSans-2d" transform="translate(277.734375 0)"/>
      <use xlink:href="#DejaVuSans-73" transform="translate(313.818359 0)"/>
      <use xlink:href="#DejaVuSans-63" transform="translate(365.917969 0)"/>
      <use xlink:href="#DejaVuSans-61" transform="translate(420.898438 0)"/>
      <use xlink:href="#DejaVuSans-6c" transform="translate(482.177734 0)"/>
      <use xlink:href="#DejaVuSans-65" transform="translate(509.960938 0)"/>
      <use xlink:href="#DejaVuSans-20" transform="translate(571.484375 0)"/>
      <use xlink:href="#DejaVuSans-65" transform="translate(603.271484 0)"/>
      <use xlink:href="#DejaVuSans-78" transform="translate(663.044922 0)"/>
      <use xlink:href="#DejaVuSans-70" transform="translate(722.224609 0)"/>
      <use xlink:href="#DejaVuSans-65" transform="translate(785.701172 0)"/>
      <use xlink:href="#DejaVuSans-72" transform="translate(847.224609 0)"/>
      <use xlink:href="#DejaVuSans-69" transform="translate(888.337891 0)"/>
      <use xlink:href="#DejaVuSans-6d" transform="translate(916.121094 0)"/>
      <use xlink:href="#DejaVuSans-65" transform="translate(1013.533203 0)"/>
      <use xlink:href="#DejaVuSans-6e" transform="translate(1075.056641 0)"/>
      <use xlink:href="#DejaVuSans-74" transform="translate(1138.435547 0)"/>
      <use xlink:href="#DejaVuSans-73" transform="translate(1177.644531 0)"/>
      <use xlink:href="#DejaVuSans-20" transform="translate(1229.744141 0)"/>
      <use xlink:href="#DejaVuSans-28" transform="translate(1261.53125 0)"/>
      <use xlink:href="#DejaVuSans-75" transform="translate(1300.544922 0)"/>
      <use xlink:href="#DejaVuSans-73" transform="translate(1363.923828 0)"/>
      <use xlink:href="#DejaVuSans-65" transform="translate(1416.023438 0)"/>
      <use xlink:href="#DejaVuSans-64" transform="translate(1477.546875 0)"/>
      <use xlink:href="#DejaVuSans-20" transform="translate(1541.023438 0)"/>
      <use xlink:href="#DejaVuSans-66" transform="translate(1572.810547 0)"/>
      <use xlink:href="#DejaVuSans-6f" transform="translate(1608.015625 0)"/>
      <use xlink:href="#DejaVuSans-72" transform="translate(1669.197266 0)"/>
      <use xlink:href="#DejaVuSans-20" transform="translate(1710.310547 0)"/>
      <use xlink:href="#DejaVuSans-66" transform="translate(1742.097656 0)"/>
      <use xlink:href="#DejaVuSans-69" transform="translate(1777.302734 0)"/>
      <use xlink:href="#DejaVuSans-74" transform="translate(1805.085938 0)"/>
      <use xlink:href="#DejaVuSans-74" transform="translate(1844.294922 0)"/>
      <use xlink:href="#DejaVuSans-69" transform="translate(1883.503906 0)"/>
      <use xlink:href="#DejaVuSans-6e" transform="translate(1911.287109 0)"/>
      <use xlink:href="#DejaVuSans-67" transform="translate(1974.666016 0)"/>
      <use xlink:href="#DejaVuSans-29" transform="translate(2038.142578 0)"/>
     </g>
    </g>
    <g id="PathCollection_4">
     <g>
      <use xlink:href="#m6369046503" x="339.341562" y="48.864375" style="fill: #e8a87c; stroke: #ffffff; stroke-width: 1.5"/>
     </g>
    </g>
    <g id="text_15">
     <!-- Large-scale experiments (held out) -->
     <g transform="translate(355.541562 51.226875) scale(0.09 -0.09)">
      <defs>
       <path id="DejaVuSans-68" d="M 3513 2113 
L 3513 0 
L 2938 0 
L 2938 2094 
Q 2938 2591 2744 2837 
Q 2550 3084 2163 3084 
Q 1697 3084 1428 2787 
Q 1159 2491 1159 1978 
L 1159 0 
L 581 0 
L 581 4863 
L 1159 4863 
L 1159 2956 
Q 1366 3272 1645 3428 
Q 1925 3584 2291 3584 
Q 2894 3584 3203 3211 
Q 3513 2838 3513 2113 
z
" transform="scale(0.015625)"/>
      </defs>
      <use xlink:href="#DejaVuSans-4c"/>
      <use xlink:href="#DejaVuSans-61" transform="translate(55.712891 0)"/>
      <use xlink:href="#DejaVuSans-72" transform="translate(116.992188 0)"/>
      <use xlink:href="#DejaVuSans-67" transform="translate(156.355469 0)"/>
      <use xlink:href="#DejaVuSans-65" transform="translate(219.832031 0)"/>
      <use xlink:href="#DejaVuSans-2d" transform="translate(281.355469 0)"/>
      <use xlink:href="#DejaVuSans-73" transform="translate(317.439453 0)"/>
      <use xlink:href="#DejaVuSans-63" transform="translate(369.539062 0)"/>
      <use xlink:href="#DejaVuSans-61" transform="translate(424.519531 0)"/>
      <use xlink:href="#DejaVuSans-6c" transform="translate(485.798828 0)"/>
      <use xlink:href="#DejaVuSans-65" transform="translate(513.582031 0)"/>
      <use xlink:href="#DejaVuSans-20" transform="translate(575.105469 0)"/>
      <use xlink:href="#DejaVuSans-65" transform="translate(606.892578 0)"/>
      <use xlink:href="#DejaVuSans-78" transform="translate(666.666016 0)"/>
      <use xlink:href="#DejaVuSans-70" transform="translate(725.845703 0)"/>
      <use xlink:href="#DejaVuSans-65" transform="translate(789.322266 0)"/>
      <use xlink:href="#DejaVuSans-72" transform="translate(850.845703 0)"/>
      <use xlink:href="#DejaVuSans-69" transform="translate(891.958984 0)"/>
      <use xlink:href="#DejaVuSans-6d" transform="translate(919.742188 0)"/>
      <use xlink:href="#DejaVuSans-65" transform="translate(1017.154297 0)"/>
      <use xlink:href="#DejaVuSans-6e" transform="translate(1078.677734 0)"/>
      <use xlink:href="#DejaVuSans-74" transform="translate(1142.056641 0)"/>
      <use xlink:href="#DejaVuSans-73" transform="translate(1181.265625 0)"/>
      <use xlink:href="#DejaVuSans-20" transform="translate(1233.365234 0)"/>
      <use xlink:href="#DejaVuSans-28" transform="translate(1265.152344 0)"/>
      <use xlink:href="#DejaVuSans-68" transform="translate(1304.166016 0)"/>
      <use xlink:href="#DejaVuSans-65" transform="translate(1367.544922 0)"/>
      <use xlink:href="#DejaVuSans-6c" transform="translate(1429.068359 0)"/>
      <use xlink:href="#DejaVuSans-64" transform="translate(1456.851562 0)"/>
      <use xlink:href="#DejaVuSans-20" transform="translate(1520.328125 0)"/>
      <use xlink:href="#DejaVuSans-6f" transform="translate(1552.115234 0)"/>
      <use xlink:href="#DejaVuSans-75" transform="translate(1613.296875 0)"/>
      <use xlink:href="#DejaVuSans-74" transform="translate(1676.675781 0)"/>
      <use xlink:href="#DejaVuSans-29" transform="translate(1715.884766 0)"/>
     </g>
    </g>
    <g id="line2d_61">
     <path d="M 330.341562 61.287187 
L 339.341562 61.287187 
L 348.341562 61.287187 
" style="fill: none; stroke-dasharray: 7.4,3.2; stroke-dashoffset: 0; stroke: #4a4a4a; stroke-width: 2"/>
    </g>
    <g id="text_16">
     <!-- Power law fit: L = 33.0  N^(0.183) + 1.77 -->
     <g transform="translate(355.541562 64.437187) scale(0.09 -0.09)">
      <defs>
       <path id="DejaVuSans-3d" d="M 678 2906 
L 4684 2906 
L 4684 2381 
L 678 2381 
L 678 2906 
z
M 678 1631 
L 4684 1631 
L 4684 1100 
L 678 1100 
L 678 1631 
z
" transform="scale(0.015625)"/>
       <path id="DejaVuSans-b7" d="M 684 2619 
L 1344 2619 
L 1344 1825 
L 684 1825 
L 684 2619 
z
" transform="scale(0.015625)"/>
       <path id="DejaVuSans-5e" d="M 2988 4666 
L 4684 2925 
L 4056 2925 
L 2681 4159 
L 1306 2925 
L 678 2925 
L 2375 4666 
L 2988 4666 
z
" transform="scale(0.015625)"/>
       <path id="DejaVuSans-2212" d="M 678 2272 
L 4684 2272 
L 4684 1741 
L 678 1741 
L 678 2272 
z
" transform="scale(0.015625)"/>
       <path id="DejaVuSans-2b" d="M 2944 4013 
L 2944 2272 
L 4684 2272 
L 4684 1741 
L 2944 1741 
L 2944 0 
L 2419 0 
L 2419 1741 
L 678 1741 
L 678 2272 
L 2419 2272 
L 2419 4013 
L 2944 4013 
z
" transform="scale(0.015625)"/>
      </defs>
      <use xlink:href="#DejaVuSans-50"/>
      <use xlink:href="#DejaVuSans-6f" transform="translate(56.677734 0)"/>
      <use xlink:href="#DejaVuSans-77" transform="translate(117.859375 0)"/>
      <use xlink:href="#DejaVuSans-65" transform="translate(199.646484 0)"/>
      <use xlink:href="#DejaVuSans-72" transform="translate(261.169922 0)"/>
      <use xlink:href="#DejaVuSans-20" transform="translate(302.283203 0)"/>
      <use xlink:href="#DejaVuSans-6c" transform="translate(334.070312 0)"/>
      <use xlink:href="#DejaVuSans-61" transform="translate(361.853516 0)"/>
      <use xlink:href="#DejaVuSans-77" transform="translate(423.132812 0)"/>
      <use xlink:href="#DejaVuSans-20" transform="translate(504.919922 0)"/>
      <use xlink:href="#DejaVuSans-66" transform="translate(536.707031 0)"/>
      <use xlink:href="#DejaVuSans-69" transform="translate(571.912109 0)"/>
      <use xlink:href="#DejaVuSans-74" transform="translate(599.695312 0)"/>
      <use xlink:href="#DejaVuSans-3a" transform="translate(638.904297 0)"/>
      <use xlink:href="#DejaVuSans-20" transform="translate(672.595703 0)"/>
      <use xlink:href="#DejaVuSans-4c" transform="translate(704.382812 0)"/>
      <use xlink:href="#DejaVuSans-20" transform="translate(760.095703 0)"/>
      <use xlink:href="#DejaVuSans-3d" transform="translate(791.882812 0)"/>
      <use xlink:href="#DejaVuSans-20" transform="translate(875.671875 0)"/>
      <use xlink:href="#DejaVuSans-33" transform="translate(907.458984 0)"/>
      <use xlink:href="#DejaVuSans-33" transform="translate(971.082031 0)"/>
      <use xlink:href="#DejaVuSans-2e" transform="translate(1034.705078 0)"/>
      <use xlink:href="#DejaVuSans-30" transform="translate(1066.492188 0)"/>
      <use xlink:href="#DejaVuSans-20" transform="translate(1130.115234 0)"/>
      <use xlink:href="#DejaVuSans-b7" transform="translate(1161.902344 0)"/>
      <use xlink:href="#DejaVuSans-20" transform="translate(1193.689453 0)"/>
      <use xlink:href="#DejaVuSans-4e" transform="translate(1225.476562 0)"/>
      <use xlink:href="#DejaVuSans-5e" transform="translate(1300.28125 0)"/>
      <use xlink:href="#DejaVuSans-28" transform="translate(1384.070312 0)"/>
      <use xlink:href="#DejaVuSans-2212" transform="translate(1423.083984 0)"/>
      <use xlink:href="#DejaVuSans-30" transform="translate(1506.873047 0)"/>
      <use xlink:href="#DejaVuSans-2e" transform="translate(1570.496094 0)"/>
      <use xlink:href="#DejaVuSans-31" transform="translate(1602.283203 0)"/>
      <use xlink:href="#DejaVuSans-38" transform="translate(1665.90625 0)"/>
      <use xlink:href="#DejaVuSans-33" transform="translate(1729.529297 0)"/>
      <use xlink:href="#DejaVuSans-29" transform="translate(1793.152344 0)"/>
      <use xlink:href="#DejaVuSans-20" transform="translate(1832.166016 0)"/>
      <use xlink:href="#DejaVuSans-2b" transform="translate(1863.953125 0)"/>
      <use xlink:href="#DejaVuSans-20" transform="translate(1947.742188 0)"/>
      <use xlink:href="#DejaVuSans-31" transform="translate(1979.529297 0)"/>
      <use xlink:href="#DejaVuSans-2e" transform="translate(2043.152344 0)"/>
      <use xlink:href="#DejaVuSans-37" transform="translate(2074.939453 0)"/>
      <use xlink:href="#DejaVuSans-37" transform="translate(2138.5625 0)"/>
     </g>
    </g>
    <g id="patch_9">
     <path d="M 330.341562 77.6475 
L 348.341562 77.6475 
L 348.341562 71.3475 
L 330.341562 71.3475 
z
" style="fill: #ffa500; opacity: 0.08; stroke: #ffa500; stroke-linejoin: miter"/>
    </g>
    <g id="text_17">
     <!-- Extrapolation region -->
     <g transform="translate(355.541562 77.6475) scale(0.09 -0.09)">
      <use xlink:href="#DejaVuSans-45"/>
      <use xlink:href="#DejaVuSans-78" transform="translate(63.183594 0)"/>
      <use xlink:href="#DejaVuSans-74" transform="translate(122.363281 0)"/>
      <use xlink:href="#DejaVuSans-72" transform="translate(161.572266 0)"/>
      <use xlink:href="#DejaVuSans-61" transform="translate(202.685547 0)"/>
      <use xlink:href="#DejaVuSans-70" transform="translate(263.964844 0)"/>
      <use xlink:href="#DejaVuSans-6f" transform="translate(327.441406 0)"/>
      <use xlink:href="#DejaVuSans-6c" transform="translate(388.623047 0)"/>
      <use xlink:href="#DejaVuSans-61" transform="translate(416.40625 0)"/>
      <use xlink:href="#DejaVuSans-74" transform="translate(477.685547 0)"/>
      <use xlink:href="#DejaVuSans-69" transform="translate(516.894531 0)"/>
      <use xlink:href="#DejaVuSans-6f" transform="translate(544.677734 0)"/>
      <use xlink:href="#DejaVuSans-6e" transform="translate(605.859375 0)"/>
      <use xlink:href="#DejaVuSans-20" transform="translate(669.238281 0)"/>
      <use xlink:href="#DejaVuSans-72" transform="translate(701.025391 0)"/>
      <use xlink:href="#DejaVuSans-65" transform="translate(739.888672 0)"/>
      <use xlink:href="#DejaVuSans-67" transform="translate(801.412109 0)"/>
      <use xlink:href="#DejaVuSans-69" transform="translate(864.888672 0)"/>
      <use xlink:href="#DejaVuSans-6f" transform="translate(892.671875 0)"/>
      <use xlink:href="#DejaVuSans-6e" transform="translate(953.853516 0)"/>
     </g>
    </g>
   </g>
  </g>
 </g>
 <defs>
  <clipPath id="p9c9d1be815">
   <rect x="45.716875" y="23.077969" width="516.11875" height="287.2"/>
  </clipPath>
 </defs>
</svg>
