<?xml version="1.0" encoding="utf-8" standalone="no"?>
<!DOCTYPE svg PUBLIC "-//W3C//DTD SVG 1.1//EN"
  "http://www.w3.org/Graphics/SVG/1.1/DTD/svg11.dtd">
<svg xmlns:xlink="http://www.w3.org/1999/xlink" width="760.925482pt" height="306.51275pt" viewBox="0 0 760.925482 306.51275" xmlns="http://www.w3.org/2000/svg" version="1.1">
 <metadata>
  <rdf:RDF xmlns:dc="http://purl.org/dc/elements/1.1/" xmlns:cc="http://creativecommons.org/ns#" xmlns:rdf="http://www.w3.org/1999/02/22-rdf-syntax-ns#">
   <cc:Work>
    <dc:type rdf:resource="http://purl.org/dc/dcmitype/StillImage"/>
    <dc:date>2026-01-26T08:59:11.827434</dc:date>
    <dc:format>image/svg+xml</dc:format>
    <dc:creator>
     <cc:Agent>
      <dc:title>Matplotlib v3.10.8, https://matplotlib.org/</dc:title>
     </cc:Agent>
    </dc:creator>
   </cc:Work>
  </rdf:RDF>
 </metadata>
 <defs>
  <style type="text/css">*{stroke-linejoin: round; stroke-linecap: butt}</style>
 </defs>
 <g id="figure_1">
  <g id="patch_1">
   <path d="M 0 306.51275 
L 760.925482 306.51275 
L 760.925482 0 
L 0 0 
z
" style="fill: #ffffff"/>
  </g>
  <g id="axes_1">
   <g id="patch_2">
    <path d="M 40.192796 148.952141 
L 60.745685 148.952141 
Q 65.072609 148.952141 65.072609 144.625217 
L 65.072609 75.394433 
Q 65.072609 71.067509 60.745685 71.067509 
L 40.192796 71.067509 
Q 35.865872 71.067509 35.865872 75.394433 
L 35.865872 144.625217 
Q 35.865872 148.952141 40.192796 148.952141 
z
" clip-path="url(#p390fbc5f97)" style="fill: #6c9bc2; opacity: 0.85"/>
   </g>
   <g id="patch_3">
    <path d="M 88.870691 124.613193 
L 141.87551 124.613193 
Q 146.202434 124.613193 146.202434 120.286269 
L 146.202434 99.73338 
Q 146.202434 95.406456 141.87551 95.406456 
L 88.870691 95.406456 
Q 84.543767 95.406456 84.543767 99.73338 
L 84.543767 120.286269 
Q 84.543767 124.613193 88.870691 124.613193 
z
" clip-path="url(#p390fbc5f97)" style="fill: #6c9bc2; opacity: 0.85"/>
   </g>
   <g id="patch_4">
    <path d="M 134.844258 240.899276 
L 204.075042 240.899276 
Q 208.401966 240.899276 208.401966 236.572352 
L 208.401966 167.341568 
Q 208.401966 163.014644 204.075042 163.014644 
L 134.844258 163.014644 
Q 130.517334 163.014644 130.517334 167.341568 
L 130.517334 236.572352 
Q 130.517334 240.899276 134.844258 240.899276 
z
" clip-path="url(#p390fbc5f97)" style="fill: #d4817a; opacity: 0.85"/>
   </g>
   <g id="patch_5">
    <path d="M 251.130341 240.899276 
L 271.68323 240.899276 
Q 276.010154 240.899276 276.010154 236.572352 
L 276.010154 167.341568 
Q 276.010154 163.014644 271.68323 163.014644 
L 251.130341 163.014644 
Q 246.803417 163.014644 246.803417 167.341568 
L 246.803417 236.572352 
Q 246.803417 240.899276 251.130341 240.899276 
z
" clip-path="url(#p390fbc5f97)" style="fill: #7fb685; opacity: 0.85"/>
   </g>
   <g id="patch_6">
    <path d="M 303.864727 240.899276 
L 321.713288 240.899276 
Q 326.040212 240.899276 326.040212 236.572352 
L 326.040212 167.341568 
Q 326.040212 163.014644 321.713288 163.014644 
L 303.864727 163.014644 
Q 299.537803 163.014644 299.537803 167.341568 
L 299.537803 236.572352 
Q 299.537803 240.899276 303.864727 240.899276 
z
" clip-path="url(#p390fbc5f97)" style="fill: #9b8dc2; opacity: 0.85"/>
   </g>
   <g id="text_1">
    <!-- Q -->
    <g style="fill: #ffffff" transform="translate(46.580178 112.594981) scale(0.1 -0.1)">
     <defs>
      <path id="ArialMT-51" d="M 3966 491 
Q 4388 200 4744 66 
L 4566 -356 
Q 4072 -178 3581 206 
Q 3072 -78 2456 -78 
Q 1834 -78 1328 222 
Q 822 522 548 1065 
Q 275 1609 275 2291 
Q 275 2969 550 3525 
Q 825 4081 1333 4372 
Q 1841 4663 2469 4663 
Q 3103 4663 3612 4361 
Q 4122 4059 4389 3517 
Q 4656 2975 4656 2294 
Q 4656 1728 4484 1276 
Q 4313 825 3966 491 
z
M 2631 1266 
Q 3156 1119 3497 828 
Q 4031 1316 4031 2294 
Q 4031 2850 3842 3265 
Q 3653 3681 3289 3911 
Q 2925 4141 2472 4141 
Q 1794 4141 1347 3677 
Q 900 3213 900 2291 
Q 900 1397 1342 919 
Q 1784 441 2472 441 
Q 2797 441 3084 563 
Q 2800 747 2484 825 
L 2631 1266 
z
" transform="scale(0.015625)"/>
     </defs>
     <use xlink:href="#ArialMT-51"/>
    </g>
   </g>
   <g id="text_2">
    <!-- n×d -->
    <g style="fill: #7a7a7a" transform="translate(44.532365 162.616458) scale(0.07 -0.07)">
     <defs>
      <path id="ArialMT-6e" d="M 422 0 
L 422 3319 
L 928 3319 
L 928 2847 
Q 1294 3394 1984 3394 
Q 2284 3394 2536 3286 
Q 2788 3178 2913 3003 
Q 3038 2828 3088 2588 
Q 3119 2431 3119 2041 
L 3119 0 
L 2556 0 
L 2556 2019 
Q 2556 2363 2490 2533 
Q 2425 2703 2258 2804 
Q 2091 2906 1866 2906 
Q 1506 2906 1245 2678 
Q 984 2450 984 1813 
L 984 0 
L 422 0 
z
" transform="scale(0.015625)"/>
      <path id="ArialMT-d7" d="M 503 1278 
L 1488 2263 
L 506 3244 
L 888 3625 
L 1869 2644 
L 2847 3622 
L 3222 3244 
L 2247 2266 
L 3228 1284 
L 2847 903 
L 1866 1884 
L 881 900 
L 503 1278 
z
" transform="scale(0.015625)"/>
      <path id="ArialMT-64" d="M 2575 0 
L 2575 419 
Q 2259 -75 1647 -75 
Q 1250 -75 917 144 
Q 584 363 401 755 
Q 219 1147 219 1656 
Q 219 2153 384 2558 
Q 550 2963 881 3178 
Q 1213 3394 1622 3394 
Q 1922 3394 2156 3267 
Q 2391 3141 2538 2938 
L 2538 4581 
L 3097 4581 
L 3097 0 
L 2575 0 
z
M 797 1656 
Q 797 1019 1065 703 
Q 1334 388 1700 388 
Q 2069 388 2326 689 
Q 2584 991 2584 1609 
Q 2584 2291 2321 2609 
Q 2059 2928 1675 2928 
Q 1300 2928 1048 2622 
Q 797 2316 797 1656 
z
" transform="scale(0.015625)"/>
     </defs>
     <use xlink:href="#ArialMT-6e"/>
     <use xlink:href="#ArialMT-d7" transform="translate(55.615234 0)"/>
     <use xlink:href="#ArialMT-64" transform="translate(114.013672 0)"/>
    </g>
   </g>
   <g id="text_3">
    <!-- × -->
    <g style="fill: #7a7a7a" transform="translate(73.424078 113.638887) scale(0.14 -0.14)">
     <defs>
      <path id="Arial-BoldMT-d7" d="M 347 1313 
L 1291 2256 
L 341 3203 
L 922 3784 
L 1872 2838 
L 2816 3781 
L 3381 3213 
L 2438 2269 
L 3391 1316 
L 2809 734 
L 1856 1688 
L 913 744 
L 347 1313 
z
" transform="scale(0.015625)"/>
     </defs>
     <use xlink:href="#Arial-BoldMT-d7"/>
    </g>
   </g>
   <g id="text_4">
    <!-- K$^\top$ -->
    <g style="fill: #ffffff" transform="translate(107.4231 112.594981) scale(0.1 -0.1)">
     <defs>
      <path id="ArialMT-4b" d="M 469 0 
L 469 4581 
L 1075 4581 
L 1075 2309 
L 3350 4581 
L 4172 4581 
L 2250 2725 
L 4256 0 
L 3456 0 
L 1825 2319 
L 1075 1588 
L 1075 0 
L 469 0 
z
" transform="scale(0.015625)"/>
      <path id="DejaVuSans-22a4" d="M 5028 4481 
L 5028 4084 
L 2988 4084 
L 2988 0 
L 2588 0 
L 2588 4084 
L 547 4084 
L 547 4481 
L 5028 4481 
z
" transform="scale(0.015625)"/>
     </defs>
     <use xlink:href="#ArialMT-4b" transform="translate(0 0.707813)"/>
     <use xlink:href="#DejaVuSans-22a4" transform="translate(81.293945 38.989063) scale(0.7)"/>
    </g>
   </g>
   <g id="text_5">
    <!-- d×n -->
    <g style="fill: #7a7a7a" transform="translate(109.436225 138.27751) scale(0.07 -0.07)">
     <use xlink:href="#ArialMT-64"/>
     <use xlink:href="#ArialMT-d7" transform="translate(55.615234 0)"/>
     <use xlink:href="#ArialMT-6e" transform="translate(114.013672 0)"/>
    </g>
   </g>
   <g id="patch_7">
    <path d="M 90.189215 143.205511 
Q 128.896692 158.688502 166.358486 173.673219 
" style="fill: none; stroke: #7a7a7a; stroke-width: 1.2; stroke-linecap: round"/>
    <path d="M 163.387361 170.330703 
L 166.358486 173.673219 
L 161.901798 174.04461 
" style="fill: none; stroke: #7a7a7a; stroke-width: 1.2; stroke-linecap: round"/>
   </g>
   <g id="text_6">
    <!-- n×n -->
    <g style="fill: #ffffff" transform="translate(160.9784 204.542116) scale(0.1 -0.1)">
     <use xlink:href="#ArialMT-6e"/>
     <use xlink:href="#ArialMT-d7" transform="translate(55.615234 0)"/>
     <use xlink:href="#ArialMT-6e" transform="translate(114.013672 0)"/>
    </g>
   </g>
   <g id="text_7">
    <!-- ⚠ bottleneck! -->
    <g style="fill: #d4817a" transform="translate(145.445275 253.339182) scale(0.08 -0.08)">
     <defs>
      <path id="DejaVuSans-Oblique-26a0" d="M 2875 4616 
L 2897 4616 
L 5378 28 
L 5378 0 
L 369 0 
L 344 28 
L 316 28 
Q 2775 4516 2875 4616 
z
M 2847 4034 
L 791 319 
L 791 266 
L 4928 266 
L 4928 294 
Q 2938 3947 2847 4034 
z
M 2875 3347 
Q 3113 3347 3113 3138 
Q 2953 1241 2875 1241 
Q 2803 1241 2638 3166 
Q 2713 3347 2875 3347 
z
M 2872 1013 
Q 2931 1013 2987 981 
Q 3044 950 3076 894 
Q 3109 838 3109 775 
Q 3109 713 3078 656 
Q 3047 600 2989 569 
Q 2931 538 2872 538 
Q 2809 538 2753 569 
Q 2697 600 2665 656 
Q 2634 713 2634 775 
Q 2634 838 2665 894 
Q 2697 950 2753 981 
Q 2809 1013 2872 1013 
z
" transform="scale(0.015625)"/>
      <path id="Arial-ItalicMT-20" transform="scale(0.015625)"/>
      <path id="Arial-ItalicMT-62" d="M 213 0 
L 1169 4581 
L 1734 4581 
L 1394 2944 
Q 1663 3191 1881 3292 
Q 2100 3394 2338 3394 
Q 2803 3394 3114 3047 
Q 3425 2700 3425 2038 
Q 3425 1597 3300 1231 
Q 3175 866 2990 617 
Q 2806 369 2609 220 
Q 2413 72 2206 -1 
Q 2000 -75 1809 -75 
Q 1481 -75 1231 98 
Q 981 272 841 628 
L 709 0 
L 213 0 
z
M 1050 1363 
L 1047 1256 
Q 1047 831 1250 609 
Q 1453 388 1756 388 
Q 2053 388 2301 595 
Q 2550 803 2709 1243 
Q 2869 1684 2869 2056 
Q 2869 2475 2667 2706 
Q 2466 2938 2169 2938 
Q 1863 2938 1606 2702 
Q 1350 2466 1178 1975 
Q 1050 1609 1050 1363 
z
" transform="scale(0.015625)"/>
      <path id="Arial-ItalicMT-6f" d="M 313 1259 
Q 313 2231 884 2869 
Q 1356 3394 2122 3394 
Q 2722 3394 3089 3019 
Q 3456 2644 3456 2006 
Q 3456 1434 3225 942 
Q 2994 450 2567 187 
Q 2141 -75 1669 -75 
Q 1281 -75 964 90 
Q 647 256 480 559 
Q 313 863 313 1259 
z
M 878 1316 
Q 878 847 1103 605 
Q 1328 363 1675 363 
Q 1856 363 2034 436 
Q 2213 509 2366 659 
Q 2519 809 2626 1001 
Q 2734 1194 2800 1416 
Q 2897 1725 2897 2009 
Q 2897 2459 2670 2707 
Q 2444 2956 2100 2956 
Q 1834 2956 1615 2829 
Q 1397 2703 1220 2459 
Q 1044 2216 961 1892 
Q 878 1569 878 1316 
z
" transform="scale(0.015625)"/>
      <path id="Arial-ItalicMT-74" d="M 1534 459 
L 1441 -3 
Q 1238 -56 1047 -56 
Q 709 -56 509 109 
Q 359 234 359 450 
Q 359 559 441 953 
L 844 2881 
L 397 2881 
L 488 3319 
L 934 3319 
L 1106 4134 
L 1753 4525 
L 1500 3319 
L 2056 3319 
L 1963 2881 
L 1409 2881 
L 1025 1047 
Q 953 697 953 628 
Q 953 528 1011 475 
Q 1069 422 1200 422 
Q 1388 422 1534 459 
z
" transform="scale(0.015625)"/>
      <path id="Arial-ItalicMT-6c" d="M 169 0 
L 1125 4581 
L 1691 4581 
L 734 0 
L 169 0 
z
" transform="scale(0.015625)"/>
      <path id="Arial-ItalicMT-65" d="M 2650 1128 
L 3200 1072 
Q 3081 663 2654 294 
Q 2228 -75 1638 -75 
Q 1269 -75 961 95 
Q 653 266 492 591 
Q 331 916 331 1331 
Q 331 1875 582 2386 
Q 834 2897 1234 3145 
Q 1634 3394 2100 3394 
Q 2694 3394 3048 3025 
Q 3403 2656 3403 2019 
Q 3403 1775 3359 1519 
L 916 1519 
Q 903 1422 903 1344 
Q 903 878 1117 633 
Q 1331 388 1641 388 
Q 1931 388 2212 578 
Q 2494 769 2650 1128 
z
M 1006 1950 
L 2869 1950 
Q 2872 2038 2872 2075 
Q 2872 2500 2659 2726 
Q 2447 2953 2113 2953 
Q 1750 2953 1451 2703 
Q 1153 2453 1006 1950 
z
" transform="scale(0.015625)"/>
      <path id="Arial-ItalicMT-6e" d="M 213 0 
L 906 3319 
L 1419 3319 
L 1297 2741 
Q 1631 3081 1922 3237 
Q 2213 3394 2516 3394 
Q 2919 3394 3148 3175 
Q 3378 2956 3378 2591 
Q 3378 2406 3297 2009 
L 2875 0 
L 2309 0 
L 2750 2103 
Q 2816 2409 2816 2556 
Q 2816 2722 2702 2825 
Q 2588 2928 2372 2928 
Q 1938 2928 1598 2615 
Q 1259 2303 1100 1544 
L 778 0 
L 213 0 
z
" transform="scale(0.015625)"/>
      <path id="Arial-ItalicMT-63" d="M 2503 1209 
L 3069 1150 
Q 2856 528 2464 226 
Q 2072 -75 1572 -75 
Q 1031 -75 695 275 
Q 359 625 359 1253 
Q 359 1797 575 2322 
Q 791 2847 1192 3120 
Q 1594 3394 2109 3394 
Q 2644 3394 2956 3092 
Q 3269 2791 3269 2294 
L 2713 2256 
Q 2709 2572 2529 2750 
Q 2350 2928 2056 2928 
Q 1716 2928 1466 2712 
Q 1216 2497 1073 2058 
Q 931 1619 931 1213 
Q 931 788 1118 575 
Q 1306 363 1581 363 
Q 1856 363 2107 572 
Q 2359 781 2503 1209 
z
" transform="scale(0.015625)"/>
      <path id="Arial-ItalicMT-6b" d="M 219 0 
L 1178 4581 
L 1741 4581 
L 1147 1741 
L 2797 3319 
L 3544 3319 
L 2128 2081 
L 2984 0 
L 2366 0 
L 1703 1703 
L 1016 1109 
L 784 0 
L 219 0 
z
" transform="scale(0.015625)"/>
      <path id="Arial-ItalicMT-21" d="M 716 1156 
L 1063 3644 
L 1259 4581 
L 1944 4581 
L 1731 3566 
L 1069 1156 
L 716 1156 
z
M 359 0 
L 494 641 
L 1131 641 
L 997 0 
L 359 0 
z
" transform="scale(0.015625)"/>
     </defs>
     <use xlink:href="#DejaVuSans-Oblique-26a0"/>
     <use xlink:href="#Arial-ItalicMT-20" transform="translate(88.964844 0)"/>
     <use xlink:href="#Arial-ItalicMT-62" transform="translate(116.748047 0)"/>
     <use xlink:href="#Arial-ItalicMT-6f" transform="translate(172.363281 0)"/>
     <use xlink:href="#Arial-ItalicMT-74" transform="translate(227.978516 0)"/>
     <use xlink:href="#Arial-ItalicMT-74" transform="translate(255.761719 0)"/>
     <use xlink:href="#Arial-ItalicMT-6c" transform="translate(283.544922 0)"/>
     <use xlink:href="#Arial-ItalicMT-65" transform="translate(305.761719 0)"/>
     <use xlink:href="#Arial-ItalicMT-6e" transform="translate(361.376953 0)"/>
     <use xlink:href="#Arial-ItalicMT-65" transform="translate(416.992188 0)"/>
     <use xlink:href="#Arial-ItalicMT-63" transform="translate(472.607422 0)"/>
     <use xlink:href="#Arial-ItalicMT-6b" transform="translate(522.607422 0)"/>
     <use xlink:href="#Arial-ItalicMT-21" transform="translate(572.607422 0)"/>
    </g>
   </g>
   <g id="text_8">
    <!-- × -->
    <g style="fill: #7a7a7a" transform="translate(222.16209 205.586022) scale(0.14 -0.14)">
     <use xlink:href="#Arial-BoldMT-d7"/>
    </g>
   </g>
   <g id="text_9">
    <!-- V -->
    <g style="fill: #ffffff" transform="translate(258.071629 204.542116) scale(0.1 -0.1)">
     <defs>
      <path id="ArialMT-56" d="M 1803 0 
L 28 4581 
L 684 4581 
L 1875 1253 
Q 2019 853 2116 503 
Q 2222 878 2363 1253 
L 3600 4581 
L 4219 4581 
L 2425 0 
L 1803 0 
z
" transform="scale(0.015625)"/>
     </defs>
     <use xlink:href="#ArialMT-56"/>
    </g>
   </g>
   <g id="text_10">
    <!-- n×d -->
    <g style="fill: #7a7a7a" transform="translate(255.46991 254.563593) scale(0.07 -0.07)">
     <use xlink:href="#ArialMT-6e"/>
     <use xlink:href="#ArialMT-d7" transform="translate(55.615234 0)"/>
     <use xlink:href="#ArialMT-64" transform="translate(114.013672 0)"/>
    </g>
   </g>
   <g id="text_11">
    <!-- = -->
    <g style="fill: #7a7a7a" transform="translate(284.361623 205.586022) scale(0.14 -0.14)">
     <defs>
      <path id="Arial-BoldMT-3d" d="M 266 2550 
L 266 3356 
L 3469 3356 
L 3469 2550 
L 266 2550 
z
M 266 1163 
L 266 1972 
L 3469 1972 
L 3469 1163 
L 266 1163 
z
" transform="scale(0.015625)"/>
     </defs>
     <use xlink:href="#Arial-BoldMT-3d"/>
    </g>
   </g>
   <g id="text_12">
    <!-- O -->
    <g style="fill: #ffffff" transform="translate(308.899945 204.542116) scale(0.1 -0.1)">
     <defs>
      <path id="ArialMT-4f" d="M 309 2231 
Q 309 3372 921 4017 
Q 1534 4663 2503 4663 
Q 3138 4663 3647 4359 
Q 4156 4056 4423 3514 
Q 4691 2972 4691 2284 
Q 4691 1588 4409 1038 
Q 4128 488 3612 205 
Q 3097 -78 2500 -78 
Q 1853 -78 1343 234 
Q 834 547 571 1087 
Q 309 1628 309 2231 
z
M 934 2222 
Q 934 1394 1379 917 
Q 1825 441 2497 441 
Q 3181 441 3623 922 
Q 4066 1403 4066 2288 
Q 4066 2847 3877 3264 
Q 3688 3681 3323 3911 
Q 2959 4141 2506 4141 
Q 1863 4141 1398 3698 
Q 934 3256 934 2222 
z
" transform="scale(0.015625)"/>
     </defs>
     <use xlink:href="#ArialMT-4f"/>
    </g>
   </g>
   <g id="text_13">
    <!-- n×d -->
    <g style="fill: #7a7a7a" transform="translate(306.852133 254.563593) scale(0.07 -0.07)">
     <use xlink:href="#ArialMT-6e"/>
     <use xlink:href="#ArialMT-d7" transform="translate(55.615234 0)"/>
     <use xlink:href="#ArialMT-64" transform="translate(114.013672 0)"/>
    </g>
   </g>
   <g id="text_14">
    <!-- Complexity: $O(n^2 d)$ -->
    <g style="fill: #d4817a" transform="translate(122.65965 280.382457) scale(0.1 -0.1)">
     <defs>
      <path id="Arial-BoldMT-43" d="M 3397 1684 
L 4294 1400 
Q 4088 650 3608 286 
Q 3128 -78 2391 -78 
Q 1478 -78 890 545 
Q 303 1169 303 2250 
Q 303 3394 893 4026 
Q 1484 4659 2447 4659 
Q 3288 4659 3813 4163 
Q 4125 3869 4281 3319 
L 3366 3100 
Q 3284 3456 3026 3662 
Q 2769 3869 2400 3869 
Q 1891 3869 1573 3503 
Q 1256 3138 1256 2319 
Q 1256 1450 1568 1081 
Q 1881 713 2381 713 
Q 2750 713 3015 947 
Q 3281 1181 3397 1684 
z
" transform="scale(0.015625)"/>
      <path id="Arial-BoldMT-6f" d="M 256 1706 
Q 256 2144 472 2553 
Q 688 2963 1083 3178 
Q 1478 3394 1966 3394 
Q 2719 3394 3200 2905 
Q 3681 2416 3681 1669 
Q 3681 916 3195 420 
Q 2709 -75 1972 -75 
Q 1516 -75 1102 131 
Q 688 338 472 736 
Q 256 1134 256 1706 
z
M 1156 1659 
Q 1156 1166 1390 903 
Q 1625 641 1969 641 
Q 2313 641 2545 903 
Q 2778 1166 2778 1666 
Q 2778 2153 2545 2415 
Q 2313 2678 1969 2678 
Q 1625 2678 1390 2415 
Q 1156 2153 1156 1659 
z
" transform="scale(0.015625)"/>
      <path id="Arial-BoldMT-6d" d="M 394 3319 
L 1203 3319 
L 1203 2866 
Q 1638 3394 2238 3394 
Q 2556 3394 2790 3262 
Q 3025 3131 3175 2866 
Q 3394 3131 3647 3262 
Q 3900 3394 4188 3394 
Q 4553 3394 4806 3245 
Q 5059 3097 5184 2809 
Q 5275 2597 5275 2122 
L 5275 0 
L 4397 0 
L 4397 1897 
Q 4397 2391 4306 2534 
Q 4184 2722 3931 2722 
Q 3747 2722 3584 2609 
Q 3422 2497 3350 2280 
Q 3278 2063 3278 1594 
L 3278 0 
L 2400 0 
L 2400 1819 
Q 2400 2303 2353 2443 
Q 2306 2584 2207 2653 
Q 2109 2722 1941 2722 
Q 1738 2722 1575 2612 
Q 1413 2503 1342 2297 
Q 1272 2091 1272 1613 
L 1272 0 
L 394 0 
L 394 3319 
z
" transform="scale(0.015625)"/>
      <path id="Arial-BoldMT-70" d="M 434 3319 
L 1253 3319 
L 1253 2831 
Q 1413 3081 1684 3237 
Q 1956 3394 2288 3394 
Q 2866 3394 3269 2941 
Q 3672 2488 3672 1678 
Q 3672 847 3265 386 
Q 2859 -75 2281 -75 
Q 2006 -75 1782 34 
Q 1559 144 1313 409 
L 1313 -1263 
L 434 -1263 
L 434 3319 
z
M 1303 1716 
Q 1303 1156 1525 889 
Q 1747 622 2066 622 
Q 2372 622 2575 867 
Q 2778 1113 2778 1672 
Q 2778 2194 2568 2447 
Q 2359 2700 2050 2700 
Q 1728 2700 1515 2451 
Q 1303 2203 1303 1716 
z
" transform="scale(0.015625)"/>
      <path id="Arial-BoldMT-6c" d="M 459 0 
L 459 4581 
L 1338 4581 
L 1338 0 
L 459 0 
z
" transform="scale(0.015625)"/>
      <path id="Arial-BoldMT-65" d="M 2381 1056 
L 3256 909 
Q 3088 428 2723 176 
Q 2359 -75 1813 -75 
Q 947 -75 531 491 
Q 203 944 203 1634 
Q 203 2459 634 2926 
Q 1066 3394 1725 3394 
Q 2466 3394 2894 2905 
Q 3322 2416 3303 1406 
L 1103 1406 
Q 1113 1016 1316 798 
Q 1519 581 1822 581 
Q 2028 581 2168 693 
Q 2309 806 2381 1056 
z
M 2431 1944 
Q 2422 2325 2234 2523 
Q 2047 2722 1778 2722 
Q 1491 2722 1303 2513 
Q 1116 2303 1119 1944 
L 2431 1944 
z
" transform="scale(0.015625)"/>
      <path id="Arial-BoldMT-78" d="M 38 0 
L 1234 1709 
L 88 3319 
L 1159 3319 
L 1747 2406 
L 2366 3319 
L 3397 3319 
L 2272 1747 
L 3500 0 
L 2422 0 
L 1747 1028 
L 1066 0 
L 38 0 
z
" transform="scale(0.015625)"/>
      <path id="Arial-BoldMT-69" d="M 459 3769 
L 459 4581 
L 1338 4581 
L 1338 3769 
L 459 3769 
z
M 459 0 
L 459 3319 
L 1338 3319 
L 1338 0 
L 459 0 
z
" transform="scale(0.015625)"/>
      <path id="Arial-BoldMT-74" d="M 1981 3319 
L 1981 2619 
L 1381 2619 
L 1381 1281 
Q 1381 875 1398 808 
Q 1416 741 1477 697 
Q 1538 653 1625 653 
Q 1747 653 1978 738 
L 2053 56 
Q 1747 -75 1359 -75 
Q 1122 -75 931 4 
Q 741 84 652 211 
Q 563 338 528 553 
Q 500 706 500 1172 
L 500 2619 
L 97 2619 
L 97 3319 
L 500 3319 
L 500 3978 
L 1381 4491 
L 1381 3319 
L 1981 3319 
z
" transform="scale(0.015625)"/>
      <path id="Arial-BoldMT-79" d="M 44 3319 
L 978 3319 
L 1772 963 
L 2547 3319 
L 3456 3319 
L 2284 125 
L 2075 -453 
Q 1959 -744 1854 -897 
Q 1750 -1050 1614 -1145 
Q 1478 -1241 1279 -1294 
Q 1081 -1347 831 -1347 
Q 578 -1347 334 -1294 
L 256 -606 
Q 463 -647 628 -647 
Q 934 -647 1081 -467 
Q 1228 -288 1306 -9 
L 44 3319 
z
" transform="scale(0.015625)"/>
      <path id="Arial-BoldMT-3a" d="M 628 2441 
L 628 3319 
L 1506 3319 
L 1506 2441 
L 628 2441 
z
M 628 0 
L 628 878 
L 1506 878 
L 1506 0 
L 628 0 
z
" transform="scale(0.015625)"/>
      <path id="Arial-BoldMT-20" transform="scale(0.015625)"/>
      <path id="DejaVuSans-Oblique-4f" d="M 2919 4238 
Q 2400 4238 2003 3986 
Q 1606 3734 1313 3219 
Q 1125 2891 1026 2522 
Q 928 2153 928 1778 
Q 928 1128 1239 775 
Q 1550 422 2119 422 
Q 2631 422 3032 676 
Q 3434 931 3719 1434 
Q 3909 1772 4009 2142 
Q 4109 2513 4109 2881 
Q 4109 3528 3796 3883 
Q 3484 4238 2919 4238 
z
M 2100 -91 
Q 1241 -91 748 418 
Q 256 928 256 1813 
Q 256 2319 448 2847 
Q 641 3375 978 3788 
Q 1375 4272 1862 4511 
Q 2350 4750 2938 4750 
Q 3794 4750 4287 4245 
Q 4781 3741 4781 2869 
Q 4781 2331 4593 1812 
Q 4406 1294 4056 872 
Q 3656 384 3173 146 
Q 2691 -91 2100 -91 
z
" transform="scale(0.015625)"/>
      <path id="DejaVuSans-28" d="M 1984 4856 
Q 1566 4138 1362 3434 
Q 1159 2731 1159 2009 
Q 1159 1288 1364 580 
Q 1569 -128 1984 -844 
L 1484 -844 
Q 1016 -109 783 600 
Q 550 1309 550 2009 
Q 550 2706 781 3412 
Q 1013 4119 1484 4856 
L 1984 4856 
z
" transform="scale(0.015625)"/>
      <path id="DejaVuSans-Oblique-6e" d="M 3566 2113 
L 3156 0 
L 2578 0 
L 2988 2091 
Q 3016 2238 3031 2350 
Q 3047 2463 3047 2528 
Q 3047 2791 2881 2937 
Q 2716 3084 2419 3084 
Q 1956 3084 1622 2776 
Q 1288 2469 1184 1941 
L 800 0 
L 225 0 
L 903 3500 
L 1478 3500 
L 1363 2950 
Q 1603 3253 1940 3418 
Q 2278 3584 2650 3584 
Q 3113 3584 3367 3334 
Q 3622 3084 3622 2631 
Q 3622 2519 3608 2391 
Q 3594 2263 3566 2113 
z
" transform="scale(0.015625)"/>
      <path id="DejaVuSans-32" d="M 1228 531 
L 3431 531 
L 3431 0 
L 469 0 
L 469 531 
Q 828 903 1448 1529 
Q 2069 2156 2228 2338 
Q 2531 2678 2651 2914 
Q 2772 3150 2772 3378 
Q 2772 3750 2511 3984 
Q 2250 4219 1831 4219 
Q 1534 4219 1204 4116 
Q 875 4013 500 3803 
L 500 4441 
Q 881 4594 1212 4672 
Q 1544 4750 1819 4750 
Q 2544 4750 2975 4387 
Q 3406 4025 3406 3419 
Q 3406 3131 3298 2873 
Q 3191 2616 2906 2266 
Q 2828 2175 2409 1742 
Q 1991 1309 1228 531 
z
" transform="scale(0.015625)"/>
      <path id="DejaVuSans-Oblique-64" d="M 2675 525 
Q 2444 222 2128 65 
Q 1813 -91 1428 -91 
Q 903 -91 598 267 
Q 294 625 294 1247 
Q 294 1766 478 2236 
Q 663 2706 1013 3078 
Q 1244 3325 1534 3454 
Q 1825 3584 2144 3584 
Q 2481 3584 2739 3421 
Q 2997 3259 3138 2956 
L 3513 4863 
L 4091 4863 
L 3144 0 
L 2566 0 
L 2675 525 
z
M 891 1350 
Q 891 897 1095 644 
Q 1300 391 1663 391 
Q 1931 391 2161 520 
Q 2391 650 2566 903 
Q 2750 1166 2856 1509 
Q 2963 1853 2963 2188 
Q 2963 2622 2758 2865 
Q 2553 3109 2194 3109 
Q 1922 3109 1687 2981 
Q 1453 2853 1288 2613 
Q 1106 2353 998 2009 
Q 891 1666 891 1350 
z
" transform="scale(0.015625)"/>
      <path id="DejaVuSans-29" d="M 513 4856 
L 1013 4856 
Q 1481 4119 1714 3412 
Q 1947 2706 1947 2009 
Q 1947 1309 1714 600 
Q 1481 -109 1013 -844 
L 513 -844 
Q 928 -128 1133 580 
Q 1338 1288 1338 2009 
Q 1338 2731 1133 3434 
Q 928 4138 513 4856 
z
" transform="scale(0.015625)"/>
     </defs>
     <use xlink:href="#Arial-BoldMT-43" transform="translate(0 0.765625)"/>
     <use xlink:href="#Arial-BoldMT-6f" transform="translate(72.216797 0.765625)"/>
     <use xlink:href="#Arial-BoldMT-6d" transform="translate(133.300781 0.765625)"/>
     <use xlink:href="#Arial-BoldMT-70" transform="translate(222.216797 0.765625)"/>
     <use xlink:href="#Arial-BoldMT-6c" transform="translate(283.300781 0.765625)"/>
     <use xlink:href="#Arial-BoldMT-65" transform="translate(311.083984 0.765625)"/>
     <use xlink:href="#Arial-BoldMT-78" transform="translate(366.699219 0.765625)"/>
     <use xlink:href="#Arial-BoldMT-69" transform="translate(422.314453 0.765625)"/>
     <use xlink:href="#Arial-BoldMT-74" transform="translate(450.097656 0.765625)"/>
     <use xlink:href="#Arial-BoldMT-79" transform="translate(483.398438 0.765625)"/>
     <use xlink:href="#Arial-BoldMT-3a" transform="translate(539.013672 0.765625)"/>
     <use xlink:href="#Arial-BoldMT-20" transform="translate(572.314453 0.765625)"/>
     <use xlink:href="#DejaVuSans-Oblique-4f" transform="translate(600.097656 0.765625)"/>
     <use xlink:href="#DejaVuSans-28" transform="translate(678.808594 0.765625)"/>
     <use xlink:href="#DejaVuSans-Oblique-6e" transform="translate(717.822266 0.765625)"/>
     <use xlink:href="#DejaVuSans-32" transform="translate(785.851068 39.046875) scale(0.7)"/>
     <use xlink:href="#DejaVuSans-Oblique-64" transform="translate(833.121576 0.765625)"/>
     <use xlink:href="#DejaVuSans-29" transform="translate(896.598138 0.765625)"/>
    </g>
   </g>
   <g id="text_15">
    <!-- Standard Attention: $(QK^\top)V$ -->
    <g style="fill: #d4817a" transform="translate(95.20965 16.88) scale(0.11 -0.11)">
     <defs>
      <path id="Arial-BoldMT-53" d="M 231 1491 
L 1131 1578 
Q 1213 1125 1461 912 
Q 1709 700 2131 700 
Q 2578 700 2804 889 
Q 3031 1078 3031 1331 
Q 3031 1494 2936 1608 
Q 2841 1722 2603 1806 
Q 2441 1863 1863 2006 
Q 1119 2191 819 2459 
Q 397 2838 397 3381 
Q 397 3731 595 4036 
Q 794 4341 1167 4500 
Q 1541 4659 2069 4659 
Q 2931 4659 3367 4281 
Q 3803 3903 3825 3272 
L 2900 3231 
Q 2841 3584 2645 3739 
Q 2450 3894 2059 3894 
Q 1656 3894 1428 3728 
Q 1281 3622 1281 3444 
Q 1281 3281 1419 3166 
Q 1594 3019 2269 2859 
Q 2944 2700 3267 2529 
Q 3591 2359 3773 2064 
Q 3956 1769 3956 1334 
Q 3956 941 3737 597 
Q 3519 253 3119 86 
Q 2719 -81 2122 -81 
Q 1253 -81 787 320 
Q 322 722 231 1491 
z
" transform="scale(0.015625)"/>
      <path id="Arial-BoldMT-61" d="M 1116 2306 
L 319 2450 
Q 453 2931 781 3162 
Q 1109 3394 1756 3394 
Q 2344 3394 2631 3255 
Q 2919 3116 3036 2902 
Q 3153 2688 3153 2116 
L 3144 1091 
Q 3144 653 3186 445 
Q 3228 238 3344 0 
L 2475 0 
Q 2441 88 2391 259 
Q 2369 338 2359 363 
Q 2134 144 1878 34 
Q 1622 -75 1331 -75 
Q 819 -75 523 203 
Q 228 481 228 906 
Q 228 1188 362 1408 
Q 497 1628 739 1745 
Q 981 1863 1438 1950 
Q 2053 2066 2291 2166 
L 2291 2253 
Q 2291 2506 2166 2614 
Q 2041 2722 1694 2722 
Q 1459 2722 1328 2630 
Q 1197 2538 1116 2306 
z
M 2291 1594 
Q 2122 1538 1756 1459 
Q 1391 1381 1278 1306 
Q 1106 1184 1106 997 
Q 1106 813 1243 678 
Q 1381 544 1594 544 
Q 1831 544 2047 700 
Q 2206 819 2256 991 
Q 2291 1103 2291 1419 
L 2291 1594 
z
" transform="scale(0.015625)"/>
      <path id="Arial-BoldMT-6e" d="M 3478 0 
L 2600 0 
L 2600 1694 
Q 2600 2231 2544 2389 
Q 2488 2547 2361 2634 
Q 2234 2722 2056 2722 
Q 1828 2722 1647 2597 
Q 1466 2472 1398 2265 
Q 1331 2059 1331 1503 
L 1331 0 
L 453 0 
L 453 3319 
L 1269 3319 
L 1269 2831 
Q 1703 3394 2363 3394 
Q 2653 3394 2893 3289 
Q 3134 3184 3257 3021 
Q 3381 2859 3429 2653 
Q 3478 2447 3478 2063 
L 3478 0 
z
" transform="scale(0.015625)"/>
      <path id="Arial-BoldMT-64" d="M 3503 0 
L 2688 0 
L 2688 488 
Q 2484 203 2207 64 
Q 1931 -75 1650 -75 
Q 1078 -75 670 386 
Q 263 847 263 1672 
Q 263 2516 659 2955 
Q 1056 3394 1663 3394 
Q 2219 3394 2625 2931 
L 2625 4581 
L 3503 4581 
L 3503 0 
z
M 1159 1731 
Q 1159 1200 1306 963 
Q 1519 619 1900 619 
Q 2203 619 2415 876 
Q 2628 1134 2628 1647 
Q 2628 2219 2422 2470 
Q 2216 2722 1894 2722 
Q 1581 2722 1370 2473 
Q 1159 2225 1159 1731 
z
" transform="scale(0.015625)"/>
      <path id="Arial-BoldMT-72" d="M 1300 0 
L 422 0 
L 422 3319 
L 1238 3319 
L 1238 2847 
Q 1447 3181 1614 3287 
Q 1781 3394 1994 3394 
Q 2294 3394 2572 3228 
L 2300 2463 
Q 2078 2606 1888 2606 
Q 1703 2606 1575 2504 
Q 1447 2403 1373 2137 
Q 1300 1872 1300 1025 
L 1300 0 
z
" transform="scale(0.015625)"/>
      <path id="Arial-BoldMT-41" d="M 4597 0 
L 3591 0 
L 3191 1041 
L 1359 1041 
L 981 0 
L 0 0 
L 1784 4581 
L 2763 4581 
L 4597 0 
z
M 2894 1813 
L 2263 3513 
L 1644 1813 
L 2894 1813 
z
" transform="scale(0.015625)"/>
      <path id="DejaVuSans-Oblique-51" d="M 2309 -84 
Q 2275 -88 2237 -89 
Q 2200 -91 2125 -91 
Q 1250 -91 756 411 
Q 263 913 263 1797 
Q 263 2319 452 2844 
Q 641 3369 978 3788 
Q 1369 4269 1858 4509 
Q 2347 4750 2938 4750 
Q 3794 4750 4287 4245 
Q 4781 3741 4781 2869 
Q 4781 1928 4265 1147 
Q 3750 366 2919 44 
L 3553 -825 
L 2847 -825 
L 2309 -84 
z
M 2919 4238 
Q 2400 4238 2003 3986 
Q 1606 3734 1313 3219 
Q 1125 2891 1026 2522 
Q 928 2153 928 1778 
Q 928 1128 1239 775 
Q 1550 422 2119 422 
Q 2631 422 3032 676 
Q 3434 931 3719 1434 
Q 3909 1772 4009 2142 
Q 4109 2513 4109 2881 
Q 4109 3528 3796 3883 
Q 3484 4238 2919 4238 
z
" transform="scale(0.015625)"/>
      <path id="DejaVuSans-Oblique-4b" d="M 1081 4666 
L 1716 4666 
L 1331 2700 
L 3781 4666 
L 4622 4666 
L 1850 2438 
L 3878 0 
L 3109 0 
L 1247 2272 
L 806 0 
L 172 0 
L 1081 4666 
z
" transform="scale(0.015625)"/>
      <path id="DejaVuSans-Oblique-56" d="M 1319 0 
L 500 4666 
L 1119 4666 
L 1797 653 
L 4063 4666 
L 4750 4666 
L 2053 0 
L 1319 0 
z
" transform="scale(0.015625)"/>
     </defs>
     <use xlink:href="#Arial-BoldMT-53" transform="translate(0 0.707813)"/>
     <use xlink:href="#Arial-BoldMT-74" transform="translate(66.699219 0.707813)"/>
     <use xlink:href="#Arial-BoldMT-61" transform="translate(100 0.707813)"/>
     <use xlink:href="#Arial-BoldMT-6e" transform="translate(155.615234 0.707813)"/>
     <use xlink:href="#Arial-BoldMT-64" transform="translate(216.699219 0.707813)"/>
     <use xlink:href="#Arial-BoldMT-61" transform="translate(277.783203 0.707813)"/>
     <use xlink:href="#Arial-BoldMT-72" transform="translate(333.398438 0.707813)"/>
     <use xlink:href="#Arial-BoldMT-64" transform="translate(372.314453 0.707813)"/>
     <use xlink:href="#Arial-BoldMT-20" transform="translate(433.398438 0.707813)"/>
     <use xlink:href="#Arial-BoldMT-41" transform="translate(461.181641 0.707813)"/>
     <use xlink:href="#Arial-BoldMT-74" transform="translate(533.398438 0.707813)"/>
     <use xlink:href="#Arial-BoldMT-74" transform="translate(566.699219 0.707813)"/>
     <use xlink:href="#Arial-BoldMT-65" transform="translate(600 0.707813)"/>
     <use xlink:href="#Arial-BoldMT-6e" transform="translate(655.615234 0.707813)"/>
     <use xlink:href="#Arial-BoldMT-74" transform="translate(716.699219 0.707813)"/>
     <use xlink:href="#Arial-BoldMT-69" transform="translate(750 0.707813)"/>
     <use xlink:href="#Arial-BoldMT-6f" transform="translate(777.783203 0.707813)"/>
     <use xlink:href="#Arial-BoldMT-6e" transform="translate(838.867188 0.707813)"/>
     <use xlink:href="#Arial-BoldMT-3a" transform="translate(899.951172 0.707813)"/>
     <use xlink:href="#Arial-BoldMT-20" transform="translate(933.251953 0.707813)"/>
     <use xlink:href="#DejaVuSans-28" transform="translate(961.035156 0.707813)"/>
     <use xlink:href="#DejaVuSans-Oblique-51" transform="translate(1000.048828 0.707813)"/>
     <use xlink:href="#DejaVuSans-Oblique-4b" transform="translate(1078.759766 0.707813)"/>
     <use xlink:href="#DejaVuSans-22a4" transform="translate(1164.990404 38.989063) scale(0.7)"/>
     <use xlink:href="#DejaVuSans-29" transform="translate(1242.339036 0.707813)"/>
     <use xlink:href="#DejaVuSans-Oblique-56" transform="translate(1281.352708 0.707813)"/>
    </g>
   </g>
  </g>
  <g id="axes_2">
   <g id="patch_8">
    <path d="M 456.790322 124.613193 
L 509.795141 124.613193 
Q 514.122065 124.613193 514.122065 120.286269 
L 514.122065 99.73338 
Q 514.122065 95.406456 509.795141 95.406456 
L 456.790322 95.406456 
Q 452.463398 95.406456 452.463398 99.73338 
L 452.463398 120.286269 
Q 452.463398 124.613193 456.790322 124.613193 
z
" clip-path="url(#p5ff3a72d9c)" style="fill: #6c9bc2; opacity: 0.85"/>
   </g>
   <g id="patch_9">
    <path d="M 548.737457 140.839158 
L 569.290346 140.839158 
Q 573.61727 140.839158 573.61727 136.512234 
L 573.61727 83.507415 
Q 573.61727 79.180491 569.290346 79.180491 
L 548.737457 79.180491 
Q 544.410533 79.180491 544.410533 83.507415 
L 544.410533 136.512234 
Q 544.410533 140.839158 548.737457 140.839158 
z
" clip-path="url(#p5ff3a72d9c)" style="fill: #7fb685; opacity: 0.85"/>
   </g>
   <g id="patch_10">
    <path d="M 602.824007 221.968983 
L 634.194206 221.968983 
Q 638.52113 221.968983 638.52113 217.642059 
L 638.52113 186.27186 
Q 638.52113 181.944936 634.194206 181.944936 
L 602.824007 181.944936 
Q 598.497083 181.944936 598.497083 186.27186 
L 598.497083 217.642059 
Q 598.497083 221.968983 602.824007 221.968983 
z
" clip-path="url(#p5ff3a72d9c)" style="fill: #7fb685; opacity: 0.85"/>
   </g>
   <g id="patch_11">
    <path d="M 483.833597 240.899276 
L 504.386486 240.899276 
Q 508.71341 240.899276 508.71341 236.572352 
L 508.71341 167.341568 
Q 508.71341 163.014644 504.386486 163.014644 
L 483.833597 163.014644 
Q 479.506673 163.014644 479.506673 167.341568 
L 479.506673 236.572352 
Q 479.506673 240.899276 483.833597 240.899276 
z
" clip-path="url(#p5ff3a72d9c)" style="fill: #6c9bc2; opacity: 0.85"/>
   </g>
   <g id="patch_12">
    <path d="M 679.897341 240.899276 
L 697.745903 240.899276 
Q 702.072827 240.899276 702.072827 236.572352 
L 702.072827 167.341568 
Q 702.072827 163.014644 697.745903 163.014644 
L 679.897341 163.014644 
Q 675.570417 163.014644 675.570417 167.341568 
L 675.570417 236.572352 
Q 675.570417 240.899276 679.897341 240.899276 
z
" clip-path="url(#p5ff3a72d9c)" style="fill: #9b8dc2; opacity: 0.85"/>
   </g>
   <g id="text_16">
    <!-- $\phi(K)^\top$ -->
    <g style="fill: #ffffff" transform="translate(468.192732 113.359825) scale(0.1 -0.1)">
     <defs>
      <path id="DejaVuSans-Oblique-3d5" d="M 2991 4863 
L 2738 3572 
Q 3363 3572 3684 3094 
Q 4016 2606 3850 1747 
Q 3681 888 3159 400 
Q 2653 -78 2028 -78 
L 1784 -1331 
L 1213 -1331 
L 1456 -78 
Q 834 -78 509 400 
Q 178 888 347 1747 
Q 513 2606 1034 3094 
Q 1544 3572 2166 3572 
L 2419 4863 
L 2991 4863 
z
M 2128 434 
Q 2481 434 2784 756 
Q 3116 1116 3244 1747 
Q 3369 2372 3169 2738 
Q 2991 3059 2638 3059 
L 2128 434 
z
M 1556 434 
L 2066 3059 
Q 1716 3059 1413 2738 
Q 1072 2372 953 1747 
Q 834 1116 1028 756 
Q 1203 434 1556 434 
z
" transform="scale(0.015625)"/>
     </defs>
     <use xlink:href="#DejaVuSans-Oblique-3d5" transform="translate(0 0.707813)"/>
     <use xlink:href="#DejaVuSans-28" transform="translate(65.966797 0.707813)"/>
     <use xlink:href="#DejaVuSans-Oblique-4b" transform="translate(104.980469 0.707813)"/>
     <use xlink:href="#DejaVuSans-29" transform="translate(170.556641 0.707813)"/>
     <use xlink:href="#DejaVuSans-22a4" transform="translate(224.165039 38.989063) scale(0.7)"/>
    </g>
   </g>
   <g id="text_17">
    <!-- d×n -->
    <g style="fill: #7a7a7a" transform="translate(477.355857 138.27751) scale(0.07 -0.07)">
     <use xlink:href="#ArialMT-64"/>
     <use xlink:href="#ArialMT-d7" transform="translate(55.615234 0)"/>
     <use xlink:href="#ArialMT-6e" transform="translate(114.013672 0)"/>
    </g>
   </g>
   <g id="text_18">
    <!-- × -->
    <g style="fill: #7a7a7a" transform="translate(525.177862 113.638887) scale(0.14 -0.14)">
     <use xlink:href="#Arial-BoldMT-d7"/>
    </g>
   </g>
   <g id="text_19">
    <!-- V -->
    <g style="fill: #ffffff" transform="translate(555.678746 112.594981) scale(0.1 -0.1)">
     <use xlink:href="#ArialMT-56"/>
    </g>
   </g>
   <g id="text_20">
    <!-- n×d -->
    <g style="fill: #7a7a7a" transform="translate(553.077027 154.503475) scale(0.07 -0.07)">
     <use xlink:href="#ArialMT-6e"/>
     <use xlink:href="#ArialMT-d7" transform="translate(55.615234 0)"/>
     <use xlink:href="#ArialMT-64" transform="translate(114.013672 0)"/>
    </g>
   </g>
   <g id="patch_13">
    <path d="M 539.289015 143.049365 
Q 572.536424 153.279337 604.501521 163.114752 
" style="fill: none; stroke: #7a7a7a; stroke-width: 1.2; stroke-linecap: round"/>
    <path d="M 601.266577 160.02685 
L 604.501521 163.114752 
L 600.090234 163.849966 
" style="fill: none; stroke: #7a7a7a; stroke-width: 1.2; stroke-linecap: round"/>
   </g>
   <g id="text_21">
    <!-- d×d -->
    <g style="fill: #ffffff" transform="translate(610.027857 204.542116) scale(0.1 -0.1)">
     <use xlink:href="#ArialMT-64"/>
     <use xlink:href="#ArialMT-d7" transform="translate(55.615234 0)"/>
     <use xlink:href="#ArialMT-64" transform="translate(114.013672 0)"/>
    </g>
   </g>
   <g id="text_22">
    <!-- ✓ small! -->
    <g style="fill: #7fb685" transform="translate(603.600982 237.113217) scale(0.08 -0.08)">
     <defs>
      <path id="DejaVuSans-Oblique-2713" d="M 1416 2044 
Q 1538 2044 1600 1844 
Q 1725 1469 1778 1469 
Q 1819 1469 1863 1531 
Q 2741 2938 3488 3806 
Q 3681 4031 4103 4031 
Q 4203 4031 4237 4012 
Q 4272 3994 4272 3966 
Q 4272 3922 4169 3794 
Q 2963 2344 1931 731 
Q 1859 619 1638 619 
Q 1413 619 1372 638 
Q 1266 684 1122 1116 
Q 959 1594 959 1716 
Q 959 1847 1178 1969 
Q 1313 2044 1416 2044 
z
" transform="scale(0.015625)"/>
      <path id="Arial-ItalicMT-73" d="M 266 1134 
L 831 1169 
Q 831 925 906 753 
Q 981 581 1182 472 
Q 1384 363 1653 363 
Q 2028 363 2215 513 
Q 2403 663 2403 866 
Q 2403 1013 2291 1144 
Q 2175 1275 1726 1467 
Q 1278 1659 1153 1738 
Q 944 1866 837 2039 
Q 731 2213 731 2438 
Q 731 2831 1043 3112 
Q 1356 3394 1919 3394 
Q 2544 3394 2870 3105 
Q 3197 2816 3209 2344 
L 2656 2306 
Q 2644 2606 2444 2781 
Q 2244 2956 1878 2956 
Q 1584 2956 1421 2822 
Q 1259 2688 1259 2531 
Q 1259 2375 1400 2256 
Q 1494 2175 1884 2006 
Q 2534 1725 2703 1563 
Q 2972 1303 2972 931 
Q 2972 684 2820 446 
Q 2669 209 2358 67 
Q 2047 -75 1625 -75 
Q 1050 -75 647 209 
Q 244 494 266 1134 
z
" transform="scale(0.015625)"/>
      <path id="Arial-ItalicMT-6d" d="M 209 0 
L 903 3319 
L 1469 3319 
L 1353 2772 
Q 1669 3125 1917 3259 
Q 2166 3394 2456 3394 
Q 2766 3394 2973 3230 
Q 3181 3066 3247 2772 
Q 3500 3084 3779 3239 
Q 4059 3394 4369 3394 
Q 4784 3394 4992 3197 
Q 5200 3000 5200 2644 
Q 5200 2491 5128 2138 
L 4681 0 
L 4116 0 
L 4572 2194 
Q 4631 2463 4631 2578 
Q 4631 2741 4528 2834 
Q 4425 2928 4238 2928 
Q 3984 2928 3721 2775 
Q 3459 2622 3314 2373 
Q 3169 2125 3059 1609 
L 2722 0 
L 2156 0 
L 2625 2241 
Q 2675 2469 2675 2566 
Q 2675 2728 2573 2828 
Q 2472 2928 2309 2928 
Q 2069 2928 1805 2775 
Q 1541 2622 1375 2348 
Q 1209 2075 1103 1569 
L 775 0 
L 209 0 
z
" transform="scale(0.015625)"/>
      <path id="Arial-ItalicMT-61" d="M 2450 413 
Q 2156 159 1884 42 
Q 1613 -75 1303 -75 
Q 844 -75 562 195 
Q 281 466 281 888 
Q 281 1166 407 1380 
Q 534 1594 743 1723 
Q 953 1853 1256 1909 
Q 1447 1947 1980 1969 
Q 2513 1991 2744 2081 
Q 2809 2313 2809 2466 
Q 2809 2663 2666 2775 
Q 2469 2931 2091 2931 
Q 1734 2931 1507 2773 
Q 1281 2616 1178 2325 
L 606 2375 
Q 781 2869 1161 3131 
Q 1541 3394 2119 3394 
Q 2734 3394 3094 3100 
Q 3369 2881 3369 2531 
Q 3369 2266 3291 1916 
L 3106 1091 
Q 3019 697 3019 450 
Q 3019 294 3088 0 
L 2516 0 
Q 2469 163 2450 413 
z
M 2659 1681 
Q 2541 1634 2405 1609 
Q 2269 1584 1950 1556 
Q 1456 1513 1253 1445 
Q 1050 1378 947 1231 
Q 844 1084 844 906 
Q 844 669 1008 516 
Q 1172 363 1475 363 
Q 1756 363 2015 511 
Q 2275 659 2425 925 
Q 2575 1191 2659 1681 
z
" transform="scale(0.015625)"/>
     </defs>
     <use xlink:href="#DejaVuSans-Oblique-2713"/>
     <use xlink:href="#Arial-ItalicMT-20" transform="translate(83.789062 0)"/>
     <use xlink:href="#Arial-ItalicMT-73" transform="translate(111.572266 0)"/>
     <use xlink:href="#Arial-ItalicMT-6d" transform="translate(161.572266 0)"/>
     <use xlink:href="#Arial-ItalicMT-61" transform="translate(244.873047 0)"/>
     <use xlink:href="#Arial-ItalicMT-6c" transform="translate(300.488281 0)"/>
     <use xlink:href="#Arial-ItalicMT-6c" transform="translate(322.705078 0)"/>
     <use xlink:href="#Arial-ItalicMT-21" transform="translate(344.921875 0)"/>
    </g>
   </g>
   <g id="text_23">
    <!-- $\phi(Q)$ -->
    <g style="fill: #ffffff" transform="translate(482.960042 204.70696) scale(0.1 -0.1)">
     <use xlink:href="#DejaVuSans-Oblique-3d5" transform="translate(0 0.015625)"/>
     <use xlink:href="#DejaVuSans-28" transform="translate(65.966797 0.015625)"/>
     <use xlink:href="#DejaVuSans-Oblique-51" transform="translate(104.980469 0.015625)"/>
     <use xlink:href="#DejaVuSans-29" transform="translate(183.691406 0.015625)"/>
    </g>
   </g>
   <g id="text_24">
    <!-- n×d -->
    <g style="fill: #7a7a7a" transform="translate(488.173167 254.563593) scale(0.07 -0.07)">
     <use xlink:href="#ArialMT-6e"/>
     <use xlink:href="#ArialMT-d7" transform="translate(55.615234 0)"/>
     <use xlink:href="#ArialMT-64" transform="translate(114.013672 0)"/>
    </g>
   </g>
   <g id="text_25">
    <!-- × -->
    <g style="fill: #7a7a7a" transform="translate(525.177862 205.586022) scale(0.14 -0.14)">
     <use xlink:href="#Arial-BoldMT-d7"/>
    </g>
   </g>
   <g id="patch_14">
    <path d="M 515.038457 201.95696 
Q 554.954999 201.95696 593.977115 201.95696 
" style="fill: none; stroke: #7a7a7a; stroke-width: 0.8; stroke-linecap: round"/>
    <path d="M 589.977115 199.95696 
L 593.977115 201.95696 
L 589.977115 203.95696 
" style="fill: none; stroke: #7a7a7a; stroke-width: 0.8; stroke-linecap: round"/>
   </g>
   <g id="text_26">
    <!-- = -->
    <g style="fill: #7a7a7a" transform="translate(657.689909 205.586022) scale(0.14 -0.14)">
     <use xlink:href="#Arial-BoldMT-3d"/>
    </g>
   </g>
   <g id="text_27">
    <!-- O -->
    <g style="fill: #ffffff" transform="translate(684.932559 204.542116) scale(0.1 -0.1)">
     <use xlink:href="#ArialMT-4f"/>
    </g>
   </g>
   <g id="text_28">
    <!-- n×d -->
    <g style="fill: #7a7a7a" transform="translate(682.884747 254.563593) scale(0.07 -0.07)">
     <use xlink:href="#ArialMT-6e"/>
     <use xlink:href="#ArialMT-d7" transform="translate(55.615234 0)"/>
     <use xlink:href="#ArialMT-64" transform="translate(114.013672 0)"/>
    </g>
   </g>
   <g id="text_29">
    <!-- Complexity: $O(n d^2)$ -->
    <g style="fill: #7fb685" transform="translate(544.515832 280.382457) scale(0.1 -0.1)">
     <use xlink:href="#Arial-BoldMT-43" transform="translate(0 0.765625)"/>
     <use xlink:href="#Arial-BoldMT-6f" transform="translate(72.216797 0.765625)"/>
     <use xlink:href="#Arial-BoldMT-6d" transform="translate(133.300781 0.765625)"/>
     <use xlink:href="#Arial-BoldMT-70" transform="translate(222.216797 0.765625)"/>
     <use xlink:href="#Arial-BoldMT-6c" transform="translate(283.300781 0.765625)"/>
     <use xlink:href="#Arial-BoldMT-65" transform="translate(311.083984 0.765625)"/>
     <use xlink:href="#Arial-BoldMT-78" transform="translate(366.699219 0.765625)"/>
     <use xlink:href="#Arial-BoldMT-69" transform="translate(422.314453 0.765625)"/>
     <use xlink:href="#Arial-BoldMT-74" transform="translate(450.097656 0.765625)"/>
     <use xlink:href="#Arial-BoldMT-79" transform="translate(483.398438 0.765625)"/>
     <use xlink:href="#Arial-BoldMT-3a" transform="translate(539.013672 0.765625)"/>
     <use xlink:href="#Arial-BoldMT-20" transform="translate(572.314453 0.765625)"/>
     <use xlink:href="#DejaVuSans-Oblique-4f" transform="translate(600.097656 0.765625)"/>
     <use xlink:href="#DejaVuSans-28" transform="translate(678.808594 0.765625)"/>
     <use xlink:href="#DejaVuSans-Oblique-6e" transform="translate(717.822266 0.765625)"/>
     <use xlink:href="#DejaVuSans-Oblique-64" transform="translate(781.201172 0.765625)"/>
     <use xlink:href="#DejaVuSans-32" transform="translate(852.125443 39.046875) scale(0.7)"/>
     <use xlink:href="#DejaVuSans-29" transform="translate(899.395951 0.765625)"/>
    </g>
   </g>
   <g id="text_30">
    <!-- Linear Attention: $\phi(Q)(\phi(K)^\top V)$ -->
    <g style="fill: #7fb685" transform="translate(509.020832 16.88) scale(0.11 -0.11)">
     <defs>
      <path id="Arial-BoldMT-4c" d="M 491 0 
L 491 4544 
L 1416 4544 
L 1416 772 
L 3716 772 
L 3716 0 
L 491 0 
z
" transform="scale(0.015625)"/>
     </defs>
     <use xlink:href="#Arial-BoldMT-4c" transform="translate(0 0.707813)"/>
     <use xlink:href="#Arial-BoldMT-69" transform="translate(61.083984 0.707813)"/>
     <use xlink:href="#Arial-BoldMT-6e" transform="translate(88.867188 0.707813)"/>
     <use xlink:href="#Arial-BoldMT-65" transform="translate(149.951172 0.707813)"/>
     <use xlink:href="#Arial-BoldMT-61" transform="translate(205.566406 0.707813)"/>
     <use xlink:href="#Arial-BoldMT-72" transform="translate(261.181641 0.707813)"/>
     <use xlink:href="#Arial-BoldMT-20" transform="translate(300.097656 0.707813)"/>
     <use xlink:href="#Arial-BoldMT-41" transform="translate(327.880859 0.707813)"/>
     <use xlink:href="#Arial-BoldMT-74" transform="translate(400.097656 0.707813)"/>
     <use xlink:href="#Arial-BoldMT-74" transform="translate(433.398438 0.707813)"/>
     <use xlink:href="#Arial-BoldMT-65" transform="translate(466.699219 0.707813)"/>
     <use xlink:href="#Arial-BoldMT-6e" transform="translate(522.314453 0.707813)"/>
     <use xlink:href="#Arial-BoldMT-74" transform="translate(583.398438 0.707813)"/>
     <use xlink:href="#Arial-BoldMT-69" transform="translate(616.699219 0.707813)"/>
     <use xlink:href="#Arial-BoldMT-6f" transform="translate(644.482422 0.707813)"/>
     <use xlink:href="#Arial-BoldMT-6e" transform="translate(705.566406 0.707813)"/>
     <use xlink:href="#Arial-BoldMT-3a" transform="translate(766.650391 0.707813)"/>
     <use xlink:href="#Arial-BoldMT-20" transform="translate(799.951172 0.707813)"/>
     <use xlink:href="#DejaVuSans-Oblique-3d5" transform="translate(827.734375 0.707813)"/>
     <use xlink:href="#DejaVuSans-28" transform="translate(893.701172 0.707813)"/>
     <use xlink:href="#DejaVuSans-Oblique-51" transform="translate(932.714844 0.707813)"/>
     <use xlink:href="#DejaVuSans-29" transform="translate(1011.425781 0.707813)"/>
     <use xlink:href="#DejaVuSans-28" transform="translate(1050.439453 0.707813)"/>
     <use xlink:href="#DejaVuSans-Oblique-3d5" transform="translate(1089.453125 0.707813)"/>
     <use xlink:href="#DejaVuSans-28" transform="translate(1155.419922 0.707813)"/>
     <use xlink:href="#DejaVuSans-Oblique-4b" transform="translate(1194.433594 0.707813)"/>
     <use xlink:href="#DejaVuSans-29" transform="translate(1260.009766 0.707813)"/>
     <use xlink:href="#DejaVuSans-22a4" transform="translate(1313.618164 38.989063) scale(0.7)"/>
     <use xlink:href="#DejaVuSans-Oblique-56" transform="translate(1390.966797 0.707813)"/>
     <use xlink:href="#DejaVuSans-29" transform="translate(1459.375 0.707813)"/>
    </g>
   </g>
  </g>
 </g>
 <defs>
  <clipPath id="p390fbc5f97">
   <rect x="7.2" y="28.88" width="324.5193" height="270.43275"/>
  </clipPath>
  <clipPath id="p5ff3a72d9c">
   <rect x="429.206182" y="28.88" width="324.5193" height="270.43275"/>
  </clipPath>
 </defs>
</svg>
