<?xml version="1.0" encoding="utf-8" standalone="no"?>
<!DOCTYPE svg PUBLIC "-//W3C//DTD SVG 1.1//EN"
  "http://www.w3.org/Graphics/SVG/1.1/DTD/svg11.dtd">
<svg xmlns:xlink="http://www.w3.org/1999/xlink" width="570.039727pt" height="348.180219pt" viewBox="0 0 570.039727 348.180219" xmlns="http://www.w3.org/2000/svg" version="1.1">
 <metadata>
  <rdf:RDF xmlns:dc="http://purl.org/dc/elements/1.1/" xmlns:cc="http://creativecommons.org/ns#" xmlns:rdf="http://www.w3.org/1999/02/22-rdf-syntax-ns#">
   <cc:Work>
    <dc:type rdf:resource="http://purl.org/dc/dcmitype/StillImage"/>
    <dc:date>2026-01-26T08:59:12.827182</dc:date>
    <dc:format>image/svg+xml</dc:format>
    <dc:creator>
     <cc:Agent>
      <dc:title>Matplotlib v3.10.8, https://matplotlib.org/</dc:title>
     </cc:Agent>
    </dc:creator>
   </cc:Work>
  </rdf:RDF>
 </metadata>
 <defs>
  <style type="text/css">*{stroke-linejoin: round; stroke-linecap: butt}</style>
 </defs>
 <g id="figure_1">
  <g id="patch_1">
   <path d="M 0 348.180219 
L 570.039727 348.180219 
L 570.039727 0 
L 0 0 
z
" style="fill: #ffffff"/>
  </g>
  <g id="axes_1">
   <g id="patch_2">
    <path d="M 48.329688 307.230219 
L 562.839727 307.230219 
L 562.839727 31.663594 
L 48.329688 31.663594 
z
" style="fill: #ffffff"/>
   </g>
   <g id="matplotlib.axis_1">
    <g id="xtick_1">
     <g id="line2d_1">
      <path d="M 71.716507 307.230219 
L 71.716507 31.663594 
" clip-path="url(#p86ee6c6f27)" style="fill: none; stroke: #a8b5c4; stroke-opacity: 0.3; stroke-width: 0.8; stroke-linecap: square"/>
     </g>
     <g id="line2d_2">
      <defs>
       <path id="ma2f785ca49" d="M 0 0 
L 0 3.5 
" style="stroke: #4a4a4a; stroke-width: 0.8"/>
      </defs>
      <g>
       <use xlink:href="#ma2f785ca49" x="71.716507" y="307.230219" style="fill: #4a4a4a; stroke: #4a4a4a; stroke-width: 0.8"/>
      </g>
     </g>
     <g id="text_1">
      <!-- $\mathdefault{10^{-1}}$ -->
      <g style="fill: #4a4a4a" transform="translate(61.816507 324.542719) scale(0.1 -0.1)">
       <defs>
        <path id="ArialMT-31" d="M 2384 0 
L 1822 0 
L 1822 3584 
Q 1619 3391 1289 3197 
Q 959 3003 697 2906 
L 697 3450 
Q 1169 3672 1522 3987 
Q 1875 4303 2022 4600 
L 2384 4600 
L 2384 0 
z
" transform="scale(0.015625)"/>
        <path id="ArialMT-30" d="M 266 2259 
Q 266 3072 433 3567 
Q 600 4063 929 4331 
Q 1259 4600 1759 4600 
Q 2128 4600 2406 4451 
Q 2684 4303 2865 4023 
Q 3047 3744 3150 3342 
Q 3253 2941 3253 2259 
Q 3253 1453 3087 958 
Q 2922 463 2592 192 
Q 2263 -78 1759 -78 
Q 1097 -78 719 397 
Q 266 969 266 2259 
z
M 844 2259 
Q 844 1131 1108 757 
Q 1372 384 1759 384 
Q 2147 384 2411 759 
Q 2675 1134 2675 2259 
Q 2675 3391 2411 3762 
Q 2147 4134 1753 4134 
Q 1366 4134 1134 3806 
Q 844 3388 844 2259 
z
" transform="scale(0.015625)"/>
        <path id="ArialMT-2212" d="M 3381 1997 
L 356 1997 
L 356 2522 
L 3381 2522 
L 3381 1997 
z
" transform="scale(0.015625)"/>
       </defs>
       <use xlink:href="#ArialMT-31" transform="translate(0 0.99375)"/>
       <use xlink:href="#ArialMT-30" transform="translate(55.615234 0.99375)"/>
       <use xlink:href="#ArialMT-2212" transform="translate(112.972813 70.6875) scale(0.7)"/>
       <use xlink:href="#ArialMT-31" transform="translate(153.851719 70.6875) scale(0.7)"/>
      </g>
     </g>
    </g>
    <g id="xtick_2">
     <g id="line2d_3">
      <path d="M 227.628641 307.230219 
L 227.628641 31.663594 
" clip-path="url(#p86ee6c6f27)" style="fill: none; stroke: #a8b5c4; stroke-opacity: 0.3; stroke-width: 0.8; stroke-linecap: square"/>
     </g>
     <g id="line2d_4">
      <g>
       <use xlink:href="#ma2f785ca49" x="227.628641" y="307.230219" style="fill: #4a4a4a; stroke: #4a4a4a; stroke-width: 0.8"/>
      </g>
     </g>
     <g id="text_2">
      <!-- $\mathdefault{10^{0}}$ -->
      <g style="fill: #4a4a4a" transform="translate(219.778641 324.542719) scale(0.1 -0.1)">
       <use xlink:href="#ArialMT-31" transform="translate(0 0.99375)"/>
       <use xlink:href="#ArialMT-30" transform="translate(55.615234 0.99375)"/>
       <use xlink:href="#ArialMT-30" transform="translate(112.972813 70.6875) scale(0.7)"/>
      </g>
     </g>
    </g>
    <g id="xtick_3">
     <g id="line2d_5">
      <path d="M 383.540774 307.230219 
L 383.540774 31.663594 
" clip-path="url(#p86ee6c6f27)" style="fill: none; stroke: #a8b5c4; stroke-opacity: 0.3; stroke-width: 0.8; stroke-linecap: square"/>
     </g>
     <g id="line2d_6">
      <g>
       <use xlink:href="#ma2f785ca49" x="383.540774" y="307.230219" style="fill: #4a4a4a; stroke: #4a4a4a; stroke-width: 0.8"/>
      </g>
     </g>
     <g id="text_3">
      <!-- $\mathdefault{10^{1}}$ -->
      <g style="fill: #4a4a4a" transform="translate(375.690774 324.542719) scale(0.1 -0.1)">
       <use xlink:href="#ArialMT-31" transform="translate(0 0.99375)"/>
       <use xlink:href="#ArialMT-30" transform="translate(55.615234 0.99375)"/>
       <use xlink:href="#ArialMT-31" transform="translate(112.972813 70.6875) scale(0.7)"/>
      </g>
     </g>
    </g>
    <g id="xtick_4">
     <g id="line2d_7">
      <path d="M 539.452907 307.230219 
L 539.452907 31.663594 
" clip-path="url(#p86ee6c6f27)" style="fill: none; stroke: #a8b5c4; stroke-opacity: 0.3; stroke-width: 0.8; stroke-linecap: square"/>
     </g>
     <g id="line2d_8">
      <g>
       <use xlink:href="#ma2f785ca49" x="539.452907" y="307.230219" style="fill: #4a4a4a; stroke: #4a4a4a; stroke-width: 0.8"/>
      </g>
     </g>
     <g id="text_4">
      <!-- $\mathdefault{10^{2}}$ -->
      <g style="fill: #4a4a4a" transform="translate(531.602907 324.542719) scale(0.1 -0.1)">
       <defs>
        <path id="ArialMT-32" d="M 3222 541 
L 3222 0 
L 194 0 
Q 188 203 259 391 
Q 375 700 629 1000 
Q 884 1300 1366 1694 
Q 2113 2306 2375 2664 
Q 2638 3022 2638 3341 
Q 2638 3675 2398 3904 
Q 2159 4134 1775 4134 
Q 1369 4134 1125 3890 
Q 881 3647 878 3216 
L 300 3275 
Q 359 3922 746 4261 
Q 1134 4600 1788 4600 
Q 2447 4600 2831 4234 
Q 3216 3869 3216 3328 
Q 3216 3053 3103 2787 
Q 2991 2522 2730 2228 
Q 2469 1934 1863 1422 
Q 1356 997 1212 845 
Q 1069 694 975 541 
L 3222 541 
z
" transform="scale(0.015625)"/>
       </defs>
       <use xlink:href="#ArialMT-31" transform="translate(0 0.99375)"/>
       <use xlink:href="#ArialMT-30" transform="translate(55.615234 0.99375)"/>
       <use xlink:href="#ArialMT-32" transform="translate(112.972813 70.6875) scale(0.7)"/>
      </g>
     </g>
    </g>
    <g id="xtick_5">
     <g id="line2d_9">
      <defs>
       <path id="md9c0168037" d="M 0 0 
L 0 2 
" style="stroke: #4a4a4a; stroke-width: 0.6"/>
      </defs>
      <g>
       <use xlink:href="#md9c0168037" x="56.607061" y="307.230219" style="fill: #4a4a4a; stroke: #4a4a4a; stroke-width: 0.6"/>
      </g>
     </g>
    </g>
    <g id="xtick_6">
     <g id="line2d_10">
      <g>
       <use xlink:href="#md9c0168037" x="64.58236" y="307.230219" style="fill: #4a4a4a; stroke: #4a4a4a; stroke-width: 0.6"/>
      </g>
     </g>
    </g>
    <g id="xtick_7">
     <g id="line2d_11">
      <g>
       <use xlink:href="#md9c0168037" x="118.650736" y="307.230219" style="fill: #4a4a4a; stroke: #4a4a4a; stroke-width: 0.6"/>
      </g>
     </g>
    </g>
    <g id="xtick_8">
     <g id="line2d_12">
      <g>
       <use xlink:href="#md9c0168037" x="146.1055" y="307.230219" style="fill: #4a4a4a; stroke: #4a4a4a; stroke-width: 0.6"/>
      </g>
     </g>
    </g>
    <g id="xtick_9">
     <g id="line2d_13">
      <g>
       <use xlink:href="#md9c0168037" x="165.584965" y="307.230219" style="fill: #4a4a4a; stroke: #4a4a4a; stroke-width: 0.6"/>
      </g>
     </g>
    </g>
    <g id="xtick_10">
     <g id="line2d_14">
      <g>
       <use xlink:href="#md9c0168037" x="180.694412" y="307.230219" style="fill: #4a4a4a; stroke: #4a4a4a; stroke-width: 0.6"/>
      </g>
     </g>
    </g>
    <g id="xtick_11">
     <g id="line2d_15">
      <g>
       <use xlink:href="#md9c0168037" x="193.039729" y="307.230219" style="fill: #4a4a4a; stroke: #4a4a4a; stroke-width: 0.6"/>
      </g>
     </g>
    </g>
    <g id="xtick_12">
     <g id="line2d_16">
      <g>
       <use xlink:href="#md9c0168037" x="203.477546" y="307.230219" style="fill: #4a4a4a; stroke: #4a4a4a; stroke-width: 0.6"/>
      </g>
     </g>
    </g>
    <g id="xtick_13">
     <g id="line2d_17">
      <g>
       <use xlink:href="#md9c0168037" x="212.519194" y="307.230219" style="fill: #4a4a4a; stroke: #4a4a4a; stroke-width: 0.6"/>
      </g>
     </g>
    </g>
    <g id="xtick_14">
     <g id="line2d_18">
      <g>
       <use xlink:href="#md9c0168037" x="220.494493" y="307.230219" style="fill: #4a4a4a; stroke: #4a4a4a; stroke-width: 0.6"/>
      </g>
     </g>
    </g>
    <g id="xtick_15">
     <g id="line2d_19">
      <g>
       <use xlink:href="#md9c0168037" x="274.562869" y="307.230219" style="fill: #4a4a4a; stroke: #4a4a4a; stroke-width: 0.6"/>
      </g>
     </g>
    </g>
    <g id="xtick_16">
     <g id="line2d_20">
      <g>
       <use xlink:href="#md9c0168037" x="302.017633" y="307.230219" style="fill: #4a4a4a; stroke: #4a4a4a; stroke-width: 0.6"/>
      </g>
     </g>
    </g>
    <g id="xtick_17">
     <g id="line2d_21">
      <g>
       <use xlink:href="#md9c0168037" x="321.497098" y="307.230219" style="fill: #4a4a4a; stroke: #4a4a4a; stroke-width: 0.6"/>
      </g>
     </g>
    </g>
    <g id="xtick_18">
     <g id="line2d_22">
      <g>
       <use xlink:href="#md9c0168037" x="336.606545" y="307.230219" style="fill: #4a4a4a; stroke: #4a4a4a; stroke-width: 0.6"/>
      </g>
     </g>
    </g>
    <g id="xtick_19">
     <g id="line2d_23">
      <g>
       <use xlink:href="#md9c0168037" x="348.951862" y="307.230219" style="fill: #4a4a4a; stroke: #4a4a4a; stroke-width: 0.6"/>
      </g>
     </g>
    </g>
    <g id="xtick_20">
     <g id="line2d_24">
      <g>
       <use xlink:href="#md9c0168037" x="359.389679" y="307.230219" style="fill: #4a4a4a; stroke: #4a4a4a; stroke-width: 0.6"/>
      </g>
     </g>
    </g>
    <g id="xtick_21">
     <g id="line2d_25">
      <g>
       <use xlink:href="#md9c0168037" x="368.431327" y="307.230219" style="fill: #4a4a4a; stroke: #4a4a4a; stroke-width: 0.6"/>
      </g>
     </g>
    </g>
    <g id="xtick_22">
     <g id="line2d_26">
      <g>
       <use xlink:href="#md9c0168037" x="376.406626" y="307.230219" style="fill: #4a4a4a; stroke: #4a4a4a; stroke-width: 0.6"/>
      </g>
     </g>
    </g>
    <g id="xtick_23">
     <g id="line2d_27">
      <g>
       <use xlink:href="#md9c0168037" x="430.475002" y="307.230219" style="fill: #4a4a4a; stroke: #4a4a4a; stroke-width: 0.6"/>
      </g>
     </g>
    </g>
    <g id="xtick_24">
     <g id="line2d_28">
      <g>
       <use xlink:href="#md9c0168037" x="457.929766" y="307.230219" style="fill: #4a4a4a; stroke: #4a4a4a; stroke-width: 0.6"/>
      </g>
     </g>
    </g>
    <g id="xtick_25">
     <g id="line2d_29">
      <g>
       <use xlink:href="#md9c0168037" x="477.409231" y="307.230219" style="fill: #4a4a4a; stroke: #4a4a4a; stroke-width: 0.6"/>
      </g>
     </g>
    </g>
    <g id="xtick_26">
     <g id="line2d_30">
      <g>
       <use xlink:href="#md9c0168037" x="492.518678" y="307.230219" style="fill: #4a4a4a; stroke: #4a4a4a; stroke-width: 0.6"/>
      </g>
     </g>
    </g>
    <g id="xtick_27">
     <g id="line2d_31">
      <g>
       <use xlink:href="#md9c0168037" x="504.863995" y="307.230219" style="fill: #4a4a4a; stroke: #4a4a4a; stroke-width: 0.6"/>
      </g>
     </g>
    </g>
    <g id="xtick_28">
     <g id="line2d_32">
      <g>
       <use xlink:href="#md9c0168037" x="515.301812" y="307.230219" style="fill: #4a4a4a; stroke: #4a4a4a; stroke-width: 0.6"/>
      </g>
     </g>
    </g>
    <g id="xtick_29">
     <g id="line2d_33">
      <g>
       <use xlink:href="#md9c0168037" x="524.34346" y="307.230219" style="fill: #4a4a4a; stroke: #4a4a4a; stroke-width: 0.6"/>
      </g>
     </g>
    </g>
    <g id="xtick_30">
     <g id="line2d_34">
      <g>
       <use xlink:href="#md9c0168037" x="532.318759" y="307.230219" style="fill: #4a4a4a; stroke: #4a4a4a; stroke-width: 0.6"/>
      </g>
     </g>
    </g>
    <g id="text_5">
     <!-- Sequence length $n$ (thousands) -->
     <g style="fill: #4a4a4a" transform="translate(228.694707 338.560219) scale(0.11 -0.11)">
      <defs>
       <path id="ArialMT-53" d="M 288 1472 
L 859 1522 
Q 900 1178 1048 958 
Q 1197 738 1509 602 
Q 1822 466 2213 466 
Q 2559 466 2825 569 
Q 3091 672 3220 851 
Q 3350 1031 3350 1244 
Q 3350 1459 3225 1620 
Q 3100 1781 2813 1891 
Q 2628 1963 1997 2114 
Q 1366 2266 1113 2400 
Q 784 2572 623 2826 
Q 463 3081 463 3397 
Q 463 3744 659 4045 
Q 856 4347 1234 4503 
Q 1613 4659 2075 4659 
Q 2584 4659 2973 4495 
Q 3363 4331 3572 4012 
Q 3781 3694 3797 3291 
L 3216 3247 
Q 3169 3681 2898 3903 
Q 2628 4125 2100 4125 
Q 1550 4125 1298 3923 
Q 1047 3722 1047 3438 
Q 1047 3191 1225 3031 
Q 1400 2872 2139 2705 
Q 2878 2538 3153 2413 
Q 3553 2228 3743 1945 
Q 3934 1663 3934 1294 
Q 3934 928 3725 604 
Q 3516 281 3123 101 
Q 2731 -78 2241 -78 
Q 1619 -78 1198 103 
Q 778 284 539 648 
Q 300 1013 288 1472 
z
" transform="scale(0.015625)"/>
       <path id="ArialMT-65" d="M 2694 1069 
L 3275 997 
Q 3138 488 2766 206 
Q 2394 -75 1816 -75 
Q 1088 -75 661 373 
Q 234 822 234 1631 
Q 234 2469 665 2931 
Q 1097 3394 1784 3394 
Q 2450 3394 2872 2941 
Q 3294 2488 3294 1666 
Q 3294 1616 3291 1516 
L 816 1516 
Q 847 969 1125 678 
Q 1403 388 1819 388 
Q 2128 388 2347 550 
Q 2566 713 2694 1069 
z
M 847 1978 
L 2700 1978 
Q 2663 2397 2488 2606 
Q 2219 2931 1791 2931 
Q 1403 2931 1139 2672 
Q 875 2413 847 1978 
z
" transform="scale(0.015625)"/>
       <path id="ArialMT-71" d="M 2538 -1272 
L 2538 353 
Q 2406 169 2170 47 
Q 1934 -75 1669 -75 
Q 1078 -75 651 397 
Q 225 869 225 1691 
Q 225 2191 398 2587 
Q 572 2984 901 3189 
Q 1231 3394 1625 3394 
Q 2241 3394 2594 2875 
L 2594 3319 
L 3100 3319 
L 3100 -1272 
L 2538 -1272 
z
M 803 1669 
Q 803 1028 1072 708 
Q 1341 388 1716 388 
Q 2075 388 2334 692 
Q 2594 997 2594 1619 
Q 2594 2281 2320 2615 
Q 2047 2950 1678 2950 
Q 1313 2950 1058 2639 
Q 803 2328 803 1669 
z
" transform="scale(0.015625)"/>
       <path id="ArialMT-75" d="M 2597 0 
L 2597 488 
Q 2209 -75 1544 -75 
Q 1250 -75 995 37 
Q 741 150 617 320 
Q 494 491 444 738 
Q 409 903 409 1263 
L 409 3319 
L 972 3319 
L 972 1478 
Q 972 1038 1006 884 
Q 1059 663 1231 536 
Q 1403 409 1656 409 
Q 1909 409 2131 539 
Q 2353 669 2445 892 
Q 2538 1116 2538 1541 
L 2538 3319 
L 3100 3319 
L 3100 0 
L 2597 0 
z
" transform="scale(0.015625)"/>
       <path id="ArialMT-6e" d="M 422 0 
L 422 3319 
L 928 3319 
L 928 2847 
Q 1294 3394 1984 3394 
Q 2284 3394 2536 3286 
Q 2788 3178 2913 3003 
Q 3038 2828 3088 2588 
Q 3119 2431 3119 2041 
L 3119 0 
L 2556 0 
L 2556 2019 
Q 2556 2363 2490 2533 
Q 2425 2703 2258 2804 
Q 2091 2906 1866 2906 
Q 1506 2906 1245 2678 
Q 984 2450 984 1813 
L 984 0 
L 422 0 
z
" transform="scale(0.015625)"/>
       <path id="ArialMT-63" d="M 2588 1216 
L 3141 1144 
Q 3050 572 2676 248 
Q 2303 -75 1759 -75 
Q 1078 -75 664 370 
Q 250 816 250 1647 
Q 250 2184 428 2587 
Q 606 2991 970 3192 
Q 1334 3394 1763 3394 
Q 2303 3394 2647 3120 
Q 2991 2847 3088 2344 
L 2541 2259 
Q 2463 2594 2264 2762 
Q 2066 2931 1784 2931 
Q 1359 2931 1093 2626 
Q 828 2322 828 1663 
Q 828 994 1084 691 
Q 1341 388 1753 388 
Q 2084 388 2306 591 
Q 2528 794 2588 1216 
z
" transform="scale(0.015625)"/>
       <path id="ArialMT-20" transform="scale(0.015625)"/>
       <path id="ArialMT-6c" d="M 409 0 
L 409 4581 
L 972 4581 
L 972 0 
L 409 0 
z
" transform="scale(0.015625)"/>
       <path id="ArialMT-67" d="M 319 -275 
L 866 -356 
Q 900 -609 1056 -725 
Q 1266 -881 1628 -881 
Q 2019 -881 2231 -725 
Q 2444 -569 2519 -288 
Q 2563 -116 2559 434 
Q 2191 0 1641 0 
Q 956 0 581 494 
Q 206 988 206 1678 
Q 206 2153 378 2554 
Q 550 2956 876 3175 
Q 1203 3394 1644 3394 
Q 2231 3394 2613 2919 
L 2613 3319 
L 3131 3319 
L 3131 450 
Q 3131 -325 2973 -648 
Q 2816 -972 2473 -1159 
Q 2131 -1347 1631 -1347 
Q 1038 -1347 672 -1080 
Q 306 -813 319 -275 
z
M 784 1719 
Q 784 1066 1043 766 
Q 1303 466 1694 466 
Q 2081 466 2343 764 
Q 2606 1063 2606 1700 
Q 2606 2309 2336 2618 
Q 2066 2928 1684 2928 
Q 1309 2928 1046 2623 
Q 784 2319 784 1719 
z
" transform="scale(0.015625)"/>
       <path id="ArialMT-74" d="M 1650 503 
L 1731 6 
Q 1494 -44 1306 -44 
Q 1000 -44 831 53 
Q 663 150 594 308 
Q 525 466 525 972 
L 525 2881 
L 113 2881 
L 113 3319 
L 525 3319 
L 525 4141 
L 1084 4478 
L 1084 3319 
L 1650 3319 
L 1650 2881 
L 1084 2881 
L 1084 941 
Q 1084 700 1114 631 
Q 1144 563 1211 522 
Q 1278 481 1403 481 
Q 1497 481 1650 503 
z
" transform="scale(0.015625)"/>
       <path id="ArialMT-68" d="M 422 0 
L 422 4581 
L 984 4581 
L 984 2938 
Q 1378 3394 1978 3394 
Q 2347 3394 2619 3248 
Q 2891 3103 3008 2847 
Q 3125 2591 3125 2103 
L 3125 0 
L 2563 0 
L 2563 2103 
Q 2563 2525 2380 2717 
Q 2197 2909 1863 2909 
Q 1613 2909 1392 2779 
Q 1172 2650 1078 2428 
Q 984 2206 984 1816 
L 984 0 
L 422 0 
z
" transform="scale(0.015625)"/>
       <path id="DejaVuSans-Oblique-6e" d="M 3566 2113 
L 3156 0 
L 2578 0 
L 2988 2091 
Q 3016 2238 3031 2350 
Q 3047 2463 3047 2528 
Q 3047 2791 2881 2937 
Q 2716 3084 2419 3084 
Q 1956 3084 1622 2776 
Q 1288 2469 1184 1941 
L 800 0 
L 225 0 
L 903 3500 
L 1478 3500 
L 1363 2950 
Q 1603 3253 1940 3418 
Q 2278 3584 2650 3584 
Q 3113 3584 3367 3334 
Q 3622 3084 3622 2631 
Q 3622 2519 3608 2391 
Q 3594 2263 3566 2113 
z
" transform="scale(0.015625)"/>
       <path id="ArialMT-28" d="M 1497 -1347 
Q 1031 -759 709 28 
Q 388 816 388 1659 
Q 388 2403 628 3084 
Q 909 3875 1497 4659 
L 1900 4659 
Q 1522 4009 1400 3731 
Q 1209 3300 1100 2831 
Q 966 2247 966 1656 
Q 966 153 1900 -1347 
L 1497 -1347 
z
" transform="scale(0.015625)"/>
       <path id="ArialMT-6f" d="M 213 1659 
Q 213 2581 725 3025 
Q 1153 3394 1769 3394 
Q 2453 3394 2887 2945 
Q 3322 2497 3322 1706 
Q 3322 1066 3130 698 
Q 2938 331 2570 128 
Q 2203 -75 1769 -75 
Q 1072 -75 642 372 
Q 213 819 213 1659 
z
M 791 1659 
Q 791 1022 1069 705 
Q 1347 388 1769 388 
Q 2188 388 2466 706 
Q 2744 1025 2744 1678 
Q 2744 2294 2464 2611 
Q 2184 2928 1769 2928 
Q 1347 2928 1069 2612 
Q 791 2297 791 1659 
z
" transform="scale(0.015625)"/>
       <path id="ArialMT-73" d="M 197 991 
L 753 1078 
Q 800 744 1014 566 
Q 1228 388 1613 388 
Q 2000 388 2187 545 
Q 2375 703 2375 916 
Q 2375 1106 2209 1216 
Q 2094 1291 1634 1406 
Q 1016 1563 777 1677 
Q 538 1791 414 1992 
Q 291 2194 291 2438 
Q 291 2659 392 2848 
Q 494 3038 669 3163 
Q 800 3259 1026 3326 
Q 1253 3394 1513 3394 
Q 1903 3394 2198 3281 
Q 2494 3169 2634 2976 
Q 2775 2784 2828 2463 
L 2278 2388 
Q 2241 2644 2061 2787 
Q 1881 2931 1553 2931 
Q 1166 2931 1000 2803 
Q 834 2675 834 2503 
Q 834 2394 903 2306 
Q 972 2216 1119 2156 
Q 1203 2125 1616 2013 
Q 2213 1853 2448 1751 
Q 2684 1650 2818 1456 
Q 2953 1263 2953 975 
Q 2953 694 2789 445 
Q 2625 197 2315 61 
Q 2006 -75 1616 -75 
Q 969 -75 630 194 
Q 291 463 197 991 
z
" transform="scale(0.015625)"/>
       <path id="ArialMT-61" d="M 2588 409 
Q 2275 144 1986 34 
Q 1697 -75 1366 -75 
Q 819 -75 525 192 
Q 231 459 231 875 
Q 231 1119 342 1320 
Q 453 1522 633 1644 
Q 813 1766 1038 1828 
Q 1203 1872 1538 1913 
Q 2219 1994 2541 2106 
Q 2544 2222 2544 2253 
Q 2544 2597 2384 2738 
Q 2169 2928 1744 2928 
Q 1347 2928 1158 2789 
Q 969 2650 878 2297 
L 328 2372 
Q 403 2725 575 2942 
Q 747 3159 1072 3276 
Q 1397 3394 1825 3394 
Q 2250 3394 2515 3294 
Q 2781 3194 2906 3042 
Q 3031 2891 3081 2659 
Q 3109 2516 3109 2141 
L 3109 1391 
Q 3109 606 3145 398 
Q 3181 191 3288 0 
L 2700 0 
Q 2613 175 2588 409 
z
M 2541 1666 
Q 2234 1541 1622 1453 
Q 1275 1403 1131 1340 
Q 988 1278 909 1158 
Q 831 1038 831 891 
Q 831 666 1001 516 
Q 1172 366 1500 366 
Q 1825 366 2078 508 
Q 2331 650 2450 897 
Q 2541 1088 2541 1459 
L 2541 1666 
z
" transform="scale(0.015625)"/>
       <path id="ArialMT-64" d="M 2575 0 
L 2575 419 
Q 2259 -75 1647 -75 
Q 1250 -75 917 144 
Q 584 363 401 755 
Q 219 1147 219 1656 
Q 219 2153 384 2558 
Q 550 2963 881 3178 
Q 1213 3394 1622 3394 
Q 1922 3394 2156 3267 
Q 2391 3141 2538 2938 
L 2538 4581 
L 3097 4581 
L 3097 0 
L 2575 0 
z
M 797 1656 
Q 797 1019 1065 703 
Q 1334 388 1700 388 
Q 2069 388 2326 689 
Q 2584 991 2584 1609 
Q 2584 2291 2321 2609 
Q 2059 2928 1675 2928 
Q 1300 2928 1048 2622 
Q 797 2316 797 1656 
z
" transform="scale(0.015625)"/>
       <path id="ArialMT-29" d="M 791 -1347 
L 388 -1347 
Q 1322 153 1322 1656 
Q 1322 2244 1188 2822 
Q 1081 3291 891 3722 
Q 769 4003 388 4659 
L 791 4659 
Q 1378 3875 1659 3084 
Q 1900 2403 1900 1659 
Q 1900 816 1576 28 
Q 1253 -759 791 -1347 
z
" transform="scale(0.015625)"/>
      </defs>
      <use xlink:href="#ArialMT-53" transform="translate(0 0.203125)"/>
      <use xlink:href="#ArialMT-65" transform="translate(66.699219 0.203125)"/>
      <use xlink:href="#ArialMT-71" transform="translate(122.314453 0.203125)"/>
      <use xlink:href="#ArialMT-75" transform="translate(177.929688 0.203125)"/>
      <use xlink:href="#ArialMT-65" transform="translate(233.544922 0.203125)"/>
      <use xlink:href="#ArialMT-6e" transform="translate(289.160156 0.203125)"/>
      <use xlink:href="#ArialMT-63" transform="translate(344.775391 0.203125)"/>
      <use xlink:href="#ArialMT-65" transform="translate(394.775391 0.203125)"/>
      <use xlink:href="#ArialMT-20" transform="translate(450.390625 0.203125)"/>
      <use xlink:href="#ArialMT-6c" transform="translate(478.173828 0.203125)"/>
      <use xlink:href="#ArialMT-65" transform="translate(500.390625 0.203125)"/>
      <use xlink:href="#ArialMT-6e" transform="translate(556.005859 0.203125)"/>
      <use xlink:href="#ArialMT-67" transform="translate(611.621094 0.203125)"/>
      <use xlink:href="#ArialMT-74" transform="translate(667.236328 0.203125)"/>
      <use xlink:href="#ArialMT-68" transform="translate(695.019531 0.203125)"/>
      <use xlink:href="#ArialMT-20" transform="translate(750.634766 0.203125)"/>
      <use xlink:href="#DejaVuSans-Oblique-6e" transform="translate(778.417969 0.203125)"/>
      <use xlink:href="#ArialMT-20" transform="translate(841.796875 0.203125)"/>
      <use xlink:href="#ArialMT-28" transform="translate(869.580078 0.203125)"/>
      <use xlink:href="#ArialMT-74" transform="translate(902.880859 0.203125)"/>
      <use xlink:href="#ArialMT-68" transform="translate(930.664062 0.203125)"/>
      <use xlink:href="#ArialMT-6f" transform="translate(986.279297 0.203125)"/>
      <use xlink:href="#ArialMT-75" transform="translate(1041.894531 0.203125)"/>
      <use xlink:href="#ArialMT-73" transform="translate(1097.509766 0.203125)"/>
      <use xlink:href="#ArialMT-61" transform="translate(1147.509766 0.203125)"/>
      <use xlink:href="#ArialMT-6e" transform="translate(1203.125 0.203125)"/>
      <use xlink:href="#ArialMT-64" transform="translate(1258.740234 0.203125)"/>
      <use xlink:href="#ArialMT-73" transform="translate(1314.355469 0.203125)"/>
      <use xlink:href="#ArialMT-29" transform="translate(1364.355469 0.203125)"/>
     </g>
    </g>
   </g>
   <g id="matplotlib.axis_2">
    <g id="ytick_1">
     <g id="line2d_35">
      <path d="M 48.329688 279.025982 
L 562.839727 279.025982 
" clip-path="url(#p86ee6c6f27)" style="fill: none; stroke: #a8b5c4; stroke-opacity: 0.3; stroke-width: 0.8; stroke-linecap: square"/>
     </g>
     <g id="line2d_36">
      <defs>
       <path id="mef12b1f2eb" d="M 0 0 
L -3.5 0 
" style="stroke: #4a4a4a; stroke-width: 0.8"/>
      </defs>
      <g>
       <use xlink:href="#mef12b1f2eb" x="48.329688" y="279.025982" style="fill: #4a4a4a; stroke: #4a4a4a; stroke-width: 0.8"/>
      </g>
     </g>
     <g id="text_6">
      <!-- $\mathdefault{10^{-3}}$ -->
      <g style="fill: #4a4a4a" transform="translate(21.529688 284.182232) scale(0.1 -0.1)">
       <defs>
        <path id="ArialMT-33" d="M 269 1209 
L 831 1284 
Q 928 806 1161 595 
Q 1394 384 1728 384 
Q 2125 384 2398 659 
Q 2672 934 2672 1341 
Q 2672 1728 2419 1979 
Q 2166 2231 1775 2231 
Q 1616 2231 1378 2169 
L 1441 2663 
Q 1497 2656 1531 2656 
Q 1891 2656 2178 2843 
Q 2466 3031 2466 3422 
Q 2466 3731 2256 3934 
Q 2047 4138 1716 4138 
Q 1388 4138 1169 3931 
Q 950 3725 888 3313 
L 325 3413 
Q 428 3978 793 4289 
Q 1159 4600 1703 4600 
Q 2078 4600 2393 4439 
Q 2709 4278 2876 4000 
Q 3044 3722 3044 3409 
Q 3044 3113 2884 2869 
Q 2725 2625 2413 2481 
Q 2819 2388 3044 2092 
Q 3269 1797 3269 1353 
Q 3269 753 2831 336 
Q 2394 -81 1725 -81 
Q 1122 -81 723 278 
Q 325 638 269 1209 
z
" transform="scale(0.015625)"/>
       </defs>
       <use xlink:href="#ArialMT-31" transform="translate(0 0.99375)"/>
       <use xlink:href="#ArialMT-30" transform="translate(55.615234 0.99375)"/>
       <use xlink:href="#ArialMT-2212" transform="translate(112.972813 70.6875) scale(0.7)"/>
       <use xlink:href="#ArialMT-33" transform="translate(153.851719 70.6875) scale(0.7)"/>
      </g>
     </g>
    </g>
    <g id="ytick_2">
     <g id="line2d_37">
      <path d="M 48.329688 238.580003 
L 562.839727 238.580003 
" clip-path="url(#p86ee6c6f27)" style="fill: none; stroke: #a8b5c4; stroke-opacity: 0.3; stroke-width: 0.8; stroke-linecap: square"/>
     </g>
     <g id="line2d_38">
      <g>
       <use xlink:href="#mef12b1f2eb" x="48.329688" y="238.580003" style="fill: #4a4a4a; stroke: #4a4a4a; stroke-width: 0.8"/>
      </g>
     </g>
     <g id="text_7">
      <!-- $\mathdefault{10^{-2}}$ -->
      <g style="fill: #4a4a4a" transform="translate(21.529688 243.736253) scale(0.1 -0.1)">
       <use xlink:href="#ArialMT-31" transform="translate(0 0.99375)"/>
       <use xlink:href="#ArialMT-30" transform="translate(55.615234 0.99375)"/>
       <use xlink:href="#ArialMT-2212" transform="translate(112.972813 70.6875) scale(0.7)"/>
       <use xlink:href="#ArialMT-32" transform="translate(153.851719 70.6875) scale(0.7)"/>
      </g>
     </g>
    </g>
    <g id="ytick_3">
     <g id="line2d_39">
      <path d="M 48.329688 198.134024 
L 562.839727 198.134024 
" clip-path="url(#p86ee6c6f27)" style="fill: none; stroke: #a8b5c4; stroke-opacity: 0.3; stroke-width: 0.8; stroke-linecap: square"/>
     </g>
     <g id="line2d_40">
      <g>
       <use xlink:href="#mef12b1f2eb" x="48.329688" y="198.134024" style="fill: #4a4a4a; stroke: #4a4a4a; stroke-width: 0.8"/>
      </g>
     </g>
     <g id="text_8">
      <!-- $\mathdefault{10^{-1}}$ -->
      <g style="fill: #4a4a4a" transform="translate(21.529688 203.290274) scale(0.1 -0.1)">
       <use xlink:href="#ArialMT-31" transform="translate(0 0.99375)"/>
       <use xlink:href="#ArialMT-30" transform="translate(55.615234 0.99375)"/>
       <use xlink:href="#ArialMT-2212" transform="translate(112.972813 70.6875) scale(0.7)"/>
       <use xlink:href="#ArialMT-31" transform="translate(153.851719 70.6875) scale(0.7)"/>
      </g>
     </g>
    </g>
    <g id="ytick_4">
     <g id="line2d_41">
      <path d="M 48.329688 157.688045 
L 562.839727 157.688045 
" clip-path="url(#p86ee6c6f27)" style="fill: none; stroke: #a8b5c4; stroke-opacity: 0.3; stroke-width: 0.8; stroke-linecap: square"/>
     </g>
     <g id="line2d_42">
      <g>
       <use xlink:href="#mef12b1f2eb" x="48.329688" y="157.688045" style="fill: #4a4a4a; stroke: #4a4a4a; stroke-width: 0.8"/>
      </g>
     </g>
     <g id="text_9">
      <!-- $\mathdefault{10^{0}}$ -->
      <g style="fill: #4a4a4a" transform="translate(25.629688 162.844295) scale(0.1 -0.1)">
       <use xlink:href="#ArialMT-31" transform="translate(0 0.99375)"/>
       <use xlink:href="#ArialMT-30" transform="translate(55.615234 0.99375)"/>
       <use xlink:href="#ArialMT-30" transform="translate(112.972813 70.6875) scale(0.7)"/>
      </g>
     </g>
    </g>
    <g id="ytick_5">
     <g id="line2d_43">
      <path d="M 48.329688 117.242066 
L 562.839727 117.242066 
" clip-path="url(#p86ee6c6f27)" style="fill: none; stroke: #a8b5c4; stroke-opacity: 0.3; stroke-width: 0.8; stroke-linecap: square"/>
     </g>
     <g id="line2d_44">
      <g>
       <use xlink:href="#mef12b1f2eb" x="48.329688" y="117.242066" style="fill: #4a4a4a; stroke: #4a4a4a; stroke-width: 0.8"/>
      </g>
     </g>
     <g id="text_10">
      <!-- $\mathdefault{10^{1}}$ -->
      <g style="fill: #4a4a4a" transform="translate(25.629688 122.398316) scale(0.1 -0.1)">
       <use xlink:href="#ArialMT-31" transform="translate(0 0.99375)"/>
       <use xlink:href="#ArialMT-30" transform="translate(55.615234 0.99375)"/>
       <use xlink:href="#ArialMT-31" transform="translate(112.972813 70.6875) scale(0.7)"/>
      </g>
     </g>
    </g>
    <g id="ytick_6">
     <g id="line2d_45">
      <path d="M 48.329688 76.796088 
L 562.839727 76.796088 
" clip-path="url(#p86ee6c6f27)" style="fill: none; stroke: #a8b5c4; stroke-opacity: 0.3; stroke-width: 0.8; stroke-linecap: square"/>
     </g>
     <g id="line2d_46">
      <g>
       <use xlink:href="#mef12b1f2eb" x="48.329688" y="76.796088" style="fill: #4a4a4a; stroke: #4a4a4a; stroke-width: 0.8"/>
      </g>
     </g>
     <g id="text_11">
      <!-- $\mathdefault{10^{2}}$ -->
      <g style="fill: #4a4a4a" transform="translate(25.629688 81.952338) scale(0.1 -0.1)">
       <use xlink:href="#ArialMT-31" transform="translate(0 0.99375)"/>
       <use xlink:href="#ArialMT-30" transform="translate(55.615234 0.99375)"/>
       <use xlink:href="#ArialMT-32" transform="translate(112.972813 70.6875) scale(0.7)"/>
      </g>
     </g>
    </g>
    <g id="ytick_7">
     <g id="line2d_47">
      <path d="M 48.329688 36.350109 
L 562.839727 36.350109 
" clip-path="url(#p86ee6c6f27)" style="fill: none; stroke: #a8b5c4; stroke-opacity: 0.3; stroke-width: 0.8; stroke-linecap: square"/>
     </g>
     <g id="line2d_48">
      <g>
       <use xlink:href="#mef12b1f2eb" x="48.329688" y="36.350109" style="fill: #4a4a4a; stroke: #4a4a4a; stroke-width: 0.8"/>
      </g>
     </g>
     <g id="text_12">
      <!-- $\mathdefault{10^{3}}$ -->
      <g style="fill: #4a4a4a" transform="translate(25.629688 41.506359) scale(0.1 -0.1)">
       <use xlink:href="#ArialMT-31" transform="translate(0 0.99375)"/>
       <use xlink:href="#ArialMT-30" transform="translate(55.615234 0.99375)"/>
       <use xlink:href="#ArialMT-33" transform="translate(112.972813 70.6875) scale(0.7)"/>
      </g>
     </g>
    </g>
    <g id="ytick_8">
     <g id="line2d_49">
      <defs>
       <path id="mf3a56b8de9" d="M 0 0 
L -2 0 
" style="stroke: #4a4a4a; stroke-width: 0.6"/>
      </defs>
      <g>
       <use xlink:href="#mf3a56b8de9" x="48.329688" y="300.174324" style="fill: #4a4a4a; stroke: #4a4a4a; stroke-width: 0.6"/>
      </g>
     </g>
    </g>
    <g id="ytick_9">
     <g id="line2d_50">
      <g>
       <use xlink:href="#mf3a56b8de9" x="48.329688" y="295.121055" style="fill: #4a4a4a; stroke: #4a4a4a; stroke-width: 0.6"/>
      </g>
     </g>
    </g>
    <g id="ytick_10">
     <g id="line2d_51">
      <g>
       <use xlink:href="#mf3a56b8de9" x="48.329688" y="291.201435" style="fill: #4a4a4a; stroke: #4a4a4a; stroke-width: 0.6"/>
      </g>
     </g>
    </g>
    <g id="ytick_11">
     <g id="line2d_52">
      <g>
       <use xlink:href="#mf3a56b8de9" x="48.329688" y="287.998872" style="fill: #4a4a4a; stroke: #4a4a4a; stroke-width: 0.6"/>
      </g>
     </g>
    </g>
    <g id="ytick_12">
     <g id="line2d_53">
      <g>
       <use xlink:href="#mf3a56b8de9" x="48.329688" y="285.291143" style="fill: #4a4a4a; stroke: #4a4a4a; stroke-width: 0.6"/>
      </g>
     </g>
    </g>
    <g id="ytick_13">
     <g id="line2d_54">
      <g>
       <use xlink:href="#mf3a56b8de9" x="48.329688" y="282.945602" style="fill: #4a4a4a; stroke: #4a4a4a; stroke-width: 0.6"/>
      </g>
     </g>
    </g>
    <g id="ytick_14">
     <g id="line2d_55">
      <g>
       <use xlink:href="#mf3a56b8de9" x="48.329688" y="280.876688" style="fill: #4a4a4a; stroke: #4a4a4a; stroke-width: 0.6"/>
      </g>
     </g>
    </g>
    <g id="ytick_15">
     <g id="line2d_56">
      <g>
       <use xlink:href="#mf3a56b8de9" x="48.329688" y="266.850529" style="fill: #4a4a4a; stroke: #4a4a4a; stroke-width: 0.6"/>
      </g>
     </g>
    </g>
    <g id="ytick_16">
     <g id="line2d_57">
      <g>
       <use xlink:href="#mf3a56b8de9" x="48.329688" y="259.728346" style="fill: #4a4a4a; stroke: #4a4a4a; stroke-width: 0.6"/>
      </g>
     </g>
    </g>
    <g id="ytick_17">
     <g id="line2d_58">
      <g>
       <use xlink:href="#mf3a56b8de9" x="48.329688" y="254.675076" style="fill: #4a4a4a; stroke: #4a4a4a; stroke-width: 0.6"/>
      </g>
     </g>
    </g>
    <g id="ytick_18">
     <g id="line2d_59">
      <g>
       <use xlink:href="#mf3a56b8de9" x="48.329688" y="250.755456" style="fill: #4a4a4a; stroke: #4a4a4a; stroke-width: 0.6"/>
      </g>
     </g>
    </g>
    <g id="ytick_19">
     <g id="line2d_60">
      <g>
       <use xlink:href="#mf3a56b8de9" x="48.329688" y="247.552893" style="fill: #4a4a4a; stroke: #4a4a4a; stroke-width: 0.6"/>
      </g>
     </g>
    </g>
    <g id="ytick_20">
     <g id="line2d_61">
      <g>
       <use xlink:href="#mf3a56b8de9" x="48.329688" y="244.845164" style="fill: #4a4a4a; stroke: #4a4a4a; stroke-width: 0.6"/>
      </g>
     </g>
    </g>
    <g id="ytick_21">
     <g id="line2d_62">
      <g>
       <use xlink:href="#mf3a56b8de9" x="48.329688" y="242.499623" style="fill: #4a4a4a; stroke: #4a4a4a; stroke-width: 0.6"/>
      </g>
     </g>
    </g>
    <g id="ytick_22">
     <g id="line2d_63">
      <g>
       <use xlink:href="#mf3a56b8de9" x="48.329688" y="240.430709" style="fill: #4a4a4a; stroke: #4a4a4a; stroke-width: 0.6"/>
      </g>
     </g>
    </g>
    <g id="ytick_23">
     <g id="line2d_64">
      <g>
       <use xlink:href="#mf3a56b8de9" x="48.329688" y="226.40455" style="fill: #4a4a4a; stroke: #4a4a4a; stroke-width: 0.6"/>
      </g>
     </g>
    </g>
    <g id="ytick_24">
     <g id="line2d_65">
      <g>
       <use xlink:href="#mf3a56b8de9" x="48.329688" y="219.282367" style="fill: #4a4a4a; stroke: #4a4a4a; stroke-width: 0.6"/>
      </g>
     </g>
    </g>
    <g id="ytick_25">
     <g id="line2d_66">
      <g>
       <use xlink:href="#mf3a56b8de9" x="48.329688" y="214.229097" style="fill: #4a4a4a; stroke: #4a4a4a; stroke-width: 0.6"/>
      </g>
     </g>
    </g>
    <g id="ytick_26">
     <g id="line2d_67">
      <g>
       <use xlink:href="#mf3a56b8de9" x="48.329688" y="210.309477" style="fill: #4a4a4a; stroke: #4a4a4a; stroke-width: 0.6"/>
      </g>
     </g>
    </g>
    <g id="ytick_27">
     <g id="line2d_68">
      <g>
       <use xlink:href="#mf3a56b8de9" x="48.329688" y="207.106914" style="fill: #4a4a4a; stroke: #4a4a4a; stroke-width: 0.6"/>
      </g>
     </g>
    </g>
    <g id="ytick_28">
     <g id="line2d_69">
      <g>
       <use xlink:href="#mf3a56b8de9" x="48.329688" y="204.399185" style="fill: #4a4a4a; stroke: #4a4a4a; stroke-width: 0.6"/>
      </g>
     </g>
    </g>
    <g id="ytick_29">
     <g id="line2d_70">
      <g>
       <use xlink:href="#mf3a56b8de9" x="48.329688" y="202.053644" style="fill: #4a4a4a; stroke: #4a4a4a; stroke-width: 0.6"/>
      </g>
     </g>
    </g>
    <g id="ytick_30">
     <g id="line2d_71">
      <g>
       <use xlink:href="#mf3a56b8de9" x="48.329688" y="199.984731" style="fill: #4a4a4a; stroke: #4a4a4a; stroke-width: 0.6"/>
      </g>
     </g>
    </g>
    <g id="ytick_31">
     <g id="line2d_72">
      <g>
       <use xlink:href="#mf3a56b8de9" x="48.329688" y="185.958571" style="fill: #4a4a4a; stroke: #4a4a4a; stroke-width: 0.6"/>
      </g>
     </g>
    </g>
    <g id="ytick_32">
     <g id="line2d_73">
      <g>
       <use xlink:href="#mf3a56b8de9" x="48.329688" y="178.836388" style="fill: #4a4a4a; stroke: #4a4a4a; stroke-width: 0.6"/>
      </g>
     </g>
    </g>
    <g id="ytick_33">
     <g id="line2d_74">
      <g>
       <use xlink:href="#mf3a56b8de9" x="48.329688" y="173.783118" style="fill: #4a4a4a; stroke: #4a4a4a; stroke-width: 0.6"/>
      </g>
     </g>
    </g>
    <g id="ytick_34">
     <g id="line2d_75">
      <g>
       <use xlink:href="#mf3a56b8de9" x="48.329688" y="169.863498" style="fill: #4a4a4a; stroke: #4a4a4a; stroke-width: 0.6"/>
      </g>
     </g>
    </g>
    <g id="ytick_35">
     <g id="line2d_76">
      <g>
       <use xlink:href="#mf3a56b8de9" x="48.329688" y="166.660935" style="fill: #4a4a4a; stroke: #4a4a4a; stroke-width: 0.6"/>
      </g>
     </g>
    </g>
    <g id="ytick_36">
     <g id="line2d_77">
      <g>
       <use xlink:href="#mf3a56b8de9" x="48.329688" y="163.953207" style="fill: #4a4a4a; stroke: #4a4a4a; stroke-width: 0.6"/>
      </g>
     </g>
    </g>
    <g id="ytick_37">
     <g id="line2d_78">
      <g>
       <use xlink:href="#mf3a56b8de9" x="48.329688" y="161.607666" style="fill: #4a4a4a; stroke: #4a4a4a; stroke-width: 0.6"/>
      </g>
     </g>
    </g>
    <g id="ytick_38">
     <g id="line2d_79">
      <g>
       <use xlink:href="#mf3a56b8de9" x="48.329688" y="159.538752" style="fill: #4a4a4a; stroke: #4a4a4a; stroke-width: 0.6"/>
      </g>
     </g>
    </g>
    <g id="ytick_39">
     <g id="line2d_80">
      <g>
       <use xlink:href="#mf3a56b8de9" x="48.329688" y="145.512592" style="fill: #4a4a4a; stroke: #4a4a4a; stroke-width: 0.6"/>
      </g>
     </g>
    </g>
    <g id="ytick_40">
     <g id="line2d_81">
      <g>
       <use xlink:href="#mf3a56b8de9" x="48.329688" y="138.390409" style="fill: #4a4a4a; stroke: #4a4a4a; stroke-width: 0.6"/>
      </g>
     </g>
    </g>
    <g id="ytick_41">
     <g id="line2d_82">
      <g>
       <use xlink:href="#mf3a56b8de9" x="48.329688" y="133.33714" style="fill: #4a4a4a; stroke: #4a4a4a; stroke-width: 0.6"/>
      </g>
     </g>
    </g>
    <g id="ytick_42">
     <g id="line2d_83">
      <g>
       <use xlink:href="#mf3a56b8de9" x="48.329688" y="129.417519" style="fill: #4a4a4a; stroke: #4a4a4a; stroke-width: 0.6"/>
      </g>
     </g>
    </g>
    <g id="ytick_43">
     <g id="line2d_84">
      <g>
       <use xlink:href="#mf3a56b8de9" x="48.329688" y="126.214956" style="fill: #4a4a4a; stroke: #4a4a4a; stroke-width: 0.6"/>
      </g>
     </g>
    </g>
    <g id="ytick_44">
     <g id="line2d_85">
      <g>
       <use xlink:href="#mf3a56b8de9" x="48.329688" y="123.507228" style="fill: #4a4a4a; stroke: #4a4a4a; stroke-width: 0.6"/>
      </g>
     </g>
    </g>
    <g id="ytick_45">
     <g id="line2d_86">
      <g>
       <use xlink:href="#mf3a56b8de9" x="48.329688" y="121.161687" style="fill: #4a4a4a; stroke: #4a4a4a; stroke-width: 0.6"/>
      </g>
     </g>
    </g>
    <g id="ytick_46">
     <g id="line2d_87">
      <g>
       <use xlink:href="#mf3a56b8de9" x="48.329688" y="119.092773" style="fill: #4a4a4a; stroke: #4a4a4a; stroke-width: 0.6"/>
      </g>
     </g>
    </g>
    <g id="ytick_47">
     <g id="line2d_88">
      <g>
       <use xlink:href="#mf3a56b8de9" x="48.329688" y="105.066614" style="fill: #4a4a4a; stroke: #4a4a4a; stroke-width: 0.6"/>
      </g>
     </g>
    </g>
    <g id="ytick_48">
     <g id="line2d_89">
      <g>
       <use xlink:href="#mf3a56b8de9" x="48.329688" y="97.94443" style="fill: #4a4a4a; stroke: #4a4a4a; stroke-width: 0.6"/>
      </g>
     </g>
    </g>
    <g id="ytick_49">
     <g id="line2d_90">
      <g>
       <use xlink:href="#mf3a56b8de9" x="48.329688" y="92.891161" style="fill: #4a4a4a; stroke: #4a4a4a; stroke-width: 0.6"/>
      </g>
     </g>
    </g>
    <g id="ytick_50">
     <g id="line2d_91">
      <g>
       <use xlink:href="#mf3a56b8de9" x="48.329688" y="88.97154" style="fill: #4a4a4a; stroke: #4a4a4a; stroke-width: 0.6"/>
      </g>
     </g>
    </g>
    <g id="ytick_51">
     <g id="line2d_92">
      <g>
       <use xlink:href="#mf3a56b8de9" x="48.329688" y="85.768977" style="fill: #4a4a4a; stroke: #4a4a4a; stroke-width: 0.6"/>
      </g>
     </g>
    </g>
    <g id="ytick_52">
     <g id="line2d_93">
      <g>
       <use xlink:href="#mf3a56b8de9" x="48.329688" y="83.061249" style="fill: #4a4a4a; stroke: #4a4a4a; stroke-width: 0.6"/>
      </g>
     </g>
    </g>
    <g id="ytick_53">
     <g id="line2d_94">
      <g>
       <use xlink:href="#mf3a56b8de9" x="48.329688" y="80.715708" style="fill: #4a4a4a; stroke: #4a4a4a; stroke-width: 0.6"/>
      </g>
     </g>
    </g>
    <g id="ytick_54">
     <g id="line2d_95">
      <g>
       <use xlink:href="#mf3a56b8de9" x="48.329688" y="78.646794" style="fill: #4a4a4a; stroke: #4a4a4a; stroke-width: 0.6"/>
      </g>
     </g>
    </g>
    <g id="ytick_55">
     <g id="line2d_96">
      <g>
       <use xlink:href="#mf3a56b8de9" x="48.329688" y="64.620635" style="fill: #4a4a4a; stroke: #4a4a4a; stroke-width: 0.6"/>
      </g>
     </g>
    </g>
    <g id="ytick_56">
     <g id="line2d_97">
      <g>
       <use xlink:href="#mf3a56b8de9" x="48.329688" y="57.498451" style="fill: #4a4a4a; stroke: #4a4a4a; stroke-width: 0.6"/>
      </g>
     </g>
    </g>
    <g id="ytick_57">
     <g id="line2d_98">
      <g>
       <use xlink:href="#mf3a56b8de9" x="48.329688" y="52.445182" style="fill: #4a4a4a; stroke: #4a4a4a; stroke-width: 0.6"/>
      </g>
     </g>
    </g>
    <g id="ytick_58">
     <g id="line2d_99">
      <g>
       <use xlink:href="#mf3a56b8de9" x="48.329688" y="48.525562" style="fill: #4a4a4a; stroke: #4a4a4a; stroke-width: 0.6"/>
      </g>
     </g>
    </g>
    <g id="ytick_59">
     <g id="line2d_100">
      <g>
       <use xlink:href="#mf3a56b8de9" x="48.329688" y="45.322999" style="fill: #4a4a4a; stroke: #4a4a4a; stroke-width: 0.6"/>
      </g>
     </g>
    </g>
    <g id="ytick_60">
     <g id="line2d_101">
      <g>
       <use xlink:href="#mf3a56b8de9" x="48.329688" y="42.61527" style="fill: #4a4a4a; stroke: #4a4a4a; stroke-width: 0.6"/>
      </g>
     </g>
    </g>
    <g id="ytick_61">
     <g id="line2d_102">
      <g>
       <use xlink:href="#mf3a56b8de9" x="48.329688" y="40.269729" style="fill: #4a4a4a; stroke: #4a4a4a; stroke-width: 0.6"/>
      </g>
     </g>
    </g>
    <g id="ytick_62">
     <g id="line2d_103">
      <g>
       <use xlink:href="#mf3a56b8de9" x="48.329688" y="38.200815" style="fill: #4a4a4a; stroke: #4a4a4a; stroke-width: 0.6"/>
      </g>
     </g>
    </g>
    <g id="text_13">
     <!-- FLOPs (billions) -->
     <g style="fill: #4a4a4a" transform="translate(15.214531 208.565656) rotate(-90) scale(0.11 -0.11)">
      <defs>
       <path id="ArialMT-46" d="M 525 0 
L 525 4581 
L 3616 4581 
L 3616 4041 
L 1131 4041 
L 1131 2622 
L 3281 2622 
L 3281 2081 
L 1131 2081 
L 1131 0 
L 525 0 
z
" transform="scale(0.015625)"/>
       <path id="ArialMT-4c" d="M 469 0 
L 469 4581 
L 1075 4581 
L 1075 541 
L 3331 541 
L 3331 0 
L 469 0 
z
" transform="scale(0.015625)"/>
       <path id="ArialMT-4f" d="M 309 2231 
Q 309 3372 921 4017 
Q 1534 4663 2503 4663 
Q 3138 4663 3647 4359 
Q 4156 4056 4423 3514 
Q 4691 2972 4691 2284 
Q 4691 1588 4409 1038 
Q 4128 488 3612 205 
Q 3097 -78 2500 -78 
Q 1853 -78 1343 234 
Q 834 547 571 1087 
Q 309 1628 309 2231 
z
M 934 2222 
Q 934 1394 1379 917 
Q 1825 441 2497 441 
Q 3181 441 3623 922 
Q 4066 1403 4066 2288 
Q 4066 2847 3877 3264 
Q 3688 3681 3323 3911 
Q 2959 4141 2506 4141 
Q 1863 4141 1398 3698 
Q 934 3256 934 2222 
z
" transform="scale(0.015625)"/>
       <path id="ArialMT-50" d="M 494 0 
L 494 4581 
L 2222 4581 
Q 2678 4581 2919 4538 
Q 3256 4481 3484 4323 
Q 3713 4166 3852 3881 
Q 3991 3597 3991 3256 
Q 3991 2672 3619 2267 
Q 3247 1863 2275 1863 
L 1100 1863 
L 1100 0 
L 494 0 
z
M 1100 2403 
L 2284 2403 
Q 2872 2403 3119 2622 
Q 3366 2841 3366 3238 
Q 3366 3525 3220 3729 
Q 3075 3934 2838 4000 
Q 2684 4041 2272 4041 
L 1100 4041 
L 1100 2403 
z
" transform="scale(0.015625)"/>
       <path id="ArialMT-62" d="M 941 0 
L 419 0 
L 419 4581 
L 981 4581 
L 981 2947 
Q 1338 3394 1891 3394 
Q 2197 3394 2470 3270 
Q 2744 3147 2920 2923 
Q 3097 2700 3197 2384 
Q 3297 2069 3297 1709 
Q 3297 856 2875 390 
Q 2453 -75 1863 -75 
Q 1275 -75 941 416 
L 941 0 
z
M 934 1684 
Q 934 1088 1097 822 
Q 1363 388 1816 388 
Q 2184 388 2453 708 
Q 2722 1028 2722 1663 
Q 2722 2313 2464 2622 
Q 2206 2931 1841 2931 
Q 1472 2931 1203 2611 
Q 934 2291 934 1684 
z
" transform="scale(0.015625)"/>
       <path id="ArialMT-69" d="M 425 3934 
L 425 4581 
L 988 4581 
L 988 3934 
L 425 3934 
z
M 425 0 
L 425 3319 
L 988 3319 
L 988 0 
L 425 0 
z
" transform="scale(0.015625)"/>
      </defs>
      <use xlink:href="#ArialMT-46"/>
      <use xlink:href="#ArialMT-4c" transform="translate(61.083984 0)"/>
      <use xlink:href="#ArialMT-4f" transform="translate(116.699219 0)"/>
      <use xlink:href="#ArialMT-50" transform="translate(194.482422 0)"/>
      <use xlink:href="#ArialMT-73" transform="translate(261.181641 0)"/>
      <use xlink:href="#ArialMT-20" transform="translate(311.181641 0)"/>
      <use xlink:href="#ArialMT-28" transform="translate(338.964844 0)"/>
      <use xlink:href="#ArialMT-62" transform="translate(372.265625 0)"/>
      <use xlink:href="#ArialMT-69" transform="translate(427.880859 0)"/>
      <use xlink:href="#ArialMT-6c" transform="translate(450.097656 0)"/>
      <use xlink:href="#ArialMT-6c" transform="translate(472.314453 0)"/>
      <use xlink:href="#ArialMT-69" transform="translate(494.53125 0)"/>
      <use xlink:href="#ArialMT-6f" transform="translate(516.748047 0)"/>
      <use xlink:href="#ArialMT-6e" transform="translate(572.363281 0)"/>
      <use xlink:href="#ArialMT-73" transform="translate(627.978516 0)"/>
      <use xlink:href="#ArialMT-29" transform="translate(677.978516 0)"/>
     </g>
    </g>
   </g>
   <g id="line2d_104">
    <path d="M 71.716507 286.865222 
L 539.452907 44.189349 
L 539.452907 44.189349 
" clip-path="url(#p86ee6c6f27)" style="fill: none; stroke: #d4817a; stroke-width: 2.5; stroke-linecap: square"/>
   </g>
   <g id="line2d_105">
    <path d="M 71.716507 270.353557 
L 539.452907 149.015621 
L 539.452907 149.015621 
" clip-path="url(#p86ee6c6f27)" style="fill: none; stroke: #6c9bc2; stroke-width: 2; stroke-linecap: square"/>
   </g>
   <g id="line2d_106">
    <path d="M 71.716507 282.52901 
L 539.452907 161.191074 
L 539.452907 161.191074 
" clip-path="url(#p86ee6c6f27)" style="fill: none; stroke-dasharray: 6.66,2.88; stroke-dashoffset: 0; stroke: #e8a87c; stroke-width: 1.8"/>
   </g>
   <g id="line2d_107">
    <path d="M 71.716507 294.704463 
L 539.452907 173.366527 
L 539.452907 173.366527 
" clip-path="url(#p86ee6c6f27)" style="fill: none; stroke: #7fb685; stroke-width: 2; stroke-linecap: square"/>
   </g>
   <g id="patch_3">
    <path d="M 48.329688 307.230219 
L 48.329688 31.663594 
" style="fill: none; stroke: #a8b5c4; stroke-width: 0.8; stroke-linejoin: miter; stroke-linecap: square"/>
   </g>
   <g id="patch_4">
    <path d="M 48.329687 307.230219 
L 562.839727 307.230219 
" style="fill: none; stroke: #a8b5c4; stroke-width: 0.8; stroke-linejoin: miter; stroke-linecap: square"/>
   </g>
   <g id="text_14">
    <!-- Full attention -->
    <g style="fill: #d4817a; opacity: 0.8" transform="translate(360.640149 27.888609) scale(0.08 -0.08)">
     <defs>
      <path id="Arial-ItalicMT-46" d="M 291 0 
L 1247 4581 
L 4225 4581 
L 4116 4059 
L 1750 4059 
L 1447 2600 
L 3856 2600 
L 3747 2078 
L 1338 2078 
L 903 0 
L 291 0 
z
" transform="scale(0.015625)"/>
      <path id="Arial-ItalicMT-75" d="M 2478 600 
Q 1881 -75 1256 -75 
Q 872 -75 636 145 
Q 400 366 400 684 
Q 400 894 506 1403 
L 906 3319 
L 1472 3319 
L 1028 1197 
Q 972 931 972 784 
Q 972 597 1086 492 
Q 1200 388 1422 388 
Q 1659 388 1886 503 
Q 2113 619 2277 816 
Q 2441 1013 2544 1281 
Q 2613 1453 2703 1884 
L 3003 3319 
L 3569 3319 
L 2875 0 
L 2353 0 
L 2478 600 
z
" transform="scale(0.015625)"/>
      <path id="Arial-ItalicMT-6c" d="M 169 0 
L 1125 4581 
L 1691 4581 
L 734 0 
L 169 0 
z
" transform="scale(0.015625)"/>
      <path id="Arial-ItalicMT-20" transform="scale(0.015625)"/>
      <path id="Arial-ItalicMT-61" d="M 2450 413 
Q 2156 159 1884 42 
Q 1613 -75 1303 -75 
Q 844 -75 562 195 
Q 281 466 281 888 
Q 281 1166 407 1380 
Q 534 1594 743 1723 
Q 953 1853 1256 1909 
Q 1447 1947 1980 1969 
Q 2513 1991 2744 2081 
Q 2809 2313 2809 2466 
Q 2809 2663 2666 2775 
Q 2469 2931 2091 2931 
Q 1734 2931 1507 2773 
Q 1281 2616 1178 2325 
L 606 2375 
Q 781 2869 1161 3131 
Q 1541 3394 2119 3394 
Q 2734 3394 3094 3100 
Q 3369 2881 3369 2531 
Q 3369 2266 3291 1916 
L 3106 1091 
Q 3019 697 3019 450 
Q 3019 294 3088 0 
L 2516 0 
Q 2469 163 2450 413 
z
M 2659 1681 
Q 2541 1634 2405 1609 
Q 2269 1584 1950 1556 
Q 1456 1513 1253 1445 
Q 1050 1378 947 1231 
Q 844 1084 844 906 
Q 844 669 1008 516 
Q 1172 363 1475 363 
Q 1756 363 2015 511 
Q 2275 659 2425 925 
Q 2575 1191 2659 1681 
z
" transform="scale(0.015625)"/>
      <path id="Arial-ItalicMT-74" d="M 1534 459 
L 1441 -3 
Q 1238 -56 1047 -56 
Q 709 -56 509 109 
Q 359 234 359 450 
Q 359 559 441 953 
L 844 2881 
L 397 2881 
L 488 3319 
L 934 3319 
L 1106 4134 
L 1753 4525 
L 1500 3319 
L 2056 3319 
L 1963 2881 
L 1409 2881 
L 1025 1047 
Q 953 697 953 628 
Q 953 528 1011 475 
Q 1069 422 1200 422 
Q 1388 422 1534 459 
z
" transform="scale(0.015625)"/>
      <path id="Arial-ItalicMT-65" d="M 2650 1128 
L 3200 1072 
Q 3081 663 2654 294 
Q 2228 -75 1638 -75 
Q 1269 -75 961 95 
Q 653 266 492 591 
Q 331 916 331 1331 
Q 331 1875 582 2386 
Q 834 2897 1234 3145 
Q 1634 3394 2100 3394 
Q 2694 3394 3048 3025 
Q 3403 2656 3403 2019 
Q 3403 1775 3359 1519 
L 916 1519 
Q 903 1422 903 1344 
Q 903 878 1117 633 
Q 1331 388 1641 388 
Q 1931 388 2212 578 
Q 2494 769 2650 1128 
z
M 1006 1950 
L 2869 1950 
Q 2872 2038 2872 2075 
Q 2872 2500 2659 2726 
Q 2447 2953 2113 2953 
Q 1750 2953 1451 2703 
Q 1153 2453 1006 1950 
z
" transform="scale(0.015625)"/>
      <path id="Arial-ItalicMT-6e" d="M 213 0 
L 906 3319 
L 1419 3319 
L 1297 2741 
Q 1631 3081 1922 3237 
Q 2213 3394 2516 3394 
Q 2919 3394 3148 3175 
Q 3378 2956 3378 2591 
Q 3378 2406 3297 2009 
L 2875 0 
L 2309 0 
L 2750 2103 
Q 2816 2409 2816 2556 
Q 2816 2722 2702 2825 
Q 2588 2928 2372 2928 
Q 1938 2928 1598 2615 
Q 1259 2303 1100 1544 
L 778 0 
L 213 0 
z
" transform="scale(0.015625)"/>
      <path id="Arial-ItalicMT-69" d="M 1016 3941 
L 1150 4581 
L 1713 4581 
L 1578 3941 
L 1016 3941 
z
M 191 0 
L 884 3319 
L 1450 3319 
L 756 0 
L 191 0 
z
" transform="scale(0.015625)"/>
      <path id="Arial-ItalicMT-6f" d="M 313 1259 
Q 313 2231 884 2869 
Q 1356 3394 2122 3394 
Q 2722 3394 3089 3019 
Q 3456 2644 3456 2006 
Q 3456 1434 3225 942 
Q 2994 450 2567 187 
Q 2141 -75 1669 -75 
Q 1281 -75 964 90 
Q 647 256 480 559 
Q 313 863 313 1259 
z
M 878 1316 
Q 878 847 1103 605 
Q 1328 363 1675 363 
Q 1856 363 2034 436 
Q 2213 509 2366 659 
Q 2519 809 2626 1001 
Q 2734 1194 2800 1416 
Q 2897 1725 2897 2009 
Q 2897 2459 2670 2707 
Q 2444 2956 2100 2956 
Q 1834 2956 1615 2829 
Q 1397 2703 1220 2459 
Q 1044 2216 961 1892 
Q 878 1569 878 1316 
z
" transform="scale(0.015625)"/>
     </defs>
     <use xlink:href="#Arial-ItalicMT-46"/>
     <use xlink:href="#Arial-ItalicMT-75" transform="translate(61.083984 0)"/>
     <use xlink:href="#Arial-ItalicMT-6c" transform="translate(116.699219 0)"/>
     <use xlink:href="#Arial-ItalicMT-6c" transform="translate(138.916016 0)"/>
     <use xlink:href="#Arial-ItalicMT-20" transform="translate(161.132812 0)"/>
     <use xlink:href="#Arial-ItalicMT-61" transform="translate(188.916016 0)"/>
     <use xlink:href="#Arial-ItalicMT-74" transform="translate(244.53125 0)"/>
     <use xlink:href="#Arial-ItalicMT-74" transform="translate(272.314453 0)"/>
     <use xlink:href="#Arial-ItalicMT-65" transform="translate(300.097656 0)"/>
     <use xlink:href="#Arial-ItalicMT-6e" transform="translate(355.712891 0)"/>
     <use xlink:href="#Arial-ItalicMT-74" transform="translate(411.328125 0)"/>
     <use xlink:href="#Arial-ItalicMT-69" transform="translate(439.111328 0)"/>
     <use xlink:href="#Arial-ItalicMT-6f" transform="translate(461.328125 0)"/>
     <use xlink:href="#Arial-ItalicMT-6e" transform="translate(516.943359 0)"/>
    </g>
    <!-- becomes prohibitive -->
    <g style="fill: #d4817a; opacity: 0.8" transform="translate(347.968899 36.350109) scale(0.08 -0.08)">
     <defs>
      <path id="Arial-ItalicMT-62" d="M 213 0 
L 1169 4581 
L 1734 4581 
L 1394 2944 
Q 1663 3191 1881 3292 
Q 2100 3394 2338 3394 
Q 2803 3394 3114 3047 
Q 3425 2700 3425 2038 
Q 3425 1597 3300 1231 
Q 3175 866 2990 617 
Q 2806 369 2609 220 
Q 2413 72 2206 -1 
Q 2000 -75 1809 -75 
Q 1481 -75 1231 98 
Q 981 272 841 628 
L 709 0 
L 213 0 
z
M 1050 1363 
L 1047 1256 
Q 1047 831 1250 609 
Q 1453 388 1756 388 
Q 2053 388 2301 595 
Q 2550 803 2709 1243 
Q 2869 1684 2869 2056 
Q 2869 2475 2667 2706 
Q 2466 2938 2169 2938 
Q 1863 2938 1606 2702 
Q 1350 2466 1178 1975 
Q 1050 1609 1050 1363 
z
" transform="scale(0.015625)"/>
      <path id="Arial-ItalicMT-63" d="M 2503 1209 
L 3069 1150 
Q 2856 528 2464 226 
Q 2072 -75 1572 -75 
Q 1031 -75 695 275 
Q 359 625 359 1253 
Q 359 1797 575 2322 
Q 791 2847 1192 3120 
Q 1594 3394 2109 3394 
Q 2644 3394 2956 3092 
Q 3269 2791 3269 2294 
L 2713 2256 
Q 2709 2572 2529 2750 
Q 2350 2928 2056 2928 
Q 1716 2928 1466 2712 
Q 1216 2497 1073 2058 
Q 931 1619 931 1213 
Q 931 788 1118 575 
Q 1306 363 1581 363 
Q 1856 363 2107 572 
Q 2359 781 2503 1209 
z
" transform="scale(0.015625)"/>
      <path id="Arial-ItalicMT-6d" d="M 209 0 
L 903 3319 
L 1469 3319 
L 1353 2772 
Q 1669 3125 1917 3259 
Q 2166 3394 2456 3394 
Q 2766 3394 2973 3230 
Q 3181 3066 3247 2772 
Q 3500 3084 3779 3239 
Q 4059 3394 4369 3394 
Q 4784 3394 4992 3197 
Q 5200 3000 5200 2644 
Q 5200 2491 5128 2138 
L 4681 0 
L 4116 0 
L 4572 2194 
Q 4631 2463 4631 2578 
Q 4631 2741 4528 2834 
Q 4425 2928 4238 2928 
Q 3984 2928 3721 2775 
Q 3459 2622 3314 2373 
Q 3169 2125 3059 1609 
L 2722 0 
L 2156 0 
L 2625 2241 
Q 2675 2469 2675 2566 
Q 2675 2728 2573 2828 
Q 2472 2928 2309 2928 
Q 2069 2928 1805 2775 
Q 1541 2622 1375 2348 
Q 1209 2075 1103 1569 
L 775 0 
L 209 0 
z
" transform="scale(0.015625)"/>
      <path id="Arial-ItalicMT-73" d="M 266 1134 
L 831 1169 
Q 831 925 906 753 
Q 981 581 1182 472 
Q 1384 363 1653 363 
Q 2028 363 2215 513 
Q 2403 663 2403 866 
Q 2403 1013 2291 1144 
Q 2175 1275 1726 1467 
Q 1278 1659 1153 1738 
Q 944 1866 837 2039 
Q 731 2213 731 2438 
Q 731 2831 1043 3112 
Q 1356 3394 1919 3394 
Q 2544 3394 2870 3105 
Q 3197 2816 3209 2344 
L 2656 2306 
Q 2644 2606 2444 2781 
Q 2244 2956 1878 2956 
Q 1584 2956 1421 2822 
Q 1259 2688 1259 2531 
Q 1259 2375 1400 2256 
Q 1494 2175 1884 2006 
Q 2534 1725 2703 1563 
Q 2972 1303 2972 931 
Q 2972 684 2820 446 
Q 2669 209 2358 67 
Q 2047 -75 1625 -75 
Q 1050 -75 647 209 
Q 244 494 266 1134 
z
" transform="scale(0.015625)"/>
      <path id="Arial-ItalicMT-70" d="M -66 -1272 
L 894 3319 
L 1416 3319 
L 1319 2856 
Q 1609 3159 1839 3276 
Q 2069 3394 2325 3394 
Q 2800 3394 3112 3048 
Q 3425 2703 3425 2059 
Q 3425 1541 3253 1114 
Q 3081 688 2831 428 
Q 2581 169 2325 47 
Q 2069 -75 1800 -75 
Q 1203 -75 875 531 
L 500 -1272 
L -66 -1272 
z
M 1053 1356 
Q 1053 984 1106 841 
Q 1184 638 1362 513 
Q 1541 388 1775 388 
Q 2263 388 2563 936 
Q 2863 1484 2863 2056 
Q 2863 2478 2661 2708 
Q 2459 2938 2159 2938 
Q 1944 2938 1759 2823 
Q 1575 2709 1417 2482 
Q 1259 2256 1156 1928 
Q 1053 1600 1053 1356 
z
" transform="scale(0.015625)"/>
      <path id="Arial-ItalicMT-72" d="M 213 0 
L 906 3319 
L 1406 3319 
L 1266 2641 
Q 1522 3025 1767 3209 
Q 2013 3394 2269 3394 
Q 2438 3394 2684 3272 
L 2453 2747 
Q 2306 2853 2131 2853 
Q 1834 2853 1521 2522 
Q 1209 2191 1031 1331 
L 750 0 
L 213 0 
z
" transform="scale(0.015625)"/>
      <path id="Arial-ItalicMT-68" d="M 213 0 
L 1169 4581 
L 1734 4581 
L 1369 2822 
Q 1684 3128 1956 3261 
Q 2228 3394 2516 3394 
Q 2928 3394 3156 3176 
Q 3384 2959 3384 2603 
Q 3384 2428 3284 1959 
L 2875 0 
L 2309 0 
L 2731 2009 
Q 2822 2447 2822 2559 
Q 2822 2722 2709 2825 
Q 2597 2928 2384 2928 
Q 2078 2928 1800 2767 
Q 1522 2606 1364 2326 
Q 1206 2047 1075 1425 
L 778 0 
L 213 0 
z
" transform="scale(0.015625)"/>
      <path id="Arial-ItalicMT-76" d="M 1050 0 
L 506 3319 
L 1056 3319 
L 1341 1491 
Q 1388 1191 1456 513 
Q 1619 866 1872 1322 
L 2981 3319 
L 3578 3319 
L 1678 0 
L 1050 0 
z
" transform="scale(0.015625)"/>
     </defs>
     <use xlink:href="#Arial-ItalicMT-62"/>
     <use xlink:href="#Arial-ItalicMT-65" transform="translate(55.615234 0)"/>
     <use xlink:href="#Arial-ItalicMT-63" transform="translate(111.230469 0)"/>
     <use xlink:href="#Arial-ItalicMT-6f" transform="translate(161.230469 0)"/>
     <use xlink:href="#Arial-ItalicMT-6d" transform="translate(216.845703 0)"/>
     <use xlink:href="#Arial-ItalicMT-65" transform="translate(300.146484 0)"/>
     <use xlink:href="#Arial-ItalicMT-73" transform="translate(355.761719 0)"/>
     <use xlink:href="#Arial-ItalicMT-20" transform="translate(405.761719 0)"/>
     <use xlink:href="#Arial-ItalicMT-70" transform="translate(433.544922 0)"/>
     <use xlink:href="#Arial-ItalicMT-72" transform="translate(489.160156 0)"/>
     <use xlink:href="#Arial-ItalicMT-6f" transform="translate(522.460938 0)"/>
     <use xlink:href="#Arial-ItalicMT-68" transform="translate(578.076172 0)"/>
     <use xlink:href="#Arial-ItalicMT-69" transform="translate(633.691406 0)"/>
     <use xlink:href="#Arial-ItalicMT-62" transform="translate(655.908203 0)"/>
     <use xlink:href="#Arial-ItalicMT-69" transform="translate(711.523438 0)"/>
     <use xlink:href="#Arial-ItalicMT-74" transform="translate(733.740234 0)"/>
     <use xlink:href="#Arial-ItalicMT-69" transform="translate(761.523438 0)"/>
     <use xlink:href="#Arial-ItalicMT-76" transform="translate(783.740234 0)"/>
     <use xlink:href="#Arial-ItalicMT-65" transform="translate(833.740234 0)"/>
    </g>
   </g>
   <g id="text_15">
    <!-- Linear methods -->
    <g style="fill: #7fb685; opacity: 0.8" transform="translate(464.948678 137.051092) scale(0.08 -0.08)">
     <defs>
      <path id="Arial-ItalicMT-4c" d="M 256 0 
L 1213 4581 
L 1825 4581 
L 978 519 
L 3356 519 
L 3247 0 
L 256 0 
z
" transform="scale(0.015625)"/>
      <path id="Arial-ItalicMT-64" d="M 2450 481 
Q 1966 -75 1438 -75 
Q 966 -75 652 273 
Q 338 622 338 1284 
Q 338 1891 586 2392 
Q 834 2894 1207 3144 
Q 1581 3394 1956 3394 
Q 2575 3394 2891 2797 
L 3266 4581 
L 3828 4581 
L 2872 0 
L 2350 0 
L 2450 481 
z
M 900 1391 
Q 900 1044 969 844 
Q 1038 644 1203 511 
Q 1369 378 1600 378 
Q 1984 378 2297 778 
Q 2716 1309 2716 2091 
Q 2716 2484 2509 2706 
Q 2303 2928 1991 2928 
Q 1788 2928 1620 2837 
Q 1453 2747 1289 2530 
Q 1125 2313 1012 1978 
Q 900 1644 900 1391 
z
" transform="scale(0.015625)"/>
     </defs>
     <use xlink:href="#Arial-ItalicMT-4c"/>
     <use xlink:href="#Arial-ItalicMT-69" transform="translate(55.615234 0)"/>
     <use xlink:href="#Arial-ItalicMT-6e" transform="translate(77.832031 0)"/>
     <use xlink:href="#Arial-ItalicMT-65" transform="translate(133.447266 0)"/>
     <use xlink:href="#Arial-ItalicMT-61" transform="translate(189.0625 0)"/>
     <use xlink:href="#Arial-ItalicMT-72" transform="translate(244.677734 0)"/>
     <use xlink:href="#Arial-ItalicMT-20" transform="translate(277.978516 0)"/>
     <use xlink:href="#Arial-ItalicMT-6d" transform="translate(305.761719 0)"/>
     <use xlink:href="#Arial-ItalicMT-65" transform="translate(389.0625 0)"/>
     <use xlink:href="#Arial-ItalicMT-74" transform="translate(444.677734 0)"/>
     <use xlink:href="#Arial-ItalicMT-68" transform="translate(472.460938 0)"/>
     <use xlink:href="#Arial-ItalicMT-6f" transform="translate(528.076172 0)"/>
     <use xlink:href="#Arial-ItalicMT-64" transform="translate(583.691406 0)"/>
     <use xlink:href="#Arial-ItalicMT-73" transform="translate(639.306641 0)"/>
    </g>
    <!-- stay manageable -->
    <g style="fill: #7fb685; opacity: 0.8" transform="translate(462.056178 145.512592) scale(0.08 -0.08)">
     <defs>
      <path id="Arial-ItalicMT-79" d="M 0 -1281 
L 34 -750 
Q 209 -800 375 -800 
Q 547 -800 653 -722 
Q 791 -619 953 -334 
L 1134 -9 
L 581 3319 
L 1138 3319 
L 1388 1641 
Q 1463 1144 1516 647 
L 3000 3319 
L 3591 3319 
L 1475 -441 
Q 1169 -991 931 -1169 
Q 694 -1347 384 -1347 
Q 188 -1347 0 -1281 
z
" transform="scale(0.015625)"/>
      <path id="Arial-ItalicMT-67" d="M 181 -300 
L 753 -353 
Q 747 -547 800 -644 
Q 853 -741 969 -794 
Q 1122 -863 1366 -863 
Q 1878 -863 2103 -597 
Q 2250 -419 2375 178 
L 2431 447 
Q 1991 0 1494 0 
Q 991 0 652 370 
Q 313 741 313 1419 
Q 313 1978 580 2447 
Q 847 2916 1215 3155 
Q 1584 3394 1975 3394 
Q 2628 3394 2981 2775 
L 3094 3319 
L 3613 3319 
L 2944 116 
Q 2834 -413 2656 -708 
Q 2478 -1003 2161 -1165 
Q 1844 -1328 1428 -1328 
Q 1028 -1328 739 -1225 
Q 450 -1122 308 -923 
Q 166 -725 166 -469 
Q 166 -391 181 -300 
z
M 888 1469 
Q 888 1128 953 956 
Q 1047 716 1220 589 
Q 1394 463 1606 463 
Q 1884 463 2159 658 
Q 2434 853 2604 1262 
Q 2775 1672 2775 2044 
Q 2775 2453 2548 2695 
Q 2322 2938 1988 2938 
Q 1781 2938 1587 2827 
Q 1394 2716 1226 2489 
Q 1059 2263 973 1947 
Q 888 1631 888 1469 
z
" transform="scale(0.015625)"/>
     </defs>
     <use xlink:href="#Arial-ItalicMT-73"/>
     <use xlink:href="#Arial-ItalicMT-74" transform="translate(50 0)"/>
     <use xlink:href="#Arial-ItalicMT-61" transform="translate(77.783203 0)"/>
     <use xlink:href="#Arial-ItalicMT-79" transform="translate(133.398438 0)"/>
     <use xlink:href="#Arial-ItalicMT-20" transform="translate(183.398438 0)"/>
     <use xlink:href="#Arial-ItalicMT-6d" transform="translate(211.181641 0)"/>
     <use xlink:href="#Arial-ItalicMT-61" transform="translate(294.482422 0)"/>
     <use xlink:href="#Arial-ItalicMT-6e" transform="translate(350.097656 0)"/>
     <use xlink:href="#Arial-ItalicMT-61" transform="translate(405.712891 0)"/>
     <use xlink:href="#Arial-ItalicMT-67" transform="translate(461.328125 0)"/>
     <use xlink:href="#Arial-ItalicMT-65" transform="translate(516.943359 0)"/>
     <use xlink:href="#Arial-ItalicMT-61" transform="translate(572.558594 0)"/>
     <use xlink:href="#Arial-ItalicMT-62" transform="translate(628.173828 0)"/>
     <use xlink:href="#Arial-ItalicMT-6c" transform="translate(683.789062 0)"/>
     <use xlink:href="#Arial-ItalicMT-65" transform="translate(706.005859 0)"/>
    </g>
   </g>
   <g id="text_16">
    <!-- Computational Cost vs. Sequence Length -->
    <g style="fill: #4a4a4a" transform="translate(177.025879 16.663594) scale(0.13 -0.13)">
     <defs>
      <path id="Arial-BoldMT-43" d="M 3397 1684 
L 4294 1400 
Q 4088 650 3608 286 
Q 3128 -78 2391 -78 
Q 1478 -78 890 545 
Q 303 1169 303 2250 
Q 303 3394 893 4026 
Q 1484 4659 2447 4659 
Q 3288 4659 3813 4163 
Q 4125 3869 4281 3319 
L 3366 3100 
Q 3284 3456 3026 3662 
Q 2769 3869 2400 3869 
Q 1891 3869 1573 3503 
Q 1256 3138 1256 2319 
Q 1256 1450 1568 1081 
Q 1881 713 2381 713 
Q 2750 713 3015 947 
Q 3281 1181 3397 1684 
z
" transform="scale(0.015625)"/>
      <path id="Arial-BoldMT-6f" d="M 256 1706 
Q 256 2144 472 2553 
Q 688 2963 1083 3178 
Q 1478 3394 1966 3394 
Q 2719 3394 3200 2905 
Q 3681 2416 3681 1669 
Q 3681 916 3195 420 
Q 2709 -75 1972 -75 
Q 1516 -75 1102 131 
Q 688 338 472 736 
Q 256 1134 256 1706 
z
M 1156 1659 
Q 1156 1166 1390 903 
Q 1625 641 1969 641 
Q 2313 641 2545 903 
Q 2778 1166 2778 1666 
Q 2778 2153 2545 2415 
Q 2313 2678 1969 2678 
Q 1625 2678 1390 2415 
Q 1156 2153 1156 1659 
z
" transform="scale(0.015625)"/>
      <path id="Arial-BoldMT-6d" d="M 394 3319 
L 1203 3319 
L 1203 2866 
Q 1638 3394 2238 3394 
Q 2556 3394 2790 3262 
Q 3025 3131 3175 2866 
Q 3394 3131 3647 3262 
Q 3900 3394 4188 3394 
Q 4553 3394 4806 3245 
Q 5059 3097 5184 2809 
Q 5275 2597 5275 2122 
L 5275 0 
L 4397 0 
L 4397 1897 
Q 4397 2391 4306 2534 
Q 4184 2722 3931 2722 
Q 3747 2722 3584 2609 
Q 3422 2497 3350 2280 
Q 3278 2063 3278 1594 
L 3278 0 
L 2400 0 
L 2400 1819 
Q 2400 2303 2353 2443 
Q 2306 2584 2207 2653 
Q 2109 2722 1941 2722 
Q 1738 2722 1575 2612 
Q 1413 2503 1342 2297 
Q 1272 2091 1272 1613 
L 1272 0 
L 394 0 
L 394 3319 
z
" transform="scale(0.015625)"/>
      <path id="Arial-BoldMT-70" d="M 434 3319 
L 1253 3319 
L 1253 2831 
Q 1413 3081 1684 3237 
Q 1956 3394 2288 3394 
Q 2866 3394 3269 2941 
Q 3672 2488 3672 1678 
Q 3672 847 3265 386 
Q 2859 -75 2281 -75 
Q 2006 -75 1782 34 
Q 1559 144 1313 409 
L 1313 -1263 
L 434 -1263 
L 434 3319 
z
M 1303 1716 
Q 1303 1156 1525 889 
Q 1747 622 2066 622 
Q 2372 622 2575 867 
Q 2778 1113 2778 1672 
Q 2778 2194 2568 2447 
Q 2359 2700 2050 2700 
Q 1728 2700 1515 2451 
Q 1303 2203 1303 1716 
z
" transform="scale(0.015625)"/>
      <path id="Arial-BoldMT-75" d="M 2644 0 
L 2644 497 
Q 2463 231 2167 78 
Q 1872 -75 1544 -75 
Q 1209 -75 943 72 
Q 678 219 559 484 
Q 441 750 441 1219 
L 441 3319 
L 1319 3319 
L 1319 1794 
Q 1319 1094 1367 936 
Q 1416 778 1544 686 
Q 1672 594 1869 594 
Q 2094 594 2272 717 
Q 2450 841 2515 1023 
Q 2581 1206 2581 1919 
L 2581 3319 
L 3459 3319 
L 3459 0 
L 2644 0 
z
" transform="scale(0.015625)"/>
      <path id="Arial-BoldMT-74" d="M 1981 3319 
L 1981 2619 
L 1381 2619 
L 1381 1281 
Q 1381 875 1398 808 
Q 1416 741 1477 697 
Q 1538 653 1625 653 
Q 1747 653 1978 738 
L 2053 56 
Q 1747 -75 1359 -75 
Q 1122 -75 931 4 
Q 741 84 652 211 
Q 563 338 528 553 
Q 500 706 500 1172 
L 500 2619 
L 97 2619 
L 97 3319 
L 500 3319 
L 500 3978 
L 1381 4491 
L 1381 3319 
L 1981 3319 
z
" transform="scale(0.015625)"/>
      <path id="Arial-BoldMT-61" d="M 1116 2306 
L 319 2450 
Q 453 2931 781 3162 
Q 1109 3394 1756 3394 
Q 2344 3394 2631 3255 
Q 2919 3116 3036 2902 
Q 3153 2688 3153 2116 
L 3144 1091 
Q 3144 653 3186 445 
Q 3228 238 3344 0 
L 2475 0 
Q 2441 88 2391 259 
Q 2369 338 2359 363 
Q 2134 144 1878 34 
Q 1622 -75 1331 -75 
Q 819 -75 523 203 
Q 228 481 228 906 
Q 228 1188 362 1408 
Q 497 1628 739 1745 
Q 981 1863 1438 1950 
Q 2053 2066 2291 2166 
L 2291 2253 
Q 2291 2506 2166 2614 
Q 2041 2722 1694 2722 
Q 1459 2722 1328 2630 
Q 1197 2538 1116 2306 
z
M 2291 1594 
Q 2122 1538 1756 1459 
Q 1391 1381 1278 1306 
Q 1106 1184 1106 997 
Q 1106 813 1243 678 
Q 1381 544 1594 544 
Q 1831 544 2047 700 
Q 2206 819 2256 991 
Q 2291 1103 2291 1419 
L 2291 1594 
z
" transform="scale(0.015625)"/>
      <path id="Arial-BoldMT-69" d="M 459 3769 
L 459 4581 
L 1338 4581 
L 1338 3769 
L 459 3769 
z
M 459 0 
L 459 3319 
L 1338 3319 
L 1338 0 
L 459 0 
z
" transform="scale(0.015625)"/>
      <path id="Arial-BoldMT-6e" d="M 3478 0 
L 2600 0 
L 2600 1694 
Q 2600 2231 2544 2389 
Q 2488 2547 2361 2634 
Q 2234 2722 2056 2722 
Q 1828 2722 1647 2597 
Q 1466 2472 1398 2265 
Q 1331 2059 1331 1503 
L 1331 0 
L 453 0 
L 453 3319 
L 1269 3319 
L 1269 2831 
Q 1703 3394 2363 3394 
Q 2653 3394 2893 3289 
Q 3134 3184 3257 3021 
Q 3381 2859 3429 2653 
Q 3478 2447 3478 2063 
L 3478 0 
z
" transform="scale(0.015625)"/>
      <path id="Arial-BoldMT-6c" d="M 459 0 
L 459 4581 
L 1338 4581 
L 1338 0 
L 459 0 
z
" transform="scale(0.015625)"/>
      <path id="Arial-BoldMT-20" transform="scale(0.015625)"/>
      <path id="Arial-BoldMT-73" d="M 150 947 
L 1031 1081 
Q 1088 825 1259 692 
Q 1431 559 1741 559 
Q 2081 559 2253 684 
Q 2369 772 2369 919 
Q 2369 1019 2306 1084 
Q 2241 1147 2013 1200 
Q 950 1434 666 1628 
Q 272 1897 272 2375 
Q 272 2806 612 3100 
Q 953 3394 1669 3394 
Q 2350 3394 2681 3172 
Q 3013 2950 3138 2516 
L 2309 2363 
Q 2256 2556 2107 2659 
Q 1959 2763 1684 2763 
Q 1338 2763 1188 2666 
Q 1088 2597 1088 2488 
Q 1088 2394 1175 2328 
Q 1294 2241 1995 2081 
Q 2697 1922 2975 1691 
Q 3250 1456 3250 1038 
Q 3250 581 2869 253 
Q 2488 -75 1741 -75 
Q 1063 -75 667 200 
Q 272 475 150 947 
z
" transform="scale(0.015625)"/>
      <path id="Arial-BoldMT-76" d="M 1372 0 
L 34 3319 
L 956 3319 
L 1581 1625 
L 1763 1059 
Q 1834 1275 1853 1344 
Q 1897 1484 1947 1625 
L 2578 3319 
L 3481 3319 
L 2163 0 
L 1372 0 
z
" transform="scale(0.015625)"/>
      <path id="Arial-BoldMT-2e" d="M 459 0 
L 459 878 
L 1338 878 
L 1338 0 
L 459 0 
z
" transform="scale(0.015625)"/>
      <path id="Arial-BoldMT-53" d="M 231 1491 
L 1131 1578 
Q 1213 1125 1461 912 
Q 1709 700 2131 700 
Q 2578 700 2804 889 
Q 3031 1078 3031 1331 
Q 3031 1494 2936 1608 
Q 2841 1722 2603 1806 
Q 2441 1863 1863 2006 
Q 1119 2191 819 2459 
Q 397 2838 397 3381 
Q 397 3731 595 4036 
Q 794 4341 1167 4500 
Q 1541 4659 2069 4659 
Q 2931 4659 3367 4281 
Q 3803 3903 3825 3272 
L 2900 3231 
Q 2841 3584 2645 3739 
Q 2450 3894 2059 3894 
Q 1656 3894 1428 3728 
Q 1281 3622 1281 3444 
Q 1281 3281 1419 3166 
Q 1594 3019 2269 2859 
Q 2944 2700 3267 2529 
Q 3591 2359 3773 2064 
Q 3956 1769 3956 1334 
Q 3956 941 3737 597 
Q 3519 253 3119 86 
Q 2719 -81 2122 -81 
Q 1253 -81 787 320 
Q 322 722 231 1491 
z
" transform="scale(0.015625)"/>
      <path id="Arial-BoldMT-65" d="M 2381 1056 
L 3256 909 
Q 3088 428 2723 176 
Q 2359 -75 1813 -75 
Q 947 -75 531 491 
Q 203 944 203 1634 
Q 203 2459 634 2926 
Q 1066 3394 1725 3394 
Q 2466 3394 2894 2905 
Q 3322 2416 3303 1406 
L 1103 1406 
Q 1113 1016 1316 798 
Q 1519 581 1822 581 
Q 2028 581 2168 693 
Q 2309 806 2381 1056 
z
M 2431 1944 
Q 2422 2325 2234 2523 
Q 2047 2722 1778 2722 
Q 1491 2722 1303 2513 
Q 1116 2303 1119 1944 
L 2431 1944 
z
" transform="scale(0.015625)"/>
      <path id="Arial-BoldMT-71" d="M 2628 -1263 
L 2628 406 
Q 2456 184 2200 54 
Q 1944 -75 1647 -75 
Q 1081 -75 716 350 
Q 284 847 284 1697 
Q 284 2497 689 2945 
Q 1094 3394 1694 3394 
Q 2025 3394 2267 3253 
Q 2509 3113 2697 2828 
L 2697 3319 
L 3506 3319 
L 3506 -1263 
L 2628 -1263 
z
M 2656 1700 
Q 2656 2209 2448 2457 
Q 2241 2706 1928 2706 
Q 1609 2706 1395 2453 
Q 1181 2200 1181 1650 
Q 1181 1103 1387 861 
Q 1594 619 1897 619 
Q 2200 619 2428 891 
Q 2656 1163 2656 1700 
z
" transform="scale(0.015625)"/>
      <path id="Arial-BoldMT-63" d="M 3353 2338 
L 2488 2181 
Q 2444 2441 2289 2572 
Q 2134 2703 1888 2703 
Q 1559 2703 1364 2476 
Q 1169 2250 1169 1719 
Q 1169 1128 1367 884 
Q 1566 641 1900 641 
Q 2150 641 2309 783 
Q 2469 925 2534 1272 
L 3397 1125 
Q 3263 531 2881 228 
Q 2500 -75 1859 -75 
Q 1131 -75 698 384 
Q 266 844 266 1656 
Q 266 2478 700 2936 
Q 1134 3394 1875 3394 
Q 2481 3394 2839 3133 
Q 3197 2872 3353 2338 
z
" transform="scale(0.015625)"/>
      <path id="Arial-BoldMT-4c" d="M 491 0 
L 491 4544 
L 1416 4544 
L 1416 772 
L 3716 772 
L 3716 0 
L 491 0 
z
" transform="scale(0.015625)"/>
      <path id="Arial-BoldMT-67" d="M 378 -219 
L 1381 -341 
Q 1406 -516 1497 -581 
Q 1622 -675 1891 -675 
Q 2234 -675 2406 -572 
Q 2522 -503 2581 -350 
Q 2622 -241 2622 53 
L 2622 538 
Q 2228 0 1628 0 
Q 959 0 569 566 
Q 263 1013 263 1678 
Q 263 2513 664 2953 
Q 1066 3394 1663 3394 
Q 2278 3394 2678 2853 
L 2678 3319 
L 3500 3319 
L 3500 341 
Q 3500 -247 3403 -537 
Q 3306 -828 3131 -993 
Q 2956 -1159 2664 -1253 
Q 2372 -1347 1925 -1347 
Q 1081 -1347 728 -1058 
Q 375 -769 375 -325 
Q 375 -281 378 -219 
z
M 1163 1728 
Q 1163 1200 1367 954 
Q 1572 709 1872 709 
Q 2194 709 2416 961 
Q 2638 1213 2638 1706 
Q 2638 2222 2425 2472 
Q 2213 2722 1888 2722 
Q 1572 2722 1367 2476 
Q 1163 2231 1163 1728 
z
" transform="scale(0.015625)"/>
      <path id="Arial-BoldMT-68" d="M 1334 4581 
L 1334 2897 
Q 1759 3394 2350 3394 
Q 2653 3394 2897 3281 
Q 3141 3169 3264 2994 
Q 3388 2819 3433 2606 
Q 3478 2394 3478 1947 
L 3478 0 
L 2600 0 
L 2600 1753 
Q 2600 2275 2550 2415 
Q 2500 2556 2373 2639 
Q 2247 2722 2056 2722 
Q 1838 2722 1666 2615 
Q 1494 2509 1414 2295 
Q 1334 2081 1334 1663 
L 1334 0 
L 456 0 
L 456 4581 
L 1334 4581 
z
" transform="scale(0.015625)"/>
     </defs>
     <use xlink:href="#Arial-BoldMT-43"/>
     <use xlink:href="#Arial-BoldMT-6f" transform="translate(72.216797 0)"/>
     <use xlink:href="#Arial-BoldMT-6d" transform="translate(133.300781 0)"/>
     <use xlink:href="#Arial-BoldMT-70" transform="translate(222.216797 0)"/>
     <use xlink:href="#Arial-BoldMT-75" transform="translate(283.300781 0)"/>
     <use xlink:href="#Arial-BoldMT-74" transform="translate(344.384766 0)"/>
     <use xlink:href="#Arial-BoldMT-61" transform="translate(377.685547 0)"/>
     <use xlink:href="#Arial-BoldMT-74" transform="translate(433.300781 0)"/>
     <use xlink:href="#Arial-BoldMT-69" transform="translate(466.601562 0)"/>
     <use xlink:href="#Arial-BoldMT-6f" transform="translate(494.384766 0)"/>
     <use xlink:href="#Arial-BoldMT-6e" transform="translate(555.46875 0)"/>
     <use xlink:href="#Arial-BoldMT-61" transform="translate(616.552734 0)"/>
     <use xlink:href="#Arial-BoldMT-6c" transform="translate(672.167969 0)"/>
     <use xlink:href="#Arial-BoldMT-20" transform="translate(699.951172 0)"/>
     <use xlink:href="#Arial-BoldMT-43" transform="translate(727.734375 0)"/>
     <use xlink:href="#Arial-BoldMT-6f" transform="translate(799.951172 0)"/>
     <use xlink:href="#Arial-BoldMT-73" transform="translate(861.035156 0)"/>
     <use xlink:href="#Arial-BoldMT-74" transform="translate(916.650391 0)"/>
     <use xlink:href="#Arial-BoldMT-20" transform="translate(949.951172 0)"/>
     <use xlink:href="#Arial-BoldMT-76" transform="translate(977.734375 0)"/>
     <use xlink:href="#Arial-BoldMT-73" transform="translate(1033.349609 0)"/>
     <use xlink:href="#Arial-BoldMT-2e" transform="translate(1088.964844 0)"/>
     <use xlink:href="#Arial-BoldMT-20" transform="translate(1116.748047 0)"/>
     <use xlink:href="#Arial-BoldMT-53" transform="translate(1144.53125 0)"/>
     <use xlink:href="#Arial-BoldMT-65" transform="translate(1211.230469 0)"/>
     <use xlink:href="#Arial-BoldMT-71" transform="translate(1266.845703 0)"/>
     <use xlink:href="#Arial-BoldMT-75" transform="translate(1327.929688 0)"/>
     <use xlink:href="#Arial-BoldMT-65" transform="translate(1389.013672 0)"/>
     <use xlink:href="#Arial-BoldMT-6e" transform="translate(1444.628906 0)"/>
     <use xlink:href="#Arial-BoldMT-63" transform="translate(1505.712891 0)"/>
     <use xlink:href="#Arial-BoldMT-65" transform="translate(1561.328125 0)"/>
     <use xlink:href="#Arial-BoldMT-20" transform="translate(1616.943359 0)"/>
     <use xlink:href="#Arial-BoldMT-4c" transform="translate(1644.726562 0)"/>
     <use xlink:href="#Arial-BoldMT-65" transform="translate(1705.810547 0)"/>
     <use xlink:href="#Arial-BoldMT-6e" transform="translate(1761.425781 0)"/>
     <use xlink:href="#Arial-BoldMT-67" transform="translate(1822.509766 0)"/>
     <use xlink:href="#Arial-BoldMT-74" transform="translate(1883.59375 0)"/>
     <use xlink:href="#Arial-BoldMT-68" transform="translate(1916.894531 0)"/>
    </g>
   </g>
   <g id="legend_1">
    <g id="patch_5">
     <path d="M 54.629688 92.814375 
L 185.849687 92.814375 
Q 187.649687 92.814375 187.649687 91.014375 
L 187.649687 37.963594 
Q 187.649687 36.163594 185.849687 36.163594 
L 54.629688 36.163594 
Q 52.829688 36.163594 52.829688 37.963594 
L 52.829688 91.014375 
Q 52.829688 92.814375 54.629688 92.814375 
z
" style="fill: #f8f9fa; opacity: 0.9"/>
    </g>
    <g id="line2d_108">
     <path d="M 56.429688 44.274844 
L 65.429688 44.274844 
L 74.429688 44.274844 
" style="fill: none; stroke: #d4817a; stroke-width: 2.5; stroke-linecap: square"/>
    </g>
    <g id="text_17">
     <!-- Full Attention $O(n^2 d)$ -->
     <g transform="translate(81.629688 47.424844) scale(0.09 -0.09)">
      <defs>
       <path id="ArialMT-41" d="M -9 0 
L 1750 4581 
L 2403 4581 
L 4278 0 
L 3588 0 
L 3053 1388 
L 1138 1388 
L 634 0 
L -9 0 
z
M 1313 1881 
L 2866 1881 
L 2388 3150 
Q 2169 3728 2063 4100 
Q 1975 3659 1816 3225 
L 1313 1881 
z
" transform="scale(0.015625)"/>
       <path id="DejaVuSans-Oblique-4f" d="M 2919 4238 
Q 2400 4238 2003 3986 
Q 1606 3734 1313 3219 
Q 1125 2891 1026 2522 
Q 928 2153 928 1778 
Q 928 1128 1239 775 
Q 1550 422 2119 422 
Q 2631 422 3032 676 
Q 3434 931 3719 1434 
Q 3909 1772 4009 2142 
Q 4109 2513 4109 2881 
Q 4109 3528 3796 3883 
Q 3484 4238 2919 4238 
z
M 2100 -91 
Q 1241 -91 748 418 
Q 256 928 256 1813 
Q 256 2319 448 2847 
Q 641 3375 978 3788 
Q 1375 4272 1862 4511 
Q 2350 4750 2938 4750 
Q 3794 4750 4287 4245 
Q 4781 3741 4781 2869 
Q 4781 2331 4593 1812 
Q 4406 1294 4056 872 
Q 3656 384 3173 146 
Q 2691 -91 2100 -91 
z
" transform="scale(0.015625)"/>
       <path id="DejaVuSans-28" d="M 1984 4856 
Q 1566 4138 1362 3434 
Q 1159 2731 1159 2009 
Q 1159 1288 1364 580 
Q 1569 -128 1984 -844 
L 1484 -844 
Q 1016 -109 783 600 
Q 550 1309 550 2009 
Q 550 2706 781 3412 
Q 1013 4119 1484 4856 
L 1984 4856 
z
" transform="scale(0.015625)"/>
       <path id="DejaVuSans-32" d="M 1228 531 
L 3431 531 
L 3431 0 
L 469 0 
L 469 531 
Q 828 903 1448 1529 
Q 2069 2156 2228 2338 
Q 2531 2678 2651 2914 
Q 2772 3150 2772 3378 
Q 2772 3750 2511 3984 
Q 2250 4219 1831 4219 
Q 1534 4219 1204 4116 
Q 875 4013 500 3803 
L 500 4441 
Q 881 4594 1212 4672 
Q 1544 4750 1819 4750 
Q 2544 4750 2975 4387 
Q 3406 4025 3406 3419 
Q 3406 3131 3298 2873 
Q 3191 2616 2906 2266 
Q 2828 2175 2409 1742 
Q 1991 1309 1228 531 
z
" transform="scale(0.015625)"/>
       <path id="DejaVuSans-Oblique-64" d="M 2675 525 
Q 2444 222 2128 65 
Q 1813 -91 1428 -91 
Q 903 -91 598 267 
Q 294 625 294 1247 
Q 294 1766 478 2236 
Q 663 2706 1013 3078 
Q 1244 3325 1534 3454 
Q 1825 3584 2144 3584 
Q 2481 3584 2739 3421 
Q 2997 3259 3138 2956 
L 3513 4863 
L 4091 4863 
L 3144 0 
L 2566 0 
L 2675 525 
z
M 891 1350 
Q 891 897 1095 644 
Q 1300 391 1663 391 
Q 1931 391 2161 520 
Q 2391 650 2566 903 
Q 2750 1166 2856 1509 
Q 2963 1853 2963 2188 
Q 2963 2622 2758 2865 
Q 2553 3109 2194 3109 
Q 1922 3109 1687 2981 
Q 1453 2853 1288 2613 
Q 1106 2353 998 2009 
Q 891 1666 891 1350 
z
" transform="scale(0.015625)"/>
       <path id="DejaVuSans-29" d="M 513 4856 
L 1013 4856 
Q 1481 4119 1714 3412 
Q 1947 2706 1947 2009 
Q 1947 1309 1714 600 
Q 1481 -109 1013 -844 
L 513 -844 
Q 928 -128 1133 580 
Q 1338 1288 1338 2009 
Q 1338 2731 1133 3434 
Q 928 4138 513 4856 
z
" transform="scale(0.015625)"/>
      </defs>
      <use xlink:href="#ArialMT-46" transform="translate(0 0.765625)"/>
      <use xlink:href="#ArialMT-75" transform="translate(61.083984 0.765625)"/>
      <use xlink:href="#ArialMT-6c" transform="translate(116.699219 0.765625)"/>
      <use xlink:href="#ArialMT-6c" transform="translate(138.916016 0.765625)"/>
      <use xlink:href="#ArialMT-20" transform="translate(161.132812 0.765625)"/>
      <use xlink:href="#ArialMT-41" transform="translate(188.916016 0.765625)"/>
      <use xlink:href="#ArialMT-74" transform="translate(255.615234 0.765625)"/>
      <use xlink:href="#ArialMT-74" transform="translate(283.398438 0.765625)"/>
      <use xlink:href="#ArialMT-65" transform="translate(311.181641 0.765625)"/>
      <use xlink:href="#ArialMT-6e" transform="translate(366.796875 0.765625)"/>
      <use xlink:href="#ArialMT-74" transform="translate(422.412109 0.765625)"/>
      <use xlink:href="#ArialMT-69" transform="translate(450.195312 0.765625)"/>
      <use xlink:href="#ArialMT-6f" transform="translate(472.412109 0.765625)"/>
      <use xlink:href="#ArialMT-6e" transform="translate(528.027344 0.765625)"/>
      <use xlink:href="#ArialMT-20" transform="translate(583.642578 0.765625)"/>
      <use xlink:href="#DejaVuSans-Oblique-4f" transform="translate(611.425781 0.765625)"/>
      <use xlink:href="#DejaVuSans-28" transform="translate(690.136719 0.765625)"/>
      <use xlink:href="#DejaVuSans-Oblique-6e" transform="translate(729.150391 0.765625)"/>
      <use xlink:href="#DejaVuSans-32" transform="translate(797.179193 39.046875) scale(0.7)"/>
      <use xlink:href="#DejaVuSans-Oblique-64" transform="translate(844.449701 0.765625)"/>
      <use xlink:href="#DejaVuSans-29" transform="translate(907.926263 0.765625)"/>
     </g>
    </g>
    <g id="line2d_109">
     <path d="M 56.429688 57.403594 
L 65.429688 57.403594 
L 74.429688 57.403594 
" style="fill: none; stroke: #6c9bc2; stroke-width: 2; stroke-linecap: square"/>
    </g>
    <g id="text_18">
     <!-- Longformer $O(n \cdot w)$ -->
     <g transform="translate(81.629688 60.553594) scale(0.09 -0.09)">
      <defs>
       <path id="ArialMT-66" d="M 556 0 
L 556 2881 
L 59 2881 
L 59 3319 
L 556 3319 
L 556 3672 
Q 556 4006 616 4169 
Q 697 4388 901 4523 
Q 1106 4659 1475 4659 
Q 1713 4659 2000 4603 
L 1916 4113 
Q 1741 4144 1584 4144 
Q 1328 4144 1222 4034 
Q 1116 3925 1116 3625 
L 1116 3319 
L 1763 3319 
L 1763 2881 
L 1116 2881 
L 1116 0 
L 556 0 
z
" transform="scale(0.015625)"/>
       <path id="ArialMT-72" d="M 416 0 
L 416 3319 
L 922 3319 
L 922 2816 
Q 1116 3169 1280 3281 
Q 1444 3394 1641 3394 
Q 1925 3394 2219 3213 
L 2025 2691 
Q 1819 2813 1613 2813 
Q 1428 2813 1281 2702 
Q 1134 2591 1072 2394 
Q 978 2094 978 1738 
L 978 0 
L 416 0 
z
" transform="scale(0.015625)"/>
       <path id="ArialMT-6d" d="M 422 0 
L 422 3319 
L 925 3319 
L 925 2853 
Q 1081 3097 1340 3245 
Q 1600 3394 1931 3394 
Q 2300 3394 2536 3241 
Q 2772 3088 2869 2813 
Q 3263 3394 3894 3394 
Q 4388 3394 4653 3120 
Q 4919 2847 4919 2278 
L 4919 0 
L 4359 0 
L 4359 2091 
Q 4359 2428 4304 2576 
Q 4250 2725 4106 2815 
Q 3963 2906 3769 2906 
Q 3419 2906 3187 2673 
Q 2956 2441 2956 1928 
L 2956 0 
L 2394 0 
L 2394 2156 
Q 2394 2531 2256 2718 
Q 2119 2906 1806 2906 
Q 1569 2906 1367 2781 
Q 1166 2656 1075 2415 
Q 984 2175 984 1722 
L 984 0 
L 422 0 
z
" transform="scale(0.015625)"/>
       <path id="DejaVuSans-22c5" d="M 684 2619 
L 1344 2619 
L 1344 1825 
L 684 1825 
L 684 2619 
z
" transform="scale(0.015625)"/>
       <path id="DejaVuSans-Oblique-77" d="M 544 3500 
L 1113 3500 
L 1259 684 
L 2566 3500 
L 3231 3500 
L 3425 684 
L 4666 3500 
L 5241 3500 
L 3641 0 
L 2969 0 
L 2797 2900 
L 1459 0 
L 781 0 
L 544 3500 
z
" transform="scale(0.015625)"/>
      </defs>
      <use xlink:href="#ArialMT-4c" transform="translate(0 0.125)"/>
      <use xlink:href="#ArialMT-6f" transform="translate(55.615234 0.125)"/>
      <use xlink:href="#ArialMT-6e" transform="translate(111.230469 0.125)"/>
      <use xlink:href="#ArialMT-67" transform="translate(166.845703 0.125)"/>
      <use xlink:href="#ArialMT-66" transform="translate(222.460938 0.125)"/>
      <use xlink:href="#ArialMT-6f" transform="translate(250.244141 0.125)"/>
      <use xlink:href="#ArialMT-72" transform="translate(305.859375 0.125)"/>
      <use xlink:href="#ArialMT-6d" transform="translate(339.160156 0.125)"/>
      <use xlink:href="#ArialMT-65" transform="translate(422.460938 0.125)"/>
      <use xlink:href="#ArialMT-72" transform="translate(478.076172 0.125)"/>
      <use xlink:href="#ArialMT-20" transform="translate(511.376953 0.125)"/>
      <use xlink:href="#DejaVuSans-Oblique-4f" transform="translate(539.160156 0.125)"/>
      <use xlink:href="#DejaVuSans-28" transform="translate(617.871094 0.125)"/>
      <use xlink:href="#DejaVuSans-Oblique-6e" transform="translate(656.884766 0.125)"/>
      <use xlink:href="#DejaVuSans-22c5" transform="translate(739.746094 0.125)"/>
      <use xlink:href="#DejaVuSans-Oblique-77" transform="translate(791.015625 0.125)"/>
      <use xlink:href="#DejaVuSans-29" transform="translate(872.802734 0.125)"/>
     </g>
    </g>
    <g id="line2d_110">
     <path d="M 56.429688 70.325625 
L 65.429688 70.325625 
L 74.429688 70.325625 
" style="fill: none; stroke-dasharray: 6.66,2.88; stroke-dashoffset: 0; stroke: #e8a87c; stroke-width: 1.8"/>
    </g>
    <g id="text_19">
     <!-- Linformer $O(n \cdot k)$ -->
     <g transform="translate(81.629688 73.475625) scale(0.09 -0.09)">
      <defs>
       <path id="DejaVuSans-Oblique-6b" d="M 1172 4863 
L 1747 4863 
L 1197 2028 
L 3169 3500 
L 3916 3500 
L 1716 1825 
L 3322 0 
L 2625 0 
L 1131 1709 
L 800 0 
L 225 0 
L 1172 4863 
z
" transform="scale(0.015625)"/>
      </defs>
      <use xlink:href="#ArialMT-4c" transform="translate(0 0.015625)"/>
      <use xlink:href="#ArialMT-69" transform="translate(55.615234 0.015625)"/>
      <use xlink:href="#ArialMT-6e" transform="translate(77.832031 0.015625)"/>
      <use xlink:href="#ArialMT-66" transform="translate(133.447266 0.015625)"/>
      <use xlink:href="#ArialMT-6f" transform="translate(161.230469 0.015625)"/>
      <use xlink:href="#ArialMT-72" transform="translate(216.845703 0.015625)"/>
      <use xlink:href="#ArialMT-6d" transform="translate(250.146484 0.015625)"/>
      <use xlink:href="#ArialMT-65" transform="translate(333.447266 0.015625)"/>
      <use xlink:href="#ArialMT-72" transform="translate(389.0625 0.015625)"/>
      <use xlink:href="#ArialMT-20" transform="translate(422.363281 0.015625)"/>
      <use xlink:href="#DejaVuSans-Oblique-4f" transform="translate(450.146484 0.015625)"/>
      <use xlink:href="#DejaVuSans-28" transform="translate(528.857422 0.015625)"/>
      <use xlink:href="#DejaVuSans-Oblique-6e" transform="translate(567.871094 0.015625)"/>
      <use xlink:href="#DejaVuSans-22c5" transform="translate(650.732422 0.015625)"/>
      <use xlink:href="#DejaVuSans-Oblique-6b" transform="translate(702.001953 0.015625)"/>
      <use xlink:href="#DejaVuSans-29" transform="translate(759.912109 0.015625)"/>
     </g>
    </g>
    <g id="line2d_111">
     <path d="M 56.429688 84.275625 
L 65.429688 84.275625 
L 74.429688 84.275625 
" style="fill: none; stroke: #7fb685; stroke-width: 2; stroke-linecap: square"/>
    </g>
    <g id="text_20">
     <!-- Linear Attention $O(n \cdot d^2)$ -->
     <g transform="translate(81.629688 87.425625) scale(0.09 -0.09)">
      <use xlink:href="#ArialMT-4c" transform="translate(0 0.765625)"/>
      <use xlink:href="#ArialMT-69" transform="translate(55.615234 0.765625)"/>
      <use xlink:href="#ArialMT-6e" transform="translate(77.832031 0.765625)"/>
      <use xlink:href="#ArialMT-65" transform="translate(133.447266 0.765625)"/>
      <use xlink:href="#ArialMT-61" transform="translate(189.0625 0.765625)"/>
      <use xlink:href="#ArialMT-72" transform="translate(244.677734 0.765625)"/>
      <use xlink:href="#ArialMT-20" transform="translate(277.978516 0.765625)"/>
      <use xlink:href="#ArialMT-41" transform="translate(305.761719 0.765625)"/>
      <use xlink:href="#ArialMT-74" transform="translate(372.460938 0.765625)"/>
      <use xlink:href="#ArialMT-74" transform="translate(400.244141 0.765625)"/>
      <use xlink:href="#ArialMT-65" transform="translate(428.027344 0.765625)"/>
      <use xlink:href="#ArialMT-6e" transform="translate(483.642578 0.765625)"/>
      <use xlink:href="#ArialMT-74" transform="translate(539.257812 0.765625)"/>
      <use xlink:href="#ArialMT-69" transform="translate(567.041016 0.765625)"/>
      <use xlink:href="#ArialMT-6f" transform="translate(589.257812 0.765625)"/>
      <use xlink:href="#ArialMT-6e" transform="translate(644.873047 0.765625)"/>
      <use xlink:href="#ArialMT-20" transform="translate(700.488281 0.765625)"/>
      <use xlink:href="#DejaVuSans-Oblique-4f" transform="translate(728.271484 0.765625)"/>
      <use xlink:href="#DejaVuSans-28" transform="translate(806.982422 0.765625)"/>
      <use xlink:href="#DejaVuSans-Oblique-6e" transform="translate(845.996094 0.765625)"/>
      <use xlink:href="#DejaVuSans-22c5" transform="translate(928.857422 0.765625)"/>
      <use xlink:href="#DejaVuSans-Oblique-64" transform="translate(980.126953 0.765625)"/>
      <use xlink:href="#DejaVuSans-32" transform="translate(1051.051224 39.046875) scale(0.7)"/>
      <use xlink:href="#DejaVuSans-29" transform="translate(1098.321732 0.765625)"/>
     </g>
    </g>
   </g>
  </g>
 </g>
 <defs>
  <clipPath id="p86ee6c6f27">
   <rect x="48.329688" y="31.663594" width="514.510039" height="275.566625"/>
  </clipPath>
 </defs>
</svg>
