<?xml version="1.0" encoding="UTF-8"?>
<svg xmlns="http://www.w3.org/2000/svg" xmlns:xlink="http://www.w3.org/1999/xlink" width="314.947469" height="226.237508" viewBox="0 0 314.947469 226.237508" version="1.1">
<defs>
<clipPath id="clip1">
  <path d="M 51 9.601562 L 53 9.601562 L 53 194.398438 L 51 194.398438 Z M 51 9.601562 "/>
</clipPath>
<clipPath id="clip2">
  <path d="M 132 9.601562 L 135 9.601562 L 135 194.398438 L 132 194.398438 Z M 132 9.601562 "/>
</clipPath>
<clipPath id="clip3">
  <path d="M 214 9.601562 L 216 9.601562 L 216 194.398438 L 214 194.398438 Z M 214 9.601562 "/>
</clipPath>
<clipPath id="clip4">
  <path d="M 296 9.601562 L 298 9.601562 L 298 194.398438 L 296 194.398438 Z M 296 9.601562 "/>
</clipPath>
<clipPath id="clip5">
  <path d="M 40.136719 191 L 300.539062 191 L 300.539062 193 L 40.136719 193 Z M 40.136719 191 "/>
</clipPath>
<clipPath id="clip6">
  <path d="M 40.136719 133 L 300.539062 133 L 300.539062 135 L 40.136719 135 Z M 40.136719 133 "/>
</clipPath>
<clipPath id="clip7">
  <path d="M 40.136719 75 L 300.539062 75 L 300.539062 77 L 40.136719 77 Z M 40.136719 75 "/>
</clipPath>
<clipPath id="clip8">
  <path d="M 40.136719 17 L 300.539062 17 L 300.539062 19 L 40.136719 19 Z M 40.136719 17 "/>
</clipPath>
</defs>
<g id="surface1">
<path style=" stroke:none;fill-rule:nonzero;fill:rgb(100%,100%,100%);fill-opacity:1;" d="M 0 226.238281 L 314.949219 226.238281 L 314.949219 0 L 0 0 Z M 0 226.238281 "/>
<path style=" stroke:none;fill-rule:nonzero;fill:rgb(100%,100%,100%);fill-opacity:1;" d="M 40.136719 194.398438 L 300.539062 194.398438 L 300.539062 9.601562 L 40.136719 9.601562 Z M 40.136719 194.398438 "/>
<g clip-path="url(#clip1)" clip-rule="nonzero">
<path style="fill:none;stroke-width:0.8;stroke-linecap:square;stroke-linejoin:round;stroke:rgb(69.01961%,69.01961%,69.01961%);stroke-opacity:1;stroke-miterlimit:4;" d="M 38.979492 145.798828 L 38.979492 7.201172 " transform="matrix(1.333333,0,0,1.333333,0,0.000000000000014211)"/>
</g>
<path style="fill:none;stroke-width:0.8;stroke-linecap:butt;stroke-linejoin:round;stroke:rgb(0%,0%,0%);stroke-opacity:1;stroke-miterlimit:4;" d="M -0.000904083 -0.00117493 L -0.000904083 3.499802 " transform="matrix(1.333333,0,0,1.333333,51.973862,194.400004)"/>
<path style=" stroke:none;fill-rule:nonzero;fill:rgb(0%,0%,0%);fill-opacity:1;" d="M 51.96875 205.011719 C 51.292969 205.011719 50.785156 205.34375 50.441406 206.011719 C 50.101562 206.675781 49.933594 207.675781 49.933594 209.015625 C 49.933594 210.347656 50.101562 211.347656 50.441406 212.011719 C 50.785156 212.679688 51.292969 213.011719 51.96875 213.011719 C 52.652344 213.011719 53.164062 212.679688 53.503906 212.011719 C 53.84375 211.347656 54.015625 210.347656 54.015625 209.015625 C 54.015625 207.675781 53.84375 206.675781 53.503906 206.011719 C 53.164062 205.34375 52.652344 205.011719 51.96875 205.011719 Z M 51.96875 203.96875 C 53.058594 203.96875 53.894531 204.398438 54.46875 205.261719 C 55.042969 206.125 55.332031 207.375 55.332031 209.015625 C 55.332031 210.652344 55.042969 211.898438 54.46875 212.761719 C 53.894531 213.625 53.058594 214.054688 51.96875 214.054688 C 50.878906 214.054688 50.050781 213.625 49.472656 212.761719 C 48.898438 211.898438 48.613281 210.652344 48.613281 209.015625 C 48.613281 207.375 48.898438 206.125 49.472656 205.261719 C 50.050781 204.398438 50.878906 203.96875 51.96875 203.96875 Z M 51.96875 203.96875 "/>
<g clip-path="url(#clip2)" clip-rule="nonzero">
<path style="fill:none;stroke-width:0.8;stroke-linecap:square;stroke-linejoin:round;stroke:rgb(69.01961%,69.01961%,69.01961%);stroke-opacity:1;stroke-miterlimit:4;" d="M 100.204102 145.798828 L 100.204102 7.201172 " transform="matrix(1.333333,0,0,1.333333,0,0.000000000000014211)"/>
</g>
<path style="fill:none;stroke-width:0.8;stroke-linecap:butt;stroke-linejoin:round;stroke:rgb(0%,0%,0%);stroke-opacity:1;stroke-miterlimit:4;" d="M 0.00113678 -0.00117493 L 0.00113678 3.499802 " transform="matrix(1.333333,0,0,1.333333,133.603953,194.400004)"/>
<path style=" stroke:none;fill-rule:nonzero;fill:rgb(0%,0%,0%);fill-opacity:1;" d="M 126.773438 212.757812 L 128.921875 212.757812 L 128.921875 205.339844 L 126.585938 205.808594 L 126.585938 204.613281 L 128.910156 204.144531 L 130.226562 204.144531 L 130.226562 212.757812 L 132.371094 212.757812 L 132.371094 213.863281 L 126.773438 213.863281 Z M 126.773438 212.757812 "/>
<path style=" stroke:none;fill-rule:nonzero;fill:rgb(0%,0%,0%);fill-opacity:1;" d="M 137.839844 205.011719 C 137.164062 205.011719 136.65625 205.34375 136.3125 206.011719 C 135.972656 206.675781 135.804688 207.675781 135.804688 209.015625 C 135.804688 210.347656 135.972656 211.347656 136.3125 212.011719 C 136.65625 212.679688 137.164062 213.011719 137.839844 213.011719 C 138.523438 213.011719 139.035156 212.679688 139.375 212.011719 C 139.714844 211.347656 139.886719 210.347656 139.886719 209.015625 C 139.886719 207.675781 139.714844 206.675781 139.375 206.011719 C 139.035156 205.34375 138.523438 205.011719 137.839844 205.011719 Z M 137.839844 203.96875 C 138.929688 203.96875 139.765625 204.398438 140.339844 205.261719 C 140.914062 206.125 141.203125 207.375 141.203125 209.015625 C 141.203125 210.652344 140.914062 211.898438 140.339844 212.761719 C 139.765625 213.625 138.929688 214.054688 137.839844 214.054688 C 136.753906 214.054688 135.921875 213.625 135.34375 212.761719 C 134.769531 211.898438 134.484375 210.652344 134.484375 209.015625 C 134.484375 207.375 134.769531 206.125 135.34375 205.261719 C 135.921875 204.398438 136.753906 203.96875 137.839844 203.96875 Z M 137.839844 203.96875 "/>
<g clip-path="url(#clip3)" clip-rule="nonzero">
<path style="fill:none;stroke-width:0.8;stroke-linecap:square;stroke-linejoin:round;stroke:rgb(69.01961%,69.01961%,69.01961%);stroke-opacity:1;stroke-miterlimit:4;" d="M 161.425781 145.798828 L 161.425781 7.201172 " transform="matrix(1.333333,0,0,1.333333,0,0.000000000000014211)"/>
</g>
<path style="fill:none;stroke-width:0.8;stroke-linecap:butt;stroke-linejoin:round;stroke:rgb(0%,0%,0%);stroke-opacity:1;stroke-miterlimit:4;" d="M 0.000244141 -0.00117493 L 0.000244141 3.499802 " transform="matrix(1.333333,0,0,1.333333,215.234049,194.400004)"/>
<path style=" stroke:none;fill-rule:nonzero;fill:rgb(0%,0%,0%);fill-opacity:1;" d="M 209.308594 212.757812 L 213.898438 212.757812 L 213.898438 213.863281 L 207.726562 213.863281 L 207.726562 212.757812 C 208.226562 212.242188 208.90625 211.546875 209.765625 210.679688 C 210.628906 209.808594 211.171875 209.246094 211.390625 208.992188 C 211.8125 208.523438 212.105469 208.121094 212.273438 207.792969 C 212.441406 207.464844 212.527344 207.144531 212.527344 206.828125 C 212.527344 206.308594 212.34375 205.890625 211.980469 205.566406 C 211.621094 205.238281 211.148438 205.074219 210.566406 205.074219 C 210.152344 205.074219 209.71875 205.148438 209.257812 205.289062 C 208.800781 205.433594 208.3125 205.648438 207.792969 205.941406 L 207.792969 204.613281 C 208.320312 204.398438 208.816406 204.238281 209.277344 204.132812 C 209.738281 204.023438 210.160156 203.96875 210.539062 203.96875 C 211.546875 203.96875 212.351562 204.222656 212.949219 204.726562 C 213.546875 205.226562 213.847656 205.898438 213.847656 206.742188 C 213.847656 207.140625 213.773438 207.519531 213.621094 207.878906 C 213.472656 208.234375 213.199219 208.65625 212.804688 209.144531 C 212.695312 209.269531 212.351562 209.632812 211.769531 210.234375 C 211.1875 210.835938 210.367188 211.679688 209.308594 212.757812 Z M 209.308594 212.757812 "/>
<path style=" stroke:none;fill-rule:nonzero;fill:rgb(0%,0%,0%);fill-opacity:1;" d="M 219.472656 205.011719 C 218.792969 205.011719 218.285156 205.34375 217.945312 206.011719 C 217.605469 206.675781 217.433594 207.675781 217.433594 209.015625 C 217.433594 210.347656 217.605469 211.347656 217.945312 212.011719 C 218.285156 212.679688 218.792969 213.011719 219.472656 213.011719 C 220.152344 213.011719 220.664062 212.679688 221.003906 212.011719 C 221.347656 211.347656 221.515625 210.347656 221.515625 209.015625 C 221.515625 207.675781 221.347656 206.675781 221.003906 206.011719 C 220.664062 205.34375 220.152344 205.011719 219.472656 205.011719 Z M 219.472656 203.96875 C 220.5625 203.96875 221.394531 204.398438 221.96875 205.261719 C 222.542969 206.125 222.832031 207.375 222.832031 209.015625 C 222.832031 210.652344 222.542969 211.898438 221.96875 212.761719 C 221.394531 213.625 220.5625 214.054688 219.472656 214.054688 C 218.382812 214.054688 217.550781 213.625 216.976562 212.761719 C 216.402344 211.898438 216.113281 210.652344 216.113281 209.015625 C 216.113281 207.375 216.402344 206.125 216.976562 205.261719 C 217.550781 204.398438 218.382812 203.96875 219.472656 203.96875 Z M 219.472656 203.96875 "/>
<g clip-path="url(#clip4)" clip-rule="nonzero">
<path style="fill:none;stroke-width:0.8;stroke-linecap:square;stroke-linejoin:round;stroke:rgb(69.01961%,69.01961%,69.01961%);stroke-opacity:1;stroke-miterlimit:4;" d="M 222.647461 145.798828 L 222.647461 7.201172 " transform="matrix(1.333333,0,0,1.333333,0,0.000000000000014211)"/>
</g>
<path style="fill:none;stroke-width:0.8;stroke-linecap:butt;stroke-linejoin:round;stroke:rgb(0%,0%,0%);stroke-opacity:1;stroke-miterlimit:4;" d="M -0.000640869 -0.00117493 L -0.000640869 3.499802 " transform="matrix(1.333333,0,0,1.333333,296.864136,194.400004)"/>
<path style=" stroke:none;fill-rule:nonzero;fill:rgb(0%,0%,0%);fill-opacity:1;" d="M 293.792969 208.621094 C 294.421875 208.757812 294.910156 209.039062 295.265625 209.464844 C 295.617188 209.890625 295.796875 210.414062 295.796875 211.039062 C 295.796875 211.996094 295.464844 212.742188 294.804688 213.265625 C 294.144531 213.792969 293.207031 214.054688 291.992188 214.054688 C 291.585938 214.054688 291.167969 214.015625 290.734375 213.933594 C 290.304688 213.851562 289.855469 213.730469 289.398438 213.570312 L 289.398438 212.300781 C 289.761719 212.515625 290.160156 212.675781 290.59375 212.785156 C 291.027344 212.890625 291.480469 212.945312 291.957031 212.945312 C 292.78125 212.945312 293.40625 212.785156 293.839844 212.457031 C 294.269531 212.132812 294.488281 211.660156 294.488281 211.039062 C 294.488281 210.464844 294.285156 210.019531 293.886719 209.695312 C 293.484375 209.371094 292.925781 209.210938 292.210938 209.210938 L 291.078125 209.210938 L 291.078125 208.128906 L 292.261719 208.128906 C 292.90625 208.128906 293.402344 208 293.746094 207.742188 C 294.089844 207.484375 294.261719 207.109375 294.261719 206.625 C 294.261719 206.125 294.082031 205.742188 293.730469 205.476562 C 293.375 205.210938 292.871094 205.074219 292.210938 205.074219 C 291.847656 205.074219 291.460938 205.113281 291.050781 205.195312 C 290.636719 205.273438 290.183594 205.390625 289.6875 205.554688 L 289.6875 204.386719 C 290.1875 204.246094 290.65625 204.140625 291.09375 204.074219 C 291.53125 204.003906 291.941406 203.96875 292.328125 203.96875 C 293.324219 203.96875 294.113281 204.195312 294.695312 204.648438 C 295.277344 205.101562 295.566406 205.714844 295.566406 206.488281 C 295.566406 207.027344 295.414062 207.480469 295.105469 207.851562 C 294.796875 208.222656 294.359375 208.480469 293.792969 208.621094 Z M 293.792969 208.621094 "/>
<path style=" stroke:none;fill-rule:nonzero;fill:rgb(0%,0%,0%);fill-opacity:1;" d="M 301.101562 205.011719 C 300.425781 205.011719 299.914062 205.34375 299.574219 206.011719 C 299.234375 206.675781 299.0625 207.675781 299.0625 209.015625 C 299.0625 210.347656 299.234375 211.347656 299.574219 212.011719 C 299.914062 212.679688 300.425781 213.011719 301.101562 213.011719 C 301.785156 213.011719 302.292969 212.679688 302.632812 212.011719 C 302.976562 211.347656 303.148438 210.347656 303.148438 209.015625 C 303.148438 207.675781 302.976562 206.675781 302.632812 206.011719 C 302.292969 205.34375 301.785156 205.011719 301.101562 205.011719 Z M 301.101562 203.96875 C 302.191406 203.96875 303.023438 204.398438 303.597656 205.261719 C 304.175781 206.125 304.460938 207.375 304.460938 209.015625 C 304.460938 210.652344 304.175781 211.898438 303.597656 212.761719 C 303.023438 213.625 302.191406 214.054688 301.101562 214.054688 C 300.011719 214.054688 299.179688 213.625 298.605469 212.761719 C 298.03125 211.898438 297.742188 210.652344 297.742188 209.015625 C 297.742188 207.375 298.03125 206.125 298.605469 205.261719 C 299.179688 204.398438 300.011719 203.96875 301.101562 203.96875 Z M 301.101562 203.96875 "/>
<g clip-path="url(#clip5)" clip-rule="nonzero">
<path style="fill:none;stroke-width:0.8;stroke-linecap:square;stroke-linejoin:round;stroke:rgb(69.01961%,69.01961%,69.01961%);stroke-opacity:1;stroke-miterlimit:4;" d="M 30.102539 143.844727 L 225.404297 143.844727 " transform="matrix(1.333333,0,0,1.333333,0,0.000000000000014211)"/>
</g>
<path style="fill:none;stroke-width:0.8;stroke-linecap:butt;stroke-linejoin:round;stroke:rgb(0%,0%,0%);stroke-opacity:1;stroke-miterlimit:4;" d="M -0.000585556 -0.000106812 L -3.498632 -0.000106812 " transform="matrix(1.333333,0,0,1.333333,40.137499,191.793111)"/>
<path style=" stroke:none;fill-rule:nonzero;fill:rgb(0%,0%,0%);fill-opacity:1;" d="M 13.835938 188.003906 C 13.160156 188.003906 12.652344 188.335938 12.308594 189.003906 C 11.96875 189.667969 11.800781 190.671875 11.800781 192.007812 C 11.800781 193.339844 11.96875 194.339844 12.308594 195.007812 C 12.652344 195.671875 13.160156 196.007812 13.835938 196.007812 C 14.519531 196.007812 15.03125 195.671875 15.371094 195.007812 C 15.710938 194.339844 15.882812 193.339844 15.882812 192.007812 C 15.882812 190.671875 15.710938 189.667969 15.371094 189.003906 C 15.03125 188.335938 14.519531 188.003906 13.835938 188.003906 Z M 13.835938 186.960938 C 14.929688 186.960938 15.761719 187.394531 16.335938 188.257812 C 16.910156 189.117188 17.199219 190.367188 17.199219 192.007812 C 17.199219 193.644531 16.910156 194.894531 16.335938 195.757812 C 15.761719 196.617188 14.929688 197.046875 13.835938 197.046875 C 12.75 197.046875 11.917969 196.617188 11.339844 195.757812 C 10.765625 194.894531 10.480469 193.644531 10.480469 192.007812 C 10.480469 190.367188 10.765625 189.117188 11.339844 188.257812 C 11.917969 187.394531 12.75 186.960938 13.835938 186.960938 Z M 13.835938 186.960938 "/>
<path style=" stroke:none;fill-rule:nonzero;fill:rgb(0%,0%,0%);fill-opacity:1;" d="M 19.507812 195.203125 L 20.882812 195.203125 L 20.882812 196.859375 L 19.507812 196.859375 Z M 19.507812 195.203125 "/>
<path style=" stroke:none;fill-rule:nonzero;fill:rgb(0%,0%,0%);fill-opacity:1;" d="M 26.558594 188.003906 C 25.882812 188.003906 25.375 188.335938 25.03125 189.003906 C 24.691406 189.667969 24.519531 190.671875 24.519531 192.007812 C 24.519531 193.339844 24.691406 194.339844 25.03125 195.007812 C 25.375 195.671875 25.882812 196.007812 26.558594 196.007812 C 27.242188 196.007812 27.75 195.671875 28.09375 195.007812 C 28.433594 194.339844 28.605469 193.339844 28.605469 192.007812 C 28.605469 190.671875 28.433594 189.667969 28.09375 189.003906 C 27.75 188.335938 27.242188 188.003906 26.558594 188.003906 Z M 26.558594 186.960938 C 27.648438 186.960938 28.480469 187.394531 29.058594 188.257812 C 29.632812 189.117188 29.917969 190.367188 29.917969 192.007812 C 29.917969 193.644531 29.632812 194.894531 29.058594 195.757812 C 28.480469 196.617188 27.648438 197.046875 26.558594 197.046875 C 25.46875 197.046875 24.636719 196.617188 24.0625 195.757812 C 23.488281 194.894531 23.199219 193.644531 23.199219 192.007812 C 23.199219 190.367188 23.488281 189.117188 24.0625 188.257812 C 24.636719 187.394531 25.46875 186.960938 26.558594 186.960938 Z M 26.558594 186.960938 "/>
<g clip-path="url(#clip6)" clip-rule="nonzero">
<path style="fill:none;stroke-width:0.8;stroke-linecap:square;stroke-linejoin:round;stroke:rgb(69.01961%,69.01961%,69.01961%);stroke-opacity:1;stroke-miterlimit:4;" d="M 30.102539 100.397461 L 225.404297 100.397461 " transform="matrix(1.333333,0,0,1.333333,0,0.000000000000014211)"/>
</g>
<path style="fill:none;stroke-width:0.8;stroke-linecap:butt;stroke-linejoin:round;stroke:rgb(0%,0%,0%);stroke-opacity:1;stroke-miterlimit:4;" d="M -0.000585556 0.000907898 L -3.498632 0.000907898 " transform="matrix(1.333333,0,0,1.333333,40.137499,133.862071)"/>
<path style=" stroke:none;fill-rule:nonzero;fill:rgb(0%,0%,0%);fill-opacity:1;" d="M 13.835938 130.074219 C 13.160156 130.074219 12.652344 130.40625 12.308594 131.074219 C 11.96875 131.738281 11.800781 132.738281 11.800781 134.078125 C 11.800781 135.410156 11.96875 136.410156 12.308594 137.074219 C 12.652344 137.742188 13.160156 138.074219 13.835938 138.074219 C 14.519531 138.074219 15.03125 137.742188 15.371094 137.074219 C 15.710938 136.410156 15.882812 135.410156 15.882812 134.078125 C 15.882812 132.738281 15.710938 131.738281 15.371094 131.074219 C 15.03125 130.40625 14.519531 130.074219 13.835938 130.074219 Z M 13.835938 129.03125 C 14.929688 129.03125 15.761719 129.464844 16.335938 130.324219 C 16.910156 131.1875 17.199219 132.4375 17.199219 134.078125 C 17.199219 135.714844 16.910156 136.964844 16.335938 137.824219 C 15.761719 138.6875 14.929688 139.117188 13.835938 139.117188 C 12.75 139.117188 11.917969 138.6875 11.339844 137.824219 C 10.765625 136.964844 10.480469 135.714844 10.480469 134.078125 C 10.480469 132.4375 10.765625 131.1875 11.339844 130.324219 C 11.917969 129.464844 12.75 129.03125 13.835938 129.03125 Z M 13.835938 129.03125 "/>
<path style=" stroke:none;fill-rule:nonzero;fill:rgb(0%,0%,0%);fill-opacity:1;" d="M 19.507812 137.273438 L 20.882812 137.273438 L 20.882812 138.925781 L 19.507812 138.925781 Z M 19.507812 137.273438 "/>
<path style=" stroke:none;fill-rule:nonzero;fill:rgb(0%,0%,0%);fill-opacity:1;" d="M 23.976562 137.820312 L 26.125 137.820312 L 26.125 130.40625 L 23.785156 130.875 L 23.785156 129.675781 L 26.109375 129.207031 L 27.425781 129.207031 L 27.425781 137.820312 L 29.574219 137.820312 L 29.574219 138.925781 L 23.976562 138.925781 Z M 23.976562 137.820312 "/>
<g clip-path="url(#clip7)" clip-rule="nonzero">
<path style="fill:none;stroke-width:0.8;stroke-linecap:square;stroke-linejoin:round;stroke:rgb(69.01961%,69.01961%,69.01961%);stroke-opacity:1;stroke-miterlimit:4;" d="M 30.102539 56.947266 L 225.404297 56.947266 " transform="matrix(1.333333,0,0,1.333333,0,0.000000000000014211)"/>
</g>
<path style="fill:none;stroke-width:0.8;stroke-linecap:butt;stroke-linejoin:round;stroke:rgb(0%,0%,0%);stroke-opacity:1;stroke-miterlimit:4;" d="M -0.000585556 -0.00101089 L -3.498632 -0.00101089 " transform="matrix(1.333333,0,0,1.333333,40.137499,75.931035)"/>
<path style=" stroke:none;fill-rule:nonzero;fill:rgb(0%,0%,0%);fill-opacity:1;" d="M 13.835938 72.140625 C 13.160156 72.140625 12.652344 72.476562 12.308594 73.140625 C 11.96875 73.808594 11.800781 74.808594 11.800781 76.148438 C 11.800781 77.480469 11.96875 78.476562 12.308594 79.144531 C 12.652344 79.8125 13.160156 80.144531 13.835938 80.144531 C 14.519531 80.144531 15.03125 79.8125 15.371094 79.144531 C 15.710938 78.476562 15.882812 77.480469 15.882812 76.148438 C 15.882812 74.808594 15.710938 73.808594 15.371094 73.140625 C 15.03125 72.476562 14.519531 72.140625 13.835938 72.140625 Z M 13.835938 71.101562 C 14.929688 71.101562 15.761719 71.53125 16.335938 72.394531 C 16.910156 73.253906 17.199219 74.507812 17.199219 76.148438 C 17.199219 77.78125 16.910156 79.03125 16.335938 79.894531 C 15.761719 80.753906 14.929688 81.1875 13.835938 81.1875 C 12.75 81.1875 11.917969 80.753906 11.339844 79.894531 C 10.765625 79.03125 10.480469 77.78125 10.480469 76.148438 C 10.480469 74.507812 10.765625 73.253906 11.339844 72.394531 C 11.917969 71.53125 12.75 71.101562 13.835938 71.101562 Z M 13.835938 71.101562 "/>
<path style=" stroke:none;fill-rule:nonzero;fill:rgb(0%,0%,0%);fill-opacity:1;" d="M 19.507812 79.34375 L 20.882812 79.34375 L 20.882812 80.996094 L 19.507812 80.996094 Z M 19.507812 79.34375 "/>
<path style=" stroke:none;fill-rule:nonzero;fill:rgb(0%,0%,0%);fill-opacity:1;" d="M 24.878906 79.890625 L 29.46875 79.890625 L 29.46875 80.996094 L 23.296875 80.996094 L 23.296875 79.890625 C 23.796875 79.375 24.476562 78.679688 25.339844 77.8125 C 26.199219 76.941406 26.742188 76.378906 26.964844 76.125 C 27.382812 75.652344 27.675781 75.253906 27.84375 74.925781 C 28.011719 74.597656 28.097656 74.277344 28.097656 73.960938 C 28.097656 73.441406 27.914062 73.023438 27.550781 72.695312 C 27.191406 72.371094 26.71875 72.207031 26.136719 72.207031 C 25.722656 72.207031 25.289062 72.277344 24.828125 72.421875 C 24.371094 72.566406 23.882812 72.78125 23.363281 73.074219 L 23.363281 71.746094 C 23.890625 71.53125 24.386719 71.371094 24.847656 71.261719 C 25.308594 71.15625 25.730469 71.101562 26.109375 71.101562 C 27.117188 71.101562 27.921875 71.351562 28.519531 71.855469 C 29.117188 72.359375 29.417969 73.03125 29.417969 73.875 C 29.417969 74.273438 29.34375 74.652344 29.191406 75.011719 C 29.042969 75.367188 28.769531 75.789062 28.375 76.277344 C 28.265625 76.402344 27.921875 76.765625 27.339844 77.367188 C 26.757812 77.96875 25.9375 78.808594 24.878906 79.890625 Z M 24.878906 79.890625 "/>
<g clip-path="url(#clip8)" clip-rule="nonzero">
<path style="fill:none;stroke-width:0.8;stroke-linecap:square;stroke-linejoin:round;stroke:rgb(69.01961%,69.01961%,69.01961%);stroke-opacity:1;stroke-miterlimit:4;" d="M 30.102539 13.5 L 225.404297 13.5 " transform="matrix(1.333333,0,0,1.333333,0,0.000000000000014211)"/>
</g>
<path style="fill:none;stroke-width:0.8;stroke-linecap:butt;stroke-linejoin:round;stroke:rgb(0%,0%,0%);stroke-opacity:1;stroke-miterlimit:4;" d="M -0.000585556 -0.000000000000010658 L -3.498632 -0.000000000000010658 " transform="matrix(1.333333,0,0,1.333333,40.137499,18)"/>
<path style=" stroke:none;fill-rule:nonzero;fill:rgb(0%,0%,0%);fill-opacity:1;" d="M 13.835938 14.210938 C 13.160156 14.210938 12.652344 14.542969 12.308594 15.210938 C 11.96875 15.875 11.800781 16.878906 11.800781 18.214844 C 11.800781 19.546875 11.96875 20.546875 12.308594 21.214844 C 12.652344 21.878906 13.160156 22.214844 13.835938 22.214844 C 14.519531 22.214844 15.03125 21.878906 15.371094 21.214844 C 15.710938 20.546875 15.882812 19.546875 15.882812 18.214844 C 15.882812 16.878906 15.710938 15.875 15.371094 15.210938 C 15.03125 14.542969 14.519531 14.210938 13.835938 14.210938 Z M 13.835938 13.167969 C 14.929688 13.167969 15.761719 13.601562 16.335938 14.464844 C 16.910156 15.324219 17.199219 16.574219 17.199219 18.214844 C 17.199219 19.851562 16.910156 21.101562 16.335938 21.964844 C 15.761719 22.824219 14.929688 23.253906 13.835938 23.253906 C 12.75 23.253906 11.917969 22.824219 11.339844 21.964844 C 10.765625 21.101562 10.480469 19.851562 10.480469 18.214844 C 10.480469 16.574219 10.765625 15.324219 11.339844 14.464844 C 11.917969 13.601562 12.75 13.167969 13.835938 13.167969 Z M 13.835938 13.167969 "/>
<path style=" stroke:none;fill-rule:nonzero;fill:rgb(0%,0%,0%);fill-opacity:1;" d="M 19.507812 21.410156 L 20.882812 21.410156 L 20.882812 23.066406 L 19.507812 23.066406 Z M 19.507812 21.410156 "/>
<path style=" stroke:none;fill-rule:nonzero;fill:rgb(0%,0%,0%);fill-opacity:1;" d="M 27.730469 17.824219 C 28.359375 17.957031 28.851562 18.238281 29.203125 18.664062 C 29.558594 19.089844 29.734375 19.617188 29.734375 20.242188 C 29.734375 21.199219 29.40625 21.941406 28.746094 22.46875 C 28.085938 22.992188 27.148438 23.253906 25.933594 23.253906 C 25.527344 23.253906 25.109375 23.214844 24.675781 23.132812 C 24.242188 23.054688 23.796875 22.933594 23.339844 22.773438 L 23.339844 21.503906 C 23.703125 21.714844 24.101562 21.875 24.535156 21.984375 C 24.96875 22.09375 25.421875 22.148438 25.894531 22.148438 C 26.71875 22.148438 27.347656 21.984375 27.78125 21.660156 C 28.210938 21.335938 28.425781 20.863281 28.425781 20.242188 C 28.425781 19.667969 28.226562 19.21875 27.824219 18.898438 C 27.425781 18.574219 26.867188 18.410156 26.152344 18.410156 L 25.015625 18.410156 L 25.015625 17.332031 L 26.203125 17.332031 C 26.847656 17.332031 27.34375 17.199219 27.6875 16.941406 C 28.027344 16.683594 28.199219 16.3125 28.199219 15.824219 C 28.199219 15.328125 28.023438 14.945312 27.667969 14.679688 C 27.316406 14.410156 26.808594 14.277344 26.152344 14.277344 C 25.789062 14.277344 25.402344 14.316406 24.988281 14.394531 C 24.578125 14.472656 24.125 14.59375 23.628906 14.757812 L 23.628906 13.585938 C 24.128906 13.449219 24.597656 13.34375 25.035156 13.273438 C 25.46875 13.203125 25.882812 13.167969 26.265625 13.167969 C 27.265625 13.167969 28.054688 13.398438 28.636719 13.851562 C 29.21875 14.304688 29.507812 14.917969 29.507812 15.6875 C 29.507812 16.226562 29.355469 16.683594 29.046875 17.054688 C 28.738281 17.425781 28.300781 17.679688 27.730469 17.824219 Z M 27.730469 17.824219 "/>
<path style="fill:none;stroke-width:1.5;stroke-linecap:square;stroke-linejoin:round;stroke:rgb(12.156863%,46.666667%,70.588237%);stroke-opacity:1;stroke-miterlimit:4;" d="M 38.979492 13.5 L 45.102539 14.276367 L 51.225586 16.582031 L 57.348633 20.367187 L 63.46875 25.532227 L 69.591797 31.951172 L 75.714844 39.46875 L 81.834961 47.897461 L 87.958008 57.032227 L 94.081055 66.644531 L 100.204102 76.5 L 106.324219 86.355469 L 112.447266 95.967773 L 118.570312 105.102539 L 124.693359 113.53125 L 130.813477 121.048828 L 136.936523 127.467773 L 143.05957 132.632812 L 149.179688 136.417969 L 155.302734 138.723633 L 161.425781 139.5 L 216.524414 139.5 " transform="matrix(1.333333,0,0,1.333333,0,0.000000000000014211)"/>
<path style="fill:none;stroke-width:0.8;stroke-linecap:square;stroke-linejoin:miter;stroke:rgb(0%,0%,0%);stroke-opacity:1;stroke-miterlimit:4;" d="M 30.102539 145.798828 L 30.102539 7.201172 " transform="matrix(1.333333,0,0,1.333333,0,0.000000000000014211)"/>
<path style="fill:none;stroke-width:0.8;stroke-linecap:square;stroke-linejoin:miter;stroke:rgb(0%,0%,0%);stroke-opacity:1;stroke-miterlimit:4;" d="M 225.404297 145.798828 L 225.404297 7.201172 " transform="matrix(1.333333,0,0,1.333333,0,0.000000000000014211)"/>
<path style="fill:none;stroke-width:0.8;stroke-linecap:square;stroke-linejoin:miter;stroke:rgb(0%,0%,0%);stroke-opacity:1;stroke-miterlimit:4;" d="M 30.102539 145.798828 L 225.404297 145.798828 " transform="matrix(1.333333,0,0,1.333333,0,0.000000000000014211)"/>
<path style="fill:none;stroke-width:0.8;stroke-linecap:square;stroke-linejoin:miter;stroke:rgb(0%,0%,0%);stroke-opacity:1;stroke-miterlimit:4;" d="M 30.102539 7.201172 L 225.404297 7.201172 " transform="matrix(1.333333,0,0,1.333333,0,0.000000000000014211)"/>
</g>
</svg>
